<svg version="1.2" xmlns="http://www.w3.org/2000/svg" viewBox="0 0 9 9" width="9" height="9"><style>.a{fill:#7b7b7b}</style><path class="a" d="m4.7 0.3l1 1.9q0 0 0 0.1 0.1 0 0.1 0.1 0.1 0 0.1 0 0.1 0 0.1 0.1l2.2 0.3q0 0 0.1 0 0 0 0.1 0 0 0.1 0 0.1 0.1 0 0.1 0.1 0 0 0.1 0 0 0.1 0 0.1 0 0.1 0 0.1 0 0.1 0 0.1 0 0 0 0.1 0 0 0 0.1-0.1 0-0.1 0 0 0 0 0.1l-1.6 1.5q0 0-0.1 0.1 0 0 0 0.1 0 0 0 0.1 0 0 0 0.1l0.3 2.1q0.1 0.1 0 0.2 0 0.1 0 0.2-0.1 0-0.2 0.1 0 0-0.1 0.1-0.1 0-0.1 0-0.1 0-0.1 0 0 0-0.1-0.1 0 0 0 0l-2-1q0 0-0.1 0 0 0-0.1 0 0 0-0.1 0-0.1 0-0.1 0l-1.9 1q-0.1 0.1-0.2 0.1-0.1 0-0.2 0-0.1-0.1-0.2-0.1 0-0.1-0.1-0.2 0 0 0 0 0-0.1 0-0.1 0-0.1 0-0.1 0 0 0-0.1l0.3-2.1q0.1-0.1 0-0.1 0-0.1 0-0.1 0-0.1 0-0.1-0.1-0.1-0.1-0.1l-1.6-1.5q0-0.1-0.1-0.2 0-0.1 0-0.2 0-0.1 0-0.1 0.1-0.1 0.1-0.2 0.1 0 0.1 0 0-0.1 0.1-0.1 0 0 0 0 0.1 0 0.1 0l2.2-0.3q0-0.1 0.1-0.1 0 0 0.1 0 0-0.1 0.1-0.1 0-0.1 0-0.1l1-1.9q0-0.1 0-0.1 0.1-0.1 0.1-0.1 0.1-0.1 0.2-0.1 0 0 0.1 0h0.1q0 0 0.1 0 0 0.1 0.1 0.1 0 0 0.1 0.1 0 0 0 0.1z"/><path class="a" d="m4.3 7.1q0 0-0.1 0 0 0 0 0-0.1 0-0.1 0 0 0 0 0l-2 1q0 0.1-0.1 0.1-0.1 0-0.2 0-0.1-0.1-0.2-0.1-0.1-0.1-0.1-0.2 0 0 0 0 0-0.1 0-0.1-0.1-0.1-0.1-0.1 0 0 0.1-0.1l0.3-2.1q0-0.1 0-0.1 0-0.1 0-0.1 0-0.1 0-0.1-0.1-0.1-0.1-0.1l-1.6-1.5q0-0.1-0.1-0.2 0-0.1 0-0.2 0-0.1 0-0.1 0.1-0.1 0.1-0.2 0.1 0 0.1 0 0-0.1 0.1-0.1 0 0 0 0 0.1 0 0.1 0l2.2-0.3q0-0.1 0.1-0.1 0 0 0.1 0 0-0.1 0.1-0.1 0-0.1 0-0.1l1-2q0 0 0-0.1 0.1 0 0.2 0 0-0.1 0.1-0.1 0 0 0.1 0c0 0.1 0 7 0 7.1z"/></svg>