<svg width="17" height="17" viewBox="0 0 17 17" fill="none" xmlns="http://www.w3.org/2000/svg">
<path d="M8.59041 16.6896C4.07431 16.6896 0.400757 13.0161 0.400757 8.49996C0.400757 3.98385 4.07431 0.310303 8.59041 0.310303C13.1065 0.310303 16.7801 3.98385 16.7801 8.49996C16.7801 13.0161 13.1059 16.6896 8.59041 16.6896ZM8.59041 1.62065C4.79696 1.62065 1.7111 4.70651 1.7111 8.49996C1.7111 12.2934 4.79696 15.3793 8.59041 15.3793C12.3839 15.3793 15.4697 12.2934 15.4697 8.49996C15.4697 4.70651 12.3832 1.62065 8.59041 1.62065ZM8.538 9.10272H4.33179C4.15803 9.10272 3.99138 9.03369 3.86851 8.91082C3.74565 8.78795 3.67662 8.62131 3.67662 8.44754C3.67662 8.27378 3.74565 8.10714 3.86851 7.98427C3.99138 7.8614 4.15803 7.79237 4.33179 7.79237H7.88283V2.93099C7.88283 2.75723 7.95185 2.59058 8.07472 2.46772C8.19759 2.34485 8.36424 2.27582 8.538 2.27582C8.71176 2.27582 8.87841 2.34485 9.00128 2.46772C9.12414 2.59058 9.19317 2.75723 9.19317 2.93099V8.44754C9.19317 8.62131 9.12414 8.78795 9.00128 8.91082C8.87841 9.03369 8.71176 9.10272 8.538 9.10272Z" fill="#fff"/>
</svg>
