<?xml version="1.0" standalone="no"?>
<!DOCTYPE svg PUBLIC "-//W3C//DTD SVG 1.1//EN" "http://www.w3.org/Graphics/SVG/1.1/DTD/svg11.dtd" >
<svg xmlns="http://www.w3.org/2000/svg" xmlns:xlink="http://www.w3.org/1999/xlink" version="1.1">
<metadata>
Created by FontForge 20201107 at Wed Oct  9 13:38:19 2024
 By 
Copyright (c) 2020 by ckhans. All rights reserved.
</metadata>
<defs>
<font id="HalenoirCompactText-Bold" horiz-adv-x="1785" >
  <font-face 
    font-family="HalenoirCompactText-Bold"
    font-weight="700"
    font-stretch="normal"
    units-per-em="2048"
    panose-1="1 0 0 0 0 0 0 0 0 0"
    ascent="1638"
    descent="-410"
    x-height="1024"
    cap-height="1434"
    bbox="-782 -440 3729 1982"
    underline-thickness="102"
    underline-position="-255"
    unicode-range="U+0020-1F169"
  />
<missing-glyph horiz-adv-x="1452" 
d="M1321 82h-1188v1290h1188v-1290zM414 479l67 -67l248 247l248 -247l67 67l-247 248l245 248l-67 67l-248 -247l-248 247l-65 -67l248 -248z" />
    <glyph glyph-name="copyright" unicode="&#x28;c&#x29;" horiz-adv-x="1665" 
d="M831 -29q-148 0 -283 59.5t-233 159.5t-156.5 238t-58.5 289t58.5 289t156.5 238t233 159t283 59t283.5 -59t234.5 -159t157.5 -238t58.5 -289t-58.5 -289t-157.5 -238t-234.5 -159.5t-283.5 -59.5zM250 717q0 -162 77.5 -300t211.5 -219t292 -81q157 0 291.5 81
t213.5 219.5t79 299.5t-79 299.5t-213.5 219.5t-291.5 81q-158 0 -292 -80.5t-211.5 -219t-77.5 -300.5zM485 694v49q0 153 99.5 252t253.5 101q148 -2 245.5 -86t100.5 -213h-203q-3 66 -42 107.5t-99 41.5q-68 0 -109 -50t-41 -128v-100q0 -77 41 -129t107 -52
q60 0 100 43t43 107h203q-3 -134 -98.5 -216.5t-247.5 -82.5q-159 0 -256 97.5t-97 258.5z" />
    <glyph glyph-name="registered" unicode="&#x28;r&#x29;" horiz-adv-x="811" 
d="M406 846q-129 0 -217.5 89t-88.5 218q0 130 89 219.5t217 89.5q129 0 216 -89t87 -220q0 -129 -88 -218t-215 -89zM406 909q100 0 169.5 71t69.5 175t-68 174t-171 70t-172.5 -69.5t-69.5 -174.5q0 -104 70 -175t172 -71zM360 995h-73v326h143q55 0 85 -28t30 -81
q0 -70 -64 -92l66 -125h-76l-61 119h-50v-119zM360 1255v-77h68q43 0 43 39q0 38 -43 38h-68z" />
    <glyph glyph-name="endash" unicode="&#x2d;&#x2d;" horiz-adv-x="1028" 
d="M942 565h-856v221h856v-221z" />
    <glyph glyph-name="emdash" unicode="&#x2013;&#x2d;" horiz-adv-x="1359" 
d="M1274 565h-1188v221h1188v-221z" />
    <glyph glyph-name="perthousand" unicode="&#x25;o" horiz-adv-x="2252" 
d="M453 821q-139 0 -222.5 86t-83.5 232q0 80 25.5 143t68.5 101.5t97 58.5t115 20q127 0 216 -88t89 -235q0 -145 -84 -231.5t-221 -86.5zM397 10h-164l955 1432h164zM453 973q55 0 88.5 46.5t33.5 121.5q0 73 -32 119.5t-90 46.5q-56 0 -89.5 -45t-33.5 -121
q0 -80 33 -124t90 -44zM1137 -29q-139 0 -222.5 86.5t-83.5 233.5q0 155 89 238t217 83q127 0 216 -87t89 -234t-83.5 -233.5t-221.5 -86.5zM1798 -29q-139 0 -222 86.5t-83 233.5q0 155 88.5 238t216.5 83q127 0 216 -87t89 -234t-83.5 -233.5t-221.5 -86.5zM1137 125
q57 0 90 45.5t33 120.5q0 74 -32 120t-91 46q-56 0 -89.5 -44.5t-33.5 -121.5q0 -80 33 -123t90 -43zM1798 125q57 0 90 45.5t33 120.5q0 74 -32 120t-91 46q-56 0 -89.5 -44.5t-33.5 -121.5q0 -80 33 -123t90 -43z" />
    <glyph glyph-name="uni2116" unicode="N&#xb0;" horiz-adv-x="2013" 
d="M1667 821q-137 0 -221 86.5t-84 231.5q0 106 44 181t111.5 108.5t149.5 33.5q127 0 216 -88t89 -235q0 -145 -84 -231.5t-221 -86.5zM375 0h-289v1434h320l550 -971h11v971h288v-1434h-319l-549 969h-12v-969zM1667 977q55 0 87 43t32 121q0 75 -32.5 118.5t-86.5 43.5
q-53 0 -85 -44t-32 -118q0 -78 31.5 -121t85.5 -43zM1942 537h-547v184h547v-184z" />
    <glyph glyph-name="arrowleft" unicode="&#x3c;&#x2d;" horiz-adv-x="1585" 
d="M877 233l-168 -172l-613 615l613 614l168 -168l-336 -336l948 5v-232l-944 6z" />
    <glyph glyph-name="arrowup" unicode="&#x2d;&#x3e;up" horiz-adv-x="1609" 
d="M915 -18h-227l6 942l-332 -334l-169 170l612 612l614 -612l-168 -168l-336 334v-944z" />
    <glyph glyph-name="arrowright" unicode="&#x2d;&#x3e;" horiz-adv-x="1585" 
d="M1489 676l-612 -615l-168 170l335 334h-948v228l944 -5l-331 332l168 170z" />
    <glyph glyph-name="arrowdown" unicode="&#x2d;&#x3e;down" horiz-adv-x="1611" 
d="M1419 594l-612 -614l-614 612l167 168l334 -334v946l228 2l-4 -946l331 334z" />
    <glyph glyph-name="arrowboth" unicode="&#x3c;&#x2d;&#x3e;" horiz-adv-x="1779" 
d="M786 231l-168 -170l-614 615l614 614l168 -170l-333 -332h874l-334 332l170 170l613 -614l-615 -615l-168 170l336 332h-878z" />
    <glyph glyph-name="arrowupdn" unicode="&#x3c;&#x2d;&#x3e;up" horiz-adv-x="1566" 
d="M1397 444l-613 -614l-614 616l168 168l334 -335v878l-334 -336l-168 168l614 615l613 -615l-168 -168l-334 334v-874l334 333z" />
    <glyph glyph-name="uni2196" unicode="&#x3c;&#x2d;upleft" horiz-adv-x="1204" 
d="M1157 305l-162 -164l-665 672l2 -467l-240 -4v868h866v-237h-473z" />
    <glyph glyph-name="uni2197" unicode="&#x2d;&#x3e;upright" horiz-adv-x="1206" 
d="M877 795l-670 -670l-162 160l674 665l-471 -2v240h866v-866h-237v473z" />
    <glyph glyph-name="uni2198" unicode="&#x2d;&#x3e;downright" horiz-adv-x="1202" 
d="M1110 141h-866v238h473l-672 670l162 161l665 -671l-2 469l240 2v-869z" />
    <glyph glyph-name="uni2199" unicode="&#x3c;&#x2d;downleft" horiz-adv-x="1206" 
d="M961 143h-869v867h236l2 -473l667 671l162 -161l-672 -666l469 2z" />
    <glyph glyph-name="uni21A5" unicode="&#x2d;&#x3e;upstop" horiz-adv-x="1572" 
d="M1386 -8h-1198v221h488v782l-334 -336l-170 170l614 613l615 -613l-170 -170l-332 334l2 -780h485v-221z" />
    <glyph glyph-name="uni21A7" unicode="&#x2d;&#x3e;downstop" horiz-adv-x="1572" 
d="M1401 604l-615 -612l-614 614l170 168l334 -336v783h-488v221h1198v-221h-485l-2 -781l332 334z" />
    <glyph glyph-name="uni21B0" unicode="&#x3c;&#x2d;upturn" horiz-adv-x="1722" 
d="M1407 12h-221v731l-625 2l287 -284l-168 -170l-565 565l563 565l170 -170l-285 -282l844 2v-959z" />
    <glyph glyph-name="uni21B1" unicode="&#x2d;&#x3e;upturn" horiz-adv-x="1523" 
d="M336 12h-221v959l843 -2l-282 282l168 170l563 -565l-563 -565l-168 170l285 284l-625 -2v-731z" />
    <glyph glyph-name="uni21B2" unicode="&#x3c;&#x2d;downturn" horiz-adv-x="1523" 
d="M848 182l-170 -170l-563 566l565 565l168 -170l-287 -285l625 2v731h221v-958l-844 2z" />
    <glyph glyph-name="uni21B3" unicode="&#x2d;&#x3e;downturn" horiz-adv-x="1523" 
d="M1407 578l-563 -566l-168 170l282 283l-843 -2v958h221v-731l625 -2l-285 285l168 170z" />
    <glyph glyph-name="uni21E4" unicode="&#x3c;&#x2d;stop" horiz-adv-x="1853" 
d="M1208 229l-168 -168l-612 615l612 614l168 -172l-331 -332l841 5v-228h-844zM391 78h-221v1198h221v-1198z" />
    <glyph glyph-name="uni21E5" unicode="&#x2d;&#x3e;stop" horiz-adv-x="1853" 
d="M1462 676l-614 -615l-168 168l336 334h-846v228l844 -5l-334 332l170 172zM1718 78h-221v1198h221v-1198z" />
    <glyph glyph-name="uni2460" unicode="&#x28;&#x31;&#x29;" 
d="M893 -115q-219 0 -407 112t-298 303.5t-110 416.5q0 168 65 322t174.5 265.5t260.5 177.5t315 66t315 -66t260.5 -177.5t174.5 -265.5t65 -322q0 -225 -110 -416.5t-298 -303.5t-407 -112zM893 37q177 0 329.5 92t242 249t89.5 339t-89.5 339t-242 249t-329.5 92
q-178 0 -330 -91.5t-241 -248.5t-89 -340q0 -182 89 -339t241 -249t330 -92zM995 1081v-729h-157v545q-14 -25 -58.5 -44.5t-93.5 -18.5v141q54 -2 103.5 26.5t78.5 79.5h127z" />
    <glyph glyph-name="uni2461" unicode="&#x28;&#x32;&#x29;" 
d="M893 -115q-219 0 -407 112t-298 303.5t-110 416.5q0 168 65 322t174.5 265.5t260.5 177.5t315 66t315 -66t260.5 -177.5t174.5 -265.5t65 -322q0 -225 -110 -416.5t-298 -303.5t-407 -112zM893 37q177 0 329.5 92t242 249t89.5 339t-89.5 339t-242 249t-329.5 92
q-178 0 -330 -91.5t-241 -248.5t-89 -340q0 -182 89 -339t241 -249t330 -92zM1155 371h-518v104l231 225q35 31 86 91q45 51 45 98q0 44 -27 68t-75 24q-53 0 -81 -36t-30 -93h-159q8 118 79.5 190t190.5 72q121 0 189.5 -61t68.5 -160q0 -42 -22 -83.5t-74 -98.5
q-11 -15 -64 -68l-139 -137h299v-135z" />
    <glyph glyph-name="uni2462" unicode="&#x28;&#x33;&#x29;" 
d="M893 -115q-219 0 -407 112t-298 303.5t-110 416.5q0 168 65 322t174.5 265.5t260.5 177.5t315 66t315 -66t260.5 -177.5t174.5 -265.5t65 -322q0 -225 -110 -416.5t-298 -303.5t-407 -112zM893 37q177 0 329.5 92t242 249t89.5 339t-89.5 339t-242 249t-329.5 92
q-178 0 -330 -91.5t-241 -248.5t-89 -340q0 -182 89 -339t241 -249t330 -92zM895 338q-118 0 -199 65t-86 162h162q5 -42 38 -68t85 -26q57 0 90 26.5t33 71.5q0 46 -33.5 73.5t-91.5 27.5h-80v123h82q43 0 71.5 24.5t28.5 61.5t-29 60.5t-73 23.5q-42 0 -68.5 -23.5
t-31.5 -62.5l-158 2q7 92 82 154.5t178 62.5q106 0 181 -59t75 -154q0 -46 -24.5 -86.5t-65.5 -65.5q113 -50 113 -176q0 -97 -78 -157t-201 -60z" />
    <glyph glyph-name="uni2463" unicode="&#x28;&#x34;&#x29;" 
d="M893 -115q-219 0 -407 112t-298 303.5t-110 416.5q0 168 65 322t174.5 265.5t260.5 177.5t315 66t315 -66t260.5 -177.5t174.5 -265.5t65 -322q0 -225 -110 -416.5t-298 -303.5t-407 -112zM893 37q177 0 329.5 92t242 249t89.5 339t-89.5 339t-242 249t-329.5 92
q-178 0 -330 -91.5t-241 -248.5t-89 -340q0 -182 89 -339t241 -249t330 -92zM1063 358h-156v158h-348v125l299 446h205v-438h104v-133h-104v-158zM903 938l-188 -289h188v289z" />
    <glyph glyph-name="uni2464" unicode="&#x28;&#x35;&#x29;" 
d="M893 -115q-219 0 -407 112t-298 303.5t-110 416.5q0 168 65 322t174.5 265.5t260.5 177.5t315 66t315 -66t260.5 -177.5t174.5 -265.5t65 -322q0 -225 -110 -416.5t-298 -303.5t-407 -112zM893 37q177 0 329.5 92t242 249t89.5 339t-89.5 339t-242 249t-329.5 92
q-178 0 -330 -91.5t-241 -248.5t-89 -340q0 -182 89 -339t241 -249t330 -92zM893 317q-125 0 -198 69t-64 181l147 2q-1 -54 31 -86t86 -32q51 0 81 35t30 94q0 56 -30 90t-81 35q-84 3 -109 -64h-145l43 420h442v-133h-305l-20 -154q51 62 137 62q100 0 161.5 -71.5
t61.5 -184.5q0 -117 -74.5 -190t-193.5 -73z" />
    <glyph glyph-name="uni2465" unicode="&#x28;&#x36;&#x29;" 
d="M893 -115q-219 0 -407 112t-298 303.5t-110 416.5q0 168 65 322t174.5 265.5t260.5 177.5t315 66t315 -66t260.5 -177.5t174.5 -265.5t65 -322q0 -225 -110 -416.5t-298 -303.5t-407 -112zM893 37q177 0 329.5 92t242 249t89.5 339t-89.5 339t-242 249t-329.5 92
q-178 0 -330 -91.5t-241 -248.5t-89 -340q0 -182 89 -339t241 -249t330 -92zM905 334q-135 0 -213 97t-78 267q0 175 83 284.5t218 109.5q105 0 173 -59.5t79 -155.5h-147q-24 81 -111 81q-63 0 -100.5 -55.5t-40.5 -148.5q51 84 162 84q106 0 176 -70.5t70 -177.5
q0 -112 -74.5 -184t-196.5 -72zM901 467q53 0 85 35t32 92q0 56 -32.5 90.5t-84.5 34.5q-55 0 -90 -34.5t-35 -90.5q0 -57 34.5 -92t90.5 -35z" />
    <glyph glyph-name="uni2466" unicode="&#x28;&#x37;&#x29;" 
d="M893 -115q-219 0 -407 112t-298 303.5t-110 416.5q0 168 65 322t174.5 265.5t260.5 177.5t315 66t315 -66t260.5 -177.5t174.5 -265.5t65 -322q0 -225 -110 -416.5t-298 -303.5t-407 -112zM893 37q177 0 329.5 92t242 249t89.5 339t-89.5 339t-242 249t-329.5 92
q-178 0 -330 -91.5t-241 -248.5t-89 -340q0 -182 89 -339t241 -249t330 -92zM924 332h-156q0 171 58 325t159 271h-340v133h516v-141q-123 -132 -180 -275.5t-57 -312.5z" />
    <glyph glyph-name="uni2467" unicode="&#x28;&#x38;&#x29;" 
d="M893 -115q-219 0 -407 112t-298 303.5t-110 416.5q0 168 65 322t174.5 265.5t260.5 177.5t315 66t315 -66t260.5 -177.5t174.5 -265.5t65 -322q0 -225 -110 -416.5t-298 -303.5t-407 -112zM893 37q177 0 329.5 92t242 249t89.5 339t-89.5 339t-242 249t-329.5 92
q-178 0 -330 -91.5t-241 -248.5t-89 -340q0 -182 89 -339t241 -249t330 -92zM897 338q-123 0 -204 59.5t-81 159.5q0 56 27 100.5t74 71.5q-72 59 -72 156q0 95 73 153t183 58q108 0 181 -58t73 -153q0 -93 -72 -158q46 -27 72.5 -71.5t26.5 -98.5q0 -101 -80 -160t-201 -59
zM895 795q44 0 72 24t28 62q0 35 -28 58.5t-72 23.5t-71 -22.5t-27 -59.5q0 -40 26.5 -63t71.5 -23zM895 471q57 0 92 27t35 73q0 43 -35.5 71t-91.5 28t-91.5 -28t-35.5 -71q0 -46 35 -73t92 -27z" />
    <glyph glyph-name="uni2468" unicode="&#x28;&#x39;&#x29;" 
d="M893 -115q-219 0 -407 112t-298 303.5t-110 416.5q0 168 65 322t174.5 265.5t260.5 177.5t315 66t315 -66t260.5 -177.5t174.5 -265.5t65 -322q0 -225 -110 -416.5t-298 -303.5t-407 -112zM893 37q177 0 329.5 92t242 249t89.5 339t-89.5 339t-242 249t-329.5 92
q-178 0 -330 -91.5t-241 -248.5t-89 -340q0 -182 89 -339t241 -249t330 -92zM889 338q-104 0 -172.5 60t-79.5 157h147q21 -84 109 -84q63 0 101.5 58t41.5 149q-52 -86 -162 -86q-107 0 -176 71t-69 179q0 111 75 182.5t195 71.5q136 0 214.5 -96.5t78.5 -266.5
q0 -177 -84 -286t-219 -109zM905 711q54 0 87.5 35t33.5 92q0 56 -33.5 90.5t-87.5 34.5q-55 0 -87 -34.5t-32 -90.5q0 -58 32 -92.5t87 -34.5z" />
    <glyph glyph-name="uni2469" unicode="&#x28;&#x31;&#x30;&#x29;" 
d="M893 -115q-219 0 -407 112t-298 303.5t-110 416.5q0 168 65 322t174.5 265.5t260.5 177.5t315 66t315 -66t260.5 -177.5t174.5 -265.5t65 -322q0 -225 -110 -416.5t-298 -303.5t-407 -112zM893 37q177 0 329.5 92t242 249t89.5 339t-89.5 339t-242 249t-329.5 92
q-178 0 -330 -91.5t-241 -248.5t-89 -340q0 -182 89 -339t241 -249t330 -92zM1073 338q-132 0 -209.5 96.5t-77.5 261.5v9q0 165 77.5 263.5t209.5 98.5q137 0 211 -101.5t74 -260.5v-9q0 -165 -77 -261.5t-208 -96.5zM715 352h-152v522q-13 -25 -56 -44.5t-93 -16.5v137
q54 -3 102.5 24.5t75.5 78.5h123v-701zM1073 467q65 0 101 60t36 167v11q0 108 -37 170.5t-100 62.5q-65 0 -101 -61.5t-36 -171.5v-11q0 -107 36 -167t101 -60z" />
    <glyph glyph-name="uni246A" unicode="&#x28;&#x31;&#x31;&#x29;" 
d="M893 -115q-219 0 -407 112t-298 303.5t-110 416.5q0 168 65 322t174.5 265.5t260.5 177.5t315 66t315 -66t260.5 -177.5t174.5 -265.5t65 -322q0 -225 -110 -416.5t-298 -303.5t-407 -112zM893 37q177 0 329.5 92t242 249t89.5 339t-89.5 339t-242 249t-329.5 92
q-178 0 -330 -91.5t-241 -248.5t-89 -340q0 -182 89 -339t241 -249t330 -92zM770 1053v-701h-152v522q-13 -25 -57 -44.5t-92 -16.5v137q53 -3 101 24t77 79h123zM1208 1053v-701h-149v522q-13 -25 -57 -44.5t-93 -16.5v137q52 -3 100.5 24.5t75.5 78.5h123z" />
    <glyph glyph-name="uni246B" unicode="&#x28;&#x31;&#x32;&#x29;" 
d="M893 -115q-219 0 -407 112t-298 303.5t-110 416.5q0 168 65 322t174.5 265.5t260.5 177.5t315 66t315 -66t260.5 -177.5t174.5 -265.5t65 -322q0 -225 -110 -416.5t-298 -303.5t-407 -112zM893 37q177 0 329.5 92t242 249t89.5 339t-89.5 339t-242 249t-329.5 92
q-178 0 -330 -91.5t-241 -248.5t-89 -340q0 -182 89 -339t241 -249t330 -92zM1305 483v-129h-502v101l307 303q41 44 41 94q0 41 -25 64.5t-71 23.5q-52 0 -78.5 -34.5t-28.5 -90.5h-153q6 113 75 183.5t185 70.5q115 0 181.5 -59.5t66.5 -153.5q0 -82 -93 -178l-196 -195
h291zM711 1053v-701h-150v522q-15 -25 -58 -44.5t-91 -16.5v137q52 -3 100.5 24.5t75.5 78.5h123z" />
    <glyph glyph-name="uni246C" unicode="&#x28;&#x31;&#x33;&#x29;" 
d="M893 -115q-219 0 -407 112t-298 303.5t-110 416.5q0 168 65 322t174.5 265.5t260.5 177.5t315 66t315 -66t260.5 -177.5t174.5 -265.5t65 -322q0 -225 -110 -416.5t-298 -303.5t-407 -112zM893 37q177 0 329.5 92t242 249t89.5 339t-89.5 339t-242 249t-329.5 92
q-178 0 -330 -91.5t-241 -248.5t-89 -340q0 -182 89 -339t241 -249t330 -92zM1071 336q-114 0 -191.5 62.5t-82.5 156.5h155q5 -40 37.5 -65t81.5 -25q54 0 85.5 25.5t31.5 68.5q0 44 -32 70t-87 26h-76v119h78q40 0 67 23t27 59q0 34 -27.5 57t-68.5 23q-40 0 -66 -23
t-32 -59l-150 2q8 88 79.5 148.5t170.5 60.5q101 0 172.5 -57t71.5 -148q0 -92 -82 -145q50 -22 78 -66.5t28 -103.5q0 -94 -75 -151.5t-193 -57.5zM715 1053v-701h-150v522q-15 -25 -58.5 -44.5t-92.5 -16.5v137q54 -3 102.5 24.5t75.5 78.5h123z" />
    <glyph glyph-name="uni246D" unicode="&#x28;&#x31;&#x34;&#x29;" 
d="M893 -115q-219 0 -407 112t-298 303.5t-110 416.5q0 168 65 322t174.5 265.5t260.5 177.5t315 66t315 -66t260.5 -177.5t174.5 -265.5t65 -322q0 -225 -110 -416.5t-298 -303.5t-407 -112zM893 37q177 0 329.5 92t242 249t89.5 339t-89.5 339t-242 249t-329.5 92
q-178 0 -330 -91.5t-241 -248.5t-89 -340q0 -182 89 -339t241 -249t330 -92zM686 352h-149v522q-15 -25 -58.5 -44.5t-91.5 -16.5v137q52 -3 100.5 24.5t75.5 78.5h123v-701zM1257 352h-149v152h-334v119l285 430h198v-420h101v-129h-101v-152zM1106 907l-182 -274h182v274z
" />
    <glyph glyph-name="uni246E" unicode="&#x28;&#x31;&#x35;&#x29;" 
d="M893 -115q-219 0 -407 112t-298 303.5t-110 416.5q0 168 65 322t174.5 265.5t260.5 177.5t315 66t315 -66t260.5 -177.5t174.5 -265.5t65 -322q0 -225 -110 -416.5t-298 -303.5t-407 -112zM893 37q177 0 329.5 92t242 249t89.5 339t-89.5 339t-242 249t-329.5 92
q-178 0 -330 -91.5t-241 -248.5t-89 -340q0 -182 89 -339t241 -249t330 -92zM705 352h-150v522q-15 -25 -58.5 -44.5t-93.5 -16.5v137q54 -3 103 24.5t76 78.5h123v-701zM1063 336q-119 0 -189 67.5t-63 174.5h143q-1 -51 29.5 -82t81.5 -31q49 0 76.5 33t27.5 90
q0 55 -27.5 87t-76.5 32q-79 3 -104 -60h-140l41 404h426v-129h-293l-20 -148q46 60 131 60q97 0 156 -69t59 -177q0 -112 -72 -182t-186 -70z" />
    <glyph glyph-name="uni246F" unicode="&#x28;&#x31;&#x36;&#x29;" 
d="M893 -115q-219 0 -407 112t-298 303.5t-110 416.5q0 168 65 322t174.5 265.5t260.5 177.5t315 66t315 -66t260.5 -177.5t174.5 -265.5t65 -322q0 -225 -110 -416.5t-298 -303.5t-407 -112zM893 37q177 0 329.5 92t242 249t89.5 339t-89.5 339t-242 249t-329.5 92
q-178 0 -330 -91.5t-241 -248.5t-89 -340q0 -182 89 -339t241 -249t330 -92zM1061 332q-129 0 -204 93t-75 257q0 169 80 274t209 105q101 0 166 -57.5t76 -151.5h-142q-20 80 -106 80q-59 0 -95.5 -55.5t-39.5 -143.5q22 36 62.5 60t92.5 24q103 0 170.5 -68t67.5 -171
q0 -107 -72.5 -176.5t-189.5 -69.5zM707 350h-150v522q-13 -23 -57 -42.5t-92 -18.5v137q52 -3 100.5 25t75.5 78h123v-701zM1057 461q51 0 81.5 33.5t30.5 87.5t-30.5 86t-81.5 32q-53 0 -85 -32t-32 -86t32.5 -87.5t84.5 -33.5z" />
    <glyph glyph-name="uni2470" unicode="&#x28;&#x31;&#x37;&#x29;" 
d="M893 -115q-219 0 -407 112t-298 303.5t-110 416.5q0 168 65 322t174.5 265.5t260.5 177.5t315 66t315 -66t260.5 -177.5t174.5 -265.5t65 -322q0 -225 -110 -416.5t-298 -303.5t-407 -112zM893 37q177 0 329.5 92t242 249t89.5 339t-89.5 339t-242 249t-329.5 92
q-178 0 -330 -91.5t-241 -248.5t-89 -340q0 -182 89 -339t241 -249t330 -92zM733 352h-151v522q-13 -25 -57 -44.5t-93 -16.5v137q53 -3 101 24t77 79h123v-701zM1094 352h-150q-1 164 55.5 312.5t153.5 259.5h-328v129h496v-135q-118 -126 -172.5 -264t-54.5 -302z" />
    <glyph glyph-name="uni2471" unicode="&#x28;&#x31;&#x38;&#x29;" 
d="M893 -115q-219 0 -407 112t-298 303.5t-110 416.5q0 168 65 322t174.5 265.5t260.5 177.5t315 66t315 -66t260.5 -177.5t174.5 -265.5t65 -322q0 -225 -110 -416.5t-298 -303.5t-407 -112zM893 37q177 0 329.5 92t242 249t89.5 339t-89.5 339t-242 249t-329.5 92
q-178 0 -330 -91.5t-241 -248.5t-89 -340q0 -182 89 -339t241 -249t330 -92zM1055 338q-117 0 -195 57.5t-78 153.5q0 105 99 164q-70 57 -70 149t69.5 148.5t174.5 56.5t174 -56.5t69 -148.5t-69 -149q96 -60 96 -164q0 -97 -76.5 -154t-193.5 -57zM721 352h-150v522
q-15 -25 -58 -44.5t-91 -16.5v137q52 -3 100.5 24.5t75.5 78.5h123v-701zM1055 778q43 0 68.5 21.5t25.5 58.5q0 36 -26 58t-68 22q-41 0 -67.5 -22.5t-26.5 -57.5q0 -36 26 -58t68 -22zM1055 467q54 0 87.5 26.5t33.5 67.5q0 43 -33 68.5t-88 25.5q-54 0 -87.5 -25.5
t-33.5 -68.5q0 -41 33.5 -67.5t87.5 -26.5z" />
    <glyph glyph-name="uni2472" unicode="&#x28;&#x31;&#x39;&#x29;" 
d="M893 -115q-219 0 -407 112t-298 303.5t-110 416.5q0 168 65 322t174.5 265.5t260.5 177.5t315 66t315 -66t260.5 -177.5t174.5 -265.5t65 -322q0 -225 -110 -416.5t-298 -303.5t-407 -112zM893 37q177 0 329.5 92t242 249t89.5 339t-89.5 339t-242 249t-329.5 92
q-178 0 -330 -91.5t-241 -248.5t-89 -340q0 -182 89 -339t241 -249t330 -92zM1044 338q-100 0 -164.5 57.5t-76.5 151.5h143q20 -80 105 -80q60 0 97 55.5t40 143.5q-22 -36 -62.5 -60t-93.5 -24q-102 0 -168.5 68t-66.5 171q0 107 71 176.5t187 69.5q131 0 205.5 -93
t74.5 -257q0 -169 -80.5 -274t-210.5 -105zM713 352h-150v522q-15 -25 -58 -44.5t-91 -16.5v137q52 -3 100.5 24.5t75.5 78.5h123v-701zM1061 698q53 0 86 32.5t33 86.5t-33 87.5t-86 33.5q-52 0 -83.5 -33.5t-31.5 -87.5t32 -86.5t83 -32.5z" />
    <glyph glyph-name="uni2473" unicode="&#x28;&#x32;&#x30;&#x29;" 
d="M893 -115q-219 0 -407 112t-298 303.5t-110 416.5q0 168 65 322t174.5 265.5t260.5 177.5t315 66t315 -66t260.5 -177.5t174.5 -265.5t65 -322q0 -225 -110 -416.5t-298 -303.5t-407 -112zM893 37q177 0 329.5 92t242 249t89.5 339t-89.5 339t-242 249t-329.5 92
q-178 0 -330 -91.5t-241 -248.5t-89 -340q0 -182 89 -339t241 -249t330 -92zM1153 381q-125 0 -196.5 89.5t-71.5 244.5v8q0 155 72.5 246.5t195.5 91.5q129 0 198.5 -94.5t69.5 -243.5v-8q0 -155 -72.5 -244.5t-195.5 -89.5zM862 391h-469v94l209 201q62 62 78 82
q39 48 39 88t-23.5 62t-66.5 22q-48 0 -73.5 -33t-27.5 -84h-143q5 105 69.5 170.5t174.5 65.5q108 0 169.5 -54.5t61.5 -142.5q0 -40 -19.5 -78t-66.5 -90q-10 -13 -22 -25t-26.5 -26t-18.5 -18l-115 -113h270v-121zM1153 500q60 0 93.5 57t33.5 158v8q0 103 -33.5 161
t-93.5 58t-94.5 -58t-34.5 -161v-8q0 -101 34.5 -158t94.5 -57z" />
    <glyph glyph-name="uni24B6" unicode="&#x28;A&#x29;" 
d="M893 -115q-219 0 -407 112t-298 303.5t-110 416.5q0 168 65 322t174.5 265.5t260.5 177.5t315 66t315 -66t260.5 -177.5t174.5 -265.5t65 -322q0 -225 -110 -416.5t-298 -303.5t-407 -112zM893 37q177 0 329.5 92t242 249t89.5 339t-89.5 339t-242 249t-329.5 92
q-178 0 -330 -91.5t-241 -248.5t-89 -340q0 -182 89 -339t241 -249t330 -92zM686 393h-158l279 729h174l274 -729h-155l-60 158h-295zM891 948l-94 -264h192l-92 264h-6z" />
    <glyph glyph-name="uni24B7" unicode="&#x28;B&#x29;" 
d="M893 -115q-219 0 -407 112t-298 303.5t-110 416.5q0 168 65 322t174.5 265.5t260.5 177.5t315 66t315 -66t260.5 -177.5t174.5 -265.5t65 -322q0 -225 -110 -416.5t-298 -303.5t-407 -112zM893 37q177 0 329.5 92t242 249t89.5 339t-89.5 339t-242 249t-329.5 92
q-178 0 -330 -91.5t-241 -248.5t-89 -340q0 -182 89 -339t241 -249t330 -92zM997 352h-354v729h336q109 0 167 -50t58 -144q0 -59 -29.5 -100t-72.5 -56v-4q54 -20 88.5 -64t34.5 -106q0 -95 -61 -150t-167 -55zM801 948v-162h164q41 0 63.5 22t22.5 62q0 78 -86 78h-164z
M801 659v-174h184q39 0 60.5 22.5t21.5 63.5q0 39 -24.5 63.5t-61.5 24.5h-180z" />
    <glyph glyph-name="uni24B8" unicode="&#x28;C&#x29;" 
d="M893 -115q-219 0 -407 112t-298 303.5t-110 416.5q0 168 65 322t174.5 265.5t260.5 177.5t315 66t315 -66t260.5 -177.5t174.5 -265.5t65 -322q0 -225 -110 -416.5t-298 -303.5t-407 -112zM893 37q177 0 329.5 92t242 249t89.5 339t-89.5 339t-242 249t-329.5 92
q-178 0 -330 -91.5t-241 -248.5t-89 -340q0 -182 89 -339t241 -249t330 -92zM901 338q-83 0 -149 32t-106 86t-60.5 119t-20.5 136v10q0 72 20.5 137.5t60.5 119.5t106 86t149 32q138 0 226 -77.5t94 -187.5h-160q-5 59 -49.5 96t-110.5 36q-90 0 -135 -71t-45 -171v-10
q0 -62 17.5 -114t59.5 -88.5t103 -37.5q67 0 111.5 36t50.5 95h158q-6 -110 -94 -187t-226 -77z" />
    <glyph glyph-name="uni24B9" unicode="&#x28;D&#x29;" 
d="M893 -115q-219 0 -407 112t-298 303.5t-110 416.5q0 168 65 322t174.5 265.5t260.5 177.5t315 66t315 -66t260.5 -177.5t174.5 -265.5t65 -322q0 -225 -110 -416.5t-298 -303.5t-407 -112zM893 37q177 0 329.5 92t242 249t89.5 339t-89.5 339t-242 249t-329.5 92
q-178 0 -330 -91.5t-241 -248.5t-89 -340q0 -182 89 -339t241 -249t330 -92zM942 352h-285v729h285q137 0 223 -101t86 -263q0 -161 -86 -263t-223 -102zM815 948v-463h96q88 0 136.5 63t48.5 169q0 107 -48.5 169t-136.5 62h-96z" />
    <glyph glyph-name="uni24BA" unicode="&#x28;E&#x29;" 
d="M893 -115q-219 0 -407 112t-298 303.5t-110 416.5q0 168 65 322t174.5 265.5t260.5 177.5t315 66t315 -66t260.5 -177.5t174.5 -265.5t65 -322q0 -225 -110 -416.5t-298 -303.5t-407 -112zM893 37q177 0 329.5 92t242 249t89.5 339t-89.5 339t-242 249t-329.5 92
q-178 0 -330 -91.5t-241 -248.5t-89 -340q0 -182 89 -339t241 -249t330 -92zM1151 352h-512v729h512v-133h-356v-162h323v-133h-323v-168h356v-133z" />
    <glyph glyph-name="uni24BB" unicode="&#x28;F&#x29;" 
d="M893 -115q-219 0 -407 112t-298 303.5t-110 416.5q0 168 65 322t174.5 265.5t260.5 177.5t315 66t315 -66t260.5 -177.5t174.5 -265.5t65 -322q0 -225 -110 -416.5t-298 -303.5t-407 -112zM893 37q177 0 329.5 92t242 249t89.5 339t-89.5 339t-242 249t-329.5 92
q-178 0 -330 -91.5t-241 -248.5t-89 -340q0 -182 89 -339t241 -249t330 -92zM801 352h-158v729h514v-133h-356v-186h323v-133h-323v-277z" />
    <glyph glyph-name="uni24BC" unicode="&#x28;G&#x29;" 
d="M893 -115q-219 0 -407 112t-298 303.5t-110 416.5q0 168 65 322t174.5 265.5t260.5 177.5t315 66t315 -66t260.5 -177.5t174.5 -265.5t65 -322q0 -225 -110 -416.5t-298 -303.5t-407 -112zM893 37q177 0 329.5 92t242 249t89.5 339t-89.5 339t-242 249t-329.5 92
q-178 0 -330 -91.5t-241 -248.5t-89 -340q0 -182 89 -339t241 -249t330 -92zM903 326q-84 0 -150.5 31.5t-106.5 85t-60.5 118.5t-20.5 137v11q0 71 21 136t61 118.5t106.5 85.5t149.5 32q138 0 225 -76t95 -186h-160q-4 58 -49 94.5t-111 34.5q-90 0 -135 -70.5t-45 -168.5
v-11q0 -99 45 -168.5t135 -70.5q73 0 118.5 38t45.5 107v10h-154v134h310v-127q0 -127 -87.5 -211t-232.5 -84z" />
    <glyph glyph-name="uni24BD" unicode="&#x28;H&#x29;" 
d="M893 -115q-219 0 -407 112t-298 303.5t-110 416.5q0 168 65 322t174.5 265.5t260.5 177.5t315 66t315 -66t260.5 -177.5t174.5 -265.5t65 -322q0 -225 -110 -416.5t-298 -303.5t-407 -112zM893 37q177 0 329.5 92t242 249t89.5 339t-89.5 339t-242 249t-329.5 92
q-178 0 -330 -91.5t-241 -248.5t-89 -340q0 -182 89 -339t241 -249t330 -92zM752 352h-156v729h156v-293h286l-2 293h156v-729h-156l2 303h-286v-303z" />
    <glyph glyph-name="uni24BE" unicode="&#x28;I&#x29;" 
d="M893 -115q-219 0 -407 112t-298 303.5t-110 416.5q0 168 65 322t174.5 265.5t260.5 177.5t315 66t315 -66t260.5 -177.5t174.5 -265.5t65 -322q0 -225 -110 -416.5t-298 -303.5t-407 -112zM893 37q177 0 329.5 92t242 249t89.5 339t-89.5 339t-242 249t-329.5 92
q-178 0 -330 -91.5t-241 -248.5t-89 -340q0 -182 89 -339t241 -249t330 -92zM973 352h-158v729h158v-729z" />
    <glyph glyph-name="uni24BF" unicode="&#x28;J&#x29;" 
d="M893 -115q-219 0 -407 112t-298 303.5t-110 416.5q0 168 65 322t174.5 265.5t260.5 177.5t315 66t315 -66t260.5 -177.5t174.5 -265.5t65 -322q0 -225 -110 -416.5t-298 -303.5t-407 -112zM893 37q177 0 329.5 92t242 249t89.5 339t-89.5 339t-242 249t-329.5 92
q-178 0 -330 -91.5t-241 -248.5t-89 -340q0 -182 89 -339t241 -249t330 -92zM784 346q-44 0 -102 12v142q53 -11 82 -11q63 0 90 24.5t27 84.5v492h155v-515q0 -112 -65 -170.5t-187 -58.5z" />
    <glyph glyph-name="uni24C0" unicode="&#x28;K&#x29;" 
d="M893 -115q-219 0 -407 112t-298 303.5t-110 416.5q0 168 65 322t174.5 265.5t260.5 177.5t315 66t315 -66t260.5 -177.5t174.5 -265.5t65 -322q0 -225 -110 -416.5t-298 -303.5t-407 -112zM893 37q177 0 329.5 92t242 249t89.5 339t-89.5 339t-242 249t-329.5 92
q-178 0 -330 -91.5t-241 -248.5t-89 -340q0 -182 89 -339t241 -249t330 -92zM1235 352h-180l-260 338h-4v-338h-158v729h158v-342h4l260 342h180l-281 -368z" />
    <glyph glyph-name="uni24C1" unicode="&#x28;L&#x29;" 
d="M893 -115q-219 0 -407 112t-298 303.5t-110 416.5q0 168 65 322t174.5 265.5t260.5 177.5t315 66t315 -66t260.5 -177.5t174.5 -265.5t65 -322q0 -225 -110 -416.5t-298 -303.5t-407 -112zM893 37q177 0 329.5 92t242 249t89.5 339t-89.5 339t-242 249t-329.5 92
q-178 0 -330 -91.5t-241 -248.5t-89 -340q0 -182 89 -339t241 -249t330 -92zM1174 352h-512v729h155v-596h357v-133z" />
    <glyph glyph-name="uni24C2" unicode="&#x28;M&#x29;" 
d="M893 -115q-219 0 -407 112t-298 303.5t-110 416.5q0 168 65 322t174.5 265.5t260.5 177.5t315 66t315 -66t260.5 -177.5t174.5 -265.5t65 -322q0 -225 -110 -416.5t-298 -303.5t-407 -112zM893 37q177 0 329.5 92t242 249t89.5 339t-89.5 339t-242 249t-329.5 92
q-178 0 -330 -91.5t-241 -248.5t-89 -340q0 -182 89 -339t241 -249t330 -92zM664 354h-148v729h217l158 -546h6l156 546h217v-729h-148v518h-6l-147 -518h-152l-147 518h-6v-518z" />
    <glyph glyph-name="uni24C3" unicode="&#x28;N&#x29;" 
d="M893 -115q-219 0 -407 112t-298 303.5t-110 416.5q0 168 65 322t174.5 265.5t260.5 177.5t315 66t315 -66t260.5 -177.5t174.5 -265.5t65 -322q0 -225 -110 -416.5t-298 -303.5t-407 -112zM893 37q177 0 329.5 92t242 249t89.5 339t-89.5 339t-242 249t-329.5 92
q-178 0 -330 -91.5t-241 -248.5t-89 -340q0 -182 89 -339t241 -249t330 -92zM752 352h-156v729h168l266 -471h4v471h158v-729h-168l-266 471h-6v-471z" />
    <glyph glyph-name="uni24C4" unicode="&#x28;O&#x29;" 
d="M893 -115q-219 0 -407 112t-298 303.5t-110 416.5q0 168 65 322t174.5 265.5t260.5 177.5t315 66t315 -66t260.5 -177.5t174.5 -265.5t65 -322q0 -225 -110 -416.5t-298 -303.5t-407 -112zM893 37q177 0 329.5 92t242 249t89.5 339t-89.5 339t-242 249t-329.5 92
q-178 0 -330 -91.5t-241 -248.5t-89 -340q0 -182 89 -339t241 -249t330 -92zM895 338q-84 0 -150.5 32t-106.5 86t-60.5 119t-20.5 136v10q0 72 21 137.5t61 119.5t106.5 86t149.5 32q84 0 150 -32t105 -86t59 -119.5t20 -137.5v-10q0 -71 -20 -136t-59 -119t-105 -86
t-150 -32zM895 471q60 0 102 36.5t59 89t17 114.5v10q0 100 -44.5 171.5t-133.5 70.5q-90 0 -135 -71t-45 -171v-10q0 -62 17.5 -114t59.5 -88.5t103 -37.5z" />
    <glyph glyph-name="uni24C5" unicode="&#x28;P&#x29;" 
d="M893 -115q-219 0 -407 112t-298 303.5t-110 416.5q0 168 65 322t174.5 265.5t260.5 177.5t315 66t315 -66t260.5 -177.5t174.5 -265.5t65 -322q0 -225 -110 -416.5t-298 -303.5t-407 -112zM893 37q177 0 329.5 92t242 249t89.5 339t-89.5 339t-242 249t-329.5 92
q-178 0 -330 -91.5t-241 -248.5t-89 -340q0 -182 89 -339t241 -249t330 -92zM813 352h-156v729h322q122 0 189 -61.5t67 -175.5q0 -104 -68 -163.5t-188 -59.5h-166v-269zM813 948v-194h160q106 0 106 98q0 96 -106 96h-160z" />
    <glyph glyph-name="uni24C6" unicode="&#x28;Q&#x29;" 
d="M893 -115q-219 0 -407 112t-298 303.5t-110 416.5q0 168 65 322t174.5 265.5t260.5 177.5t315 66t315 -66t260.5 -177.5t174.5 -265.5t65 -322q0 -225 -110 -416.5t-298 -303.5t-407 -112zM893 37q177 0 329.5 92t242 249t89.5 339t-89.5 339t-242 249t-329.5 92
q-178 0 -330 -91.5t-241 -248.5t-89 -340q0 -182 89 -339t241 -249t330 -92zM1227 403l-86 -102q-62 3 -144 61q-58 -14 -106 -14q-84 0 -150 32t-105.5 86t-60 119t-20.5 136v10q0 72 20.5 137.5t60.5 119.5t106 86t149 32q85 0 151 -32t104 -86t57.5 -119.5t19.5 -137.5
v-10q0 -173 -97 -279q39 -21 101 -39zM891 481q60 0 102.5 36.5t60 89t17.5 114.5v10q0 100 -45.5 171.5t-134.5 70.5q-90 0 -135 -71t-45 -171v-10q0 -62 17.5 -114t59.5 -88.5t103 -37.5z" />
    <glyph glyph-name="uni24C7" unicode="&#x28;R&#x29;" 
d="M893 -115q-219 0 -407 112t-298 303.5t-110 416.5q0 168 65 322t174.5 265.5t260.5 177.5t315 66t315 -66t260.5 -177.5t174.5 -265.5t65 -322q0 -225 -110 -416.5t-298 -303.5t-407 -112zM893 37q177 0 329.5 92t242 249t89.5 339t-89.5 339t-242 249t-329.5 92
q-178 0 -330 -91.5t-241 -248.5t-89 -340q0 -182 89 -339t241 -249t330 -92zM782 352h-157v729h321q123 0 189.5 -61.5t66.5 -175.5q0 -77 -38.5 -131t-108.5 -76l151 -285h-164l-137 269h-123v-269zM782 948v-194h158q107 0 107 98q0 96 -107 96h-158z" />
    <glyph glyph-name="uni24C8" unicode="&#x28;S&#x29;" 
d="M893 -115q-219 0 -407 112t-298 303.5t-110 416.5q0 168 65 322t174.5 265.5t260.5 177.5t315 66t315 -66t260.5 -177.5t174.5 -265.5t65 -322q0 -225 -110 -416.5t-298 -303.5t-407 -112zM893 37q177 0 329.5 92t242 249t89.5 339t-89.5 339t-242 249t-329.5 92
q-178 0 -330 -91.5t-241 -248.5t-89 -340q0 -182 89 -339t241 -249t330 -92zM895 338q-138 0 -213.5 65.5t-77.5 180.5h156q3 -119 137 -119q60 0 95.5 24.5t35.5 67.5q0 33 -29 54t-98 42l-51 15q-121 34 -177.5 84t-56.5 125q0 100 75 159.5t204 59.5q133 0 203 -60.5
t73 -173.5h-155q-1 52 -33 79.5t-88 27.5q-57 0 -90 -20.5t-33 -55.5t25 -57t94 -43l51 -17q127 -38 184.5 -85.5t57.5 -123.5q0 -107 -77.5 -168t-211.5 -61z" />
    <glyph glyph-name="uni24C9" unicode="&#x28;T&#x29;" 
d="M893 -115q-219 0 -407 112t-298 303.5t-110 416.5q0 168 65 322t174.5 265.5t260.5 177.5t315 66t315 -66t260.5 -177.5t174.5 -265.5t65 -322q0 -225 -110 -416.5t-298 -303.5t-407 -112zM893 37q177 0 329.5 92t242 249t89.5 339t-89.5 339t-242 249t-329.5 92
q-178 0 -330 -91.5t-241 -248.5t-89 -340q0 -182 89 -339t241 -249t330 -92zM971 311h-156v596h-205l-2 133h570v-133h-205z" />
    <glyph glyph-name="uni24CA" unicode="&#x28;U&#x29;" 
d="M893 -115q-219 0 -407 112t-298 303.5t-110 416.5q0 168 65 322t174.5 265.5t260.5 177.5t315 66t315 -66t260.5 -177.5t174.5 -265.5t65 -322q0 -225 -110 -416.5t-298 -303.5t-407 -112zM893 37q177 0 329.5 92t242 249t89.5 339t-89.5 339t-242 249t-329.5 92
q-178 0 -330 -91.5t-241 -248.5t-89 -340q0 -182 89 -339t241 -249t330 -92zM897 305q-144 0 -221.5 89.5t-77.5 226.5v428h156v-441q0 -73 36.5 -121t106.5 -49q67 0 103 48.5t36 121.5v441h154v-428q0 -89 -30.5 -158.5t-98 -113.5t-164.5 -44z" />
    <glyph glyph-name="uni24CB" unicode="&#x28;V&#x29;" 
d="M893 -115q-219 0 -407 112t-298 303.5t-110 416.5q0 168 65 322t174.5 265.5t260.5 177.5t315 66t315 -66t260.5 -177.5t174.5 -265.5t65 -322q0 -225 -110 -416.5t-298 -303.5t-407 -112zM893 37q177 0 329.5 92t242 249t89.5 339t-89.5 339t-242 249t-329.5 92
q-178 0 -330 -91.5t-241 -248.5t-89 -340q0 -182 89 -339t241 -249t330 -92zM981 311h-174l-279 729h158l205 -555h6l203 555h155z" />
    <glyph glyph-name="uni24CC" unicode="&#x28;W&#x29;" 
d="M893 -115q-219 0 -407 112t-298 303.5t-110 416.5q0 168 65 322t174.5 265.5t260.5 177.5t315 66t315 -66t260.5 -177.5t174.5 -265.5t65 -322q0 -225 -110 -416.5t-298 -303.5t-407 -112zM893 37q177 0 329.5 92t242 249t89.5 339t-89.5 339t-242 249t-329.5 92
q-178 0 -330 -91.5t-241 -248.5t-89 -340q0 -182 89 -339t241 -249t330 -92zM766 311h-156l-194 729h157l121 -501h4l121 501h148l120 -501h5l120 501h158l-194 -729h-156l-123 494h-6z" />
    <glyph glyph-name="uni24CD" unicode="&#x28;X&#x29;" 
d="M893 -115q-219 0 -407 112t-298 303.5t-110 416.5q0 168 65 322t174.5 265.5t260.5 177.5t315 66t315 -66t260.5 -177.5t174.5 -265.5t65 -322q0 -225 -110 -416.5t-298 -303.5t-407 -112zM893 37q177 0 329.5 92t242 249t89.5 339t-89.5 339t-242 249t-329.5 92
q-178 0 -330 -91.5t-241 -248.5t-89 -340q0 -182 89 -339t241 -249t330 -92zM750 352h-166l225 365l-225 364h166l141 -223h6l139 223h166l-227 -364l227 -365h-166l-139 226h-6z" />
    <glyph glyph-name="uni24CE" unicode="&#x28;Y&#x29;" 
d="M893 -115q-219 0 -407 112t-298 303.5t-110 416.5q0 168 65 322t174.5 265.5t260.5 177.5t315 66t315 -66t260.5 -177.5t174.5 -265.5t65 -322q0 -225 -110 -416.5t-298 -303.5t-407 -112zM893 37q177 0 329.5 92t242 249t89.5 339t-89.5 339t-242 249t-329.5 92
q-178 0 -330 -91.5t-241 -248.5t-89 -340q0 -182 89 -339t241 -249t330 -92zM973 311h-156v277l-258 452h168l164 -303h6l164 303h168l-256 -452v-277z" />
    <glyph glyph-name="uni24CF" unicode="&#x28;Z&#x29;" 
d="M893 -115q-219 0 -407 112t-298 303.5t-110 416.5q0 168 65 322t174.5 265.5t260.5 177.5t315 66t315 -66t260.5 -177.5t174.5 -265.5t65 -322q0 -225 -110 -416.5t-298 -303.5t-407 -112zM893 37q177 0 329.5 92t242 249t89.5 339t-89.5 339t-242 249t-329.5 92
q-178 0 -330 -91.5t-241 -248.5t-89 -340q0 -182 89 -339t241 -249t330 -92zM1167 352h-549v133l369 457v6h-364v133h540v-131l-362 -458v-7h366v-133z" />
    <glyph glyph-name="uni24EA" unicode="&#x28;&#x30;&#x29;" 
d="M893 -115q-219 0 -407 112t-298 303.5t-110 416.5q0 168 65 322t174.5 265.5t260.5 177.5t315 66t315 -66t260.5 -177.5t174.5 -265.5t65 -322q0 -225 -110 -416.5t-298 -303.5t-407 -112zM893 37q177 0 329.5 92t242 249t89.5 339t-89.5 339t-242 249t-329.5 92
q-178 0 -330 -91.5t-241 -248.5t-89 -340q0 -182 89 -339t241 -249t330 -92zM895 338q-136 0 -217.5 101.5t-81.5 271.5v8q0 172 80.5 274.5t218.5 102.5q143 0 220 -105t77 -272v-8q-2 -172 -81.5 -272.5t-215.5 -100.5zM895 471q66 0 103.5 63t37.5 175v10
q0 114 -37.5 179t-103.5 65q-68 0 -106.5 -64.5t-38.5 -179.5v-10q2 -111 40 -174.5t105 -63.5z" />
    <glyph glyph-name="uni24EB" unicode="&#x7b;&#x31;&#x31;&#x7d;" 
d="M893 -115q-219 0 -407 112t-298 303.5t-110 416.5q0 168 65 322t174.5 265.5t260.5 177.5t315 66t315 -66t260.5 -177.5t174.5 -265.5t65 -322q0 -225 -110 -416.5t-298 -303.5t-407 -112zM618 874v-522h152v701h-123q-29 -52 -77 -79t-101 -24v-137q48 -3 92 16.5
t57 44.5zM1059 874v-522h149v701h-123q-27 -51 -75.5 -78.5t-100.5 -24.5v-137q49 -3 93 16.5t57 44.5z" />
    <glyph glyph-name="uni24EC" unicode="&#x7b;&#x31;&#x32;&#x7d;" 
d="M893 -115q-219 0 -407 112t-298 303.5t-110 416.5q0 168 65 322t174.5 265.5t260.5 177.5t315 66t315 -66t260.5 -177.5t174.5 -265.5t65 -322q0 -225 -110 -416.5t-298 -303.5t-407 -112zM803 455v-101h502v129h-291l196 195q93 96 93 178q0 94 -66.5 153.5t-181.5 59.5
q-116 0 -185 -70.5t-75 -183.5h153q2 56 28.5 90.5t78.5 34.5q46 0 71 -23.5t25 -64.5q0 -50 -41 -94zM561 874v-522h150v701h-123q-27 -51 -75.5 -78.5t-100.5 -24.5v-137q48 -3 91 16.5t58 44.5z" />
    <glyph glyph-name="uni24ED" unicode="&#x7b;&#x31;&#x33;&#x7d;" 
d="M893 -115q-219 0 -407 112t-298 303.5t-110 416.5q0 168 65 322t174.5 265.5t260.5 177.5t315 66t315 -66t260.5 -177.5t174.5 -265.5t65 -322q0 -225 -110 -416.5t-298 -303.5t-407 -112zM1071 336q118 0 193 57.5t75 151.5q0 59 -28 103.5t-78 66.5q82 53 82 145
q0 91 -71.5 148t-172.5 57q-99 0 -170.5 -60.5t-79.5 -148.5l150 -2q6 36 32 59t66 23q41 0 68.5 -23t27.5 -57q0 -36 -27 -59t-67 -23h-78v-119h76q55 0 87 -26t32 -70q0 -43 -31.5 -68.5t-85.5 -25.5q-49 0 -81.5 25t-37.5 65h-155q5 -94 82.5 -156.5t191.5 -62.5z
M565 874v-522h150v701h-123q-27 -51 -75.5 -78.5t-102.5 -24.5v-137q49 -3 92.5 16.5t58.5 44.5z" />
    <glyph glyph-name="uni24EE" unicode="&#x7b;&#x31;&#x34;&#x7d;" 
d="M893 -115q-219 0 -407 112t-298 303.5t-110 416.5q0 168 65 322t174.5 265.5t260.5 177.5t315 66t315 -66t260.5 -177.5t174.5 -265.5t65 -322q0 -225 -110 -416.5t-298 -303.5t-407 -112zM537 874v-522h149v701h-123q-27 -51 -75.5 -78.5t-100.5 -24.5v-137
q48 -3 91.5 16.5t58.5 44.5zM1108 504v-152h149v152h101v129h-101v420h-198l-285 -430v-119h334zM1106 633h-182l182 274v-274z" />
    <glyph glyph-name="uni24EF" unicode="&#x7b;&#x31;&#x35;&#x7d;" 
d="M893 -115q-219 0 -407 112t-298 303.5t-110 416.5q0 168 65 322t174.5 265.5t260.5 177.5t315 66t315 -66t260.5 -177.5t174.5 -265.5t65 -322q0 -225 -110 -416.5t-298 -303.5t-407 -112zM555 874v-522h150v701h-123q-27 -51 -76 -78.5t-103 -24.5v-137q50 -3 93.5 16.5
t58.5 44.5zM1063 336q114 0 186 70t72 182q0 108 -59 177t-156 69q-85 0 -131 -60l20 148h293v129h-426l-41 -404h140q25 63 104 60q49 0 76.5 -32t27.5 -87q0 -57 -27.5 -90t-76.5 -33q-51 0 -81.5 31t-29.5 82h-143q-7 -107 63 -174.5t189 -67.5z" />
    <glyph glyph-name="uni24F0" unicode="&#x7b;&#x31;&#x36;&#x7d;" 
d="M893 -115q-219 0 -407 112t-298 303.5t-110 416.5q0 168 65 322t174.5 265.5t260.5 177.5t315 66t315 -66t260.5 -177.5t174.5 -265.5t65 -322q0 -225 -110 -416.5t-298 -303.5t-407 -112zM1061 332q117 0 189.5 69.5t72.5 176.5q0 103 -67.5 171t-170.5 68
q-52 0 -92.5 -24t-62.5 -60q3 88 39.5 143.5t95.5 55.5q86 0 106 -80h142q-11 94 -76 151.5t-166 57.5q-129 0 -209 -105t-80 -274q0 -164 75 -257t204 -93zM557 872v-522h150v701h-123q-27 -50 -75.5 -78t-100.5 -25v-137q48 -1 92 18.5t57 42.5zM1057 461
q-52 0 -84.5 33.5t-32.5 87.5t32 86t85 32q51 0 81.5 -32t30.5 -86t-30.5 -87.5t-81.5 -33.5z" />
    <glyph glyph-name="uni24F1" unicode="&#x7b;&#x31;&#x37;&#x7d;" 
d="M893 -115q-219 0 -407 112t-298 303.5t-110 416.5q0 168 65 322t174.5 265.5t260.5 177.5t315 66t315 -66t260.5 -177.5t174.5 -265.5t65 -322q0 -225 -110 -416.5t-298 -303.5t-407 -112zM582 874v-522h151v701h-123q-29 -52 -77 -79t-101 -24v-137q49 -3 93 16.5
t57 44.5zM944 352h150q0 164 54.5 302t172.5 264v135h-496v-129h328q-97 -111 -153.5 -259.5t-55.5 -312.5z" />
    <glyph glyph-name="uni24F2" unicode="&#x7b;&#x31;&#x38;&#x7d;" 
d="M893 -115q-219 0 -407 112t-298 303.5t-110 416.5q0 168 65 322t174.5 265.5t260.5 177.5t315 66t315 -66t260.5 -177.5t174.5 -265.5t65 -322q0 -225 -110 -416.5t-298 -303.5t-407 -112zM1055 338q117 0 193.5 57t76.5 154q0 104 -96 164q69 57 69 149t-69 148.5
t-174 56.5t-174.5 -56.5t-69.5 -148.5t70 -149q-99 -59 -99 -164q0 -96 78 -153.5t195 -57.5zM571 874v-522h150v701h-123q-27 -51 -75.5 -78.5t-100.5 -24.5v-137q48 -3 91 16.5t58 44.5zM1055 778q-42 0 -68 22t-26 58q0 35 26.5 57.5t67.5 22.5q42 0 68 -22t26 -58
q0 -37 -25.5 -58.5t-68.5 -21.5zM1055 467q-54 0 -87.5 26.5t-33.5 67.5q0 43 33.5 68.5t87.5 25.5q55 0 88 -25.5t33 -68.5q0 -41 -33.5 -67.5t-87.5 -26.5z" />
    <glyph glyph-name="uni24F3" unicode="&#x7b;&#x31;&#x39;&#x7d;" 
d="M893 -115q-219 0 -407 112t-298 303.5t-110 416.5q0 168 65 322t174.5 265.5t260.5 177.5t315 66t315 -66t260.5 -177.5t174.5 -265.5t65 -322q0 -225 -110 -416.5t-298 -303.5t-407 -112zM1044 338q130 0 210.5 105t80.5 274q0 164 -74.5 257t-205.5 93
q-116 0 -187 -69.5t-71 -176.5q0 -103 66.5 -171t168.5 -68q53 0 93.5 24t62.5 60q-3 -88 -40 -143.5t-97 -55.5q-85 0 -105 80h-143q12 -94 76.5 -151.5t164.5 -57.5zM563 874v-522h150v701h-123q-27 -51 -75.5 -78.5t-100.5 -24.5v-137q48 -3 91 16.5t58 44.5zM1061 698
q-51 0 -83 32.5t-32 86.5t31.5 87.5t83.5 33.5q53 0 86 -33.5t33 -87.5t-33 -86.5t-86 -32.5z" />
    <glyph glyph-name="uni24F4" unicode="&#x7b;&#x32;&#x30;&#x7d;" 
d="M893 -115q-219 0 -407 112t-298 303.5t-110 416.5q0 168 65 322t174.5 265.5t260.5 177.5t315 66t315 -66t260.5 -177.5t174.5 -265.5t65 -322q0 -225 -110 -416.5t-298 -303.5t-407 -112zM1153 381q123 0 195.5 89.5t72.5 244.5v8q0 149 -69.5 243.5t-198.5 94.5
q-123 0 -195.5 -91.5t-72.5 -246.5v-8q0 -155 71.5 -244.5t196.5 -89.5zM393 485v-94h469v121h-270l115 113q42 37 67 69q47 52 66.5 90t19.5 78q0 88 -61.5 142.5t-169.5 54.5q-110 0 -174.5 -65.5t-69.5 -170.5h143q2 51 27.5 84t73.5 33q43 0 66.5 -22t23.5 -62t-39 -88
q-16 -20 -78 -82zM1153 500q-60 0 -94.5 57t-34.5 158v8q0 103 34.5 161t94.5 58t93.5 -58t33.5 -161v-8q0 -101 -33.5 -158t-93.5 -57z" />
    <glyph glyph-name="uni24FF" unicode="&#x7b;&#x30;&#x7d;" 
d="M893 -115q-219 0 -407 112t-298 303.5t-110 416.5q0 168 65 322t174.5 265.5t260.5 177.5t315 66t315 -66t260.5 -177.5t174.5 -265.5t65 -322q0 -225 -110 -416.5t-298 -303.5t-407 -112zM895 338q136 0 215.5 100.5t81.5 272.5v8q0 167 -77 272t-220 105
q-138 0 -218.5 -102.5t-80.5 -274.5v-8q0 -170 81.5 -271.5t217.5 -101.5zM895 471q-67 0 -105 63.5t-40 174.5v10q0 115 38.5 179.5t106.5 64.5q66 0 103.5 -65t37.5 -179v-10q0 -112 -37.5 -175t-103.5 -63z" />
    <glyph glyph-name="filledbox" unicode="&#x23;SQUARE" horiz-adv-x="1703" 
d="M1556 0h-1409v1434h1409v-1434z" />
    <glyph glyph-name="triagup" unicode="&#x23;TRIANGLE" horiz-adv-x="1787" 
d="M1694 0h-1600l799 1436z" />
    <glyph glyph-name="uni25CF" unicode="&#x23;CIRCLE" horiz-adv-x="1693" 
d="M848 -31q-203 0 -375 100.5t-272.5 272.5t-100.5 375q0 151 59.5 289t159.5 238t238.5 159t290.5 59q151 0 289 -59t238 -159t159 -238t59 -289q0 -152 -59 -290.5t-159 -238.5t-238 -159.5t-289 -59.5z" />
    <glyph glyph-name="uni26AC" unicode="&#x23;CORRECT" horiz-adv-x="1206" 
d="M604 217q-192 0 -326.5 133.5t-134.5 325.5t134.5 325.5t326.5 133.5t325.5 -133.5t133.5 -325.5t-133.5 -325.5t-325.5 -133.5zM604 461q90 0 152.5 62.5t62.5 152.5t-62.5 152.5t-152.5 62.5q-91 0 -154 -62t-63 -153t63 -153t154 -62z" />
    <glyph glyph-name="uni2713" unicode="&#x23;CHECK" horiz-adv-x="1454" 
d="M1354 983l-793 -793l-463 463l176 176l287 -286l619 618z" />
    <glyph glyph-name="uni2717" unicode="&#x2d;CANCEL" horiz-adv-x="1599" 
d="M799 500l-322 -324l-176 174l324 326l-324 323l174 177l324 -326l325 324l174 -177l-321 -321l321 -324l-176 -176z" />
    <glyph glyph-name="uni277F" unicode="&#x7b;&#x31;&#x30;&#x7d;" 
d="M893 -115q-219 0 -407 112t-298 303.5t-110 416.5q0 168 65 322t174.5 265.5t260.5 177.5t315 66t315 -66t260.5 -177.5t174.5 -265.5t65 -322q0 -225 -110 -416.5t-298 -303.5t-407 -112zM1073 338q131 0 208 96.5t77 261.5v9q0 159 -74 260.5t-211 101.5
q-132 0 -209.5 -98.5t-77.5 -263.5v-9q0 -165 77.5 -261.5t209.5 -96.5zM563 874v-522h152v701h-123q-27 -51 -75.5 -78.5t-102.5 -24.5v-137q50 -3 93 16.5t56 44.5zM1073 467q-65 0 -101 60t-36 167v11q0 110 36 171.5t101 61.5q63 0 100 -62.5t37 -170.5v-11
q0 -107 -36 -167t-101 -60z" />
    <glyph glyph-name="uni278A" unicode="&#x7b;&#x31;&#x7d;" 
d="M893 -115q-219 0 -407 112t-298 303.5t-110 416.5q0 168 65 322t174.5 265.5t260.5 177.5t315 66t315 -66t260.5 -177.5t174.5 -265.5t65 -322q0 -225 -110 -416.5t-298 -303.5t-407 -112zM838 897v-545h157v729h-127q-29 -51 -78.5 -79.5t-103.5 -26.5v-141
q49 -1 93.5 18.5t58.5 44.5z" />
    <glyph glyph-name="uni278B" unicode="&#x7b;&#x32;&#x7d;" 
d="M893 -115q-219 0 -407 112t-298 303.5t-110 416.5q0 168 65 322t174.5 265.5t260.5 177.5t315 66t315 -66t260.5 -177.5t174.5 -265.5t65 -322q0 -225 -110 -416.5t-298 -303.5t-407 -112zM637 475v-104h518v135h-299l139 137q53 53 64 68q52 57 74 98.5t22 83.5
q0 99 -68.5 160t-189.5 61q-119 0 -190.5 -72t-79.5 -190h159q2 57 30 93t81 36q48 0 75 -24t27 -68q0 -47 -45 -98q-51 -60 -86 -91z" />
    <glyph glyph-name="uni278C" unicode="&#x7b;&#x33;&#x7d;" 
d="M893 -115q-219 0 -407 112t-298 303.5t-110 416.5q0 168 65 322t174.5 265.5t260.5 177.5t315 66t315 -66t260.5 -177.5t174.5 -265.5t65 -322q0 -225 -110 -416.5t-298 -303.5t-407 -112zM895 338q123 0 201 60t78 157q0 126 -113 176q41 25 65.5 65.5t24.5 86.5
q0 95 -75 154t-181 59q-103 0 -178 -62.5t-82 -154.5l158 -2q5 39 31.5 62.5t68.5 23.5q44 0 73 -23.5t29 -60.5t-28.5 -61.5t-71.5 -24.5h-82v-123h80q58 0 91.5 -27.5t33.5 -73.5q0 -45 -33 -71.5t-90 -26.5q-52 0 -85 26t-38 68h-162q5 -97 86 -162t199 -65z" />
    <glyph glyph-name="uni278D" unicode="&#x7b;&#x34;&#x7d;" 
d="M893 -115q-219 0 -407 112t-298 303.5t-110 416.5q0 168 65 322t174.5 265.5t260.5 177.5t315 66t315 -66t260.5 -177.5t174.5 -265.5t65 -322q0 -225 -110 -416.5t-298 -303.5t-407 -112zM907 516v-158h156v158h104v133h-104v438h-205l-299 -446v-125h348zM903 649h-188
l188 289v-289z" />
    <glyph glyph-name="uni278E" unicode="&#x7b;&#x35;&#x7d;" 
d="M893 -115q-219 0 -407 112t-298 303.5t-110 416.5q0 168 65 322t174.5 265.5t260.5 177.5t315 66t315 -66t260.5 -177.5t174.5 -265.5t65 -322q0 -225 -110 -416.5t-298 -303.5t-407 -112zM893 317q119 0 193.5 73t74.5 190q0 113 -61.5 184.5t-161.5 71.5
q-86 0 -137 -62l20 154h305v133h-442l-43 -420h145q25 67 109 64q51 -1 81 -35t30 -90q0 -59 -30 -94t-81 -35q-54 0 -86 32t-31 86l-147 -2q-9 -112 64 -181t198 -69z" />
    <glyph glyph-name="uni278F" unicode="&#x7b;&#x36;&#x7d;" 
d="M893 -115q-219 0 -407 112t-298 303.5t-110 416.5q0 168 65 322t174.5 265.5t260.5 177.5t315 66t315 -66t260.5 -177.5t174.5 -265.5t65 -322q0 -225 -110 -416.5t-298 -303.5t-407 -112zM905 334q122 0 196.5 72t74.5 184q0 107 -70 177.5t-176 70.5q-111 0 -162 -84
q3 93 40.5 148.5t100.5 55.5q87 0 111 -81h147q-11 96 -79 155.5t-173 59.5q-135 0 -218 -109.5t-83 -284.5q0 -170 78 -267t213 -97zM901 467q-56 0 -90.5 35t-34.5 92q0 56 35 90.5t90 34.5q52 0 84.5 -34.5t32.5 -90.5q0 -57 -32 -92t-85 -35z" />
    <glyph glyph-name="uni2790" unicode="&#x7b;&#x37;&#x7d;" 
d="M893 -115q-219 0 -407 112t-298 303.5t-110 416.5q0 168 65 322t174.5 265.5t260.5 177.5t315 66t315 -66t260.5 -177.5t174.5 -265.5t65 -322q0 -225 -110 -416.5t-298 -303.5t-407 -112zM768 332h156q0 169 57 312.5t180 275.5v141h-516v-133h340q-101 -117 -159 -271
t-58 -325z" />
    <glyph glyph-name="uni2791" unicode="&#x7b;&#x38;&#x7d;" 
d="M893 -115q-219 0 -407 112t-298 303.5t-110 416.5q0 168 65 322t174.5 265.5t260.5 177.5t315 66t315 -66t260.5 -177.5t174.5 -265.5t65 -322q0 -225 -110 -416.5t-298 -303.5t-407 -112zM897 338q121 0 201 59t80 160q0 54 -26.5 98.5t-72.5 71.5q72 65 72 158
q0 95 -73 153t-181 58q-110 0 -183 -58t-73 -153q0 -97 72 -156q-47 -27 -74 -71.5t-27 -100.5q0 -100 81 -159.5t204 -59.5zM895 795q-45 0 -71.5 23t-26.5 63q0 37 27 59.5t71 22.5t72 -23.5t28 -58.5q0 -38 -28 -62t-72 -24zM895 471q-57 0 -92 27t-35 73q0 43 35.5 71
t91.5 28t91.5 -28t35.5 -71q0 -46 -35 -73t-92 -27z" />
    <glyph glyph-name="uni2792" unicode="&#x7b;&#x39;&#x7d;" 
d="M893 -115q-219 0 -407 112t-298 303.5t-110 416.5q0 168 65 322t174.5 265.5t260.5 177.5t315 66t315 -66t260.5 -177.5t174.5 -265.5t65 -322q0 -225 -110 -416.5t-298 -303.5t-407 -112zM889 338q135 0 219 109t84 286q0 170 -78.5 266.5t-214.5 96.5
q-120 0 -195 -71.5t-75 -182.5q0 -108 69 -179t176 -71q110 0 162 86q-3 -91 -41.5 -149t-101.5 -58q-88 0 -109 84h-147q11 -97 79.5 -157t172.5 -60zM905 711q-55 0 -87 34.5t-32 92.5q0 56 32 90.5t87 34.5q54 0 87.5 -34.5t33.5 -90.5q0 -57 -33.5 -92t-87.5 -35z" />
    <glyph glyph-name="uni27F5" unicode="&#x3c;&#x2d;&#x2d;" horiz-adv-x="2594" 
d="M950 274l-166 -172l-614 615l612 614l168 -168l-334 -336l1809 4v-231l-1807 6z" />
    <glyph glyph-name="uni27F6" unicode="&#x2d;&#x2d;&#x3e;" horiz-adv-x="2594" 
d="M2425 676l-613 -615l-167 175l331 329l-1806 -4v232l1810 -5l-335 334l167 168z" />
    <glyph glyph-name="uni2934" unicode="&#x3c;&#x2d;upround" horiz-adv-x="1583" 
d="M539 127h-346v197h344q153 -2 254.5 88.5t101.5 234.5v297l-150 -153l-139 124l393 392l394 -392l-136 -133l-165 164v-299q-1 -146 -75.5 -265.5t-200.5 -187t-275 -67.5z" />
    <glyph glyph-name="uni2935" unicode="&#x2d;&#x3e;downround" horiz-adv-x="1583" 
d="M1391 518l-394 -391l-393 391l139 125l150 -154v297q0 144 -101.5 235t-254.5 89h-344v197h346q149 0 275.5 -67.5t201 -188t74.5 -265.5v-299l165 164z" />
    <glyph glyph-name="uni2936" unicode="&#x2d;&#x3e;upround" horiz-adv-x="1314" 
d="M592 252l-133 -135l-391 395l391 391l127 -139l-154 -150h293q146 0 237 103t89 256v344h196v-346q0 -150 -67.5 -276.5t-187 -200.5t-265.5 -74h-299z" />
    <glyph glyph-name="uni2937" unicode="&#x3c;&#x2d;downround" horiz-adv-x="1314" 
d="M1247 512l-391 -393l-133 135l164 166h-297q-146 0 -266 74t-188 200.5t-68 276.5v346h196v-344q-2 -153 90 -256t236 -103h293l-154 152l127 137z" />
    <glyph glyph-name="uniE001" unicode="&#x23;LANE" horiz-adv-x="1892" 
d="M295 -29h-111v1491h111v-1491zM768 -29h-113v1491h113v-1491zM1239 -29h-113v1491h113v-1491zM1708 -29h-113v1491h113v-1491z" />
    <glyph glyph-name="uniE002" unicode="&#x23;MEETING" horiz-adv-x="1974" 
d="M987 729q-153 0 -261 108t-108 259t108 258.5t261 107.5q152 0 259.5 -107t107.5 -259q0 -151 -108 -259t-259 -108zM987 844q105 0 178.5 73.5t73.5 178.5q0 104 -74 178t-178 74q-106 0 -180 -74t-74 -178q0 -106 74 -179t180 -73zM547 -29q-152 0 -259.5 108
t-107.5 259q0 152 107.5 260.5t259.5 108.5q151 0 258.5 -108.5t107.5 -260.5q0 -151 -107.5 -259t-258.5 -108zM1425 -29q-150 0 -257 108.5t-107 258.5q0 152 106.5 260.5t257.5 108.5q152 0 260.5 -108.5t108.5 -260.5q0 -151 -108.5 -259t-260.5 -108zM547 88
q104 0 179 73.5t75 176.5q0 104 -75 179t-179 75q-106 0 -180 -74t-74 -180q0 -104 74 -177t180 -73zM1425 88q106 0 181 73t75 177q0 106 -75 180t-181 74q-103 0 -177 -75t-74 -179q0 -103 74 -176.5t177 -73.5z" />
    <glyph glyph-name="uniE003" unicode="&#x23;BEACH" horiz-adv-x="1765" 
d="M938 694h-111q6 394 -309 561q-73 38 -158 59.5t-121.5 25t-58.5 3.5l4 113q24 0 66 -4t138 -29.5t179 -68.5q227 -114 316 -330q86 213 313 330q84 43 179.5 68.5t137 29.5t64.5 4l2 -113q-19 0 -54.5 -3.5t-121 -26t-158.5 -60.5q-313 -166 -307 -559zM1571 334h-1378
v112h1378v-112zM1571 -27h-1378v113h1378v-113z" />
    <glyph glyph-name="uniE004" unicode="&#x23;STAIR" horiz-adv-x="2185" 
d="M655 -27h-475v111h361v348h329v352h342v351h334v323h457v-110h-346v-324h-330v-352h-344v-350h-328v-349z" />
    <glyph glyph-name="uniE005" unicode="&#x23;TWOWAY" horiz-adv-x="2988" 
d="M1491 -27q-204 0 -390 80t-321 215t-215 322t-80 391v283l-239 -242l-76 70l367 366l360 -360l-74 -66l-235 234v-283q0 -183 72 -349.5t193.5 -286.5t288.5 -191.5t349 -71.5t349 71.5t289 191.5t194.5 287t72.5 349v283l-231 -230l-74 66l356 356l373 -371l-76 -69
l-245 246v-285q0 -204 -80.5 -390t-215.5 -321t-321.5 -215t-390.5 -80z" />
    <glyph glyph-name="uniE006" unicode="&#x23;CABINET" horiz-adv-x="1853" 
d="M1669 -27h-1485v1487h1485v-1487zM295 1346v-338h1261v338h-1261zM295 895v-352h1261v352h-1261zM295 428v-342h1261v342h-1261z" />
    <glyph glyph-name="uniE007" unicode="&#x23;FOREST" horiz-adv-x="1878" 
d="M950 -23l-334 629l-319 -612l-96 47l354 684l-354 666l96 51l317 -600l318 614l330 -629l321 615l94 -51l-352 -682l352 -664l-94 -51l-319 598zM934 1221l-256 -496l270 -510l254 494z" />
    <glyph glyph-name="uniE008" unicode="&#x23;HOUSE" horiz-adv-x="1828" 
d="M1645 -25h-1461v887l731 598l730 -598v-887zM293 809v-721l565 2v1178zM969 90l565 -2v721l-565 459v-1178z" />
    <glyph glyph-name="uniE009" unicode="&#x23;WINE" horiz-adv-x="1843" 
d="M1659 -27h-1475v113h680v565q-141 11 -267.5 73.5t-216.5 160.5t-143 229.5t-53 274.5v71h1475v-71q0 -143 -53 -274.5t-144 -229.5t-217.5 -160.5t-267.5 -73.5v-565h682v-113zM864 764v582h-569q15 -230 177.5 -396.5t391.5 -185.5zM977 1346v-582q229 19 391.5 185.5
t177.5 396.5h-569z" />
    <glyph glyph-name="uniE010" unicode="&#x23;HOSPITAL" horiz-adv-x="1847" 
d="M295 -25h-111v887l736 600l741 -600l2 -887h-113v834l-632 500l-623 -500v-834zM981 373h-113v215h-213v112h213v213h113v-213h213v-112h-213v-215z" />
    <glyph glyph-name="uniE011" unicode="&#x23;MEN" horiz-adv-x="1861" 
d="M924 709q-156 0 -265.5 109t-109.5 265q0 157 110 267t265 110q156 0 265 -110t109 -267t-108.5 -265.5t-265.5 -108.5zM924 823q107 0 184.5 76.5t77.5 183.5q0 108 -77 184t-185 76t-184 -76t-76 -184q0 -107 76.5 -183.5t183.5 -76.5zM295 -27h-111v623h1493v-623
h-112v510h-1270v-510z" />
    <glyph glyph-name="uniE012" unicode="&#x23;WOMEN" horiz-adv-x="1671" 
d="M829 709q-155 0 -264.5 109.5t-109.5 264.5q0 157 109.5 267t264.5 110t265 -110t110 -267q0 -155 -110 -264.5t-265 -109.5zM829 821q109 0 186 77.5t77 184.5q0 109 -77 187t-186 78t-186.5 -78t-77.5 -187q0 -107 77.5 -184.5t186.5 -77.5zM295 -27h-111l209 621h883
l209 -621h-111l-172 512h-735z" />
    <glyph glyph-name="uniE013" unicode="&#x23;NO" horiz-adv-x="1853" 
d="M926 -27q-152 0 -293 61t-248 173q-98 104 -149.5 235.5t-51.5 274.5q0 151 58.5 288.5t158 237t237 158.5t288.5 59t288.5 -59t237 -158.5t158.5 -237t59 -288.5q0 -150 -59 -288t-158.5 -237.5t-237 -159t-288.5 -59.5zM430 326l918 864q-186 162 -422 162
q-128 0 -245 -50.5t-202 -135.5t-135.5 -202.5t-50.5 -246.5q0 -222 137 -391zM926 86q129 0 246.5 50t202.5 134.5t135.5 201.5t50.5 245q0 213 -138 393l-919 -864q177 -160 422 -160z" />
    <glyph glyph-name="uniE014" unicode="&#x23;MAIL" horiz-adv-x="2482" 
d="M2298 -27h-2114v1487h2114v-1487zM295 1260l946 -486l946 483v91h-1892v-88zM295 1130v-1046h1892v1042l-946 -483z" />
    <glyph glyph-name="uniE015" unicode="&#x23;PEACE" horiz-adv-x="1853" 
d="M926 -27q-151 0 -289 59t-237.5 158.5t-158.5 237.5t-59 289q0 202 100 373t271 270.5t373 99.5q151 0 288.5 -59t237 -158.5t158.5 -237t59 -288.5q0 -202 -99.5 -373t-270.5 -271t-373 -100zM444 315l428 424l-2 607q-160 -15 -291.5 -102.5t-206.5 -226.5t-75 -300
q0 -229 147 -402zM981 739l428 -424q147 177 147 402q0 162 -75.5 300.5t-207 226t-292.5 102.5v-607zM870 88l2 492l-348 -344q152 -127 346 -148zM981 580v-492q193 21 348 148z" />
    <glyph glyph-name="uniE018" unicode="&#x23;BAGGAGE" horiz-adv-x="2121" 
d="M1939 -27h-1755v1246h617v241h524v-241h614v-1246zM915 1346v-127h297v127h-297zM297 1104v-1018h1528v1018h-1528z" />
    <glyph glyph-name="uniE019" unicode="&#x23;CYCLE" horiz-adv-x="2422" 
d="M1634 1352h-334v108h334v-108zM1040 1223h-452v108h452v-108zM625 -27q-183 0 -313 129t-130 312q0 181 130.5 311.5t312.5 130.5q59 0 131 -20l147 329h670l135 -319q48 10 90 10q120 0 222 -59.5t161.5 -161.5t59.5 -221q0 -183 -130 -312t-313 -129t-311.5 129
t-128.5 312q0 127 68.5 233.5t179.5 163.5l-105 246h-528l-121 -264q98 -61 155.5 -161t57.5 -218q0 -183 -128.5 -312t-311.5 -129zM625 80q136 0 233.5 98.5t97.5 235.5q0 85 -40 158t-109 118l-139 -309l-99 43l140 311q-34 10 -84 10q-138 0 -235 -97t-97 -234
t97.5 -235.5t234.5 -98.5zM1798 80q138 0 236 98.5t98 235.5q0 138 -97.5 234.5t-236.5 96.5q-31 0 -47 -4l135 -317l-100 -43l-139 328q-81 -42 -130 -121t-49 -174q0 -137 97 -235.5t233 -98.5z" />
    <glyph glyph-name="uniE020" unicode="&#x23;DOG" horiz-adv-x="2291" 
d="M526 -25h-112l2 703q-69 12 -119.5 55.5t-74 98.5t-32.5 104t-6 84h105q0 -1 2.5 -21t4.5 -33t8.5 -38t14.5 -42.5t22 -38.5t31 -34t42 -22t55 -9l905 60v440q0 76 84.5 127t198.5 43l-2 -111q-139 3 -164 -51l618 -155l-88 -363l-536 -35l-2 -760h-111v248h-846v-250z
M1485 1176v-328l446 31l43 176zM526 676v-340h848v393z" />
    <glyph glyph-name="uniE021" unicode="&#x23;FISH" horiz-adv-x="3538" 
d="M1505 -27q-325 0 -677 195.5t-642 536.5v24q290 341 642 536t677 195q302 0 621.5 -172.5t611.5 -492.5l545 612l72 -76l-549 -614l549 -615l-72 -75l-545 612q-292 -320 -611.5 -493t-621.5 -173zM1505 84q111 0 226 27t211.5 68.5t194 100.5t171 114.5t146 120.5
t114.5 107.5t80 84.5v20q-39 43 -80.5 85t-114 107t-146 121t-171.5 115.5t-194 101t-211 68.5t-226 27q-110 0 -225.5 -27t-212.5 -67.5t-198 -100.5t-176 -114t-152 -120t-120 -107.5t-87 -86.5v-24q43 -45 86.5 -86.5t120.5 -107t152 -120t176 -113.5t198 -100
t212.5 -67.5t225.5 -26.5zM680 623q-41 0 -69.5 28t-28.5 68t28.5 68t69.5 28q38 0 67 -29t29 -67q0 -40 -28 -68t-68 -28z" />
    <glyph glyph-name="uniE022" unicode="&#x23;SOFTWOOD" horiz-adv-x="1882" 
d="M655 -18h-110v747h-359l412 737l344 -606l340 606l416 -737h-361v-747h-112v747h-570v-747zM598 1239l-221 -397h446zM1282 1239l-223 -397h446z" />
    <glyph glyph-name="uniE023" unicode="&#x23;HARDWOOD" horiz-adv-x="1839" 
d="M616 -27h-110v738q-138 20 -230 125.5t-92 246.5q0 157 110 267t265 110q128 0 229 -77.5t132 -198.5q31 121 131 198.5t229 77.5q155 0 265 -110t110 -267q0 -140 -92 -245t-228 -125v-740h-110v740q-110 15 -193.5 89.5t-111.5 180.5q-28 -106 -111 -180.5t-193 -89.5
v-740zM559 823q108 0 184 76t76 184q0 109 -76 186t-184 77q-107 0 -183.5 -77t-76.5 -186q0 -107 76.5 -183.5t183.5 -76.5zM1280 823q107 0 183.5 76.5t76.5 183.5q0 109 -76.5 186t-183.5 77q-108 0 -184 -77t-76 -186q0 -108 76 -184t184 -76z" />
    <glyph glyph-name="uniE024" unicode="&#x23;TENT" horiz-adv-x="2099" 
d="M1913 -16h-1727l863 1482zM1049 1249l-674 -1157h330l346 604l344 -604h327zM1049 475l-220 -383h441z" />
    <glyph glyph-name="uniE025" unicode="&#x23;SUNNY" horiz-adv-x="2084" 
d="M987 1581h111v-281h-111v281zM473 1368l199 -199l-78 -75l-199 196zM1610 1368l80 -78l-199 -196l-78 75zM1040 1229q212 0 362 -150t150 -362q0 -138 -69 -255.5t-187 -186t-256 -68.5q-54 0 -122 14v-129h-160v201q-84 55 -146 145h-198v158h131q-15 58 -15 121
q0 139 68.5 257t186 186.5t255.5 68.5zM1040 317q167 0 284.5 117t117.5 283t-117.5 283.5t-284.5 117.5q-166 0 -282.5 -117.5t-116.5 -283.5t116.5 -283t282.5 -117zM1622 668v108h279v-108h-279zM473 76l-78 78l199 196l78 -76zM1610 76l-197 198l78 76l199 -196z" />
    <glyph glyph-name="uniE026" unicode="&#x23;LOUNGE" horiz-adv-x="1853" 
d="M926 -27q-150 0 -287.5 59.5t-237 159t-158.5 237.5t-59 288q0 151 58.5 288.5t158 237t237 158.5t288.5 59t288.5 -59t237 -159t158.5 -237.5t59 -287.5t-59 -288t-159 -237.5t-237.5 -159t-287.5 -59.5zM926 86q127 0 243.5 50t200.5 134.5t134 201.5t50 245t-50 245
t-134 201.5t-200.5 134.5t-243.5 50q-128 0 -245 -50t-201.5 -134.5t-134.5 -201.5t-50 -245t50 -245t134.5 -201.5t201.5 -134.5t245 -50zM926 354q-151 0 -258 106t-107 257t107 257.5t258 106.5t256.5 -106.5t105.5 -257.5q0 -150 -106 -256.5t-256 -106.5zM926 467
q103 0 177.5 73.5t74.5 176.5q0 104 -74.5 178t-177.5 74q-104 0 -178 -74t-74 -178q0 -103 74 -176.5t178 -73.5z" />
    <glyph glyph-name="uniE027" unicode="&#x23;BEER" horiz-adv-x="1966" 
d="M1325 -27h-1141v1483h1141v-239q209 -23 322 -136q137 -125 137 -350q0 -208 -129 -328q-123 -119 -330 -131v-299zM295 1343v-1257h223v1257h-223zM631 1343v-1257h250v1257h-250zM995 1343v-1257h217v1257h-217zM1325 1098v-711q163 16 252 98q90 90 90 246
q0 176 -100 268q-94 89 -242 99z" />
    <glyph glyph-name="uniE028" unicode="&#x23;BEDROOM" horiz-adv-x="3762" 
d="M295 -27h-111v1487h111v-915l3283 -25v-547h-113v435l-3170 20v-455zM1092 987h-643v111h643v-111zM3570 731h-3121v111h3121v-111z" />
    <glyph glyph-name="uniE029" unicode="&#x23;BUS" horiz-adv-x="3774" 
d="M854 -68q-112 0 -195 72t-102 182l-373 -2v1235h3226l180 -473v-749l-358 -2q-17 -111 -103 -187t-198 -76q-116 0 -201 74.5t-102 186.5l-1473 -5q-17 -110 -102.5 -183t-198.5 -73zM295 1307v-1012l262 2q21 107 103.5 177.5t193.5 70.5q112 0 196.5 -71t104.5 -179
l1475 8q24 105 107 173.5t194 68.5q108 0 190.5 -68t106.5 -172l254 2v619l-148 381h-3039zM854 43q83 0 140 57t57 140q0 82 -57 139t-140 57q-82 0 -138.5 -57t-56.5 -139q0 -83 56.5 -140t138.5 -57zM2931 43q80 0 137 57t57 140q0 81 -57 138.5t-137 57.5
q-83 0 -141 -57t-58 -139q0 -83 58 -140t141 -57z" />
    <glyph glyph-name="uniE030" unicode="&#x23;CAR" horiz-adv-x="3002" 
d="M748 -68q-113 0 -199.5 73t-108.5 183h-256v676l516 555h873l598 -463l647 -178v-590h-375q-22 -110 -108.5 -183t-198.5 -73q-113 0 -200 73t-107 183h-776q-20 -109 -106.5 -182.5t-198.5 -73.5zM295 819v-518h145q19 110 105.5 182t202.5 72q113 0 199.5 -72.5
t105.5 -181.5h776q19 109 105.5 181.5t201.5 72.5t201.5 -72.5t105.5 -181.5h264v385l-591 170l-578 451h-790zM748 47q82 0 140 59t58 142q0 80 -58.5 138t-139.5 58q-82 0 -140.5 -57.5t-58.5 -138.5q0 -85 58 -143t141 -58zM2136 47q82 0 140.5 59t58.5 142
q0 80 -58.5 138t-140.5 58q-80 0 -138.5 -58.5t-58.5 -137.5q0 -83 57.5 -142t139.5 -59z" />
    <glyph glyph-name="uniE031" unicode="&#x23;TRUCK" horiz-adv-x="3911" 
d="M905 -70q-110 0 -194.5 71t-104.5 179l-424 -2v1241h2669v-112h657l221 -412v-702h-198q-17 -114 -102 -188.5t-201 -74.5q-115 0 -199.5 73.5t-101.5 186.5l-1719 -8q-22 -109 -106.5 -180.5t-196.5 -71.5zM2740 1307h-2445v-1016l309 2q19 107 104 178.5t197 71.5
t197.5 -70.5t105.5 -177.5l1532 8v1004zM3441 1194h-590v-891h78q24 104 107 172t192 68q108 0 192.5 -68.5t106.5 -171.5h94v565zM905 43q85 0 141 56t56 141q0 80 -57 136t-140 56q-81 0 -136.5 -56t-55.5 -136q0 -85 55 -141t137 -56zM3228 43q83 0 138.5 56.5
t55.5 140.5q0 80 -56.5 136t-137.5 56t-137 -56t-56 -136q0 -85 55 -141t138 -56z" />
    <glyph glyph-name="uniE033" unicode="&#x23;NETWORK" horiz-adv-x="1853" 
d="M981 -27h-111v609l-432 -432l-78 83l431 429h-607v112h604l-428 426l78 84l432 -432v608h111v-608l430 432l80 -84l-430 -426h608v-112h-610l432 -429l-80 -83l-430 432v-609z" />
    <glyph glyph-name="uniE034" unicode="&#x23;ROAD" horiz-adv-x="3276" 
d="M3095 1460v-112h-2911v112h2911zM870 776v-112h-686v112h686zM1982 776v-112h-688v112h688zM3095 776v-112h-687v112h687zM3095 86v-113h-2911v113h2911z" />
    <glyph glyph-name="uniE036" unicode="&#x23;CHANGEROOM" horiz-adv-x="2838" 
d="M2468 -41h-2091l-191 262l1088 535l6 -115l-928 -459l82 -110h1974l80 110l-1124 486v272q136 32 190 86t54 156q0 83 -49.5 130.5t-137.5 47.5q-73 0 -124 -46t-52 -114h-121q7 120 92 197.5t205 77.5q132 0 215.5 -82.5t83.5 -212.5q0 -258 -243 -334v-103l1175 -522z
" />
    <glyph glyph-name="uniE037" unicode="&#x23;DEPARTURE" horiz-adv-x="2183" 
d="M1896 1055l-1126 -619l-242 13l-342 229l273 156l180 -80l297 176l-315 336l337 190l404 -264l340 203q66 44 151 22q80 -20 119 -90q40 -70 21 -153q-26 -73 -97 -119zM563 557l182 -8l1096 604q36 22 45 53q6 28 -8 64q-23 33 -55 39q-34 9 -64 -9l-399 -241l-406 266
l-155 -88l311 -330l-465 -280l-180 86l-68 -39zM1421 -27h-1185v113h1185v-113z" />
    <glyph glyph-name="uniE038" unicode="&#x23;ARRIVAL" horiz-adv-x="2232" 
d="M1806 768l-1243 -365q-82 -24 -155 15q-75 52 -93 125q-23 76 19 149q41 68 127 92l385 101l96 473l375 106l16 -460l338 83l70 187l307 84l-80 -410zM532 510l1209 358l125 133l35 203l-74 -20l-70 -193l-528 -131l-17 457l-174 -47l-98 -482l-453 -114q-39 -6 -57 -35
q-13 -37 -8 -70q10 -31 43 -51q27 -14 67 -8zM1348 -23h-1166v111h1166v-111z" />
    <glyph glyph-name="uniE039" unicode="&#x23;UPSTAIR" horiz-adv-x="1464" 
d="M674 1243q-59 0 -102.5 44t-43.5 104t43 102.5t103 42.5t102.5 -42.5t42.5 -102.5q0 -62 -42 -105t-103 -43zM674 1358q17 0 27 9t10 24q0 13 -11.5 23.5t-25.5 10.5q-12 0 -22.5 -10.5t-10.5 -23.5q0 -14 10 -23.5t23 -9.5zM616 -41h-434v107h330v241h324v238h88v164
l-209 151v221h-160l-74 -252l111 -90v-286l-313 -220l-58 91l264 182v184l-123 98l109 398h352v-273l207 -153v-215h252v-107h-342v-237h-324v-242z" />
    <glyph glyph-name="uniE040" unicode="&#x23;DOWNSTAIR" horiz-adv-x="1505" 
d="M604 1249q-59 0 -102 44t-43 104q0 61 42.5 104t102.5 43t104 -43t44 -104q0 -62 -42.5 -105t-105.5 -43zM604 1364q17 0 28 9.5t11 23.5t-12 25.5t-27 11.5q-11 0 -21 -12t-10 -25q0 -15 9.5 -24t21.5 -9zM633 -70h-451v107h342v254h336v37l-174 114v299l115 93l-74 262
h-170v-336l-192 -580l-105 27l189 569v428h360l115 -411l-127 -105v-190l63 -43v82h463v-109h-354v-246h-336v-252z" />
    <glyph glyph-name="uniE041" unicode="&#x23;BATHCHAIR" horiz-adv-x="1533" 
d="M831 1188q-64 0 -106.5 43.5t-42.5 107.5q0 63 43.5 106.5t105.5 43.5t106 -43.5t44 -106.5q0 -61 -45 -106t-105 -45zM831 1303q16 0 26.5 9.5t10.5 26.5q0 15 -11.5 27t-25.5 12q-15 0 -27.5 -12t-12.5 -27q0 -36 40 -36zM614 -27q-117 0 -216.5 58.5t-157.5 158.5
t-58 218q0 180 126.5 306t305.5 126q36 0 52 -2v295h305l145 -383h236v-711h-111v600h-197l-143 381h-127v-211q123 -48 199 -157t76 -244q0 -180 -127.5 -307.5t-307.5 -127.5zM614 86q133 0 228.5 95t95.5 227q0 86 -44.5 160t-119.5 116v-262h-108v301q-18 4 -52 4
q-131 0 -226 -94t-95 -225q0 -132 94.5 -227t226.5 -95z" />
    <glyph glyph-name="uniE042" unicode="&#x23;TRASH" horiz-adv-x="1339" 
d="M528 1231q-63 0 -105 42.5t-42 104.5t43 105t104 43q60 0 103 -43.5t43 -104.5q0 -60 -43.5 -103.5t-102.5 -43.5zM528 1329q19 0 33 14.5t14 34.5q0 22 -13.5 35.5t-33.5 13.5q-22 0 -35.5 -13.5t-13.5 -35.5q0 -21 14 -35t35 -14zM1153 -27h-768l-98 666h-107l127 530
h703v-106h-621l-76 -318h66l98 -667h146v616h104v-616h322v616h104v-721zM942 881q-22 0 -35.5 14t-13.5 37q0 20 14.5 34.5t34.5 14.5t35.5 -15t15.5 -34q0 -22 -14.5 -36.5t-36.5 -14.5zM860 750q-22 0 -34.5 14t-12.5 37q0 20 13.5 34.5t33.5 14.5t35.5 -15t15.5 -34
q0 -23 -14.5 -37t-36.5 -14z" />
    <glyph glyph-name="uniE043" unicode="&#x23;RESTROOM" horiz-adv-x="1734" 
d="M467 1229q-55 0 -96 40.5t-41 96.5q0 57 40 97t97 40t98 -40t41 -97q0 -55 -41.5 -96t-97.5 -41zM1229 1229q-55 0 -96 40.5t-41 96.5q0 57 40 97t97 40t98 -40t41 -97q0 -55 -41.5 -96t-97.5 -41zM467 1329q14 0 26.5 12t12.5 25q0 15 -11 26t-28 11q-14 0 -25.5 -11
t-11.5 -26t11 -26t26 -11zM1229 1329q15 0 27 11.5t12 25.5q0 15 -11 26t-28 11q-14 0 -25.5 -11t-11.5 -26t11 -26t26 -11zM604 -70h-250l-172 791v438h570v-438zM1343 -70h-229l-67 449h-142l119 780h395l133 -782h-141zM291 733l147 -694h80l123 694l2 320h-352v-320z
M1143 481l67 -442h39l64 446h108l-92 568h-209l-86 -572h109z" />
    <glyph glyph-name="uniE044" unicode="&#x23;ELEVATOR" horiz-adv-x="2156" 
d="M745 1249q-57 0 -101 44t-44 104q0 61 43 103t102 42q61 0 104.5 -42t43.5 -103q0 -60 -43.5 -104t-104.5 -44zM1405 1249q-57 0 -101 44t-44 104q0 61 43 103t102 42q61 0 104 -42t43 -103q0 -60 -43 -104t-104 -44zM1970 -70h-1786v113h2v1460h111v-1460h311l-147 678
l2 438h565v-438l-125 -678h371l-51 336h-142l119 780h395l134 -782h-142l-51 -334h326v1460h110v-1495h-2v-78zM743 1362q17 0 28 10.5t11 24.5q0 15 -12 26t-27 11q-12 0 -22 -11t-10 -26t9 -25t23 -10zM1403 1362q17 0 28 10t11 25t-12 26t-27 11q-12 0 -22.5 -11
t-10.5 -26t9.5 -25t23.5 -10zM569 733l148 -690h80l123 690l2 320h-353v-320zM1319 481l67 -438h39l64 442h108l-92 568h-209l-86 -572h109z" />
    <glyph glyph-name="uniE045" unicode="&#x23;UPESCALATOR" horiz-adv-x="1456" 
d="M723 1227q-61 0 -103 42.5t-42 104.5q0 61 42.5 103.5t102.5 42.5t102.5 -42.5t42.5 -103.5q0 -60 -43 -103.5t-102 -43.5zM723 1341q14 0 24.5 9.5t10.5 23.5t-11 25.5t-24 11.5q-14 0 -25.5 -11t-11.5 -26t10 -24t27 -9zM362 -27h-180v512l287 205v451h410v-158
l227 162h168v-506zM291 432v-356h37l837 616v350h-22zM575 1030v-264l199 141l2 123h-201z" />
    <glyph glyph-name="uniE046" unicode="&#x23;DOWNESCALATOR" horiz-adv-x="1456" 
d="M836 1227q-59 0 -101.5 43.5t-42.5 103.5q0 61 42 103.5t102 42.5t103.5 -42.5t43.5 -103.5q0 -62 -42 -104.5t-105 -42.5zM836 1341q17 0 27.5 9t10.5 24q0 14 -11.5 25.5t-26.5 11.5q-12 0 -22.5 -11t-10.5 -26q0 -14 10 -23.5t23 -9.5zM1274 -27h-180l-912 666v506
h168l228 -162v158h409v-451l287 -205v-512zM291 692l837 -616h37v356l-852 610h-22v-350zM682 907l199 -141v264h-201z" />
    <glyph glyph-name="uniE047" unicode="&#x23;STROLLER" horiz-adv-x="1681" 
d="M1462 362h-901l4 773l-225 229h-158v111h203l1077 -1074v-39zM1038 987q-83 0 -141.5 59.5t-58.5 145.5q0 85 58.5 144t141.5 59t144 -60t61 -143q0 -85 -60 -145t-145 -60zM1038 1102q38 0 65 26.5t27 63.5t-27.5 63.5t-64.5 26.5t-62.5 -26.5t-25.5 -63.5t25.5 -63.5
t62.5 -26.5zM680 1024l-8 -551h555zM676 -41q-72 0 -123 50t-51 122t51 123t123 51q74 0 124 -50.5t50 -123.5q0 -70 -51.5 -121t-122.5 -51zM1323 -41q-71 0 -121.5 50.5t-50.5 121.5q0 72 50.5 123t121.5 51q72 0 124 -51t52 -123t-52 -122t-124 -50zM676 72q25 0 43 17
t18 42t-18.5 44.5t-42.5 19.5q-26 0 -43 -18.5t-17 -45.5q0 -25 17.5 -42t42.5 -17zM1323 72q26 0 44.5 17t18.5 42q0 26 -18.5 45t-44.5 19q-24 0 -40.5 -18.5t-16.5 -45.5q0 -25 17 -42t40 -17z" />
    <glyph glyph-name="uniE048" unicode="&#x23;PHARMACY" horiz-adv-x="1853" 
d="M1186 -27h-512v490h-490v514h490v483h512v-483h483v-514h-483v-490zM786 575v-489h287v489h486v289h-486v484h-287v-484h-491v-289h491z" />
    <glyph glyph-name="uniE049" unicode="&#x23;TOP" horiz-adv-x="1927" 
d="M1524 -27h-1121v736h-219v751h615q0 -152 35.5 -209t128.5 -57q97 0 133 59t34 207h613v-758h-219v-729zM516 821v-735h895v729h219v533h-387q-5 -122 -82 -196.5t-198 -74.5t-195.5 74t-79.5 197h-391v-527h219z" />
    <glyph glyph-name="uniE050" unicode="&#x23;PANTS" horiz-adv-x="1878" 
d="M803 -35h-619l324 1503h862l324 -1503h-627l-96 559h-62zM600 1354l-274 -1274h391l104 555h242l96 -555h393l-274 1274h-678z" />
    <glyph glyph-name="uniE051" unicode="&#x23;BLANK" horiz-adv-x="1853" 
d="M1669 -27h-1485v1487h1485v-1487zM383 1352l543 -541l540 541h-1083zM293 1288v-1110l555 555zM1004 733l555 -555v1110zM926 653l-570 -567h1141z" />
    <glyph glyph-name="uniE052" unicode="&#x23;FIRE" horiz-adv-x="1169" 
d="M987 -27h-581v914q0 117 63 196.5t168 92.5l2 120q-119 0 -222 -88q-10 -8 -20 -18q-112 -115 -106 -336l-107 -2q-9 273 140 416q41 41 90.5 69.5t95.5 41.5t75.5 18t53.5 6v57h111v-57h229v-111h-231v-116q107 -13 173 -94.5t66 -196.5v-912zM518 887v-799h359v121
h-240v696l237 2q-5 70 -49 117t-133 47q-82 0 -128 -48.5t-46 -135.5zM748 797v-475h129v475h-129z" />
    <glyph glyph-name="uniE053" unicode="&#x23;FLAG" horiz-adv-x="1445" 
d="M297 -27h-113v1487h113v-102l965 -354v-103l-965 -352v-576zM297 1231v-557l768 280z" />
    <glyph glyph-name="uniE054" unicode="&#x23;SHOWER" horiz-adv-x="1396" 
d="M1214 1460v-110h-497v-238h299l119 -315h-951l117 315h301v348h612zM981 901l-39 107h-565l-41 -107h645zM539 616q-24 0 -41 18t-17 42q0 23 17.5 40t40.5 17t40 -17t17 -40q0 -24 -17 -42t-40 -18zM752 733q23 0 40 -17t17 -40q0 -24 -17 -42t-40 -18q-24 0 -41 18
t-17 42q0 23 17.5 40t40.5 17zM961 733q23 0 40 -17t17 -40q0 -24 -17 -42t-40 -18q-25 0 -43.5 17t-18.5 43q0 23 18.5 40t43.5 17zM442 612q0 -24 -16.5 -41.5t-40.5 -17.5q-23 0 -39 17.5t-16 41.5t16 41t39 17q24 0 40.5 -17t16.5 -41zM268 459q0 25 16 42t40 17
q25 0 41 -17t16 -42q0 -24 -16.5 -41t-40.5 -17q-23 0 -39.5 17.5t-16.5 40.5zM752 518q25 0 41 -17t16 -42q0 -23 -17 -40.5t-40 -17.5t-40.5 17.5t-17.5 40.5q0 25 16 42t42 17zM961 518q25 0 41 -17t16 -42q0 -23 -17 -40.5t-40 -17.5q-25 0 -43.5 17t-18.5 41
q0 26 17.5 42.5t44.5 16.5zM651 424q33 -15 33 -53q0 -25 -17 -41.5t-40 -16.5q-39 0 -52 33q-32 18 -32 51q0 25 16.5 42.5t40.5 17.5q33 0 51 -33zM539 305q23 0 40 -18t17 -41q0 -24 -17 -41t-40 -17q-24 0 -41 17t-17 41t17 41.5t41 17.5zM961 305q24 0 40.5 -17.5
t16.5 -41.5t-17 -41t-40 -17q-25 0 -43.5 17t-18.5 41t18.5 41.5t43.5 17.5zM442 184q0 -25 -16 -42t-41 -17q-23 0 -39 17t-16 42q0 24 16 41t39 17q25 0 41 -17t16 -41zM475 154q24 0 40.5 -18t16.5 -42t-16.5 -40.5t-40.5 -16.5t-40.5 16.5t-16.5 40.5t17 42t40 18z
M324 90q24 0 40.5 -16.5t16.5 -40.5q0 -25 -16.5 -42.5t-40.5 -17.5t-40 17.5t-16 42.5q0 23 16.5 40t39.5 17zM752 90q23 0 40 -17t17 -40q0 -25 -16.5 -42.5t-40.5 -17.5q-25 0 -41.5 17.5t-16.5 42.5q0 24 17 40.5t41 16.5zM961 90q23 0 40 -17t17 -40q0 -25 -16.5 -42.5
t-40.5 -17.5q-25 0 -43.5 17t-18.5 43q0 24 18.5 40.5t43.5 16.5z" />
    <glyph glyph-name="uniE055" unicode="&#x23;ATM" horiz-adv-x="1402" 
d="M1221 625h-111v768h-928v110h1039v-878zM309 813h-112v238h835v-238h-110v127h-613v-127zM1176 530l-148 -608l-106 29l125 512l-238 106l-41 -219l-109 23l23 119l-84 22l-78 -338l197 -70l-31 -106l-299 106l55 234h-172l107 534h110l-84 -421h68l49 198l180 -49
l50 272h112l-33 -194z" />
    <glyph glyph-name="uniE057" unicode="&#x23;CAFE" horiz-adv-x="2275" 
d="M1720 197h-1454v1253h1454q194 -16 322 -133q133 -124 133 -350q0 -202 -125 -324q-121 -121 -330 -133v-313zM377 1337v-1028h1231v1028h-1231zM1720 1333v-708q166 16 250 100q90 90 90 242q0 177 -100 266q-84 84 -240 100zM1718 -25h-1452v113h1452v-113z" />
    <glyph glyph-name="uniE058" unicode="&#x23;UNDERGROUND" horiz-adv-x="1619" 
d="M444 -27h-122l73 279h-211v876q0 137 95.5 234.5t230.5 97.5h600q135 0 230.5 -97t95.5 -235v-876h-211l69 -279h-118l-23 95h-688zM741 821h158q165 1 288.5 29t137.5 55l-2 223q0 91 -62.5 155.5t-150.5 64.5h-600q-88 0 -151.5 -64.5t-63.5 -155.5v-225q6 -16 63 -35
t161.5 -33t221.5 -14zM295 772v-410h1028v410q-140 -58 -424 -67l-158 2q-116 0 -241 15.5t-205 49.5zM1137 455q-29 4 -47 29.5t-13 56.5q5 29 30 46t56 11q29 -5 46.5 -29t13.5 -55q-6 -31 -30.5 -48t-55.5 -11zM465 455q-33 9 -46 37t3 51q3 24 22 39t45 14q29 -3 47 -27
t13 -55q-6 -31 -30.5 -48t-53.5 -11zM512 252l-16 -74h628l-18 74h-594z" />
    <glyph glyph-name="uniE059" unicode="&#x23;BUSSTATION" horiz-adv-x="1648" 
d="M473 -27h-217q-72 0 -72 74v1413h1282v-1413q0 -35 -19 -54.5t-54 -19.5h-217q-35 0 -54.5 19.5t-19.5 54.5v121h-555v-121q0 -35 -19.5 -54.5t-54.5 -19.5zM295 1348v-86h1059v86h-1059zM295 1149v-477h473v477h-473zM881 1149v-477h473v477h-473zM295 559v-276h1059
v276h-1059zM444 358q-25 0 -43 18.5t-18 43.5q0 23 18 41t43 18t43.5 -18t18.5 -41q0 -26 -18.5 -44t-43.5 -18zM1206 358q-25 0 -43 18t-18 44q0 25 18 42t43 17t43.5 -18t18.5 -41q0 -26 -18.5 -44t-43.5 -18zM295 168v-84h139v84h-139zM1214 168v-84h140v84h-140z" />
    <glyph glyph-name="uniE060" unicode="&#x23;DANGER" horiz-adv-x="1871" 
d="M1688 53l-50 -82h-1405l-49 82l703 1407h96zM1548 84l-612 1231l-614 -1231h1226zM989 936v-461h-106v461h106zM989 362v-116h-106v116h106z" />
    <glyph glyph-name="uniE061" unicode="&#x23;PARKING" horiz-adv-x="1853" 
d="M1669 -27h-1485v1487h1485v-1487zM293 1352v-1268h1268v1268h-1268zM780 289h-110v858h282q129 0 199 -65t70 -185t-70.5 -186t-198.5 -66h-172v-356zM780 1036v-282h162q88 0 129 34.5t41 108.5q0 72 -40.5 105.5t-129.5 33.5h-162z" />
    <glyph glyph-name="uniE062" unicode="&#x23;INTERSECTION" horiz-adv-x="1855" 
d="M444 -27h-112v150h-146v110h146v429h-146v112h146v428h-146v113h146v145h112v-145h428v145h113v-145h426v145h113v-145h149v-113h-149v-428h149v-112h-149v-429h149v-110h-149v-150h-113v150h-426v-150h-113v150h-428v-150zM444 1202v-428h428v428h-428zM985 1202v-428
h426v428h-426zM444 662v-429h428v429h-428zM985 662v-429h426v429h-426z" />
    <glyph glyph-name="uniE063" unicode="&#x23;FILE" horiz-adv-x="1607" 
d="M1163 -27h-979v1303h260v254h979v-1262h-14v-2h-246v-293zM1163 1276v-897h148v1038h-756v-141h608zM295 1163v-1077h756v1077h-756z" />
    <glyph glyph-name="uniE064" unicode="&#x23;MALE" horiz-adv-x="1880" 
d="M813 -27q-170 0 -315 84.5t-229.5 229t-84.5 313.5q0 128 49.5 244.5t134 201t201 134t244.5 49.5q221 0 399 -144l285 263h-221v112h420v-399h-113v215l-291 -270q146 -180 146 -406q0 -169 -83.5 -313.5t-227.5 -229t-314 -84.5zM813 86q139 0 257.5 69t187.5 187.5
t69 257.5q0 140 -69.5 259t-188 188t-256.5 69q-140 0 -259.5 -69.5t-189 -188.5t-69.5 -258t69.5 -257.5t189 -187.5t259.5 -69z" />
    <glyph glyph-name="uniE065" unicode="&#x23;FEMALE" horiz-adv-x="1835" 
d="M602 53l-80 -78l-133 144l-127 -117l-78 82l127 117l-127 135l82 80l129 -137l158 147q-152 176 -152 410q0 169 84 313t228 227.5t313 83.5t313 -84t228 -228t84 -312q0 -170 -84 -314t-228 -227.5t-313 -83.5q-216 0 -391 135l-164 -151zM1026 322q138 0 256 69
t187 187.5t69 257.5t-68.5 257.5t-186.5 187.5t-257 69q-140 0 -258.5 -68.5t-187 -187t-68.5 -258.5q0 -139 68.5 -257.5t187 -187.5t258.5 -69z" />
    <glyph glyph-name="uniE066" unicode="&#x23;SOFA" horiz-adv-x="2580" 
d="M498 -27h-113v293h-203v856h213v338h1790v-338h213v-856h-203v-293h-112v293h-1585v-293zM662 1122v-403h1259v403h154v228h-1569v-228h156zM297 1012v-635h1987v635h-252v-404h-1481v404h-254z" />
    <glyph glyph-name="uniE067" unicode="&#x23;SMOKING" horiz-adv-x="1710" 
d="M741 1225l-67 53q9 14 31 37t58.5 54.5t88.5 55.5t104 27q122 6 222 -100l-72 -70q-69 78 -143 72q-109 -4 -222 -129zM1526 1014l-1049 -1045l-293 295l1049 1043zM670 987q-126 -9 -221 96l71 70q63 -72 144 -66q118 4 262 166l78 -63q-6 -7 -23.5 -24t-28.5 -29
q-145 -145 -282 -150zM1110 1042l152 -153l122 125l-149 151zM328 264l151 -151l711 704l-152 156z" />
    <glyph glyph-name="uniE068" unicode="&#x23;NOSMOKING" horiz-adv-x="1716" 
d="M745 1225l-67 53q9 14 30.5 37t58 54.5t88 55.5t103.5 27q124 6 224 -100l-74 -70q-69 78 -143 72q-107 -4 -220 -129zM877 362l-392 -389l-299 299l389 390l-391 387l80 79l393 -389l576 574l299 -297l-576 -572l285 -280l-82 -80zM678 983q-132 -9 -229 102l79 76
q64 -73 142 -67q43 1 88.5 23t81.5 54t56 52.5t32 36.5l88 -70q-32 -32 -55 -57q-151 -146 -283 -150zM1120 1044l142 -145l114 117l-141 141zM735 662l144 -142l303 301l-140 146zM346 272l141 -139l312 307l-144 142z" />
    <glyph glyph-name="uniE069" unicode="&#x23;NOCAMERA" horiz-adv-x="2308" 
d="M2111 -156l-79 -75l-205 204h-1649v1487h162l-168 168l82 78l246 -246h1626v-1487h-144zM291 1348v-1262h1423l-297 297q-115 -92 -264 -92q-182 0 -309 126.5t-127 307.5q0 146 94 264l-358 359h-162zM1495 461l375 -375h143v1262h-1401l279 -279q114 90 262 90
q117 0 217 -58t158.5 -158t58.5 -218q0 -145 -92 -264zM1880 1104h-209v113h209v-113zM973 987l442 -442q55 77 55 180q0 131 -93.5 225t-223.5 94q-97 0 -180 -57zM1153 406q103 0 182 57l-444 444q-57 -79 -57 -182q0 -132 93 -225.5t226 -93.5z" />
    <glyph glyph-name="uniE070" unicode="&#x23;INFORMATION" horiz-adv-x="970" 
d="M498 1047q-92 0 -158 65.5t-66 157.5q0 89 66 154t158 65q89 0 155 -65t66 -154q0 -92 -65 -157.5t-156 -65.5zM498 1151q50 0 83 34t33 85q0 47 -34.5 81.5t-81.5 34.5q-51 0 -86 -33.5t-35 -82.5q0 -52 34 -85.5t87 -33.5zM788 -27h-604v111h92l3 782h-95v109h514
l-4 -891h94v-111zM389 866l-4 -782h201l4 782h-201z" />
    <glyph glyph-name="uniE071" unicode="&#x23;TAXI" horiz-adv-x="1882" 
d="M426 -27h-150q-44 0 -69 24.5t-25 70.5v684l264 514h240l90 194h328l92 -194h240l262 -514v-684q0 -45 -24.5 -70t-69.5 -25h-148q-44 0 -69 24.5t-25 70.5v96h-842v-96q0 -45 -24.5 -70t-69.5 -25zM846 1352l-39 -86h266l-37 86h-190zM512 1153l-184 -360h1226l-184 360
h-858zM293 682l2 -406h1290l2 406h-1294zM492 399q-34 0 -59 25t-25 59q0 33 25.5 57.5t58.5 24.5q32 0 56.5 -24.5t24.5 -57.5t-24.5 -58.5t-56.5 -25.5zM1391 399q-34 0 -59 25t-25 59q0 33 25.5 57.5t58.5 24.5q34 0 58 -24t24 -58q0 -33 -24.5 -58.5t-57.5 -25.5z
M295 164v-80h113v80h-113zM1473 164v-80h112v80h-112z" />
    <glyph glyph-name="uniE072" unicode="&#x23;BATH" horiz-adv-x="1816" 
d="M567 -27h-110l63 172l-53 25q-136 65 -209.5 178.5t-73.5 247.5v55h1209v584q0 47 -34.5 82t-80.5 35q-47 0 -81 -35t-34 -82v-78q0 -23 -16 -39t-39 -16q-22 0 -37.5 16t-15.5 39v78q0 94 64.5 159.5t158.5 65.5q92 0 158.5 -66.5t66.5 -158.5v-584h129v-55
q0 -138 -76 -253t-213 -179l-43 -19l62 -172h-111l-57 154h-569zM1114 915q-27 0 -46 19.5t-19 46.5q0 28 18.5 47t46.5 19t47 -19t19 -47q0 -27 -19.5 -46.5t-46.5 -19.5zM1114 733q-27 0 -46 19.5t-19 46.5q0 28 18.5 47.5t46.5 19.5t47 -19.5t19 -47.5q0 -27 -19.5 -46.5
t-46.5 -19.5zM653 236h508q133 0 234.5 87t120.5 218l-1217 2q20 -132 121 -219.5t233 -87.5z" />
    <glyph glyph-name="uniE073" unicode="&#x23;RESTAURANT" horiz-adv-x="1437" 
d="M506 -27h-109v850q-94 23 -154.5 112t-60.5 202q0 133 79.5 228t189.5 95q113 0 191.5 -94.5t78.5 -228.5q0 -114 -60.5 -203t-154.5 -111v-850zM1085 -27h-110v842h-174v617h110v-506h64v506h110v-506h60v506h108v-617h-168v-842zM451 926q65 0 112 62t47 149
q0 89 -47 152t-112 63t-111.5 -63t-46.5 -152t46.5 -150t111.5 -61z" />
    <glyph glyph-name="uniE074" unicode="&#x23;NOODLE" horiz-adv-x="2091" 
d="M1376 -27h-645v117q-253 97 -405 320.5t-144 486.5h1008l229 242v321h109v-186l153 186h142l-295 -360v-203h379q9 -260 -137.5 -480.5t-393.5 -320.5v-123zM1419 997l-88 -100h88v100zM842 172v-88h422v92q214 62 357.5 228.5t168.5 381.5l-1491 2q26 -218 174.5 -387
t368.5 -229z" />
    <glyph glyph-name="uniE075" unicode="&#x23;SHOPPING" horiz-adv-x="1646" 
d="M1464 -27h-1280v1117h355v84q0 117 84 201.5t200 84.5q120 0 204.5 -83.5t84.5 -202.5v-84h352v-1117zM651 1174v-84h348v84q0 73 -51.5 123.5t-124.5 50.5q-71 0 -121.5 -50.5t-50.5 -123.5zM297 979v-893h1055v893h-240v-139h-113v139h-348v-139h-112v139h-242z" />
    <glyph glyph-name="uniE076" unicode="&#x23;EYE" horiz-adv-x="1832" 
d="M971 1251h-109v209h109v-209zM741 1245l-104 -28l-53 202l104 27zM1249 1419l-53 -202l-104 28l53 201zM915 328q-146 0 -295 55.5t-256.5 133.5t-179.5 167v66q69 87 176 165.5t257 134.5t298 56q112 0 227 -32t209.5 -85t170.5 -114t127 -125v-66q-51 -62 -126 -122.5
t-169 -114t-210 -86.5t-229 -33zM915 438q117 0 198 81t81 198t-81 197.5t-198 80.5t-197.5 -80.5t-80.5 -197.5t80.5 -198t197.5 -81zM586 516q-60 92 -60 201.5t60 200.5q-154 -74 -273 -193v-18q115 -115 273 -191zM1247 516q163 81 273 191v18q-123 123 -273 193
q59 -91 59 -200.5t-59 -201.5zM915 559q-64 0 -110.5 46.5t-46.5 111.5t46.5 112.5t110.5 47.5q65 0 112.5 -47.5t47.5 -112.5q0 -64 -47.5 -111t-112.5 -47zM915 670q22 0 36 13t14 34q0 22 -14 35.5t-36 13.5q-20 0 -33.5 -13.5t-13.5 -35.5q0 -21 13 -34t34 -13zM741 188
l-53 -200l-104 26l53 203zM1249 14l-104 -26l-53 200l104 29zM971 -27h-109v209h109v-209z" />
    <glyph glyph-name="uniE077" unicode="&#x23;BIKE" horiz-adv-x="1095" 
d="M549 -27q-63 0 -109.5 46t-46.5 110v35q-95 25 -153 94t-58 162v584q0 92 59 164t148 96l-2 14h-192v108h219q48 74 135 74q41 0 77 -20t58 -54h217v-108h-190l-2 -14q89 -24 145.5 -95.5t56.5 -164.5v-584q0 -94 -59.5 -167t-149.5 -93v-31q0 -64 -45 -110t-108 -46z
M549 1241q22 0 37.5 16t15.5 39q0 25 -15 40.5t-38 15.5t-38 -15.5t-15 -40.5q0 -23 15 -39t38 -16zM393 272v115q0 63 45.5 107.5t110.5 44.5t109 -44t44 -108v-108q47 19 75 56t28 85v584q0 59 -47 105.5t-109 51.5h-12q-44 -28 -88 -28q-38 0 -88 28h-12
q-61 -3 -109.5 -50.5t-48.5 -106.5v-584q0 -51 28 -90.5t74 -57.5zM592 623h-86v413h86v-413zM549 84q19 0 32 12.5t13 32.5v258q0 19 -12.5 32t-32.5 13t-33.5 -13t-13.5 -32v-258q0 -20 14 -32.5t33 -12.5z" />
    <glyph glyph-name="uniE016" unicode="&#x23;CAMERA" horiz-adv-x="2312" 
d="M2130 -27h-1946v1487h1946v-1487zM295 1348v-1262h1722v1262h-1722zM1884 1104h-209v113h209v-113zM1157 291q-180 0 -307 126.5t-127 307.5q0 117 58.5 217t158.5 158.5t217 58.5q180 0 307 -127t127 -307q0 -118 -58.5 -218t-158.5 -158t-217 -58zM1157 406
q131 0 225.5 94.5t94.5 224.5t-94.5 224.5t-225.5 94.5q-130 0 -224.5 -95t-94.5 -224q0 -132 93.5 -225.5t225.5 -93.5z" />
    <glyph glyph-name="uniE017" unicode="&#x23;DRINK" horiz-adv-x="1200" 
d="M1018 -27h-836v951l207 340v196h424v-196l205 -340v-951zM293 891v-805h616v805l-209 336l2 121h-204l2 -121z" />
    <glyph glyph-name="u1F150" unicode="&#x7b;A&#x7d;" 
d="M893 -115q-219 0 -407 112t-298 303.5t-110 416.5q0 168 65 322t174.5 265.5t260.5 177.5t315 66t315 -66t260.5 -177.5t174.5 -265.5t65 -322q0 -225 -110 -416.5t-298 -303.5t-407 -112zM807 1122l-279 -729h158l59 158h295l60 -158h155l-274 729h-174zM989 684h-192
l94 264h6z" />
    <glyph glyph-name="u1F151" unicode="&#x7b;B&#x7d;" 
d="M893 -115q-219 0 -407 112t-298 303.5t-110 416.5q0 168 65 322t174.5 265.5t260.5 177.5t315 66t315 -66t260.5 -177.5t174.5 -265.5t65 -322q0 -225 -110 -416.5t-298 -303.5t-407 -112zM643 1081v-729h354q106 0 167 55t61 150q0 62 -34.5 106t-88.5 64v4
q43 15 72.5 56t29.5 100q0 94 -58 144t-167 50h-336zM965 786h-164v162h164q86 0 86 -78q0 -40 -22.5 -62t-63.5 -22zM985 485h-184v174h180q37 0 61.5 -24.5t24.5 -63.5q0 -41 -21.5 -63.5t-60.5 -22.5z" />
    <glyph glyph-name="u1F152" unicode="&#x7b;C&#x7d;" 
d="M893 -115q-219 0 -407 112t-298 303.5t-110 416.5q0 168 65 322t174.5 265.5t260.5 177.5t315 66t315 -66t260.5 -177.5t174.5 -265.5t65 -322q0 -225 -110 -416.5t-298 -303.5t-407 -112zM901 338q138 0 226 77t94 187h-158q-6 -59 -50.5 -95t-111.5 -36
q-61 1 -103 37.5t-59.5 88.5t-17.5 114v10q0 100 45 171t135 71q66 1 110.5 -36t49.5 -96h160q-6 110 -94 187.5t-226 77.5q-83 0 -149 -32t-106 -86t-60.5 -119.5t-20.5 -137.5v-10q0 -71 20.5 -136t60.5 -119t106 -86t149 -32z" />
    <glyph glyph-name="u1F153" unicode="&#x7b;D&#x7d;" 
d="M893 -115q-219 0 -407 112t-298 303.5t-110 416.5q0 168 65 322t174.5 265.5t260.5 177.5t315 66t315 -66t260.5 -177.5t174.5 -265.5t65 -322q0 -225 -110 -416.5t-298 -303.5t-407 -112zM657 1081v-729h285q137 0 223 102t86 263q0 162 -86 263t-223 101h-285zM911 485
h-96v463h96q88 0 136.5 -62t48.5 -169q0 -106 -48.5 -169t-136.5 -63z" />
    <glyph glyph-name="u1F154" unicode="&#x7b;E&#x7d;" 
d="M893 -115q-219 0 -407 112t-298 303.5t-110 416.5q0 168 65 322t174.5 265.5t260.5 177.5t315 66t315 -66t260.5 -177.5t174.5 -265.5t65 -322q0 -225 -110 -416.5t-298 -303.5t-407 -112zM639 1081v-729h512v133h-356v168h323v133h-323v162h356v133h-512z" />
    <glyph glyph-name="u1F155" unicode="&#x7b;F&#x7d;" 
d="M893 -115q-219 0 -407 112t-298 303.5t-110 416.5q0 168 65 322t174.5 265.5t260.5 177.5t315 66t315 -66t260.5 -177.5t174.5 -265.5t65 -322q0 -225 -110 -416.5t-298 -303.5t-407 -112zM643 1081v-729h158v277h323v133h-323v186h356v133h-514z" />
    <glyph glyph-name="u1F156" unicode="&#x7b;G&#x7d;" 
d="M893 -115q-219 0 -407 112t-298 303.5t-110 416.5q0 168 65 322t174.5 265.5t260.5 177.5t315 66t315 -66t260.5 -177.5t174.5 -265.5t65 -322q0 -225 -110 -416.5t-298 -303.5t-407 -112zM903 326q145 0 232.5 84t87.5 211v127h-310v-134h154v-10q0 -69 -45.5 -107
t-118.5 -38q-90 1 -135 70.5t-45 168.5v11q0 98 45 168.5t135 70.5q66 2 111 -34.5t49 -94.5h160q-8 110 -95 186t-225 76q-83 0 -149.5 -32t-106.5 -85.5t-61 -118.5t-21 -136v-11q0 -72 20.5 -137t60.5 -118.5t106.5 -85t150.5 -31.5z" />
    <glyph glyph-name="u1F157" unicode="&#x7b;H&#x7d;" 
d="M893 -115q-219 0 -407 112t-298 303.5t-110 416.5q0 168 65 322t174.5 265.5t260.5 177.5t315 66t315 -66t260.5 -177.5t174.5 -265.5t65 -322q0 -225 -110 -416.5t-298 -303.5t-407 -112zM596 1081v-729h156v303h286l-2 -303h156v729h-156l2 -293h-286v293h-156z" />
    <glyph glyph-name="u1F158" unicode="&#x7b;I&#x7d;" 
d="M893 -115q-219 0 -407 112t-298 303.5t-110 416.5q0 168 65 322t174.5 265.5t260.5 177.5t315 66t315 -66t260.5 -177.5t174.5 -265.5t65 -322q0 -225 -110 -416.5t-298 -303.5t-407 -112zM815 1081v-729h158v729h-158z" />
    <glyph glyph-name="u1F159" unicode="&#x7b;J&#x7d;" 
d="M893 -115q-219 0 -407 112t-298 303.5t-110 416.5q0 168 65 322t174.5 265.5t260.5 177.5t315 66t315 -66t260.5 -177.5t174.5 -265.5t65 -322q0 -225 -110 -416.5t-298 -303.5t-407 -112zM784 346q122 0 187 58.5t65 170.5v515h-155v-492q0 -60 -27 -84.5t-90 -24.5
q-29 0 -82 11v-142q58 -12 102 -12z" />
    <glyph glyph-name="u1F15A" unicode="&#x7b;K&#x7d;" 
d="M893 1548q164 0 315 -66t260.5 -177.5t174.5 -265.5t65 -322q0 -225 -110 -416.5t-298 -303.5t-407 -112t-407 112t-298 303.5t-110 416.5q0 168 65 322t174.5 265.5t260.5 177.5t315 66zM752 352h163l-98 346l105 109l26 -47l160 321h-170l-147 -405v289h-132z" />
    <glyph glyph-name="u1F15B" unicode="&#x7b;L&#x7d;" 
d="M893 -115q-219 0 -407 112t-298 303.5t-110 416.5q0 168 65 322t174.5 265.5t260.5 177.5t315 66t315 -66t260.5 -177.5t174.5 -265.5t65 -322q0 -225 -110 -416.5t-298 -303.5t-407 -112zM662 1081v-729h512v133h-357v596h-155z" />
    <glyph glyph-name="u1F15C" unicode="&#x7b;M&#x7d;" 
d="M893 -115q-219 0 -407 112t-298 303.5t-110 416.5q0 168 65 322t174.5 265.5t260.5 177.5t315 66t315 -66t260.5 -177.5t174.5 -265.5t65 -322q0 -225 -110 -416.5t-298 -303.5t-407 -112zM516 1083v-729h148v518h6l147 -518h152l147 518h6v-518h148v729h-217l-156 -546
h-6l-158 546h-217z" />
    <glyph glyph-name="u1F15D" unicode="&#x7b;N&#x7d;" 
d="M893 -115q-219 0 -407 112t-298 303.5t-110 416.5q0 168 65 322t174.5 265.5t260.5 177.5t315 66t315 -66t260.5 -177.5t174.5 -265.5t65 -322q0 -225 -110 -416.5t-298 -303.5t-407 -112zM596 1081v-729h156v471h6l266 -471h168v729h-158v-471h-4l-266 471h-168z" />
    <glyph glyph-name="u1F15E" unicode="&#x7b;O&#x7d;" 
d="M893 -115q-219 0 -407 112t-298 303.5t-110 416.5q0 168 65 322t174.5 265.5t260.5 177.5t315 66t315 -66t260.5 -177.5t174.5 -265.5t65 -322q0 -225 -110 -416.5t-298 -303.5t-407 -112zM895 338q84 0 150 32t105 86t59 119t20 136v10q0 72 -20 137.5t-59 119.5
t-105 86t-150 32q-83 0 -149.5 -32t-106.5 -86t-61 -119.5t-21 -137.5v-10q0 -71 20.5 -136t60.5 -119t106.5 -86t150.5 -32zM895 471q-61 1 -103 37.5t-59.5 88.5t-17.5 114v10q0 100 45 171t135 71q89 1 133.5 -70.5t44.5 -171.5v-10q0 -62 -17 -114.5t-59 -89t-102 -36.5
z" />
    <glyph glyph-name="u1F15F" unicode="&#x7b;P&#x7d;" 
d="M893 -115q-219 0 -407 112t-298 303.5t-110 416.5q0 168 65 322t174.5 265.5t260.5 177.5t315 66t315 -66t260.5 -177.5t174.5 -265.5t65 -322q0 -225 -110 -416.5t-298 -303.5t-407 -112zM657 1081v-729h156v269h166q120 0 188 59.5t68 163.5q0 114 -67 175.5t-189 61.5
h-322zM973 754h-160v194h160q106 0 106 -96q0 -98 -106 -98z" />
    <glyph glyph-name="u1F160" unicode="&#x7b;Q&#x7d;" 
d="M893 -115q-219 0 -407 112t-298 303.5t-110 416.5q0 168 65 322t174.5 265.5t260.5 177.5t315 66t315 -66t260.5 -177.5t174.5 -265.5t65 -322q0 -225 -110 -416.5t-298 -303.5t-407 -112zM1141 301l86 102q-62 18 -101 39q97 106 97 279v10q0 72 -19.5 137.5
t-57.5 119.5t-104 86t-151 32q-83 0 -149 -32t-106 -86t-60.5 -119.5t-20.5 -137.5v-10q0 -71 20.5 -136t60 -119t105.5 -86t150 -32q48 0 106 14q82 -58 144 -61zM891 481q-61 1 -103 37.5t-59.5 88.5t-17.5 114v10q0 100 45 171t135 71q89 1 134.5 -70.5t45.5 -171.5v-10
q0 -62 -17.5 -114.5t-60 -89t-102.5 -36.5z" />
    <glyph glyph-name="u1F161" unicode="&#x7b;R&#x7d;" 
d="M893 -115q-219 0 -407 112t-298 303.5t-110 416.5q0 168 65 322t174.5 265.5t260.5 177.5t315 66t315 -66t260.5 -177.5t174.5 -265.5t65 -322q0 -225 -110 -416.5t-298 -303.5t-407 -112zM625 1081v-729h157v269h123l137 -269h164l-151 285q70 22 108.5 76t38.5 131
q0 114 -66.5 175.5t-189.5 61.5h-321zM940 754h-158v194h158q107 0 107 -96q0 -98 -107 -98z" />
    <glyph glyph-name="u1F162" unicode="&#x7b;S&#x7d;" 
d="M893 -115q-219 0 -407 112t-298 303.5t-110 416.5q0 168 65 322t174.5 265.5t260.5 177.5t315 66t315 -66t260.5 -177.5t174.5 -265.5t65 -322q0 -225 -110 -416.5t-298 -303.5t-407 -112zM895 338q134 0 211.5 61t77.5 168q0 76 -57.5 123.5t-184.5 85.5l-51 17
q-69 21 -94 43t-25 57t33 55.5t90 20.5q56 0 88 -27.5t33 -79.5h155q-3 113 -73 173.5t-203 60.5q-129 0 -204 -59.5t-75 -159.5q0 -75 56.5 -125t177.5 -84l51 -15q69 -21 98 -42t29 -54q0 -43 -35.5 -67.5t-95.5 -24.5q-134 0 -137 119h-156q2 -115 77.5 -180.5
t213.5 -65.5z" />
    <glyph glyph-name="u1F163" unicode="&#x7b;T&#x7d;" 
d="M893 -115q-219 0 -407 112t-298 303.5t-110 416.5q0 168 65 322t174.5 265.5t260.5 177.5t315 66t315 -66t260.5 -177.5t174.5 -265.5t65 -322q0 -225 -110 -416.5t-298 -303.5t-407 -112zM815 907v-596h156l2 596h205v133h-570l2 -133h205z" />
    <glyph glyph-name="u1F164" unicode="&#x7b;U&#x7d;" 
d="M893 -115q-219 0 -407 112t-298 303.5t-110 416.5q0 168 65 322t174.5 265.5t260.5 177.5t315 66t315 -66t260.5 -177.5t174.5 -265.5t65 -322q0 -225 -110 -416.5t-298 -303.5t-407 -112zM897 305q97 0 164.5 44t98 113.5t30.5 158.5v428h-154v-441q0 -73 -36 -121.5
t-103 -48.5q-70 1 -106.5 49t-36.5 121v441h-156v-428q0 -137 77.5 -226.5t221.5 -89.5z" />
    <glyph glyph-name="u1F165" unicode="&#x7b;V&#x7d;" 
d="M893 -115q-219 0 -407 112t-298 303.5t-110 416.5q0 168 65 322t174.5 265.5t260.5 177.5t315 66t315 -66t260.5 -177.5t174.5 -265.5t65 -322q0 -225 -110 -416.5t-298 -303.5t-407 -112zM528 1040l279 -729h174l274 729h-155l-203 -555h-6l-205 555h-158z" />
    <glyph glyph-name="u1F166" unicode="&#x7b;W&#x7d;" 
d="M893 -115q-219 0 -407 112t-298 303.5t-110 416.5q0 168 65 322t174.5 265.5t260.5 177.5t315 66t315 -66t260.5 -177.5t174.5 -265.5t65 -322q0 -225 -110 -416.5t-298 -303.5t-407 -112zM416 1040l194 -729h156l125 494h6l123 -494h156l194 729h-158l-120 -501h-5
l-120 501h-148l-121 -501h-4l-121 501h-157z" />
    <glyph glyph-name="u1F167" unicode="&#x7b;X&#x7d;" 
d="M893 -115q-219 0 -407 112t-298 303.5t-110 416.5q0 168 65 322t174.5 265.5t260.5 177.5t315 66t315 -66t260.5 -177.5t174.5 -265.5t65 -322q0 -225 -110 -416.5t-298 -303.5t-407 -112zM809 717l-225 -365h166l141 226h6l139 -226h166l-227 365l227 364h-166
l-139 -223h-6l-141 223h-166z" />
    <glyph glyph-name="u1F168" unicode="&#x7b;Y&#x7d;" 
d="M893 -115q-219 0 -407 112t-298 303.5t-110 416.5q0 168 65 322t174.5 265.5t260.5 177.5t315 66t315 -66t260.5 -177.5t174.5 -265.5t65 -322q0 -225 -110 -416.5t-298 -303.5t-407 -112zM817 588v-277h156v277l256 452h-168l-164 -303h-6l-164 303h-168z" />
    <glyph glyph-name="u1F169" unicode="&#x7b;Z&#x7d;" 
d="M893 -115q-219 0 -407 112t-298 303.5t-110 416.5q0 168 65 322t174.5 265.5t260.5 177.5t315 66t315 -66t260.5 -177.5t174.5 -265.5t65 -322q0 -225 -110 -416.5t-298 -303.5t-407 -112zM618 485v-133h549v133h-366v7l362 458v131h-540v-133h364v-6z" />
    <glyph glyph-name="f_f" unicode="ff" horiz-adv-x="1417" 
d="M457 -2h-289v793h-127v235h127v113q0 165 77 243t242 78q101 0 191 -12l-2 -213q-57 10 -117 10q-51 0 -76.5 -23t-25.5 -77v-119h415v113q0 164 78 242.5t242 78.5q100 0 190 -12l-2 -213q-55 10 -116 10q-52 0 -77.5 -23t-25.5 -77v-119h211v-235h-211v-793h-289v793
h-415v-793z" />
    <glyph glyph-name="f_f_i" unicode="ffi" horiz-adv-x="1904" 
d="M457 -2h-289v793h-127v235h127v113q0 165 77 243t242 78q101 0 191 -12l-2 -213q-57 10 -117 10q-51 0 -76.5 -23t-25.5 -77v-119h379v113q0 165 77 243t242 78q102 0 188 -12l-2 -213q-55 10 -114 10q-53 0 -79 -23t-26 -77v-119h654v-1026h-289v791h-365v-793h-286v793
h-379v-793zM1776 1176h-289v258h289v-258z" />
    <glyph glyph-name="f_f_j" unicode="ffj" horiz-adv-x="1906" 
d="M1286 -438l2 274q104 9 151.5 67t47.5 175v713h-365v-793h-286v793h-379v-793h-289v793h-127v235h127v113q0 165 77 243t242 78q101 0 191 -12l-2 -213q-57 10 -117 10q-51 0 -76.5 -23t-25.5 -77v-119h379v113q0 165 77 243t242 78q102 0 188 -12l-2 -213
q-55 10 -114 10q-53 0 -79 -23t-26 -77v-119h654v-1010q0 -205 -128 -323.5t-362 -130.5zM1776 1176h-289v258h289v-258z" />
    <glyph glyph-name="f_f_l" unicode="ffl" horiz-adv-x="1904" 
d="M457 -2h-289v793h-127v235h127v113q0 165 77 243t242 78q101 0 191 -12l-2 -213q-57 10 -117 10q-51 0 -76.5 -23t-25.5 -77v-119h379v113q0 165 77 243t242 78q102 0 188 -12l-2 -213q-55 10 -114 10q-53 0 -79 -23t-26 -77v-119h365v408h289v-1434h-289v791h-365v-793
h-286v793h-379v-793z" />
    <glyph glyph-name="f_i" unicode="fi" horiz-adv-x="1239" 
d="M457 -2h-289v793h-127v235h127v113q0 165 77 243t242 78q101 0 191 -12l-2 -213q-57 10 -117 10q-51 0 -76.5 -23t-25.5 -77v-119h651v-1026h-289v791h-362v-793zM1108 1176h-289v258h289v-258z" />
    <glyph glyph-name="f_j" unicode="fj" horiz-adv-x="1239" 
d="M621 -438v274q104 9 152 67t48 175v713h-364v-793h-289v793h-127v235h127v113q0 165 77 243t242 78q101 0 191 -12l-2 -213q-57 10 -117 10q-51 0 -76.5 -23t-25.5 -77v-119h651v-1010q0 -205 -127.5 -323.5t-359.5 -130.5zM1108 1176h-287v258h287v-258z" />
    <glyph glyph-name="f_l" unicode="fl" horiz-adv-x="1239" 
d="M457 -2h-289v793h-127v235h127v113q0 165 77 243t242 78q101 0 191 -12l-2 -213q-57 10 -117 10q-51 0 -76.5 -23t-25.5 -77v-119h362v408h289v-1434h-289v791h-362v-793z" />
    <glyph glyph-name="t_t" unicode="tt" horiz-adv-x="1476" 
d="M723 211v-223q-145 -27 -256 -13.5t-170 64.5q-52 42 -75 101t-23 145v495h-158v244h102q29 0 45.5 16t16.5 45v152l289 72v-185q0 -73 -60 -96v-2l402 -2q61 0 61 61v152l289 72v-185q0 -73 -60 -96v-2l285 -2v-244h-225v-432q0 -95 53 -122.5t176 -14.5v-223
q-145 -27 -256 -13.5t-170 64.5q-52 42 -75 101t-23 145v495h-397v-432q0 -95 53 -122.5t176 -14.5z" />
    <glyph glyph-name="zero.squaredline" unicode="[&#x30;]" 
d="M1368 0h-950q-97 0 -163.5 64.5t-66.5 160.5v983q0 96 66.5 161t163.5 65h950q96 0 162.5 -66t66.5 -160v-983q0 -94 -66.5 -159.5t-162.5 -65.5zM459 137h868q58 0 95.5 35.5t37.5 91.5v905q0 56 -37.5 91.5t-95.5 35.5h-868q-58 0 -95.5 -35.5t-37.5 -91.5v-905
q0 -56 37.5 -91.5t95.5 -35.5zM893 383q-121 0 -192.5 88.5t-71.5 239.5v8q0 151 71.5 241.5t192.5 90.5q126 0 195 -94t69 -238v-8q-3 -152 -73.5 -240t-190.5 -88zM893 502q59 0 92 55t33 154v8q0 100 -33 156.5t-92 56.5t-92 -56.5t-33 -156.5v-8q2 -100 34.5 -154.5
t90.5 -54.5z" />
    <glyph glyph-name="one.squaredline" unicode="[&#x31;]" 
d="M1368 0h-950q-97 0 -163.5 64.5t-66.5 160.5v983q0 96 66.5 161t163.5 65h950q96 0 162.5 -66t66.5 -160v-983q0 -94 -66.5 -159.5t-162.5 -65.5zM459 137h868q58 0 95.5 35.5t37.5 91.5v905q0 56 -37.5 91.5t-95.5 35.5h-868q-58 0 -95.5 -35.5t-37.5 -91.5v-905
q0 -56 37.5 -91.5t95.5 -35.5zM983 1038v-643h-139v479q-11 -23 -48.5 -40.5t-82.5 -14.5v125q48 -2 90.5 23t66.5 71h113z" />
    <glyph glyph-name="two.squaredline" unicode="[&#x32;]" 
d="M1368 0h-950q-97 0 -163.5 64.5t-66.5 160.5v983q0 96 66.5 161t163.5 65h950q96 0 162.5 -66t66.5 -160v-983q0 -94 -66.5 -159.5t-162.5 -65.5zM459 137h868q58 0 95.5 35.5t37.5 91.5v905q0 56 -37.5 91.5t-95.5 35.5h-868q-58 0 -95.5 -35.5t-37.5 -91.5v-905
q0 -56 37.5 -91.5t95.5 -35.5zM1126 389h-458v94l204 197q60 60 76 80q37 43 37 86q0 38 -22.5 59t-63.5 21q-48 0 -73 -32t-25 -81h-142q6 103 70 167t170 64q104 0 164.5 -54t60.5 -140q0 -38 -19 -75.5t-65 -88.5q-16 -21 -57 -57l-123 -121h266v-119z" />
    <glyph glyph-name="three.squaredline" unicode="[&#x33;]" 
d="M1368 0h-950q-97 0 -163.5 64.5t-66.5 160.5v983q0 96 66.5 161t163.5 65h950q96 0 162.5 -66t66.5 -160v-983q0 -94 -66.5 -159.5t-162.5 -65.5zM459 137h868q58 0 95.5 35.5t37.5 91.5v905q0 56 -37.5 91.5t-95.5 35.5h-868q-58 0 -95.5 -35.5t-37.5 -91.5v-905
q0 -56 37.5 -91.5t95.5 -35.5zM895 383q-104 0 -176.5 57.5t-75.5 143.5h143q3 -35 33.5 -58.5t73.5 -23.5q51 0 79.5 23t28.5 63q0 39 -29.5 63.5t-78.5 24.5h-70v108h70q38 0 63 21t25 55q0 31 -25 51.5t-63 20.5q-37 0 -61 -21t-27 -55l-139 2q6 82 71 137.5t156 55.5
q95 0 161 -51.5t66 -135.5q0 -44 -23.5 -80t-60.5 -57q47 -18 76 -57.5t29 -94.5q0 -87 -69 -139.5t-177 -52.5z" />
    <glyph glyph-name="four.squaredline" unicode="[&#x34;]" 
d="M418 1434h950q96 0 162.5 -66t66.5 -160v-983q0 -94 -66.5 -159.5t-162.5 -65.5h-950q-97 0 -163.5 64.5t-66.5 160.5v983q0 96 66.5 161t163.5 65zM1460 264v905q0 56 -37.5 91.5t-95.5 35.5h-868q-58 0 -95.5 -35.5t-37.5 -91.5v-905q0 -56 37.5 -91.5t95.5 -35.5h868
q58 0 95.5 35.5t37.5 91.5zM903 846h139v-160l23 -98l-117 -131l29 100l-209 -22l-27 88l88 120l23 -90l72 156l-93 -61zM829 743v2l2 3zM1008 631v-76l20 76h-20z" />
    <glyph glyph-name="five.squaredline" unicode="[&#x35;]" 
d="M1368 0h-950q-97 0 -163.5 64.5t-66.5 160.5v983q0 96 66.5 161t163.5 65h950q96 0 162.5 -66t66.5 -160v-983q0 -94 -66.5 -159.5t-162.5 -65.5zM459 137h868q58 0 95.5 35.5t37.5 91.5v905q0 56 -37.5 91.5t-95.5 35.5h-868q-58 0 -95.5 -35.5t-37.5 -91.5v-905
q0 -56 37.5 -91.5t95.5 -35.5zM891 389q-110 0 -174 61.5t-58 159.5l132 2q0 -47 27.5 -75.5t74.5 -28.5q45 0 70.5 29t25.5 81q0 50 -26 80.5t-70 30.5q-72 3 -94 -57h-131l39 372h391v-118h-269l-18 -138q47 58 121 58q88 0 142 -63.5t54 -164.5t-66.5 -165t-170.5 -64z
" />
    <glyph glyph-name="six.squaredline" unicode="[&#x36;]" 
d="M1368 0h-950q-97 0 -163.5 64.5t-66.5 160.5v983q0 96 66.5 161t163.5 65h950q96 0 162.5 -66t66.5 -160v-983q0 -94 -66.5 -159.5t-162.5 -65.5zM459 137h868q58 0 95.5 35.5t37.5 91.5v905q0 56 -37.5 91.5t-95.5 35.5h-868q-58 0 -95.5 -35.5t-37.5 -91.5v-905
q0 -56 37.5 -91.5t95.5 -35.5zM901 383q-119 0 -188.5 84.5t-69.5 234.5q0 155 74 252t194 97q92 0 152.5 -53.5t71.5 -139.5h-134q-20 74 -96 74q-55 0 -87.5 -49.5t-35.5 -130.5q20 35 58.5 55t81.5 20q95 0 157 -62.5t62 -156.5q0 -99 -66 -162t-174 -63zM831 567
q20 -30 50 -35.5t59 15.5q28 22 32 51.5t-16 58.5q-19 28 -46.5 33.5t-55.5 -14.5q-29 -20 -35.5 -50.5t12.5 -58.5z" />
    <glyph glyph-name="seven.squaredline" unicode="[&#x37;]" 
d="M1368 0h-950q-97 0 -163.5 64.5t-66.5 160.5v983q0 96 66.5 161t163.5 65h950q96 0 162.5 -66t66.5 -160v-983q0 -94 -66.5 -159.5t-162.5 -65.5zM459 137h868q58 0 95.5 35.5t37.5 91.5v905q0 56 -37.5 91.5t-95.5 35.5h-868q-58 0 -95.5 -35.5t-37.5 -91.5v-905
q0 -56 37.5 -91.5t95.5 -35.5zM926 395h-138q-1 150 51 287t140 238h-301v118h457v-125q-108 -118 -158.5 -243.5t-50.5 -274.5z" />
    <glyph glyph-name="eight.squaredline" unicode="[&#x38;]" 
d="M1368 0h-950q-97 0 -163.5 64.5t-66.5 160.5v983q0 96 66.5 161t163.5 65h950q96 0 162.5 -66t66.5 -160v-983q0 -94 -66.5 -159.5t-162.5 -65.5zM459 137h868q58 0 95.5 35.5t37.5 91.5v905q0 56 -37.5 91.5t-95.5 35.5h-868q-58 0 -95.5 -35.5t-37.5 -91.5v-905
q0 -56 37.5 -91.5t95.5 -35.5zM893 383q-108 0 -179 52t-71 140q0 100 88 150q-61 55 -61 137q0 85 63 137t160 52q96 0 160.5 -52t64.5 -137q0 -80 -63 -137q86 -54 86 -150q0 -88 -70.5 -140t-177.5 -52zM893 786q38 0 62 21t24 53t-24 52t-62 20t-62 -20t-24 -52
q0 -34 24 -54t62 -20zM893 500q49 0 78.5 24.5t29.5 63.5t-29.5 62.5t-78.5 23.5t-80 -24t-31 -62t31 -63t80 -25z" />
    <glyph glyph-name="nine.squaredline" unicode="[&#x39;]" 
d="M1368 0h-950q-97 0 -163.5 64.5t-66.5 160.5v983q0 96 66.5 161t163.5 65h950q96 0 162.5 -66t66.5 -160v-983q0 -94 -66.5 -159.5t-162.5 -65.5zM459 137h868q58 0 95.5 35.5t37.5 91.5v905q0 56 -37.5 91.5t-95.5 35.5h-868q-58 0 -95.5 -35.5t-37.5 -91.5v-905
q0 -56 37.5 -91.5t95.5 -35.5zM874 383q-92 0 -152 53t-71 139h131q19 -73 99 -73q54 0 87 50t36 130q-22 -35 -60 -55.5t-82 -20.5q-94 0 -156.5 62.5t-62.5 156.5q0 99 67 162.5t175 63.5q119 0 187.5 -85t68.5 -235q0 -156 -73.5 -252t-193.5 -96zM889 713
q47 0 76.5 30.5t29.5 77.5q0 51 -29 81t-77 30q-47 0 -76 -30.5t-29 -80.5q0 -49 29 -78.5t76 -29.5z" />
    <glyph glyph-name="ten.squaredline" unicode="[&#x31;&#x30;]" 
d="M1368 0h-950q-97 0 -163.5 64.5t-66.5 160.5v983q0 96 66.5 161t163.5 65h950q96 0 162.5 -66t66.5 -160v-983q0 -94 -66.5 -159.5t-162.5 -65.5zM459 137h868q58 0 95.5 35.5t37.5 91.5v905q0 56 -37.5 91.5t-95.5 35.5h-868q-58 0 -95.5 -35.5t-37.5 -91.5v-905
q0 -56 37.5 -91.5t95.5 -35.5zM1057 416q-110 0 -175 81t-65 218v8q0 137 65 220t175 83q115 0 177 -85t62 -218v-8q0 -137 -64.5 -218t-174.5 -81zM723 1014v-586h-127v436q-12 -21 -45.5 -37.5t-73.5 -15.5v117q42 -2 81 21t60 65h105zM1057 526q53 0 82.5 50t29.5 139v8
q0 91 -29.5 141.5t-82.5 50.5q-54 0 -83.5 -50.5t-29.5 -141.5v-8q0 -89 30 -139t83 -50z" />
    <glyph glyph-name="eleven.squaredline" unicode="[&#x31;&#x31;]" 
d="M1368 0h-950q-97 0 -163.5 64.5t-66.5 160.5v983q0 96 66.5 161t163.5 65h950q96 0 162.5 -66t66.5 -160v-983q0 -94 -66.5 -159.5t-162.5 -65.5zM459 137h868q58 0 95.5 35.5t37.5 91.5v905q0 56 -37.5 91.5t-95.5 35.5h-868q-58 0 -95.5 -35.5t-37.5 -91.5v-905
q0 -56 37.5 -91.5t95.5 -35.5zM772 1016v-586h-127v436q-12 -21 -45.5 -37.5t-73.5 -15.5v117q43 -2 83 21t61 65h102zM1178 1016v-586h-127v436q-12 -21 -45.5 -37.5t-73.5 -15.5v117q43 -2 82 21t59 65h105z" />
    <glyph glyph-name="twelve.squaredline" unicode="[&#x31;&#x32;]" 
d="M1368 0h-950q-97 0 -163.5 64.5t-66.5 160.5v983q0 96 66.5 161t163.5 65h950q96 0 162.5 -66t66.5 -160v-983q0 -94 -66.5 -159.5t-162.5 -65.5zM459 137h868q58 0 95.5 35.5t37.5 91.5v905q0 56 -37.5 91.5t-95.5 35.5h-868q-58 0 -95.5 -35.5t-37.5 -91.5v-905
q0 -56 37.5 -91.5t95.5 -35.5zM1255 436h-417v86l184 178q32 30 70 72q34 43 34 80q0 34 -20.5 53t-58.5 19q-43 0 -66 -29t-23 -74h-129q5 95 63 154t155 59q96 0 151 -49.5t55 -128.5q0 -53 -51 -121q-16 -20 -82 -86l-106 -104h241v-109zM725 434h-127v436
q-14 -21 -46.5 -37.5t-72.5 -15.5v117q42 -2 81.5 21t60.5 65h104v-586z" />
    <glyph glyph-name="thirteen.squaredline" unicode="[&#x31;&#x33;]" 
d="M1368 0h-950q-97 0 -163.5 64.5t-66.5 160.5v983q0 96 66.5 161t163.5 65h950q96 0 162.5 -66t66.5 -160v-983q0 -94 -66.5 -159.5t-162.5 -65.5zM459 137h868q58 0 95.5 35.5t37.5 91.5v905q0 56 -37.5 91.5t-95.5 35.5h-868q-58 0 -95.5 -35.5t-37.5 -91.5v-905
q0 -56 37.5 -91.5t95.5 -35.5zM1053 420q-95 0 -161 53t-69 131h131q5 -34 31.5 -54t67.5 -20q45 0 71.5 20.5t26.5 55.5q0 37 -27 58.5t-71 21.5h-66v102h66q34 0 55.5 18.5t21.5 47.5t-21.5 47.5t-55.5 18.5q-35 0 -57 -19t-25 -49l-127 2q6 74 66 125t143 51
q85 0 144.5 -48t59.5 -124q0 -39 -21 -72.5t-54 -52.5q43 -14 69.5 -50t26.5 -87q0 -80 -63 -128t-162 -48zM725 434h-127v436q-14 -21 -46.5 -37.5t-72.5 -15.5v117q42 -2 81.5 21t60.5 65h104v-586z" />
    <glyph glyph-name="fourteen.squaredline" unicode="[&#x31;&#x34;]" 
d="M1368 0h-950q-97 0 -163.5 64.5t-66.5 160.5v983q0 96 66.5 161t163.5 65h950q96 0 162.5 -66t66.5 -160v-983q0 -94 -66.5 -159.5t-162.5 -65.5zM459 137h868q58 0 95.5 35.5t37.5 91.5v905q0 56 -37.5 91.5t-95.5 35.5h-868q-58 0 -95.5 -35.5t-37.5 -91.5v-905
q0 -56 37.5 -91.5t95.5 -35.5zM461 817v117q44 -2 83 21t60 65h105v-586h-127v436q-13 -21 -47 -37.5t-74 -15.5zM1212 434h-127v127h-280v101l239 358h168v-350h82v-109h-82v-127zM1081 895l-147 -225h147v225z" />
    <glyph glyph-name="fifteen.squaredline" unicode="[&#x31;&#x35;]" 
d="M1368 0h-950q-97 0 -163.5 64.5t-66.5 160.5v983q0 96 66.5 161t163.5 65h950q96 0 162.5 -66t66.5 -160v-983q0 -94 -66.5 -159.5t-162.5 -65.5zM459 137h868q58 0 95.5 35.5t37.5 91.5v905q0 56 -37.5 91.5t-95.5 35.5h-868q-58 0 -95.5 -35.5t-37.5 -91.5v-905
q0 -56 37.5 -91.5t95.5 -35.5zM479 817v117q44 -2 83.5 21t60.5 65h104v-586h-127v436q-13 -21 -47 -37.5t-74 -15.5zM1055 420q-100 0 -159 57t-52 146l121 2q-1 -43 24 -69t68 -26q40 0 63 27.5t23 73.5q0 45 -23 71.5t-63 26.5q-66 3 -88 -51h-117l33 340h356v-109h-242
l-18 -121q46 50 109 50q82 0 131 -57.5t49 -149.5q0 -94 -60 -152.5t-155 -58.5z" />
    <glyph glyph-name="sixteen.squaredline" unicode="[&#x31;&#x36;]" 
d="M1368 0h-950q-97 0 -163.5 64.5t-66.5 160.5v983q0 96 66.5 161t163.5 65h950q96 0 162.5 -66t66.5 -160v-983q0 -94 -66.5 -159.5t-162.5 -65.5zM459 137h868q58 0 95.5 35.5t37.5 91.5v905q0 56 -37.5 91.5t-95.5 35.5h-868q-58 0 -95.5 -35.5t-37.5 -91.5v-905
q0 -56 37.5 -91.5t95.5 -35.5zM1044 418q-108 0 -170.5 78.5t-62.5 214.5q0 142 67 229.5t177 87.5q83 0 137 -49t63 -127h-118q-17 66 -88 66q-50 0 -80 -45t-33 -119q41 69 129 69q86 0 142.5 -56t56.5 -142q0 -90 -61.5 -148.5t-158.5 -58.5zM473 817v117q44 -2 83 21
t60 65h105v-586h-127v436q-13 -21 -47 -37.5t-74 -15.5zM944 629q0 -45 27 -73t69 -28t68.5 28t26.5 73q0 43 -26 69.5t-69 26.5q-42 0 -69 -27t-27 -69z" />
    <glyph glyph-name="seventeen.squaredline" unicode="[&#x31;&#x37;]" 
d="M1368 0h-950q-97 0 -163.5 64.5t-66.5 160.5v983q0 96 66.5 161t163.5 65h950q96 0 162.5 -66t66.5 -160v-983q0 -94 -66.5 -159.5t-162.5 -65.5zM459 137h868q58 0 95.5 35.5t37.5 91.5v905q0 56 -37.5 91.5t-95.5 35.5h-868q-58 0 -95.5 -35.5t-37.5 -91.5v-905
q0 -56 37.5 -91.5t95.5 -35.5zM760 434h-127v436q-14 -21 -46.5 -37.5t-72.5 -15.5v117q42 -2 81 21t60 65h105v-586zM1073 434h-127q0 137 46.5 260.5t125.5 216.5h-270v109h414v-115q-189 -203 -189 -471z" />
    <glyph glyph-name="eighteen.squaredline" unicode="[&#x31;&#x38;]" 
d="M1368 0h-950q-97 0 -163.5 64.5t-66.5 160.5v983q0 96 66.5 161t163.5 65h950q96 0 162.5 -66t66.5 -160v-983q0 -94 -66.5 -159.5t-162.5 -65.5zM459 137h868q58 0 95.5 35.5t37.5 91.5v905q0 56 -37.5 91.5t-95.5 35.5h-868q-58 0 -95.5 -35.5t-37.5 -91.5v-905
q0 -56 37.5 -91.5t95.5 -35.5zM1049 422q-98 0 -163 48t-65 128q0 44 24 80t64 57q-65 45 -65 125q0 77 58.5 124.5t146.5 47.5t146 -47.5t58 -124.5q0 -79 -63 -125q86 -51 86 -137q0 -81 -64.5 -128.5t-162.5 -47.5zM741 434h-127v436q-14 -21 -46.5 -37.5t-71.5 -15.5
v117q42 -2 81 21t60 65h104v-586zM1049 791q35 0 56 18t21 47t-21 47.5t-56 18.5q-34 0 -56 -18.5t-22 -47.5t22 -47t56 -18zM1049 532q45 0 72.5 21t27.5 57q0 35 -28 56.5t-72 21.5q-45 0 -73 -21.5t-28 -56.5q0 -36 28 -57t73 -21z" />
    <glyph glyph-name="nineteen.squaredline" unicode="[&#x31;&#x39;]" 
d="M1368 0h-950q-97 0 -163.5 64.5t-66.5 160.5v983q0 96 66.5 161t163.5 65h950q96 0 162.5 -66t66.5 -160v-983q0 -94 -66.5 -159.5t-162.5 -65.5zM459 137h868q58 0 95.5 35.5t37.5 91.5v905q0 56 -37.5 91.5t-95.5 35.5h-868q-58 0 -95.5 -35.5t-37.5 -91.5v-905
q0 -56 37.5 -91.5t95.5 -35.5zM1036 422q-83 0 -138 49t-64 127h120q17 -66 88 -66q49 0 79 45.5t32 118.5q-14 -30 -47.5 -49.5t-79.5 -19.5q-86 0 -142.5 56t-56.5 142q0 90 60 148.5t157 58.5q109 0 172.5 -78.5t63.5 -214.5q0 -142 -67 -229.5t-177 -87.5zM729 434h-127
v436q-14 -21 -46.5 -37.5t-72.5 -15.5v117q42 -2 81.5 21t60.5 65h104v-586zM1049 725q44 0 72 26.5t28 69.5q0 45 -27.5 73t-72.5 28q-41 0 -67 -28.5t-26 -72.5q0 -43 26 -69.5t67 -26.5z" />
    <glyph glyph-name="twenty.squaredline" unicode="[&#x32;&#x30;]" 
d="M1368 0h-950q-97 0 -163.5 64.5t-66.5 160.5v983q0 96 66.5 161t163.5 65h950q96 0 162.5 -66t66.5 -160v-983q0 -94 -66.5 -159.5t-162.5 -65.5zM459 137h868q58 0 95.5 35.5t37.5 91.5v905q0 56 -37.5 91.5t-95.5 35.5h-868q-58 0 -95.5 -35.5t-37.5 -91.5v-905
q0 -56 37.5 -91.5t95.5 -35.5zM1124 424q-110 0 -175.5 81t-65.5 218v8q0 137 65.5 220t175.5 83q114 0 176 -85.5t62 -217.5v-8q0 -137 -64.5 -218t-173.5 -81zM852 434h-418v86l187 178q26 24 69 72q35 44 35 80q0 34 -21.5 53t-58.5 19q-42 0 -65 -29t-23 -74h-131
q5 95 63 154t156 59q95 0 151 -50t56 -128q0 -63 -68 -137q-17 -22 -55 -60l-117 -114h240v-109zM1010 731v-8q0 -89 30 -138.5t84 -49.5q53 0 83 49.5t30 138.5v8q0 90 -30 141.5t-83 51.5q-54 0 -84 -51t-30 -142z" />
    <glyph glyph-name="zero.squaredfill" unicode="&#x2f;&#x30;\" 
d="M1368 0h-950q-97 0 -163.5 64.5t-66.5 160.5v983q0 96 66.5 161t163.5 65h950q96 0 162.5 -66t66.5 -160v-983q0 -94 -66.5 -159.5t-162.5 -65.5zM893 383q120 0 190.5 88t73.5 240v8q0 144 -69 238t-195 94q-121 0 -192.5 -90.5t-71.5 -241.5v-8q0 -151 71.5 -239.5
t192.5 -88.5zM893 502q-58 0 -90.5 54.5t-34.5 154.5v8q0 100 33 156.5t92 56.5t92 -56.5t33 -156.5v-8q0 -99 -33 -154t-92 -55z" />
    <glyph glyph-name="one.squaredfill" unicode="&#x2f;&#x31;\" 
d="M1368 0h-950q-97 0 -163.5 64.5t-66.5 160.5v983q0 96 66.5 161t163.5 65h950q96 0 162.5 -66t66.5 -160v-983q0 -94 -66.5 -159.5t-162.5 -65.5zM844 874v-479h139v643h-113q-24 -46 -66.5 -71t-90.5 -23v-125q45 -3 82.5 14.5t48.5 40.5z" />
    <glyph glyph-name="two.squaredfill" unicode="&#x2f;&#x32;\" 
d="M1368 0h-950q-97 0 -163.5 64.5t-66.5 160.5v983q0 96 66.5 161t163.5 65h950q96 0 162.5 -66t66.5 -160v-983q0 -94 -66.5 -159.5t-162.5 -65.5zM668 483v-94h458v119h-266l123 121q41 36 57 57q46 51 65 88.5t19 75.5q0 86 -60.5 140t-164.5 54q-106 0 -170 -64
t-70 -167h142q0 49 25 81t73 32q41 0 63.5 -21t22.5 -59q0 -43 -37 -86q-16 -20 -76 -80z" />
    <glyph glyph-name="three.squaredfill" unicode="&#x2f;&#x33;\" 
d="M1368 0h-950q-97 0 -163.5 64.5t-66.5 160.5v983q0 96 66.5 161t163.5 65h950q96 0 162.5 -66t66.5 -160v-983q0 -94 -66.5 -159.5t-162.5 -65.5zM895 383q108 0 177 52.5t69 139.5q0 55 -29 94.5t-76 57.5q37 21 60.5 57t23.5 80q0 84 -66 135.5t-161 51.5
q-91 0 -156 -55.5t-71 -137.5l139 -2q3 34 27 55t61 21q38 0 63 -20.5t25 -51.5q0 -34 -25 -55t-63 -21h-70v-108h70q49 0 78.5 -24.5t29.5 -63.5q0 -40 -28.5 -63t-79.5 -23q-43 0 -73.5 23.5t-33.5 58.5h-143q3 -86 75.5 -143.5t176.5 -57.5z" />
    <glyph glyph-name="four.squaredfill" unicode="&#x2f;&#x34;\" 
d="M1368 0h-950q-97 0 -163.5 64.5t-66.5 160.5v983q0 96 66.5 161t163.5 65h950q96 0 162.5 -66t66.5 -160v-983q0 -94 -66.5 -159.5t-162.5 -65.5zM926 535v-140h139v140h92v118h-92v385h-182l-265 -395v-108h308zM924 653h-166l166 248v-248z" />
    <glyph glyph-name="five.squaredfill" unicode="&#x2f;&#x35;\" 
d="M1368 0h-950q-97 0 -163.5 64.5t-66.5 160.5v983q0 96 66.5 161t163.5 65h950q96 0 162.5 -66t66.5 -160v-983q0 -94 -66.5 -159.5t-162.5 -65.5zM891 389q104 0 170.5 64t66.5 165t-54 164.5t-142 63.5q-74 0 -121 -58l18 138h269v118h-391l-39 -372h131q22 60 94 57
q44 0 70 -30.5t26 -80.5q0 -52 -25.5 -81t-70.5 -29q-47 0 -74.5 28.5t-27.5 75.5l-132 -2q-6 -98 58 -159.5t174 -61.5z" />
    <glyph glyph-name="six.squaredfill" unicode="&#x2f;&#x36;\" 
d="M1368 0h-950q-97 0 -163.5 64.5t-66.5 160.5v983q0 96 66.5 161t163.5 65h950q96 0 162.5 -66t66.5 -160v-983q0 -94 -66.5 -159.5t-162.5 -65.5zM901 383q108 0 174 63t66 162q0 94 -62 156.5t-157 62.5q-43 0 -81.5 -20t-58.5 -55q3 81 35.5 130.5t87.5 49.5
q76 0 96 -74h134q-11 86 -71.5 139.5t-152.5 53.5q-120 0 -194 -97t-74 -252q0 -150 69.5 -234.5t188.5 -84.5zM897 502q-48 0 -77 29.5t-29 80.5q0 48 29.5 78.5t76.5 30.5q46 0 74 -30t28 -79q0 -50 -27.5 -80t-74.5 -30z" />
    <glyph glyph-name="seven.squaredfill" unicode="&#x2f;&#x37;\" 
d="M1368 0h-950q-97 0 -163.5 64.5t-66.5 160.5v983q0 96 66.5 161t163.5 65h950q96 0 162.5 -66t66.5 -160v-983q0 -94 -66.5 -159.5t-162.5 -65.5zM788 395h138q0 149 50.5 274.5t158.5 243.5v125h-457v-118h301q-88 -101 -140 -238t-51 -287z" />
    <glyph glyph-name="eight.squaredfill" unicode="&#x2f;&#x38;\" 
d="M1368 0h-950q-97 0 -163.5 64.5t-66.5 160.5v983q0 96 66.5 161t163.5 65h950q96 0 162.5 -66t66.5 -160v-983q0 -94 -66.5 -159.5t-162.5 -65.5zM893 383q107 0 177.5 52t70.5 140q0 96 -86 150q63 57 63 137q0 85 -64.5 137t-160.5 52q-97 0 -160 -52t-63 -137
q0 -82 61 -137q-88 -50 -88 -150q0 -88 71 -140t179 -52zM893 786q-38 0 -62 20t-24 54q0 32 24 52t62 20t62 -20t24 -52t-24 -53t-62 -21zM893 500q-49 0 -80 25t-31 63t31 62t80 24t78.5 -23.5t29.5 -62.5t-29.5 -63.5t-78.5 -24.5z" />
    <glyph glyph-name="nine.squaredfill" unicode="&#x2f;&#x39;\" 
d="M1368 0h-950q-97 0 -163.5 64.5t-66.5 160.5v983q0 96 66.5 161t163.5 65h950q96 0 162.5 -66t66.5 -160v-983q0 -94 -66.5 -159.5t-162.5 -65.5zM874 383q120 0 193.5 96t73.5 252q0 150 -68.5 235t-187.5 85q-108 0 -175 -63.5t-67 -162.5q0 -94 62.5 -156.5
t156.5 -62.5q44 0 82 20.5t60 55.5q-3 -80 -36 -130t-87 -50q-80 0 -99 73h-131q11 -86 71 -139t152 -53zM889 713q-47 0 -76 29.5t-29 78.5q0 50 29 80.5t76 30.5q48 0 77 -30t29 -81q0 -47 -29.5 -77.5t-76.5 -30.5z" />
    <glyph glyph-name="ten.squaredfill" unicode="&#x2f;&#x31;&#x30;\" 
d="M1368 0h-950q-97 0 -163.5 64.5t-66.5 160.5v983q0 96 66.5 161t163.5 65h950q96 0 162.5 -66t66.5 -160v-983q0 -94 -66.5 -159.5t-162.5 -65.5zM1057 416q110 0 174.5 81t64.5 218v8q0 133 -62 218t-177 85q-110 0 -175 -83t-65 -220v-8q0 -137 65 -218t175 -81z
M596 864v-436h127v586h-105q-21 -42 -60 -65t-81 -21v-117q40 -1 73.5 15.5t45.5 37.5zM1057 526q-53 0 -83 50t-30 139v8q0 91 29.5 141.5t83.5 50.5q53 0 82.5 -50.5t29.5 -141.5v-8q0 -89 -29.5 -139t-82.5 -50z" />
    <glyph glyph-name="eleven.squaredfill" unicode="&#x2f;&#x31;&#x31;\" 
d="M1368 0h-950q-97 0 -163.5 64.5t-66.5 160.5v983q0 96 66.5 161t163.5 65h950q96 0 162.5 -66t66.5 -160v-983q0 -94 -66.5 -159.5t-162.5 -65.5zM645 866v-436h127v586h-102q-21 -42 -61 -65t-83 -21v-117q40 -1 73.5 15.5t45.5 37.5zM1051 866v-436h127v586h-105
q-20 -42 -59 -65t-82 -21v-117q40 -1 73.5 15.5t45.5 37.5z" />
    <glyph glyph-name="twelve.squaredfill" unicode="&#x2f;&#x31;&#x32;\" 
d="M1368 0h-950q-97 0 -163.5 64.5t-66.5 160.5v983q0 96 66.5 161t163.5 65h950q96 0 162.5 -66t66.5 -160v-983q0 -94 -66.5 -159.5t-162.5 -65.5zM838 522v-86h417v109h-241l106 104q66 66 82 86q51 68 51 121q0 79 -55 128.5t-151 49.5q-97 0 -155 -59t-63 -154h129
q0 45 23 74t66 29q38 0 58.5 -19t20.5 -53q0 -37 -34 -80q-38 -42 -70 -72zM598 870v-436h127v586h-104q-21 -42 -60.5 -65t-81.5 -21v-117q40 -1 72.5 15.5t46.5 37.5z" />
    <glyph glyph-name="thirteen.squaredfill" unicode="&#x2f;&#x31;&#x33;\" 
d="M1368 0h-950q-97 0 -163.5 64.5t-66.5 160.5v983q0 96 66.5 161t163.5 65h950q96 0 162.5 -66t66.5 -160v-983q0 -94 -66.5 -159.5t-162.5 -65.5zM1053 420q99 0 162 48t63 128q0 51 -26.5 87t-69.5 50q33 19 54 52.5t21 72.5q0 76 -59.5 124t-144.5 48q-83 0 -143 -51
t-66 -125l127 -2q3 30 25 49t57 19q34 0 55.5 -18.5t21.5 -47.5t-21.5 -47.5t-55.5 -18.5h-66v-102h66q44 0 71 -21.5t27 -58.5q0 -35 -26.5 -55.5t-71.5 -20.5q-41 0 -67.5 20t-31.5 54h-131q3 -78 69 -131t161 -53zM598 870v-436h127v586h-104q-21 -42 -60.5 -65
t-81.5 -21v-117q40 -1 72.5 15.5t46.5 37.5z" />
    <glyph glyph-name="fourteen.squaredfill" unicode="&#x2f;&#x31;&#x34;\" 
d="M1368 0h-950q-97 0 -163.5 64.5t-66.5 160.5v983q0 96 66.5 161t163.5 65h950q96 0 162.5 -66t66.5 -160v-983q0 -94 -66.5 -159.5t-162.5 -65.5zM582 870v-436h127v586h-105q-21 -42 -60 -65t-83 -21v-117q40 -1 74 15.5t47 37.5zM1085 561v-127h127v127h82v109h-82v350
h-168l-239 -358v-101h280zM1081 670h-147l147 225v-225z" />
    <glyph glyph-name="fifteen.squaredfill" unicode="&#x2f;&#x31;&#x35;\" 
d="M1368 0h-950q-97 0 -163.5 64.5t-66.5 160.5v983q0 96 66.5 161t163.5 65h950q96 0 162.5 -66t66.5 -160v-983q0 -94 -66.5 -159.5t-162.5 -65.5zM600 870v-436h127v586h-104q-21 -42 -60.5 -65t-83.5 -21v-117q40 -1 74 15.5t47 37.5zM1055 420q95 0 155 58.5t60 152.5
q0 92 -49 149.5t-131 57.5q-63 0 -109 -50l18 121h242v109h-356l-33 -340h117q22 54 88 51q40 0 63 -26.5t23 -71.5q0 -46 -23 -73.5t-63 -27.5q-43 0 -68 26t-24 69l-121 -2q-7 -89 52 -146t159 -57z" />
    <glyph glyph-name="sixteen.squaredfill" unicode="&#x2f;&#x31;&#x36;\" 
d="M1368 0h-950q-97 0 -163.5 64.5t-66.5 160.5v983q0 96 66.5 161t163.5 65h950q96 0 162.5 -66t66.5 -160v-983q0 -94 -66.5 -159.5t-162.5 -65.5zM1044 418q97 0 158.5 58.5t61.5 148.5q0 86 -56.5 142t-142.5 56q-88 0 -129 -69q3 74 33 119t80 45q71 0 88 -66h118
q-9 78 -63 127t-137 49q-110 0 -177 -87.5t-67 -229.5q0 -136 62.5 -214.5t170.5 -78.5zM594 870v-436h127v586h-105q-21 -42 -60 -65t-83 -21v-117q40 -1 74 15.5t47 37.5zM1040 528q-42 0 -69 28t-27 73q0 42 27 69t69 27q43 0 69 -26.5t26 -69.5q0 -45 -26.5 -73
t-68.5 -28z" />
    <glyph glyph-name="seventeen.squaredfill" unicode="&#x2f;&#x31;&#x37;\" 
d="M1368 0h-950q-97 0 -163.5 64.5t-66.5 160.5v983q0 96 66.5 161t163.5 65h950q96 0 162.5 -66t66.5 -160v-983q0 -94 -66.5 -159.5t-162.5 -65.5zM633 870v-436h127v586h-105q-21 -42 -60 -65t-81 -21v-117q40 -1 72.5 15.5t46.5 37.5zM946 434h127q0 268 189 471v115
h-414v-109h270q-79 -93 -125.5 -216.5t-46.5 -260.5z" />
    <glyph glyph-name="eighteen.squaredfill" unicode="&#x2f;&#x31;&#x38;\" 
d="M1368 0h-950q-97 0 -163.5 64.5t-66.5 160.5v983q0 96 66.5 161t163.5 65h950q96 0 162.5 -66t66.5 -160v-983q0 -94 -66.5 -159.5t-162.5 -65.5zM1049 422q98 0 162.5 47.5t64.5 128.5q0 86 -86 137q63 46 63 125q0 77 -58 124.5t-146 47.5t-146.5 -47.5t-58.5 -124.5
q0 -80 65 -125q-40 -21 -64 -57t-24 -80q0 -80 65 -128t163 -48zM614 870v-436h127v586h-104q-21 -42 -60 -65t-81 -21v-117q39 -1 71.5 15.5t46.5 37.5zM1049 791q-34 0 -56 18t-22 47t22 47.5t56 18.5q35 0 56 -18.5t21 -47.5t-21 -47t-56 -18zM1049 532q-45 0 -73 21
t-28 57q0 35 28 56.5t73 21.5q44 0 72 -21.5t28 -56.5q0 -36 -27.5 -57t-72.5 -21z" />
    <glyph glyph-name="nineteen.squaredfill" unicode="&#x2f;&#x31;&#x39;\" 
d="M1368 0h-950q-97 0 -163.5 64.5t-66.5 160.5v983q0 96 66.5 161t163.5 65h950q96 0 162.5 -66t66.5 -160v-983q0 -94 -66.5 -159.5t-162.5 -65.5zM1036 422q110 0 177 87.5t67 229.5q0 136 -63.5 214.5t-172.5 78.5q-97 0 -157 -58.5t-60 -148.5q0 -86 56.5 -142
t142.5 -56q46 0 79.5 19.5t47.5 49.5q-2 -73 -32 -118.5t-79 -45.5q-71 0 -88 66h-120q9 -78 64 -127t138 -49zM602 870v-436h127v586h-104q-21 -42 -60.5 -65t-81.5 -21v-117q40 -1 72.5 15.5t46.5 37.5zM1049 725q-41 0 -67 26.5t-26 69.5q0 44 26 72.5t67 28.5
q45 0 72.5 -28t27.5 -73q0 -43 -28 -69.5t-72 -26.5z" />
    <glyph glyph-name="twenty.squaredfill" unicode="&#x2f;&#x32;&#x30;\" 
d="M1368 0h-950q-97 0 -163.5 64.5t-66.5 160.5v983q0 96 66.5 161t163.5 65h950q96 0 162.5 -66t66.5 -160v-983q0 -94 -66.5 -159.5t-162.5 -65.5zM1124 424q109 0 173.5 81t64.5 218v8q0 132 -62 217.5t-176 85.5q-110 0 -175.5 -83t-65.5 -220v-8q0 -137 65.5 -218
t175.5 -81zM434 520v-86h418v109h-240l117 114q38 38 55 60q68 74 68 137q0 78 -56 128t-151 50q-98 0 -156 -59t-63 -154h131q0 45 23 74t65 29q37 0 58.5 -19t21.5 -53q0 -36 -35 -80q-43 -48 -69 -72zM1124 535q-54 0 -84 49.5t-30 138.5v8q0 91 30 142t84 51
q53 0 83 -51.5t30 -141.5v-8q0 -89 -30 -138.5t-83 -49.5z" />
    <glyph glyph-name=".notdef" horiz-adv-x="1452" 
d="M1321 82h-1188v1290h1188v-1290zM414 479l67 -67l248 247l248 -247l67 67l-247 248l245 248l-67 67l-248 -247l-248 247l-65 -67l248 -248z" />
    <glyph glyph-name=".null" horiz-adv-x="0" 
 />
    <glyph glyph-name="nonmarkingreturn" horiz-adv-x="682" 
 />
    <glyph glyph-name="space" unicode=" " horiz-adv-x="444" 
 />
    <glyph glyph-name="exclam" unicode="!" horiz-adv-x="555" 
d="M379 395h-201l-28 1039h256zM403 0h-247v289h247v-289z" />
    <glyph glyph-name="quotedbl" unicode="&#x22;" horiz-adv-x="962" 
d="M336 838h-205l47 596h260zM731 838h-205l47 596h261z" />
    <glyph glyph-name="numbersign" unicode="#" horiz-adv-x="1302" 
d="M344 0h-207l96 395h-159v193h207l61 262h-192v192h237l94 392h209l-94 -392h264l94 392h207l-96 -392h164v-192h-207l-64 -262h195v-193h-240l-94 -395h-211l97 395h-265zM549 850l-64 -262h267l61 262h-264z" />
    <glyph glyph-name="dollar" unicode="$" horiz-adv-x="1357" 
d="M797 -203h-185v178q-228 22 -352 142t-133 323h289q14 -239 284 -239q126 0 200.5 51.5t74.5 144.5q0 70 -60.5 116.5t-201.5 86.5l-103 29q-240 68 -349 164.5t-109 244.5q0 175 123 287.5t337 132.5v180h185v-180q210 -23 320.5 -135.5t119.5 -304.5h-289
q-6 103 -72.5 159t-179.5 56q-117 0 -186.5 -45t-69.5 -123q0 -72 53 -120t193 -91l102 -29q251 -76 363.5 -168t112.5 -241q0 -187 -123.5 -303t-343.5 -138v-178z" />
    <glyph glyph-name="percent" unicode="%" horiz-adv-x="1591" 
d="M453 821q-139 0 -222.5 86t-83.5 232q0 80 25.5 143t68.5 101.5t97 58.5t115 20q127 0 216 -88t89 -235q0 -145 -84 -231.5t-221 -86.5zM397 10h-164l955 1432h164zM453 973q55 0 88.5 46.5t33.5 121.5q0 73 -32 119.5t-90 46.5q-56 0 -89.5 -45t-33.5 -121
q0 -80 33 -124t90 -44zM1137 -29q-139 0 -222.5 86.5t-83.5 233.5q0 155 89 238t217 83q127 0 216 -87t89 -234t-83.5 -233.5t-221.5 -86.5zM1137 125q57 0 90 45.5t33 120.5q0 74 -32 120t-91 46q-56 0 -89.5 -44.5t-33.5 -121.5q0 -80 33 -123t90 -43z" />
    <glyph glyph-name="ampersand" unicode="&#x26;" horiz-adv-x="1433" 
d="M584 -31q-194 0 -323.5 111.5t-129.5 286.5q0 137 69.5 230t229.5 183q-168 177 -168 340q0 150 110.5 246t280.5 96q161 0 266 -93t105 -241q0 -207 -289 -368l262 -285q60 76 66 258l221 -4q-6 -152 -38 -259t-99 -187l252 -283h-299l-111 119q-76 -70 -185.5 -110
t-219.5 -40zM610 897q189 103 189 223q0 66 -42.5 105t-111.5 39q-68 0 -113 -44.5t-45 -105.5q0 -91 123 -217zM625 178q135 0 239 98l-317 349q-166 -101 -166 -230q0 -98 68.5 -157.5t175.5 -59.5z" />
    <glyph glyph-name="quotesingle" unicode="'" horiz-adv-x="569" 
d="M336 838h-205l47 596h260z" />
    <glyph glyph-name="parenleft" unicode="(" horiz-adv-x="636" 
d="M561 -258h-217q-138 256 -191 443t-53 427q0 234 55.5 417t188.5 433h217q-231 -425 -231 -850q0 -448 231 -870z" />
    <glyph glyph-name="parenright" unicode=")" horiz-adv-x="636" 
d="M291 -258h-217q231 425 231 870q0 425 -231 850h217q133 -250 188.5 -433.5t55.5 -416.5q0 -240 -53 -427t-191 -443z" />
    <glyph glyph-name="asterisk" unicode="*" horiz-adv-x="1062" 
d="M530 969l-163 -228l-134 97l164 227l-266 88l53 154l265 -86v278h163v-276l267 84l53 -154l-270 -90l165 -225l-133 -97z" />
    <glyph glyph-name="plus" unicode="+" horiz-adv-x="1290" 
d="M768 164h-246v391h-381v244h381v391h246v-391h381v-244h-381v-391z" />
    <glyph glyph-name="comma" unicode="," horiz-adv-x="604" 
d="M137 -305v155q125 13 125 138v12h-115v328h318v-295q0 -174 -81.5 -253t-246.5 -85z" />
    <glyph glyph-name="hyphen" unicode="-" horiz-adv-x="794" 
d="M709 555h-623v244h623v-244z" />
    <glyph glyph-name="period" unicode="." horiz-adv-x="583" 
d="M446 0h-311v328h311v-328z" />
    <glyph glyph-name="slash" unicode="/" horiz-adv-x="888" 
d="M283 -258h-211l534 1720h211z" />
    <glyph glyph-name="zero" unicode="0" horiz-adv-x="1357" 
d="M680 -29q-183 0 -316.5 94t-201.5 258t-68 379v17q0 217 67.5 383.5t201.5 263t317 96.5q118 0 215 -39.5t165 -108t114.5 -163t68 -203t21.5 -229.5v-17q-2 -217 -69 -381t-199.5 -257t-315.5 -93zM680 215q144 0 218.5 131t76.5 356v19q0 148 -31.5 258.5t-99 175
t-164.5 64.5q-146 0 -221.5 -135t-75.5 -363v-19q2 -148 34.5 -255.5t99.5 -169.5t163 -62z" />
    <glyph glyph-name="one" unicode="1" horiz-adv-x="827" 
d="M627 0h-289v1087h-10q-31 -48 -105.5 -82t-167.5 -34v260q109 0 195 52.5t139 150.5h238v-1434z" />
    <glyph glyph-name="two" unicode="2" horiz-adv-x="1323" 
d="M1182 0h-1016v193l459 444q15 15 48 47.5t49.5 49t39 41t39.5 44.5q90 111 90 203t-57 144.5t-158 52.5q-108 0 -168 -72t-66 -186h-295q18 226 157.5 363.5t371.5 137.5q238 0 370 -121.5t132 -306.5q0 -86 -43.5 -169.5t-143.5 -194.5q-14 -17 -33 -36.5t-31 -31
t-35.5 -33.5t-29.5 -28l-291 -287v-10h611v-244z" />
    <glyph glyph-name="three" unicode="3" horiz-adv-x="1286" 
d="M633 -29q-227 0 -385 122.5t-172 307.5h301q14 -84 83.5 -135t172.5 -51q119 0 188.5 56t69.5 153q0 98 -72.5 154.5t-187.5 56.5h-148v223h150q89 0 150 50t61 132q0 78 -60.5 128.5t-152.5 50.5q-86 0 -143 -46t-72 -124l-289 4q20 174 164.5 291.5t341.5 117.5
q135 0 247.5 -49.5t181 -144.5t68.5 -217q0 -99 -51 -178.5t-133 -124.5v-11q105 -39 169.5 -128t64.5 -216t-71 -223.5t-195 -147.5t-281 -51z" />
    <glyph glyph-name="four" unicode="4" horiz-adv-x="1374" 
d="M1077 0h-286v315h-699v232l590 887h395v-875h207v-244h-207v-315zM770 1161l-401 -604h413v604h-12z" />
    <glyph glyph-name="five" unicode="5" horiz-adv-x="1280" 
d="M637 -29q-243 0 -384.5 131.5t-129.5 346.5l272 2q1 -107 68.5 -171.5t177.5 -64.5q106 0 167.5 71t61.5 193q0 120 -62 191.5t-167 74.5q-173 3 -225 -131h-273l84 820h863v-244h-609l-43 -332h6q46 59 119.5 92t161.5 33q197 0 315.5 -140t118.5 -364t-146 -366
t-376 -142z" />
    <glyph glyph-name="six" unicode="6" horiz-adv-x="1314" 
d="M678 -29q-265 0 -418.5 190t-153.5 525q0 346 164 561t430 215q200 0 331.5 -112.5t158.5 -296.5h-272q-50 166 -230 166q-133 0 -212 -119.5t-85 -317.5h6q46 82 132 128t196 46q210 0 346.5 -137.5t136.5 -347.5q0 -219 -146.5 -359.5t-383.5 -140.5zM668 215
q112 0 179.5 72t67.5 190q0 119 -67.5 190.5t-179.5 71.5q-114 0 -186 -72.5t-72 -189.5q0 -116 72.5 -189t185.5 -73z" />
    <glyph glyph-name="seven" unicode="7" horiz-adv-x="1292" 
d="M676 0h-287q0 343 121.5 652t327.5 538h-697v244h1008v-267q-243 -262 -356.5 -547t-116.5 -620z" />
    <glyph glyph-name="eight" unicode="8" horiz-adv-x="1296" 
d="M649 -29q-158 0 -284 49.5t-201.5 147t-75.5 227.5q0 114 58 200.5t161 139.5v4q-75 52 -117.5 131.5t-42.5 178.5q0 125 67 220t181 144t256 49q141 0 254.5 -49t180.5 -144t67 -220q0 -99 -42.5 -178.5t-119.5 -131.5v-4q103 -54 160 -140.5t57 -199.5
q0 -131 -75 -228.5t-200.5 -146.5t-283.5 -49zM649 862q96 0 155.5 48.5t59.5 129.5t-59.5 130t-155.5 49t-155.5 -48.5t-59.5 -130.5q0 -81 59.5 -129.5t155.5 -48.5zM649 213q121 0 196 57.5t75 153.5q0 94 -75 150.5t-196 56.5t-196.5 -56.5t-75.5 -150.5
q0 -96 75.5 -153.5t196.5 -57.5z" />
    <glyph glyph-name="nine" unicode="9" horiz-adv-x="1302" 
d="M604 -29q-200 0 -331 113t-158 297h272q50 -166 229 -166q133 0 211 119t84 317h-6q-46 -83 -131 -128.5t-196 -45.5q-209 0 -345.5 138t-136.5 348q0 219 146 359t383 140q266 0 418.5 -189t152.5 -525q0 -229 -73.5 -405.5t-208 -274t-310.5 -97.5zM635 694
q114 0 186 72.5t72 189.5t-72 190t-186 73q-110 0 -179 -73t-69 -190q0 -118 68.5 -190t179.5 -72z" />
    <glyph glyph-name="colon" unicode=":" horiz-adv-x="794" 
d="M553 696h-311v328h313zM553 0h-311v328h313z" />
    <glyph glyph-name="semicolon" unicode=";" horiz-adv-x="604" 
d="M461 696h-311v328h313zM137 -305v155q125 13 125 140v10h-115v328h318v-295q0 -174 -81.5 -253t-246.5 -85z" />
    <glyph glyph-name="less" unicode="&#x3c;" horiz-adv-x="1290" 
d="M1083 391v-244l-876 428v201l876 428v-243l-579 -281v-8z" />
    <glyph glyph-name="equal" unicode="=" horiz-adv-x="1290" 
d="M1149 772h-1008v217h1008v-217zM1149 365h-1008v217h1008v-217z" />
    <glyph glyph-name="greater" unicode="&#x3e;" horiz-adv-x="1290" 
d="M1083 575l-876 -428v244l579 281v8l-579 281v243l876 -428v-201z" />
    <glyph glyph-name="question" unicode="?" horiz-adv-x="1161" 
d="M684 412h-289v137q0 70 21 122.5t55 84.5t74.5 57t81.5 47t75 47t55 65t21 93q0 66 -59 110t-148 44q-98 0 -154 -55.5t-65 -162.5h-270q-6 199 130.5 330t358.5 131q213 0 351.5 -111t138.5 -282q0 -120 -62 -215t-176 -149q-86 -42 -112.5 -75.5t-26.5 -103.5v-114z
M674 0h-268v289h268v-289z" />
    <glyph glyph-name="at" unicode="@" horiz-adv-x="1976" 
d="M1038 -322q-189 0 -352.5 58.5t-282.5 164t-187.5 259.5t-68.5 336q0 178 64.5 335t177.5 270t274 179t347 66q172 0 324 -55t260.5 -150.5t171.5 -230t63 -287.5q0 -232 -115 -375.5t-311 -143.5q-80 0 -145 30.5t-101 88.5h-6q-41 -58 -110 -89.5t-148 -31.5
q-152 0 -240 112.5t-88 281.5q0 114 50.5 216t140 165t194.5 63q178 0 250 -123h6l21 107h200l-98 -516q-12 -62 13 -100t81 -38q96 0 159 107t63 248q0 250 -172 401.5t-449 151.5q-151 0 -280.5 -52.5t-219 -143.5t-140 -216.5t-50.5 -269.5q0 -198 88.5 -346t243 -225
t354.5 -77q140 0 251.5 31.5t215.5 102.5l90 -150q-211 -154 -539 -154zM932 276q70 0 119.5 51t64.5 136t19 125q7 76 -32.5 127t-107.5 51q-84 0 -144 -68.5t-71 -169.5q-11 -104 27 -178t125 -74z" />
    <glyph glyph-name="A" unicode="A" horiz-adv-x="1519" 
d="M338 0h-291l545 1434h334l544 -1434h-288l-121 313h-604zM754 1118l-205 -561h422l-205 561h-12z" />
    <glyph glyph-name="B" unicode="B" horiz-adv-x="1370" 
d="M840 0h-693v1434h660q212 0 325 -97.5t113 -281.5q0 -117 -60 -197.5t-149 -112.5v-10q109 -40 179.5 -128t70.5 -212q0 -186 -117.5 -290.5t-328.5 -104.5zM434 1190v-346h342q86 0 135.5 47t49.5 131q0 82 -47 125t-138 43h-342zM434 614v-370h381q84 0 131 47t47 131
q0 86 -52.5 139t-131.5 53h-375z" />
    <glyph glyph-name="C" unicode="C" horiz-adv-x="1445" 
d="M743 -29q-138 0 -251 43.5t-187.5 115.5t-126 168t-74 198t-22.5 209v20q0 105 22.5 206.5t74 198.5t126 170t188 117.5t250.5 44.5q135 0 250 -41t193.5 -110.5t125.5 -160.5t56 -192h-293q-14 117 -105.5 189.5t-226.5 71.5q-81 -1 -146 -32t-106.5 -80t-69 -114.5
t-39 -131.5t-11.5 -134v-22q0 -70 11.5 -136t39 -131t69 -113.5t106.5 -78.5t146 -31q135 -1 227 71t107 187h293q-9 -101 -56.5 -191.5t-126 -160t-194 -110t-250.5 -40.5z" />
    <glyph glyph-name="D" unicode="D" horiz-adv-x="1427" 
d="M745 0h-598v1434h598q177 0 315.5 -90.5t215 -253.5t76.5 -373t-76.5 -373t-215 -253.5t-315.5 -90.5zM434 1190v-946h246q182 0 282.5 127t100.5 346t-100.5 346t-282.5 127h-246z" />
    <glyph glyph-name="E" unicode="E" horiz-adv-x="1306" 
d="M1190 0h-1043v1434h1043v-244h-756v-346h690v-244h-690v-356h756v-244z" />
    <glyph glyph-name="F" unicode="F" horiz-adv-x="1271" 
d="M434 0h-287v1434h1043v-244h-756v-393h690v-244h-690v-553z" />
    <glyph glyph-name="G" unicode="G" horiz-adv-x="1497" 
d="M700 -27q-129 0 -235 43.5t-176 115.5t-117.5 168.5t-68.5 198t-21 208.5v20q0 105 22.5 206.5t74 198t126 169.5t188 117t250.5 44q136 0 252 -42t194.5 -113t126 -163t56.5 -194h-293q-14 118 -108.5 194t-227.5 75q-100 -1 -175.5 -46.5t-116.5 -120t-60.5 -156.5
t-19.5 -169v-20q0 -70 11.5 -136.5t39 -131.5t69 -113t106.5 -78t146 -31q149 0 244.5 92t95.5 230v10h-305v244h594v-793h-244v90q0 67 19 125l20 61l-6 5l-33 -66q-47 -110 -160 -176t-268 -66z" />
    <glyph glyph-name="H" unicode="H" horiz-adv-x="1464" 
d="M434 0h-287v1434h287l2 -588h594v588h287v-1434h-287v604h-594z" />
    <glyph glyph-name="I" unicode="I" horiz-adv-x="581" 
d="M434 0h-287v1434h287v-1434z" />
    <glyph glyph-name="J" unicode="J" horiz-adv-x="933" 
d="M293 -29q-74 0 -189 21v258q87 -19 152 -19q130 0 186 53.5t56 178.5v971h288v-1018q0 -219 -126.5 -332t-366.5 -113z" />
    <glyph glyph-name="K" unicode="K" horiz-adv-x="1353" 
d="M434 0h-287v1434h287v-680h12l537 680h326l-564 -715l564 -721h-326l-537 686h-12v-684z" />
    <glyph glyph-name="L" unicode="L" horiz-adv-x="1196" 
d="M1149 0h-1002v1434h287v-1190h715v-244z" />
    <glyph glyph-name="M" unicode="M" horiz-adv-x="1781" 
d="M420 2h-273v1434h414l324 -1114h12l322 1114h415v-1434h-274v1092h-10l-316 -1092h-286l-316 1092h-12v-1092z" />
    <glyph glyph-name="N" unicode="N" horiz-adv-x="1462" 
d="M434 0h-287v1434h318l551 -971h10v971h289v-1434h-320l-549 969h-12v-969z" />
    <glyph glyph-name="O" unicode="O" horiz-adv-x="1480" 
d="M743 -29q-138 0 -251 43.5t-187.5 115.5t-126 168t-74 198t-22.5 209v20q0 105 22.5 206.5t74 198.5t126 170t188 117.5t250.5 44.5q139 0 252.5 -44.5t187 -117.5t123.5 -170t71.5 -198t21.5 -207v-20q0 -107 -21.5 -208.5t-71.5 -198t-123.5 -168.5t-187 -115.5
t-252.5 -43.5zM743 215q80 -1 144.5 29t106 78.5t69.5 114t39.5 132.5t11.5 136v22q0 68 -11.5 134.5t-39.5 132t-69.5 115t-106 80.5t-144.5 30q-81 -1 -146 -32t-106.5 -80t-69 -114.5t-39 -131.5t-11.5 -134v-22q0 -70 11.5 -136t39 -131t69 -113.5t106.5 -78.5t146 -31z
" />
    <glyph glyph-name="P" unicode="P" horiz-adv-x="1359" 
d="M434 0h-287v1434h611q240 0 369.5 -114t129.5 -335q0 -220 -131 -334t-368 -114h-324v-537zM434 1190v-410h311q107 0 165.5 51t58.5 154q0 205 -224 205h-311z" />
    <glyph glyph-name="Q" unicode="Q" horiz-adv-x="1492" 
d="M1391 59l-134 -178q-59 6 -137 42t-145 85q-109 -37 -232 -37q-138 0 -251 43.5t-187.5 115.5t-126 168t-74 198t-22.5 209v20q0 105 22.5 206.5t74 198.5t126 170t188 117.5t250.5 44.5q139 0 252.5 -44.5t187 -117.5t123.5 -170t71.5 -198t21.5 -207v-20
q0 -160 -51 -308.5t-154 -251.5q53 -32 90 -48.5t107 -37.5zM743 215q80 -1 144.5 29t106 78.5t69.5 114t39.5 132.5t11.5 136v22q0 68 -11.5 134.5t-39.5 132t-69.5 115t-106 80.5t-144.5 30q-81 -1 -146 -32t-106.5 -80t-69 -114.5t-39 -131.5t-11.5 -134v-22
q0 -70 11.5 -136t39 -131t69 -113.5t106.5 -78.5t146 -31z" />
    <glyph glyph-name="R" unicode="R" horiz-adv-x="1353" 
d="M434 0h-287v1434h611q242 0 370.5 -110t128.5 -329q0 -160 -72 -263t-206 -140l281 -592h-291l-264 557h-271v-557zM434 1190v-389h311q224 0 224 194q0 102 -57 148.5t-167 46.5h-311z" />
    <glyph glyph-name="S" unicode="S" horiz-adv-x="1314" 
d="M662 -29q-267 0 -415 123.5t-157 345.5h287q17 -239 287 -239q126 0 200 51t74 145q0 70 -61 116.5t-201 86.5l-103 29q-240 68 -349 164.5t-109 244.5q0 193 146.5 308.5t397.5 115.5q258 0 394 -114t145 -330h-289q-6 103 -72.5 159t-177.5 56q-118 0 -188 -45
t-70 -123q0 -72 54 -121t194 -90l101 -29q251 -74 364 -167t113 -242q0 -207 -151 -326t-414 -119z" />
    <glyph glyph-name="T" unicode="T" horiz-adv-x="1222" 
d="M756 0h-289l2 1190h-414l-2 244h1114l2 -244h-411z" />
    <glyph glyph-name="U" unicode="U" horiz-adv-x="1456" 
d="M731 -29q-142 0 -254.5 48.5t-184 134t-108.5 197t-37 241.5v842h287v-871q0 -97 31.5 -173.5t100 -125t165.5 -49.5q141 -1 218 98.5t77 249.5v871h283v-842q0 -132 -35 -243t-104.5 -196.5t-181.5 -133.5t-257 -48z" />
    <glyph glyph-name="V" unicode="V" horiz-adv-x="1515" 
d="M924 0h-332l-545 1434h289l416 -1119h12l416 1119h288z" />
    <glyph glyph-name="W" unicode="W" horiz-adv-x="1970" 
d="M723 0h-293l-383 1434h289l250 -1031h10l250 1031h276l250 -1031h12l248 1031h289l-381 -1434h-293l-256 1014h-10z" />
    <glyph glyph-name="X" unicode="X" horiz-adv-x="1288" 
d="M352 0h-305l445 717l-445 717h305l287 -457h10l287 457h305l-444 -717l444 -717h-305l-287 457h-10z" />
    <glyph glyph-name="Y" unicode="Y" horiz-adv-x="1380" 
d="M834 0h-287v541l-504 893h305l336 -617h12l336 617h305l-503 -893v-541z" />
    <glyph glyph-name="Z" unicode="Z" horiz-adv-x="1284" 
d="M1180 0h-1078v250l752 930v10h-743v244h1060v-248l-737 -932v-10h746v-244z" />
    <glyph glyph-name="bracketleft" unicode="[" horiz-adv-x="860" 
d="M786 -258h-639v1720h639v-229h-409v-1262h409v-229z" />
    <glyph glyph-name="backslash" unicode="\" horiz-adv-x="888" 
d="M283 1462l534 -1720h-211l-534 1720h211z" />
    <glyph glyph-name="bracketright" unicode="]" horiz-adv-x="860" 
d="M713 -258h-639v229h409v1262h-409v229h639v-1720z" />
    <glyph glyph-name="asciicircum" unicode="^" horiz-adv-x="1243" 
d="M444 827h-254l347 635h196l346 -635h-254l-184 342h-10z" />
    <glyph glyph-name="underscore" unicode="_" horiz-adv-x="813" 
d="M727 -291h-641v219h641v-219z" />
    <glyph glyph-name="grave" unicode="`" horiz-adv-x="1140" 
d="M780 1196h-223l-168 266h270z" />
    <glyph glyph-name="a" unicode="a" horiz-adv-x="1161" 
d="M422 -29q-151 0 -244.5 83.5t-93.5 213.5q0 75 26 132.5t76.5 95t113 61t146.5 39.5l232 41q47 9 47 45v10q0 48 -45 83.5t-111 35.5t-111 -32t-59 -83h-284q9 151 138 254t327 103q202 0 325 -96t123 -261v-696h-266v37q0 47 24 106l15 35l-2 2l-37 -57
q-48 -76 -142.5 -114t-197.5 -38zM514 186q87 0 150 48t63 122v107l-221 -45q-69 -14 -101 -43t-32 -82q0 -47 39.5 -77t101.5 -30z" />
    <glyph glyph-name="b" unicode="b" horiz-adv-x="1204" 
d="M702 -29q-87 0 -166 43.5t-114 120.5l-31 66l-4 -2l4 -21q5 -19 13.5 -46.5t12.5 -45t5 -33.5v-53h-289v1434h289v-533h6q41 71 116 112.5t158 41.5q193 0 305.5 -137t112.5 -375v-68q0 -224 -114 -364t-304 -140zM633 182q88 0 144.5 79t56.5 210v80q0 131 -58 210
t-147 79q-92 0 -148.5 -75t-56.5 -200v-106q0 -125 58 -201t151 -76z" />
    <glyph glyph-name="c" unicode="c" horiz-adv-x="1161" 
d="M588 -29q-229 0 -366.5 139t-137.5 369v72q0 218 141.5 359.5t362.5 142.5q211 -2 349.5 -121t141.5 -305h-288q-3 95 -59 155t-142 60q-96 0 -155.5 -73t-59.5 -185v-142q0 -110 59 -184t154 -74q86 0 143 61t60 152h288q-3 -191 -138.5 -308.5t-352.5 -117.5z" />
    <glyph glyph-name="d" unicode="d" horiz-adv-x="1204" 
d="M502 -29q-190 0 -304 140t-114 364v68q0 238 112.5 375t305.5 137q83 0 158 -41.5t116 -112.5h6v533h289v-1432h-289v47q0 18 3.5 37.5t7 31.5t10.5 33t10 29l4 19l-4 2l-31 -66q-35 -77 -114 -120.5t-166 -43.5zM571 182q93 0 151 76t58 201v106q0 125 -56.5 200
t-148.5 75q-89 0 -146.5 -79t-57.5 -210v-80q0 -131 56 -210t144 -79z" />
    <glyph glyph-name="e" unicode="e" horiz-adv-x="1167" 
d="M586 -29q-228 0 -365 138.5t-137 369.5v72q0 144 63.5 258t178 178.5t260.5 65.5q222 -2 361.5 -141.5t139.5 -360.5v-100h-712v-19q0 -106 57 -177t154 -71q71 0 122 43.5t76 124.5h289q-34 -178 -163.5 -279.5t-323.5 -101.5zM377 631h416q-12 98 -66.5 154.5
t-138.5 56.5t-141 -56.5t-70 -154.5z" />
    <glyph glyph-name="f" unicode="f" horiz-adv-x="755" 
d="M469 -2h-289v782h-127v244h127v115q0 165 77.5 243t242.5 78q102 0 188 -12l-2 -213q-55 10 -115 10q-51 0 -76.5 -23t-25.5 -77v-121h211v-244h-211v-782z" />
    <glyph glyph-name="g" unicode="g" horiz-adv-x="1202" 
d="M590 -438q-185 0 -312.5 81.5t-150.5 196.5l260 43q19 -54 71.5 -84t125.5 -30q86 0 142 53t56 133v156h-6q-40 -69 -114 -104.5t-160 -35.5q-193 0 -305.5 136t-112.5 374v70q0 224 114 364t304 140q88 0 167 -44t113 -122l31 -62l4 2l-16 54q-16 52 -19 96v45h289
v-1063q0 -177 -133.5 -288t-347.5 -111zM575 184q91 0 148 76t57 201v104q0 125 -58 201t-151 76q-88 0 -144 -78t-56 -211v-80q0 -131 57.5 -210t146.5 -79z" />
    <glyph glyph-name="h" unicode="h" horiz-adv-x="1179" 
d="M422 0h-289v1434h289v-412q0 -68 -33 -127l-8 -18l4 -5l37 43q45 63 117.5 100.5t156.5 37.5q186 2 283.5 -117t97.5 -348v-588h-289v602q0 117 -39 178.5t-114 61.5q-91 0 -152 -68.5t-61 -181.5v-592z" />
    <glyph glyph-name="i" unicode="i" horiz-adv-x="552" 
d="M422 1178h-289v256h289v-256zM422 0h-289v1026h289v-1026z" />
    <glyph glyph-name="j" unicode="j" horiz-adv-x="561" 
d="M428 1178h-287v256h287v-256zM-59 -438v274q105 8 152.5 63.5t47.5 172.5v952h287v-1008q0 -205 -127.5 -323.5t-359.5 -130.5z" />
    <glyph glyph-name="k" unicode="k" horiz-adv-x="1163" 
d="M422 0h-289v1434h289v-881h10l385 471h299l-411 -496l411 -528h-299l-385 502h-10v-502z" />
    <glyph glyph-name="l" unicode="l" horiz-adv-x="552" 
d="M420 0h-287v1434h287v-1434z" />
    <glyph glyph-name="m" unicode="m" horiz-adv-x="1837" 
d="M422 0h-289v1026h289v-20q-3 -51 -33 -105l-8 -18l4 -4l37 43q44 60 117.5 95.5t150.5 35.5q109 0 190 -41.5t126 -118.5h6q112 160 325 160q184 0 280.5 -118t96.5 -341v-594h-289v608q0 100 -41.5 167t-121.5 67q-85 0 -139 -65.5t-54 -178.5v-598h-291v608
q0 100 -42 167t-124 67q-84 0 -137 -65.5t-53 -178.5v-598z" />
    <glyph glyph-name="n" unicode="n" horiz-adv-x="1200" 
d="M422 0h-289v1024h289v-25q-3 -48 -33 -102l-8 -18l4 -5l37 44q45 63 117 99t157 36q186 2 283.5 -117t97.5 -348v-588h-289v602q0 240 -174 240q-89 0 -140.5 -67t-51.5 -183v-592z" />
    <glyph glyph-name="o" unicode="o" horiz-adv-x="1169" 
d="M584 -29q-227 0 -363.5 139.5t-136.5 370.5v68q0 145 63.5 259.5t177.5 179t259 65.5q222 -1 361.5 -141.5t139.5 -362.5v-68q0 -232 -136.5 -371t-364.5 -139zM584 184q96 0 153.5 75.5t57.5 182.5v140q0 110 -56.5 185t-150.5 75q-98 0 -155.5 -74.5t-57.5 -185.5v-140
q0 -107 57 -182.5t152 -75.5z" />
    <glyph glyph-name="p" unicode="p" horiz-adv-x="1204" 
d="M422 -410h-289v1434h289v-45q-3 -47 -25 -107l-12 -30l6 -4l31 49q37 77 115 121.5t165 44.5q193 0 305.5 -136t112.5 -374v-68q0 -225 -114 -364.5t-304 -139.5q-83 0 -157.5 40t-112.5 112h-10v-533zM633 182q88 0 144.5 79t56.5 210v80q0 131 -58 210t-147 79
q-92 0 -148.5 -75t-56.5 -200v-106q0 -125 58 -201t151 -76z" />
    <glyph glyph-name="q" unicode="q" horiz-adv-x="1204" 
d="M1071 -410h-289v533h-10q-37 -72 -112 -112t-158 -40q-190 0 -304 139.5t-114 364.5v68q0 238 112.5 374t305.5 136q87 0 165 -44.5t115 -121.5l31 -49l6 4l-12 30q-22 60 -25 107v45h289v-1434zM571 182q93 0 151 76t58 201v106q0 125 -56.5 200t-148.5 75
q-89 0 -146.5 -79t-57.5 -210v-80q0 -131 56 -210t144 -79z" />
    <glyph glyph-name="r" unicode="r" horiz-adv-x="794" 
d="M422 0h-289v1024h289v-27q0 -57 -27 -125l-10 -26l6 -4l31 47q25 44 68 82t90 57q53 20 104 23h59v-258l-110 2q-101 1 -156 -73.5t-55 -189.5v-532z" />
    <glyph glyph-name="s" unicode="s" horiz-adv-x="1099" 
d="M553 -29q-213 0 -336.5 82.5t-130.5 231.5h293q10 -52 55 -79.5t119 -27.5t121 30t47 75q0 40 -29 61t-121 41l-174 33q-293 59 -293 305q0 154 119 242t328 88q206 0 321.5 -82t118.5 -232h-282q-6 52 -47.5 79.5t-112.5 27.5q-69 0 -111.5 -28t-42.5 -75q0 -43 30 -65
t114 -39l180 -35q301 -55 301 -291q0 -158 -126 -250t-341 -92z" />
    <glyph glyph-name="t" unicode="t" horiz-adv-x="813" 
d="M733 211v-223q-145 -27 -256 -13.5t-170 64.5q-52 42 -75 101t-23 145v495h-158v244h101q63 0 63 70v143l289 72v-185q0 -73 -60 -96v-2l285 -2v-244h-225v-432q0 -95 53 -122.5t176 -14.5z" />
    <glyph glyph-name="u" unicode="u" horiz-adv-x="1202" 
d="M506 -29q-186 -2 -283.5 117t-97.5 348v588h289v-602q0 -117 39 -178.5t114 -61.5q91 0 152 68.5t61 181.5v592h289v-1024h-289v29q6 48 31 100l10 16l-4 5l-37 -44q-45 -63 -117 -99t-157 -36z" />
    <glyph glyph-name="v" unicode="v" horiz-adv-x="1175" 
d="M780 0h-385l-354 1024h272l269 -799h12l268 799h273z" />
    <glyph glyph-name="w" unicode="w" horiz-adv-x="1619" 
d="M633 0h-334l-258 1024h258l174 -741h12l189 741h270l191 -741h12l174 741h258l-258 -1024h-334l-172 668h-10z" />
    <glyph glyph-name="x" unicode="x" horiz-adv-x="1130" 
d="M334 0h-293l379 512l-379 512h293l225 -305h12l226 305h293l-377 -512l377 -512h-293l-226 303h-12z" />
    <glyph glyph-name="y" unicode="y" horiz-adv-x="1140" 
d="M295 -438q-73 0 -123 12l2 231q58 -6 80 -6q50 0 80 24.5t55 84.5l37 90l-385 1026h274l248 -709h15l247 709h275l-412 -1087q-39 -102 -71 -164t-77 -114t-104.5 -74.5t-140.5 -22.5z" />
    <glyph glyph-name="z" unicode="z" horiz-adv-x="1105" 
d="M995 0h-884v215l530 555v10h-524v244h874v-217l-524 -553v-10h528v-244z" />
    <glyph glyph-name="braceleft" unicode="{" horiz-adv-x="970" 
d="M897 -258h-256q-181 0 -270.5 103.5t-89.5 295.5v224q0 60 -35.5 101.5t-98.5 41.5h-73v188h73q63 0 98.5 42t35.5 102v225q0 189 90 293t270 104h256v-211h-195q-93 0 -142.5 -55.5t-49.5 -157.5v-194q0 -79 -32 -140.5t-83 -97.5v-8q51 -35 83 -96t32 -140v-200
q0 -99 50 -154t142 -55h195v-211z" />
    <glyph glyph-name="bar" unicode="|" horiz-adv-x="579" 
d="M434 -131h-287v1696h287v-1696z" />
    <glyph glyph-name="braceright" unicode="}" horiz-adv-x="970" 
d="M328 -258h-254v211h192q93 0 144 55t51 154v200q0 79 31.5 140.5t82.5 97.5v6q-51 36 -82.5 97.5t-31.5 140.5v194q0 102 -51 157.5t-144 55.5h-192v211h254q181 0 271.5 -104t90.5 -293v-225q0 -61 34 -102.5t97 -41.5h76v-188h-76q-63 0 -97 -41t-34 -102v-224
q0 -192 -90.5 -295.5t-271.5 -103.5z" />
    <glyph glyph-name="asciitilde" unicode="~" horiz-adv-x="1161" 
d="M770 487q-37 0 -73 16.5t-66 40t-59.5 47t-63 40t-66.5 16.5q-43 0 -68 -34.5t-28 -100.5h-180q1 104 26.5 181.5t84 125t145.5 47.5q46 0 97 -24.5t87.5 -54t75 -54t63.5 -24.5q50 0 74.5 35.5t24.5 97.5h182q-1 -101 -27.5 -179t-85 -127t-143.5 -49z" />
    <glyph glyph-name="uni00A0" unicode="&#xa0;" horiz-adv-x="1214" 
 />
    <glyph glyph-name="exclamdown" unicode="&#xa1;" horiz-adv-x="552" 
d="M401 1145h-245v289h245v-289zM406 0h-259l29 1038h203z" />
    <glyph glyph-name="cent" unicode="&#xa2;" horiz-adv-x="1374" 
d="M811 0h-184v180q-193 25 -307.5 160.5t-114.5 343.5v72q0 197 117 333t305 162v181h184v-185q171 -28 278.5 -142t110.5 -274h-289q-3 96 -58.5 156t-141.5 60q-96 0 -155.5 -73.5t-59.5 -185.5v-141q0 -110 59 -184t154 -74q86 0 142.5 60.5t59.5 152.5h289
q-3 -166 -109 -279t-280 -139v-184z" />
    <glyph glyph-name="sterling" unicode="&#xa3;" horiz-adv-x="1282" 
d="M1182 -2h-1053v244h147v309h-137v215h137v248q0 196 122.5 321t318.5 125q153 0 267 -82t167 -227l-217 -90q-27 76 -71.5 117t-119.5 41q-76 0 -127 -51t-51 -138v-264h391v-215h-391v-309h617v-244z" />
    <glyph glyph-name="currency" unicode="&#xa4;" horiz-adv-x="1120" 
d="M381 381l-162 -166l-151 158l159 162q-55 85 -55 200q0 119 55 199l-159 160l151 157l160 -164q86 56 194 56q113 0 199 -56l162 164l147 -155l-157 -162q55 -90 55 -199q0 -117 -57 -200l159 -162l-147 -158l-164 166q-83 -53 -197 -53q-110 0 -192 53zM575 535
q83 0 140 57.5t57 142.5t-57 143t-140 58t-139.5 -57.5t-56.5 -143.5q0 -87 55.5 -143.5t140.5 -56.5z" />
    <glyph glyph-name="yen" unicode="&#xa5;" horiz-adv-x="1337" 
d="M827 0h-288v244h-285v186h285v105h-285v184h188l-407 715h307l340 -631l342 631h307l-407 -715h188v-184h-285v-105h285v-186h-285v-244z" />
    <glyph glyph-name="brokenbar" unicode="&#xa6;" horiz-adv-x="579" 
d="M147 1303h287v-1170h-287v1170z" />
    <glyph glyph-name="section" unicode="&#xa7;" horiz-adv-x="1071" 
d="M532 -176q-200 0 -314.5 95.5t-111.5 260.5h263q0 -65 42 -101t119 -36q66 0 107 30t41 79q0 39 -30.5 62.5t-96.5 41.5q-7 2 -89.5 29t-113.5 39q-129 46 -187.5 114t-58.5 172q0 161 150 254v6q-133 86 -133 256q0 152 115 244t305 92q189 0 299.5 -97.5t103.5 -258.5
h-262q6 61 -35 99t-110 38q-57 0 -94.5 -30t-37.5 -74q0 -76 119 -109q13 -5 81.5 -27t119.5 -40q125 -41 183.5 -108.5t58.5 -170.5q0 -78 -35.5 -148t-100.5 -120v-6q136 -86 136 -234q0 -158 -120 -255t-313 -97zM520 520l84 -22q88 50 88 133q0 99 -131 127l-84 22
q-46 -17 -73 -52.5t-27 -80.5q0 -51 32 -79.5t111 -47.5z" />
    <glyph glyph-name="dieresis" unicode="&#xa8;" horiz-adv-x="1046" 
d="M479 1188h-213v211h213v-211zM782 1188h-211v211h211v-211z" />
    <glyph glyph-name="ordfeminine" unicode="&#xaa;" horiz-adv-x="937" 
d="M371 707q-105 0 -170.5 58.5t-65.5 149.5q0 101 65.5 153.5t186.5 76.5l164 29q33 7 33 30v6q0 35 -31.5 59.5t-77.5 24.5q-45 0 -77.5 -22t-43.5 -55l-198 4q9 103 100 173t225 70q142 0 229 -67.5t87 -182.5v-487h-187v25q0 37 17 75l10 25l-4 2l-23 -41
q-33 -54 -99 -80t-140 -26zM436 858q61 0 104.5 33.5t43.5 85.5v74l-156 -31q-47 -11 -68.5 -31.5t-21.5 -56.5q0 -33 27.5 -53.5t70.5 -20.5zM807 477h-674v137h674v-137z" />
    <glyph glyph-name="guillemotleft" unicode="&#xab;" horiz-adv-x="1155" 
d="M637 317h-215l-291 353v8l291 356h215l-293 -352v-8zM1024 317h-217l-291 357v8l291 352h217l-291 -352v-8z" />
    <glyph glyph-name="logicalnot" unicode="&#xac;" horiz-adv-x="1095" 
d="M936 473h-207v203h-539v203h746v-406z" />
    <glyph glyph-name="uni00AD" unicode="&#xad;" horiz-adv-x="794" 
d="M709 555h-623v244h623v-244z" />
    <glyph glyph-name="macron" unicode="&#xaf;" horiz-adv-x="1210" 
d="M926 1212h-639v187h639v-187z" />
    <glyph glyph-name="degree" unicode="&#xb0;" horiz-adv-x="708" 
d="M354 920q-116 0 -198 83t-82 201q0 117 81.5 199t198.5 82q118 0 199.5 -81.5t81.5 -199.5q0 -120 -81 -202t-200 -82zM354 1075q55 0 91 36.5t36 92.5q0 53 -36.5 89t-90.5 36q-52 0 -88.5 -36.5t-36.5 -88.5q0 -54 35.5 -91.5t89.5 -37.5z" />
    <glyph glyph-name="plusminus" unicode="&#xb1;" horiz-adv-x="1290" 
d="M741 397h-196v320h-330v196h330v320h196v-320h334v-196h-334v-320zM1055 121h-834v188h834v-188z" />
    <glyph glyph-name="uni00B2" unicode="&#xb2;" horiz-adv-x="806" 
d="M715 709h-609v114l275 269q78 74 106 108q54 67 54 123t-34 86.5t-95 30.5q-65 0 -101 -43t-39 -111h-178q11 134 95 216.5t223 82.5q144 0 222.5 -72.5t78.5 -183.5q0 -52 -26 -102t-87 -117q-12 -15 -76 -78l-176 -172v-6h367v-145z" />
    <glyph glyph-name="uni00B3" unicode="&#xb3;" horiz-adv-x="784" 
d="M387 692q-137 0 -232 73t-104 183h180q9 -50 51 -80t103 -30q72 0 114 34t42 91q0 59 -43.5 93t-112.5 34h-90v133h90q54 0 90.5 30t36.5 80q0 46 -36 76.5t-91 30.5q-52 0 -86 -28t-43 -75l-174 2q12 105 98.5 175.5t204.5 70.5q126 0 212.5 -67.5t86.5 -178.5
q0 -59 -30.5 -106.5t-80.5 -75.5v-6q64 -25 103 -78t39 -129q0 -114 -92.5 -183t-235.5 -69z" />
    <glyph glyph-name="acute" unicode="&#xb4;" horiz-adv-x="1134" 
d="M584 1196h-224l115 266h270z" />
    <glyph glyph-name="uni00B5" unicode="&#xb5;" horiz-adv-x="1325" 
d="M420 -410h-289v1434h289v-631q0 -99 42.5 -154t119.5 -55q97 0 151.5 77t54.5 216v547h287v-702q0 -54 13.5 -84.5t52.5 -30.5h53v-244h-143q-51 0 -109.5 25t-85.5 71l-2 9q-75 -127 -233 -127q-69 0 -121 29.5t-80 64.5v-445z" />
    <glyph glyph-name="paragraph" unicode="&#xb6;" horiz-adv-x="1132" 
d="M702 0h-190v575q-126 0 -209 41q-115 51 -178.5 155t-63.5 245q0 134 71 234.5t194 146.5q87 37 206 37h453v-1434h-203v1223h-80v-1223z" />
    <glyph glyph-name="periodcentered" unicode="&#xb7;" horiz-adv-x="794" 
d="M401 518q-71 0 -114 43t-43 113q0 72 44 117t113 45q66 0 109 -45t43 -117q0 -67 -43.5 -111.5t-108.5 -44.5z" />
    <glyph glyph-name="cedilla" unicode="&#xb8;" horiz-adv-x="1097" 
d="M545 -317q-60 0 -115 11t-70 19l35 111l105 -14q5 -1 13 -0.5t23 7.5t19 23q6 24 -16 33q-13 8 -123 21l47 167h131l-16 -57q74 -11 116 -61t33 -121q-7 -68 -57 -103.5t-125 -35.5z" />
    <glyph glyph-name="uni00B9" unicode="&#xb9;" horiz-adv-x="509" 
d="M383 709h-174v653h-6q-18 -29 -63 -49.5t-101 -20.5v156q137 0 201 121h143v-860z" />
    <glyph glyph-name="ordmasculine" unicode="&#xba;" horiz-adv-x="847" 
d="M424 707q-158 0 -254 97.5t-96 258.5v49q0 154 98 252t252 100q156 -2 254 -99.5t98 -252.5v-49q0 -161 -96 -258.5t-256 -97.5zM424 856q68 0 107.5 52t39.5 128v99q0 76 -39 128t-106 52q-68 0 -107.5 -51t-39.5 -129v-99q0 -75 39.5 -127.5t105.5 -52.5zM762 479h-676
v137h676v-137z" />
    <glyph glyph-name="guillemotright" unicode="&#xbb;" horiz-adv-x="1155" 
d="M639 674l-291 -357h-215l289 357v8l-291 352h217l291 -352v-8zM1024 670l-291 -353h-215l293 357v8l-293 352h215l291 -356v-8z" />
    <glyph glyph-name="onequarter" unicode="&#xbc;" horiz-adv-x="1730" 
d="M319 8h-143l1041 1454h139zM377 586h-174v653h-6q-18 -29 -63 -49.5t-101 -20.5v156q136 0 200 121h144v-860zM1546 -8h-174v188h-418v139l355 533h237v-524h123v-148h-123v-188zM1362 688l-242 -362h248v362h-6z" />
    <glyph glyph-name="onehalf" unicode="&#xbd;" 
d="M319 8h-143l1041 1454h139zM377 586h-174v653h-6q-18 -29 -63 -49.5t-101 -20.5v156q136 0 200 121h144v-860zM1694 -8h-609v114l275 269q78 74 106 108q54 67 54 123t-34 86.5t-95 30.5q-65 0 -101 -43t-39 -111h-178q11 134 95 216.5t223 82.5q144 0 222.5 -72.5
t78.5 -183.5q0 -52 -26 -102t-87 -117q-13 -14 -76 -78l-176 -172v-6h367v-145z" />
    <glyph glyph-name="threequarters" unicode="&#xbe;" horiz-adv-x="2004" 
d="M381 569q-137 0 -232 73t-104 183h180q9 -50 51 -80t103 -30q72 0 114 34t42 91q0 59 -43.5 93t-112.5 34h-90v133h90q54 0 90.5 30t36.5 80q0 46 -36 76.5t-91 30.5q-52 0 -86 -28t-43 -75l-174 3q12 105 98.5 175t204.5 70q126 0 212.5 -67t86.5 -178q0 -59 -30.5 -107
t-80.5 -76v-6q64 -25 103 -78t39 -129q0 -114 -92.5 -183t-235.5 -69zM594 8h-143l1040 1454h139zM1821 -8h-174v188h-418v139l354 533h238v-524h123v-148h-123v-188zM1636 688l-241 -362h247v362h-6z" />
    <glyph glyph-name="questiondown" unicode="&#xbf;" horiz-adv-x="1163" 
d="M758 1165h-271v289h271v-289zM592 -8q-214 0 -353 110.5t-139 282.5q0 120 62 214.5t176 150.5q87 41 113 74.5t26 103.5v114h291v-137q0 -70 -21 -122.5t-55 -84.5t-75 -57t-81.5 -47t-74.5 -47t-55 -65t-21 -93q0 -66 58.5 -109.5t146.5 -43.5q99 0 155.5 55t63.5 162
h272q6 -199 -130.5 -330t-358.5 -131z" />
    <glyph glyph-name="Agrave" unicode="&#xc0;" horiz-adv-x="1519" 
d="M860 1565h-223l-166 266h268zM338 0h-291l545 1434h334l544 -1434h-288l-121 313h-604zM754 1118l-205 -561h422l-205 561h-12z" />
    <glyph glyph-name="Aacute" unicode="&#xc1;" horiz-adv-x="1519" 
d="M877 1565h-224l113 266h270zM338 0h-291l545 1434h334l544 -1434h-288l-121 313h-604zM754 1118l-205 -561h422l-205 561h-12z" />
    <glyph glyph-name="Acircumflex" unicode="&#xc2;" horiz-adv-x="1519" 
d="M635 1544h-225l208 303h281l209 -303h-225l-117 168h-14zM338 0h-291l545 1434h334l544 -1434h-288l-121 313h-604zM754 1118l-205 -561h422l-205 561h-12z" />
    <glyph glyph-name="Atilde" unicode="&#xc3;" horiz-adv-x="1519" 
d="M575 1540h-174q-6 163 54.5 254.5t175.5 91.5q71 0 145 -67q8 -7 21.5 -19.5t20 -18t18 -13t24.5 -13.5q47 -21 68 7.5t18 125.5h174q6 -165 -44 -255.5t-173 -90.5q-81 0 -143 62l-28.5 28.5l-26 26t-21 18t-24 12.5t-23.5 1q-31 -3 -47 -35.5t-15 -114.5zM338 0h-291
l545 1434h334l544 -1434h-288l-121 313h-604zM754 1118l-205 -561h422l-205 561h-12z" />
    <glyph glyph-name="Adieresis" unicode="&#xc4;" horiz-adv-x="1519" 
d="M715 1565h-211v211h211v-211zM1020 1565h-213v211h213v-211zM338 0h-291l545 1434h334l544 -1434h-288l-121 313h-604zM754 1118l-205 -561h422l-205 561h-12z" />
    <glyph glyph-name="Aring" unicode="&#xc5;" horiz-adv-x="1519" 
d="M760 1509q-98 0 -165 65.5t-67 160.5t67.5 161t164.5 66q99 0 165 -65t66 -162q0 -95 -66.5 -160.5t-164.5 -65.5zM764 1647q32 0 57 26.5t25 61.5q0 36 -24.5 62t-57.5 26q-38 0 -64 -25.5t-26 -62.5q0 -38 26 -63t64 -25zM338 0h-291l545 1434h334l544 -1434h-288
l-121 313h-604zM754 1118l-205 -561h422l-205 561h-12z" />
    <glyph glyph-name="AE" unicode="&#xc6;" horiz-adv-x="1581" 
d="M338 0h-289l490 1434h944v-244h-402v-346h295v-244h-295v-356h402v-244h-690v301h-351zM711 1104l-191 -567h273v567h-82z" />
    <glyph glyph-name="Ccedilla" unicode="&#xc7;" horiz-adv-x="1460" 
d="M1077 473h293q-8 -93 -49 -178t-109 -152t-167 -111.5t-216 -56.5l-18 -57q75 -11 118 -60t34 -120q-9 -69 -59 -105t-126 -36q-40 0 -84.5 7t-66.5 13t-31 10l35 113l104 -16h13t23.5 7.5t19.5 22.5q3 23 -17 35q-13 8 -123 21l45 163q-128 7 -232.5 54t-174 119
t-117.5 165.5t-69 192t-21 201.5v20q0 105 22.5 206.5t74 198.5t126 170t188 117.5t250.5 44.5q135 0 250 -41t193.5 -110.5t125.5 -160.5t56 -192h-293q-14 117 -105.5 189.5t-226.5 71.5q-81 -1 -146 -32t-106.5 -80t-69 -114.5t-39 -131.5t-11.5 -134v-22
q0 -70 11.5 -136t39 -131t69 -113.5t106.5 -78.5t146 -31q135 -1 227 71t107 187z" />
    <glyph glyph-name="Egrave" unicode="&#xc8;" horiz-adv-x="1306" 
d="M788 1565h-223l-166 266h269zM1190 0h-1043v1434h1043v-244h-756v-346h690v-244h-690v-356h756v-244z" />
    <glyph glyph-name="Eacute" unicode="&#xc9;" horiz-adv-x="1306" 
d="M805 1565h-223l112 266h271zM1190 0h-1043v1434h1043v-244h-756v-346h690v-244h-690v-356h756v-244z" />
    <glyph glyph-name="Ecircumflex" unicode="&#xca;" horiz-adv-x="1306" 
d="M565 1544h-225l209 303h280l209 -303h-225l-117 168h-14zM1190 0h-1043v1434h1043v-244h-756v-346h690v-244h-690v-356h756v-244z" />
    <glyph glyph-name="Edieresis" unicode="&#xcb;" horiz-adv-x="1306" 
d="M643 1565h-211v211h211v-211zM948 1565h-213v211h213v-211zM1190 0h-1043v1434h1043v-244h-756v-346h690v-244h-690v-356h756v-244z" />
    <glyph glyph-name="Igrave" unicode="&#xcc;" horiz-adv-x="581" 
d="M389 1565h-223l-166 266h268zM434 0h-287v1434h287v-1434z" />
    <glyph glyph-name="Iacute" unicode="&#xcd;" horiz-adv-x="581" 
d="M408 1565h-224l113 266h270zM434 0h-287v1434h287v-1434z" />
    <glyph glyph-name="Icircumflex" unicode="&#xce;" horiz-adv-x="581" 
d="M166 1544h-225l209 303h280l209 -303h-225l-117 168h-14zM434 0h-287v1434h287v-1434z" />
    <glyph glyph-name="Idieresis" unicode="&#xcf;" horiz-adv-x="581" 
d="M246 1565h-211v211h211v-211zM551 1565h-213v211h213v-211zM434 0h-287v1434h287v-1434z" />
    <glyph glyph-name="Eth" unicode="&#xd0;" horiz-adv-x="1441" 
d="M745 0h-598v606h-86v230h86v598h598q177 0 315.5 -90.5t215 -253.5t76.5 -373t-76.5 -373t-215 -253.5t-315.5 -90.5zM434 606v-362h246q182 0 282.5 127t100.5 346t-100.5 346t-282.5 127h-246v-354h240v-230h-240z" />
    <glyph glyph-name="Ntilde" unicode="&#xd1;" horiz-adv-x="1462" 
d="M547 1540h-174q-6 163 54 254.5t175 91.5q72 0 146 -67q9 -7 21.5 -19t19 -18t18 -13.5t24.5 -13.5q47 -21 68.5 7.5t18.5 125.5h174q13 -346 -218 -346q-81 0 -143 62l-28.5 28.5l-26 26t-21 18t-24 12.5t-23.5 1q-31 -3 -46.5 -35.5t-14.5 -114.5zM434 0h-287v1434h318
l551 -971h10v971h289v-1434h-320l-549 969h-12v-969z" />
    <glyph glyph-name="Ograve" unicode="&#xd2;" horiz-adv-x="1480" 
d="M844 1565h-223l-166 266h268zM743 -29q-138 0 -251 43.5t-187.5 115.5t-126 168t-74 198t-22.5 209v20q0 105 22.5 206.5t74 198.5t126 170t188 117.5t250.5 44.5q139 0 252.5 -44.5t187 -117.5t123.5 -170t71.5 -198t21.5 -207v-20q0 -107 -21.5 -208.5t-71.5 -198
t-123.5 -168.5t-187 -115.5t-252.5 -43.5zM743 215q80 -1 144.5 29t106 78.5t69.5 114t39.5 132.5t11.5 136v22q0 68 -11.5 134.5t-39.5 132t-69.5 115t-106 80.5t-144.5 30q-81 -1 -146 -32t-106.5 -80t-69 -114.5t-39 -131.5t-11.5 -134v-22q0 -70 11.5 -136t39 -131
t69 -113.5t106.5 -78.5t146 -31z" />
    <glyph glyph-name="Oacute" unicode="&#xd3;" horiz-adv-x="1480" 
d="M860 1565h-223l113 266h270zM743 -29q-138 0 -251 43.5t-187.5 115.5t-126 168t-74 198t-22.5 209v20q0 105 22.5 206.5t74 198.5t126 170t188 117.5t250.5 44.5q139 0 252.5 -44.5t187 -117.5t123.5 -170t71.5 -198t21.5 -207v-20q0 -107 -21.5 -208.5t-71.5 -198
t-123.5 -168.5t-187 -115.5t-252.5 -43.5zM743 215q80 -1 144.5 29t106 78.5t69.5 114t39.5 132.5t11.5 136v22q0 68 -11.5 134.5t-39.5 132t-69.5 115t-106 80.5t-144.5 30q-81 -1 -146 -32t-106.5 -80t-69 -114.5t-39 -131.5t-11.5 -134v-22q0 -70 11.5 -136t39 -131
t69 -113.5t106.5 -78.5t146 -31z" />
    <glyph glyph-name="Ocircumflex" unicode="&#xd4;" horiz-adv-x="1480" 
d="M621 1544h-226l209 303h281l209 -303h-226l-116 168h-15zM743 -29q-138 0 -251 43.5t-187.5 115.5t-126 168t-74 198t-22.5 209v20q0 105 22.5 206.5t74 198.5t126 170t188 117.5t250.5 44.5q139 0 252.5 -44.5t187 -117.5t123.5 -170t71.5 -198t21.5 -207v-20
q0 -107 -21.5 -208.5t-71.5 -198t-123.5 -168.5t-187 -115.5t-252.5 -43.5zM743 215q80 -1 144.5 29t106 78.5t69.5 114t39.5 132.5t11.5 136v22q0 68 -11.5 134.5t-39.5 132t-69.5 115t-106 80.5t-144.5 30q-81 -1 -146 -32t-106.5 -80t-69 -114.5t-39 -131.5t-11.5 -134
v-22q0 -70 11.5 -136t39 -131t69 -113.5t106.5 -78.5t146 -31z" />
    <glyph glyph-name="Otilde" unicode="&#xd5;" horiz-adv-x="1480" 
d="M559 1540h-174q-6 163 54 254.5t175 91.5q72 0 146 -67q8 -7 21.5 -19.5t20 -18t18 -13t24.5 -13.5q47 -21 68 7.5t18 125.5h174q6 -165 -44 -255.5t-173 -90.5q-82 0 -144 62q-11 11 -28 28.5t-26 26t-21 18t-23.5 12.5t-23.5 1q-31 -3 -47 -35.5t-15 -114.5zM743 -29
q-138 0 -251 43.5t-187.5 115.5t-126 168t-74 198t-22.5 209v20q0 105 22.5 206.5t74 198.5t126 170t188 117.5t250.5 44.5q139 0 252.5 -44.5t187 -117.5t123.5 -170t71.5 -198t21.5 -207v-20q0 -107 -21.5 -208.5t-71.5 -198t-123.5 -168.5t-187 -115.5t-252.5 -43.5z
M743 215q80 -1 144.5 29t106 78.5t69.5 114t39.5 132.5t11.5 136v22q0 68 -11.5 134.5t-39.5 132t-69.5 115t-106 80.5t-144.5 30q-81 -1 -146 -32t-106.5 -80t-69 -114.5t-39 -131.5t-11.5 -134v-22q0 -70 11.5 -136t39 -131t69 -113.5t106.5 -78.5t146 -31z" />
    <glyph glyph-name="Odieresis" unicode="&#xd6;" horiz-adv-x="1480" 
d="M698 1565h-211v211h211v-211zM1004 1565h-213v211h213v-211zM743 -29q-138 0 -251 43.5t-187.5 115.5t-126 168t-74 198t-22.5 209v20q0 105 22.5 206.5t74 198.5t126 170t188 117.5t250.5 44.5q139 0 252.5 -44.5t187 -117.5t123.5 -170t71.5 -198t21.5 -207v-20
q0 -107 -21.5 -208.5t-71.5 -198t-123.5 -168.5t-187 -115.5t-252.5 -43.5zM743 215q80 -1 144.5 29t106 78.5t69.5 114t39.5 132.5t11.5 136v22q0 68 -11.5 134.5t-39.5 132t-69.5 115t-106 80.5t-144.5 30q-81 -1 -146 -32t-106.5 -80t-69 -114.5t-39 -131.5t-11.5 -134
v-22q0 -70 11.5 -136t39 -131t69 -113.5t106.5 -78.5t146 -31z" />
    <glyph glyph-name="multiply" unicode="&#xd7;" horiz-adv-x="1290" 
d="M647 504l-291 -287l-170 170l289 291l-282 283l169 172l285 -283l287 285l170 -170l-287 -287l283 -285l-170 -170z" />
    <glyph glyph-name="Oslash" unicode="&#xd8;" horiz-adv-x="1515" 
d="M762 -29q-191 0 -334 84l-37 -55h-241l124 182q-87 101 -130.5 239.5t-43.5 283.5v20q0 105 22.5 206.5t74 198.5t126 170t188 117.5t251.5 44.5q185 0 323 -80l33 52h248l-125 -181q88 -104 131 -242.5t43 -285.5v-20q0 -107 -21.5 -208.5t-71 -198t-123 -168.5
t-186 -115.5t-251.5 -43.5zM389 727v-22q0 -158 64 -269l485 733q-79 50 -176 50q-81 -1 -146.5 -32t-106.5 -80t-69 -114.5t-39.5 -131.5t-11.5 -134zM1065 1001l-487 -735q76 -51 184 -51q79 -1 143 29t105 78.5t69 114t39.5 132t11.5 136.5v22q0 161 -65 274z" />
    <glyph glyph-name="Ugrave" unicode="&#xd9;" horiz-adv-x="1456" 
d="M827 1565h-223l-166 266h269zM731 -29q-142 0 -254.5 48.5t-184 134t-108.5 197t-37 241.5v842h287v-871q0 -97 31.5 -173.5t100 -125t165.5 -49.5q141 -1 218 98.5t77 249.5v871h283v-842q0 -132 -35 -243t-104.5 -196.5t-181.5 -133.5t-257 -48z" />
    <glyph glyph-name="Uacute" unicode="&#xda;" horiz-adv-x="1456" 
d="M846 1565h-223l112 266h271zM731 -29q-142 0 -254.5 48.5t-184 134t-108.5 197t-37 241.5v842h287v-871q0 -97 31.5 -173.5t100 -125t165.5 -49.5q141 -1 218 98.5t77 249.5v871h283v-842q0 -132 -35 -243t-104.5 -196.5t-181.5 -133.5t-257 -48z" />
    <glyph glyph-name="Ucircumflex" unicode="&#xdb;" horiz-adv-x="1456" 
d="M604 1544h-225l209 303h280l209 -303h-225l-117 168h-14zM731 -29q-142 0 -254.5 48.5t-184 134t-108.5 197t-37 241.5v842h287v-871q0 -97 31.5 -173.5t100 -125t165.5 -49.5q141 -1 218 98.5t77 249.5v871h283v-842q0 -132 -35 -243t-104.5 -196.5t-181.5 -133.5
t-257 -48z" />
    <glyph glyph-name="Udieresis" unicode="&#xdc;" horiz-adv-x="1456" 
d="M684 1565h-211v211h211v-211zM989 1565h-213v211h213v-211zM731 -29q-142 0 -254.5 48.5t-184 134t-108.5 197t-37 241.5v842h287v-871q0 -97 31.5 -173.5t100 -125t165.5 -49.5q141 -1 218 98.5t77 249.5v871h283v-842q0 -132 -35 -243t-104.5 -196.5t-181.5 -133.5
t-257 -48z" />
    <glyph glyph-name="Yacute" unicode="&#xdd;" horiz-adv-x="1380" 
d="M801 1565h-223l112 266h271zM834 0h-287v541l-504 893h305l336 -617h12l336 617h305l-503 -893v-541z" />
    <glyph glyph-name="Thorn" unicode="&#xde;" horiz-adv-x="1316" 
d="M434 0h-287v1434h287v-263h322q240 0 369.5 -120t129.5 -342q0 -204 -132 -319.5t-367 -115.5h-322v-274zM434 928v-410h309q224 0 224 205t-224 205h-309z" />
    <glyph glyph-name="germandbls" unicode="&#xdf;" horiz-adv-x="1112" 
d="M635 -20q-65 0 -117 12v227q20 -7 68 -10q103 -7 155 48t52 161q0 65 -18.5 107t-56.5 63.5t-82 29t-108 7.5v243q187 0 187 189q0 76 -42 120t-124 44q-83 0 -120.5 -57t-37.5 -140v-1026h-258l-2 991q0 220 107 346.5t317 126.5q192 0 301 -106.5t109 -280.5
q0 -112 -46.5 -187t-111.5 -116v-6q231 -74 231 -365q0 -93 -28 -168t-70.5 -121t-98 -77t-106.5 -43t-100 -12z" />
    <glyph glyph-name="agrave" unicode="&#xe0;" horiz-adv-x="1161" 
d="M705 1155h-224l-168 266h271zM422 -29q-151 0 -244.5 83.5t-93.5 213.5q0 75 26 132.5t76.5 95t113 61t146.5 39.5l232 41q47 9 47 45v10q0 48 -45 83.5t-111 35.5t-111 -32t-59 -83h-284q9 151 138 254t327 103q202 0 325 -96t123 -261v-696h-266v37q0 47 24 106l15 35
l-2 2l-37 -57q-48 -76 -142.5 -114t-197.5 -38zM514 186q87 0 150 48t63 122v107l-221 -45q-69 -14 -101 -43t-32 -82q0 -47 39.5 -77t101.5 -30z" />
    <glyph glyph-name="aacute" unicode="&#xe1;" horiz-adv-x="1161" 
d="M688 1155h-223l115 266h270zM422 -29q-151 0 -244.5 83.5t-93.5 213.5q0 75 26 132.5t76.5 95t113 61t146.5 39.5l232 41q47 9 47 45v10q0 48 -45 83.5t-111 35.5t-111 -32t-59 -83h-284q9 151 138 254t327 103q202 0 325 -96t123 -261v-696h-266v37q0 47 24 106l15 35
l-2 2l-37 -57q-48 -76 -142.5 -114t-197.5 -38zM514 186q87 0 150 48t63 122v107l-221 -45q-69 -14 -101 -43t-32 -82q0 -47 39.5 -77t101.5 -30z" />
    <glyph glyph-name="acircumflex" unicode="&#xe2;" horiz-adv-x="1161" 
d="M455 1137h-226l209 303h281l209 -303h-226l-116 168h-15zM422 -29q-151 0 -244.5 83.5t-93.5 213.5q0 75 26 132.5t76.5 95t113 61t146.5 39.5l232 41q47 9 47 45v10q0 48 -45 83.5t-111 35.5t-111 -32t-59 -83h-284q9 151 138 254t327 103q202 0 325 -96t123 -261v-696
h-266v37q0 47 24 106l15 35l-2 2l-37 -57q-48 -76 -142.5 -114t-197.5 -38zM514 186q87 0 150 48t63 122v107l-221 -45q-69 -14 -101 -43t-32 -82q0 -47 39.5 -77t101.5 -30z" />
    <glyph glyph-name="atilde" unicode="&#xe3;" horiz-adv-x="1161" 
d="M375 1137h-174q-6 163 53.5 254.5t173.5 91.5q71 0 147 -66q5 -5 20.5 -20t20.5 -19t16.5 -12t24.5 -14q47 -21 68 7.5t20 125.5h173q17 -346 -218 -346q-82 0 -143 61q-11 11 -34 34.5t-32 31.5t-25 15t-32 5q-64 -7 -59 -149zM422 -29q-151 0 -244.5 83.5t-93.5 213.5
q0 75 26 132.5t76.5 95t113 61t146.5 39.5l232 41q47 9 47 45v10q0 48 -45 83.5t-111 35.5t-111 -32t-59 -83h-284q9 151 138 254t327 103q202 0 325 -96t123 -261v-696h-266v37q0 47 24 106l15 35l-2 2l-37 -57q-48 -76 -142.5 -114t-197.5 -38zM514 186q87 0 150 48
t63 122v107l-221 -45q-69 -14 -101 -43t-32 -82q0 -47 39.5 -77t101.5 -30z" />
    <glyph glyph-name="adieresis" unicode="&#xe4;" horiz-adv-x="1161" 
d="M537 1169h-213v211h213v-211zM840 1169h-211v211h211v-211zM422 -29q-151 0 -244.5 83.5t-93.5 213.5q0 75 26 132.5t76.5 95t113 61t146.5 39.5l232 41q47 9 47 45v10q0 48 -45 83.5t-111 35.5t-111 -32t-59 -83h-284q9 151 138 254t327 103q202 0 325 -96t123 -261
v-696h-266v37q0 47 24 106l15 35l-2 2l-37 -57q-48 -76 -142.5 -114t-197.5 -38zM514 186q87 0 150 48t63 122v107l-221 -45q-69 -14 -101 -43t-32 -82q0 -47 39.5 -77t101.5 -30z" />
    <glyph glyph-name="aring" unicode="&#xe5;" horiz-adv-x="1161" 
d="M580 1104q-98 0 -165 65t-67 160t67.5 161t164.5 66q99 0 165 -65t66 -162q0 -95 -66.5 -160t-164.5 -65zM582 1241q34 0 58 26.5t24 61.5q0 37 -24 62.5t-58 25.5q-37 0 -62.5 -25.5t-25.5 -62.5q0 -38 25.5 -63t62.5 -25zM422 -29q-151 0 -244.5 83.5t-93.5 213.5
q0 75 26 132.5t76.5 95t113 61t146.5 39.5l232 41q47 9 47 45v10q0 48 -45 83.5t-111 35.5t-111 -32t-59 -83h-284q9 151 138 254t327 103q202 0 325 -96t123 -261v-696h-266v37q0 47 24 106l15 35l-2 2l-37 -57q-48 -76 -142.5 -114t-197.5 -38zM514 186q87 0 150 48
t63 122v107l-221 -45q-69 -14 -101 -43t-32 -82q0 -47 39.5 -77t101.5 -30z" />
    <glyph glyph-name="ae" unicode="&#xe6;" horiz-adv-x="1476" 
d="M420 -29q-154 0 -249 88.5t-95 231.5q0 146 95.5 229t274.5 94l156 9v61q0 88 -30 131t-95 43q-57 0 -92 -41.5t-37 -107.5h-239q-6 149 100 246.5t272 97.5q78 0 148.5 -32t113.5 -87q39 55 112 87t157 32q189 0 291 -133t102 -379v-99h-549v-28q0 -114 44.5 -180
t113.5 -66q53 0 90.5 37t66.5 119h232q-29 -173 -128.5 -263t-262.5 -90q-85 0 -162 39.5t-125 104.5q-110 -144 -305 -144zM864 631h281q0 108 -39 168.5t-102 60.5q-59 0 -98 -59.5t-42 -169.5zM442 168q82 0 122 52.5t40 144.5v73l-137 -8q-59 -3 -98 -40t-39 -89
q0 -67 30 -100t82 -33z" />
    <glyph glyph-name="ccedilla" unicode="&#xe7;" horiz-adv-x="1136" 
d="M588 184q86 0 143 61t60 152h288q-3 -178 -122.5 -293.5t-313.5 -130.5l-14 -49q75 -11 116.5 -60t32.5 -120q-7 -68 -57 -104.5t-125 -36.5q-94 0 -184 30l34 113l105 -16q5 -1 13 -0.5t23 7.5t19 23q6 22 -16 35q-12 5 -123 21l45 159q-197 23 -312.5 158.5
t-115.5 345.5v72q0 218 141.5 359.5t362.5 142.5q211 -2 349.5 -121t141.5 -305h-288q-3 95 -59 155t-142 60q-96 0 -155.5 -73t-59.5 -185v-142q0 -110 59 -184t154 -74z" />
    <glyph glyph-name="egrave" unicode="&#xe8;" horiz-adv-x="1167" 
d="M713 1155h-224l-167 266h270zM586 -29q-228 0 -365 138.5t-137 369.5v72q0 144 63.5 258t178 178.5t260.5 65.5q222 -2 361.5 -141.5t139.5 -360.5v-100h-712v-19q0 -106 57 -177t154 -71q71 0 122 43.5t76 124.5h289q-34 -178 -163.5 -279.5t-323.5 -101.5zM377 631h416
q-12 98 -66.5 154.5t-138.5 56.5t-141 -56.5t-70 -154.5z" />
    <glyph glyph-name="eacute" unicode="&#xe9;" horiz-adv-x="1167" 
d="M694 1155h-223l115 266h270zM586 -29q-228 0 -365 138.5t-137 369.5v72q0 144 63.5 258t178 178.5t260.5 65.5q222 -2 361.5 -141.5t139.5 -360.5v-100h-712v-19q0 -106 57 -177t154 -71q71 0 122 43.5t76 124.5h289q-34 -178 -163.5 -279.5t-323.5 -101.5zM377 631h416
q-12 98 -66.5 154.5t-138.5 56.5t-141 -56.5t-70 -154.5z" />
    <glyph glyph-name="ecircumflex" unicode="&#xea;" horiz-adv-x="1167" 
d="M463 1137h-225l208 303h281l209 -303h-225l-117 168h-14zM586 -29q-228 0 -365 138.5t-137 369.5v72q0 144 63.5 258t178 178.5t260.5 65.5q222 -2 361.5 -141.5t139.5 -360.5v-100h-712v-19q0 -106 57 -177t154 -71q71 0 122 43.5t76 124.5h289q-34 -178 -163.5 -279.5
t-323.5 -101.5zM377 631h416q-12 98 -66.5 154.5t-138.5 56.5t-141 -56.5t-70 -154.5z" />
    <glyph glyph-name="edieresis" unicode="&#xeb;" horiz-adv-x="1167" 
d="M545 1169h-213v211h213v-211zM848 1169h-211v211h211v-211zM586 -29q-228 0 -365 138.5t-137 369.5v72q0 144 63.5 258t178 178.5t260.5 65.5q222 -2 361.5 -141.5t139.5 -360.5v-100h-712v-19q0 -106 57 -177t154 -71q71 0 122 43.5t76 124.5h289
q-34 -178 -163.5 -279.5t-323.5 -101.5zM377 631h416q-12 98 -66.5 154.5t-138.5 56.5t-141 -56.5t-70 -154.5z" />
    <glyph glyph-name="igrave" unicode="&#xec;" horiz-adv-x="489" 
d="M371 1155h-224l-167 266h270zM375 0h-260v1024h260v-1024z" />
    <glyph glyph-name="iacute" unicode="&#xed;" horiz-adv-x="489" 
d="M354 1155h-223l115 266h270zM375 0h-260v1024h260v-1024z" />
    <glyph glyph-name="icircumflex" unicode="&#xee;" horiz-adv-x="489" 
d="M121 1137h-225l208 303h281l209 -303h-225l-117 168h-14zM375 0h-260v1024h260v-1024z" />
    <glyph glyph-name="idieresis" unicode="&#xef;" horiz-adv-x="489" 
d="M205 1169h-213v211h213v-211zM508 1169h-211v211h211v-211zM375 0h-260v1024h260v-1024z" />
    <glyph glyph-name="eth" unicode="&#xf0;" horiz-adv-x="1122" 
d="M553 -27q-221 0 -350 129.5t-129 356.5v28q0 224 104.5 353t284.5 129q178 0 248 -111h2q-44 144 -168 283l-250 -103l-45 133l186 76q-88 88 -219 187h315q73 -49 125 -95l232 95l47 -134l-166 -65q126 -139 202.5 -306t76.5 -351v-115q0 -235 -127 -362.5t-369 -127.5z
M561 184q93 0 146 74t53 203v76q0 129 -53.5 202.5t-147.5 73.5q-92 0 -144.5 -73t-52.5 -203v-76q0 -129 53.5 -203t145.5 -74z" />
    <glyph glyph-name="ntilde" unicode="&#xf1;" horiz-adv-x="1200" 
d="M406 1137h-175q-6 163 54 254.5t174 91.5q71 0 147 -66q5 -5 20.5 -20t20.5 -19t16.5 -12t24.5 -14q47 -21 68 7.5t20 125.5h172q17 -346 -217 -346q-82 0 -143 61q-11 11 -34 34.5t-32 31.5t-25 15t-32 5q-64 -7 -59 -149zM422 0h-289v1024h289v-25q-3 -48 -33 -102
l-8 -18l4 -5l37 44q45 63 117 99t157 36q186 2 283.5 -117t97.5 -348v-588h-289v602q0 240 -174 240q-89 0 -140.5 -67t-51.5 -183v-592z" />
    <glyph glyph-name="ograve" unicode="&#xf2;" horiz-adv-x="1169" 
d="M713 1155h-224l-167 266h270zM584 -29q-227 0 -363.5 139.5t-136.5 370.5v68q0 145 63.5 259.5t177.5 179t259 65.5q222 -1 361.5 -141.5t139.5 -362.5v-68q0 -232 -136.5 -371t-364.5 -139zM584 184q96 0 153.5 75.5t57.5 182.5v140q0 110 -56.5 185t-150.5 75
q-98 0 -155.5 -74.5t-57.5 -185.5v-140q0 -107 57 -182.5t152 -75.5z" />
    <glyph glyph-name="oacute" unicode="&#xf3;" horiz-adv-x="1169" 
d="M694 1155h-223l115 266h270zM584 -29q-227 0 -363.5 139.5t-136.5 370.5v68q0 145 63.5 259.5t177.5 179t259 65.5q222 -1 361.5 -141.5t139.5 -362.5v-68q0 -232 -136.5 -371t-364.5 -139zM584 184q96 0 153.5 75.5t57.5 182.5v140q0 110 -56.5 185t-150.5 75
q-98 0 -155.5 -74.5t-57.5 -185.5v-140q0 -107 57 -182.5t152 -75.5z" />
    <glyph glyph-name="ocircumflex" unicode="&#xf4;" horiz-adv-x="1169" 
d="M461 1137h-225l208 303h281l209 -303h-225l-117 168h-14zM584 -29q-227 0 -363.5 139.5t-136.5 370.5v68q0 145 63.5 259.5t177.5 179t259 65.5q222 -1 361.5 -141.5t139.5 -362.5v-68q0 -232 -136.5 -371t-364.5 -139zM584 184q96 0 153.5 75.5t57.5 182.5v140
q0 110 -56.5 185t-150.5 75q-98 0 -155.5 -74.5t-57.5 -185.5v-140q0 -107 57 -182.5t152 -75.5z" />
    <glyph glyph-name="otilde" unicode="&#xf5;" horiz-adv-x="1169" 
d="M383 1137h-174q-6 163 53.5 254.5t173.5 91.5q72 0 148 -66q5 -5 20.5 -20t20.5 -19t16.5 -12t24.5 -14q47 -21 68 7.5t20 125.5h172q17 -346 -217 -346q-83 0 -144 61q-11 11 -34 34.5t-32 31.5t-25 15t-32 5q-64 -7 -59 -149zM584 -29q-227 0 -363.5 139.5
t-136.5 370.5v68q0 145 63.5 259.5t177.5 179t259 65.5q222 -1 361.5 -141.5t139.5 -362.5v-68q0 -232 -136.5 -371t-364.5 -139zM584 184q96 0 153.5 75.5t57.5 182.5v140q0 110 -56.5 185t-150.5 75q-98 0 -155.5 -74.5t-57.5 -185.5v-140q0 -107 57 -182.5t152 -75.5z
" />
    <glyph glyph-name="odieresis" unicode="&#xf6;" horiz-adv-x="1169" 
d="M545 1169h-213v211h213v-211zM848 1169h-211v211h211v-211zM584 -29q-227 0 -363.5 139.5t-136.5 370.5v68q0 145 63.5 259.5t177.5 179t259 65.5q222 -1 361.5 -141.5t139.5 -362.5v-68q0 -232 -136.5 -371t-364.5 -139zM584 184q96 0 153.5 75.5t57.5 182.5v140
q0 110 -56.5 185t-150.5 75q-98 0 -155.5 -74.5t-57.5 -185.5v-140q0 -107 57 -182.5t152 -75.5z" />
    <glyph glyph-name="divide" unicode="&#xf7;" horiz-adv-x="1290" 
d="M776 961h-260v260h260v-260zM1149 555h-1008v244h1008v-244zM776 133h-260v260h260v-260z" />
    <glyph glyph-name="oslash" unicode="&#xf8;" horiz-adv-x="1148" 
d="M1044 1026l-96 -127q129 -138 129 -350v-68q0 -232 -136.5 -371t-365.5 -139q-152 0 -272 68l-29 -39h-165l92 123q-127 136 -127 358v68q0 220 140.5 361t360.5 143q145 0 269 -70l33 43h167zM367 582v-140q0 -39 10 -84l325 437q-53 47 -122 47q-98 0 -155.5 -74.5
t-57.5 -185.5zM786 442v140q0 41 -10 86l-327 -437q53 -47 126 -47q96 0 153.5 75.5t57.5 182.5z" />
    <glyph glyph-name="ugrave" unicode="&#xf9;" horiz-adv-x="1202" 
d="M709 1155h-224l-168 266h271zM506 -29q-186 -2 -283.5 117t-97.5 348v588h289v-602q0 -117 39 -178.5t114 -61.5q91 0 152 68.5t61 181.5v592h289v-1024h-289v29q6 48 31 100l10 16l-4 5l-37 -44q-45 -63 -117 -99t-157 -36z" />
    <glyph glyph-name="uacute" unicode="&#xfa;" horiz-adv-x="1202" 
d="M690 1155h-223l115 266h270zM506 -29q-186 -2 -283.5 117t-97.5 348v588h289v-602q0 -117 39 -178.5t114 -61.5q91 0 152 68.5t61 181.5v592h289v-1024h-289v29q6 48 31 100l10 16l-4 5l-37 -44q-45 -63 -117 -99t-157 -36z" />
    <glyph glyph-name="ucircumflex" unicode="&#xfb;" horiz-adv-x="1202" 
d="M459 1137h-226l209 303h281l209 -303h-225l-117 168h-15zM506 -29q-186 -2 -283.5 117t-97.5 348v588h289v-602q0 -117 39 -178.5t114 -61.5q91 0 152 68.5t61 181.5v592h289v-1024h-289v29q6 48 31 100l10 16l-4 5l-37 -44q-45 -63 -117 -99t-157 -36z" />
    <glyph glyph-name="udieresis" unicode="&#xfc;" horiz-adv-x="1202" 
d="M541 1169h-213v211h213v-211zM844 1169h-211v211h211v-211zM506 -29q-186 -2 -283.5 117t-97.5 348v588h289v-602q0 -117 39 -178.5t114 -61.5q91 0 152 68.5t61 181.5v592h289v-1024h-289v29q6 48 31 100l10 16l-4 5l-37 -44q-45 -63 -117 -99t-157 -36z" />
    <glyph glyph-name="yacute" unicode="&#xfd;" horiz-adv-x="1140" 
d="M668 1155h-224l115 266h270zM295 -438q-73 0 -123 12l2 231q58 -6 80 -6q50 0 80 24.5t55 84.5l37 90l-385 1026h274l248 -709h15l247 709h275l-412 -1087q-39 -102 -71 -164t-77 -114t-104.5 -74.5t-140.5 -22.5z" />
    <glyph glyph-name="thorn" unicode="&#xfe;" horiz-adv-x="1191" 
d="M420 -410h-289v1844h289v-455q-3 -44 -23 -107l-14 -30l6 -4l31 49q37 77 115.5 121.5t164.5 44.5q193 0 306.5 -136t113.5 -374v-68q0 -225 -115 -364.5t-305 -139.5q-83 0 -157.5 40t-112.5 112h-10v-533zM633 182q86 0 142 79t56 210v80q0 131 -57 210t-145 79
q-93 0 -150 -75t-57 -200v-106q0 -125 58.5 -201t152.5 -76z" />
    <glyph glyph-name="ydieresis" unicode="&#xff;" horiz-adv-x="1140" 
d="M518 1169h-213v211h213v-211zM821 1169h-211v211h211v-211zM295 -438q-73 0 -123 12l2 231q58 -6 80 -6q50 0 80 24.5t55 84.5l37 90l-385 1026h274l248 -709h15l247 709h275l-412 -1087q-39 -102 -71 -164t-77 -114t-104.5 -74.5t-140.5 -22.5z" />
    <glyph glyph-name="Amacron" unicode="&#x100;" horiz-adv-x="1519" 
d="M1079 1565h-639v186h639v-186zM338 0h-291l545 1434h334l544 -1434h-288l-121 313h-604zM754 1118l-205 -561h422l-205 561h-12z" />
    <glyph glyph-name="amacron" unicode="&#x101;" horiz-adv-x="1161" 
d="M899 1155h-639v186h639v-186zM422 -29q-151 0 -244.5 83.5t-93.5 213.5q0 75 26 132.5t76.5 95t113 61t146.5 39.5l232 41q47 9 47 45v10q0 48 -45 83.5t-111 35.5t-111 -32t-59 -83h-284q9 151 138 254t327 103q202 0 325 -96t123 -261v-696h-266v37q0 47 24 106l15 35
l-2 2l-37 -57q-48 -76 -142.5 -114t-197.5 -38zM514 186q87 0 150 48t63 122v107l-221 -45q-69 -14 -101 -43t-32 -82q0 -47 39.5 -77t101.5 -30z" />
    <glyph glyph-name="Abreve" unicode="&#x102;" horiz-adv-x="1519" 
d="M760 1524q-154 0 -245 77.5t-95 223.5h188q4 -67 45.5 -107.5t106.5 -40.5q63 0 104 40.5t45 107.5h189q-3 -146 -94 -223.5t-244 -77.5zM338 0h-291l545 1434h334l544 -1434h-288l-121 313h-604zM754 1118l-205 -561h422l-205 561h-12z" />
    <glyph glyph-name="abreve" unicode="&#x103;" horiz-adv-x="1161" 
d="M578 1116q-153 0 -244 78.5t-94 224.5h188q4 -67 45.5 -107t104.5 -40q65 0 106 40t45 107h189q-4 -147 -95 -225t-245 -78zM422 -29q-151 0 -244.5 83.5t-93.5 213.5q0 75 26 132.5t76.5 95t113 61t146.5 39.5l232 41q47 9 47 45v10q0 48 -45 83.5t-111 35.5t-111 -32
t-59 -83h-284q9 151 138 254t327 103q202 0 325 -96t123 -261v-696h-266v37q0 47 24 106l15 35l-2 2l-37 -57q-48 -76 -142.5 -114t-197.5 -38zM514 186q87 0 150 48t63 122v107l-221 -45q-69 -14 -101 -43t-32 -82q0 -47 39.5 -77t101.5 -30z" />
    <glyph glyph-name="Aogonek" unicode="&#x104;" horiz-adv-x="1519" 
d="M1356 -162q7 -45 102 -28v-172q-25 -9 -70 -14.5t-83 -4.5q-76 0 -124 36t-48 105q0 58 38.5 131.5t77.5 108.5h-67l-121 313h-604l-119 -313h-291l545 1434h334l544 -1434h-32q-48 -68 -67 -103t-15 -59zM754 1118l-205 -561h422l-205 561h-12z" />
    <glyph glyph-name="aogonek" unicode="&#x105;" horiz-adv-x="1124" 
d="M938 -162q7 -45 102 -28v-172q-62 -22 -153 -19q-76 0 -124 36t-48 105q0 58 38.5 131.5t77.5 108.5h-69v37q0 47 24 106l15 35l-2 2l-37 -57q-48 -76 -142.5 -114t-197.5 -38q-151 0 -244.5 83.5t-93.5 213.5q0 75 26 132.5t76.5 95t113 61t146.5 39.5l232 41
q47 9 47 45v10q0 48 -45 83.5t-111 35.5t-111 -32t-59 -83h-284q9 151 138 254t327 103q202 0 325 -96t123 -261v-696h-8q-48 -68 -67 -103t-15 -59zM727 356v107l-221 -45q-69 -14 -101 -43t-32 -82q0 -47 39.5 -77t101.5 -30q87 0 150 48t63 122z" />
    <glyph glyph-name="Cacute" unicode="&#x106;" horiz-adv-x="1445" 
d="M850 1565h-223l112 266h271zM743 -29q-138 0 -251 43.5t-187.5 115.5t-126 168t-74 198t-22.5 209v20q0 105 22.5 206.5t74 198.5t126 170t188 117.5t250.5 44.5q135 0 250 -41t193.5 -110.5t125.5 -160.5t56 -192h-293q-14 117 -105.5 189.5t-226.5 71.5
q-81 -1 -146 -32t-106.5 -80t-69 -114.5t-39 -131.5t-11.5 -134v-22q0 -70 11.5 -136t39 -131t69 -113.5t106.5 -78.5t146 -31q135 -1 227 71t107 187h293q-9 -101 -56.5 -191.5t-126 -160t-194 -110t-250.5 -40.5z" />
    <glyph glyph-name="cacute" unicode="&#x107;" horiz-adv-x="1161" 
d="M690 1155h-223l115 266h270zM588 -29q-229 0 -366.5 139t-137.5 369v72q0 218 141.5 359.5t362.5 142.5q211 -2 349.5 -121t141.5 -305h-288q-3 95 -59 155t-142 60q-96 0 -155.5 -73t-59.5 -185v-142q0 -110 59 -184t154 -74q86 0 143 61t60 152h288
q-3 -191 -138.5 -308.5t-352.5 -117.5z" />
    <glyph glyph-name="Cdotaccent" unicode="&#x10a;" horiz-adv-x="1445" 
d="M846 1565h-225v227h225v-227zM743 -29q-138 0 -251 43.5t-187.5 115.5t-126 168t-74 198t-22.5 209v20q0 105 22.5 206.5t74 198.5t126 170t188 117.5t250.5 44.5q135 0 250 -41t193.5 -110.5t125.5 -160.5t56 -192h-293q-14 117 -105.5 189.5t-226.5 71.5
q-81 -1 -146 -32t-106.5 -80t-69 -114.5t-39 -131.5t-11.5 -134v-22q0 -70 11.5 -136t39 -131t69 -113.5t106.5 -78.5t146 -31q135 -1 227 71t107 187h293q-9 -101 -56.5 -191.5t-126 -160t-194 -110t-250.5 -40.5z" />
    <glyph glyph-name="cdotaccent" unicode="&#x10b;" horiz-adv-x="1161" 
d="M694 1155h-225v227h225v-227zM588 -29q-229 0 -366.5 139t-137.5 369v72q0 218 141.5 359.5t362.5 142.5q211 -2 349.5 -121t141.5 -305h-288q-3 95 -59 155t-142 60q-96 0 -155.5 -73t-59.5 -185v-142q0 -110 59 -184t154 -74q86 0 143 61t60 152h288
q-3 -191 -138.5 -308.5t-352.5 -117.5z" />
    <glyph glyph-name="Ccaron" unicode="&#x10c;" horiz-adv-x="1445" 
d="M872 1544h-280l-209 305h225l117 -168h14l117 168h225zM743 -29q-138 0 -251 43.5t-187.5 115.5t-126 168t-74 198t-22.5 209v20q0 105 22.5 206.5t74 198.5t126 170t188 117.5t250.5 44.5q135 0 250 -41t193.5 -110.5t125.5 -160.5t56 -192h-293q-14 117 -105.5 189.5
t-226.5 71.5q-81 -1 -146 -32t-106.5 -80t-69 -114.5t-39 -131.5t-11.5 -134v-22q0 -70 11.5 -136t39 -131t69 -113.5t106.5 -78.5t146 -31q135 -1 227 71t107 187h293q-9 -101 -56.5 -191.5t-126 -160t-194 -110t-250.5 -40.5z" />
    <glyph glyph-name="ccaron" unicode="&#x10d;" horiz-adv-x="1161" 
d="M723 1135h-281l-209 303h226l116 -166h15l117 166h225zM588 -29q-229 0 -366.5 139t-137.5 369v72q0 218 141.5 359.5t362.5 142.5q211 -2 349.5 -121t141.5 -305h-288q-3 95 -59 155t-142 60q-96 0 -155.5 -73t-59.5 -185v-142q0 -110 59 -184t154 -74q86 0 143 61
t60 152h288q-3 -191 -138.5 -308.5t-352.5 -117.5z" />
    <glyph glyph-name="Dcaron" unicode="&#x10e;" horiz-adv-x="1427" 
d="M801 1544h-281l-209 305h226l116 -168h15l116 168h226zM745 0h-598v1434h598q177 0 315.5 -90.5t215 -253.5t76.5 -373t-76.5 -373t-215 -253.5t-315.5 -90.5zM434 1190v-946h246q182 0 282.5 127t100.5 346t-100.5 346t-282.5 127h-246z" />
    <glyph glyph-name="dcaron" unicode="&#x10f;" horiz-adv-x="1394" 
d="M494 -29q-190 0 -305 140.5t-115 363.5v68q0 238 113.5 375t306.5 137q81 0 157.5 -41.5t116.5 -112.5h6v533h289v-1432h-289v47q1 25 31 131l4 19l-4 2l-31 -66q-35 -77 -114 -120.5t-166 -43.5zM1315 1083h-170v351h201zM561 182q94 0 152.5 76t58.5 201v106
q0 125 -57 200t-150 75q-88 0 -145.5 -79t-57.5 -210v-80q0 -131 56.5 -210t142.5 -79z" />
    <glyph glyph-name="Dcroat" unicode="&#x110;" horiz-adv-x="1441" 
d="M745 0h-598v606h-86v230h86v598h598q177 0 315.5 -90.5t215 -253.5t76.5 -373t-76.5 -373t-215 -253.5t-315.5 -90.5zM434 606v-362h246q182 0 282.5 127t100.5 346t-100.5 346t-282.5 127h-246v-354h240v-230h-240z" />
    <glyph glyph-name="dcroat" unicode="&#x111;" horiz-adv-x="1193" 
d="M494 -29q-193 0 -306.5 136t-113.5 374v70q0 223 115 363.5t305 140.5q88 0 166.5 -44t113.5 -122l31 -64l6 4l-18 58q-19 58 -19 125v104h-256v199h256v119h289v-119h76v-199h-76v-1116h-289v125h-10q-40 -72 -114.5 -113t-155.5 -41zM565 184q93 0 150 76t57 201v104
q0 125 -58.5 201t-152.5 76q-87 0 -143 -78.5t-56 -210.5v-80q0 -131 57.5 -210t145.5 -79z" />
    <glyph glyph-name="Emacron" unicode="&#x112;" horiz-adv-x="1306" 
d="M1008 1565h-639v186h639v-186zM1190 0h-1043v1434h1043v-244h-756v-346h690v-244h-690v-356h756v-244z" />
    <glyph glyph-name="emacron" unicode="&#x113;" horiz-adv-x="1167" 
d="M905 1155h-639v186h639v-186zM586 -29q-228 0 -365 138.5t-137 369.5v72q0 144 63.5 258t178 178.5t260.5 65.5q222 -2 361.5 -141.5t139.5 -360.5v-100h-712v-19q0 -106 57 -177t154 -71q71 0 122 43.5t76 124.5h289q-34 -178 -163.5 -279.5t-323.5 -101.5zM377 631h416
q-12 98 -66.5 154.5t-138.5 56.5t-141 -56.5t-70 -154.5z" />
    <glyph glyph-name="Edotaccent" unicode="&#x116;" horiz-adv-x="1306" 
d="M801 1565h-226v227h226v-227zM1190 0h-1043v1434h1043v-244h-756v-346h690v-244h-690v-356h756v-244z" />
    <glyph glyph-name="edotaccent" unicode="&#x117;" horiz-adv-x="1167" 
d="M698 1155h-225v227h225v-227zM586 -29q-228 0 -365 138.5t-137 369.5v72q0 144 63.5 258t178 178.5t260.5 65.5q222 -2 361.5 -141.5t139.5 -360.5v-100h-712v-19q0 -106 57 -177t154 -71q71 0 122 43.5t76 124.5h289q-34 -178 -163.5 -279.5t-323.5 -101.5zM377 631h416
q-12 98 -66.5 154.5t-138.5 56.5t-141 -56.5t-70 -154.5z" />
    <glyph glyph-name="Eogonek" unicode="&#x118;" horiz-adv-x="1193" 
d="M1190 1434v-244h-756v-346h690v-244h-690v-356h756v-244h-143q-46 -66 -65 -102t-15 -60q3 -26 40 -31t60 3v-172q-62 -22 -154 -19q-75 0 -122.5 36t-47.5 105q0 58 39 131t78 109h-713v1434h1043z" />
    <glyph glyph-name="eogonek" unicode="&#x119;" horiz-adv-x="1150" 
d="M1087 551v-100h-712v-19q0 -106 57 -177t154 -71q71 0 122 43.5t76 124.5h289q-31 -158 -137 -256.5t-266 -118.5q-42 -62 -59.5 -95t-14.5 -54q4 -27 41.5 -33t60.5 2v-172q-70 -21 -153 -18q-75 2 -123.5 38t-48.5 103q0 56 34.5 124.5t73.5 107.5q-185 31 -291 164
t-106 335v72q0 144 63.5 258t178 178.5t260.5 65.5q222 -2 361.5 -141.5t139.5 -360.5zM588 842q-84 0 -141 -56.5t-70 -154.5h416q-12 98 -66.5 154.5t-138.5 56.5z" />
    <glyph glyph-name="Ecaron" unicode="&#x11a;" horiz-adv-x="1306" 
d="M829 1544h-280l-209 305h225l117 -168h14l117 168h225zM1190 0h-1043v1434h1043v-244h-756v-346h690v-244h-690v-356h756v-244z" />
    <glyph glyph-name="ecaron" unicode="&#x11b;" horiz-adv-x="1167" 
d="M725 1135h-281l-208 303h225l117 -166h14l117 166h225zM586 -29q-228 0 -365 138.5t-137 369.5v72q0 144 63.5 258t178 178.5t260.5 65.5q222 -2 361.5 -141.5t139.5 -360.5v-100h-712v-19q0 -106 57 -177t154 -71q71 0 122 43.5t76 124.5h289q-34 -178 -163.5 -279.5
t-323.5 -101.5zM377 631h416q-12 98 -66.5 154.5t-138.5 56.5t-141 -56.5t-70 -154.5z" />
    <glyph glyph-name="Gbreve" unicode="&#x11e;" horiz-adv-x="1497" 
d="M733 1524q-154 0 -245 77.5t-95 223.5h189q5 -68 46 -108t105 -40q63 0 104.5 40.5t45.5 107.5h188q-3 -146 -94 -223.5t-244 -77.5zM700 -27q-129 0 -235 43.5t-176 115.5t-117.5 168.5t-68.5 198t-21 208.5v20q0 105 22.5 206.5t74 198t126 169.5t188 117t250.5 44
q136 0 252 -42t194.5 -113t126 -163t56.5 -194h-293q-14 118 -108.5 194t-227.5 75q-100 -1 -175.5 -46.5t-116.5 -120t-60.5 -156.5t-19.5 -169v-20q0 -70 11.5 -136.5t39 -131.5t69 -113t106.5 -78t146 -31q149 0 244.5 92t95.5 230v10h-305v244h594v-793h-244v90
q0 67 19 125l20 61l-6 5l-33 -66q-47 -110 -160 -176t-268 -66z" />
    <glyph glyph-name="gbreve" unicode="&#x11f;" horiz-adv-x="1202" 
d="M596 1116q-153 0 -244 78.5t-94 224.5h188q4 -67 45.5 -107t104.5 -40q65 0 106.5 40t45.5 107h188q-4 -147 -95 -225t-245 -78zM590 -438q-185 0 -312.5 81.5t-150.5 196.5l260 43q19 -54 71.5 -84t125.5 -30q86 0 142 53t56 133v156h-6q-40 -69 -114 -104.5t-160 -35.5
q-193 0 -305.5 136t-112.5 374v70q0 224 114 364t304 140q88 0 167 -44t113 -122l31 -62l4 2l-16 54q-16 52 -19 96v45h289v-1063q0 -177 -133.5 -288t-347.5 -111zM575 184q91 0 148 76t57 201v104q0 125 -58 201t-151 76q-88 0 -144 -78t-56 -211v-80q0 -131 57.5 -210
t146.5 -79z" />
    <glyph glyph-name="Gdotaccent" unicode="&#x120;" horiz-adv-x="1497" 
d="M846 1565h-225v227h225v-227zM700 -27q-129 0 -235 43.5t-176 115.5t-117.5 168.5t-68.5 198t-21 208.5v20q0 105 22.5 206.5t74 198t126 169.5t188 117t250.5 44q136 0 252 -42t194.5 -113t126 -163t56.5 -194h-293q-14 118 -108.5 194t-227.5 75q-100 -1 -175.5 -46.5
t-116.5 -120t-60.5 -156.5t-19.5 -169v-20q0 -70 11.5 -136.5t39 -131.5t69 -113t106.5 -78t146 -31q149 0 244.5 92t95.5 230v10h-305v244h594v-793h-244v90q0 67 19 125l20 61l-6 5l-33 -66q-47 -110 -160 -176t-268 -66z" />
    <glyph glyph-name="gdotaccent" unicode="&#x121;" horiz-adv-x="1202" 
d="M709 1155h-226v227h226v-227zM590 -438q-185 0 -312.5 81.5t-150.5 196.5l260 43q19 -54 71.5 -84t125.5 -30q86 0 142 53t56 133v156h-6q-40 -69 -114 -104.5t-160 -35.5q-193 0 -305.5 136t-112.5 374v70q0 224 114 364t304 140q88 0 167 -44t113 -122l31 -62l4 2
l-16 54q-16 52 -19 96v45h289v-1063q0 -177 -133.5 -288t-347.5 -111zM575 184q91 0 148 76t57 201v104q0 125 -58 201t-151 76q-88 0 -144 -78t-56 -211v-80q0 -131 57.5 -210t146.5 -79z" />
    <glyph glyph-name="uni0122" unicode="&#x122;" horiz-adv-x="1536" 
d="M700 -27q-129 0 -235 43.5t-176 115.5t-117.5 168.5t-68.5 198t-21 208.5v20q0 105 22.5 206.5t74 198t126 169.5t188 117t250.5 44q136 0 252 -42t194.5 -113t126 -163t56.5 -194h-293q-14 118 -108.5 194t-227.5 75q-100 -1 -175.5 -46.5t-116.5 -120t-60.5 -156.5
t-19.5 -169v-20q0 -70 11.5 -136.5t39 -131.5t69 -113t106.5 -78t146 -31q149 0 244.5 92t95.5 230v10h-305v244h594v-793h-244v90q0 67 19 125l20 61l-6 5l-33 -66q-47 -110 -160 -176t-268 -66zM817 -426h-182l37 330h233z" />
    <glyph glyph-name="uni0123" unicode="&#x123;" horiz-adv-x="1202" 
d="M621 1137h-185l39 329h234zM590 -438q-185 0 -312.5 81.5t-150.5 196.5l260 43q19 -54 71.5 -84t125.5 -30q86 0 142 53t56 133v156h-6q-40 -69 -114 -104.5t-160 -35.5q-193 0 -305.5 136t-112.5 374v70q0 224 114 364t304 140q88 0 167 -44t113 -122l31 -62l4 2l-16 54
q-16 52 -19 96v45h289v-1063q0 -177 -133.5 -288t-347.5 -111zM575 184q91 0 148 76t57 201v104q0 125 -58 201t-151 76q-88 0 -144 -78t-56 -211v-80q0 -131 57.5 -210t146.5 -79z" />
    <glyph glyph-name="Hbar" unicode="&#x126;" horiz-adv-x="1464" 
d="M434 0h-287v1024h-92v199h92v211h287v-211h596v211h287v-211h92v-199h-92v-1024h-287l2 604h-596zM436 1024v-176h596v176h-596z" />
    <glyph glyph-name="hbar" unicode="&#x127;" horiz-adv-x="1206" 
d="M420 0h-289v1124h-78v199h78v111h289v-111h235v-199h-235v-102q0 -72 -31 -127l-10 -18l4 -5l37 43q48 63 119.5 100.5t154.5 37.5q187 1 284 -117.5t97 -347.5v-588h-289v602q0 117 -39 178.5t-114 61.5q-91 0 -152 -68.5t-61 -181.5v-592z" />
    <glyph glyph-name="Imacron" unicode="&#x12a;" horiz-adv-x="581" 
d="M610 1565h-639v186h639v-186zM434 0h-287v1434h287v-1434z" />
    <glyph glyph-name="imacron" unicode="&#x12b;" horiz-adv-x="489" 
d="M565 1155h-639v186h639v-186zM375 0h-260v1024h260v-1024z" />
    <glyph glyph-name="Iogonek" unicode="&#x12e;" horiz-adv-x="581" 
d="M434 1434v-1434h-20q-46 -66 -65 -102t-15 -60q3 -26 40 -31t60 3v-172q-62 -22 -153 -19q-75 0 -122.5 36t-47.5 105q0 58 38.5 131.5t77.5 108.5h-80v1434h287z" />
    <glyph glyph-name="iogonek" unicode="&#x12f;" horiz-adv-x="489" 
d="M131 1382h227v-227h-227v227zM375 1024v-1024h-23q-48 -68 -67 -103t-15 -59q7 -45 103 -28v-172q-62 -22 -154 -19q-76 0 -124 36t-48 105q0 58 39 131t78 109h-49v1024h260z" />
    <glyph glyph-name="Idotaccent" unicode="&#x130;" horiz-adv-x="581" 
d="M403 1565h-225v227h225v-227zM434 0h-287v1434h287v-1434z" />
    <glyph glyph-name="dotlessi" unicode="&#x131;" horiz-adv-x="489" 
d="M375 0h-260v1024h260v-1024z" />
    <glyph glyph-name="uni0136" unicode="&#x136;" horiz-adv-x="1333" 
d="M434 0h-287v1434h287v-680h12l537 680h326l-564 -715l564 -721h-326l-537 686h-12v-684zM723 -426h-184l39 330h233z" />
    <glyph glyph-name="uni0137" unicode="&#x137;" horiz-adv-x="1163" 
d="M422 0h-289v1434h289v-881h10l385 471h299l-411 -496l411 -528h-299l-385 502h-10v-502zM608 -426h-184l39 330h233z" />
    <glyph glyph-name="Lacute" unicode="&#x139;" horiz-adv-x="1196" 
d="M1149 0h-1002v1434h287v-1190h715v-244zM821 1167h-223l113 267h270z" />
    <glyph glyph-name="lacute" unicode="&#x13a;" horiz-adv-x="552" 
d="M385 1565h-223l114 266h271zM420 0h-287v1434h287v-1434z" />
    <glyph glyph-name="uni013B" unicode="&#x13b;" horiz-adv-x="1196" 
d="M1149 0h-1002v1434h287v-1190h715v-244zM674 -426h-182l36 330h234z" />
    <glyph glyph-name="uni013C" unicode="&#x13c;" horiz-adv-x="552" 
d="M420 0h-287v1434h287v-1434zM303 -426h-182l39 330h231z" />
    <glyph glyph-name="Lcaron" unicode="&#x13d;" horiz-adv-x="1196" 
d="M1149 0h-1002v1434h287v-1190h715v-244zM805 1083h-172v351h203z" />
    <glyph glyph-name="lcaron" unicode="&#x13e;" horiz-adv-x="552" 
d="M416 1544h-281l-209 303h226l116 -166h15l116 166h226zM420 0h-287v1434h287v-1434z" />
    <glyph glyph-name="Lslash" unicode="&#x141;" horiz-adv-x="1196" 
d="M1149 0h-1002v539l-120 -66v229l120 66v666h287v-506l305 170v-230l-305 -170v-454h715v-244z" />
    <glyph glyph-name="lslash" unicode="&#x142;" horiz-adv-x="550" 
d="M420 0h-289v543l-115 -68v230l115 69v660h289v-498l112 68v-232l-112 -65v-707z" />
    <glyph glyph-name="Nacute" unicode="&#x143;" horiz-adv-x="1462" 
d="M848 1565h-223l112 266h271zM434 0h-287v1434h318l551 -971h10v971h289v-1434h-320l-549 969h-12v-969z" />
    <glyph glyph-name="nacute" unicode="&#x144;" horiz-adv-x="1200" 
d="M717 1155h-223l114 266h271zM422 0h-289v1024h289v-25q-3 -48 -33 -102l-8 -18l4 -5l37 44q45 63 117 99t157 36q186 2 283.5 -117t97.5 -348v-588h-289v602q0 240 -174 240q-89 0 -140.5 -67t-51.5 -183v-592z" />
    <glyph glyph-name="uni0145" unicode="&#x145;" horiz-adv-x="1462" 
d="M434 0h-287v1434h318l551 -971h10v971h289v-1434h-320l-549 969h-12v-969zM784 -426h-184l39 330h233z" />
    <glyph glyph-name="uni0146" unicode="&#x146;" horiz-adv-x="1191" 
d="M422 0h-289v1024h289v-25q-3 -48 -33 -102l-8 -18l4 -5l37 44q45 63 117 99t157 36q186 2 283.5 -117t97.5 -348v-588h-289v602q0 240 -174 240q-89 0 -140.5 -67t-51.5 -183v-592zM647 -426h-182l37 330h233z" />
    <glyph glyph-name="Ncaron" unicode="&#x147;" horiz-adv-x="1462" 
d="M872 1544h-280l-209 305h225l117 -168h14l117 168h225zM434 0h-287v1434h318l551 -971h10v971h289v-1434h-320l-549 969h-12v-969z" />
    <glyph glyph-name="ncaron" unicode="&#x148;" horiz-adv-x="1200" 
d="M748 1135h-281l-209 303h225l117 -166h14l117 166h225zM422 0h-289v1024h289v-25q-3 -48 -33 -102l-8 -18l4 -5l37 44q45 63 117 99t157 36q186 2 283.5 -117t97.5 -348v-588h-289v602q0 240 -174 240q-89 0 -140.5 -67t-51.5 -183v-592z" />
    <glyph glyph-name="Eng" unicode="&#x14a;" horiz-adv-x="1462" 
d="M805 -432v196q64 1 110 14.5t70.5 36t38.5 52t13 63.5t-5 70h-37l-549 969h-12v-969h-287v1434h318l551 -971h10v971h289v-1434q0 -95 -12.5 -160.5t-45 -119.5t-90.5 -85.5t-146.5 -48.5t-215.5 -18z" />
    <glyph glyph-name="eng" unicode="&#x14b;" horiz-adv-x="1206" 
d="M637 -432v201q41 1 69.5 13.5t44.5 30t24 49.5t10 61.5t1 76.5v602q0 240 -174 240q-89 0 -140.5 -67t-51.5 -183v-592h-289v1024h289v-27q0 -36 -31 -100l-10 -18l6 -5l35 44q47 63 118 99t156 36q187 1 284 -117.5t97 -347.5v-588q0 -117 -20 -195t-69.5 -133
t-134 -79.5t-214.5 -24.5z" />
    <glyph glyph-name="Omacron" unicode="&#x14c;" horiz-adv-x="1480" 
d="M1065 1565h-639v186h639v-186zM743 -29q-138 0 -251 43.5t-187.5 115.5t-126 168t-74 198t-22.5 209v20q0 105 22.5 206.5t74 198.5t126 170t188 117.5t250.5 44.5q139 0 252.5 -44.5t187 -117.5t123.5 -170t71.5 -198t21.5 -207v-20q0 -107 -21.5 -208.5t-71.5 -198
t-123.5 -168.5t-187 -115.5t-252.5 -43.5zM743 215q80 -1 144.5 29t106 78.5t69.5 114t39.5 132.5t11.5 136v22q0 68 -11.5 134.5t-39.5 132t-69.5 115t-106 80.5t-144.5 30q-81 -1 -146 -32t-106.5 -80t-69 -114.5t-39 -131.5t-11.5 -134v-22q0 -70 11.5 -136t39 -131
t69 -113.5t106.5 -78.5t146 -31z" />
    <glyph glyph-name="omacron" unicode="&#x14d;" horiz-adv-x="1169" 
d="M905 1155h-639v186h639v-186zM584 -29q-227 0 -363.5 139.5t-136.5 370.5v68q0 145 63.5 259.5t177.5 179t259 65.5q222 -1 361.5 -141.5t139.5 -362.5v-68q0 -232 -136.5 -371t-364.5 -139zM584 184q96 0 153.5 75.5t57.5 182.5v140q0 110 -56.5 185t-150.5 75
q-98 0 -155.5 -74.5t-57.5 -185.5v-140q0 -107 57 -182.5t152 -75.5z" />
    <glyph glyph-name="Ohungarumlaut" unicode="&#x150;" horiz-adv-x="1480" 
d="M612 1567l-159 -2l112 266h219zM981 1567l-160 -2l113 266h221zM743 -29q-138 0 -251 43.5t-187.5 115.5t-126 168t-74 198t-22.5 209v20q0 105 22.5 206.5t74 198.5t126 170t188 117.5t250.5 44.5q139 0 252.5 -44.5t187 -117.5t123.5 -170t71.5 -198t21.5 -207v-20
q0 -107 -21.5 -208.5t-71.5 -198t-123.5 -168.5t-187 -115.5t-252.5 -43.5zM743 215q80 -1 144.5 29t106 78.5t69.5 114t39.5 132.5t11.5 136v22q0 68 -11.5 134.5t-39.5 132t-69.5 115t-106 80.5t-144.5 30q-81 -1 -146 -32t-106.5 -80t-69 -114.5t-39 -131.5t-11.5 -134
v-22q0 -70 11.5 -136t39 -131t69 -113.5t106.5 -78.5t146 -31z" />
    <glyph glyph-name="ohungarumlaut" unicode="&#x151;" horiz-adv-x="1169" 
d="M463 1157l-160 -2l113 266h219zM831 1157l-159 -2l112 266h222zM584 -29q-227 0 -363.5 139.5t-136.5 370.5v68q0 145 63.5 259.5t177.5 179t259 65.5q222 -1 361.5 -141.5t139.5 -362.5v-68q0 -232 -136.5 -371t-364.5 -139zM584 184q96 0 153.5 75.5t57.5 182.5v140
q0 110 -56.5 185t-150.5 75q-98 0 -155.5 -74.5t-57.5 -185.5v-140q0 -107 57 -182.5t152 -75.5z" />
    <glyph glyph-name="OE" unicode="&#x152;" horiz-adv-x="2293" 
d="M743 -29q-138 0 -251 43.5t-187.5 115.5t-126 168t-74 198t-22.5 209v20q0 105 22.5 206.5t74 198.5t126 170t188 117.5t250.5 44.5q285 0 451 -194v166h1001v-244h-714v-346h649v-244h-649v-356h714v-244h-1001v160q-167 -189 -451 -189zM743 215q80 -1 144.5 29
t106 78.5t69.5 114t39.5 132.5t11.5 136v22q0 68 -11.5 134.5t-39.5 132t-69.5 115t-106 80.5t-144.5 30q-81 -1 -146 -32t-106.5 -80t-69 -114.5t-39 -131.5t-11.5 -134v-22q0 -70 11.5 -136t39 -131t69 -113.5t106.5 -78.5t146 -31z" />
    <glyph glyph-name="oe" unicode="&#x153;" horiz-adv-x="1906" 
d="M575 -29q-227 0 -364 139.5t-137 370.5v68q0 220 140.5 361t360.5 143q118 0 216.5 -46.5t162.5 -129.5q66 83 163.5 129.5t215.5 46.5q222 -2 362 -141.5t140 -360.5v-100h-713v-19q0 -106 57 -177t154 -71q71 0 122.5 43.5t76.5 124.5h289q-34 -178 -164 -279.5
t-324 -101.5q-120 0 -217.5 44.5t-161.5 125.5q-64 -81 -161.5 -125.5t-217.5 -44.5zM575 184q96 0 153.5 75.5t57.5 182.5v140q0 109 -56.5 184.5t-149.5 75.5q-98 0 -155.5 -74.5t-57.5 -185.5v-140q0 -107 56.5 -182.5t151.5 -75.5zM1124 631h416q-12 97 -67 154t-138 57
q-84 0 -141 -56.5t-70 -154.5z" />
    <glyph glyph-name="Racute" unicode="&#x154;" horiz-adv-x="1353" 
d="M782 1565h-223l113 266h270zM434 0h-287v1434h611q242 0 370.5 -110t128.5 -329q0 -160 -72 -263t-206 -140l281 -592h-291l-264 557h-271v-557zM434 1190v-389h311q224 0 224 194q0 102 -57 148.5t-167 46.5h-311z" />
    <glyph glyph-name="racute" unicode="&#x155;" horiz-adv-x="794" 
d="M553 1155h-223l114 266h271zM422 0h-289v1024h289v-27q0 -57 -27 -125l-10 -26l6 -4l31 47q25 44 68 82t90 57q53 20 104 23h59v-258l-110 2q-101 1 -156 -73.5t-55 -189.5v-532z" />
    <glyph glyph-name="uni0156" unicode="&#x156;" horiz-adv-x="1366" 
d="M434 0h-287v1434h611q242 0 370.5 -110t128.5 -329q0 -160 -72 -263t-206 -140l281 -592h-291l-264 557h-271v-557zM434 1190v-389h311q224 0 224 194q0 102 -57 148.5t-167 46.5h-311zM702 -426h-184l39 330h234z" />
    <glyph glyph-name="uni0157" unicode="&#x157;" horiz-adv-x="786" 
d="M422 0h-289v1024h289v-27q0 -57 -27 -125l-10 -26l6 -4l31 47q25 44 68 82t90 57q53 20 104 23h59v-258l-110 2q-101 1 -156 -73.5t-55 -189.5v-532zM297 -426h-182l37 330h233z" />
    <glyph glyph-name="Rcaron" unicode="&#x158;" horiz-adv-x="1353" 
d="M805 1544h-281l-209 305h226l116 -168h15l116 168h226zM434 0h-287v1434h611q242 0 370.5 -110t128.5 -329q0 -160 -72 -263t-206 -140l281 -592h-291l-264 557h-271v-557zM434 1190v-389h311q224 0 224 194q0 102 -57 148.5t-167 46.5h-311z" />
    <glyph glyph-name="rcaron" unicode="&#x159;" horiz-adv-x="794" 
d="M586 1135h-281l-209 303h226l116 -166h15l116 166h226zM422 0h-289v1024h289v-27q0 -57 -27 -125l-10 -26l6 -4l31 47q25 44 68 82t90 57q53 20 104 23h59v-258l-110 2q-101 1 -156 -73.5t-55 -189.5v-532z" />
    <glyph glyph-name="Sacute" unicode="&#x15a;" horiz-adv-x="1314" 
d="M776 1565h-223l113 266h270zM662 -29q-267 0 -415 123.5t-157 345.5h287q17 -239 287 -239q126 0 200 51t74 145q0 70 -61 116.5t-201 86.5l-103 29q-240 68 -349 164.5t-109 244.5q0 193 146.5 308.5t397.5 115.5q258 0 394 -114t145 -330h-289q-6 103 -72.5 159
t-177.5 56q-118 0 -188 -45t-70 -123q0 -72 54 -121t194 -90l101 -29q251 -74 364 -167t113 -242q0 -207 -151 -326t-414 -119z" />
    <glyph glyph-name="sacute" unicode="&#x15b;" horiz-adv-x="1099" 
d="M666 1155h-224l115 266h270zM553 -29q-213 0 -336.5 82.5t-130.5 231.5h293q10 -52 55 -79.5t119 -27.5t121 30t47 75q0 40 -29 61t-121 41l-174 33q-293 59 -293 305q0 154 119 242t328 88q206 0 321.5 -82t118.5 -232h-282q-6 52 -47.5 79.5t-112.5 27.5
q-69 0 -111.5 -28t-42.5 -75q0 -43 30 -65t114 -39l180 -35q301 -55 301 -291q0 -158 -126 -250t-341 -92z" />
    <glyph glyph-name="Scedilla" unicode="&#x15e;" horiz-adv-x="1314" 
d="M1227 416q0 -193 -133 -310.5t-367 -132.5l-16 -55q75 -11 117.5 -60t33.5 -120q-9 -69 -58.5 -105t-125.5 -36q-40 0 -84.5 7t-66.5 13t-31 10l34 113l105 -16h13t23 7.5t19 22.5q3 24 -16 35q-13 8 -123 21l45 163q-237 15 -367 137t-139 330h287q17 -239 287 -239
q126 0 200 51t74 145q0 70 -61 116.5t-201 86.5l-103 29q-240 68 -349 164.5t-109 244.5q0 193 146.5 308.5t397.5 115.5q258 0 394 -114t145 -330h-289q-6 103 -72.5 159t-177.5 56q-118 0 -188 -45t-70 -123q0 -72 54 -121t194 -90l101 -29q251 -74 364 -167t113 -242z
" />
    <glyph glyph-name="scedilla" unicode="&#x15f;" horiz-adv-x="1099" 
d="M1020 313q0 -144 -106 -234.5t-291 -105.5l-17 -51q75 -11 118 -60t34 -120q-9 -69 -59 -105t-126 -36q-40 0 -84.5 7t-66.5 13t-31 10l35 113l104 -16h13t23.5 7.5t19.5 22.5q3 23 -17 35q-13 8 -123 21l46 159q-185 12 -292 93.5t-114 218.5h293q10 -52 55 -79.5
t119 -27.5t121 30t47 75q0 40 -29 61t-121 41l-174 33q-293 59 -293 305q0 154 119 242t328 88q206 0 321.5 -82t118.5 -232h-282q-6 52 -47.5 79.5t-112.5 27.5q-69 0 -111.5 -28t-42.5 -75q0 -43 30 -65t114 -39l180 -35q301 -55 301 -291z" />
    <glyph glyph-name="Scaron" unicode="&#x160;" horiz-adv-x="1314" 
d="M799 1544h-281l-209 305h226l116 -168h15l116 168h226zM662 -29q-267 0 -415 123.5t-157 345.5h287q17 -239 287 -239q126 0 200 51t74 145q0 70 -61 116.5t-201 86.5l-103 29q-240 68 -349 164.5t-109 244.5q0 193 146.5 308.5t397.5 115.5q258 0 394 -114t145 -330
h-289q-6 103 -72.5 159t-177.5 56q-118 0 -188 -45t-70 -123q0 -72 54 -121t194 -90l101 -29q251 -74 364 -167t113 -242q0 -207 -151 -326t-414 -119z" />
    <glyph glyph-name="scaron" unicode="&#x161;" horiz-adv-x="1099" 
d="M696 1135h-280l-209 303h225l117 -166h14l117 166h225zM553 -29q-213 0 -336.5 82.5t-130.5 231.5h293q10 -52 55 -79.5t119 -27.5t121 30t47 75q0 40 -29 61t-121 41l-174 33q-293 59 -293 305q0 154 119 242t328 88q206 0 321.5 -82t118.5 -232h-282q-6 52 -47.5 79.5
t-112.5 27.5q-69 0 -111.5 -28t-42.5 -75q0 -43 30 -65t114 -39l180 -35q301 -55 301 -291q0 -158 -126 -250t-341 -92z" />
    <glyph glyph-name="uni0162" unicode="&#x162;" horiz-adv-x="1222" 
d="M684 0l-18 -59q75 -11 117.5 -60.5t33.5 -120.5q-9 -69 -58.5 -105t-125.5 -36q-58 0 -112.5 12.5t-71.5 20.5l34 110l107 -14h12.5t22 7.5t18.5 23.5q6 23 -14 33q-13 7 -125 20l47 168h-84l2 1190h-414l-2 244h1114l2 -244h-411l-2 -1190h-72z" />
    <glyph glyph-name="uni0163" unicode="&#x163;" horiz-adv-x="784" 
d="M733 211v-223q-126 -23 -213 -17l-10 -34q75 -11 118 -60.5t34 -120.5q-9 -69 -59 -105t-126 -36q-40 0 -84.5 7.5t-66 13.5t-31.5 10l35 112l104 -14h13t23 7.5t19 23.5q3 21 -16 32q-13 8 -123 21l45 164q-51 14 -88 47q-52 42 -75 101t-23 145v495h-158v244h101
q63 0 63 70v143l289 72v-185q0 -73 -60 -96v-2l285 -2v-244h-225v-432q0 -95 53 -122.5t176 -14.5z" />
    <glyph glyph-name="Tcaron" unicode="&#x164;" horiz-adv-x="1222" 
d="M750 1544h-281l-209 305h225l117 -168h14l117 168h225zM756 0h-289l2 1190h-414l-2 244h1114l2 -244h-411z" />
    <glyph glyph-name="tcaron" unicode="&#x165;" horiz-adv-x="856" 
d="M739 1159h-170v350h199zM723 211v-223q-145 -27 -256 -13.5t-170 64.5q-52 42 -75 101t-23 145v495h-158v244h102q29 0 45.5 16t16.5 45v152l289 72v-185q0 -73 -60 -96v-2l285 -2v-244h-225v-432q0 -95 53 -122.5t176 -14.5z" />
    <glyph glyph-name="Tbar" unicode="&#x166;" horiz-adv-x="1224" 
d="M758 0h-289v651h-238v213h238v326h-414v244h1114l2 -244h-413v-326h237v-213h-237v-651z" />
    <glyph glyph-name="tbar" unicode="&#x167;" horiz-adv-x="784" 
d="M723 211v-223q-145 -27 -256 -13.5t-170 64.5q-52 42 -75 101t-23 145v209h-158v198h158v88h-158v244h98q66 0 66 74v139l289 72v-185q0 -73 -60 -96v-2l285 -2v-244h-225v-88h225v-198h-225v-146q0 -95 53 -122.5t176 -14.5z" />
    <glyph glyph-name="Umacron" unicode="&#x16a;" horiz-adv-x="1456" 
d="M1049 1565h-639v186h639v-186zM731 -29q-142 0 -254.5 48.5t-184 134t-108.5 197t-37 241.5v842h287v-871q0 -97 31.5 -173.5t100 -125t165.5 -49.5q141 -1 218 98.5t77 249.5v871h283v-842q0 -132 -35 -243t-104.5 -196.5t-181.5 -133.5t-257 -48z" />
    <glyph glyph-name="umacron" unicode="&#x16b;" horiz-adv-x="1202" 
d="M901 1155h-639v186h639v-186zM506 -29q-186 -2 -283.5 117t-97.5 348v588h289v-602q0 -117 39 -178.5t114 -61.5q91 0 152 68.5t61 181.5v592h289v-1024h-289v29q6 48 31 100l10 16l-4 5l-37 -44q-45 -63 -117 -99t-157 -36z" />
    <glyph glyph-name="Uring" unicode="&#x16e;" horiz-adv-x="1456" 
d="M729 1509q-98 0 -164.5 65.5t-66.5 160.5t67 161t164 66q100 0 166 -65t66 -162q0 -95 -67 -160.5t-165 -65.5zM733 1647q32 0 57 26.5t25 61.5q0 36 -24.5 62t-57.5 26q-38 0 -64 -25.5t-26 -62.5q0 -38 26 -63t64 -25zM731 -29q-142 0 -254.5 48.5t-184 134t-108.5 197
t-37 241.5v842h287v-871q0 -97 31.5 -173.5t100 -125t165.5 -49.5q141 -1 218 98.5t77 249.5v871h283v-842q0 -132 -35 -243t-104.5 -196.5t-181.5 -133.5t-257 -48z" />
    <glyph glyph-name="uring" unicode="&#x16f;" horiz-adv-x="1202" 
d="M582 1104q-98 0 -165 65t-67 160t67.5 161t164.5 66q99 0 165 -65t66 -162q0 -95 -66.5 -160t-164.5 -65zM584 1241q34 0 58 26.5t24 61.5q0 37 -24 62.5t-58 25.5q-37 0 -62.5 -25.5t-25.5 -62.5q0 -38 25.5 -63t62.5 -25zM506 -29q-186 -2 -283.5 117t-97.5 348v588
h289v-602q0 -117 39 -178.5t114 -61.5q91 0 152 68.5t61 181.5v592h289v-1024h-289v29q6 48 31 100l10 16l-4 5l-37 -44q-45 -63 -117 -99t-157 -36z" />
    <glyph glyph-name="Uhungarumlaut" unicode="&#x170;" horiz-adv-x="1456" 
d="M598 1567l-160 -2l113 266h219zM967 1567l-160 -2l113 266h221zM731 -29q-142 0 -254.5 48.5t-184 134t-108.5 197t-37 241.5v842h287v-871q0 -97 31.5 -173.5t100 -125t165.5 -49.5q141 -1 218 98.5t77 249.5v871h283v-842q0 -132 -35 -243t-104.5 -196.5t-181.5 -133.5
t-257 -48z" />
    <glyph glyph-name="uhungarumlaut" unicode="&#x171;" horiz-adv-x="1202" 
d="M461 1157l-160 -2l113 266h219zM829 1157l-159 -2l112 266h222zM506 -29q-186 -2 -283.5 117t-97.5 348v588h289v-602q0 -117 39 -178.5t114 -61.5q91 0 152 68.5t61 181.5v592h289v-1024h-289v29q6 48 31 100l10 16l-4 5l-37 -44q-45 -63 -117 -99t-157 -36z" />
    <glyph glyph-name="Uogonek" unicode="&#x172;" horiz-adv-x="1456" 
d="M1026 563v871h283v-842q0 -157 -47.5 -282.5t-151 -213.5t-254.5 -114q-44 -64 -61 -96.5t-13 -55.5q4 -27 42 -33t61 2v-172q-70 -21 -154 -18q-76 2 -124 37.5t-48 103.5q0 53 31 117.5t69 107.5q-125 11 -223.5 64t-161 136.5t-95 189.5t-32.5 227v842h287v-871
q0 -97 31.5 -173.5t100 -125t165.5 -49.5q141 -1 218 98.5t77 249.5z" />
    <glyph glyph-name="uogonek" unicode="&#x173;" horiz-adv-x="1210" 
d="M1069 1024v-1024h-20q-48 -68 -67 -103t-15 -59q4 -26 41.5 -31t60.5 3v-172q-62 -22 -154 -19q-76 0 -124 36t-48 105q0 58 39 131t78 109h-80v29q6 48 31 100l10 16l-4 5l-37 -44q-45 -63 -117 -99t-157 -36q-186 -2 -283.5 117t-97.5 348v588h289v-602
q0 -117 39 -178.5t114 -61.5q91 0 152 68.5t61 181.5v592h289z" />
    <glyph glyph-name="Wcircumflex" unicode="&#x174;" horiz-adv-x="1970" 
d="M860 1544h-225l209 303h280l209 -303h-225l-117 168h-14zM723 0h-293l-383 1434h289l250 -1031h10l250 1031h276l250 -1031h12l248 1031h289l-381 -1434h-293l-256 1014h-10z" />
    <glyph glyph-name="wcircumflex" unicode="&#x175;" horiz-adv-x="1619" 
d="M688 1137h-225l209 303h280l209 -303h-225l-117 168h-14zM633 0h-334l-258 1024h258l174 -741h12l189 741h270l191 -741h12l174 741h258l-258 -1024h-334l-172 668h-10z" />
    <glyph glyph-name="Ycircumflex" unicode="&#x176;" horiz-adv-x="1380" 
d="M561 1544h-225l209 303h280l209 -303h-225l-117 168h-14zM834 0h-287v541l-504 893h305l336 -617h12l336 617h305l-503 -893v-541z" />
    <glyph glyph-name="ycircumflex" unicode="&#x177;" horiz-adv-x="1140" 
d="M434 1137h-225l209 303h280l209 -303h-225l-117 168h-14zM295 -438q-73 0 -123 12l2 231q58 -6 80 -6q50 0 80 24.5t55 84.5l37 90l-385 1026h274l248 -709h15l247 709h275l-412 -1087q-39 -102 -71 -164t-77 -114t-104.5 -74.5t-140.5 -22.5z" />
    </font>
</defs>
</svg>
