<?xml version="1.0" standalone="no"?>
<!DOCTYPE svg PUBLIC "-//W3C//DTD SVG 1.1//EN" "http://www.w3.org/Graphics/SVG/1.1/DTD/svg11.dtd" >
<svg xmlns="http://www.w3.org/2000/svg" xmlns:xlink="http://www.w3.org/1999/xlink" version="1.1">
<metadata>
Created by FontForge 20201107 at Wed Oct  9 13:38:17 2024
 By 
Copyright (c) 2020 by ckhans. All rights reserved.
</metadata>
<defs>
<font id="HalenoirCompact-Medium" horiz-adv-x="1806" >
  <font-face 
    font-family="HalenoirCompact-Medium"
    font-weight="500"
    font-stretch="normal"
    units-per-em="2048"
    panose-1="1 0 0 0 0 0 0 0 0 0"
    ascent="1638"
    descent="-410"
    x-height="1022"
    cap-height="1434"
    bbox="-608 -440 3742 1946"
    underline-thickness="102"
    underline-position="-255"
    unicode-range="U+0020-1F169"
  />
<missing-glyph horiz-adv-x="1476" 
d="M1331 82h-1188v1290h1188v-1290zM424 479l68 -67l247 247l248 -247l68 67l-248 248l246 248l-68 67l-248 -247l-248 247l-65 -67l248 -248z" />
    <glyph glyph-name="copyright" unicode="&#x28;c&#x29;" horiz-adv-x="1642" 
d="M819 -29q-148 0 -283 59.5t-233 159.5t-156.5 238t-58.5 289t58.5 289t156.5 238t233 159t283 59q197 0 366 -100t268 -272t99 -373q0 -151 -58.5 -289t-157 -238t-234 -159.5t-283.5 -59.5zM203 717q0 -171 82 -316.5t224 -231t310 -85.5q125 0 240 50.5t198.5 135.5
t133 202.5t49.5 244.5t-49.5 244.5t-133 202.5t-198.5 135.5t-240 50.5q-126 0 -240 -50.5t-196.5 -135.5t-131 -202t-48.5 -245zM481 696v41q0 154 98 256.5t246 102.5q140 0 233 -80.5t97 -206.5h-145q-4 78 -57.5 126t-127.5 48q-84 0 -140 -64.5t-56 -166.5v-70
q0 -100 56 -164.5t140 -64.5q73 0 127 48.5t58 125.5h145q-4 -129 -96.5 -209t-233.5 -80q-152 0 -248 100.5t-96 257.5z" />
    <glyph glyph-name="registered" unicode="&#x28;r&#x29;" horiz-adv-x="786" 
d="M393 848q-129 0 -217 89t-88 218t88.5 218t216.5 89q129 0 216 -88t87 -219q0 -132 -87 -219.5t-216 -87.5zM393 907q102 0 173 72t71 176q0 105 -70.5 176.5t-173.5 71.5t-174.5 -71.5t-71.5 -176.5t71.5 -176.5t174.5 -71.5zM342 993h-68v326h146q110 0 110 -102
q0 -74 -61 -93l68 -131h-70l-66 123h-59v-123zM342 1262v-86h78q45 0 45 43t-45 43h-78z" />
    <glyph glyph-name="endash" unicode="&#x2d;&#x2d;" horiz-adv-x="980" 
d="M918 594h-857v166h857v-166z" />
    <glyph glyph-name="emdash" unicode="&#x2013;&#x2d;" horiz-adv-x="1312" 
d="M1249 594h-1188v166h1188v-166z" />
    <glyph glyph-name="perthousand" unicode="&#x25;o" horiz-adv-x="2172" 
d="M428 811q-132 0 -212.5 87.5t-80.5 238.5q0 154 84 239.5t209 85.5q127 0 211 -87.5t84 -237.5q0 -151 -81 -238.5t-214 -87.5zM352 8h-135l959 1442h137zM428 932q70 0 114 59t44 146q0 88 -40 146t-118 58q-69 0 -112.5 -54.5t-43.5 -149.5q0 -97 43 -151t113 -54z
M1100 -29q-132 0 -212.5 87.5t-80.5 236.5q0 156 84 242t209 86q127 0 211 -89t84 -239q0 -149 -81 -236.5t-214 -87.5zM1741 -29q-132 0 -212.5 87.5t-80.5 236.5q0 156 84 242t209 86q127 0 211 -89t84 -239q0 -149 -81 -236.5t-214 -87.5zM1100 90q70 0 113.5 60
t43.5 147t-40.5 145t-116.5 58q-69 0 -112.5 -54.5t-43.5 -148.5q0 -97 43.5 -152t112.5 -55zM1741 90q70 0 113.5 60t43.5 147t-40.5 145t-116.5 58q-69 0 -112.5 -54.5t-43.5 -148.5q0 -97 43.5 -152t112.5 -55z" />
    <glyph glyph-name="uni2116" unicode="N&#xb0;" horiz-adv-x="1892" 
d="M1571 811q-133 0 -213 87.5t-80 238.5q0 155 83.5 240t209.5 85t209.5 -88t83.5 -237q0 -151 -80.5 -238.5t-212.5 -87.5zM262 0h-209v1434h234l665 -1100h11v1100h208v-1434h-233l-666 1100h-10v-1100zM1571 940q66 0 105.5 52t39.5 145q0 90 -40 143t-105 53
t-105.5 -53t-40.5 -143q0 -92 40 -144.5t106 -52.5zM1839 555h-534v143h534v-143z" />
    <glyph glyph-name="arrowleft" unicode="&#x3c;&#x2d;" horiz-adv-x="1480" 
d="M791 205l-123 -127l-600 598l596 598l127 -125l-390 -389h1010l2 -172l-1010 4z" />
    <glyph glyph-name="arrowup" unicode="&#x2d;&#x3e;up" horiz-adv-x="1568" 
d="M868 6l-172 -2l6 1008l-389 -387l-125 125l596 598l598 -598l-122 -125l-392 391v-1010z" />
    <glyph glyph-name="arrowright" unicode="&#x2d;&#x3e;" horiz-adv-x="1480" 
d="M1413 676l-598 -598l-127 125l393 389h-1013v172l1009 -4l-389 387l127 127z" />
    <glyph glyph-name="arrowdown" unicode="&#x2d;&#x3e;down" horiz-adv-x="1570" 
d="M1384 602l-598 -598l-598 596l125 127l389 -391v1012h172l-4 -1008l387 387z" />
    <glyph glyph-name="arrowboth" unicode="&#x3c;&#x2d;&#x3e;" horiz-adv-x="1658" 
d="M700 203l-127 -125l-598 598l598 598l125 -125l-389 -391h1041l-389 391l124 125l601 -598l-601 -598l-124 125l389 389h-1041z" />
    <glyph glyph-name="arrowupdn" unicode="&#x3c;&#x2d;&#x3e;up" horiz-adv-x="1488" 
d="M1343 461l-600 -600l-598 600l127 127l387 -391v1040l-387 -389l-127 125l598 600l600 -598l-126 -127l-390 389v-1040l390 389z" />
    <glyph glyph-name="uni2196" unicode="&#x3c;&#x2d;upleft" horiz-adv-x="1101" 
d="M1081 291l-123 -123l-710 717l2 -547l-178 -2v846l843 2l3 -178h-553z" />
    <glyph glyph-name="uni2197" unicode="&#x2d;&#x3e;upright" horiz-adv-x="1105" 
d="M858 874l-715 -714l-123 121l719 710h-549v178h844l2 -845h-178v550z" />
    <glyph glyph-name="uni2198" unicode="&#x2d;&#x3e;downright" horiz-adv-x="1101" 
d="M1030 170l-844 -2l-2 180l553 -2l-717 715l121 123l711 -717v549h178v-846z" />
    <glyph glyph-name="uni2199" unicode="&#x3c;&#x2d;downleft" horiz-adv-x="1105" 
d="M920 170h-848v846h178l-2 -551l715 717l122 -123l-716 -711h549z" />
    <glyph glyph-name="uni21A5" unicode="&#x2d;&#x3e;upstop" horiz-adv-x="1499" 
d="M1343 10h-1187v168h508l4 914l-389 -392l-127 125l598 598l600 -596l-127 -127l-389 390l2 -912h507v-168z" />
    <glyph glyph-name="uni21A7" unicode="&#x2d;&#x3e;downstop" horiz-adv-x="1499" 
d="M1350 608l-600 -598l-598 598l127 127l389 -391l-4 911h-508v168h1187v-168h-507l-2 -911l389 391z" />
    <glyph glyph-name="uni21B0" unicode="&#x3c;&#x2d;upturn" horiz-adv-x="1615" 
d="M1391 6h-168v768h-783l361 -358l-125 -125l-570 567l568 569l127 -127l-361 -358l951 2v-938z" />
    <glyph glyph-name="uni21B1" unicode="&#x2d;&#x3e;upturn" horiz-adv-x="1497" 
d="M274 6h-168v938l951 -2l-361 358l127 127l568 -569l-570 -567l-125 125l361 358h-783v-768z" />
    <glyph glyph-name="uni21B2" unicode="&#x3c;&#x2d;downturn" horiz-adv-x="1497" 
d="M801 133l-127 -127l-568 569l570 568l125 -125l-361 -359h783v768h168v-938l-951 3z" />
    <glyph glyph-name="uni21B3" unicode="&#x2d;&#x3e;downturn" horiz-adv-x="1497" 
d="M1391 575l-568 -569l-127 127l361 359l-951 -3v938h168v-768h783l-361 359l125 125z" />
    <glyph glyph-name="uni21E4" unicode="&#x3c;&#x2d;stop" horiz-adv-x="1765" 
d="M1081 203l-125 -125l-598 598l596 598l127 -127l-389 -387h948v-170h-950zM313 82h-168v1188h168v-1188z" />
    <glyph glyph-name="uni21E5" unicode="&#x2d;&#x3e;stop" horiz-adv-x="1765" 
d="M1430 676l-599 -598l-126 125l391 387h-951l2 170h949l-391 387l129 127zM1640 82h-167v1188h167v-1188z" />
    <glyph glyph-name="uni2460" unicode="&#x28;&#x31;&#x29;" 
d="M903 -115q-221 0 -408.5 112t-297 303.5t-109.5 416.5q0 168 64.5 322t174 265.5t260.5 177.5t316 66q164 0 315 -66t260.5 -177.5t174.5 -265.5t65 -322q0 -225 -110 -416.5t-298 -303.5t-407 -112zM903 14q137 0 264 56.5t219.5 151t147.5 224.5t55 271q0 142 -55 272
t-147.5 224t-219.5 150t-264 56q-139 0 -266 -56t-219 -150t-146.5 -224t-54.5 -272q0 -189 92 -351t250.5 -257t343.5 -95zM989 1087v-741h-127v590q-13 -28 -61 -52t-96 -20v121q46 -6 101 24.5t83 77.5h100z" />
    <glyph glyph-name="uni2461" unicode="&#x28;&#x32;&#x29;" 
d="M903 -115q-221 0 -408.5 112t-297 303.5t-109.5 416.5q0 168 64.5 322t174 265.5t260.5 177.5t316 66q164 0 315 -66t260.5 -177.5t174.5 -265.5t65 -322q0 -225 -110 -416.5t-298 -303.5t-407 -112zM903 14q137 0 264 56.5t219.5 151t147.5 224.5t55 271q0 142 -55 272
t-147.5 224t-219.5 150t-264 56q-139 0 -266 -56t-219 -150t-146.5 -224t-54.5 -272q0 -189 92 -351t250.5 -257t343.5 -95zM1163 365h-516v90l236 223q66 59 98 100q49 58 49 117q0 53 -31 82t-88 29q-63 0 -98 -41.5t-37 -106.5h-127q5 117 75 188.5t187 71.5
q113 0 180.5 -61.5t67.5 -159.5q0 -83 -90 -186q-31 -39 -94 -97l-144 -137h332v-112z" />
    <glyph glyph-name="uni2462" unicode="&#x28;&#x33;&#x29;" 
d="M903 -115q-221 0 -408.5 112t-297 303.5t-109.5 416.5q0 168 64.5 322t174 265.5t260.5 177.5t316 66q164 0 315 -66t260.5 -177.5t174.5 -265.5t65 -322q0 -225 -110 -416.5t-298 -303.5t-407 -112zM903 14q137 0 264 56.5t219.5 151t147.5 224.5t55 271q0 142 -55 272
t-147.5 224t-219.5 150t-264 56q-139 0 -266 -56t-219 -150t-146.5 -224t-54.5 -272q0 -189 92 -351t250.5 -257t343.5 -95zM905 332q-119 0 -199 63.5t-81 159.5h129q5 -48 46.5 -78.5t102.5 -30.5q70 0 110 30.5t40 84.5t-40.5 85.5t-109.5 31.5h-96v106h96
q54 0 89.5 29.5t35.5 75.5q0 43 -35.5 71.5t-89.5 28.5q-55 0 -91.5 -28.5t-39.5 -73.5h-127q4 92 78.5 153.5t179.5 61.5t178.5 -59.5t73.5 -151.5q0 -48 -23.5 -89.5t-64.5 -68.5q53 -24 84 -71t31 -109q0 -99 -78 -160t-199 -61z" />
    <glyph glyph-name="uni2463" unicode="&#x28;&#x34;&#x29;" 
d="M903 -115q-221 0 -408.5 112t-297 303.5t-109.5 416.5q0 168 64.5 322t174 265.5t260.5 177.5t316 66q164 0 315 -66t260.5 -177.5t174.5 -265.5t65 -322q0 -225 -110 -416.5t-298 -303.5t-407 -112zM903 14q137 0 264 56.5t219.5 151t147.5 224.5t55 271q0 142 -55 272
t-147.5 224t-219.5 150t-264 56q-139 0 -266 -56t-219 -150t-146.5 -224t-54.5 -272q0 -189 92 -351t250.5 -257t343.5 -95zM1063 352h-129v158h-365v104l338 480h156v-471h106v-113h-106v-158zM934 948l-232 -325h232v325z" />
    <glyph glyph-name="uni2464" unicode="&#x28;&#x35;&#x29;" 
d="M903 -115q-221 0 -408.5 112t-297 303.5t-109.5 416.5q0 168 64.5 322t174 265.5t260.5 177.5t316 66q164 0 315 -66t260.5 -177.5t174.5 -265.5t65 -322q0 -225 -110 -416.5t-298 -303.5t-407 -112zM903 14q137 0 264 56.5t219.5 151t147.5 224.5t55 271q0 142 -55 272
t-147.5 224t-219.5 150t-264 56q-139 0 -266 -56t-219 -150t-146.5 -224t-54.5 -272q0 -189 92 -351t250.5 -257t343.5 -95zM905 311q-122 0 -195.5 70t-70.5 184h123q0 -63 39 -101t104 -38q63 0 100 40.5t37 108.5q0 67 -37.5 108.5t-99.5 41.5q-99 0 -129 -74h-121
l47 416h433v-113h-320l-27 -186q50 70 144 70q105 0 171 -74t66 -189q0 -116 -73.5 -190t-190.5 -74z" />
    <glyph glyph-name="uni2465" unicode="&#x28;&#x36;&#x29;" 
d="M903 -115q-221 0 -408.5 112t-297 303.5t-109.5 416.5q0 168 64.5 322t174 265.5t260.5 177.5t316 66q164 0 315 -66t260.5 -177.5t174.5 -265.5t65 -322q0 -225 -110 -416.5t-298 -303.5t-407 -112zM903 14q137 0 264 56.5t219.5 151t147.5 224.5t55 271q0 142 -55 272
t-147.5 224t-219.5 150t-264 56q-139 0 -266 -56t-219 -150t-146.5 -224t-54.5 -272q0 -189 92 -351t250.5 -257t343.5 -95zM913 328q-133 0 -207.5 97.5t-74.5 272.5q0 178 81 289t212 111q104 0 171 -60t76 -159h-120q-12 54 -43 80t-88 26q-73 0 -116 -66.5t-46 -179.5
q49 105 172 105q107 0 178.5 -72.5t71.5 -181.5q0 -115 -74 -188.5t-193 -73.5zM911 442q62 0 101 41t39 107t-38.5 106.5t-101.5 40.5q-65 0 -105 -40.5t-40 -106.5q0 -65 40.5 -106.5t104.5 -41.5z" />
    <glyph glyph-name="uni2466" unicode="&#x28;&#x37;&#x29;" 
d="M903 -115q-221 0 -408.5 112t-297 303.5t-109.5 416.5q0 168 64.5 322t174 265.5t260.5 177.5t316 66q164 0 315 -66t260.5 -177.5t174.5 -265.5t65 -322q0 -225 -110 -416.5t-298 -303.5t-407 -112zM903 14q137 0 264 56.5t219.5 151t147.5 224.5t55 271q0 142 -55 272
t-147.5 224t-219.5 150t-264 56q-139 0 -266 -56t-219 -150t-146.5 -224t-54.5 -272q0 -189 92 -351t250.5 -257t343.5 -95zM922 326h-127q0 175 58 337.5t163 290.5h-367v113h518v-113q-126 -141 -184.5 -293.5t-60.5 -334.5z" />
    <glyph glyph-name="uni2467" unicode="&#x28;&#x38;&#x29;" 
d="M903 -115q-221 0 -408.5 112t-297 303.5t-109.5 416.5q0 168 64.5 322t174 265.5t260.5 177.5t316 66q164 0 315 -66t260.5 -177.5t174.5 -265.5t65 -322q0 -225 -110 -416.5t-298 -303.5t-407 -112zM903 14q137 0 264 56.5t219.5 151t147.5 224.5t55 271q0 142 -55 272
t-147.5 224t-219.5 150t-264 56q-139 0 -266 -56t-219 -150t-146.5 -224t-54.5 -272q0 -189 92 -351t250.5 -257t343.5 -95zM905 332q-121 0 -200.5 61.5t-79.5 161.5q0 58 29 103.5t79 72.5q-78 61 -78 160q0 93 71.5 152t178.5 59t178.5 -59t71.5 -152q0 -99 -78 -160
q49 -29 78 -75t29 -101q0 -100 -79.5 -161.5t-199.5 -61.5zM905 788q55 0 89 28t34 73q0 44 -34 72t-89 28t-89 -28t-34 -72q0 -46 33.5 -73.5t89.5 -27.5zM905 446q67 0 109.5 32.5t42.5 84.5q0 51 -42.5 82t-109.5 31q-68 0 -109.5 -31t-41.5 -82q0 -52 41.5 -84.5
t109.5 -32.5z" />
    <glyph glyph-name="uni2468" unicode="&#x28;&#x39;&#x29;" 
d="M903 -115q-221 0 -408.5 112t-297 303.5t-109.5 416.5q0 168 64.5 322t174 265.5t260.5 177.5t316 66q164 0 315 -66t260.5 -177.5t174.5 -265.5t65 -322q0 -225 -110 -416.5t-298 -303.5t-407 -112zM903 14q137 0 264 56.5t219.5 151t147.5 224.5t55 271q0 142 -55 272
t-147.5 224t-219.5 150t-264 56q-139 0 -266 -56t-219 -150t-146.5 -224t-54.5 -272q0 -189 92 -351t250.5 -257t343.5 -95zM893 332q-103 0 -170 61t-76 160h121q21 -107 129 -107q74 0 117.5 66t48.5 180q-54 -104 -174 -104q-109 0 -179.5 72t-70.5 182q0 115 73.5 187.5
t192.5 72.5q133 0 208 -97.5t75 -273.5q0 -177 -81.5 -288t-213.5 -111zM907 692q63 0 103.5 41t40.5 107q0 67 -40 108t-104 41q-63 0 -101 -40.5t-38 -108.5q0 -66 38 -107t101 -41z" />
    <glyph glyph-name="uni2469" unicode="&#x28;&#x31;&#x30;&#x29;" 
d="M903 -115q-221 0 -408.5 112t-297 303.5t-109.5 416.5q0 168 64.5 322t174 265.5t260.5 177.5t316 66q164 0 315 -66t260.5 -177.5t174.5 -265.5t65 -322q0 -225 -110 -416.5t-298 -303.5t-407 -112zM903 14q137 0 264 56.5t219.5 151t147.5 224.5t55 271q0 142 -55 272
t-147.5 224t-219.5 150t-264 56q-139 0 -266 -56t-219 -150t-146.5 -224t-54.5 -272q0 -189 92 -351t250.5 -257t343.5 -95zM1081 332q-132 0 -210 99t-78 265v9q0 166 79 267t209 101q133 0 211 -103.5t78 -264.5v-9q0 -166 -78.5 -265t-210.5 -99zM696 346h-123v563
q-13 -26 -61 -49t-96 -20v116q46 -5 101 26t81 77h98v-713zM1081 442q77 0 122.5 68.5t45.5 185.5v11q0 115 -46.5 185.5t-121.5 70.5t-120.5 -69.5t-45.5 -186.5v-11q0 -116 45.5 -185t120.5 -69z" />
    <glyph glyph-name="uni246A" unicode="&#x28;&#x31;&#x31;&#x29;" 
d="M903 -115q-221 0 -408.5 112t-297 303.5t-109.5 416.5q0 168 64.5 322t174 265.5t260.5 177.5t316 66q164 0 315 -66t260.5 -177.5t174.5 -265.5t65 -322q0 -225 -110 -416.5t-298 -303.5t-407 -112zM903 14q137 0 264 56.5t219.5 151t147.5 224.5t55 271q0 142 -55 272
t-147.5 224t-219.5 150t-264 56q-139 0 -266 -56t-219 -150t-146.5 -224t-54.5 -272q0 -189 92 -351t250.5 -257t343.5 -95zM758 1059v-713h-125v563q-13 -26 -60.5 -49t-95.5 -20v116q46 -5 101 26t81 77h99zM1204 1059v-713h-125v563q-13 -26 -60 -49t-95 -20v116
q46 -5 101 26t81 77h98z" />
    <glyph glyph-name="uni246B" unicode="&#x28;&#x31;&#x32;&#x29;" 
d="M903 -115q-221 0 -408.5 112t-297 303.5t-109.5 416.5q0 168 64.5 322t174 265.5t260.5 177.5t316 66q164 0 315 -66t260.5 -177.5t174.5 -265.5t65 -322q0 -225 -110 -416.5t-298 -303.5t-407 -112zM903 14q137 0 264 56.5t219.5 151t147.5 224.5t55 271q0 142 -55 272
t-147.5 224t-219.5 150t-264 56q-139 0 -266 -56t-219 -150t-146.5 -224t-54.5 -272q0 -189 92 -351t250.5 -257t343.5 -95zM1307 459v-111h-496v88l322 312q47 47 47 110q0 51 -30.5 79t-84.5 28q-60 0 -94.5 -40t-32.5 -102h-127q5 111 73.5 181.5t180.5 70.5
q109 0 173.5 -59.5t64.5 -153.5q0 -96 -86 -182l-228 -221h318zM705 1059v-713h-125v563q-11 -25 -59.5 -48.5t-96.5 -20.5v116q46 -5 101 26t81 77h99z" />
    <glyph glyph-name="uni246C" unicode="&#x28;&#x31;&#x33;&#x29;" 
d="M903 -115q-221 0 -408.5 112t-297 303.5t-109.5 416.5q0 168 64.5 322t174 265.5t260.5 177.5t316 66q164 0 315 -66t260.5 -177.5t174.5 -265.5t65 -322q0 -225 -110 -416.5t-298 -303.5t-407 -112zM903 14q137 0 264 56.5t219.5 151t147.5 224.5t55 271q0 142 -55 272
t-147.5 224t-219.5 150t-264 56q-139 0 -266 -56t-219 -150t-146.5 -224t-54.5 -272q0 -189 92 -351t250.5 -257t343.5 -95zM1073 330q-114 0 -191.5 61.5t-78.5 153.5h127q3 -45 43 -75t98 -30q67 0 105 30t38 81t-38.5 81t-104.5 30h-94v102h94q52 0 85.5 28.5t33.5 71.5
q0 41 -34 69t-85 28q-52 0 -87 -28t-38 -71h-123q4 90 75 149.5t173 59.5q101 0 171.5 -58t70.5 -147q0 -44 -22.5 -84t-59.5 -65q50 -23 78 -68.5t28 -105.5q0 -95 -74 -154t-190 -59zM702 1059v-713h-124v563q-13 -26 -60.5 -49t-95.5 -20v116q46 -5 101 26t81 77h98z" />
    <glyph glyph-name="uni246D" unicode="&#x28;&#x31;&#x34;&#x29;" 
d="M903 -115q-221 0 -408.5 112t-297 303.5t-109.5 416.5q0 168 64.5 322t174 265.5t260.5 177.5t316 66q164 0 315 -66t260.5 -177.5t174.5 -265.5t65 -322q0 -225 -110 -416.5t-298 -303.5t-407 -112zM903 14q137 0 264 56.5t219.5 151t147.5 224.5t55 271q0 142 -55 272
t-147.5 224t-219.5 150t-264 56q-139 0 -266 -56t-219 -150t-146.5 -224t-54.5 -272q0 -189 92 -351t250.5 -257t343.5 -95zM680 346h-125v563q-13 -25 -61.5 -48.5t-96.5 -20.5v116q47 -4 102 26.5t83 76.5h98v-713zM1257 346h-122v152h-353v100l326 461h149v-453h103v-108
h-103v-152zM1133 915l-220 -309h220v309z" />
    <glyph glyph-name="uni246E" unicode="&#x28;&#x31;&#x35;&#x29;" 
d="M903 -115q-221 0 -408.5 112t-297 303.5t-109.5 416.5q0 168 64.5 322t174 265.5t260.5 177.5t316 66q164 0 315 -66t260.5 -177.5t174.5 -265.5t65 -322q0 -225 -110 -416.5t-298 -303.5t-407 -112zM903 14q137 0 264 56.5t219.5 151t147.5 224.5t55 271q0 142 -55 272
t-147.5 224t-219.5 150t-264 56q-139 0 -266 -56t-219 -150t-146.5 -224t-54.5 -272q0 -189 92 -351t250.5 -257t343.5 -95zM692 346h-125v563q-13 -26 -60 -49t-95 -20v116q46 -5 101 26t81 77h98v-713zM1075 330q-117 0 -187.5 67.5t-66.5 175.5l117 2q0 -61 37.5 -98
t99.5 -37q60 0 95.5 39.5t35.5 104.5q0 64 -35.5 102.5t-95.5 40.5q-92 0 -123 -72h-116l47 402h413v-111h-307l-24 -176q48 66 135 66q102 0 166.5 -70.5t64.5 -181.5t-72 -182.5t-184 -71.5z" />
    <glyph glyph-name="uni246F" unicode="&#x28;&#x31;&#x36;&#x29;" 
d="M903 -115q-221 0 -408.5 112t-297 303.5t-109.5 416.5q0 168 64.5 322t174 265.5t260.5 177.5t316 66q164 0 315 -66t260.5 -177.5t174.5 -265.5t65 -322q0 -225 -110 -416.5t-298 -303.5t-407 -112zM903 14q137 0 264 56.5t219.5 151t147.5 224.5t55 271q0 142 -55 272
t-147.5 224t-219.5 150t-264 56q-139 0 -266 -56t-219 -150t-146.5 -224t-54.5 -272q0 -189 92 -351t250.5 -257t343.5 -95zM1063 326q-129 0 -200.5 93.5t-71.5 262.5q0 171 77.5 278t204.5 107q99 0 163 -58t75 -155h-117q-12 52 -41.5 77t-83.5 25q-70 0 -111.5 -64
t-46.5 -171q57 100 168 100q103 0 170.5 -68.5t67.5 -174.5q0 -111 -70 -181.5t-184 -70.5zM698 346h-125v563q-13 -27 -60 -50t-95 -19v116q46 -5 101 25.5t81 75.5h98v-711zM1059 436q61 0 98 39.5t37 104.5q0 63 -37.5 102t-97.5 39t-98.5 -39t-38.5 -102
q0 -64 38.5 -104t98.5 -40z" />
    <glyph glyph-name="uni2470" unicode="&#x28;&#x31;&#x37;&#x29;" 
d="M903 -115q-221 0 -408.5 112t-297 303.5t-109.5 416.5q0 168 64.5 322t174 265.5t260.5 177.5t316 66q164 0 315 -66t260.5 -177.5t174.5 -265.5t65 -322q0 -225 -110 -416.5t-298 -303.5t-407 -112zM903 14q137 0 264 56.5t219.5 151t147.5 224.5t55 271q0 142 -55 272
t-147.5 224t-219.5 150t-264 56q-139 0 -266 -56t-219 -150t-146.5 -224t-54.5 -272q0 -189 92 -351t250.5 -257t343.5 -95zM713 346h-125v563q-13 -26 -60.5 -49t-95.5 -20v116q46 -5 101 26t81 77h99v-713zM1102 346h-125q0 167 56.5 323.5t156.5 278.5h-350v111h495v-109
q-121 -135 -177 -282t-56 -322z" />
    <glyph glyph-name="uni2471" unicode="&#x28;&#x31;&#x38;&#x29;" 
d="M903 -115q-221 0 -408.5 112t-297 303.5t-109.5 416.5q0 168 64.5 322t174 265.5t260.5 177.5t316 66q164 0 315 -66t260.5 -177.5t174.5 -265.5t65 -322q0 -225 -110 -416.5t-298 -303.5t-407 -112zM903 14q137 0 264 56.5t219.5 151t147.5 224.5t55 271q0 142 -55 272
t-147.5 224t-219.5 150t-264 56q-139 0 -266 -56t-219 -150t-146.5 -224t-54.5 -272q0 -189 92 -351t250.5 -257t343.5 -95zM1059 332q-117 0 -194 59t-77 156q0 111 109 170q-78 56 -78 151q0 91 68.5 148t171.5 57t172 -57t69 -148q0 -96 -77 -151q104 -64 104 -170
q0 -95 -77 -155t-191 -60zM711 346h-125v563q-13 -25 -61.5 -48.5t-96.5 -20.5v116q47 -4 101.5 26.5t82.5 76.5h99v-713zM1059 770q54 0 85.5 27t31.5 71q0 42 -32.5 68.5t-84.5 26.5q-53 0 -85 -26.5t-32 -68.5q0 -44 32 -71t85 -27zM1059 442q65 0 104 31t39 82
q0 48 -39.5 78.5t-103.5 30.5t-105 -31t-41 -78q0 -51 40.5 -82t105.5 -31z" />
    <glyph glyph-name="uni2472" unicode="&#x28;&#x31;&#x39;&#x29;" 
d="M903 -115q-221 0 -408.5 112t-297 303.5t-109.5 416.5q0 168 64.5 322t174 265.5t260.5 177.5t316 66q164 0 315 -66t260.5 -177.5t174.5 -265.5t65 -322q0 -225 -110 -416.5t-298 -303.5t-407 -112zM903 14q137 0 264 56.5t219.5 151t147.5 224.5t55 271q0 142 -55 272
t-147.5 224t-219.5 150t-264 56q-139 0 -266 -56t-219 -150t-146.5 -224t-54.5 -272q0 -189 92 -351t250.5 -257t343.5 -95zM1049 332q-101 0 -165 58t-73 155h117q21 -103 125 -103q69 0 109.5 64t45.5 172q-20 -42 -62.5 -71t-103.5 -29q-104 0 -171.5 68.5t-67.5 174.5
q0 111 70.5 181.5t185.5 70.5q128 0 200 -94t72 -262q0 -171 -78 -278t-204 -107zM707 346h-125v563q-13 -25 -61.5 -48.5t-96.5 -20.5v116q47 -4 101.5 26.5t82.5 76.5h99v-713zM1061 678q61 0 99 39t38 102q0 65 -38 104.5t-99 39.5q-60 0 -96.5 -39.5t-36.5 -104.5
q0 -63 36.5 -102t96.5 -39z" />
    <glyph glyph-name="uni2473" unicode="&#x28;&#x32;&#x30;&#x29;" 
d="M903 -115q-221 0 -408.5 112t-297 303.5t-109.5 416.5q0 168 64.5 322t174 265.5t260.5 177.5t316 66q164 0 315 -66t260.5 -177.5t174.5 -265.5t65 -322q0 -225 -110 -416.5t-298 -303.5t-407 -112zM903 14q137 0 264 56.5t219.5 151t147.5 224.5t55 271q0 142 -55 272
t-147.5 224t-219.5 150t-264 56q-139 0 -266 -56t-219 -150t-146.5 -224t-54.5 -272q0 -189 92 -351t250.5 -257t343.5 -95zM1159 375q-123 0 -196.5 93.5t-73.5 248.5v8q0 154 74.5 249t195.5 95q127 0 201 -97t74 -247v-8q0 -156 -74.5 -249t-200.5 -93zM866 385h-467v84
l213 201q58 52 90 92q43 56 43 102q0 47 -28 73t-78 26q-56 0 -88.5 -38t-32.5 -96h-119q3 106 68 172t172 66q101 0 162 -56t61 -145q0 -74 -80 -170q-51 -57 -92 -90l-121 -117h297v-104zM1159 479q72 0 115 64t43 174v8q0 109 -43 174.5t-115 65.5q-69 0 -111 -65.5
t-42 -174.5v-8q0 -110 42 -174t111 -64z" />
    <glyph glyph-name="uni24B6" unicode="&#x28;A&#x29;" 
d="M903 -115q-221 0 -408.5 112t-297 303.5t-109.5 416.5q0 168 64.5 322t174 265.5t260.5 177.5t316 66q164 0 315 -66t260.5 -177.5t174.5 -265.5t65 -322q0 -225 -110 -416.5t-298 -303.5t-407 -112zM903 14q137 0 264 56.5t219.5 151t147.5 224.5t55 271q0 142 -55 272
t-147.5 224t-219.5 150t-264 56q-139 0 -266 -56t-219 -150t-146.5 -224t-54.5 -272q0 -189 92 -351t250.5 -257t343.5 -95zM676 387h-129l287 741h139l287 -741h-130l-73 188h-307zM901 985l-108 -295h221l-109 295h-4z" />
    <glyph glyph-name="uni24B7" unicode="&#x28;B&#x29;" 
d="M903 -115q-221 0 -408.5 112t-297 303.5t-109.5 416.5q0 168 64.5 322t174 265.5t260.5 177.5t316 66q164 0 315 -66t260.5 -177.5t174.5 -265.5t65 -322q0 -225 -110 -416.5t-298 -303.5t-407 -112zM903 14q137 0 264 56.5t219.5 151t147.5 224.5t55 271q0 142 -55 272
t-147.5 224t-219.5 150t-264 56q-139 0 -266 -56t-219 -150t-146.5 -224t-54.5 -272q0 -189 92 -351t250.5 -257t343.5 -95zM1008 346h-353v741h334q107 0 165 -51t58 -145q0 -57 -30 -100.5t-72 -57.5v-6q53 -20 89 -66.5t36 -107.5q0 -95 -61.5 -151t-165.5 -56zM782 975
v-195h197q51 0 79.5 27.5t28.5 75.5q0 92 -108 92h-197zM782 672v-211h219q49 0 76 26.5t27 73.5t-31 79t-78 32h-213z" />
    <glyph glyph-name="uni24B8" unicode="&#x28;C&#x29;" 
d="M903 -115q-221 0 -408.5 112t-297 303.5t-109.5 416.5q0 168 64.5 322t174 265.5t260.5 177.5t316 66q164 0 315 -66t260.5 -177.5t174.5 -265.5t65 -322q0 -225 -110 -416.5t-298 -303.5t-407 -112zM903 14q137 0 264 56.5t219.5 151t147.5 224.5t55 271q0 142 -55 272
t-147.5 224t-219.5 150t-264 56q-139 0 -266 -56t-219 -150t-146.5 -224t-54.5 -272q0 -189 92 -351t250.5 -257t343.5 -95zM911 332q-80 0 -144 30.5t-104 83t-61.5 120.5t-21.5 147v8q0 162 87.5 271.5t243.5 109.5q134 0 221 -76.5t93 -189.5h-129q-4 69 -55.5 111
t-129.5 42q-96 0 -149 -76.5t-53 -189.5v-12q0 -114 52.5 -189.5t149.5 -75.5q78 0 129.5 42.5t55.5 111.5h131q-6 -115 -93.5 -191.5t-222.5 -76.5z" />
    <glyph glyph-name="uni24B9" unicode="&#x28;D&#x29;" 
d="M903 -115q-221 0 -408.5 112t-297 303.5t-109.5 416.5q0 168 64.5 322t174 265.5t260.5 177.5t316 66q164 0 315 -66t260.5 -177.5t174.5 -265.5t65 -322q0 -225 -110 -416.5t-298 -303.5t-407 -112zM903 14q137 0 264 56.5t219.5 151t147.5 224.5t55 271q0 142 -55 272
t-147.5 224t-219.5 150t-264 56q-139 0 -266 -56t-219 -150t-146.5 -224t-54.5 -272q0 -189 92 -351t250.5 -257t343.5 -95zM928 346h-258v741h258q149 0 240.5 -102t91.5 -268t-91.5 -268.5t-240.5 -102.5zM797 975v-514h110q105 0 164 68.5t59 187.5q0 121 -59 189.5
t-164 68.5h-110z" />
    <glyph glyph-name="uni24BA" unicode="&#x28;E&#x29;" 
d="M903 -115q-221 0 -408.5 112t-297 303.5t-109.5 416.5q0 168 64.5 322t174 265.5t260.5 177.5t316 66q164 0 315 -66t260.5 -177.5t174.5 -265.5t65 -322q0 -225 -110 -416.5t-298 -303.5t-407 -112zM903 14q137 0 264 56.5t219.5 151t147.5 224.5t55 271q0 142 -55 272
t-147.5 224t-219.5 150t-264 56q-139 0 -266 -56t-219 -150t-146.5 -224t-54.5 -272q0 -189 92 -351t250.5 -257t343.5 -95zM1161 346h-514v741h514v-112h-385v-195h352v-112h-352v-207h385v-115z" />
    <glyph glyph-name="uni24BB" unicode="&#x28;F&#x29;" 
d="M903 -115q-221 0 -408.5 112t-297 303.5t-109.5 416.5q0 168 64.5 322t174 265.5t260.5 177.5t316 66q164 0 315 -66t260.5 -177.5t174.5 -265.5t65 -322q0 -225 -110 -416.5t-298 -303.5t-407 -112zM903 14q137 0 264 56.5t219.5 151t147.5 224.5t55 271q0 142 -55 272
t-147.5 224t-219.5 150t-264 56q-139 0 -266 -56t-219 -150t-146.5 -224t-54.5 -272q0 -189 92 -351t250.5 -257t343.5 -95zM786 346h-127v741h512v-112h-385v-211h353v-113h-353v-305z" />
    <glyph glyph-name="uni24BC" unicode="&#x28;G&#x29;" 
d="M903 -115q-221 0 -408.5 112t-297 303.5t-109.5 416.5q0 168 64.5 322t174 265.5t260.5 177.5t316 66q164 0 315 -66t260.5 -177.5t174.5 -265.5t65 -322q0 -225 -110 -416.5t-298 -303.5t-407 -112zM903 14q137 0 264 56.5t219.5 151t147.5 224.5t55 271q0 142 -55 272
t-147.5 224t-219.5 150t-264 56q-139 0 -266 -56t-219 -150t-146.5 -224t-54.5 -272q0 -189 92 -351t250.5 -257t343.5 -95zM913 324q-80 0 -144 30.5t-104 83t-61.5 120.5t-21.5 147v8q0 163 87 272t244 109q134 0 220.5 -77t91.5 -190h-129q-4 69 -55 111.5t-128 42.5
q-97 0 -150.5 -76.5t-53.5 -189.5v-13q0 -114 53 -189t151 -75q88 0 136.5 47t48.5 138v8h-178v114h305v-96q0 -151 -81.5 -238t-230.5 -87z" />
    <glyph glyph-name="uni24BD" unicode="&#x28;H&#x29;" 
d="M903 -115q-221 0 -408.5 112t-297 303.5t-109.5 416.5q0 168 64.5 322t174 265.5t260.5 177.5t316 66q164 0 315 -66t260.5 -177.5t174.5 -265.5t65 -322q0 -225 -110 -416.5t-298 -303.5t-407 -112zM903 14q137 0 264 56.5t219.5 151t147.5 224.5t55 271q0 142 -55 272
t-147.5 224t-219.5 150t-264 56q-139 0 -266 -56t-219 -150t-146.5 -224t-54.5 -272q0 -189 92 -351t250.5 -257t343.5 -95zM737 346h-127v741h127v-305h334v305h125v-741h-125v322h-334v-322z" />
    <glyph glyph-name="uni24BE" unicode="&#x28;I&#x29;" 
d="M903 -115q-221 0 -408.5 112t-297 303.5t-109.5 416.5q0 168 64.5 322t174 265.5t260.5 177.5t316 66q164 0 315 -66t260.5 -177.5t174.5 -265.5t65 -322q0 -225 -110 -416.5t-298 -303.5t-407 -112zM903 14q137 0 264 56.5t219.5 151t147.5 224.5t55 271q0 142 -55 272
t-147.5 224t-219.5 150t-264 56q-139 0 -266 -56t-219 -150t-146.5 -224t-54.5 -272q0 -189 92 -351t250.5 -257t343.5 -95zM967 346h-127v741h127v-741z" />
    <glyph glyph-name="uni24BF" unicode="&#x28;J&#x29;" 
d="M903 -115q-221 0 -408.5 112t-297 303.5t-109.5 416.5q0 168 64.5 322t174 265.5t260.5 177.5t316 66q164 0 315 -66t260.5 -177.5t174.5 -265.5t65 -322q0 -225 -110 -416.5t-298 -303.5t-407 -112zM903 14q137 0 264 56.5t219.5 151t147.5 224.5t55 271q0 142 -55 272
t-147.5 224t-219.5 150t-264 56q-139 0 -266 -56t-219 -150t-146.5 -224t-54.5 -272q0 -189 92 -351t250.5 -257t343.5 -95zM805 342q-49 0 -115 16v119q63 -18 105 -18q69 0 97 28.5t28 98.5v510h129v-527q0 -112 -62.5 -169.5t-181.5 -57.5z" />
    <glyph glyph-name="uni24C0" unicode="&#x28;K&#x29;" 
d="M903 -115q-221 0 -408.5 112t-297 303.5t-109.5 416.5q0 168 64.5 322t174 265.5t260.5 177.5t316 66q164 0 315 -66t260.5 -177.5t174.5 -265.5t65 -322q0 -225 -110 -416.5t-298 -303.5t-407 -112zM903 14q137 0 264 56.5t219.5 151t147.5 224.5t55 271q0 142 -55 272
t-147.5 224t-219.5 150t-264 56q-139 0 -266 -56t-219 -150t-146.5 -224t-54.5 -272q0 -189 92 -351t250.5 -257t343.5 -95zM1237 346h-154l-284 342h-6v-342h-127v741h127v-342h6l284 342h154l-307 -370z" />
    <glyph glyph-name="uni24C1" unicode="&#x28;L&#x29;" 
d="M903 -115q-221 0 -408.5 112t-297 303.5t-109.5 416.5q0 168 64.5 322t174 265.5t260.5 177.5t316 66q164 0 315 -66t260.5 -177.5t174.5 -265.5t65 -322q0 -225 -110 -416.5t-298 -303.5t-407 -112zM903 14q137 0 264 56.5t219.5 151t147.5 224.5t55 271q0 142 -55 272
t-147.5 224t-219.5 150t-264 56q-139 0 -266 -56t-219 -150t-146.5 -224t-54.5 -272q0 -189 92 -351t250.5 -257t343.5 -95zM1190 346h-518v741h129v-626h389v-115z" />
    <glyph glyph-name="uni24C2" unicode="&#x28;M&#x29;" 
d="M903 -115q-221 0 -408.5 112t-297 303.5t-109.5 416.5q0 168 64.5 322t174 265.5t260.5 177.5t316 66q164 0 315 -66t260.5 -177.5t174.5 -265.5t65 -322q0 -225 -110 -416.5t-298 -303.5t-407 -112zM903 14q137 0 264 56.5t219.5 151t147.5 224.5t55 271q0 142 -55 272
t-147.5 224t-219.5 150t-264 56q-139 0 -266 -56t-219 -150t-146.5 -224t-54.5 -272q0 -189 92 -351t250.5 -257t343.5 -95zM664 348h-125v739h174l188 -579h6l187 579h174v-739h-123v541h-6l-172 -541h-127l-172 541h-4v-541z" />
    <glyph glyph-name="uni24C3" unicode="&#x28;N&#x29;" 
d="M903 -115q-221 0 -408.5 112t-297 303.5t-109.5 416.5q0 168 64.5 322t174 265.5t260.5 177.5t316 66q164 0 315 -66t260.5 -177.5t174.5 -265.5t65 -322q0 -225 -110 -416.5t-298 -303.5t-407 -112zM903 14q137 0 264 56.5t219.5 151t147.5 224.5t55 271q0 142 -55 272
t-147.5 224t-219.5 150t-264 56q-139 0 -266 -56t-219 -150t-146.5 -224t-54.5 -272q0 -189 92 -351t250.5 -257t343.5 -95zM741 346h-129v741h133l316 -522h6v522h127v-741h-133l-316 522h-4v-522z" />
    <glyph glyph-name="uni24C4" unicode="&#x28;O&#x29;" 
d="M903 -115q-221 0 -408.5 112t-297 303.5t-109.5 416.5q0 168 64.5 322t174 265.5t260.5 177.5t316 66q164 0 315 -66t260.5 -177.5t174.5 -265.5t65 -322q0 -225 -110 -416.5t-298 -303.5t-407 -112zM903 14q137 0 264 56.5t219.5 151t147.5 224.5t55 271q0 142 -55 272
t-147.5 224t-219.5 150t-264 56q-139 0 -266 -56t-219 -150t-146.5 -224t-54.5 -272q0 -189 92 -351t250.5 -257t343.5 -95zM905 332q-106 0 -182.5 52.5t-113 137.5t-36.5 191v8q0 162 87.5 271.5t244.5 109.5q105 0 180.5 -53t111.5 -138t36 -190v-8q0 -164 -85.5 -272.5
t-242.5 -108.5zM905 446q97 0 150 76t53 189v12q0 112 -54 189t-149 77q-97 0 -151 -77t-54 -189v-12q0 -114 53.5 -189.5t151.5 -75.5z" />
    <glyph glyph-name="uni24C5" unicode="&#x28;P&#x29;" 
d="M903 -115q-221 0 -408.5 112t-297 303.5t-109.5 416.5q0 168 64.5 322t174 265.5t260.5 177.5t316 66q164 0 315 -66t260.5 -177.5t174.5 -265.5t65 -322q0 -225 -110 -416.5t-298 -303.5t-407 -112zM903 14q137 0 264 56.5t219.5 151t147.5 224.5t55 271q0 142 -55 272
t-147.5 224t-219.5 150t-264 56q-139 0 -266 -56t-219 -150t-146.5 -224t-54.5 -272q0 -189 92 -351t250.5 -257t343.5 -95zM795 346h-127v741h321q118 0 183 -60t65 -169q0 -104 -65.5 -163.5t-182.5 -59.5h-194v-289zM795 975v-227h192q123 0 123 114q0 113 -123 113h-192
z" />
    <glyph glyph-name="uni24C6" unicode="&#x28;Q&#x29;" 
d="M903 -115q-221 0 -408.5 112t-297 303.5t-109.5 416.5q0 168 64.5 322t174 265.5t260.5 177.5t316 66q164 0 315 -66t260.5 -177.5t174.5 -265.5t65 -322q0 -225 -110 -416.5t-298 -303.5t-407 -112zM903 14q137 0 264 56.5t219.5 151t147.5 224.5t55 271q0 142 -55 272
t-147.5 224t-219.5 150t-264 56q-139 0 -266 -56t-219 -150t-146.5 -224t-54.5 -272q0 -189 92 -351t250.5 -257t343.5 -95zM1223 393l-74 -92q-69 14 -129 61q-50 -20 -117 -20q-106 0 -182.5 52.5t-113 137.5t-36.5 191v8q0 162 87.5 271.5t244.5 109.5q105 0 180.5 -53
t111.5 -138t36 -190v-8q0 -185 -103 -291q52 -29 95 -39zM903 457q96 0 149.5 75.5t53.5 188.5v12q0 112 -54 189t-149 77q-97 0 -150 -77t-53 -189v-12q0 -114 52.5 -189t150.5 -75z" />
    <glyph glyph-name="uni24C7" unicode="&#x28;R&#x29;" 
d="M903 -115q-221 0 -408.5 112t-297 303.5t-109.5 416.5q0 168 64.5 322t174 265.5t260.5 177.5t316 66q164 0 315 -66t260.5 -177.5t174.5 -265.5t65 -322q0 -225 -110 -416.5t-298 -303.5t-407 -112zM903 14q137 0 264 56.5t219.5 151t147.5 224.5t55 271q0 142 -55 272
t-147.5 224t-219.5 150t-264 56q-139 0 -266 -56t-219 -150t-146.5 -224t-54.5 -272q0 -189 92 -351t250.5 -257t343.5 -95zM766 346h-127v741h322q118 0 182.5 -60t64.5 -169q0 -166 -151 -211l160 -301h-136l-149 289h-166v-289zM766 975v-227h192q123 0 123 114
q0 113 -123 113h-192z" />
    <glyph glyph-name="uni24C8" unicode="&#x28;S&#x29;" 
d="M903 -115q-221 0 -408.5 112t-297 303.5t-109.5 416.5q0 168 64.5 322t174 265.5t260.5 177.5t316 66q164 0 315 -66t260.5 -177.5t174.5 -265.5t65 -322q0 -225 -110 -416.5t-298 -303.5t-407 -112zM903 14q137 0 264 56.5t219.5 151t147.5 224.5t55 271q0 142 -55 272
t-147.5 224t-219.5 150t-264 56q-139 0 -266 -56t-219 -150t-146.5 -224t-54.5 -272q0 -189 92 -351t250.5 -257t343.5 -95zM907 332q-136 0 -211.5 63t-77.5 174h127q3 -127 162 -127q71 0 112.5 29t41.5 80q0 38 -33.5 63.5t-112.5 47.5l-53 16q-120 34 -175.5 84.5
t-55.5 126.5q0 96 74.5 154.5t199.5 58.5q127 0 197.5 -59.5t73.5 -165.5h-127q-1 55 -40 85.5t-104 30.5q-69 0 -108 -26t-39 -70q0 -37 31.5 -63.5t107.5 -49.5l55 -14q124 -38 181 -87t57 -124q0 -104 -77 -165.5t-206 -61.5z" />
    <glyph glyph-name="uni24C9" unicode="&#x28;T&#x29;" 
d="M903 -115q-221 0 -408.5 112t-297 303.5t-109.5 416.5q0 168 64.5 322t174 265.5t260.5 177.5t316 66q164 0 315 -66t260.5 -177.5t174.5 -265.5t65 -322q0 -225 -110 -416.5t-298 -303.5t-407 -112zM903 14q137 0 264 56.5t219.5 151t147.5 224.5t55 271q0 142 -55 272
t-147.5 224t-219.5 150t-264 56q-139 0 -266 -56t-219 -150t-146.5 -224t-54.5 -272q0 -189 92 -351t250.5 -257t343.5 -95zM967 305h-129l2 629h-226v113h578v-113h-225v-629z" />
    <glyph glyph-name="uni24CA" unicode="&#x28;U&#x29;" 
d="M903 -115q-221 0 -408.5 112t-297 303.5t-109.5 416.5q0 168 64.5 322t174 265.5t260.5 177.5t316 66q164 0 315 -66t260.5 -177.5t174.5 -265.5t65 -322q0 -225 -110 -416.5t-298 -303.5t-407 -112zM903 14q137 0 264 56.5t219.5 151t147.5 224.5t55 271q0 142 -55 272
t-147.5 224t-219.5 150t-264 56q-139 0 -266 -56t-219 -150t-146.5 -224t-54.5 -272q0 -189 92 -351t250.5 -257t343.5 -95zM905 299q-141 0 -219 90.5t-78 237.5v428h129v-437q0 -93 43.5 -148.5t124.5 -55.5q80 0 124 55.5t44 148.5v437h125v-428q0 -148 -75.5 -238
t-217.5 -90z" />
    <glyph glyph-name="uni24CB" unicode="&#x28;V&#x29;" 
d="M903 -115q-221 0 -408.5 112t-297 303.5t-109.5 416.5q0 168 64.5 322t174 265.5t260.5 177.5t316 66q164 0 315 -66t260.5 -177.5t174.5 -265.5t65 -322q0 -225 -110 -416.5t-298 -303.5t-407 -112zM903 14q137 0 264 56.5t219.5 151t147.5 224.5t55 271q0 142 -55 272
t-147.5 224t-219.5 150t-264 56q-139 0 -266 -56t-219 -150t-146.5 -224t-54.5 -272q0 -189 92 -351t250.5 -257t343.5 -95zM973 305h-139l-287 742h129l225 -596h4l225 596h130z" />
    <glyph glyph-name="uni24CC" unicode="&#x28;W&#x29;" 
d="M903 -115q-221 0 -408.5 112t-297 303.5t-109.5 416.5q0 168 64.5 322t174 265.5t260.5 177.5t316 66q164 0 315 -66t260.5 -177.5t174.5 -265.5t65 -322q0 -225 -110 -416.5t-298 -303.5t-407 -112zM903 14q137 0 264 56.5t219.5 151t147.5 224.5t55 271q0 142 -55 272
t-147.5 224t-219.5 150t-264 56q-139 0 -266 -56t-219 -150t-146.5 -224t-54.5 -272q0 -189 92 -351t250.5 -257t343.5 -95zM754 305h-125l-207 742h127l143 -545h6l144 545h123l143 -545h6l143 545h127l-206 -742h-125l-146 541h-6z" />
    <glyph glyph-name="uni24CD" unicode="&#x28;X&#x29;" 
d="M903 -115q-221 0 -408.5 112t-297 303.5t-109.5 416.5q0 168 64.5 322t174 265.5t260.5 177.5t316 66q164 0 315 -66t260.5 -177.5t174.5 -265.5t65 -322q0 -225 -110 -416.5t-298 -303.5t-407 -112zM903 14q137 0 264 56.5t219.5 151t147.5 224.5t55 271q0 142 -55 272
t-147.5 224t-219.5 150t-264 56q-139 0 -266 -56t-219 -150t-146.5 -224t-54.5 -272q0 -189 92 -351t250.5 -257t343.5 -95zM731 346h-141l244 371l-244 370h141l170 -256h4l170 256h142l-244 -370l244 -371h-142l-170 258h-4z" />
    <glyph glyph-name="uni24CE" unicode="&#x28;Y&#x29;" 
d="M903 -115q-221 0 -408.5 112t-297 303.5t-109.5 416.5q0 168 64.5 322t174 265.5t260.5 177.5t316 66q164 0 315 -66t260.5 -177.5t174.5 -265.5t65 -322q0 -225 -110 -416.5t-298 -303.5t-407 -112zM903 14q137 0 264 56.5t219.5 151t147.5 224.5t55 271q0 142 -55 272
t-147.5 224t-219.5 150t-264 56q-139 0 -266 -56t-219 -150t-146.5 -224t-54.5 -272q0 -189 92 -351t250.5 -257t343.5 -95zM967 305h-127v291l-269 451h142l188 -322h6l189 322h139l-268 -451v-291z" />
    <glyph glyph-name="uni24CF" unicode="&#x28;Z&#x29;" 
d="M903 -115q-221 0 -408.5 112t-297 303.5t-109.5 416.5q0 168 64.5 322t174 265.5t260.5 177.5t316 66q164 0 315 -66t260.5 -177.5t174.5 -265.5t65 -322q0 -225 -110 -416.5t-298 -303.5t-407 -112zM903 14q137 0 264 56.5t219.5 151t147.5 224.5t55 271q0 142 -55 272
t-147.5 224t-219.5 150t-264 56q-139 0 -266 -56t-219 -150t-146.5 -224t-54.5 -272q0 -189 92 -351t250.5 -257t343.5 -95zM1184 346h-561v109l405 514v6h-401v112h551v-108l-400 -514v-4h406v-115z" />
    <glyph glyph-name="uni24EA" unicode="&#x28;&#x30;&#x29;" 
d="M903 -115q-221 0 -408.5 112t-297 303.5t-109.5 416.5q0 168 64.5 322t174 265.5t260.5 177.5t316 66q164 0 315 -66t260.5 -177.5t174.5 -265.5t65 -322q0 -225 -110 -416.5t-298 -303.5t-407 -112zM903 14q137 0 264 56.5t219.5 151t147.5 224.5t55 271q0 142 -55 272
t-147.5 224t-219.5 150t-264 56q-139 0 -266 -56t-219 -150t-146.5 -224t-54.5 -272q0 -189 92 -351t250.5 -257t343.5 -95zM903 332q-136 0 -218.5 103.5t-82.5 275.5v8q0 173 82.5 278t218.5 105q139 0 220 -107.5t81 -275.5v-8q-2 -173 -83 -276t-218 -103zM903 446
q79 0 126.5 71.5t49.5 193.5v10q0 121 -48 194.5t-128 73.5q-78 0 -126 -73.5t-48 -194.5v-10q0 -121 48 -193t126 -72z" />
    <glyph glyph-name="uni24EB" unicode="&#x7b;&#x31;&#x31;&#x7d;" 
d="M903 -115q-221 0 -408.5 112t-297 303.5t-109.5 416.5q0 168 64.5 322t174 265.5t260.5 177.5t316 66q164 0 315 -66t260.5 -177.5t174.5 -265.5t65 -322q0 -225 -110 -416.5t-298 -303.5t-407 -112zM633 909v-563h125v713h-99q-26 -46 -81 -77t-101 -26v-116
q48 -3 95.5 20t60.5 49zM1079 909v-563h125v713h-98q-26 -46 -81 -77t-101 -26v-116q48 -3 95 20t60 49z" />
    <glyph glyph-name="uni24EC" unicode="&#x7b;&#x31;&#x32;&#x7d;" 
d="M903 -115q-221 0 -408.5 112t-297 303.5t-109.5 416.5q0 168 64.5 322t174 265.5t260.5 177.5t316 66q164 0 315 -66t260.5 -177.5t174.5 -265.5t65 -322q0 -225 -110 -416.5t-298 -303.5t-407 -112zM811 436v-88h496v111h-318l228 221q86 86 86 182q0 94 -64.5 153.5
t-173.5 59.5q-112 0 -180.5 -70.5t-73.5 -181.5h127q-2 62 32.5 102t94.5 40q54 0 84.5 -28t30.5 -79q0 -63 -47 -110zM580 909v-563h125v713h-99q-26 -46 -81 -77t-101 -26v-116q48 -3 96.5 20.5t59.5 48.5z" />
    <glyph glyph-name="uni24ED" unicode="&#x7b;&#x31;&#x33;&#x7d;" 
d="M903 -115q-221 0 -408.5 112t-297 303.5t-109.5 416.5q0 168 64.5 322t174 265.5t260.5 177.5t316 66q164 0 315 -66t260.5 -177.5t174.5 -265.5t65 -322q0 -225 -110 -416.5t-298 -303.5t-407 -112zM1073 330q116 0 190 59t74 154q0 60 -28 105.5t-78 68.5
q37 25 59.5 65t22.5 84q0 89 -70.5 147t-171.5 58q-102 0 -173 -59.5t-75 -149.5h123q3 43 38 71t87 28q51 0 85 -28t34 -69q0 -43 -33.5 -71.5t-85.5 -28.5h-94v-102h94q66 0 104.5 -30t38.5 -81t-38 -81t-105 -30q-58 0 -98 30t-43 75h-127q1 -92 78.5 -153.5t191.5 -61.5
zM578 909v-563h124v713h-98q-26 -46 -81 -77t-101 -26v-116q48 -3 95.5 20t60.5 49z" />
    <glyph glyph-name="uni24EE" unicode="&#x7b;&#x31;&#x34;&#x7d;" 
d="M903 -115q-221 0 -408.5 112t-297 303.5t-109.5 416.5q0 168 64.5 322t174 265.5t260.5 177.5t316 66q164 0 315 -66t260.5 -177.5t174.5 -265.5t65 -322q0 -225 -110 -416.5t-298 -303.5t-407 -112zM555 909v-563h125v713h-98q-28 -46 -83 -76.5t-102 -26.5v-116
q48 -3 96.5 20.5t61.5 48.5zM1135 498v-152h122v152h103v108h-103v453h-149l-326 -461v-100h353zM1133 606h-220l220 309v-309z" />
    <glyph glyph-name="uni24EF" unicode="&#x7b;&#x31;&#x35;&#x7d;" 
d="M903 -115q-221 0 -408.5 112t-297 303.5t-109.5 416.5q0 168 64.5 322t174 265.5t260.5 177.5t316 66q164 0 315 -66t260.5 -177.5t174.5 -265.5t65 -322q0 -225 -110 -416.5t-298 -303.5t-407 -112zM567 909v-563h125v713h-98q-26 -46 -81 -77t-101 -26v-116
q48 -3 95 20t60 49zM1075 330q112 0 184 71.5t72 182.5t-64.5 181.5t-166.5 70.5q-87 0 -135 -66l24 176h307v111h-413l-47 -402h116q31 72 123 72q60 -2 95.5 -40.5t35.5 -102.5q0 -65 -35.5 -104.5t-95.5 -39.5q-62 0 -99.5 37t-37.5 98l-117 -2q-4 -108 66.5 -175.5
t187.5 -67.5z" />
    <glyph glyph-name="uni24F0" unicode="&#x7b;&#x31;&#x36;&#x7d;" 
d="M903 -115q-221 0 -408.5 112t-297 303.5t-109.5 416.5q0 168 64.5 322t174 265.5t260.5 177.5t316 66q164 0 315 -66t260.5 -177.5t174.5 -265.5t65 -322q0 -225 -110 -416.5t-298 -303.5t-407 -112zM1063 326q114 0 184 70.5t70 181.5q0 106 -67.5 174.5t-170.5 68.5
q-111 0 -168 -100q5 107 46.5 171t111.5 64q54 0 83.5 -25t41.5 -77h117q-11 97 -75 155t-163 58q-127 0 -204.5 -107t-77.5 -278q0 -169 71.5 -262.5t200.5 -93.5zM573 909v-563h125v711h-98q-26 -45 -81 -75.5t-101 -25.5v-116q48 -4 95 19t60 50zM1059 436
q-60 0 -98.5 40t-38.5 104q0 63 38.5 102t98.5 39t97.5 -39t37.5 -102q0 -65 -37 -104.5t-98 -39.5z" />
    <glyph glyph-name="uni24F1" unicode="&#x7b;&#x31;&#x37;&#x7d;" 
d="M903 -115q-221 0 -408.5 112t-297 303.5t-109.5 416.5q0 168 64.5 322t174 265.5t260.5 177.5t316 66q164 0 315 -66t260.5 -177.5t174.5 -265.5t65 -322q0 -225 -110 -416.5t-298 -303.5t-407 -112zM588 909v-563h125v713h-99q-26 -46 -81 -77t-101 -26v-116
q48 -3 95.5 20t60.5 49zM977 346h125q0 175 56 322t177 282v109h-495v-111h350q-100 -122 -156.5 -278.5t-56.5 -323.5z" />
    <glyph glyph-name="uni24F2" unicode="&#x7b;&#x31;&#x38;&#x7d;" 
d="M903 -115q-221 0 -408.5 112t-297 303.5t-109.5 416.5q0 168 64.5 322t174 265.5t260.5 177.5t316 66q164 0 315 -66t260.5 -177.5t174.5 -265.5t65 -322q0 -225 -110 -416.5t-298 -303.5t-407 -112zM1059 332q114 0 191 60t77 155q0 106 -104 170q77 55 77 151
q0 91 -69 148t-172 57t-171.5 -57t-68.5 -148q0 -95 78 -151q-109 -59 -109 -170q0 -97 77 -156t194 -59zM586 909v-563h125v713h-99q-28 -46 -82.5 -76.5t-101.5 -26.5v-116q48 -3 96.5 20.5t61.5 48.5zM1059 770q-53 0 -85 27t-32 71q0 42 32 68.5t85 26.5
q52 0 84.5 -26.5t32.5 -68.5q0 -44 -31.5 -71t-85.5 -27zM1059 442q-65 0 -105.5 31t-40.5 82q0 47 41 78t105 31t103.5 -30.5t39.5 -78.5q0 -51 -39 -82t-104 -31z" />
    <glyph glyph-name="uni24F3" unicode="&#x7b;&#x31;&#x39;&#x7d;" 
d="M903 -115q-221 0 -408.5 112t-297 303.5t-109.5 416.5q0 168 64.5 322t174 265.5t260.5 177.5t316 66q164 0 315 -66t260.5 -177.5t174.5 -265.5t65 -322q0 -225 -110 -416.5t-298 -303.5t-407 -112zM1049 332q126 0 204 107t78 278q0 168 -72 262t-200 94
q-115 0 -185.5 -70.5t-70.5 -181.5q0 -106 67.5 -174.5t171.5 -68.5q61 0 103.5 29t62.5 71q-5 -108 -45.5 -172t-109.5 -64q-104 0 -125 103h-117q9 -97 73 -155t165 -58zM582 909v-563h125v713h-99q-28 -46 -82.5 -76.5t-101.5 -26.5v-116q48 -3 96.5 20.5t61.5 48.5z
M1061 678q-60 0 -96.5 39t-36.5 102q0 65 36.5 104.5t96.5 39.5q61 0 99 -39.5t38 -104.5q0 -63 -38 -102t-99 -39z" />
    <glyph glyph-name="uni24F4" unicode="&#x7b;&#x32;&#x30;&#x7d;" 
d="M903 -115q-221 0 -408.5 112t-297 303.5t-109.5 416.5q0 168 64.5 322t174 265.5t260.5 177.5t316 66q164 0 315 -66t260.5 -177.5t174.5 -265.5t65 -322q0 -225 -110 -416.5t-298 -303.5t-407 -112zM1159 375q126 0 200.5 93t74.5 249v8q0 150 -74 247t-201 97
q-121 0 -195.5 -95t-74.5 -249v-8q0 -155 73.5 -248.5t196.5 -93.5zM399 469v-84h467v104h-297l121 117q41 33 92 90q80 96 80 170q0 89 -61 145t-162 56q-107 0 -172 -66t-68 -172h119q0 58 32.5 96t88.5 38q50 0 78 -26t28 -73q0 -46 -43 -102q-32 -40 -90 -92zM1159 479
q-69 0 -111 64t-42 174v8q0 109 42 174.5t111 65.5q72 0 115 -65.5t43 -174.5v-8q0 -110 -43 -174t-115 -64z" />
    <glyph glyph-name="uni24FF" unicode="&#x7b;&#x30;&#x7d;" 
d="M903 -115q-221 0 -408.5 112t-297 303.5t-109.5 416.5q0 168 64.5 322t174 265.5t260.5 177.5t316 66q164 0 315 -66t260.5 -177.5t174.5 -265.5t65 -322q0 -225 -110 -416.5t-298 -303.5t-407 -112zM903 332q137 0 218 103t83 276v8q0 168 -81 275.5t-220 107.5
q-136 0 -218.5 -105t-82.5 -278v-8q0 -172 82.5 -275.5t218.5 -103.5zM903 446q-78 0 -126 72t-48 193v10q0 121 48 194.5t126 73.5q80 0 128 -73.5t48 -194.5v-10q-2 -122 -49.5 -193.5t-126.5 -71.5z" />
    <glyph glyph-name="filledbox" unicode="&#x23;SQUARE" horiz-adv-x="1681" 
d="M1544 0h-1409v1434h1409v-1434z" />
    <glyph glyph-name="triagup" unicode="&#x23;TRIANGLE" horiz-adv-x="1736" 
d="M1667 0h-1599l798 1436z" />
    <glyph glyph-name="uni25CF" unicode="&#x23;CIRCLE" horiz-adv-x="1671" 
d="M836 -31q-203 0 -375 100.5t-272.5 272.5t-100.5 375q0 151 59.5 289t159.5 238t238.5 159t290.5 59q151 0 289 -59t238 -159t159 -238t59 -289q0 -152 -59 -290.5t-159 -238.5t-238 -159.5t-289 -59.5z" />
    <glyph glyph-name="uni26AC" unicode="&#x23;CORRECT" horiz-adv-x="1198" 
d="M600 225q-124 0 -227.5 60t-163 164t-59.5 227q0 188 130.5 319t319.5 131q188 0 319.5 -131.5t131.5 -318.5q0 -92 -35.5 -175.5t-96 -144t-144 -96t-175.5 -35.5zM600 406q112 0 190 78.5t78 191.5t-78 191.5t-190 78.5t-191 -79t-79 -191t79 -191t191 -79z" />
    <glyph glyph-name="uni2713" unicode="&#x23;CHECK" horiz-adv-x="1470" 
d="M1370 1016l-817 -815l-453 452l133 133l320 -317l684 682z" />
    <glyph glyph-name="uni2717" unicode="&#x2d;CANCEL" horiz-adv-x="1558" 
d="M778 541l-354 -357l-135 135l356 355l-356 358l133 133l356 -358l359 358l133 -133l-357 -358l355 -355l-133 -133z" />
    <glyph glyph-name="uni277F" unicode="&#x7b;&#x31;&#x30;&#x7d;" 
d="M903 -115q-221 0 -408.5 112t-297 303.5t-109.5 416.5q0 168 64.5 322t174 265.5t260.5 177.5t316 66q164 0 315 -66t260.5 -177.5t174.5 -265.5t65 -322q0 -225 -110 -416.5t-298 -303.5t-407 -112zM1081 332q132 0 210.5 99t78.5 265v9q0 161 -78 264.5t-211 103.5
q-130 0 -209 -101t-79 -267v-9q0 -166 78 -265t210 -99zM573 909v-563h123v713h-98q-26 -46 -81 -77t-101 -26v-116q48 -3 96 20t61 49zM1081 442q-75 0 -120.5 69t-45.5 185v11q0 117 45.5 186.5t120.5 69.5t121.5 -70.5t46.5 -185.5v-11q0 -117 -45.5 -185.5t-122.5 -68.5
z" />
    <glyph glyph-name="uni278A" unicode="&#x7b;&#x31;&#x7d;" 
d="M903 -115q-221 0 -408.5 112t-297 303.5t-109.5 416.5q0 168 64.5 322t174 265.5t260.5 177.5t316 66q164 0 315 -66t260.5 -177.5t174.5 -265.5t65 -322q0 -225 -110 -416.5t-298 -303.5t-407 -112zM862 936v-590h127v741h-100q-28 -47 -83 -77.5t-101 -24.5v-121
q48 -4 96 20t61 52z" />
    <glyph glyph-name="uni278B" unicode="&#x7b;&#x32;&#x7d;" 
d="M903 -115q-221 0 -408.5 112t-297 303.5t-109.5 416.5q0 168 64.5 322t174 265.5t260.5 177.5t316 66q164 0 315 -66t260.5 -177.5t174.5 -265.5t65 -322q0 -225 -110 -416.5t-298 -303.5t-407 -112zM647 455v-90h516v112h-332l144 137q63 58 94 97q90 103 90 186
q0 98 -67.5 159.5t-180.5 61.5q-117 0 -187 -71.5t-75 -188.5h127q2 65 37 106.5t98 41.5q57 0 88 -29t31 -82q0 -59 -49 -117q-32 -41 -98 -100z" />
    <glyph glyph-name="uni278C" unicode="&#x7b;&#x33;&#x7d;" 
d="M903 -115q-221 0 -408.5 112t-297 303.5t-109.5 416.5q0 168 64.5 322t174 265.5t260.5 177.5t316 66q164 0 315 -66t260.5 -177.5t174.5 -265.5t65 -322q0 -225 -110 -416.5t-298 -303.5t-407 -112zM905 332q121 0 199 61t78 160q0 62 -31 109t-84 71q41 27 64.5 68.5
t23.5 89.5q0 92 -73.5 151.5t-178.5 59.5t-179.5 -61.5t-78.5 -153.5h127q3 45 39.5 73.5t91.5 28.5q54 0 89.5 -28.5t35.5 -71.5q0 -46 -35.5 -75.5t-89.5 -29.5h-96v-106h96q69 0 109.5 -31.5t40.5 -85.5t-40 -84.5t-110 -30.5q-61 0 -102.5 30.5t-46.5 78.5h-129
q1 -96 81 -159.5t199 -63.5z" />
    <glyph glyph-name="uni278D" unicode="&#x7b;&#x34;&#x7d;" 
d="M903 -115q-221 0 -408.5 112t-297 303.5t-109.5 416.5q0 168 64.5 322t174 265.5t260.5 177.5t316 66q164 0 315 -66t260.5 -177.5t174.5 -265.5t65 -322q0 -225 -110 -416.5t-298 -303.5t-407 -112zM934 510v-158h129v158h106v113h-106v471h-156l-338 -480v-104h365z
M934 623h-232l232 325v-325z" />
    <glyph glyph-name="uni278E" unicode="&#x7b;&#x35;&#x7d;" 
d="M903 -115q-221 0 -408.5 112t-297 303.5t-109.5 416.5q0 168 64.5 322t174 265.5t260.5 177.5t316 66q164 0 315 -66t260.5 -177.5t174.5 -265.5t65 -322q0 -225 -110 -416.5t-298 -303.5t-407 -112zM905 311q117 0 190.5 74t73.5 190q0 115 -66 189t-171 74
q-94 0 -144 -70l27 186h320v113h-433l-47 -416h121q30 74 129 74q62 0 99.5 -41.5t37.5 -108.5q0 -68 -37 -108.5t-100 -40.5q-65 0 -104 38t-39 101h-123q-3 -114 70.5 -184t195.5 -70z" />
    <glyph glyph-name="uni278F" unicode="&#x7b;&#x36;&#x7d;" 
d="M903 -115q-221 0 -408.5 112t-297 303.5t-109.5 416.5q0 168 64.5 322t174 265.5t260.5 177.5t316 66q164 0 315 -66t260.5 -177.5t174.5 -265.5t65 -322q0 -225 -110 -416.5t-298 -303.5t-407 -112zM913 328q119 0 193 73.5t74 188.5q0 109 -71.5 181.5t-178.5 72.5
q-123 0 -172 -105q3 113 46 179.5t116 66.5q57 0 88 -26t43 -80h120q-9 99 -76 159t-171 60q-131 0 -212 -111t-81 -289q0 -175 74.5 -272.5t207.5 -97.5zM911 442q-64 0 -104.5 41.5t-40.5 106.5q0 66 40 106.5t105 40.5q63 0 101.5 -40.5t38.5 -106.5t-39 -107t-101 -41z
" />
    <glyph glyph-name="uni2790" unicode="&#x7b;&#x37;&#x7d;" 
d="M903 -115q-221 0 -408.5 112t-297 303.5t-109.5 416.5q0 168 64.5 322t174 265.5t260.5 177.5t316 66q164 0 315 -66t260.5 -177.5t174.5 -265.5t65 -322q0 -225 -110 -416.5t-298 -303.5t-407 -112zM795 326h127q2 182 60.5 334.5t184.5 293.5v113h-518v-113h367
q-105 -128 -163 -290.5t-58 -337.5z" />
    <glyph glyph-name="uni2791" unicode="&#x7b;&#x38;&#x7d;" 
d="M903 -115q-221 0 -408.5 112t-297 303.5t-109.5 416.5q0 168 64.5 322t174 265.5t260.5 177.5t316 66q164 0 315 -66t260.5 -177.5t174.5 -265.5t65 -322q0 -225 -110 -416.5t-298 -303.5t-407 -112zM905 332q120 0 199.5 61.5t79.5 161.5q0 55 -29 101t-78 75
q78 61 78 160q0 93 -71.5 152t-178.5 59t-178.5 -59t-71.5 -152q0 -99 78 -160q-50 -27 -79 -72.5t-29 -103.5q0 -100 79.5 -161.5t200.5 -61.5zM905 788q-56 0 -89.5 27.5t-33.5 73.5q0 44 34 72t89 28t89 -28t34 -72q0 -45 -34 -73t-89 -28zM905 446q-68 0 -109.5 32.5
t-41.5 84.5q0 51 41.5 82t109.5 31q67 0 109.5 -31t42.5 -82q0 -52 -42.5 -84.5t-109.5 -32.5z" />
    <glyph glyph-name="uni2792" unicode="&#x7b;&#x39;&#x7d;" 
d="M903 -115q-221 0 -408.5 112t-297 303.5t-109.5 416.5q0 168 64.5 322t174 265.5t260.5 177.5t316 66q164 0 315 -66t260.5 -177.5t174.5 -265.5t65 -322q0 -225 -110 -416.5t-298 -303.5t-407 -112zM893 332q132 0 213.5 111t81.5 288q0 176 -75 273.5t-208 97.5
q-119 0 -192.5 -72.5t-73.5 -187.5q0 -110 70.5 -182t179.5 -72q120 0 174 104q-5 -114 -48.5 -180t-117.5 -66q-108 0 -129 107h-121q9 -99 76 -160t170 -61zM907 692q-63 0 -101 41t-38 107q0 68 38 108.5t101 40.5q64 0 104 -41t40 -108q0 -66 -40.5 -107t-103.5 -41z
" />
    <glyph glyph-name="uni27F5" unicode="&#x3c;&#x2d;&#x2d;" horiz-adv-x="2447" 
d="M868 205l-125 -127l-598 598l596 598l127 -125l-391 -389h1825v-172l-1821 4z" />
    <glyph glyph-name="uni27F6" unicode="&#x2d;&#x2d;&#x3e;" horiz-adv-x="2447" 
d="M2302 676l-596 -598l-127 127l389 389l-1823 -2v172l1823 -4l-389 389l125 125z" />
    <glyph glyph-name="uni2934" unicode="&#x3c;&#x2d;upround" horiz-adv-x="1595" 
d="M559 125h-371v151h365q169 0 285 111.5t116 276.5v358l-184 -186l-108 100l372 373l375 -373l-106 -107l-197 195v-362q0 -148 -73.5 -271t-199 -194t-274.5 -72z" />
    <glyph glyph-name="uni2935" unicode="&#x2d;&#x3e;downround" horiz-adv-x="1595" 
d="M1409 498l-375 -373l-372 373l108 100l184 -186v358q0 165 -116 276t-285 111h-365v152h371q148 0 274 -71t199.5 -194.5t73.5 -271.5v-362l197 194z" />
    <glyph glyph-name="uni2936" unicode="&#x2d;&#x3e;upround" horiz-adv-x="1282" 
d="M528 213l-106 -107l-373 373l373 373l100 -107l-186 -186l358 2q164 0 275.5 116.5t109.5 285.5v364h154v-371q0 -148 -71.5 -273.5t-195.5 -199t-272 -73.5l-360 -2z" />
    <glyph glyph-name="uni2937" unicode="&#x3c;&#x2d;downround" horiz-adv-x="1282" 
d="M1233 481l-373 -375l-106 107l194 197h-362q-148 0 -271.5 73.5t-194.5 199t-71 273.5v371h154v-364q-2 -169 109 -285.5t276 -116.5h358l-186 184l100 109z" />
    <glyph glyph-name="uniE001" unicode="&#x23;LANE" horiz-adv-x="1884" 
d="M279 -29h-97v1491h97v-1491zM756 -29h-99v1491h99v-1491zM1229 -29h-94v1491h94v-1491zM1702 -29h-94v1491h94v-1491z" />
    <glyph glyph-name="uniE002" unicode="&#x23;MEETING" horiz-adv-x="1970" 
d="M983 735q-151 0 -258 107t-107 256q0 151 107 257.5t258 106.5t258 -106t107 -258q0 -149 -107 -256t-258 -107zM983 831q112 0 190 78t78 189t-78 188.5t-190 77.5q-110 0 -188 -78t-78 -188t78 -188.5t188 -78.5zM539 -29q-151 0 -258 107t-107 258q0 149 107 255.5
t258 106.5t257.5 -106.5t106.5 -255.5q0 -151 -106.5 -258t-257.5 -107zM1427 -29q-149 0 -255.5 107.5t-106.5 257.5q0 149 106.5 255.5t255.5 106.5q152 0 258.5 -106t106.5 -256q0 -151 -106.5 -258t-258.5 -107zM539 70q110 0 189 78t79 188t-79 188t-189 78
q-111 0 -190 -78t-79 -188t79 -188t190 -78zM1427 70q112 0 190.5 78t78.5 188t-78.5 188t-190.5 78q-109 0 -187.5 -78t-78.5 -188t78.5 -188t187.5 -78z" />
    <glyph glyph-name="uniE003" unicode="&#x23;BEACH" horiz-adv-x="1757" 
d="M922 700h-86q3 399 -318 566q-72 38 -157.5 59.5t-122.5 25t-60 3.5l2 98q20 0 62.5 -4.5t137.5 -30t177 -67.5q236 -123 322 -340q83 215 319 340q83 42 176 67.5t133.5 30t59.5 4.5l2 -98q-18 0 -53.5 -3.5t-121 -26t-157.5 -60.5q-318 -167 -315 -564zM1565 340h-1375
v96h1375v-96zM1565 -25h-1375v97h1375v-97z" />
    <glyph glyph-name="uniE004" unicode="&#x23;STAIR" horiz-adv-x="2179" 
d="M641 -27h-463v95h369v352h332v354h344v354h336v326h444v-96h-348v-324h-336v-356h-344v-352h-334v-353z" />
    <glyph glyph-name="uniE005" unicode="&#x23;TWOWAY" horiz-adv-x="2996" 
d="M1493 -27q-204 0 -391 80t-322.5 215.5t-216 322.5t-80.5 392l4 307l-249 -246l-62 58l352 350l357 -354l-62 -56l-252 250v-307q0 -186 73 -356t197 -293t294.5 -195.5t357.5 -72.5q185 0 355.5 73t294.5 196t198 293t74 355v307l-242 -239l-62 55l347 344l362 -360
l-63 -60l-256 258v-309q-1 -204 -81.5 -390.5t-216 -321.5t-321.5 -215.5t-389 -80.5z" />
    <glyph glyph-name="uniE006" unicode="&#x23;CABINET" horiz-adv-x="1845" 
d="M1663 -23h-1481v1479h1481v-1479zM279 1360v-361h1288v361h-1288zM279 905v-373h1288v373h-1288zM279 436v-364h1288v364h-1288z" />
    <glyph glyph-name="uniE007" unicode="&#x23;FOREST" horiz-adv-x="1880" 
d="M950 -16l-338 641l-327 -633l-82 43l358 690l-358 674l82 45l325 -619l322 625l338 -641l327 635l82 -45l-356 -690l356 -672l-82 -45l-327 616zM934 1249l-268 -524l282 -539l269 523z" />
    <glyph glyph-name="uniE008" unicode="&#x23;HOUSE" horiz-adv-x="1822" 
d="M1640 -23h-1458v881l729 598l729 -598v-881zM276 813v-739l588 2v1216zM958 76l588 -2v739l-588 479v-1216z" />
    <glyph glyph-name="uniE009" unicode="&#x23;WINE" horiz-adv-x="1835" 
d="M1653 -23h-1471v95h688v587q-143 8 -270.5 70t-219 160t-145 229.5t-53.5 274.5v63h1471v-63q0 -191 -91 -355.5t-249.5 -266t-347.5 -112.5v-587h688v-95zM870 754v606h-591q5 -119 53.5 -227t127.5 -188.5t185.5 -131.5t224.5 -59zM965 1360v-606q118 8 224.5 59
t185.5 131.5t127.5 188.5t53.5 227h-591z" />
    <glyph glyph-name="uniE010" unicode="&#x23;HOSPITAL" horiz-adv-x="1839" 
d="M279 -23h-97l2 881l734 598l737 -598l2 -881h-96v838l-646 510l-636 -510v-838zM969 381h-97v215h-215v96h215v215h97v-215h215v-96h-215v-215z" />
    <glyph glyph-name="uniE011" unicode="&#x23;MEN" horiz-adv-x="1853" 
d="M922 717q-154 0 -262.5 108t-108.5 262q0 152 108.5 260.5t262.5 108.5q152 0 260 -108.5t108 -260.5q0 -154 -108 -262t-260 -108zM922 813q113 0 192.5 80t79.5 194q0 113 -80 193t-192 80q-114 0 -194.5 -80t-80.5 -193q0 -114 80.5 -194t194.5 -80zM279 -23h-97v609
h1489v-609h-96v515h-1296v-515z" />
    <glyph glyph-name="uniE012" unicode="&#x23;WOMEN" horiz-adv-x="1656" 
d="M823 719q-154 0 -262 107t-108 261q0 153 108.5 261t261.5 108q152 0 260.5 -108.5t108.5 -260.5q0 -153 -108 -260.5t-261 -107.5zM823 813q113 0 194 80t81 194t-81 194.5t-194 80.5q-114 0 -194 -80.5t-80 -194.5t80 -194t194 -80zM281 -23h-95l205 609h877l205 -609
h-95l-174 515h-751z" />
    <glyph glyph-name="uniE013" unicode="&#x23;NO" horiz-adv-x="1845" 
d="M924 -25q-154 2 -294 62t-247 172q-97 103 -149 235t-52 273q0 150 58.5 287.5t158 236.5t237 158t288.5 59q150 0 287 -59t236 -158t157.5 -236.5t58.5 -287.5t-59 -287.5t-158 -237t-235.5 -158.5t-286.5 -59zM422 311l938 881q-89 83 -201.5 127.5t-234.5 44.5
q-132 0 -252 -51.5t-206.5 -138t-138 -206.5t-51.5 -251q0 -227 146 -406zM924 72q175 0 324 86.5t236 235t87 323.5q0 220 -148 407l-940 -880q187 -172 441 -172z" />
    <glyph glyph-name="uniE014" unicode="&#x23;MAIL" horiz-adv-x="2476" 
d="M2296 -25h-2114v1483h2114v-1483zM279 1260l960 -496l961 493v105h-1921v-102zM279 1149v-1079h1921v1075l-961 -492z" />
    <glyph glyph-name="uniE015" unicode="&#x23;PEACE" horiz-adv-x="1845" 
d="M924 -25q-151 0 -288.5 59t-237 158.5t-158 237t-58.5 287.5t58.5 287.5t158 236.5t237 158t288.5 59q150 0 287 -59t236 -158t157.5 -236.5t58.5 -287.5t-58.5 -287.5t-157.5 -237t-236 -158.5t-287 -59zM436 297l441 440v623q-166 -12 -303.5 -101t-216 -232
t-78.5 -310q0 -237 157 -420zM971 737l438 -440q158 184 158 420q0 167 -78.5 310t-216 232t-303.5 101zM877 74v526l-373 -371q162 -137 373 -155zM971 600l-2 -526q210 18 372 155z" />
    <glyph glyph-name="uniE018" unicode="&#x23;BAGGAGE" horiz-adv-x="2115" 
d="M1933 -25h-1751v1237h625v246h508v-246h618v-1237zM901 1362v-150h318v150h-318zM279 1118v-1046h1560v1046h-1560z" />
    <glyph glyph-name="uniE019" unicode="&#x23;CYCLE" horiz-adv-x="2420" 
d="M1630 1366h-321v92h321v-92zM1030 1235h-440v92h440v-92zM618 -25q-180 0 -308 128t-128 309q0 179 127.5 307.5t308.5 128.5q74 0 136 -23l149 336h668l135 -323q39 10 96 10q181 0 308.5 -128t127.5 -308q0 -183 -127 -310t-309 -127q-180 0 -307 128t-127 309
q0 128 69 235t181 160l-111 262h-544l-125 -281q99 -58 158 -158t59 -218q0 -182 -128 -309.5t-309 -127.5zM618 68q141 0 242 101.5t101 242.5q0 90 -44 167.5t-118 122.5l-142 -313l-82 37l140 315q-58 15 -97 15q-142 0 -243 -101.5t-101 -242.5q0 -142 101 -243
t243 -101zM1802 68q142 0 243 101.5t101 242.5t-101 242.5t-243 101.5q-32 0 -59 -6l137 -324l-86 -37l-139 332q-88 -42 -141.5 -125.5t-53.5 -183.5q0 -142 100.5 -243t241.5 -101z" />
    <glyph glyph-name="uniE020" unicode="&#x23;DOG" horiz-adv-x="2291" 
d="M512 -23h-96v707q-67 10 -116.5 50.5t-74 93.5t-35 100.5t-8.5 85.5h90q0 -1 2 -16.5t3.5 -24.5t6 -28.5t9 -33t12.5 -33t17.5 -32.5t23.5 -27.5t30.5 -23.5t38 -15t46.5 -6l923 60v454q0 72 80.5 120t188.5 42l-2 -92q-154 0 -166 -70l622 -155l-84 -351l-542 -37
l-2 -768h-97v252h-870v-252zM1481 1192v-354l465 32l49 195zM512 684v-362h872v417z" />
    <glyph glyph-name="uniE021" unicode="&#x23;FISH" horiz-adv-x="3545" 
d="M1507 -25q-325 0 -676 193.5t-641 533.5v29q290 340 641 533.5t676 193.5q304 0 626.5 -175.5t616.5 -500.5l549 617l62 -62l-553 -620l553 -621l-62 -61l-549 616q-294 -325 -616.5 -500.5t-626.5 -175.5zM1507 70q113 0 230.5 27.5t216 70.5t197.5 103t174 117
t147 122.5t114.5 109t79.5 85.5l3 24q-38 42 -80 85.5t-115 109t-148 122.5t-174.5 117.5t-198 103t-216 70t-230.5 27.5q-112 0 -229 -27t-216.5 -69t-201.5 -102t-179 -116t-154.5 -122.5t-122 -109.5t-87.5 -87l2 -29q41 -43 86.5 -87t122 -109.5t154 -122t179 -116
t201 -101.5t216.5 -69t229 -27zM678 631q-37 0 -62.5 25.5t-25.5 62.5q0 35 25.5 60.5t62.5 25.5q35 0 60.5 -25.5t25.5 -60.5q0 -37 -25.5 -62.5t-60.5 -25.5z" />
    <glyph glyph-name="uniE022" unicode="&#x23;SOFTWOOD" horiz-adv-x="1873" 
d="M639 -18h-96v755h-357l404 719l346 -612l346 612l406 -719h-359v-755h-94v755h-596v-755zM590 1264l-242 -428h486zM1282 1264l-242 -428h484z" />
    <glyph glyph-name="uniE023" unicode="&#x23;HARDWOOD" horiz-adv-x="1826" 
d="M602 -25h-94v746q-139 17 -232.5 121t-93.5 245q0 153 109 262t262 109q134 0 235.5 -86t124.5 -215q23 129 125 215t236 86q152 0 261.5 -109.5t109.5 -261.5q0 -140 -93.5 -244.5t-230.5 -121.5v-746h-94v746q-118 13 -205 95.5t-109 199.5q-20 -115 -107 -197.5
t-204 -97.5v-746zM553 813q113 0 192.5 80t79.5 194q0 113 -80 193t-192 80q-114 0 -193 -80t-79 -193q0 -114 79 -194t193 -80zM1274 813q113 0 192.5 80t79.5 194q0 113 -80 193t-192 80q-114 0 -193.5 -80t-79.5 -193q0 -114 79.5 -194t193.5 -80z" />
    <glyph glyph-name="uniE024" unicode="&#x23;TENT" horiz-adv-x="2091" 
d="M1905 -18h-1719l861 1476zM1047 1272l-699 -1196l354 2l347 600l340 -600h352zM1047 489l-238 -411h473z" />
    <glyph glyph-name="uniE025" unicode="&#x23;SUNNY" horiz-adv-x="2066" 
d="M987 1573h92v-264h-92v264zM465 1358l186 -189l-65 -65l-189 186zM1602 1358l65 -68l-186 -186l-66 65zM1032 1223q209 0 357.5 -148.5t148.5 -357.5q0 -136 -68.5 -252.5t-185 -185t-252.5 -68.5q-118 0 -223 51v-47h-168v49l-176 -178l-68 68l181 178h-50v166h47
q-49 104 -49 219q0 209 148.5 357.5t357.5 148.5zM1032 305q170 0 291 121t121 291t-121 290.5t-291 120.5t-290.5 -120.5t-120.5 -290.5q0 -122 63 -219h35v-47q24 -29 39 -41h51v-39q101 -66 223 -66zM1620 676v94h264v-94h-264zM1602 86l-187 188l66 66l186 -186z
M641 332h-47l47 -47v47z" />
    <glyph glyph-name="uniE026" unicode="&#x23;LOUNGE" horiz-adv-x="1845" 
d="M924 -25q-150 0 -287.5 59t-237 158.5t-158.5 237t-59 287.5t58.5 287.5t158 236.5t237 158t288.5 59q200 0 370 -99.5t269.5 -270t99.5 -371.5q0 -150 -59 -287t-158 -236.5t-236 -159t-286 -59.5zM924 72q130 0 249 51.5t205.5 138t137.5 206t51 249.5t-51 249.5
t-137.5 206t-205.5 138t-249 51.5q-175 0 -323.5 -86.5t-235 -235t-86.5 -323.5t86.5 -323.5t235 -235t323.5 -86.5zM924 360q-149 0 -254 104.5t-105 252.5q0 149 105 253.5t254 104.5q148 0 252 -104.5t104 -253.5q0 -147 -105 -252t-251 -105zM924 457q107 0 183.5 76.5
t76.5 183.5q0 109 -76.5 186.5t-183.5 77.5q-110 0 -187.5 -77.5t-77.5 -186.5q0 -107 78 -183.5t187 -76.5z" />
    <glyph glyph-name="uniE027" unicode="&#x23;BEER" horiz-adv-x="1957" 
d="M1315 -25h-1133v1477h1133v-242q202 -12 327 -131q134 -128 134 -348q0 -207 -125 -323q-126 -119 -336 -132v-301zM279 1356v-1284h241v1284h-241zM614 1356v-1284h273v1284h-273zM981 1356v-1284h238v1284h-238zM1315 1112v-737q174 12 268 104q94 91 94 252
q0 183 -104 277q-87 85 -258 104z" />
    <glyph glyph-name="uniE028" unicode="&#x23;BEDROOM" horiz-adv-x="3770" 
d="M279 -25h-97v1483h97v-923l3309 -25v-535h-94v439l-3215 22v-461zM1081 997h-630v97h630v-97zM3580 739h-3129v97h3129v-97z" />
    <glyph glyph-name="uniE029" unicode="&#x23;BUS" horiz-adv-x="3782" 
d="M850 -66q-110 0 -193 73.5t-100 182.5h-375v1227h3240l178 -469v-747l-358 -2q-14 -110 -100 -187.5t-199 -77.5q-114 0 -198.5 76t-98.5 187l-1499 -2q-15 -111 -100 -186t-197 -75zM279 1321v-1038l278 2q19 107 101.5 178.5t191.5 71.5q111 0 194.5 -71.5
t102.5 -178.5l1503 6q19 105 101.5 174.5t191.5 69.5q108 0 190.5 -68t104.5 -172l272 2v633l-151 391h-3080zM850 29q88 0 148.5 60.5t60.5 146.5t-60.5 146t-148.5 60q-86 0 -145.5 -60t-59.5 -146t59.5 -146.5t145.5 -60.5zM2943 29q86 0 146.5 60.5t60.5 146.5t-61 146
t-146 60q-87 0 -147 -60t-60 -146q0 -87 60 -147t147 -60z" />
    <glyph glyph-name="uniE030" unicode="&#x23;CAR" horiz-adv-x="3004" 
d="M741 -66q-113 0 -197.5 74.5t-103.5 186.5h-258v667l518 555h871l604 -465l649 -180v-577h-379q-19 -111 -104 -186t-197 -75q-114 0 -199 74.5t-104 186.5h-799q-17 -111 -102.5 -186t-198.5 -75zM276 823l3 -534h161q17 110 102 184t199 74q115 0 200.5 -74t100.5 -184
h799q17 110 102.5 184t200.5 74t200.5 -74t100.5 -184h283v405l-600 170l-586 457h-803zM741 33q88 0 149.5 61.5t61.5 149.5q0 85 -62.5 146t-148.5 61t-147.5 -60.5t-61.5 -146.5q0 -88 61.5 -149.5t147.5 -61.5zM2144 33q86 0 147.5 62.5t61.5 148.5q0 85 -61.5 146
t-147.5 61t-147.5 -61t-61.5 -146q0 -88 60.5 -149.5t148.5 -61.5z" />
    <glyph glyph-name="uniE031" unicode="&#x23;TRUCK" horiz-adv-x="3921" 
d="M903 -68q-111 0 -194.5 71.5t-102.5 178.5h-424v1235h2675v-114h666l219 -410v-696h-209q-13 -114 -97 -188.5t-200 -76.5q-114 1 -198 75.5t-99 185.5l-1741 -7q-17 -109 -100 -181t-195 -73zM2761 1323h-2485v-1047l330 3q15 108 99.5 180.5t197.5 72.5q110 0 194 -71
t101 -178l1563 10v1030zM3463 1208h-606v-915h84q20 104 103 171.5t192 67.5q108 0 191.5 -68t103.5 -173h116v579zM903 29q86 0 145.5 59.5t59.5 147.5q0 85 -59.5 143.5t-145.5 58.5t-145.5 -58.5t-59.5 -143.5q0 -88 58.5 -147.5t146.5 -59.5zM3236 29q86 0 145.5 59.5
t59.5 147.5q0 85 -59.5 143.5t-145.5 58.5t-145.5 -58.5t-59.5 -143.5q0 -88 59.5 -147.5t145.5 -59.5z" />
    <glyph glyph-name="uniE033" unicode="&#x23;NETWORK" horiz-adv-x="1845" 
d="M971 -25h-97v627l-442 -444l-67 69l444 445h-627v94h625l-442 440l67 70l442 -445v627h97v-627l442 445l66 -70l-441 -440h625v-94h-627l443 -445l-66 -69l-442 444v-627z" />
    <glyph glyph-name="uniE034" unicode="&#x23;ROAD" horiz-adv-x="3282" 
d="M3101 1458v-96h-2919v96h2919zM856 768v-96h-674v96h674zM1980 768v-96h-675v96h675zM3101 768v-96h-674v96h674zM3101 72v-97h-2919v97h2919z" />
    <glyph glyph-name="uniE036" unicode="&#x23;CHANGEROOM" horiz-adv-x="2813" 
d="M2449 -31h-2078l-185 250l1067 522l4 -96l-929 -461l88 -121h1986l86 121l-1126 490v258q134 34 189 90t55 160q0 87 -53 137.5t-144 50.5q-73 0 -125.5 -46t-58.5 -114h-103q9 110 90 182t197 72q128 0 208.5 -79t80.5 -205q0 -253 -244 -328v-115l1174 -518z" />
    <glyph glyph-name="uniE037" unicode="&#x23;DEPARTURE" horiz-adv-x="2164" 
d="M1884 1065l-1130 -621l-236 11l-332 223l258 147l183 -82l309 187l-315 334l323 186l408 -266l344 205q66 44 147 22q76 -15 115 -86q40 -70 18 -147q-25 -76 -92 -113zM545 547l190 -8l1104 608q37 24 47 57q7 39 -8 72q-26 37 -61 45q-37 9 -72 -12l-395 -240l-408 270
l-170 -98l311 -332l-452 -272l-182 84l-82 -49zM1411 -27h-1188v95h1188v-95z" />
    <glyph glyph-name="uniE038" unicode="&#x23;ARRIVAL" horiz-adv-x="2226" 
d="M1806 776l-1243 -364q-82 -22 -147 14q-68 43 -90 119q-22 73 18 141q40 67 123 88l389 103l100 475l357 102l18 -461l352 88l70 187l291 80l-78 -394zM539 500l1212 360l129 139l39 218l-94 -27l-70 -193l-512 -125l-16 457l-193 -49l-98 -483l-449 -113
q-46 -13 -61 -43q-13 -30 -10 -74q15 -36 47 -55q27 -18 76 -12zM1358 -29h-1176v97h1176v-97z" />
    <glyph glyph-name="uniE039" unicode="&#x23;UPSTAIR" horiz-adv-x="1445" 
d="M657 1237q-54 0 -92.5 39.5t-38.5 93.5q0 56 38 94.5t93 38.5t93 -38.5t38 -94.5q0 -55 -38 -94t-93 -39zM657 1333q17 0 28 11t11 26t-12 28t-27 13q-13 0 -24.5 -13t-11.5 -28q0 -17 10.5 -27t25.5 -10zM598 -35h-418v92h328v244h323v236h91v176l-209 151v223h-174
l-74 -262l108 -88v-280l-303 -213l-49 78l262 180v190l-121 101l107 387h336v-271l207 -153v-219h252v-93h-342v-237h-324v-242z" />
    <glyph glyph-name="uniE040" unicode="&#x23;DOWNSTAIR" horiz-adv-x="1486" 
d="M602 1251q-56 0 -94.5 38.5t-38.5 94.5q0 57 38.5 96.5t94.5 39.5t95.5 -39.5t39.5 -96.5q0 -56 -39 -94.5t-96 -38.5zM602 1346q17 0 29 11.5t12 26.5t-13 28t-28 13t-27 -13t-12 -28t12 -26.5t27 -11.5zM614 -63h-432v94h342v254h336v45l-174 116v291l113 92l-76 275
h-184v-342l-189 -574l-90 23l189 563v424h346l110 -401l-127 -105v-198l82 -54v90h445v-94h-355v-246h-336v-253z" />
    <glyph glyph-name="uniE041" unicode="&#x23;BATHCHAIR" horiz-adv-x="1525" 
d="M838 1188q-60 0 -101 42.5t-41 102.5q0 59 42 100.5t100 41.5q59 0 101 -42t42 -100q0 -59 -42.5 -102t-100.5 -43zM838 1286q20 0 32.5 12.5t12.5 34.5q0 19 -13 33t-32 14t-34.5 -14t-15.5 -33q0 -20 14 -33.5t36 -13.5zM608 -25q-175 0 -300.5 127t-125.5 304
t124.5 302.5t301.5 125.5q15 0 60 -5v297h301l129 -385h245v-698h-94v604h-217l-127 385h-143v-227q123 -46 198.5 -155t75.5 -244q0 -177 -125.5 -304t-302.5 -127zM608 72q138 0 236 98t98 236q0 92 -49 171.5t-131 120.5v-270h-94v303q-27 6 -60 6q-136 0 -234 -98
t-98 -233q0 -138 97.5 -236t234.5 -98z" />
    <glyph glyph-name="uniE042" unicode="&#x23;TRASH" horiz-adv-x="1327" 
d="M520 1237q-57 0 -95 38.5t-38 96.5q0 56 38.5 95.5t94.5 39.5t95.5 -39t39.5 -96t-39 -96t-96 -39zM520 1323q20 0 34.5 14.5t14.5 34.5q0 21 -14 35t-35 14q-20 0 -33.5 -14.5t-13.5 -34.5t13.5 -34.5t33.5 -14.5zM1145 -25h-760l-100 670h-105l125 520h694v-92h-624
l-80 -334h70l98 -673h160v622h90v-622h342v622h90v-713zM930 887q-20 0 -32.5 13.5t-12.5 33.5t13 34.5t32 14.5q21 0 35 -14t14 -35q0 -20 -13.5 -33.5t-35.5 -13.5zM854 752q-19 0 -31 13.5t-12 35.5q0 20 12.5 33.5t30.5 13.5q20 0 35.5 -14t15.5 -33q0 -22 -14.5 -35.5
t-36.5 -13.5z" />
    <glyph glyph-name="uniE043" unicode="&#x23;RESTROOM" horiz-adv-x="1716" 
d="M459 1237q-54 0 -91.5 38t-37.5 91q0 55 37 93t92 38q54 0 91.5 -38t37.5 -93q0 -54 -38 -91.5t-91 -37.5zM1221 1237q-54 0 -91.5 38t-37.5 91q0 55 37 93t92 38q54 0 91.5 -38t37.5 -93q0 -54 -38 -91.5t-91 -37.5zM459 1325q15 0 28 13t13 28q0 17 -12 30t-29 13
t-29 -13t-12 -30t12 -29t29 -12zM1221 1325q16 0 28.5 12t12.5 29t-12 30t-29 13t-29 -13t-12 -30t12 -29t29 -12zM590 -61l-240 -2l-170 786l2 430h551v-430zM1327 -61h-215l-68 448h-139l117 766h383l129 -768l-139 -2zM274 731l150 -698h90l127 698v330h-369zM1126 475
l68 -442h53l64 446h110l-94 580h-223l-88 -584h110z" />
    <glyph glyph-name="uniE044" unicode="&#x23;ELEVATOR" horiz-adv-x="2138" 
d="M737 1251q-54 0 -93.5 39.5t-39.5 93.5q0 56 39 96t94 40t94 -40t39 -96t-39 -94.5t-94 -38.5zM1397 1251q-54 0 -93.5 39.5t-39.5 93.5q0 56 39 96t94 40t94 -40t39 -96t-39 -94.5t-94 -38.5zM1954 -61h-1772v96h2v1460h97v-1460h327l-147 688v428h551v-428l-127 -688
h391l-55 354h-138l115 762h381l129 -764h-139l-51 -352h342v1460h96v-1491h-2v-65zM735 1343q19 0 31 12t12 29t-13 30t-30 13t-28 -12.5t-11 -30.5q0 -19 11 -30t28 -11zM1395 1343q19 0 31 12t12 29t-13 30t-30 13t-28 -12.5t-11 -30.5q0 -19 11 -30t28 -11zM553 731
l147 -696h95l125 696v332h-369zM1300 473l68 -438h55l64 442h112l-96 586h-225l-88 -590h110z" />
    <glyph glyph-name="uniE045" unicode="&#x23;UPESCALATOR" horiz-adv-x="1445" 
d="M717 1227q-58 0 -95.5 38.5t-37.5 94.5q0 57 38 96t95 39q55 0 94 -39.5t39 -95.5t-39 -94.5t-94 -38.5zM717 1321q14 0 26.5 11.5t12.5 27.5q0 17 -12 29t-27 12q-17 0 -30 -12t-13 -29q0 -18 11.5 -28.5t31.5 -10.5zM352 -25h-170v504l289 207v451h397v-168l238 172
h158v-500zM274 434v-371h48l849 625v365h-34zM561 1040v-288l215 153l2 135h-217z" />
    <glyph glyph-name="uniE046" unicode="&#x23;DOWNESCALATOR" horiz-adv-x="1445" 
d="M834 1227q-56 0 -95 39t-39 94q0 57 39 96t95 39t94.5 -39t38.5 -96q0 -56 -38 -94.5t-95 -38.5zM834 1321q19 0 31 11t12 28t-13 29t-30 12q-16 0 -28.5 -12t-12.5 -29t12.5 -28t28.5 -11zM1264 -25h-170l-912 666v500h158l240 -172v168h397v-451l287 -207v-504z
M274 688l848 -625h49v371l-864 619h-33v-365zM668 905l217 -153v288h-219z" />
    <glyph glyph-name="uniE047" unicode="&#x23;STROLLER" horiz-adv-x="1662" 
d="M1444 371h-883l4 768l-231 233h-152v96h191l1071 -1071v-26zM1030 995q-80 0 -136 57t-56 140q0 80 56.5 138.5t135.5 58.5q80 0 137.5 -58t57.5 -139t-57.5 -139t-137.5 -58zM1030 1096q42 0 71 27.5t29 68.5q0 40 -30 69t-70 29q-39 0 -68.5 -29.5t-29.5 -68.5
q0 -41 29 -68.5t69 -27.5zM662 1042l-7 -577l580 2zM668 -35q-69 0 -117.5 49t-48.5 117q0 70 48 119t118 49q69 0 116 -48.5t47 -119.5q0 -69 -47.5 -117.5t-115.5 -48.5zM1315 -35q-68 0 -116 49t-48 117q0 69 47.5 118.5t116.5 49.5t117.5 -49t48.5 -119
q0 -68 -48.5 -117t-117.5 -49zM668 66q28 0 48.5 19t20.5 46q0 28 -21 50t-48 22q-29 0 -49.5 -21.5t-20.5 -50.5q0 -27 21 -46t49 -19zM1315 66q30 0 50.5 18t20.5 47q0 28 -21 50t-50 22t-48.5 -21t-19.5 -51q0 -27 20 -46t48 -19z" />
    <glyph glyph-name="uniE048" unicode="&#x23;PHARMACY" horiz-adv-x="1845" 
d="M1176 -25h-498v494h-496v502h496v487h498v-487h487v-502h-487v-494zM774 565v-493h307v493h490v309h-490v488h-307v-488h-495v-309h495z" />
    <glyph glyph-name="uniE049" unicode="&#x23;TOP" horiz-adv-x="1918" 
d="M1516 -25h-1110v742h-224v739h604q-1 -150 37.5 -209t137.5 -59q102 0 140 63t36 207h600v-747h-221v-736zM500 813v-741h921v735h219v555h-407q-1 -122 -76.5 -197t-195.5 -75q-121 0 -195 74.5t-76 197.5h-411v-549h221z" />
    <glyph glyph-name="uniE050" unicode="&#x23;PANTS" horiz-adv-x="1886" 
d="M797 -41h-613l328 1516h862l328 -1516h-621l-100 569h-74zM588 1378l-283 -1323h416l110 570h228l102 -570h420l-283 1323h-710z" />
    <glyph glyph-name="uniE051" unicode="&#x23;BLANK" horiz-adv-x="1845" 
d="M1663 -25h-1481v1483h1481v-1483zM356 1364l568 -565l565 565h-1133zM276 1313v-1159l578 579zM989 733l580 -579v1159zM924 666l-596 -594h1190z" />
    <glyph glyph-name="uniE052" unicode="&#x23;FIRE" horiz-adv-x="1159" 
d="M733 1307v-136q107 -12 174.5 -91.5t67.5 -194.5v-908h-567v910q0 119 63 195.5t170 88.5l2 140q-1 0 -10 -0.5t-23.5 -2.5t-34 -5.5t-43 -11.5t-47.5 -19t-51 -30t-51 -42q-112 -115 -109 -336l-92 -2q-3 267 140 404q43 43 95.5 72t100 41t76 16t49.5 4v57h92v-55h234
v-94h-236zM504 74h379v141h-242v684l240 2q-2 31 -11 59.5t-29 58t-59 47t-94 17.5q-88 0 -136 -51t-48 -145v-813zM733 307h150v500h-150v-500z" />
    <glyph glyph-name="uniE053" unicode="&#x23;FLAG" horiz-adv-x="1435" 
d="M279 -25h-97v1483h97v-102l974 -355v-94l-974 -352v-580zM279 1249v-590l808 297z" />
    <glyph glyph-name="uniE054" unicode="&#x23;SHOWER" horiz-adv-x="1384" 
d="M1202 1458v-94h-504v-256h308l110 -303h-932l113 303h305v350h600zM989 893l-47 127h-584l-45 -127h676zM528 723q22 0 36 -14.5t14 -34.5t-14 -34.5t-36 -14.5q-20 0 -34.5 14.5t-14.5 34.5t14.5 34.5t34.5 14.5zM743 723q20 0 35 -14.5t15 -34.5t-14.5 -34.5
t-35.5 -14.5q-20 0 -34.5 14.5t-14.5 34.5t14.5 34.5t34.5 14.5zM954 723q20 0 35 -14.5t15 -34.5t-15 -34.5t-35 -14.5t-35.5 14.5t-15.5 34.5q0 21 15 35t36 14zM438 598q20 0 34.5 -14.5t14.5 -34.5v-6h7q22 0 35.5 -14.5t13.5 -36.5q0 -20 -14.5 -35t-34.5 -15t-35 15
t-15 35v8h-6q-20 0 -34.5 14.5t-14.5 34.5t14.5 34.5t34.5 14.5zM313 408q-20 0 -34.5 14.5t-14.5 34.5q0 22 13.5 36.5t35.5 14.5t35.5 -14.5t13.5 -36.5q0 -20 -14.5 -34.5t-34.5 -14.5zM743 508q22 0 36 -14.5t14 -36.5q0 -20 -15 -34.5t-35 -14.5t-34.5 14.5t-14.5 34.5
q0 22 13.5 36.5t35.5 14.5zM954 508q22 0 36 -14.5t14 -36.5q0 -20 -15 -34.5t-35 -14.5t-35.5 14.5t-15.5 34.5q0 23 14.5 37t36.5 14zM653 383q22 0 35.5 -14.5t13.5 -36.5q0 -20 -14.5 -34.5t-34.5 -14.5t-34.5 14.5t-14.5 34.5q0 22 14.5 36.5t34.5 14.5zM528 293
q21 0 35.5 -15t14.5 -36q0 -20 -14 -34.5t-36 -14.5q-20 0 -34.5 14.5t-14.5 34.5t14.5 35.5t34.5 15.5zM954 293q21 0 35.5 -15t14.5 -36q0 -20 -15 -34.5t-35 -14.5t-35.5 14.5t-15.5 34.5q0 22 14.5 36.5t36.5 14.5zM451 166q36 -9 36 -49q0 -20 -14.5 -34.5t-34.5 -14.5
q-15 0 -29 9.5t-18 24.5q-15 3 -26 17.5t-11 32.5q0 20 14.5 34.5t34.5 14.5q37 0 48 -35zM313 76q20 0 34.5 -14.5t14.5 -34.5q0 -21 -14 -36.5t-35 -15.5t-35 15.5t-14 36.5q0 20 14.5 34.5t34.5 14.5zM743 76q20 0 35 -14.5t15 -34.5q0 -21 -14.5 -36.5t-35.5 -15.5
q-20 0 -34.5 15t-14.5 37q0 21 14 35t35 14zM954 76q20 0 35 -14.5t15 -34.5q0 -21 -14.5 -36.5t-35.5 -15.5q-22 0 -36.5 15t-14.5 37q0 21 15 35t36 14z" />
    <glyph glyph-name="uniE055" unicode="&#x23;ATM" horiz-adv-x="1368" 
d="M1186 616h-94v785h-910v94h1004v-879zM293 821h-96v221h800v-221h-94v127h-610v-127zM1139 524l-144 -592l-92 25l125 512l-254 111l-41 -220l-92 19l23 119l-99 26l-82 -352l197 -70l-27 -92l-284 101l57 237h-174l104 518h95l-84 -422h84l47 197l182 -49l49 274h96
l-32 -192z" />
    <glyph glyph-name="uniE057" unicode="&#x23;CAFE" horiz-adv-x="2275" 
d="M1714 203h-1450v1245h1450q208 -18 328 -133q133 -124 133 -346q0 -203 -125 -322q-120 -118 -336 -131v-313zM358 1354v-1057h1262v1057h-1262zM1714 1348v-734q176 12 271 105q92 92 92 250q0 178 -103 276q-94 91 -260 103zM1712 -23h-1448v95h1448v-95z" />
    <glyph glyph-name="uniE058" unicode="&#x23;UNDERGROUND" horiz-adv-x="1603" 
d="M430 -25h-106l75 281h-217v874q0 135 95 231.5t227 96.5h596q135 0 228 -95.5t93 -232.5v-874h-217l72 -279l-102 -2l-21 95h-702zM735 813h154q165 1 295 30t143 60v227q-2 96 -68 164t-159 68h-596q-93 0 -159 -68t-66 -164v-229q10 -30 148.5 -59t307.5 -29zM279 786
v-434h1046l2 434q-76 -35 -197 -52t-241 -19h-154q-121 0 -249.5 17.5t-206.5 53.5zM1112 461q-25 9 -35 34.5t0 53.5q7 25 32.5 34.5t53.5 -1.5q25 -11 35 -35.5t0 -50.5q-11 -25 -35.5 -35t-50.5 0zM451 459q-33 20 -33 51t31 45q6 13 20.5 20.5t32.5 4.5q24 -9 34 -33
t1 -51q-11 -25 -36 -36t-50 -1zM498 256l-21 -90h649l-20 90h-608z" />
    <glyph glyph-name="uniE059" unicode="&#x23;BUSSTATION" horiz-adv-x="1640" 
d="M467 -25h-219q-31 0 -48.5 17.5t-17.5 48.5v1417h1276v-1417q0 -31 -17 -48.5t-48 -17.5h-219q-31 0 -47.5 17.5t-16.5 48.5v133h-578v-133q0 -31 -17 -48.5t-48 -17.5zM279 1362v-105h1085v105h-1085zM279 1161v-497h495v497h-495zM868 1161v-497h496v497h-496zM279 567
v-299h1085v299h-1085zM432 362q-23 0 -39 16.5t-16 39.5q0 22 16 38.5t39 16.5t39 -16.5t16 -38.5q0 -23 -16 -39.5t-39 -16.5zM1210 362q-24 0 -39.5 16t-15.5 40q0 22 16 38.5t39 16.5q20 0 37 -16.5t17 -38.5q0 -23 -16 -39.5t-38 -16.5zM279 174v-104h157v104h-157z
M1204 174v-104h160v104h-160z" />
    <glyph glyph-name="uniE060" unicode="&#x23;DANGER" horiz-adv-x="1863" 
d="M1681 49l-47 -76h-1407l-45 76l707 1409h84zM1563 72l-631 1267l-633 -1267h1264zM979 930v-447h-92v447h92zM979 350v-98h-92v98h92z" />
    <glyph glyph-name="uniE061" unicode="&#x23;PARKING" horiz-adv-x="1845" 
d="M1663 -25h-1481v1483h1481v-1483zM276 1364v-1294h1295v1294h-1295zM766 293h-92v848h276q126 0 194 -63t68 -181q0 -116 -69 -180t-193 -64h-184v-360zM766 1049v-301h174q178 -3 178 149q0 78 -43 115t-135 37h-174z" />
    <glyph glyph-name="uniE062" unicode="&#x23;INTERSECTION" horiz-adv-x="1849" 
d="M428 -25h-94v150h-150v96h150v451h-150v94h150v451h-150v94h150v147h94v-147h451v147h94v-147h450v147h95v-147h149v-94h-149v-451h149v-94h-149v-451h149v-96h-149v-150h-95v150h-450v-150h-94v150h-451v-150zM428 1217v-451h451v451h-451zM973 1217v-451h450v451h-450z
M428 672v-451h451v451h-451zM973 672v-451h450v451h-450z" />
    <glyph glyph-name="uniE063" unicode="&#x23;FILE" horiz-adv-x="1599" 
d="M1157 -23h-975v1297h260v254h975v-1256h-14v-2h-246v-293zM1157 1274v-909h166v1067h-784v-158h618zM279 1178v-1106h784v1106h-784z" />
    <glyph glyph-name="uniE064" unicode="&#x23;MALE" horiz-adv-x="1871" 
d="M807 -25q-169 0 -313 84t-228 228t-84 313t84 313t228 228t313 84q225 0 403 -150l310 287h-236v96h406v-387h-95v232l-317 -295q154 -175 154 -408q0 -169 -84 -313t-228 -228t-313 -84zM807 72q143 0 264.5 70.5t192.5 192t71 265.5q0 143 -71 265t-192.5 193.5
t-264.5 71.5t-264.5 -71.5t-192.5 -193.5t-71 -265t71 -264.5t192.5 -192.5t264.5 -71z" />
    <glyph glyph-name="uniE065" unicode="&#x23;FEMALE" horiz-adv-x="1826" 
d="M580 45l-68 -68l-133 146l-127 -119l-68 70l129 121l-129 137l70 67l129 -141l176 162q-160 181 -160 416q0 169 84 312.5t228 226.5t313 83q168 0 311 -83.5t226.5 -227t83.5 -311.5q0 -169 -84 -312t-227 -226t-310 -83q-224 0 -395 139l-180 -166zM1024 307
q106 0 203.5 42t168 113t112.5 169t42 205q0 143 -70.5 264.5t-191.5 192.5t-264 71q-144 0 -265.5 -70.5t-192 -192t-70.5 -265.5t70.5 -266t192 -192.5t265.5 -70.5z" />
    <glyph glyph-name="uniE066" unicode="&#x23;SOFA" horiz-adv-x="2580" 
d="M483 -25h-96v297h-205v844h215v342h1786v-342h215v-844h-205v-297h-96v297h-1614v-297zM647 1116v-407h1286v407h156v248h-1597v-248h155zM281 1022v-655h2019v655h-272v-408h-1475v408h-272z" />
    <glyph glyph-name="uniE067" unicode="&#x23;SMOKING" horiz-adv-x="1701" 
d="M739 1235l-63 49q14 17 33 36.5t56.5 51.5t87 53.5t99.5 24.5q119 6 215 -96l-65 -62q-70 76 -146 70q-112 -6 -217 -127zM1518 1016l-1047 -1041l-287 287l1045 1041zM664 995q-118 -12 -215 90l65 62q62 -70 143 -64q43 2 89.5 23.5t84.5 53.5t57 51t34 36l69 -55
q-34 -34 -47 -49q-149 -144 -280 -148zM1100 1044l160 -161l131 133l-160 162zM313 262l160 -160l723 717l-160 162z" />
    <glyph glyph-name="uniE068" unicode="&#x23;NOSMOKING" horiz-adv-x="1710" 
d="M743 1235l-61 49q11 15 32 36.5t57 52t86.5 52.5t100.5 25q121 6 213 -96l-63 -62q-70 76 -145 70q-100 -6 -214 -121zM872 369l-393 -392l-289 289l392 389l-398 394l68 69l397 -393l584 582l293 -291l-584 -580l283 -280l-68 -70zM672 993q-121 -12 -217 92l67 66
q64 -70 144 -64q115 4 262 164l73 -59q-5 -6 -21.5 -22.5t-27.5 -28.5q-143 -143 -280 -148zM1110 1047l154 -158l127 127l-156 155zM719 657l155 -155l322 317l-156 158zM328 266l153 -153l324 321l-156 154z" />
    <glyph glyph-name="uniE069" unicode="&#x23;NOCAMERA" horiz-adv-x="2299" 
d="M2093 -156l-70 -65l-196 196h-1653v1483h172l-172 170l72 68l237 -238h1635v-1483h-158zM268 1362v-1290h1463l-318 317q-118 -94 -266 -94q-117 0 -216 57.5t-156.5 156.5t-57.5 216q0 148 94 266l-371 371h-172zM1481 457l383 -385h159v1290h-1445l303 -301
q116 92 266 92q177 0 302.5 -125.5t125.5 -302.5q0 -146 -94 -268zM1872 1122h-205v95h205v-95zM948 989l463 -463q68 91 68 199q0 137 -97.5 234.5t-234.5 97.5q-109 0 -199 -68zM1147 391q109 0 199 68l-465 465q-68 -90 -68 -199q0 -138 98 -236t236 -98z" />
    <glyph glyph-name="uniE070" unicode="&#x23;INFORMATION" horiz-adv-x="956" 
d="M489 1040q-89 0 -153 64t-64 153t64 153.5t153 64.5t154.5 -64.5t65.5 -153.5t-65 -153t-155 -64zM489 1128q56 0 94 37t38 92q0 54 -39 91.5t-93 37.5q-55 0 -92 -37.5t-37 -91.5q0 -57 36 -93t93 -36zM774 -25h-592v95h92l5 807h-97v92h502l-4 -899h94v-95zM375 877
l-6 -807h219l4 807h-217z" />
    <glyph glyph-name="uniE071" unicode="&#x23;TAXI" horiz-adv-x="1873" 
d="M418 -25h-150q-41 0 -63.5 22.5t-22.5 63.5v689l260 512h244l92 196h320l90 -196h244l260 -512v-689q0 -86 -86 -86h-150q-40 0 -63 22.5t-23 63.5v107h-866v-107q0 -41 -22.5 -63.5t-63.5 -22.5zM836 1366l-48 -104h297l-47 104h-202zM500 1167l-197 -383h1268l-197 383
h-874zM274 690l2 -428h1321l2 428h-1325zM485 406q-32 0 -53.5 22t-21.5 53q0 30 22.5 52t52.5 22t52 -22t22 -52q0 -29 -22.5 -52t-51.5 -23zM1393 406q-31 0 -53.5 22t-22.5 53t22.5 52.5t53.5 21.5q29 0 51 -21.5t22 -52.5q0 -29 -22 -52t-51 -23zM276 168v-98h134v98
h-134zM1466 168v-98h131v98h-131z" />
    <glyph glyph-name="uniE072" unicode="&#x23;BATH" horiz-adv-x="1808" 
d="M557 -25h-94l61 172q-27 9 -51 21q-140 65 -215.5 178.5t-75.5 249.5v47h1219v596q0 53 -36.5 89t-88.5 36q-51 0 -86 -36t-35 -89v-80q0 -19 -14.5 -33t-34.5 -14q-19 0 -32 13.5t-13 33.5v80q0 91 63 155t152 64q91 0 155 -64t64 -155v-596h131v-47q0 -138 -77 -253
t-216 -179q-2 -1 -45 -17l64 -172h-95l-57 156h-586zM1112 926q-23 0 -40 17t-17 40q0 25 17 42t40 17q25 0 42 -17t17 -42q0 -23 -17 -40t-42 -17zM1112 743q-24 0 -40.5 16.5t-16.5 41.5q0 23 17 40t40 17q25 0 42 -17t17 -40q0 -25 -17 -41.5t-42 -16.5zM649 225h510
q140 0 246 93t123 231h-1247q17 -138 123 -231t245 -93z" />
    <glyph glyph-name="uniE073" unicode="&#x23;RESTAURANT" horiz-adv-x="1427" 
d="M492 -25h-95v854q-92 20 -153.5 109t-61.5 203q0 131 76.5 224t185.5 93t186 -92.5t77 -224.5q0 -116 -61 -204.5t-154 -107.5v-854zM1073 -25h-94v848h-174v607h94v-512h80v512h94v-512h78v512h94v-607h-172v-848zM444 918q69 0 118.5 65.5t49.5 157.5t-49.5 158.5
t-118.5 66.5q-71 0 -120.5 -65.5t-49.5 -159.5q0 -92 50 -157.5t120 -65.5z" />
    <glyph glyph-name="uniE074" unicode="&#x23;NOODLE" horiz-adv-x="2084" 
d="M1370 -25h-635v117q-253 94 -406 315t-147 484h1012l221 248v319h94v-203l168 203h119l-287 -352v-215h396q5 -258 -142 -476.5t-393 -316.5v-123zM1415 1012l-100 -121h100v121zM829 162v-92h441l2 96q218 64 362.5 236.5t169.5 394.5h-1521q22 -223 172 -397.5
t374 -237.5z" />
    <glyph glyph-name="uniE075" unicode="&#x23;SHOPPING" horiz-adv-x="1636" 
d="M1454 -25h-1272v1110h359v93q0 114 82 197t196 83q116 0 199.5 -82.5t83.5 -197.5v-93h352v-1110zM635 1178v-93h369v93q0 76 -54 130t-131 54t-130.5 -54t-53.5 -130zM279 989v-917h1081v917h-258v-137h-98v137h-369v-137h-94v137h-262z" />
    <glyph glyph-name="uniE076" unicode="&#x23;EYE" horiz-adv-x="1824" 
d="M958 1266h-90v192h90v-192zM725 1255l-88 -24l-49 186l88 23zM1237 1417l-49 -186l-88 24l49 185zM913 334q-146 0 -294.5 55t-256 132.5t-180.5 166.5v57q52 64 127.5 125.5t169.5 114t208 85t226 32.5t225.5 -32.5t207 -85t169 -114t127.5 -125.5v-57
q-52 -64 -127.5 -125t-169 -113t-207 -84t-225.5 -32zM913 428q120 0 204.5 84t84.5 205t-84.5 206t-204.5 85q-121 0 -205.5 -84.5t-84.5 -206.5q0 -121 84 -205t206 -84zM602 498q-74 98 -74 220t74 222q-183 -84 -307 -215v-18q59 -59 142.5 -115t164.5 -94zM1223 498
q85 38 168 95.5t139 113.5v18q-126 132 -307 215q75 -100 75 -222t-75 -220zM913 565q-61 0 -106 45t-45 107q0 61 45 106t106 45t105.5 -44.5t44.5 -106.5t-44.5 -107t-105.5 -45zM913 659q25 0 40.5 16.5t15.5 41.5t-15.5 41t-40.5 16q-26 0 -41.5 -16t-15.5 -41
t15.5 -41.5t41.5 -16.5zM725 178l-49 -184l-88 22l49 187zM1237 16l-88 -22l-49 184l88 25zM958 -25h-90v195h90v-195z" />
    <glyph glyph-name="uniE077" unicode="&#x23;BIKE" horiz-adv-x="1081" 
d="M543 -25q-61 0 -104.5 44t-43.5 104v39q-97 22 -155 91t-58 161v600q0 92 58 161t149 93l-2 22h-192v92h215q22 35 57.5 55.5t75.5 20.5q82 0 131 -76h217v-92h-195l-2 -22q90 -20 148.5 -91t58.5 -163v-600q0 -95 -60 -167t-151 -89v-35q0 -60 -43.5 -104t-103.5 -44z
M543 1237q26 0 43.5 19t17.5 47q0 26 -17.5 44.5t-43.5 18.5q-27 0 -45.5 -18t-18.5 -45q0 -28 19 -47t45 -19zM395 254v131q0 60 43.5 102.5t104.5 42.5q62 0 104.5 -42t42.5 -103v-125q54 17 85.5 58.5t31.5 95.5v600q0 63 -45.5 111.5t-110.5 56.5h-12q-43 -37 -96 -37
t-99 37h-12q-62 -1 -110 -52.5t-48 -115.5v-600q0 -56 34 -100.5t87 -59.5zM578 616h-72v426h72v-426zM543 70q22 0 37.5 15.5t15.5 37.5v262q0 22 -15 37.5t-38 15.5q-24 0 -40 -15.5t-16 -37.5v-262q0 -22 16.5 -37.5t39.5 -15.5z" />
    <glyph glyph-name="uniE016" unicode="&#x23;CAMERA" horiz-adv-x="2310" 
d="M2128 -25h-1946v1483h1946v-1483zM279 1362v-1290h1753v1290h-1753zM1882 1122h-205v95h205v-95zM1155 295q-117 0 -216 57.5t-156.5 156.5t-57.5 216q0 177 126.5 302.5t303.5 125.5t303.5 -125.5t126.5 -302.5t-126.5 -303.5t-303.5 -126.5zM1155 391q135 0 233.5 99.5
t98.5 234.5t-98 233.5t-234 98.5q-135 0 -233.5 -98.5t-98.5 -233.5q0 -137 98 -235.5t234 -98.5z" />
    <glyph glyph-name="uniE017" unicode="&#x23;DRINK" horiz-adv-x="1189" 
d="M1008 -25h-826v947l209 344v192h408v-192l209 -344v-947zM274 893v-821h639v821l-208 342l2 127h-224l2 -127z" />
    <glyph glyph-name="u1F150" unicode="&#x7b;A&#x7d;" 
d="M903 -115q-221 0 -408.5 112t-297 303.5t-109.5 416.5q0 168 64.5 322t174 265.5t260.5 177.5t316 66q164 0 315 -66t260.5 -177.5t174.5 -265.5t65 -322q0 -225 -110 -416.5t-298 -303.5t-407 -112zM834 1128l-287 -741h129l74 188h307l73 -188h130l-287 741h-139z
M1014 690h-221l108 295h4z" />
    <glyph glyph-name="u1F151" unicode="&#x7b;B&#x7d;" 
d="M903 -115q-221 0 -408.5 112t-297 303.5t-109.5 416.5q0 168 64.5 322t174 265.5t260.5 177.5t316 66q164 0 315 -66t260.5 -177.5t174.5 -265.5t65 -322q0 -225 -110 -416.5t-298 -303.5t-407 -112zM655 1087v-741h353q104 0 165.5 56t61.5 151q0 61 -36 107.5t-89 66.5
v6q42 14 72 57.5t30 100.5q0 94 -58 145t-165 51h-334zM979 780h-197v195h197q108 0 108 -92q0 -48 -28.5 -75.5t-79.5 -27.5zM1001 461h-219v211h213q47 0 78 -32t31 -79t-27 -73.5t-76 -26.5z" />
    <glyph glyph-name="u1F152" unicode="&#x7b;C&#x7d;" 
d="M903 -115q-221 0 -408.5 112t-297 303.5t-109.5 416.5q0 168 64.5 322t174 265.5t260.5 177.5t316 66q164 0 315 -66t260.5 -177.5t174.5 -265.5t65 -322q0 -225 -110 -416.5t-298 -303.5t-407 -112zM911 332q135 0 222.5 76.5t93.5 191.5h-131q-4 -69 -55.5 -111.5
t-129.5 -42.5q-97 0 -149.5 75.5t-52.5 189.5v12q0 113 53 189.5t149 76.5q78 0 129.5 -42t55.5 -111h129q-6 113 -93 189.5t-221 76.5q-156 0 -243.5 -109.5t-87.5 -271.5v-8q0 -79 21.5 -147t61.5 -120.5t104 -83t144 -30.5z" />
    <glyph glyph-name="u1F153" unicode="&#x7b;D&#x7d;" 
d="M903 -115q-221 0 -408.5 112t-297 303.5t-109.5 416.5q0 168 64.5 322t174 265.5t260.5 177.5t316 66q164 0 315 -66t260.5 -177.5t174.5 -265.5t65 -322q0 -225 -110 -416.5t-298 -303.5t-407 -112zM670 1087v-741h258q149 0 240.5 102.5t91.5 268.5t-91.5 268
t-240.5 102h-258zM907 461h-110v514h110q105 0 164 -68.5t59 -189.5q0 -119 -59 -187.5t-164 -68.5z" />
    <glyph glyph-name="u1F154" unicode="&#x7b;E&#x7d;" 
d="M903 -115q-221 0 -408.5 112t-297 303.5t-109.5 416.5q0 168 64.5 322t174 265.5t260.5 177.5t316 66q164 0 315 -66t260.5 -177.5t174.5 -265.5t65 -322q0 -225 -110 -416.5t-298 -303.5t-407 -112zM647 1087v-741h514v115h-385v207h352v112h-352v195h385v112h-514z" />
    <glyph glyph-name="u1F155" unicode="&#x7b;F&#x7d;" 
d="M903 -115q-221 0 -408.5 112t-297 303.5t-109.5 416.5q0 168 64.5 322t174 265.5t260.5 177.5t316 66q164 0 315 -66t260.5 -177.5t174.5 -265.5t65 -322q0 -225 -110 -416.5t-298 -303.5t-407 -112zM659 1087v-741h127v305h353v113h-353v211h385v112h-512z" />
    <glyph glyph-name="u1F156" unicode="&#x7b;G&#x7d;" 
d="M903 -115q-221 0 -408.5 112t-297 303.5t-109.5 416.5q0 168 64.5 322t174 265.5t260.5 177.5t316 66q164 0 315 -66t260.5 -177.5t174.5 -265.5t65 -322q0 -225 -110 -416.5t-298 -303.5t-407 -112zM913 324q149 0 230.5 87t81.5 238v96h-305v-114h178v-8
q0 -91 -48.5 -138t-136.5 -47q-98 0 -151 75t-53 189v13q0 113 53.5 189.5t150.5 76.5q77 0 128 -42.5t55 -111.5h129q-5 113 -91.5 190t-220.5 77q-157 0 -244 -109t-87 -272v-8q0 -79 21.5 -147t61.5 -120.5t104 -83t144 -30.5z" />
    <glyph glyph-name="u1F157" unicode="&#x7b;H&#x7d;" 
d="M903 -115q-221 0 -408.5 112t-297 303.5t-109.5 416.5q0 168 64.5 322t174 265.5t260.5 177.5t316 66q164 0 315 -66t260.5 -177.5t174.5 -265.5t65 -322q0 -225 -110 -416.5t-298 -303.5t-407 -112zM610 1087v-741h127v322h334v-322h125v741h-125v-305h-334v305h-127z
" />
    <glyph glyph-name="u1F158" unicode="&#x7b;I&#x7d;" 
d="M903 -115q-221 0 -408.5 112t-297 303.5t-109.5 416.5q0 168 64.5 322t174 265.5t260.5 177.5t316 66q164 0 315 -66t260.5 -177.5t174.5 -265.5t65 -322q0 -225 -110 -416.5t-298 -303.5t-407 -112zM840 1087v-741h127v741h-127z" />
    <glyph glyph-name="u1F159" unicode="&#x7b;J&#x7d;" 
d="M903 -115q-221 0 -408.5 112t-297 303.5t-109.5 416.5q0 168 64.5 322t174 265.5t260.5 177.5t316 66q164 0 315 -66t260.5 -177.5t174.5 -265.5t65 -322q0 -225 -110 -416.5t-298 -303.5t-407 -112zM805 342q119 0 181.5 57.5t62.5 169.5v527h-129v-510q0 -70 -28 -98.5
t-97 -28.5q-42 0 -105 18v-119q66 -16 115 -16z" />
    <glyph glyph-name="u1F15A" unicode="&#x7b;K&#x7d;" 
d="M903 1548q164 0 315 -66t260.5 -177.5t174.5 -265.5t65 -322q0 -225 -110 -416.5t-298 -303.5t-407 -112q-221 0 -408.5 112t-297 303.5t-109.5 416.5q0 168 64.5 322t174 265.5t260.5 177.5t316 66zM793 645l108 -299h146l-201 363l33 34l106 344h-137l-55 -319v86h-76
l61 -170l-30 -176h45v137zM793 645l-15 39l15 84v-123z" />
    <glyph glyph-name="u1F15B" unicode="&#x7b;L&#x7d;" 
d="M903 -115q-221 0 -408.5 112t-297 303.5t-109.5 416.5q0 168 64.5 322t174 265.5t260.5 177.5t316 66q164 0 315 -66t260.5 -177.5t174.5 -265.5t65 -322q0 -225 -110 -416.5t-298 -303.5t-407 -112zM672 1087v-741h518v115h-389v626h-129z" />
    <glyph glyph-name="u1F15C" unicode="&#x7b;M&#x7d;" 
d="M903 -115q-221 0 -408.5 112t-297 303.5t-109.5 416.5q0 168 64.5 322t174 265.5t260.5 177.5t316 66q164 0 315 -66t260.5 -177.5t174.5 -265.5t65 -322q0 -225 -110 -416.5t-298 -303.5t-407 -112zM539 1087v-739h125v541h4l172 -541h127l172 541h6v-541h123v739h-174
l-187 -579h-6l-188 579h-174z" />
    <glyph glyph-name="u1F15D" unicode="&#x7b;N&#x7d;" 
d="M903 -115q-221 0 -408.5 112t-297 303.5t-109.5 416.5q0 168 64.5 322t174 265.5t260.5 177.5t316 66q164 0 315 -66t260.5 -177.5t174.5 -265.5t65 -322q0 -225 -110 -416.5t-298 -303.5t-407 -112zM612 1087v-741h129v522h4l316 -522h133v741h-127v-522h-6l-316 522
h-133z" />
    <glyph glyph-name="u1F15E" unicode="&#x7b;O&#x7d;" 
d="M903 -115q-221 0 -408.5 112t-297 303.5t-109.5 416.5q0 168 64.5 322t174 265.5t260.5 177.5t316 66q164 0 315 -66t260.5 -177.5t174.5 -265.5t65 -322q0 -225 -110 -416.5t-298 -303.5t-407 -112zM905 332q157 0 242.5 108.5t85.5 272.5v8q0 105 -36 190t-111.5 138
t-180.5 53q-157 0 -244.5 -109.5t-87.5 -271.5v-8q0 -106 36.5 -191t113 -137.5t182.5 -52.5zM905 446q-98 0 -151.5 75.5t-53.5 189.5v12q0 112 54 189t151 77q95 0 149 -77t54 -189v-12q0 -113 -53 -189t-150 -76z" />
    <glyph glyph-name="u1F15F" unicode="&#x7b;P&#x7d;" 
d="M903 -115q-221 0 -408.5 112t-297 303.5t-109.5 416.5q0 168 64.5 322t174 265.5t260.5 177.5t316 66q164 0 315 -66t260.5 -177.5t174.5 -265.5t65 -322q0 -225 -110 -416.5t-298 -303.5t-407 -112zM668 1087v-741h127v289h194q117 0 182.5 59.5t65.5 163.5
q0 109 -65 169t-183 60h-321zM987 748h-192v227h192q123 0 123 -113q0 -114 -123 -114z" />
    <glyph glyph-name="u1F160" unicode="&#x7b;Q&#x7d;" 
d="M903 -115q-221 0 -408.5 112t-297 303.5t-109.5 416.5q0 168 64.5 322t174 265.5t260.5 177.5t316 66q164 0 315 -66t260.5 -177.5t174.5 -265.5t65 -322q0 -225 -110 -416.5t-298 -303.5t-407 -112zM1149 301l74 92q-43 10 -95 39q103 106 103 291v8q0 105 -36 190
t-111.5 138t-180.5 53q-157 0 -244.5 -109.5t-87.5 -271.5v-8q0 -106 36.5 -191t113 -137.5t182.5 -52.5q67 0 117 20q60 -47 129 -61zM903 457q-98 0 -150.5 75t-52.5 189v12q0 112 53 189t150 77q95 0 149 -77t54 -189v-12q0 -113 -53.5 -188.5t-149.5 -75.5z" />
    <glyph glyph-name="u1F161" unicode="&#x7b;R&#x7d;" 
d="M903 -115q-221 0 -408.5 112t-297 303.5t-109.5 416.5q0 168 64.5 322t174 265.5t260.5 177.5t316 66q164 0 315 -66t260.5 -177.5t174.5 -265.5t65 -322q0 -225 -110 -416.5t-298 -303.5t-407 -112zM639 1087v-741h127v289h166l149 -289h136l-160 301q151 45 151 211
q0 109 -64.5 169t-182.5 60h-322zM958 748h-192v227h192q123 0 123 -113q0 -114 -123 -114z" />
    <glyph glyph-name="u1F162" unicode="&#x7b;S&#x7d;" 
d="M903 -115q-221 0 -408.5 112t-297 303.5t-109.5 416.5q0 168 64.5 322t174 265.5t260.5 177.5t316 66q164 0 315 -66t260.5 -177.5t174.5 -265.5t65 -322q0 -225 -110 -416.5t-298 -303.5t-407 -112zM907 332q129 0 206 61.5t77 165.5q0 75 -57 124t-181 87l-55 14
q-76 23 -107.5 49.5t-31.5 63.5q0 44 39 70t108 26q65 0 104 -30.5t40 -85.5h127q-3 106 -73.5 165.5t-197.5 59.5q-125 0 -199.5 -58.5t-74.5 -154.5q0 -76 55.5 -126.5t175.5 -84.5l53 -16q79 -22 112.5 -47.5t33.5 -63.5q0 -51 -41.5 -80t-112.5 -29q-159 0 -162 127
h-127q2 -111 77.5 -174t211.5 -63z" />
    <glyph glyph-name="u1F163" unicode="&#x7b;T&#x7d;" 
d="M903 -115q-221 0 -408.5 112t-297 303.5t-109.5 416.5q0 168 64.5 322t174 265.5t260.5 177.5t316 66q164 0 315 -66t260.5 -177.5t174.5 -265.5t65 -322q0 -225 -110 -416.5t-298 -303.5t-407 -112zM840 934l-2 -629h129v629h225v113h-578v-113h226z" />
    <glyph glyph-name="u1F164" unicode="&#x7b;U&#x7d;" 
d="M903 -115q-221 0 -408.5 112t-297 303.5t-109.5 416.5q0 168 64.5 322t174 265.5t260.5 177.5t316 66q164 0 315 -66t260.5 -177.5t174.5 -265.5t65 -322q0 -225 -110 -416.5t-298 -303.5t-407 -112zM905 299q142 0 217.5 90t75.5 238v428h-125v-437q0 -93 -44 -148.5
t-124 -55.5q-81 0 -124.5 55.5t-43.5 148.5v437h-129v-428q0 -147 78 -237.5t219 -90.5z" />
    <glyph glyph-name="u1F165" unicode="&#x7b;V&#x7d;" 
d="M903 -115q-221 0 -408.5 112t-297 303.5t-109.5 416.5q0 168 64.5 322t174 265.5t260.5 177.5t316 66q164 0 315 -66t260.5 -177.5t174.5 -265.5t65 -322q0 -225 -110 -416.5t-298 -303.5t-407 -112zM547 1047l287 -742h139l287 742h-130l-225 -596h-4l-225 596h-129z
" />
    <glyph glyph-name="u1F166" unicode="&#x7b;W&#x7d;" 
d="M903 -115q-221 0 -408.5 112t-297 303.5t-109.5 416.5q0 168 64.5 322t174 265.5t260.5 177.5t316 66q164 0 315 -66t260.5 -177.5t174.5 -265.5t65 -322q0 -225 -110 -416.5t-298 -303.5t-407 -112zM422 1047l207 -742h125l147 541h6l146 -541h125l206 742h-127
l-143 -545h-6l-143 545h-123l-144 -545h-6l-143 545h-127z" />
    <glyph glyph-name="u1F167" unicode="&#x7b;X&#x7d;" 
d="M903 -115q-221 0 -408.5 112t-297 303.5t-109.5 416.5q0 168 64.5 322t174 265.5t260.5 177.5t316 66q164 0 315 -66t260.5 -177.5t174.5 -265.5t65 -322q0 -225 -110 -416.5t-298 -303.5t-407 -112zM834 717l-244 -371h141l170 258h4l170 -258h142l-244 371l244 370
h-142l-170 -256h-4l-170 256h-141z" />
    <glyph glyph-name="u1F168" unicode="&#x7b;Y&#x7d;" 
d="M903 -115q-221 0 -408.5 112t-297 303.5t-109.5 416.5q0 168 64.5 322t174 265.5t260.5 177.5t316 66q164 0 315 -66t260.5 -177.5t174.5 -265.5t65 -322q0 -225 -110 -416.5t-298 -303.5t-407 -112zM840 596v-291h127v291l268 451h-139l-189 -322h-6l-188 322h-142z" />
    <glyph glyph-name="u1F169" unicode="&#x7b;Z&#x7d;" 
d="M903 -115q-221 0 -408.5 112t-297 303.5t-109.5 416.5q0 168 64.5 322t174 265.5t260.5 177.5t316 66q164 0 315 -66t260.5 -177.5t174.5 -265.5t65 -322q0 -225 -110 -416.5t-298 -303.5t-407 -112zM623 455v-109h561v115h-406v4l400 514v108h-551v-112h401v-6z" />
    <glyph glyph-name="f_f" unicode="ff" horiz-adv-x="1284" 
d="M375 0h-209v852h-146v174h146v129q0 154 73.5 230.5t225.5 76.5q69 0 139 -12l-2 -160q-41 6 -86 6q-76 0 -108.5 -30.5t-32.5 -106.5v-133h461v129q0 154 73.5 230.5t225.5 76.5q69 0 139 -12l-2 -160q-41 6 -86 6q-76 0 -110 -31t-34 -106v-133h220v-174h-220v-852
h-206v852h-461v-852z" />
    <glyph glyph-name="f_f_i" unicode="ffi" horiz-adv-x="1763" 
d="M375 0h-209v852h-146v174h146v129q0 154 73.5 230.5t225.5 76.5q69 0 139 -12l-2 -160q-41 6 -86 6q-76 0 -108.5 -30.5t-32.5 -106.5v-133h436v129q0 155 74 231t225 76q67 0 141 -12l-2 -160q-41 6 -88 6q-75 0 -108 -31t-33 -106v-133h627v-1024h-209v850h-418v-852
h-209v852h-436v-852zM1647 1221h-209v213h209v-213z" />
    <glyph glyph-name="f_f_j" unicode="ffj" horiz-adv-x="1765" 
d="M1223 -438v205q110 17 163.5 93t53.5 216v776h-420v-856h-209v856h-436v-856h-209v856h-146v174h146v127q0 156 73.5 231.5t225.5 75.5q81 0 139 -10l-2 -160q-55 8 -86 8q-75 0 -108 -32.5t-33 -108.5v-131h436v127q0 156 74 231.5t225 75.5q79 0 141 -10l-2 -160
q-55 8 -88 8q-74 0 -107.5 -32.5t-33.5 -108.5v-131h629v-995q0 -206 -109 -325t-317 -144zM1649 1219h-209v213h209v-213z" />
    <glyph glyph-name="f_f_l" unicode="ffl" horiz-adv-x="1763" 
d="M375 0h-209v852h-146v174h146v129q0 154 73.5 230.5t225.5 76.5q69 0 139 -12l-2 -160q-41 6 -86 6q-76 0 -108.5 -30.5t-32.5 -106.5v-133h436v129q0 155 74 231t225 76q67 0 141 -12l-2 -160q-41 6 -88 6q-75 0 -108 -31t-33 -106v-133h418v408h209v-1432h-209v850
h-418v-852h-209v852h-436v-852z" />
    <glyph glyph-name="f_i" unicode="fi" horiz-adv-x="1118" 
d="M375 0h-209v852h-146v174h146v129q0 154 73.5 230.5t225.5 76.5q69 0 139 -12l-2 -160q-41 6 -86 6q-76 0 -108.5 -30.5t-32.5 -106.5v-133h626v-1024h-208v850h-418v-852zM1001 1221h-208v213h208v-213z" />
    <glyph glyph-name="f_j" unicode="fj" horiz-adv-x="1118" 
d="M575 -438l3 205q215 34 215 309v776h-418v-856h-209v856h-146v174h146v127q0 156 73.5 231.5t225.5 75.5q81 0 139 -10l-2 -160q-55 8 -86 8q-75 0 -108 -32.5t-33 -108.5v-131h626v-995q0 -206 -109 -325t-317 -144zM1001 1219h-208v213h208v-213z" />
    <glyph glyph-name="f_l" unicode="fl" horiz-adv-x="1118" 
d="M375 0h-209v852h-146v174h146v129q0 154 73.5 230.5t225.5 76.5q69 0 139 -12l-2 -160q-41 6 -86 6q-76 0 -108.5 -30.5t-32.5 -106.5v-133h418v408h208v-1432h-208v850h-418v-852z" />
    <glyph glyph-name="t_t" unicode="tt" horiz-adv-x="1296" 
d="M633 154v-168q-122 -23 -220 -6.5t-151 67.5q-80 77 -80 225v572h-162v180h103q61 0 61 61v172l209 58v-205q0 -64 -45 -82v-4h408q61 0 61 61v172l209 58v-205q0 -65 -47 -82v-4h276v-180h-229v-531q0 -102 56.5 -137.5t181.5 -21.5v-168q-120 -23 -218 -6.5t-151 67.5
q-82 76 -82 225v572h-420v-531q0 -102 57.5 -137.5t182.5 -21.5z" />
    <glyph glyph-name="zero.squaredline" unicode="[&#x30;]" 
d="M1386 0h-968q-94 0 -156.5 61.5t-62.5 153.5v1004q0 92 62.5 153.5t156.5 61.5h968q95 0 158.5 -62t63.5 -153v-1004q0 -91 -63.5 -153t-158.5 -62zM451 119h903q62 0 97.5 34.5t35.5 94.5v938q0 60 -35.5 94.5t-97.5 34.5h-903q-60 0 -96 -34.5t-36 -94.5v-938
q0 -60 36 -94.5t96 -34.5zM903 377q-121 0 -193.5 91t-72.5 243v8q0 153 72.5 245.5t193.5 92.5q124 0 195 -95.5t71 -242.5v-8q-2 -153 -73.5 -243.5t-192.5 -90.5zM903 479q69 0 110.5 63t43.5 169v8q0 105 -43 170t-111 65q-69 0 -110 -64t-41 -171v-8q0 -107 41 -169.5
t110 -62.5z" />
    <glyph glyph-name="one.squaredline" unicode="[&#x31;]" 
d="M1386 0h-968q-94 0 -156.5 61.5t-62.5 153.5v1004q0 92 62.5 153.5t156.5 61.5h968q95 0 158.5 -62t63.5 -153v-1004q0 -91 -63.5 -153t-158.5 -62zM451 119h903q62 0 97.5 34.5t35.5 94.5v938q0 60 -35.5 94.5t-97.5 34.5h-903q-60 0 -96 -34.5t-36 -94.5v-938
q0 -60 36 -94.5t96 -34.5zM979 1044v-655h-115v516q-12 -24 -50 -44t-81 -17v108q41 -2 86.5 24t69.5 68h90z" />
    <glyph glyph-name="two.squaredline" unicode="[&#x32;]" 
d="M1386 0h-968q-94 0 -156.5 61.5t-62.5 153.5v1004q0 92 62.5 153.5t156.5 61.5h968q95 0 158.5 -62t63.5 -153v-1004q0 -91 -63.5 -153t-158.5 -62zM451 119h903q62 0 97.5 34.5t35.5 94.5v938q0 60 -35.5 94.5t-97.5 34.5h-903q-60 0 -96 -34.5t-36 -94.5v-938
q0 -60 36 -94.5t96 -34.5zM1133 383h-457v82l209 197q64 61 86 88q43 55 43 102q0 46 -27 71t-78 25q-54 0 -84 -36t-30 -93h-119q5 103 67.5 167.5t165.5 64.5q101 0 160 -54.5t59 -142.5q0 -74 -77 -166q-34 -44 -84 -84l-123 -119h289v-102z" />
    <glyph glyph-name="three.squaredline" unicode="[&#x33;]" 
d="M1386 0h-968q-94 0 -156.5 61.5t-62.5 153.5v1004q0 92 62.5 153.5t156.5 61.5h968q95 0 158.5 -62t63.5 -153v-1004q0 -91 -63.5 -153t-158.5 -62zM451 119h903q62 0 97.5 34.5t35.5 94.5v938q0 60 -35.5 94.5t-97.5 34.5h-903q-60 0 -96 -34.5t-36 -94.5v-938
q0 -60 36 -94.5t96 -34.5zM903 377q-103 0 -174.5 56.5t-71.5 139.5h115q3 -40 40 -67t91 -27q60 0 94.5 27t34.5 74q0 46 -35 73t-96 27h-86v98h88q46 0 77.5 25t31.5 63t-32 63t-79 25t-78.5 -25t-34.5 -65h-114q5 82 70.5 137.5t158.5 55.5t158 -52.5t65 -134.5
q0 -46 -26 -84.5t-66 -56.5q52 -18 82.5 -58.5t30.5 -99.5q0 -87 -68 -140.5t-176 -53.5z" />
    <glyph glyph-name="four.squaredline" unicode="[&#x34;]" 
d="M418 1434h968q95 0 158.5 -62t63.5 -153v-1004q0 -91 -63.5 -153t-158.5 -62h-968q-94 0 -156.5 61.5t-62.5 153.5v1004q0 92 62.5 153.5t156.5 61.5zM1487 248v938q0 60 -35.5 94.5t-97.5 34.5h-903q-60 0 -96 -34.5t-36 -94.5v-938q0 -60 36 -94.5t96 -34.5h903
q62 0 97.5 34.5t35.5 94.5zM870 586l152 248l41 -60l-45 -170v-18h-4l-8 -29l-80 -29l-56 54l4 4h-4zM805 631l86 184l55 -90z" />
    <glyph glyph-name="five.squaredline" unicode="[&#x35;]" 
d="M1386 0h-968q-94 0 -156.5 61.5t-62.5 153.5v1004q0 92 62.5 153.5t156.5 61.5h968q95 0 158.5 -62t63.5 -153v-1004q0 -91 -63.5 -153t-158.5 -62zM451 119h903q62 0 97.5 34.5t35.5 94.5v938q0 60 -35.5 94.5t-97.5 34.5h-903q-60 0 -96 -34.5t-36 -94.5v-938
q0 -60 36 -94.5t96 -34.5zM903 383q-108 0 -173 62t-62 163h110q1 -57 35 -90t90 -33q54 0 86.5 35.5t32.5 95.5q0 58 -32.5 94t-86.5 38q-85 0 -112 -68h-109l43 371h383v-103h-285l-22 -162q52 60 125 60q94 0 152.5 -64.5t58.5 -165.5q0 -103 -65.5 -168t-168.5 -65z" />
    <glyph glyph-name="six.squaredline" unicode="[&#x36;]" 
d="M1386 0h-968q-94 0 -156.5 61.5t-62.5 153.5v1004q0 92 62.5 153.5t156.5 61.5h968q95 0 158.5 -62t63.5 -153v-1004q0 -91 -63.5 -153t-158.5 -62zM451 119h903q62 0 97.5 34.5t35.5 94.5v938q0 60 -35.5 94.5t-97.5 34.5h-903q-60 0 -96 -34.5t-36 -94.5v-938
q0 -60 36 -94.5t96 -34.5zM909 377q-117 0 -183.5 86.5t-66.5 241.5q0 157 72 254.5t189 97.5q93 0 152 -53.5t67 -143.5h-109q-11 47 -38 70.5t-77 23.5q-64 0 -101 -58.5t-40 -156.5q20 42 62 68.5t88 26.5q96 0 159.5 -64.5t63.5 -161.5q0 -102 -66.5 -166.5
t-171.5 -64.5zM868 518q40 -17 74 -3t51 54q17 41 2.5 77.5t-53.5 53.5q-37 17 -70.5 2t-50.5 -55t-4 -76t51 -53z" />
    <glyph glyph-name="seven.squaredline" unicode="[&#x37;]" 
d="M1386 0h-968q-94 0 -156.5 61.5t-62.5 153.5v1004q0 92 62.5 153.5t156.5 61.5h968q95 0 158.5 -62t63.5 -153v-1004q0 -91 -63.5 -153t-158.5 -62zM451 119h903q62 0 97.5 34.5t35.5 94.5v938q0 60 -35.5 94.5t-97.5 34.5h-903q-60 0 -96 -34.5t-36 -94.5v-938
q0 -60 36 -94.5t96 -34.5zM924 389h-115q0 154 50.5 297.5t141.5 255.5h-319v102h459v-100q-112 -125 -164.5 -260.5t-52.5 -294.5z" />
    <glyph glyph-name="eight.squaredline" unicode="[&#x38;]" 
d="M1386 0h-968q-94 0 -156.5 61.5t-62.5 153.5v1004q0 92 62.5 153.5t156.5 61.5h968q95 0 158.5 -62t63.5 -153v-1004q0 -91 -63.5 -153t-158.5 -62zM451 119h903q62 0 97.5 34.5t35.5 94.5v938q0 60 -35.5 94.5t-97.5 34.5h-903q-60 0 -96 -34.5t-36 -94.5v-938
q0 -60 36 -94.5t96 -34.5zM903 377q-107 0 -177.5 53.5t-70.5 142.5q0 102 97 156q-70 54 -70 141q0 83 62.5 135t158.5 52q95 0 158 -52.5t63 -134.5q0 -88 -69 -141q94 -56 94 -156q0 -88 -70 -142t-176 -54zM903 780q49 0 78 24t29 64q0 39 -29 62.5t-78 23.5
q-48 0 -77 -23.5t-29 -62.5q0 -40 29.5 -64t76.5 -24zM903 479q58 0 94.5 28.5t36.5 74.5q0 43 -36.5 70.5t-94.5 27.5t-94.5 -27.5t-36.5 -70.5q0 -46 36.5 -74.5t94.5 -28.5z" />
    <glyph glyph-name="nine.squaredline" unicode="[&#x39;]" 
d="M1386 0h-968q-94 0 -156.5 61.5t-62.5 153.5v1004q0 92 62.5 153.5t156.5 61.5h968q95 0 158.5 -62t63.5 -153v-1004q0 -91 -63.5 -153t-158.5 -62zM451 119h903q62 0 97.5 34.5t35.5 94.5v938q0 60 -35.5 94.5t-97.5 34.5h-903q-60 0 -96 -34.5t-36 -94.5v-938
q0 -60 36 -94.5t96 -34.5zM885 377q-93 0 -152 53t-67 143h110q18 -94 113 -94q64 0 101 58.5t40 156.5q-20 -43 -61 -68.5t-88 -25.5q-96 0 -159 64t-63 161q0 102 65.5 167t170.5 65q119 0 185.5 -86t66.5 -242q0 -157 -72.5 -254.5t-189.5 -97.5zM899 694q54 0 88.5 36.5
t34.5 94.5q0 57 -34.5 93t-88.5 36q-57 0 -91 -36t-34 -93q0 -58 34.5 -94.5t90.5 -36.5z" />
    <glyph glyph-name="ten.squaredline" unicode="[&#x31;&#x30;]" 
d="M1386 0h-968q-94 0 -156.5 61.5t-62.5 153.5v1004q0 92 62.5 153.5t156.5 61.5h968q95 0 158.5 -62t63.5 -153v-1004q0 -91 -63.5 -153t-158.5 -62zM451 119h903q62 0 97.5 34.5t35.5 94.5v938q0 60 -35.5 94.5t-97.5 34.5h-903q-60 0 -96 -34.5t-36 -94.5v-938
q0 -60 36 -94.5t96 -34.5zM1069 410q-110 0 -177 84t-67 223v6q0 138 67 223.5t177 85.5q112 0 177 -87t65 -222v-6q0 -140 -66 -223.5t-176 -83.5zM711 1020v-598h-107v471q-12 -23 -47 -42.5t-74 -16.5v100q39 -2 82 23.5t60 62.5h86zM1069 506q63 0 100 57t37 154v6
q0 96 -37.5 154.5t-99.5 58.5t-99.5 -58.5t-37.5 -154.5v-6q0 -98 37 -154.5t100 -56.5z" />
    <glyph glyph-name="eleven.squaredline" unicode="[&#x31;&#x31;]" 
d="M1386 0h-968q-94 0 -156.5 61.5t-62.5 153.5v1004q0 92 62.5 153.5t156.5 61.5h968q95 0 158.5 -62t63.5 -153v-1004q0 -91 -63.5 -153t-158.5 -62zM451 119h903q62 0 97.5 34.5t35.5 94.5v938q0 60 -35.5 94.5t-97.5 34.5h-903q-60 0 -96 -34.5t-36 -94.5v-938
q0 -60 36 -94.5t96 -34.5zM764 1022v-598h-107v471q-12 -23 -46.5 -42.5t-73.5 -16.5v100q39 -2 81.5 23.5t59.5 62.5h86zM1180 1022v-598h-107v471q-12 -23 -46 -42.5t-73 -16.5v100q38 -2 81 23.5t61 62.5h84z" />
    <glyph glyph-name="twelve.squaredline" unicode="[&#x31;&#x32;]" 
d="M1386 0h-968q-94 0 -156.5 61.5t-62.5 153.5v1004q0 92 62.5 153.5t156.5 61.5h968q95 0 158.5 -62t63.5 -153v-1004q0 -91 -63.5 -153t-158.5 -62zM451 119h903q62 0 97.5 34.5t35.5 94.5v938q0 60 -35.5 94.5t-97.5 34.5h-903q-60 0 -96 -34.5t-36 -94.5v-938
q0 -60 36 -94.5t96 -34.5zM1260 430h-418v76l190 180q63 59 78 80q39 48 39 90q0 41 -25 64.5t-69 23.5q-49 0 -77 -33.5t-26 -85.5h-110q3 95 61 155t152 60q92 0 146 -50.5t54 -131.5q0 -61 -57 -133q-23 -30 -94 -96l-107 -103h263v-96zM719 428h-107v471
q-12 -23 -46.5 -42.5t-73.5 -16.5v100q38 -2 81 23.5t60 62.5h86v-598z" />
    <glyph glyph-name="thirteen.squaredline" unicode="[&#x31;&#x33;]" 
d="M1386 0h-968q-94 0 -156.5 61.5t-62.5 153.5v1004q0 92 62.5 153.5t156.5 61.5h968q95 0 158.5 -62t63.5 -153v-1004q0 -91 -63.5 -153t-158.5 -62zM451 119h903q62 0 97.5 34.5t35.5 94.5v938q0 60 -35.5 94.5t-97.5 34.5h-903q-60 0 -96 -34.5t-36 -94.5v-938
q0 -60 36 -94.5t96 -34.5zM1055 414q-95 0 -160.5 53t-67.5 131h109q3 -39 36 -63.5t83 -24.5q55 0 85.5 24t30.5 66t-31.5 66t-86.5 24h-80v90h82q41 0 68.5 23.5t27.5 58.5q0 32 -28.5 55t-69.5 23q-43 0 -71 -23.5t-30 -58.5h-108q5 77 65 127.5t146 50.5q84 0 143 -49
t59 -123q0 -41 -23 -76t-58 -53q45 -14 73.5 -51t28.5 -92q0 -79 -62 -128.5t-161 -49.5zM719 428h-107v471q-12 -23 -46.5 -42.5t-73.5 -16.5v100q38 -2 81 23.5t60 62.5h86v-598z" />
    <glyph glyph-name="fourteen.squaredline" unicode="[&#x31;&#x34;]" 
d="M1386 0h-968q-94 0 -156.5 61.5t-62.5 153.5v1004q0 92 62.5 153.5t156.5 61.5h968q95 0 158.5 -62t63.5 -153v-1004q0 -91 -63.5 -153t-158.5 -62zM451 119h903q62 0 97.5 34.5t35.5 94.5v938q0 60 -35.5 94.5t-97.5 34.5h-903q-60 0 -96 -34.5t-36 -94.5v-938
q0 -60 36 -94.5t96 -34.5zM481 840v100q38 -2 81 23.5t61 62.5h84v-598h-107v471q-10 -23 -44.5 -42.5t-74.5 -16.5zM1210 428h-106v127h-295v86l272 385h129v-375h82v-96h-82v-127zM1102 899l-178 -250h178v250z" />
    <glyph glyph-name="fifteen.squaredline" unicode="[&#x31;&#x35;]" 
d="M1386 0h-968q-94 0 -156.5 61.5t-62.5 153.5v1004q0 92 62.5 153.5t156.5 61.5h968q95 0 158.5 -62t63.5 -153v-1004q0 -91 -63.5 -153t-158.5 -62zM451 119h903q62 0 97.5 34.5t35.5 94.5v938q0 60 -35.5 94.5t-97.5 34.5h-903q-60 0 -96 -34.5t-36 -94.5v-938
q0 -60 36 -94.5t96 -34.5zM500 840v100q38 -2 80.5 23.5t60.5 62.5h84v-598h-107v471q-10 -23 -44 -42.5t-74 -16.5zM1065 414q-100 0 -159.5 57.5t-55.5 149.5l102 2q0 -53 30 -83t83 -30q49 0 77.5 32.5t28.5 86.5q0 51 -29.5 82.5t-76.5 33.5q-78 0 -102 -59h-101l39 338
h350v-96h-258l-20 -144q45 56 112 56q85 0 139 -59.5t54 -151.5q0 -94 -60.5 -154.5t-152.5 -60.5z" />
    <glyph glyph-name="sixteen.squaredline" unicode="[&#x31;&#x36;]" 
d="M1386 0h-968q-94 0 -156.5 61.5t-62.5 153.5v1004q0 92 62.5 153.5t156.5 61.5h968q95 0 158.5 -62t63.5 -153v-1004q0 -91 -63.5 -153t-158.5 -62zM451 119h903q62 0 97.5 34.5t35.5 94.5v938q0 60 -35.5 94.5t-97.5 34.5h-903q-60 0 -96 -34.5t-36 -94.5v-938
q0 -60 36 -94.5t96 -34.5zM1051 412q-108 0 -169 79t-61 220q0 144 66 233.5t172 89.5q85 0 139 -49.5t62 -130.5h-103q-19 84 -100 84q-57 0 -91.5 -52.5t-39.5 -140.5q50 84 137 84q88 0 145.5 -58t57.5 -148q0 -93 -60 -152t-155 -59zM494 840v100q38 -2 80.5 23.5
t60.5 62.5h84v-598h-107v471q-10 -23 -44 -42.5t-74 -16.5zM936 625q0 -52 31.5 -84.5t79.5 -32.5q51 0 80.5 32t29.5 85t-29.5 84.5t-80.5 31.5q-48 0 -79.5 -32t-31.5 -84z" />
    <glyph glyph-name="seventeen.squaredline" unicode="[&#x31;&#x37;]" 
d="M1386 0h-968q-94 0 -156.5 61.5t-62.5 153.5v1004q0 92 62.5 153.5t156.5 61.5h968q95 0 158.5 -62t63.5 -153v-1004q0 -91 -63.5 -153t-158.5 -62zM451 119h903q62 0 97.5 34.5t35.5 94.5v938q0 60 -35.5 94.5t-97.5 34.5h-903q-60 0 -96 -34.5t-36 -94.5v-938
q0 -60 36 -94.5t96 -34.5zM754 428h-107v471q-12 -23 -47 -42.5t-74 -16.5v100q38 -2 81.5 23.5t60.5 62.5h86v-598zM1071 428h-106q0 140 46.5 270.5t129.5 231.5h-291v96h418v-94q-101 -114 -149 -236.5t-48 -267.5z" />
    <glyph glyph-name="eighteen.squaredline" unicode="[&#x31;&#x38;]" 
d="M1386 0h-968q-94 0 -156.5 61.5t-62.5 153.5v1004q0 92 62.5 153.5t156.5 61.5h968q95 0 158.5 -62t63.5 -153v-1004q0 -91 -63.5 -153t-158.5 -62zM451 119h903q62 0 97.5 34.5t35.5 94.5v938q0 60 -35.5 94.5t-97.5 34.5h-903q-60 0 -96 -34.5t-36 -94.5v-938
q0 -60 36 -94.5t96 -34.5zM1055 416q-98 0 -163 49.5t-65 130.5q0 49 27 85t72 56q-74 43 -74 129q0 75 58 123.5t145 48.5q86 0 144 -48.5t58 -123.5q0 -85 -75 -129q96 -44 96 -141q0 -80 -63.5 -130t-159.5 -50zM735 428h-106v471q-12 -23 -47 -42.5t-74 -16.5v100
q38 -2 81 23.5t60 62.5h86v-598zM1053 786q44 0 70 20.5t26 57.5q0 34 -26 56t-70 22q-42 0 -68.5 -22t-26.5 -56q0 -35 26 -56.5t69 -21.5zM1053 512q54 0 86 25.5t32 66.5q0 38 -33 63t-85 25t-85.5 -25t-33.5 -63q0 -41 33 -66.5t86 -25.5z" />
    <glyph glyph-name="nineteen.squaredline" unicode="[&#x31;&#x39;]" 
d="M1386 0h-968q-94 0 -156.5 61.5t-62.5 153.5v1004q0 92 62.5 153.5t156.5 61.5h968q95 0 158.5 -62t63.5 -153v-1004q0 -91 -63.5 -153t-158.5 -62zM451 119h903q62 0 97.5 34.5t35.5 94.5v938q0 60 -35.5 94.5t-97.5 34.5h-903q-60 0 -96 -34.5t-36 -94.5v-938
q0 -60 36 -94.5t96 -34.5zM1038 416q-85 0 -139 48.5t-63 131.5h102q19 -84 102 -84q57 0 90.5 52.5t38.5 140.5q-12 -34 -48.5 -59t-88.5 -25q-88 0 -144.5 57.5t-56.5 148.5q0 93 60 152t156 59q107 0 168 -79t61 -220q0 -143 -66 -233t-172 -90zM723 428h-107v471
q-12 -23 -46.5 -42.5t-73.5 -16.5v100q38 -2 81 23.5t60 62.5h86v-598zM1049 709q49 0 80.5 32.5t31.5 83.5t-31.5 84t-80.5 33q-51 0 -81 -32t-30 -85t30 -84.5t81 -31.5z" />
    <glyph glyph-name="twenty.squaredline" unicode="[&#x32;&#x30;]" 
d="M1386 0h-968q-94 0 -156.5 61.5t-62.5 153.5v1004q0 92 62.5 153.5t156.5 61.5h968q95 0 158.5 -62t63.5 -153v-1004q0 -91 -63.5 -153t-158.5 -62zM451 119h903q62 0 97.5 34.5t35.5 94.5v938q0 60 -35.5 94.5t-97.5 34.5h-903q-60 0 -96 -34.5t-36 -94.5v-938
q0 -60 36 -94.5t96 -34.5zM1133 418q-110 0 -177 84t-67 223v6q0 138 67 223.5t177 85.5q114 0 178.5 -87t64.5 -222v-6q0 -139 -66.5 -223t-176.5 -84zM862 428h-418v76l191 180q63 59 78 80q39 48 39 90q0 41 -25.5 64.5t-69.5 23.5q-49 0 -76.5 -33.5t-25.5 -85.5h-111
q3 95 61 155t152 60q92 0 146.5 -50.5t54.5 -131.5q0 -67 -65 -143q-11 -14 -25.5 -28.5t-32 -31.5t-20.5 -20l-115 -109h262v-96zM995 731v-6q0 -97 38 -154t100 -57q63 0 100 57t37 154v6q0 96 -37.5 154.5t-99.5 58.5t-100 -58.5t-38 -154.5z" />
    <glyph glyph-name="zero.squaredfill" unicode="&#x2f;&#x30;\" 
d="M1386 0h-968q-94 0 -156.5 61.5t-62.5 153.5v1004q0 92 62.5 153.5t156.5 61.5h968q95 0 158.5 -62t63.5 -153v-1004q0 -91 -63.5 -153t-158.5 -62zM903 377q121 0 192.5 90.5t73.5 243.5v8q0 147 -71 242.5t-195 95.5q-121 0 -193.5 -92.5t-72.5 -245.5v-8
q0 -152 72.5 -243t193.5 -91zM903 479q-69 0 -110 62.5t-41 169.5v8q0 107 41 171t110 64q68 0 111 -65t43 -170v-8q-2 -106 -43.5 -169t-110.5 -63z" />
    <glyph glyph-name="one.squaredfill" unicode="&#x2f;&#x31;\" 
d="M1386 0h-968q-94 0 -156.5 61.5t-62.5 153.5v1004q0 92 62.5 153.5t156.5 61.5h968q95 0 158.5 -62t63.5 -153v-1004q0 -91 -63.5 -153t-158.5 -62zM864 905v-516h115v655h-90q-24 -42 -69.5 -68t-86.5 -24v-108q43 -3 81 17t50 44z" />
    <glyph glyph-name="two.squaredfill" unicode="&#x2f;&#x32;\" 
d="M1386 0h-968q-94 0 -156.5 61.5t-62.5 153.5v1004q0 92 62.5 153.5t156.5 61.5h968q95 0 158.5 -62t63.5 -153v-1004q0 -91 -63.5 -153t-158.5 -62zM676 465v-82h457v102h-289l123 119q50 40 84 84q77 92 77 166q0 88 -59 142.5t-160 54.5q-103 0 -165.5 -64.5
t-67.5 -167.5h119q0 57 30 93t84 36q51 0 78 -25t27 -71q0 -47 -43 -102q-22 -27 -86 -88z" />
    <glyph glyph-name="three.squaredfill" unicode="&#x2f;&#x33;\" 
d="M1386 0h-968q-94 0 -156.5 61.5t-62.5 153.5v1004q0 92 62.5 153.5t156.5 61.5h968q95 0 158.5 -62t63.5 -153v-1004q0 -91 -63.5 -153t-158.5 -62zM903 377q108 0 176 53.5t68 140.5q0 59 -30.5 99.5t-82.5 58.5q40 18 66 56.5t26 84.5q0 82 -65 134.5t-158 52.5
t-158.5 -55.5t-70.5 -137.5h114q3 40 34.5 65t78.5 25t79 -25t32 -63t-31.5 -63t-77.5 -25h-88v-98h86q61 0 96 -27t35 -73q0 -47 -34.5 -74t-94.5 -27q-54 0 -91 27t-40 67h-115q0 -83 71.5 -139.5t174.5 -56.5z" />
    <glyph glyph-name="four.squaredfill" unicode="&#x2f;&#x34;\" 
d="M1386 0h-968q-94 0 -156.5 61.5t-62.5 153.5v1004q0 92 62.5 153.5t156.5 61.5h968q95 0 158.5 -62t63.5 -153v-1004q0 -91 -63.5 -153t-158.5 -62zM948 528v-139h115v139h94v103h-94v413h-137l-299 -423v-93h321zM946 631h-198l198 278v-278z" />
    <glyph glyph-name="five.squaredfill" unicode="&#x2f;&#x35;\" 
d="M1386 0h-968q-94 0 -156.5 61.5t-62.5 153.5v1004q0 92 62.5 153.5t156.5 61.5h968q95 0 158.5 -62t63.5 -153v-1004q0 -91 -63.5 -153t-158.5 -62zM903 383q103 0 168.5 65t65.5 168q0 101 -58.5 165.5t-152.5 64.5q-73 0 -125 -60l22 162h285v103h-383l-43 -371h109
q27 68 112 68q54 -2 86.5 -38t32.5 -94q0 -60 -32.5 -95.5t-86.5 -35.5q-56 0 -90 33t-35 90h-110q-3 -101 62 -163t173 -62z" />
    <glyph glyph-name="six.squaredfill" unicode="&#x2f;&#x36;\" 
d="M1386 0h-968q-94 0 -156.5 61.5t-62.5 153.5v1004q0 92 62.5 153.5t156.5 61.5h968q95 0 158.5 -62t63.5 -153v-1004q0 -91 -63.5 -153t-158.5 -62zM909 377q105 0 171.5 64.5t66.5 166.5q0 97 -63.5 161.5t-159.5 64.5q-46 0 -88 -26.5t-62 -68.5q3 98 40 156.5
t101 58.5q50 0 77 -23.5t38 -70.5h109q-8 90 -67 143.5t-152 53.5q-117 0 -189 -97.5t-72 -254.5q0 -155 66.5 -241.5t183.5 -86.5zM907 479q-55 0 -90 36t-35 93q0 58 34.5 94.5t90.5 36.5q55 0 89 -36t34 -95q0 -57 -34 -93t-89 -36z" />
    <glyph glyph-name="seven.squaredfill" unicode="&#x2f;&#x37;\" 
d="M1386 0h-968q-94 0 -156.5 61.5t-62.5 153.5v1004q0 92 62.5 153.5t156.5 61.5h968q95 0 158.5 -62t63.5 -153v-1004q0 -91 -63.5 -153t-158.5 -62zM809 389h115q0 159 52.5 294.5t164.5 260.5v100h-459v-102h319q-91 -112 -141.5 -255.5t-50.5 -297.5z" />
    <glyph glyph-name="eight.squaredfill" unicode="&#x2f;&#x38;\" 
d="M1386 0h-968q-94 0 -156.5 61.5t-62.5 153.5v1004q0 92 62.5 153.5t156.5 61.5h968q95 0 158.5 -62t63.5 -153v-1004q0 -91 -63.5 -153t-158.5 -62zM903 377q106 0 176 54t70 142q0 100 -94 156q69 53 69 141q0 82 -63 134.5t-158 52.5q-96 0 -158.5 -52t-62.5 -135
q0 -87 70 -141q-97 -54 -97 -156q0 -89 70.5 -142.5t177.5 -53.5zM903 780q-47 0 -76.5 24t-29.5 64q0 39 29 62.5t77 23.5q49 0 78 -23.5t29 -62.5q0 -40 -29 -64t-78 -24zM903 479q-58 0 -94.5 28.5t-36.5 74.5q0 43 36.5 70.5t94.5 27.5t94.5 -27.5t36.5 -70.5
q0 -46 -36.5 -74.5t-94.5 -28.5z" />
    <glyph glyph-name="nine.squaredfill" unicode="&#x2f;&#x39;\" 
d="M1386 0h-968q-94 0 -156.5 61.5t-62.5 153.5v1004q0 92 62.5 153.5t156.5 61.5h968q95 0 158.5 -62t63.5 -153v-1004q0 -91 -63.5 -153t-158.5 -62zM885 377q117 0 189.5 97.5t72.5 254.5q0 156 -66.5 242t-185.5 86q-105 0 -170.5 -65t-65.5 -167q0 -97 63 -161t159 -64
q47 0 88 25.5t61 68.5q-3 -98 -40 -156.5t-101 -58.5q-95 0 -113 94h-110q8 -90 67 -143t152 -53zM899 694q-56 0 -90.5 36.5t-34.5 94.5q0 57 34 93t91 36q54 0 88.5 -36t34.5 -93q0 -58 -34.5 -94.5t-88.5 -36.5z" />
    <glyph glyph-name="ten.squaredfill" unicode="&#x2f;&#x31;&#x30;\" 
d="M1386 0h-968q-94 0 -156.5 61.5t-62.5 153.5v1004q0 92 62.5 153.5t156.5 61.5h968q95 0 158.5 -62t63.5 -153v-1004q0 -91 -63.5 -153t-158.5 -62zM1069 410q110 0 176 83.5t66 223.5v6q0 135 -65 222t-177 87q-110 0 -177 -85.5t-67 -223.5v-6q0 -139 67 -223t177 -84z
M604 893v-471h107v598h-86q-17 -37 -60 -62.5t-82 -23.5v-100q39 -3 74 16.5t47 42.5zM1069 506q-63 0 -100 56.5t-37 154.5v6q0 96 37.5 154.5t99.5 58.5t99.5 -58.5t37.5 -154.5v-6q0 -97 -37 -154t-100 -57z" />
    <glyph glyph-name="eleven.squaredfill" unicode="&#x2f;&#x31;&#x31;\" 
d="M1386 0h-968q-94 0 -156.5 61.5t-62.5 153.5v1004q0 92 62.5 153.5t156.5 61.5h968q95 0 158.5 -62t63.5 -153v-1004q0 -91 -63.5 -153t-158.5 -62zM657 895v-471h107v598h-86q-17 -37 -59.5 -62.5t-81.5 -23.5v-100q39 -3 73.5 16.5t46.5 42.5zM1073 895v-471h107v598
h-84q-18 -37 -61 -62.5t-81 -23.5v-100q39 -3 73 16.5t46 42.5z" />
    <glyph glyph-name="twelve.squaredfill" unicode="&#x2f;&#x31;&#x32;\" 
d="M1386 0h-968q-94 0 -156.5 61.5t-62.5 153.5v1004q0 92 62.5 153.5t156.5 61.5h968q95 0 158.5 -62t63.5 -153v-1004q0 -91 -63.5 -153t-158.5 -62zM842 506v-76h418v96h-263l107 103q71 66 94 96q57 72 57 133q0 81 -54 131.5t-146 50.5q-94 0 -152 -60t-61 -155h110
q-2 52 26 85.5t77 33.5q44 0 69 -23.5t25 -64.5q0 -42 -39 -90q-15 -21 -78 -80zM612 899v-471h107v598h-86q-17 -37 -60 -62.5t-81 -23.5v-100q39 -3 73.5 16.5t46.5 42.5z" />
    <glyph glyph-name="thirteen.squaredfill" unicode="&#x2f;&#x31;&#x33;\" 
d="M1386 0h-968q-94 0 -156.5 61.5t-62.5 153.5v1004q0 92 62.5 153.5t156.5 61.5h968q95 0 158.5 -62t63.5 -153v-1004q0 -91 -63.5 -153t-158.5 -62zM1055 414q99 0 161 49.5t62 128.5q0 55 -28.5 92t-73.5 51q35 18 58 53t23 76q0 74 -59 123t-143 49q-86 0 -146 -50.5
t-65 -127.5h108q2 35 30 58.5t71 23.5q41 0 69.5 -23t28.5 -55q0 -35 -27.5 -58.5t-68.5 -23.5h-82v-90h80q55 0 86.5 -24t31.5 -66t-30.5 -66t-85.5 -24q-50 0 -83 24.5t-36 63.5h-109q2 -78 67.5 -131t160.5 -53zM612 899v-471h107v598h-86q-17 -37 -60 -62.5t-81 -23.5
v-100q39 -3 73.5 16.5t46.5 42.5z" />
    <glyph glyph-name="fourteen.squaredfill" unicode="&#x2f;&#x31;&#x34;\" 
d="M1386 0h-968q-94 0 -156.5 61.5t-62.5 153.5v1004q0 92 62.5 153.5t156.5 61.5h968q95 0 158.5 -62t63.5 -153v-1004q0 -91 -63.5 -153t-158.5 -62zM600 899v-471h107v598h-84q-18 -37 -61 -62.5t-81 -23.5v-100q40 -3 74.5 16.5t44.5 42.5zM1104 555v-127h106v127h82v96
h-82v375h-129l-272 -385v-86h295zM1102 649h-178l178 250v-250z" />
    <glyph glyph-name="fifteen.squaredfill" unicode="&#x2f;&#x31;&#x35;\" 
d="M1386 0h-968q-94 0 -156.5 61.5t-62.5 153.5v1004q0 92 62.5 153.5t156.5 61.5h968q95 0 158.5 -62t63.5 -153v-1004q0 -91 -63.5 -153t-158.5 -62zM618 899v-471h107v598h-84q-18 -37 -60.5 -62.5t-80.5 -23.5v-100q40 -3 74 16.5t44 42.5zM1065 414q92 0 152.5 60.5
t60.5 154.5q0 92 -54 151.5t-139 59.5q-67 0 -112 -56l20 144h258v96h-350l-39 -338h101q24 59 102 59q47 -2 76.5 -33.5t29.5 -82.5q0 -54 -28.5 -86.5t-77.5 -32.5q-53 0 -83 30t-30 83l-102 -2q-4 -92 55.5 -149.5t159.5 -57.5z" />
    <glyph glyph-name="sixteen.squaredfill" unicode="&#x2f;&#x31;&#x36;\" 
d="M1386 0h-968q-94 0 -156.5 61.5t-62.5 153.5v1004q0 92 62.5 153.5t156.5 61.5h968q95 0 158.5 -62t63.5 -153v-1004q0 -91 -63.5 -153t-158.5 -62zM1051 412q95 0 155 59t60 152q0 90 -57.5 148t-145.5 58q-87 0 -137 -84q5 88 39.5 140.5t91.5 52.5q81 0 100 -84h103
q-8 81 -62 130.5t-139 49.5q-106 0 -172 -89.5t-66 -233.5q0 -141 61 -220t169 -79zM612 899v-471h107v598h-84q-18 -37 -60.5 -62.5t-80.5 -23.5v-100q40 -3 74 16.5t44 42.5zM1047 508q-48 0 -79.5 32.5t-31.5 84.5t31.5 84t79.5 32q51 0 80.5 -31.5t29.5 -84.5t-29.5 -85
t-80.5 -32z" />
    <glyph glyph-name="seventeen.squaredfill" unicode="&#x2f;&#x31;&#x37;\" 
d="M1386 0h-968q-94 0 -156.5 61.5t-62.5 153.5v1004q0 92 62.5 153.5t156.5 61.5h968q95 0 158.5 -62t63.5 -153v-1004q0 -91 -63.5 -153t-158.5 -62zM647 899v-471h107v598h-86q-17 -37 -60.5 -62.5t-81.5 -23.5v-100q39 -3 74 16.5t47 42.5zM965 428h106q0 145 48 267.5
t149 236.5v94h-418v-96h291q-83 -101 -129.5 -231.5t-46.5 -270.5z" />
    <glyph glyph-name="eighteen.squaredfill" unicode="&#x2f;&#x31;&#x38;\" 
d="M1386 0h-968q-94 0 -156.5 61.5t-62.5 153.5v1004q0 92 62.5 153.5t156.5 61.5h968q95 0 158.5 -62t63.5 -153v-1004q0 -91 -63.5 -153t-158.5 -62zM1055 416q96 0 159.5 50t63.5 130q0 97 -96 141q75 44 75 129q0 75 -58 123.5t-144 48.5q-87 0 -145 -48.5t-58 -123.5
q0 -86 74 -129q-45 -20 -72 -56t-27 -85q0 -81 65 -130.5t163 -49.5zM629 899v-471h106v598h-86q-17 -37 -60 -62.5t-81 -23.5v-100q39 -3 74 16.5t47 42.5zM1053 786q-43 0 -69 21.5t-26 56.5q0 34 26.5 56t68.5 22q44 0 70 -22t26 -56q0 -37 -26 -57.5t-70 -20.5z
M1053 512q-53 0 -86 25.5t-33 66.5q0 38 33.5 63t85.5 25t85 -25t33 -63q0 -41 -32 -66.5t-86 -25.5z" />
    <glyph glyph-name="nineteen.squaredfill" unicode="&#x2f;&#x31;&#x39;\" 
d="M1386 0h-968q-94 0 -156.5 61.5t-62.5 153.5v1004q0 92 62.5 153.5t156.5 61.5h968q95 0 158.5 -62t63.5 -153v-1004q0 -91 -63.5 -153t-158.5 -62zM1038 416q106 0 172 90t66 233q0 141 -61 220t-168 79q-96 0 -156 -59t-60 -152q0 -91 56.5 -148.5t144.5 -57.5
q52 0 88.5 25t48.5 59q-5 -88 -38.5 -140.5t-90.5 -52.5q-83 0 -102 84h-102q9 -83 63 -131.5t139 -48.5zM616 899v-471h107v598h-86q-17 -37 -60 -62.5t-81 -23.5v-100q39 -3 73.5 16.5t46.5 42.5zM1049 709q-51 0 -81 31.5t-30 84.5t30 85t81 32q49 0 80.5 -33t31.5 -84
t-31.5 -83.5t-80.5 -32.5z" />
    <glyph glyph-name="twenty.squaredfill" unicode="&#x2f;&#x32;&#x30;\" 
d="M1386 0h-968q-94 0 -156.5 61.5t-62.5 153.5v1004q0 92 62.5 153.5t156.5 61.5h968q95 0 158.5 -62t63.5 -153v-1004q0 -91 -63.5 -153t-158.5 -62zM1133 418q110 0 176.5 84t66.5 223v6q0 135 -64.5 222t-178.5 87q-110 0 -177 -85.5t-67 -223.5v-6q0 -139 67 -223
t177 -84zM444 504v-76h418v96h-262l115 109q3 3 20.5 20t32 31.5t25.5 28.5q65 76 65 143q0 81 -54.5 131.5t-146.5 50.5q-94 0 -152 -60t-61 -155h111q-2 52 25.5 85.5t76.5 33.5q44 0 69.5 -23.5t25.5 -64.5q0 -42 -39 -90q-15 -21 -78 -80zM1133 514q-62 0 -100 57
t-38 154v6q0 96 38 154.5t100 58.5t99.5 -58.5t37.5 -154.5v-6q0 -97 -37 -154t-100 -57z" />
    <glyph glyph-name=".notdef" horiz-adv-x="1476" 
d="M1331 82h-1188v1290h1188v-1290zM424 479l68 -67l247 247l248 -247l68 67l-248 248l246 248l-68 67l-248 -247l-248 247l-65 -67l248 -248z" />
    <glyph glyph-name=".null" horiz-adv-x="0" 
 />
    <glyph glyph-name="nonmarkingreturn" horiz-adv-x="682" 
 />
    <glyph glyph-name="space" unicode=" " horiz-adv-x="440" 
 />
    <glyph glyph-name="exclam" unicode="!" horiz-adv-x="477" 
d="M313 379h-147l-25 1055h195zM338 0h-197v233h197v-233z" />
    <glyph glyph-name="quotedbl" unicode="&#x22;" horiz-adv-x="823" 
d="M272 918h-153l57 516h193zM608 918h-151l55 516h195z" />
    <glyph glyph-name="numbersign" unicode="#" horiz-adv-x="1294" 
d="M293 0h-160l100 410h-180v147h215l80 332h-209v147h244l96 398h160l-96 -398h354l98 398h158l-96 -398h184v-147h-219l-80 -332h213v-147h-250l-98 -410h-158l96 410h-354zM506 889l-78 -332h356l78 332h-356z" />
    <glyph glyph-name="dollar" unicode="$" horiz-adv-x="1292" 
d="M741 -203h-145v176q-223 15 -349 125.5t-138 298.5h208q13 -128 103.5 -192t245.5 -64q151 0 241 66t90 180q0 84 -71.5 140t-235.5 104l-108 31q-236 66 -342.5 160.5t-106.5 238.5q0 169 125 277.5t338 121.5v178h145v-180q200 -19 311.5 -121.5t123.5 -277.5h-207
q-10 109 -93 171t-217 62q-146 0 -231.5 -57.5t-85.5 -157.5q0 -84 67.5 -141.5t229.5 -106.5l109 -30q241 -72 349.5 -164t108.5 -234q0 -183 -124 -296t-341 -130v-178z" />
    <glyph glyph-name="percent" unicode="%" horiz-adv-x="1531" 
d="M428 811q-132 0 -212.5 87.5t-80.5 238.5q0 154 84 239.5t209 85.5q127 0 211 -87.5t84 -237.5q0 -151 -81 -238.5t-214 -87.5zM352 8h-135l959 1442h137zM428 932q70 0 114 59t44 146q0 88 -40 146t-118 58q-69 0 -112.5 -54.5t-43.5 -149.5q0 -97 43 -151t113 -54z
M1100 -29q-132 0 -212.5 87.5t-80.5 236.5q0 156 84 242t209 86q127 0 211 -89t84 -239q0 -149 -81 -236.5t-214 -87.5zM1100 90q70 0 113.5 60t43.5 147t-40.5 145t-116.5 58q-69 0 -112.5 -54.5t-43.5 -148.5q0 -97 43.5 -152t112.5 -55z" />
    <glyph glyph-name="ampersand" unicode="&#x26;" horiz-adv-x="1359" 
d="M565 -29q-192 0 -319 110t-127 281q0 134 73.5 235t227.5 185q-79 86 -121.5 173.5t-42.5 162.5q0 150 107 247t270 97q157 0 258.5 -90.5t101.5 -232.5q0 -113 -84 -204t-250 -179l330 -353q91 128 103 324l168 -10q-16 -149 -52 -257t-106 -196l244 -264h-226l-133 139
q-80 -78 -192.5 -123t-229.5 -45zM561 866q142 72 202 132.5t60 131.5q0 83 -53.5 132t-140.5 49q-86 0 -144.5 -57t-58.5 -136q0 -102 135 -252zM596 129q155 0 293 129l-375 404q-209 -113 -209 -275q0 -119 79.5 -188.5t211.5 -69.5z" />
    <glyph glyph-name="quotesingle" unicode="'" horiz-adv-x="489" 
d="M272 918h-153l57 516h193z" />
    <glyph glyph-name="parenleft" unicode="(" horiz-adv-x="550" 
d="M498 -258h-168q-136 253 -189 441t-53 429q0 237 56 422t186 428h168q-238 -430 -238 -850q0 -437 238 -870z" />
    <glyph glyph-name="parenright" unicode=")" horiz-adv-x="552" 
d="M221 -258h-168q238 436 238 870q0 420 -238 850h168q130 -243 186 -429t56 -421q0 -241 -53 -429t-189 -441z" />
    <glyph glyph-name="asterisk" unicode="*" horiz-adv-x="1040" 
d="M518 993l-180 -248l-109 76l185 252l-295 96l41 125l293 -92v305h131v-307l295 94l41 -125l-297 -96l184 -252l-109 -76z" />
    <glyph glyph-name="plus" unicode="+" horiz-adv-x="1177" 
d="M678 166h-180v420h-406v182h406v418h180v-418h407v-182h-407v-420z" />
    <glyph glyph-name="comma" unicode="," horiz-adv-x="516" 
d="M129 -285v121q53 11 80 47t27 107v10h-89v258h240v-252q0 -142 -64.5 -211t-193.5 -80z" />
    <glyph glyph-name="hyphen" unicode="-" horiz-adv-x="729" 
d="M668 586h-607v180h607v-180z" />
    <glyph glyph-name="period" unicode="." horiz-adv-x="475" 
d="M352 0h-229v260h229v-260z" />
    <glyph glyph-name="slash" unicode="/" horiz-adv-x="858" 
d="M213 -258h-160l592 1720h160z" />
    <glyph glyph-name="zero" unicode="0" horiz-adv-x="1323" 
d="M662 -29q-140 0 -251.5 57.5t-182 157.5t-107.5 232.5t-37 286.5v16q0 152 37 284.5t107.5 235t182.5 162t251 59.5q117 0 213.5 -41t163 -111t112.5 -165.5t67 -202t21 -221.5v-16q-1 -155 -38 -287t-107 -232.5t-181 -157.5t-251 -57zM662 152q91 0 162.5 43.5t116 119
t67.5 174t24 213.5v21q0 113 -23 212.5t-67.5 178t-116.5 123.5t-163 45q-92 0 -163.5 -45t-116 -123.5t-67 -177.5t-22.5 -213v-21q0 -155 39 -276.5t124 -197.5t206 -76z" />
    <glyph glyph-name="one" unicode="1" horiz-adv-x="708" 
d="M512 0h-209v1176h-8q-28 -51 -101.5 -85t-160.5 -34v190q101 0 183.5 53t127.5 134h168v-1434z" />
    <glyph glyph-name="two" unicode="2" horiz-adv-x="1234" 
d="M1118 0h-985v147l463 439q160 156 201 205q102 124 102 245q0 116 -69 181t-195 65q-125 0 -202.5 -81t-86.5 -212h-211q15 213 149 343t351 130q115 0 207 -34t149 -92.5t87 -133.5t30 -160q0 -87 -42.5 -173t-131.5 -185q-52 -67 -186 -190l-320 -306v-8h690v-180z" />
    <glyph glyph-name="three" unicode="3" horiz-adv-x="1193" 
d="M592 -29q-217 0 -368.5 112.5t-168.5 283.5h215q19 -96 107.5 -155.5t212.5 -59.5q149 0 235 67t86 184q0 122 -91.5 190.5t-233.5 68.5h-168v165h170q113 0 192.5 63.5t79.5 168.5q0 97 -77 160t-197 63q-108 0 -185 -56.5t-96 -146.5h-209q22 165 161.5 274t330.5 109
q132 0 241.5 -49.5t174.5 -141t65 -206.5q0 -104 -59 -188.5t-146 -126.5v-9q111 -36 183.5 -128t72.5 -226q0 -187 -147.5 -301.5t-380.5 -114.5z" />
    <glyph glyph-name="four" unicode="4" horiz-adv-x="1284" 
d="M1008 0h-209v313h-733v181l665 940h277v-940h211v-181h-211v-313zM782 1219l-518 -725h531v725h-13z" />
    <glyph glyph-name="five" unicode="5" horiz-adv-x="1214" 
d="M608 -29q-227 0 -366.5 126t-139.5 331l199 2q7 -127 91 -202.5t216 -75.5q134 0 215.5 87.5t81.5 233.5q0 145 -82.5 234.5t-214.5 89.5q-93 2 -163.5 -37t-108.5 -113h-201l92 787h817v-181h-638l-58 -417h6q54 64 136 100.5t169 36.5q203 0 329 -140t126 -360
q0 -221 -141.5 -361.5t-364.5 -140.5z" />
    <glyph glyph-name="six" unicode="6" horiz-adv-x="1234" 
d="M635 -29q-257 0 -400 187.5t-143 529.5q0 228 70 404t198 273t295 97q192 0 317.5 -105.5t151.5 -285.5h-198q-55 211 -277 211q-160 0 -251.5 -142t-100.5 -397h6q101 209 365 209q207 0 341 -136.5t134 -346.5q0 -220 -140.5 -359t-367.5 -139zM629 152q135 0 219 88.5
t84 230.5q0 143 -84 231.5t-219 88.5q-137 0 -223.5 -89t-86.5 -231q0 -141 87.5 -230t222.5 -89z" />
    <glyph glyph-name="seven" unicode="7" horiz-adv-x="1208" 
d="M606 0h-209q3 351 127 676t342 577h-757v181h989v-191q-249 -283 -368 -586t-124 -657z" />
    <glyph glyph-name="eight" unicode="8" horiz-adv-x="1220" 
d="M612 -29q-157 0 -281.5 49.5t-197 145.5t-72.5 223q0 121 68 212.5t186 139.5v4q-91 48 -141.5 130.5t-50.5 189.5q0 181 138.5 289t352.5 108q138 0 249 -47.5t176 -138.5t65 -211q0 -106 -52 -189t-143 -131v-6q118 -48 184 -138.5t66 -211.5q0 -127 -72.5 -223
t-196 -145.5t-278.5 -49.5zM612 836q127 0 205 60.5t78 162.5q0 103 -78.5 163t-204.5 60q-127 0 -203.5 -60t-76.5 -163t76.5 -163t203.5 -60zM612 150q150 0 245 70t95 188q0 115 -94.5 183t-245.5 68q-153 0 -247.5 -68t-94.5 -183q0 -118 95 -188t247 -70z" />
    <glyph glyph-name="nine" unicode="9" horiz-adv-x="1226" 
d="M571 -29q-192 0 -317.5 105.5t-151.5 285.5h199q29 -105 95.5 -157.5t183.5 -52.5q159 0 251 141.5t101 396.5h-6q-101 -209 -365 -209q-208 0 -341.5 137t-133.5 347q0 220 140.5 358.5t367.5 138.5q257 0 400 -187.5t143 -529.5q0 -346 -156 -560t-410 -214zM600 643
q137 0 223 89t86 231q0 141 -87 230t-222 89q-136 0 -219.5 -88t-83.5 -231t83.5 -231.5t219.5 -88.5z" />
    <glyph glyph-name="colon" unicode=":" horiz-adv-x="729" 
d="M479 764h-229v260h231zM479 0h-229v260h231z" />
    <glyph glyph-name="semicolon" unicode=";" horiz-adv-x="589" 
d="M420 764h-230v260h232zM166 -285v121q106 22 106 154v10h-88v258h240v-252q0 -142 -64.5 -211t-193.5 -80z" />
    <glyph glyph-name="less" unicode="&#x3c;" horiz-adv-x="1177" 
d="M1047 336v-182l-914 444v156l914 444v-182l-699 -336v-8z" />
    <glyph glyph-name="equal" unicode="=" horiz-adv-x="1177" 
d="M1085 811h-993v166h993v-166zM1085 377h-993v166h993v-166z" />
    <glyph glyph-name="greater" unicode="&#x3e;" horiz-adv-x="1177" 
d="M1047 598l-914 -444v182l696 336v8l-696 336v182l914 -444v-156z" />
    <glyph glyph-name="question" unicode="?" horiz-adv-x="1107" 
d="M616 410h-208v131q0 71 22.5 124t58.5 84.5t79 56.5t86.5 48t79.5 50t58.5 72t22.5 105q0 86 -77.5 143.5t-194.5 57.5q-115 0 -190.5 -62t-90.5 -169h-196q5 180 137 295.5t340 115.5q207 0 342 -107t135 -272q0 -117 -61 -208.5t-175 -145.5q-104 -51 -136 -89.5
t-32 -121.5v-108zM614 0h-204v233h204v-233z" />
    <glyph glyph-name="at" unicode="@" horiz-adv-x="1906" 
d="M993 -303q-248 0 -442.5 97t-305 277t-110.5 414q0 176 65 331.5t178 268t272 177.5t339 65q222 0 400.5 -89.5t279 -248t100.5 -356.5q0 -233 -109.5 -373.5t-297.5 -140.5q-78 0 -137 33t-88 96h-7q-41 -63 -113.5 -98t-160.5 -35q-137 0 -222 103t-85 255
q0 117 51.5 222.5t140 170t189.5 64.5q184 0 254 -131h6l22 112h156l-100 -501q-15 -70 15.5 -114t98.5 -44q107 0 174.5 109t67.5 268q0 254 -172.5 408.5t-454.5 154.5q-153 0 -286 -54.5t-226.5 -149t-146.5 -225t-53 -278.5q0 -297 191.5 -474t504.5 -177q273 0 465 129
l70 -121q-213 -145 -523 -145zM891 254q85 0 143.5 57t73.5 154q16 83 22 137q5 82 -40.5 135.5t-120.5 53.5q-102 0 -175 -86t-79 -209q-8 -104 38.5 -173t137.5 -69z" />
    <glyph glyph-name="A" unicode="A" horiz-adv-x="1413" 
d="M236 0h-211l555 1434h254l555 -1434h-211l-148 377h-647zM700 1210l-249 -655h512l-250 655h-13z" />
    <glyph glyph-name="B" unicode="B" horiz-adv-x="1325" 
d="M819 0h-684v1434h647q203 0 312.5 -95.5t109.5 -273.5q0 -114 -61 -198t-152 -119v-11q109 -37 181.5 -131t72.5 -217q0 -180 -114 -284.5t-312 -104.5zM344 1253v-434h416q108 0 174.5 61.5t66.5 168.5q0 100 -61.5 152t-179.5 52h-416zM344 649v-469h463q107 0 167 60
t60 166t-69 174.5t-170 68.5h-451z" />
    <glyph glyph-name="C" unicode="C" horiz-adv-x="1343" 
d="M692 -29q-133 0 -242 43t-181.5 114t-122 167t-71.5 199t-22 213v18q0 107 22 209t71.5 198.5t122 169t181.5 116.5t242 44q167 0 301 -65.5t210 -175t89 -244.5h-213q-18 135 -123 220.5t-264 84.5q-91 0 -165.5 -34t-122.5 -89t-81 -128.5t-47 -149.5t-14 -154v-22
q0 -82 14 -158.5t47 -149t81.5 -126.5t122.5 -86.5t165 -32.5q161 -1 267.5 84.5t121.5 222.5h213q-19 -209 -184.5 -348.5t-417.5 -139.5z" />
    <glyph glyph-name="D" unicode="D" horiz-adv-x="1359" 
d="M670 0h-535v1434h535q288 0 464.5 -198t176.5 -519t-176.5 -519t-464.5 -198zM344 1253v-1073h287q219 0 345 144.5t126 392.5q0 250 -125 393t-346 143h-287z" />
    <glyph glyph-name="E" unicode="E" horiz-adv-x="1253" 
d="M1157 0h-1022v1434h1022v-181h-813v-436h746v-178h-746v-459h813v-180z" />
    <glyph glyph-name="F" unicode="F" horiz-adv-x="1220" 
d="M344 0h-209v1434h1022v-181h-813v-465h746v-180h-746v-608z" />
    <glyph glyph-name="G" unicode="G" horiz-adv-x="1392" 
d="M666 -27q-128 0 -232.5 43t-174 114t-117 167t-68.5 198.5t-21 211.5v18q0 107 22 209t71.5 198.5t122 169t181.5 116.5t242 44q253 0 420.5 -145.5t185.5 -360.5h-211q-14 140 -126.5 233.5t-268.5 92.5q-76 0 -141 -23.5t-111 -64.5t-81 -94.5t-56 -116.5t-31 -126
t-10 -128v-24q0 -81 14 -157.5t47 -148.5t81.5 -126t122.5 -86.5t165 -32.5q124 -1 216.5 58.5t138 155t45.5 210.5v8h-357v180h565v-766h-182v133q0 66 21 125l18 55l-6 4l-31 -65q-121 -279 -454 -279z" />
    <glyph glyph-name="H" unicode="H" horiz-adv-x="1396" 
d="M344 0h-209v1434h209l2 -613h707l-2 613h209v-1434h-209l2 641h-707z" />
    <glyph glyph-name="I" unicode="I" horiz-adv-x="481" 
d="M344 0h-209v1434h209v-1434z" />
    <glyph glyph-name="J" unicode="J" horiz-adv-x="882" 
d="M285 -27q-70 0 -207 27v188q122 -28 182 -28q152 0 215.5 63t63.5 213v998h209v-1026q0 -216 -117.5 -325.5t-345.5 -109.5z" />
    <glyph glyph-name="K" unicode="K" horiz-adv-x="1224" 
d="M344 0h-209v1434h209v-689h10l602 689h244l-625 -713l625 -725h-244l-602 700h-10v-696z" />
    <glyph glyph-name="L" unicode="L" horiz-adv-x="1163" 
d="M1124 0h-989v1434h209v-1254h780v-180z" />
    <glyph glyph-name="M" unicode="M" horiz-adv-x="1681" 
d="M336 0h-201v1434h309l392 -1207h10l391 1207h307v-1434h-198v1192h-11l-385 -1192h-219l-385 1192h-10v-1192z" />
    <glyph glyph-name="N" unicode="N" horiz-adv-x="1390" 
d="M344 0h-209v1434h236l665 -1100h11v1100h206v-1434h-233l-666 1100h-10v-1100z" />
    <glyph glyph-name="O" unicode="O" horiz-adv-x="1380" 
d="M692 -29q-133 0 -242 43t-181.5 114t-122 167t-71.5 199t-22 213v18q0 107 22 209t71.5 198.5t122 169t181.5 116.5t242 44t242 -44t180.5 -116t120 -169t69.5 -199t21 -209v-18q0 -110 -21 -212.5t-69.5 -199t-120 -167.5t-180 -114t-242.5 -43zM692 152
q90 -1 163.5 31.5t122 86.5t81 126.5t47 149.5t14.5 159v22q0 78 -14.5 154t-47 149.5t-81 129t-122 89.5t-163.5 33q-91 0 -165.5 -34t-122.5 -89t-81 -128.5t-47 -149.5t-14 -154v-22q0 -82 14 -158.5t47 -149t81.5 -126.5t122.5 -86.5t165 -32.5z" />
    <glyph glyph-name="P" unicode="P" horiz-adv-x="1300" 
d="M344 0h-209v1434h602q229 0 351 -108.5t122 -319.5q0 -210 -123.5 -320.5t-349.5 -110.5h-393v-575zM344 1253v-497h385q133 0 202.5 62.5t69.5 187.5q0 247 -272 247h-385z" />
    <glyph glyph-name="Q" unicode="Q" horiz-adv-x="1386" 
d="M1294 31l-104 -137q-57 10 -126 44.5t-126 79.5q-106 -47 -246 -47q-133 0 -242 43t-181.5 114t-122 167t-71.5 199t-22 213v18q0 107 22 209t71.5 198.5t122 169t181.5 116.5t242 44t242 -44t180.5 -116t120 -169t69.5 -199t21 -209v-18q0 -175 -54.5 -330t-166.5 -256
q96 -61 190 -90zM692 152q90 -1 163.5 31.5t122 86.5t81 126.5t47 149.5t14.5 159v22q0 78 -14.5 154t-47 149.5t-81 129t-122 89.5t-163.5 33q-91 0 -165.5 -34t-122.5 -89t-81 -128.5t-47 -149.5t-14 -154v-22q0 -82 14 -158.5t47 -149t81.5 -126.5t122.5 -86.5t165 -32.5
z" />
    <glyph glyph-name="R" unicode="R" horiz-adv-x="1288" 
d="M344 0h-209v1434h602q231 0 352 -104.5t121 -313.5q0 -166 -79.5 -267.5t-229.5 -130.5l297 -618h-211l-287 596h-356v-596zM344 1253v-477h385q272 0 272 240q0 124 -68 180.5t-204 56.5h-385z" />
    <glyph glyph-name="S" unicode="S" horiz-adv-x="1236" 
d="M627 -29q-255 0 -400 112t-157 314h209q12 -128 102 -192t246 -64q151 0 241 66t90 180q0 85 -71.5 141.5t-235.5 102.5l-108 31q-235 68 -342 162t-107 237q0 182 143 291.5t384 109.5q239 0 371.5 -104.5t146.5 -298.5h-209q-10 109 -92.5 171t-214.5 62
q-148 0 -234 -57.5t-86 -157.5q0 -85 67.5 -143.5t229.5 -104.5l109 -30q241 -70 349.5 -162.5t108.5 -235.5q0 -198 -145 -314t-395 -116z" />
    <glyph glyph-name="T" unicode="T" horiz-adv-x="1181" 
d="M694 0h-207v1253h-450v181h1108v-181h-449z" />
    <glyph glyph-name="U" unicode="U" horiz-adv-x="1404" 
d="M705 -29q-272 0 -421 172t-149 457v834h209v-850q0 -197 94 -314.5t267 -117.5q169 -1 263.5 118t94.5 314v850h205v-834q0 -188 -61.5 -328t-190 -220.5t-311.5 -80.5z" />
    <glyph glyph-name="V" unicode="V" horiz-adv-x="1406" 
d="M825 0h-245l-555 1434h208l465 -1211h13l463 1211h208z" />
    <glyph glyph-name="W" unicode="W" horiz-adv-x="1914" 
d="M641 0h-217l-399 1434h208l304 -1147h10l305 1147h211l305 -1147h8l305 1147h209l-399 -1434h-219l-309 1135h-11z" />
    <glyph glyph-name="X" unicode="X" horiz-adv-x="1208" 
d="M246 0h-221l469 717l-469 717h221l354 -533h8l355 533h221l-469 -717l469 -717h-221l-355 532h-8z" />
    <glyph glyph-name="Y" unicode="Y" horiz-adv-x="1271" 
d="M739 0h-209v563l-516 871h228l389 -664h8l391 664h227l-518 -871v-563z" />
    <glyph glyph-name="Z" unicode="Z" horiz-adv-x="1247" 
d="M1161 0h-1075v186l834 1057v10h-826v181h1057v-185l-823 -1059v-10h833v-180z" />
    <glyph glyph-name="bracketleft" unicode="[" horiz-adv-x="808" 
d="M754 -258h-619v1720h619v-170h-445v-1380h445v-170z" />
    <glyph glyph-name="backslash" unicode="\" horiz-adv-x="858" 
d="M213 1462l592 -1720h-160l-592 1720h160z" />
    <glyph glyph-name="bracketright" unicode="]" horiz-adv-x="808" 
d="M672 -258h-619v170h447v1380h-447v170h619v-1720z" />
    <glyph glyph-name="asciicircum" unicode="^" horiz-adv-x="1124" 
d="M346 850h-188l331 612h162l334 -612h-190l-220 403h-10z" />
    <glyph glyph-name="underscore" unicode="_" horiz-adv-x="751" 
d="M690 -274h-629v165h629v-165z" />
    <glyph glyph-name="grave" unicode="`" horiz-adv-x="1093" 
d="M721 1194h-162l-158 266h199z" />
    <glyph glyph-name="a" unicode="a" horiz-adv-x="1085" 
d="M410 -29q-152 0 -247 81.5t-95 209.5q0 141 89 218.5t253 105.5l278 49q60 9 60 53v14q0 73 -60 122.5t-151 49.5q-82 0 -143 -38t-81 -107h-211q22 140 142 232t299 92q189 0 305.5 -93t116.5 -249v-711h-197v47q0 59 23 115l14 33l-2 2l-35 -56q-53 -83 -151.5 -126.5
t-206.5 -43.5zM465 135q113 0 198 61.5t85 153.5v150l-291 -51q-93 -18 -138 -59t-45 -114q0 -63 53.5 -102t137.5 -39z" />
    <glyph glyph-name="b" unicode="b" horiz-adv-x="1136" 
d="M645 -29q-100 0 -187 55.5t-130 153.5l-27 58l-4 -2l8 -27q2 -10 8 -34t8 -33.5t4.5 -26t2.5 -31.5v-84h-207v1434h207v-574h8q43 93 127 144t182 51q192 0 309 -142.5t117 -375.5v-52q0 -224 -118.5 -369t-307.5 -145zM604 131q107 0 182.5 98t75.5 254v60
q0 156 -76.5 253t-185.5 97q-117 0 -191.5 -89.5t-74.5 -234.5v-112q0 -144 76 -235t194 -91z" />
    <glyph glyph-name="c" unicode="c" horiz-adv-x="1089" 
d="M555 -29q-215 0 -353.5 144t-138.5 370v58q0 218 140.5 364t351.5 146q201 0 333 -115t140 -295h-209q-6 112 -81.5 181t-180.5 69q-120 0 -201.5 -93t-81.5 -239v-100q0 -143 80.5 -235.5t200.5 -92.5q106 0 182 69t82 181h209q-7 -184 -138 -298t-335 -114z" />
    <glyph glyph-name="d" unicode="d" horiz-adv-x="1136" 
d="M489 -29q-188 0 -307 145t-119 369v52q0 233 117.5 375.5t308.5 142.5q100 0 184.5 -51t127.5 -144h6v574h209v-1432h-209v76q0 49 24 139l7 19l-4 2l-27 -58q-42 -97 -129.5 -153t-188.5 -56zM530 131q118 0 195.5 91t77.5 235v112q0 145 -75 234.5t-193 89.5
q-109 0 -186 -97.5t-77 -252.5v-60q0 -156 75.5 -254t182.5 -98z" />
    <glyph glyph-name="e" unicode="e" horiz-adv-x="1101" 
d="M553 -29q-216 0 -353 144t-137 370v58q0 219 139 364.5t351 145.5q215 0 351 -142.5t136 -367.5v-70h-766v-16q0 -140 78 -232t201 -92q90 0 159 54.5t101 150.5h209q-38 -169 -164 -268t-305 -99zM276 616h553q-17 123 -93 200t-181 77q-107 0 -184.5 -76.5
t-94.5 -200.5z" />
    <glyph glyph-name="f" unicode="f" horiz-adv-x="638" 
d="M379 0h-207v844h-143v180h143v133q0 305 299 305q51 0 139 -10l-2 -162q-43 6 -86 6q-75 0 -107.5 -30t-33.5 -107l-2 -135h219v-180h-219v-844z" />
    <glyph glyph-name="g" unicode="g" horiz-adv-x="1134" 
d="M549 -438q-166 0 -289 76.5t-158 191.5l193 35q26 -66 95.5 -106t156.5 -40q113 0 186.5 66.5t73.5 167.5v207h-6q-43 -92 -127 -140.5t-185 -48.5q-191 0 -308.5 142.5t-117.5 375.5v52q0 224 119 369t307 145q102 0 191 -55.5t127 -153.5l27 -58l4 3l-13 47
q-15 50 -18 108v78h207v-1061q0 -180 -129 -290.5t-336 -110.5zM535 133q118 0 193 89.5t75 234.5v112q0 144 -77.5 235t-195.5 91q-107 0 -182.5 -98t-75.5 -254v-60q0 -155 77 -252.5t186 -97.5z" />
    <glyph glyph-name="h" unicode="h" horiz-adv-x="1107" 
d="M328 0h-207v1434h207v-439q0 -64 -25 -127l-8 -20l4 -2l29 41q51 77 131.5 121.5t175.5 44.5q179 0 275 -113t96 -324v-616h-209v623q0 131 -52 200.5t-151 69.5q-108 0 -187 -81.5t-79 -209.5v-602z" />
    <glyph glyph-name="i" unicode="i" horiz-adv-x="448" 
d="M328 1221h-207v215h207v-215zM328 2h-207v1024h207v-1024z" />
    <glyph glyph-name="j" unicode="j" horiz-adv-x="460" 
d="M342 1221h-209v215h209v-215zM-80 -440v204q110 19 161.5 90t51.5 209v961h209v-993q0 -206 -108 -325.5t-314 -145.5z" />
    <glyph glyph-name="k" unicode="k" horiz-adv-x="1050" 
d="M328 0h-207v1434h207v-883h10l455 471h231l-483 -496l483 -526h-231l-455 500h-10v-500z" />
    <glyph glyph-name="l" unicode="l" horiz-adv-x="448" 
d="M328 0h-207v1434h207v-1434z" />
    <glyph glyph-name="m" unicode="m" horiz-adv-x="1753" 
d="M328 0h-207v1028h207v-37q0 -50 -25 -110l-8 -21l4 -4l29 41q47 73 126.5 114.5t166.5 41.5q227 0 317 -181h8q52 84 140 132.5t194 48.5q173 0 269 -112t96 -314v-627h-209v631q0 118 -53.5 190t-153.5 72q-99 0 -170.5 -77.5t-71.5 -201.5v-614h-209v631
q0 118 -53.5 190t-153.5 72q-99 0 -171 -78t-72 -201v-614z" />
    <glyph glyph-name="n" unicode="n" horiz-adv-x="1116" 
d="M328 0h-207v1024h207v-41q0 -53 -25 -113l-8 -20l4 -4l29 41q51 77 131.5 121.5t175.5 44.5q179 0 275 -113t96 -324v-616h-209v623q0 132 -54.5 201t-160.5 69q-107 0 -180.5 -81t-73.5 -210v-602z" />
    <glyph glyph-name="o" unicode="o" horiz-adv-x="1101" 
d="M551 -29q-215 0 -351.5 144.5t-136.5 371.5v54q0 219 139 365.5t349 146.5q214 0 350.5 -144t136.5 -368v-54q0 -229 -134.5 -372.5t-352.5 -143.5zM551 133q122 0 199 95.5t77 236.5v94q0 141 -76.5 237.5t-197.5 96.5q-122 0 -200.5 -96.5t-78.5 -237.5v-94
q0 -141 77.5 -236.5t199.5 -95.5z" />
    <glyph glyph-name="p" unicode="p" horiz-adv-x="1136" 
d="M328 -408h-207v1432h207v-78q0 -57 -19 -115l-10 -32l4 -2l25 49q42 99 129 154t188 55q192 0 309 -142.5t117 -375.5v-54q0 -223 -118.5 -368.5t-307.5 -145.5q-97 0 -181 53t-126 146h-10v-576zM604 131q107 0 182.5 97t75.5 253v60q0 157 -76.5 253.5t-185.5 96.5
q-117 0 -191.5 -89.5t-74.5 -234.5v-110q0 -144 76 -235t194 -91z" />
    <glyph glyph-name="q" unicode="q" horiz-adv-x="1136" 
d="M1016 -408h-209v576h-8q-42 -93 -127 -146t-183 -53q-188 0 -307 145.5t-119 368.5v54q0 233 117.5 375.5t308.5 142.5q103 0 190.5 -55t127.5 -154l27 -49l4 2l-11 32q-17 52 -20 115v78h209v-1432zM530 131q118 0 195.5 91t77.5 235v110q0 145 -75 234.5t-193 89.5
q-109 0 -186 -96.5t-77 -253.5v-60q0 -156 75.5 -253t182.5 -97z" />
    <glyph glyph-name="r" unicode="r" horiz-adv-x="712" 
d="M328 0h-207v1024h207v-43q0 -66 -21 -125l-10 -27l4 -2l27 43q58 106 166 152q66 24 131 29l61 2v-193h-94q-88 0 -149.5 -46.5t-88 -116.5t-26.5 -156v-541z" />
    <glyph glyph-name="s" unicode="s" horiz-adv-x="1001" 
d="M504 -29q-191 0 -309.5 76t-131.5 209h220q17 -60 74.5 -93.5t146.5 -33.5q98 0 161.5 41.5t63.5 105.5q0 53 -41.5 85t-148.5 55l-168 35q-145 31 -216 102t-71 186q0 145 113 229.5t305 84.5q183 0 292.5 -75t118.5 -208h-208q-12 59 -66 92t-137 33
q-90 0 -149.5 -37.5t-59.5 -105.5q0 -58 40 -87t144 -53l168 -32q148 -31 223.5 -103.5t75.5 -181.5q0 -149 -119.5 -236.5t-320.5 -87.5z" />
    <glyph glyph-name="t" unicode="t" horiz-adv-x="679" 
d="M639 154v-168q-122 -23 -220 -6.5t-151 67.5q-80 77 -80 225v572h-161v180h96q37 0 52 18.5t15 57.5v157l209 58v-205q0 -64 -45 -82v-4h277v-180h-232v-531q0 -102 57.5 -137.5t182.5 -21.5z" />
    <glyph glyph-name="u" unicode="u" horiz-adv-x="1122" 
d="M487 -29q-178 0 -274 113t-96 324v616h207v-623q0 -131 52.5 -200.5t151.5 -69.5q108 0 186.5 81.5t78.5 209.5v602h208v-1024h-208v45q3 60 26 109l6 18l-4 6l-28 -41q-48 -76 -129.5 -121t-176.5 -45z" />
    <glyph glyph-name="v" unicode="v" horiz-adv-x="1083" 
d="M678 0h-275l-383 1024h201l316 -856h8l317 856h199z" />
    <glyph glyph-name="w" unicode="w" horiz-adv-x="1548" 
d="M551 0h-246l-285 1024h193l219 -813h8l230 813h207l229 -813h10l219 813h191l-283 -1024h-248l-217 768h-10z" />
    <glyph glyph-name="x" unicode="x" horiz-adv-x="1034" 
d="M240 -2h-220l388 512l-388 512h220l272 -356h10l271 356h219l-385 -512l385 -512h-219l-271 358h-10z" />
    <glyph glyph-name="y" unicode="y" horiz-adv-x="1054" 
d="M240 -438q-66 0 -105 10l2 174q41 -8 76 -8q55 0 88.5 29.5t67.5 107.5l53 121l-402 1028h203l299 -788h13l296 788h203l-452 -1137q-37 -91 -67.5 -147t-70.5 -99t-89 -61t-115 -18z" />
    <glyph glyph-name="z" unicode="z" horiz-adv-x="1013" 
d="M938 0h-860v160l604 674v10h-598v180h850v-162l-598 -672v-10h602v-180z" />
    <glyph glyph-name="braceleft" unicode="{" horiz-adv-x="917" 
d="M864 -258h-235q-176 0 -266.5 99.5t-90.5 283.5v237q0 74 -40 119t-113 45h-66v152h66q73 0 113 45.5t40 118.5v237q0 184 90.5 283.5t266.5 99.5h235v-159h-186q-232 0 -232 -238v-215q0 -88 -36 -149t-93 -93v-8q129 -78 129 -246v-217q0 -114 59 -174.5t173 -60.5h186
v-160z" />
    <glyph glyph-name="bar" unicode="|" horiz-adv-x="477" 
d="M342 -131h-207v1696h207v-1696z" />
    <glyph glyph-name="braceright" unicode="}" horiz-adv-x="917" 
d="M289 -258h-236v160h185q115 0 173 60t58 175v217q0 167 131 246v6q-57 33 -94 94t-37 150v215q0 238 -231 238h-185v159h236q175 0 264.5 -99.5t89.5 -283.5v-237q0 -73 40.5 -118.5t113.5 -45.5h67v-152h-67q-73 0 -113.5 -45t-40.5 -119v-237q0 -184 -89 -283.5
t-265 -99.5z" />
    <glyph glyph-name="asciitilde" unicode="~" horiz-adv-x="1091" 
d="M733 502q-41 0 -79.5 18.5t-68.5 45.5t-59 54t-64.5 45.5t-72.5 18.5q-52 0 -83.5 -38t-37.5 -109h-143q3 142 68 227.5t188 85.5q41 0 82.5 -18.5t75 -45t64 -53t60.5 -45t54 -18.5q57 0 88.5 40t34.5 109h145q-3 -144 -67.5 -230.5t-184.5 -86.5z" />
    <glyph glyph-name="uni00A0" unicode="&#xa0;" horiz-adv-x="1214" 
 />
    <glyph glyph-name="exclamdown" unicode="&#xa1;" horiz-adv-x="473" 
d="M332 1200h-191v234h191v-234zM334 0h-195l25 1055h145z" />
    <glyph glyph-name="cent" unicode="&#xa2;" horiz-adv-x="1288" 
d="M745 -2h-143v182q-191 20 -310.5 161t-119.5 349v58q0 202 121 343.5t309 161.5v181h143v-183q169 -23 276.5 -133t113.5 -270h-207q-7 113 -82.5 181.5t-179.5 68.5q-120 0 -202.5 -93t-82.5 -239v-100q0 -143 81.5 -235.5t201.5 -92.5q104 0 180.5 69t83.5 181h207
q-6 -163 -112.5 -273t-277.5 -133v-184z" />
    <glyph glyph-name="sterling" unicode="&#xa3;" horiz-adv-x="1234" 
d="M1157 -2h-1061v180h174v395h-151v162h151v291q0 191 117 312.5t305 121.5q145 0 253 -77t159 -214l-160 -73q-69 184 -235 184q-101 0 -165.5 -67.5t-64.5 -176.5v-301h432v-162h-432v-395h678v-180z" />
    <glyph glyph-name="currency" unicode="&#xa4;" horiz-adv-x="1052" 
d="M315 387l-165 -170l-117 119l166 168q-72 93 -72 225q0 125 70 223l-164 164l117 121l163 -168q95 68 219 68q121 0 224 -70l166 170l114 -119l-166 -170q68 -96 68 -219q0 -129 -70 -223l168 -170l-114 -119l-168 172q-98 -70 -222 -70q-122 0 -217 68zM535 479
q101 0 173 73.5t72 176.5t-72 176.5t-173 73.5q-104 0 -177 -73t-73 -177t73 -177t177 -73z" />
    <glyph glyph-name="yen" unicode="&#xa5;" horiz-adv-x="1216" 
d="M721 0h-207v256h-313v143h313v154h-313v145h237l-442 736h227l393 -676l396 676h227l-442 -736h237v-145h-313v-154h313v-143h-313v-256z" />
    <glyph glyph-name="brokenbar" unicode="&#xa6;" horiz-adv-x="477" 
d="M135 1167h207v-901h-207v901z" />
    <glyph glyph-name="section" unicode="&#xa7;" horiz-adv-x="1011" 
d="M502 -176q-193 0 -303.5 92t-106.5 250h193q2 -84 58.5 -130t158.5 -46q92 0 151.5 43.5t59.5 111.5q0 62 -50 95.5t-157 60.5q-120 31 -207 66q-205 77 -205 264q0 168 162 254v4q-143 88 -143 254q0 143 108 231t285 88q178 0 282.5 -92.5t98.5 -245.5h-195
q6 75 -48 123.5t-142 48.5q-82 0 -133.5 -40t-51.5 -103q0 -61 45.5 -99.5t147.5 -64.5q98 -25 205 -67q103 -40 150.5 -101t47.5 -155q0 -76 -37.5 -145.5t-103.5 -119.5v-6q148 -77 148 -229t-116.5 -247t-301.5 -95zM475 496l127 -33q111 62 111 170q0 114 -156 153
l-127 33q-60 -15 -98.5 -61t-38.5 -103q0 -62 40.5 -97.5t141.5 -61.5z" />
    <glyph glyph-name="dieresis" unicode="&#xa8;" horiz-adv-x="1007" 
d="M451 1182h-170v180h170v-180zM727 1182h-170v180h170v-180z" />
    <glyph glyph-name="ordfeminine" unicode="&#xaa;" horiz-adv-x="886" 
d="M367 707q-105 0 -172.5 57t-67.5 145q0 186 240 228l196 34q19 3 30 13t11 24v11q0 51 -41.5 85.5t-105.5 34.5q-54 0 -96 -28.5t-62 -73.5l-147 10q21 95 106 156t203 61q132 0 213.5 -65t81.5 -174v-498h-138v33q0 38 17 82l10 22l-4 2l-23 -39q-36 -61 -104.5 -90.5
t-146.5 -29.5zM406 821q79 0 138.5 43t59.5 109v104l-205 -37q-66 -14 -96.5 -40.5t-30.5 -77.5q0 -44 38.5 -72.5t95.5 -28.5zM768 508h-647v106h647v-106z" />
    <glyph glyph-name="guillemotleft" unicode="&#xab;" horiz-adv-x="1071" 
d="M575 319h-165l-291 349v12l291 352h163l-290 -352v-4zM950 319h-164l-290 353v12l290 348h166l-290 -352v-4z" />
    <glyph glyph-name="logicalnot" unicode="&#xac;" horiz-adv-x="1026" 
d="M899 485h-160v226h-594v157h754v-383z" />
    <glyph glyph-name="uni00AD" unicode="&#xad;" horiz-adv-x="729" 
d="M668 586h-607v180h607v-180z" />
    <glyph glyph-name="macron" unicode="&#xaf;" horiz-adv-x="1185" 
d="M893 1212h-600v140h600v-140z" />
    <glyph glyph-name="degree" unicode="&#xb0;" horiz-adv-x="677" 
d="M340 920q-117 0 -199 82t-82 202q0 118 82 199.5t199 81.5t199 -81.5t82 -199.5q0 -121 -81 -202.5t-200 -81.5zM340 1049q66 0 110 44.5t44 110.5q0 64 -45 109t-109 45q-63 0 -109.5 -45.5t-46.5 -108.5q0 -65 45 -110t111 -45z" />
    <glyph glyph-name="plusminus" unicode="&#xb1;" horiz-adv-x="1177" 
d="M664 395h-154v334h-346v154h346v336h154v-336h350v-154h-350v-334zM1001 135h-833v148h833v-148z" />
    <glyph glyph-name="uni00B2" unicode="&#xb2;" horiz-adv-x="735" 
d="M668 709h-592v88l278 264q78 71 121 123q62 75 62 145q0 71 -41.5 110.5t-116.5 39.5t-121.5 -49t-52.5 -127h-127q9 126 90 204t211 78q135 0 209 -72.5t74 -179.5q0 -97 -103 -215q-38 -47 -115 -114l-190 -183v-4h414v-108z" />
    <glyph glyph-name="uni00B3" unicode="&#xb3;" horiz-adv-x="712" 
d="M352 692q-130 0 -221 67.5t-100 170.5h129q10 -58 63.5 -94.5t128.5 -36.5q89 0 141 40.5t52 110.5q0 74 -55 115t-142 41h-100v98h102q67 0 115.5 38.5t48.5 100.5q0 59 -47 97.5t-119 38.5q-65 0 -111 -34t-57 -89h-125q12 100 95.5 164.5t199.5 64.5q121 0 205 -66.5
t84 -170.5q0 -63 -35 -114t-88 -77v-4q67 -22 110.5 -77t43.5 -136q0 -111 -89.5 -179.5t-228.5 -68.5z" />
    <glyph glyph-name="acute" unicode="&#xb4;" horiz-adv-x="1083" 
d="M535 1194h-160l106 266h201z" />
    <glyph glyph-name="uni00B5" unicode="&#xb5;" horiz-adv-x="1230" 
d="M328 -410h-209v1434h209v-655q0 -112 54 -175t150 -63q116 0 182 85t66 237v571h209v-762q0 -54 14 -82t50 -28h59v-179h-115q-51 0 -101.5 29t-72.5 80l-2 12q-79 -143 -268 -143q-71 0 -132.5 33.5t-92.5 76.5v-471z" />
    <glyph glyph-name="paragraph" unicode="&#xb6;" horiz-adv-x="1075" 
d="M666 0h-150v602q-139 -3 -227 35q-118 50 -180 149t-62 242q0 130 68 229t186 142q90 35 201 35h436v-1434h-156v1274h-116v-1274z" />
    <glyph glyph-name="periodcentered" unicode="&#xb7;" horiz-adv-x="729" 
d="M369 551q-56 0 -90.5 33.5t-34.5 87.5q0 57 34.5 92t90.5 35q51 0 84.5 -36t33.5 -91q0 -52 -34 -86.5t-84 -34.5z" />
    <glyph glyph-name="cedilla" unicode="&#xb8;" horiz-adv-x="1058" 
d="M520 -301q-70 0 -153 29l26 94l96 -15q2 1 13 -0.5t27 7t20 24.5q7 24 -19 41q-9 5 -112 21l43 155h108l-20 -63q63 -11 103.5 -55t33.5 -109q-7 -64 -53 -96.5t-113 -32.5z" />
    <glyph glyph-name="uni00B9" unicode="&#xb9;" horiz-adv-x="421" 
d="M303 709h-125v704h-4q-18 -30 -61.5 -50t-96.5 -20v113q60 0 110.5 32t78.5 81h98v-860z" />
    <glyph glyph-name="ordmasculine" unicode="&#xba;" horiz-adv-x="796" 
d="M399 707q-150 0 -245 100.5t-95 259.5v39q0 154 96.5 256t243.5 102q149 0 244.5 -100.5t95.5 -257.5v-39q0 -160 -94 -260t-246 -100zM399 821q86 0 139.5 66.5t53.5 163.5v69q0 97 -54 164.5t-137 67.5q-88 0 -142 -66.5t-54 -165.5v-69q0 -97 54 -163.5t140 -66.5z
M723 510h-647v108h647v-108z" />
    <glyph glyph-name="guillemotright" unicode="&#xbb;" horiz-adv-x="1071" 
d="M575 672l-290 -353h-164l289 357v4l-291 352h166l290 -348v-12zM952 668l-290 -349h-164l293 357v4l-293 352h164l290 -352v-12z" />
    <glyph glyph-name="onequarter" unicode="&#xbc;" horiz-adv-x="1552" 
d="M211 8h-109l1043 1454h106zM307 586h-125v704h-6q-15 -29 -59.5 -49t-96.5 -20v112q60 0 109.5 32t77.5 81h100v-860zM1389 -8h-125v188h-441v109l400 563h166v-563h127v-109h-127v-188zM1253 723l-311 -436h320v436h-9z" />
    <glyph glyph-name="onehalf" unicode="&#xbd;" horiz-adv-x="1609" 
d="M211 8h-109l1043 1454h106zM307 586h-125v704h-6q-15 -29 -59.5 -49t-96.5 -20v112q60 0 109.5 32t77.5 81h100v-860zM1542 -8h-592v88l279 264q78 71 121 123q61 74 61 145t-41.5 110.5t-116.5 39.5t-121.5 -49t-52.5 -127h-127q9 126 90 204t211 78q135 0 209 -72.5
t74 -179.5q0 -98 -102 -215q-38 -47 -115 -114l-191 -183v-4h414v-108z" />
    <glyph glyph-name="threequarters" unicode="&#xbe;" horiz-adv-x="1843" 
d="M354 569q-130 0 -220 67.5t-101 170.5h129q10 -58 63.5 -94.5t128.5 -36.5q89 0 141 40.5t52 110.5q0 74 -55 115t-140 41h-102v98h102q68 0 116 38.5t48 101.5q0 58 -46.5 96.5t-117.5 38.5q-66 0 -112.5 -34.5t-57.5 -88.5h-125q12 100 95.5 164.5t199.5 64.5
q121 0 205 -66.5t84 -170.5q0 -63 -35 -114t-88 -77v-4q68 -22 111 -76.5t43 -136.5q0 -111 -89.5 -179.5t-228.5 -68.5zM502 8h-109l1043 1454h106zM1679 -8h-125v188h-440v109l399 563h166v-563h127v-109h-127v-188zM1544 723l-311 -436h319v436h-8z" />
    <glyph glyph-name="questiondown" unicode="&#xbf;" horiz-adv-x="1110" 
d="M700 1212h-204v234h204v-234zM567 -16q-208 0 -342.5 106.5t-134.5 271.5q0 117 61 209t175 146q104 51 136 89.5t32 121.5v108h208v-131q0 -71 -22.5 -124t-58.5 -84.5t-79.5 -56.5t-86.5 -48t-79 -50t-58.5 -72t-22.5 -105q0 -86 77.5 -143.5t194.5 -57.5
q115 0 190.5 62t90.5 169h196q-5 -180 -137 -295.5t-340 -115.5z" />
    <glyph glyph-name="Agrave" unicode="&#xc0;" horiz-adv-x="1413" 
d="M772 1565h-160l-159 266h200zM236 0h-211l555 1434h254l555 -1434h-211l-148 377h-647zM700 1210l-249 -655h512l-250 655h-13z" />
    <glyph glyph-name="Aacute" unicode="&#xc1;" horiz-adv-x="1413" 
d="M797 1565h-160l108 266h199zM236 0h-211l555 1434h254l555 -1434h-211l-148 377h-647zM700 1210l-249 -655h512l-250 655h-13z" />
    <glyph glyph-name="Acircumflex" unicode="&#xc2;" horiz-adv-x="1413" 
d="M571 1544h-176l217 293h191l215 -293h-174l-129 178h-15zM236 0h-211l555 1434h254l555 -1434h-211l-148 377h-647zM700 1210l-249 -655h512l-250 655h-13z" />
    <glyph glyph-name="Atilde" unicode="&#xc3;" horiz-adv-x="1413" 
d="M504 1536h-135q-1 145 52.5 224t153.5 79q76 0 146 -70l13.5 -13.5l14 -14t12 -11.5t14 -11.5t13 -9t14.5 -8.5t15 -5q47 -12 69.5 20.5t22.5 124.5h133q7 -303 -200 -303q-73 0 -133 57q-14 14 -35 37t-32 34t-28 19t-36 7q-77 -3 -74 -156zM236 0h-211l555 1434h254
l555 -1434h-211l-148 377h-647zM700 1210l-249 -655h512l-250 655h-13z" />
    <glyph glyph-name="Adieresis" unicode="&#xc4;" horiz-adv-x="1413" 
d="M653 1563h-170v180h170v-180zM930 1563h-170v180h170v-180zM236 0h-211l555 1434h254l555 -1434h-211l-148 377h-647zM700 1210l-249 -655h512l-250 655h-13z" />
    <glyph glyph-name="Aring" unicode="&#xc5;" horiz-adv-x="1413" 
d="M709 1501q-92 0 -153.5 60t-61.5 149q0 88 62 148.5t153 60.5q92 0 152.5 -59.5t60.5 -149.5q0 -89 -61 -149t-152 -60zM711 1610q38 0 66 29.5t28 70.5t-27.5 69.5t-66.5 28.5q-43 0 -72 -28.5t-29 -69.5q0 -43 29 -71.5t72 -28.5zM236 0h-211l555 1434h254l555 -1434
h-211l-148 377h-647zM700 1210l-249 -655h512l-250 655h-13z" />
    <glyph glyph-name="AE" unicode="&#xc6;" horiz-adv-x="1488" 
d="M236 0h-207l518 1434h856v-181h-455v-436h346v-180h-346v-457h455v-180h-664v348h-374zM664 1180l-240 -656h315v656h-75z" />
    <glyph glyph-name="Ccedilla" unicode="&#xc7;" horiz-adv-x="1384" 
d="M1081 459h213q-18 -191 -159 -326t-363 -158h14l-20 -63q63 -11 103.5 -55t33.5 -109q-7 -64 -53 -96.5t-113 -32.5q-82 0 -153 31l26 92l97 -14q2 1 13 -0.5t26.5 6.5t19.5 24q8 28 -18 41q-9 4 -113 21l41 151q-129 2 -235.5 46t-177 115.5t-119 167t-70 197.5
t-21.5 210v18q0 107 22 209t71.5 198.5t122 169t181.5 116.5t242 44q167 0 301 -65.5t210 -175t89 -244.5h-213q-18 135 -123 220.5t-264 84.5q-91 0 -165.5 -34t-122.5 -89t-81 -128.5t-47 -149.5t-14 -154v-22q0 -82 14 -158.5t47 -149t81.5 -126.5t122.5 -86.5t165 -32.5
q161 -1 267.5 84.5t121.5 222.5z" />
    <glyph glyph-name="Egrave" unicode="&#xc8;" horiz-adv-x="1253" 
d="M733 1565h-160l-159 266h200zM1157 0h-1022v1434h1022v-181h-813v-436h746v-178h-746v-459h813v-180z" />
    <glyph glyph-name="Eacute" unicode="&#xc9;" horiz-adv-x="1253" 
d="M758 1565h-160l109 266h198zM1157 0h-1022v1434h1022v-181h-813v-436h746v-178h-746v-459h813v-180z" />
    <glyph glyph-name="Ecircumflex" unicode="&#xca;" horiz-adv-x="1253" 
d="M530 1544h-176l217 293h191l215 -293h-174l-129 178h-15zM1157 0h-1022v1434h1022v-181h-813v-436h746v-178h-746v-459h813v-180z" />
    <glyph glyph-name="Edieresis" unicode="&#xcb;" horiz-adv-x="1253" 
d="M614 1563h-170v180h170v-180zM891 1563h-170v180h170v-180zM1157 0h-1022v1434h1022v-181h-813v-436h746v-178h-746v-459h813v-180z" />
    <glyph glyph-name="Igrave" unicode="&#xcc;" horiz-adv-x="481" 
d="M305 1565h-160l-159 266h200zM344 0h-209v1434h209v-1434z" />
    <glyph glyph-name="Iacute" unicode="&#xcd;" horiz-adv-x="481" 
d="M330 1565h-160l109 266h198zM344 0h-209v1434h209v-1434z" />
    <glyph glyph-name="Icircumflex" unicode="&#xce;" horiz-adv-x="481" 
d="M104 1544h-176l217 293h191l215 -293h-174l-129 178h-15zM344 0h-209v1434h209v-1434z" />
    <glyph glyph-name="Idieresis" unicode="&#xcf;" horiz-adv-x="481" 
d="M186 1563h-170v180h170v-180zM463 1563h-170v180h170v-180zM344 0h-209v1434h209v-1434z" />
    <glyph glyph-name="Eth" unicode="&#xd0;" horiz-adv-x="1386" 
d="M670 0h-535v641h-94v170h94v623h535q288 0 464.5 -198t176.5 -519t-176.5 -519t-464.5 -198zM344 641v-461h287q219 0 345 144.5t126 392.5q0 250 -125 393t-346 143h-287v-442h299v-170h-299z" />
    <glyph glyph-name="Ntilde" unicode="&#xd1;" horiz-adv-x="1390" 
d="M494 1536h-136q-1 145 53 224t154 79q76 0 146 -70l13.5 -13.5l14 -14t12 -11.5t14 -11.5t13 -9t14.5 -8.5t15 -5q47 -12 69.5 20.5t22.5 124.5h133q7 -303 -201 -303q-73 0 -133 57q-14 14 -35 37t-32 34t-28 19t-36 7q-76 -3 -73 -156zM344 0h-209v1434h236l665 -1100
h11v1100h206v-1434h-233l-666 1100h-10v-1100z" />
    <glyph glyph-name="Ograve" unicode="&#xd2;" horiz-adv-x="1380" 
d="M758 1565h-160l-160 266h201zM692 -29q-133 0 -242 43t-181.5 114t-122 167t-71.5 199t-22 213v18q0 107 22 209t71.5 198.5t122 169t181.5 116.5t242 44t242 -44t180.5 -116t120 -169t69.5 -199t21 -209v-18q0 -110 -21 -212.5t-69.5 -199t-120 -167.5t-180 -114
t-242.5 -43zM692 152q90 -1 163.5 31.5t122 86.5t81 126.5t47 149.5t14.5 159v22q0 78 -14.5 154t-47 149.5t-81 129t-122 89.5t-163.5 33q-91 0 -165.5 -34t-122.5 -89t-81 -128.5t-47 -149.5t-14 -154v-22q0 -82 14 -158.5t47 -149t81.5 -126.5t122.5 -86.5t165 -32.5z
" />
    <glyph glyph-name="Oacute" unicode="&#xd3;" horiz-adv-x="1380" 
d="M782 1565h-159l108 266h199zM692 -29q-133 0 -242 43t-181.5 114t-122 167t-71.5 199t-22 213v18q0 107 22 209t71.5 198.5t122 169t181.5 116.5t242 44t242 -44t180.5 -116t120 -169t69.5 -199t21 -209v-18q0 -110 -21 -212.5t-69.5 -199t-120 -167.5t-180 -114
t-242.5 -43zM692 152q90 -1 163.5 31.5t122 86.5t81 126.5t47 149.5t14.5 159v22q0 78 -14.5 154t-47 149.5t-81 129t-122 89.5t-163.5 33q-91 0 -165.5 -34t-122.5 -89t-81 -128.5t-47 -149.5t-14 -154v-22q0 -82 14 -158.5t47 -149t81.5 -126.5t122.5 -86.5t165 -32.5z
" />
    <glyph glyph-name="Ocircumflex" unicode="&#xd4;" horiz-adv-x="1380" 
d="M557 1544h-176l217 293h190l216 -293h-175l-129 178h-14zM692 -29q-133 0 -242 43t-181.5 114t-122 167t-71.5 199t-22 213v18q0 107 22 209t71.5 198.5t122 169t181.5 116.5t242 44t242 -44t180.5 -116t120 -169t69.5 -199t21 -209v-18q0 -110 -21 -212.5t-69.5 -199
t-120 -167.5t-180 -114t-242.5 -43zM692 152q90 -1 163.5 31.5t122 86.5t81 126.5t47 149.5t14.5 159v22q0 78 -14.5 154t-47 149.5t-81 129t-122 89.5t-163.5 33q-91 0 -165.5 -34t-122.5 -89t-81 -128.5t-47 -149.5t-14 -154v-22q0 -82 14 -158.5t47 -149t81.5 -126.5
t122.5 -86.5t165 -32.5z" />
    <glyph glyph-name="Otilde" unicode="&#xd5;" horiz-adv-x="1380" 
d="M489 1536h-135q-1 145 53 224t154 79q76 0 146 -70l13.5 -13.5l14 -14t12 -11.5t14 -11.5t13 -9t14.5 -8.5t15 -5q47 -12 69.5 20.5t22.5 124.5h133q7 -303 -201 -303q-73 0 -133 57q-14 14 -35 37t-32 34t-28 19t-36 7q-77 -3 -74 -156zM692 -29q-133 0 -242 43
t-181.5 114t-122 167t-71.5 199t-22 213v18q0 107 22 209t71.5 198.5t122 169t181.5 116.5t242 44t242 -44t180.5 -116t120 -169t69.5 -199t21 -209v-18q0 -110 -21 -212.5t-69.5 -199t-120 -167.5t-180 -114t-242.5 -43zM692 152q90 -1 163.5 31.5t122 86.5t81 126.5
t47 149.5t14.5 159v22q0 78 -14.5 154t-47 149.5t-81 129t-122 89.5t-163.5 33q-91 0 -165.5 -34t-122.5 -89t-81 -128.5t-47 -149.5t-14 -154v-22q0 -82 14 -158.5t47 -149t81.5 -126.5t122.5 -86.5t165 -32.5z" />
    <glyph glyph-name="Odieresis" unicode="&#xd6;" horiz-adv-x="1380" 
d="M639 1563h-170v180h170v-180zM915 1563h-170v180h170v-180zM692 -29q-133 0 -242 43t-181.5 114t-122 167t-71.5 199t-22 213v18q0 107 22 209t71.5 198.5t122 169t181.5 116.5t242 44t242 -44t180.5 -116t120 -169t69.5 -199t21 -209v-18q0 -110 -21 -212.5t-69.5 -199
t-120 -167.5t-180 -114t-242.5 -43zM692 152q90 -1 163.5 31.5t122 86.5t81 126.5t47 149.5t14.5 159v22q0 78 -14.5 154t-47 149.5t-81 129t-122 89.5t-163.5 33q-91 0 -165.5 -34t-122.5 -89t-81 -128.5t-47 -149.5t-14 -154v-22q0 -82 14 -158.5t47 -149t81.5 -126.5
t122.5 -86.5t165 -32.5z" />
    <glyph glyph-name="multiply" unicode="&#xd7;" horiz-adv-x="1177" 
d="M590 549l-305 -305l-127 129l305 305l-295 293l125 129l297 -295l303 303l127 -127l-303 -303l295 -295l-127 -129z" />
    <glyph glyph-name="Oslash" unicode="&#xd8;" horiz-adv-x="1449" 
d="M727 -29q-194 0 -336 92l-41 -63h-178l104 158q-94 102 -141 246t-47 303v18q0 107 22 209t71.5 198.5t122 169t181.5 116.5t242 44q191 0 330 -90l39 62h182l-104 -158q94 -104 141 -250t47 -301v-18q0 -110 -21.5 -213t-70 -199t-120.5 -167t-180.5 -114t-242.5 -43z
M297 727v-22q0 -224 104 -363l549 872q-93 68 -223 68q-91 0 -165.5 -34t-122.5 -89t-81 -128.5t-47 -149.5t-14 -154zM1049 1092l-551 -871q98 -69 229 -69q90 -1 163.5 31.5t122 86.5t81 126.5t47 149.5t14.5 159v22q0 222 -106 365z" />
    <glyph glyph-name="Ugrave" unicode="&#xd9;" horiz-adv-x="1404" 
d="M768 1565h-160l-159 266h200zM705 -29q-272 0 -421 172t-149 457v834h209v-850q0 -197 94 -314.5t267 -117.5q169 -1 263.5 118t94.5 314v850h205v-834q0 -188 -61.5 -328t-190 -220.5t-311.5 -80.5z" />
    <glyph glyph-name="Uacute" unicode="&#xda;" horiz-adv-x="1404" 
d="M793 1565h-160l108 266h199zM705 -29q-272 0 -421 172t-149 457v834h209v-850q0 -197 94 -314.5t267 -117.5q169 -1 263.5 118t94.5 314v850h205v-834q0 -188 -61.5 -328t-190 -220.5t-311.5 -80.5z" />
    <glyph glyph-name="Ucircumflex" unicode="&#xdb;" horiz-adv-x="1404" 
d="M567 1544h-176l217 293h191l215 -293h-174l-129 178h-15zM705 -29q-272 0 -421 172t-149 457v834h209v-850q0 -197 94 -314.5t267 -117.5q169 -1 263.5 118t94.5 314v850h205v-834q0 -188 -61.5 -328t-190 -220.5t-311.5 -80.5z" />
    <glyph glyph-name="Udieresis" unicode="&#xdc;" horiz-adv-x="1404" 
d="M649 1563h-170v180h170v-180zM926 1563h-170v180h170v-180zM705 -29q-272 0 -421 172t-149 457v834h209v-850q0 -197 94 -314.5t267 -117.5q169 -1 263.5 118t94.5 314v850h205v-834q0 -188 -61.5 -328t-190 -220.5t-311.5 -80.5z" />
    <glyph glyph-name="Yacute" unicode="&#xdd;" horiz-adv-x="1271" 
d="M723 1565h-160l109 266h198zM739 0h-209v563l-516 871h228l389 -664h8l391 664h227l-518 -871v-563z" />
    <glyph glyph-name="Thorn" unicode="&#xde;" horiz-adv-x="1253" 
d="M344 0h-209v1434h209v-279h391q228 0 350.5 -113t122.5 -323q0 -201 -124 -311.5t-349 -110.5h-391v-297zM344 975v-498h383q132 0 202 62.5t70 187.5q0 248 -272 248h-383z" />
    <glyph glyph-name="germandbls" unicode="&#xdf;" horiz-adv-x="1040" 
d="M586 -23q-49 0 -113 11v172q25 -6 80 -10q119 -4 181.5 69t62.5 193q0 137 -77 194.5t-231 57.5v190q51 0 91.5 15t64.5 38t40 54t22 61t6 61q0 94 -52.5 147.5t-152.5 53.5q-97 0 -147 -63.5t-50 -161.5v-1059h-190l-2 1030q0 201 101 316.5t292 115.5
q182 0 284.5 -101.5t102.5 -273.5q0 -100 -49.5 -182t-118.5 -125v-6q250 -69 250 -375q0 -106 -36 -189.5t-95 -132.5t-126.5 -74.5t-137.5 -25.5z" />
    <glyph glyph-name="agrave" unicode="&#xe0;" horiz-adv-x="1085" 
d="M631 1153h-162l-158 266h199zM410 -29q-152 0 -247 81.5t-95 209.5q0 141 89 218.5t253 105.5l278 49q60 9 60 53v14q0 73 -60 122.5t-151 49.5q-82 0 -143 -38t-81 -107h-211q22 140 142 232t299 92q189 0 305.5 -93t116.5 -249v-711h-197v47q0 59 23 115l14 33l-2 2
l-35 -56q-53 -83 -151.5 -126.5t-206.5 -43.5zM465 135q113 0 198 61.5t85 153.5v150l-291 -51q-93 -18 -138 -59t-45 -114q0 -63 53.5 -102t137.5 -39z" />
    <glyph glyph-name="aacute" unicode="&#xe1;" horiz-adv-x="1085" 
d="M618 1155h-159l106 266h201zM410 -29q-152 0 -247 81.5t-95 209.5q0 141 89 218.5t253 105.5l278 49q60 9 60 53v14q0 73 -60 122.5t-151 49.5q-82 0 -143 -38t-81 -107h-211q22 140 142 232t299 92q189 0 305.5 -93t116.5 -249v-711h-197v47q0 59 23 115l14 33l-2 2
l-35 -56q-53 -83 -151.5 -126.5t-206.5 -43.5zM465 135q113 0 198 61.5t85 153.5v150l-291 -51q-93 -18 -138 -59t-45 -114q0 -63 53.5 -102t137.5 -39z" />
    <glyph glyph-name="acircumflex" unicode="&#xe2;" horiz-adv-x="1085" 
d="M408 1145h-177l218 293h190l215 -293h-174l-129 178h-14zM410 -29q-152 0 -247 81.5t-95 209.5q0 141 89 218.5t253 105.5l278 49q60 9 60 53v14q0 73 -60 122.5t-151 49.5q-82 0 -143 -38t-81 -107h-211q22 140 142 232t299 92q189 0 305.5 -93t116.5 -249v-711h-197v47
q0 59 23 115l14 33l-2 2l-35 -56q-53 -83 -151.5 -126.5t-206.5 -43.5zM465 135q113 0 198 61.5t85 153.5v150l-291 -51q-93 -18 -138 -59t-45 -114q0 -63 53.5 -102t137.5 -39z" />
    <glyph glyph-name="atilde" unicode="&#xe3;" horiz-adv-x="1085" 
d="M326 1141h-136q-1 145 53.5 224t155.5 79q74 0 146 -72q7 -6 23 -22t24 -23.5t21.5 -15.5t27.5 -11q47 -12 69 21t21 125h135q3 -303 -200 -303q-77 0 -134 57q-13 13 -35.5 36.5t-33 33.5t-27.5 18.5t-35 7.5q-37 -3 -56 -38t-19 -117zM410 -29q-152 0 -247 81.5
t-95 209.5q0 141 89 218.5t253 105.5l278 49q60 9 60 53v14q0 73 -60 122.5t-151 49.5q-82 0 -143 -38t-81 -107h-211q22 140 142 232t299 92q189 0 305.5 -93t116.5 -249v-711h-197v47q0 59 23 115l14 33l-2 2l-35 -56q-53 -83 -151.5 -126.5t-206.5 -43.5zM465 135
q113 0 198 61.5t85 153.5v150l-291 -51q-93 -18 -138 -59t-45 -114q0 -63 53.5 -102t137.5 -39z" />
    <glyph glyph-name="adieresis" unicode="&#xe4;" horiz-adv-x="1085" 
d="M492 1163h-170v180h170v-180zM768 1163h-170v180h170v-180zM410 -29q-152 0 -247 81.5t-95 209.5q0 141 89 218.5t253 105.5l278 49q60 9 60 53v14q0 73 -60 122.5t-151 49.5q-82 0 -143 -38t-81 -107h-211q22 140 142 232t299 92q189 0 305.5 -93t116.5 -249v-711h-197
v47q0 59 23 115l14 33l-2 2l-35 -56q-53 -83 -151.5 -126.5t-206.5 -43.5zM465 135q113 0 198 61.5t85 153.5v150l-291 -51q-93 -18 -138 -59t-45 -114q0 -63 53.5 -102t137.5 -39z" />
    <glyph glyph-name="aring" unicode="&#xe5;" horiz-adv-x="1085" 
d="M541 1108q-91 0 -152 60t-61 149q0 88 62 148.5t151 60.5q93 0 154 -59.5t61 -149.5q0 -89 -61.5 -149t-153.5 -60zM545 1217q38 0 66 29.5t28 70.5t-27.5 69.5t-66.5 28.5q-43 0 -72 -28.5t-29 -69.5q0 -43 29 -71.5t72 -28.5zM410 -29q-152 0 -247 81.5t-95 209.5
q0 141 89 218.5t253 105.5l278 49q60 9 60 53v14q0 73 -60 122.5t-151 49.5q-82 0 -143 -38t-81 -107h-211q22 140 142 232t299 92q189 0 305.5 -93t116.5 -249v-711h-197v47q0 59 23 115l14 33l-2 2l-35 -56q-53 -83 -151.5 -126.5t-206.5 -43.5zM465 135q113 0 198 61.5
t85 153.5v150l-291 -51q-93 -18 -138 -59t-45 -114q0 -63 53.5 -102t137.5 -39z" />
    <glyph glyph-name="ae" unicode="&#xe6;" horiz-adv-x="1413" 
d="M383 -29q-144 0 -233 87t-89 227t93 222t260 89l188 10v82q0 215 -164 215q-71 0 -116 -48.5t-50 -121.5h-180q3 141 102 230.5t250 89.5q89 0 159 -38.5t108 -109.5q37 69 110.5 108.5t161.5 39.5q181 0 277 -130.5t96 -375.5v-82h-561v-41q0 -145 50 -223t140 -78
q133 0 195 178h174q-68 -330 -371 -330q-89 0 -167 46t-118 120q-51 -80 -132 -123t-183 -43zM799 612h366q0 139 -51 216t-139 77q-76 0 -123 -75.5t-53 -217.5zM401 123q96 0 149.5 62.5t53.5 168.5v107l-184 -8q-76 -4 -124 -49.5t-48 -110.5q0 -82 41.5 -126t111.5 -44z
" />
    <glyph glyph-name="ccedilla" unicode="&#xe7;" horiz-adv-x="1071" 
d="M555 133q106 0 182 69t82 181h209q-7 -173 -123 -284.5t-301 -125.5l-16 -57q63 -11 103.5 -56t33.5 -110q-7 -64 -52.5 -95.5t-113.5 -31.5q-65 0 -156 29l29 94l94 -14q2 1 13.5 -0.5t28 6.5t20.5 24q7 23 -19 39q-13 7 -114 23l43 149q-193 20 -314 161t-121 351v58
q0 218 140.5 364t351.5 146q201 0 333 -115t140 -295h-209q-6 112 -81.5 181t-180.5 69q-120 0 -201.5 -93t-81.5 -239v-100q0 -143 80.5 -235.5t200.5 -92.5z" />
    <glyph glyph-name="egrave" unicode="&#xe8;" horiz-adv-x="1101" 
d="M643 1153h-162l-157 266h198zM553 -29q-216 0 -353 144t-137 370v58q0 219 139 364.5t351 145.5q215 0 351 -142.5t136 -367.5v-70h-766v-16q0 -140 78 -232t201 -92q90 0 159 54.5t101 150.5h209q-38 -169 -164 -268t-305 -99zM276 616h553q-17 123 -93 200t-181 77
q-107 0 -184.5 -76.5t-94.5 -200.5z" />
    <glyph glyph-name="eacute" unicode="&#xe9;" horiz-adv-x="1101" 
d="M633 1155h-160l107 266h200zM553 -29q-216 0 -353 144t-137 370v58q0 219 139 364.5t351 145.5q215 0 351 -142.5t136 -367.5v-70h-766v-16q0 -140 78 -232t201 -92q90 0 159 54.5t101 150.5h209q-38 -169 -164 -268t-305 -99zM276 616h553q-17 123 -93 200t-181 77
q-107 0 -184.5 -76.5t-94.5 -200.5z" />
    <glyph glyph-name="ecircumflex" unicode="&#xea;" horiz-adv-x="1101" 
d="M420 1145h-176l217 293h190l215 -293h-174l-129 178h-14zM553 -29q-216 0 -353 144t-137 370v58q0 219 139 364.5t351 145.5q215 0 351 -142.5t136 -367.5v-70h-766v-16q0 -140 78 -232t201 -92q90 0 159 54.5t101 150.5h209q-38 -169 -164 -268t-305 -99zM276 616h553
q-17 123 -93 200t-181 77q-107 0 -184.5 -76.5t-94.5 -200.5z" />
    <glyph glyph-name="edieresis" unicode="&#xeb;" horiz-adv-x="1101" 
d="M504 1163h-170v180h170v-180zM780 1163h-170v180h170v-180zM553 -29q-216 0 -353 144t-137 370v58q0 219 139 364.5t351 145.5q215 0 351 -142.5t136 -367.5v-70h-766v-16q0 -140 78 -232t201 -92q90 0 159 54.5t101 150.5h209q-38 -169 -164 -268t-305 -99zM276 616h553
q-17 123 -93 200t-181 77q-107 0 -184.5 -76.5t-94.5 -200.5z" />
    <glyph glyph-name="igrave" unicode="&#xec;" horiz-adv-x="385" 
d="M283 1153h-162l-158 266h199zM289 0h-191v1024h191v-1024z" />
    <glyph glyph-name="iacute" unicode="&#xed;" horiz-adv-x="385" 
d="M272 1155h-159l106 266h201zM289 0h-191v1024h191v-1024z" />
    <glyph glyph-name="icircumflex" unicode="&#xee;" horiz-adv-x="385" 
d="M59 1145h-176l217 293h191l215 -293h-174l-129 178h-15zM289 0h-191v1024h191v-1024z" />
    <glyph glyph-name="idieresis" unicode="&#xef;" horiz-adv-x="385" 
d="M143 1163h-170v180h170v-180zM420 1163h-170v180h170v-180zM289 0h-191v1024h191v-1024z" />
    <glyph glyph-name="eth" unicode="&#xf0;" horiz-adv-x="1042" 
d="M516 -29q-211 0 -334 127t-123 348v43q0 218 109 346t295 128q190 0 274 -129h2q-52 166 -182 315l-256 -100l-27 118l191 74q-89 93 -219 193h246q68 -53 141 -123l252 100l28 -119l-188 -71q117 -134 188.5 -301t71.5 -351v-120q0 -226 -122.5 -352t-346.5 -126z
M522 133q120 0 187 86t67 240v51q0 151 -68 238.5t-188 87.5q-118 0 -185 -86.5t-67 -239.5v-51q0 -154 67 -240t187 -86z" />
    <glyph glyph-name="ntilde" unicode="&#xf1;" horiz-adv-x="1116" 
d="M356 1141h-135q-1 145 53.5 224t155.5 79q73 0 145 -72q6 -5 22.5 -22t24.5 -23.5t22 -15t28 -11.5q47 -12 69 21t21 125h135q3 -303 -201 -303q-76 0 -133 57q-13 13 -35.5 36.5t-33 33.5t-27.5 18.5t-35 7.5q-38 -3 -57 -38t-19 -117zM328 0h-207v1024h207v-41
q0 -53 -25 -113l-8 -20l4 -4l29 41q51 77 131.5 121.5t175.5 44.5q179 0 275 -113t96 -324v-616h-209v623q0 132 -54.5 201t-160.5 69q-107 0 -180.5 -81t-73.5 -210v-602z" />
    <glyph glyph-name="ograve" unicode="&#xf2;" horiz-adv-x="1101" 
d="M641 1153h-162l-157 266h198zM551 -29q-215 0 -351.5 144.5t-136.5 371.5v54q0 219 139 365.5t349 146.5q214 0 350.5 -144t136.5 -368v-54q0 -229 -134.5 -372.5t-352.5 -143.5zM551 133q122 0 199 95.5t77 236.5v94q0 141 -76.5 237.5t-197.5 96.5q-122 0 -200.5 -96.5
t-78.5 -237.5v-94q0 -141 77.5 -236.5t199.5 -95.5z" />
    <glyph glyph-name="oacute" unicode="&#xf3;" horiz-adv-x="1101" 
d="M631 1155h-160l107 266h200zM551 -29q-215 0 -351.5 144.5t-136.5 371.5v54q0 219 139 365.5t349 146.5q214 0 350.5 -144t136.5 -368v-54q0 -229 -134.5 -372.5t-352.5 -143.5zM551 133q122 0 199 95.5t77 236.5v94q0 141 -76.5 237.5t-197.5 96.5q-122 0 -200.5 -96.5
t-78.5 -237.5v-94q0 -141 77.5 -236.5t199.5 -95.5z" />
    <glyph glyph-name="ocircumflex" unicode="&#xf4;" horiz-adv-x="1101" 
d="M418 1145h-176l217 293h190l215 -293h-174l-129 178h-14zM551 -29q-215 0 -351.5 144.5t-136.5 371.5v54q0 219 139 365.5t349 146.5q214 0 350.5 -144t136.5 -368v-54q0 -229 -134.5 -372.5t-352.5 -143.5zM551 133q122 0 199 95.5t77 236.5v94q0 141 -76.5 237.5
t-197.5 96.5q-122 0 -200.5 -96.5t-78.5 -237.5v-94q0 -141 77.5 -236.5t199.5 -95.5z" />
    <glyph glyph-name="otilde" unicode="&#xf5;" horiz-adv-x="1101" 
d="M338 1141h-135q-1 145 53.5 224t155.5 79q73 0 145 -72q7 -6 23 -22t24 -23.5t21.5 -15.5t27.5 -11q47 -12 69 21t21 125h136q3 -303 -201 -303q-76 0 -133 57q-13 13 -35.5 36.5t-33 33.5t-27.5 18.5t-35 7.5q-38 -3 -57 -38t-19 -117zM551 -29q-215 0 -351.5 144.5
t-136.5 371.5v54q0 219 139 365.5t349 146.5q214 0 350.5 -144t136.5 -368v-54q0 -229 -134.5 -372.5t-352.5 -143.5zM551 133q122 0 199 95.5t77 236.5v94q0 141 -76.5 237.5t-197.5 96.5q-122 0 -200.5 -96.5t-78.5 -237.5v-94q0 -141 77.5 -236.5t199.5 -95.5z" />
    <glyph glyph-name="odieresis" unicode="&#xf6;" horiz-adv-x="1101" 
d="M504 1163h-170v180h170v-180zM780 1163h-170v180h170v-180zM551 -29q-215 0 -351.5 144.5t-136.5 371.5v54q0 219 139 365.5t349 146.5q214 0 350.5 -144t136.5 -368v-54q0 -229 -134.5 -372.5t-352.5 -143.5zM551 133q122 0 199 95.5t77 236.5v94q0 141 -76.5 237.5
t-197.5 96.5q-122 0 -200.5 -96.5t-78.5 -237.5v-94q0 -141 77.5 -236.5t199.5 -95.5z" />
    <glyph glyph-name="divide" unicode="&#xf7;" horiz-adv-x="1177" 
d="M694 979h-211v209h211v-209zM1085 586h-993v182h993v-182zM694 164h-211v211h211v-211z" />
    <glyph glyph-name="oslash" unicode="&#xf8;" horiz-adv-x="1089" 
d="M989 1026l-86 -119q135 -145 135 -366v-54q0 -229 -134.5 -372.5t-352.5 -143.5q-155 0 -277 80l-36 -51h-134l91 123q-132 141 -132 364v54q0 219 139 365.5t349 146.5q150 0 268 -76l35 49h135zM274 559v-94q0 -98 39 -178l402 547q-72 59 -162 59q-122 0 -200.5 -96.5
t-78.5 -237.5zM827 465v94q0 102 -43 186l-403 -548q74 -64 170 -64q122 0 199 95.5t77 236.5z" />
    <glyph glyph-name="ugrave" unicode="&#xf9;" horiz-adv-x="1122" 
d="M629 1153h-162l-158 266h199zM487 -29q-178 0 -274 113t-96 324v616h207v-623q0 -131 52.5 -200.5t151.5 -69.5q108 0 186.5 81.5t78.5 209.5v602h208v-1024h-208v45q3 60 26 109l6 18l-4 6l-28 -41q-48 -76 -129.5 -121t-176.5 -45z" />
    <glyph glyph-name="uacute" unicode="&#xfa;" horiz-adv-x="1122" 
d="M618 1155h-159l106 266h201zM487 -29q-178 0 -274 113t-96 324v616h207v-623q0 -131 52.5 -200.5t151.5 -69.5q108 0 186.5 81.5t78.5 209.5v602h208v-1024h-208v45q3 60 26 109l6 18l-4 6l-28 -41q-48 -76 -129.5 -121t-176.5 -45z" />
    <glyph glyph-name="ucircumflex" unicode="&#xfb;" horiz-adv-x="1122" 
d="M406 1145h-177l217 293h191l215 -293h-174l-129 178h-14zM487 -29q-178 0 -274 113t-96 324v616h207v-623q0 -131 52.5 -200.5t151.5 -69.5q108 0 186.5 81.5t78.5 209.5v602h208v-1024h-208v45q3 60 26 109l6 18l-4 6l-28 -41q-48 -76 -129.5 -121t-176.5 -45z" />
    <glyph glyph-name="udieresis" unicode="&#xfc;" horiz-adv-x="1122" 
d="M492 1163h-170v180h170v-180zM768 1163h-170v180h170v-180zM487 -29q-178 0 -274 113t-96 324v616h207v-623q0 -131 52.5 -200.5t151.5 -69.5q108 0 186.5 81.5t78.5 209.5v602h208v-1024h-208v45q3 60 26 109l6 18l-4 6l-28 -41q-48 -76 -129.5 -121t-176.5 -45z" />
    <glyph glyph-name="yacute" unicode="&#xfd;" horiz-adv-x="1054" 
d="M600 1155h-160l107 266h201zM240 -438q-66 0 -105 10l2 174q41 -8 76 -8q55 0 88.5 29.5t67.5 107.5l53 121l-402 1028h203l299 -788h13l296 788h203l-452 -1137q-37 -91 -67.5 -147t-70.5 -99t-89 -61t-115 -18z" />
    <glyph glyph-name="thorn" unicode="&#xfe;" horiz-adv-x="1128" 
d="M328 -408h-209v1842h209v-488q0 -50 -21 -115l-10 -32l6 -2l25 49q42 99 128.5 154t188.5 55q191 0 308.5 -142.5t117.5 -375.5v-54q0 -223 -118.5 -368.5t-307.5 -145.5q-97 0 -181 53t-126 146h-10v-576zM604 131q107 0 182.5 97t75.5 253v60q0 157 -76.5 253.5
t-185.5 96.5q-118 0 -193 -89.5t-75 -234.5v-110q0 -144 77 -235t195 -91z" />
    <glyph glyph-name="ydieresis" unicode="&#xff;" horiz-adv-x="1054" 
d="M473 1163h-170v180h170v-180zM750 1163h-170v180h170v-180zM240 -438q-66 0 -105 10l2 174q41 -8 76 -8q55 0 88.5 29.5t67.5 107.5l53 121l-402 1028h203l299 -788h13l296 788h203l-452 -1137q-37 -91 -67.5 -147t-70.5 -99t-89 -61t-115 -18z" />
    <glyph glyph-name="Amacron" unicode="&#x100;" horiz-adv-x="1413" 
d="M1008 1565h-600v139h600v-139zM236 0h-211l555 1434h254l555 -1434h-211l-148 377h-647zM700 1210l-249 -655h512l-250 655h-13z" />
    <glyph glyph-name="amacron" unicode="&#x101;" horiz-adv-x="1085" 
d="M842 1155h-600v139h600v-139zM410 -29q-152 0 -247 81.5t-95 209.5q0 141 89 218.5t253 105.5l278 49q60 9 60 53v14q0 73 -60 122.5t-151 49.5q-82 0 -143 -38t-81 -107h-211q22 140 142 232t299 92q189 0 305.5 -93t116.5 -249v-711h-197v47q0 59 23 115l14 33l-2 2
l-35 -56q-53 -83 -151.5 -126.5t-206.5 -43.5zM465 135q113 0 198 61.5t85 153.5v150l-291 -51q-93 -18 -138 -59t-45 -114q0 -63 53.5 -102t137.5 -39z" />
    <glyph glyph-name="Abreve" unicode="&#x102;" horiz-adv-x="1413" 
d="M707 1524q-141 0 -226.5 73.5t-91.5 206.5h148q6 -73 52.5 -116t117.5 -43t118 43t54 116h147q-7 -133 -92.5 -206.5t-226.5 -73.5zM236 0h-211l555 1434h254l555 -1434h-211l-148 377h-647zM700 1210l-249 -655h512l-250 655h-13z" />
    <glyph glyph-name="abreve" unicode="&#x103;" horiz-adv-x="1085" 
d="M541 1120q-141 0 -227 73t-93 206h148q7 -72 54 -115t118 -43t117.5 43t52.5 115h147q-6 -133 -91 -206t-226 -73zM410 -29q-152 0 -247 81.5t-95 209.5q0 141 89 218.5t253 105.5l278 49q60 9 60 53v14q0 73 -60 122.5t-151 49.5q-82 0 -143 -38t-81 -107h-211
q22 140 142 232t299 92q189 0 305.5 -93t116.5 -249v-711h-197v47q0 59 23 115l14 33l-2 2l-35 -56q-53 -83 -151.5 -126.5t-206.5 -43.5zM465 135q113 0 198 61.5t85 153.5v150l-291 -51q-93 -18 -138 -59t-45 -114q0 -63 53.5 -102t137.5 -39z" />
    <glyph glyph-name="Aogonek" unicode="&#x104;" horiz-adv-x="1413" 
d="M1253 -174q5 -81 144 -59v-127q-66 -17 -142 -17q-70 2 -119 41.5t-49 106.5q0 60 35 123t88 106h-32l-148 377h-647l-147 -377h-211l555 1434h254l555 -1434h-23q-61 -61 -87.5 -99.5t-25.5 -74.5zM700 1210l-249 -655h512l-250 655h-13z" />
    <glyph glyph-name="aogonek" unicode="&#x105;" horiz-adv-x="1062" 
d="M848 -174q2 -81 141 -59v-127q-66 -17 -139 -17q-71 2 -119.5 41t-48.5 107q0 60 35 123t88 106h-37v47q0 59 23 115l14 33l-2 2l-35 -56q-53 -83 -151.5 -126.5t-206.5 -43.5q-152 0 -247 81.5t-95 209.5q0 141 89 218.5t253 105.5l278 49q60 9 60 53v14q0 73 -60 122.5
t-151 49.5q-82 0 -143 -38t-81 -107h-211q22 140 142 232t299 92q189 0 305.5 -93t116.5 -249v-711h-7q-61 -61 -87 -99.5t-23 -74.5zM748 350v150l-291 -51q-93 -18 -138 -59t-45 -114q0 -63 53.5 -102t137.5 -39q113 0 198 61.5t85 153.5z" />
    <glyph glyph-name="Cacute" unicode="&#x106;" horiz-adv-x="1343" 
d="M776 1565h-160l109 266h199zM692 -29q-133 0 -242 43t-181.5 114t-122 167t-71.5 199t-22 213v18q0 107 22 209t71.5 198.5t122 169t181.5 116.5t242 44q167 0 301 -65.5t210 -175t89 -244.5h-213q-18 135 -123 220.5t-264 84.5q-91 0 -165.5 -34t-122.5 -89t-81 -128.5
t-47 -149.5t-14 -154v-22q0 -82 14 -158.5t47 -149t81.5 -126.5t122.5 -86.5t165 -32.5q161 -1 267.5 84.5t121.5 222.5h213q-19 -209 -184.5 -348.5t-417.5 -139.5z" />
    <glyph glyph-name="cacute" unicode="&#x107;" horiz-adv-x="1089" 
d="M625 1155h-160l106 266h201zM555 -29q-215 0 -353.5 144t-138.5 370v58q0 218 140.5 364t351.5 146q201 0 333 -115t140 -295h-209q-6 112 -81.5 181t-180.5 69q-120 0 -201.5 -93t-81.5 -239v-100q0 -143 80.5 -235.5t200.5 -92.5q106 0 182 69t82 181h209
q-7 -184 -138 -298t-335 -114z" />
    <glyph glyph-name="Cdotaccent" unicode="&#x10a;" horiz-adv-x="1343" 
d="M774 1563h-178v188h178v-188zM692 -29q-133 0 -242 43t-181.5 114t-122 167t-71.5 199t-22 213v18q0 107 22 209t71.5 198.5t122 169t181.5 116.5t242 44q167 0 301 -65.5t210 -175t89 -244.5h-213q-18 135 -123 220.5t-264 84.5q-91 0 -165.5 -34t-122.5 -89t-81 -128.5
t-47 -149.5t-14 -154v-22q0 -82 14 -158.5t47 -149t81.5 -126.5t122.5 -86.5t165 -32.5q161 -1 267.5 84.5t121.5 222.5h213q-19 -209 -184.5 -348.5t-417.5 -139.5z" />
    <glyph glyph-name="cdotaccent" unicode="&#x10b;" horiz-adv-x="1089" 
d="M637 1155h-178v188h178v-188zM555 -29q-215 0 -353.5 144t-138.5 370v58q0 218 140.5 364t351.5 146q201 0 333 -115t140 -295h-209q-6 112 -81.5 181t-180.5 69q-120 0 -201.5 -93t-81.5 -239v-100q0 -143 80.5 -235.5t200.5 -92.5q106 0 182 69t82 181h209
q-7 -184 -138 -298t-335 -114z" />
    <glyph glyph-name="Ccaron" unicode="&#x10c;" horiz-adv-x="1343" 
d="M782 1546h-190l-217 291h176l129 -176h14l129 176h174zM692 -29q-133 0 -242 43t-181.5 114t-122 167t-71.5 199t-22 213v18q0 107 22 209t71.5 198.5t122 169t181.5 116.5t242 44q167 0 301 -65.5t210 -175t89 -244.5h-213q-18 135 -123 220.5t-264 84.5
q-91 0 -165.5 -34t-122.5 -89t-81 -128.5t-47 -149.5t-14 -154v-22q0 -82 14 -158.5t47 -149t81.5 -126.5t122.5 -86.5t165 -32.5q161 -1 267.5 84.5t121.5 222.5h213q-19 -209 -184.5 -348.5t-417.5 -139.5z" />
    <glyph glyph-name="ccaron" unicode="&#x10d;" horiz-adv-x="1089" 
d="M643 1135h-190l-217 292h176l129 -178h14l129 178h174zM555 -29q-215 0 -353.5 144t-138.5 370v58q0 218 140.5 364t351.5 146q201 0 333 -115t140 -295h-209q-6 112 -81.5 181t-180.5 69q-120 0 -201.5 -93t-81.5 -239v-100q0 -143 80.5 -235.5t200.5 -92.5
q106 0 182 69t82 181h209q-7 -184 -138 -298t-335 -114z" />
    <glyph glyph-name="Dcaron" unicode="&#x10e;" horiz-adv-x="1359" 
d="M741 1546h-190l-217 291h176l129 -176h14l129 176h174zM670 0h-535v1434h535q288 0 464.5 -198t176.5 -519t-176.5 -519t-464.5 -198zM344 1253v-1073h287q219 0 345 144.5t126 392.5q0 250 -125 393t-346 143h-287z" />
    <glyph glyph-name="dcaron" unicode="&#x10f;" horiz-adv-x="1273" 
d="M485 -29q-189 0 -307.5 145t-118.5 369v52q0 233 117 375.5t309 142.5q98 0 183.5 -51t128.5 -144h6v574h207v-1432h-207v76q0 49 22 139l6 19l-2 2l-26 -58q-43 -98 -130 -153.5t-188 -55.5zM1219 1083h-123v351h153zM526 131q118 0 194.5 91t76.5 235v112
q0 145 -75 234.5t-192 89.5q-109 0 -185.5 -97t-76.5 -253v-60q0 -156 75.5 -254t182.5 -98z" />
    <glyph glyph-name="Dcroat" unicode="&#x110;" horiz-adv-x="1386" 
d="M670 0h-535v641h-94v170h94v623h535q288 0 464.5 -198t176.5 -519t-176.5 -519t-464.5 -198zM344 641v-461h287q219 0 345 144.5t126 392.5q0 250 -125 393t-346 143h-287v-442h299v-170h-299z" />
    <glyph glyph-name="dcroat" unicode="&#x111;" horiz-adv-x="1130" 
d="M485 -29q-192 0 -309 142.5t-117 375.5v52q0 224 118.5 369t307.5 145q101 0 188 -55.5t130 -153.5l26 -58l5 5l-15 47q-16 60 -16 125v182h-301v153h301v134h207v-134h84v-153h-84v-1145h-207v164h-10q-43 -93 -126.5 -144t-181.5 -51zM530 133q117 0 192 89.5t75 234.5
v112q0 144 -76.5 235t-194.5 91q-107 0 -182.5 -98t-75.5 -254v-60q0 -156 76.5 -253t185.5 -97z" />
    <glyph glyph-name="Emacron" unicode="&#x112;" horiz-adv-x="1253" 
d="M967 1565h-600v139h600v-139zM1157 0h-1022v1434h1022v-181h-813v-436h746v-178h-746v-459h813v-180z" />
    <glyph glyph-name="emacron" unicode="&#x113;" horiz-adv-x="1101" 
d="M854 1155h-600v139h600v-139zM553 -29q-216 0 -353 144t-137 370v58q0 219 139 364.5t351 145.5q215 0 351 -142.5t136 -367.5v-70h-766v-16q0 -140 78 -232t201 -92q90 0 159 54.5t101 150.5h209q-38 -169 -164 -268t-305 -99zM276 616h553q-17 123 -93 200t-181 77
q-107 0 -184.5 -76.5t-94.5 -200.5z" />
    <glyph glyph-name="Edotaccent" unicode="&#x116;" horiz-adv-x="1253" 
d="M756 1563h-178v188h178v-188zM1157 0h-1022v1434h1022v-181h-813v-436h746v-178h-746v-459h813v-180z" />
    <glyph glyph-name="edotaccent" unicode="&#x117;" horiz-adv-x="1101" 
d="M643 1155h-178v188h178v-188zM553 -29q-216 0 -353 144t-137 370v58q0 219 139 364.5t351 145.5q215 0 351 -142.5t136 -367.5v-70h-766v-16q0 -140 78 -232t201 -92q90 0 159 54.5t101 150.5h209q-38 -169 -164 -268t-305 -99zM276 616h553q-17 123 -93 200t-181 77
q-107 0 -184.5 -76.5t-94.5 -200.5z" />
    <glyph glyph-name="Eogonek" unicode="&#x118;" horiz-adv-x="1142" 
d="M1157 1434v-181h-813v-436h746v-178h-746v-459h813v-180h-147q-61 -61 -87.5 -99.5t-25.5 -74.5q5 -81 143 -59v-127q-66 -17 -139 -17q-71 2 -120.5 41.5t-49.5 106.5q0 60 35.5 123.5t89.5 105.5h-721v1434h1022z" />
    <glyph glyph-name="eogonek" unicode="&#x119;" horiz-adv-x="1091" 
d="M1040 543v-70h-766v-16q0 -140 78 -232t201 -92q90 0 159 54.5t101 150.5h209q-34 -152 -139 -247.5t-258 -115.5q-57 -57 -81.5 -93t-21.5 -72q3 -43 46 -56t98 -2v-127q-63 -19 -142 -16q-71 0 -119.5 39t-48.5 108q0 57 32 118t83 103q-184 28 -296 166.5t-112 341.5
v58q0 219 139 364.5t351 145.5q215 0 351 -142.5t136 -367.5zM555 893q-107 0 -184.5 -76.5t-94.5 -200.5h553q-17 123 -93 200t-181 77z" />
    <glyph glyph-name="Ecaron" unicode="&#x11a;" horiz-adv-x="1253" 
d="M762 1546h-191l-217 291h176l129 -176h15l129 176h174zM1157 0h-1022v1434h1022v-181h-813v-436h746v-178h-746v-459h813v-180z" />
    <glyph glyph-name="ecaron" unicode="&#x11b;" horiz-adv-x="1101" 
d="M649 1135h-190l-217 292h176l129 -178h14l129 178h174zM553 -29q-216 0 -353 144t-137 370v58q0 219 139 364.5t351 145.5q215 0 351 -142.5t136 -367.5v-70h-766v-16q0 -140 78 -232t201 -92q90 0 159 54.5t101 150.5h209q-38 -169 -164 -268t-305 -99zM276 616h553
q-17 123 -93 200t-181 77q-107 0 -184.5 -76.5t-94.5 -200.5z" />
    <glyph glyph-name="Gbreve" unicode="&#x11e;" horiz-adv-x="1392" 
d="M684 1524q-141 0 -226 73.5t-91 206.5h147q6 -73 52.5 -116t117.5 -43t118 43t54 116h148q-7 -133 -93 -206.5t-227 -73.5zM666 -27q-128 0 -232.5 43t-174 114t-117 167t-68.5 198.5t-21 211.5v18q0 107 22 209t71.5 198.5t122 169t181.5 116.5t242 44
q253 0 420.5 -145.5t185.5 -360.5h-211q-14 140 -126.5 233.5t-268.5 92.5q-76 0 -141 -23.5t-111 -64.5t-81 -94.5t-56 -116.5t-31 -126t-10 -128v-24q0 -81 14 -157.5t47 -148.5t81.5 -126t122.5 -86.5t165 -32.5q124 -1 216.5 58.5t138 155t45.5 210.5v8h-357v180h565
v-766h-182v133q0 66 21 125l18 55l-6 4l-31 -65q-121 -279 -454 -279z" />
    <glyph glyph-name="gbreve" unicode="&#x11f;" horiz-adv-x="1134" 
d="M561 1120q-141 0 -226.5 73t-92.5 206h147q7 -72 54 -115t118 -43t117.5 43t52.5 115h148q-6 -133 -91 -206t-227 -73zM549 -438q-166 0 -289 76.5t-158 191.5l193 35q26 -66 95.5 -106t156.5 -40q113 0 186.5 66.5t73.5 167.5v207h-6q-43 -92 -127 -140.5t-185 -48.5
q-191 0 -308.5 142.5t-117.5 375.5v52q0 224 119 369t307 145q102 0 191 -55.5t127 -153.5l27 -58l4 3l-13 47q-15 50 -18 108v78h207v-1061q0 -180 -129 -290.5t-336 -110.5zM535 133q118 0 193 89.5t75 234.5v112q0 144 -77.5 235t-195.5 91q-107 0 -182.5 -98t-75.5 -254
v-60q0 -155 77 -252.5t186 -97.5z" />
    <glyph glyph-name="Gdotaccent" unicode="&#x120;" horiz-adv-x="1392" 
d="M774 1563h-178v188h178v-188zM666 -27q-128 0 -232.5 43t-174 114t-117 167t-68.5 198.5t-21 211.5v18q0 107 22 209t71.5 198.5t122 169t181.5 116.5t242 44q253 0 420.5 -145.5t185.5 -360.5h-211q-14 140 -126.5 233.5t-268.5 92.5q-76 0 -141 -23.5t-111 -64.5
t-81 -94.5t-56 -116.5t-31 -126t-10 -128v-24q0 -81 14 -157.5t47 -148.5t81.5 -126t122.5 -86.5t165 -32.5q124 -1 216.5 58.5t138 155t45.5 210.5v8h-357v180h565v-766h-182v133q0 66 21 125l18 55l-6 4l-31 -65q-121 -279 -454 -279z" />
    <glyph glyph-name="gdotaccent" unicode="&#x121;" horiz-adv-x="1134" 
d="M651 1155h-178v188h178v-188zM549 -438q-166 0 -289 76.5t-158 191.5l193 35q26 -66 95.5 -106t156.5 -40q113 0 186.5 66.5t73.5 167.5v207h-6q-43 -92 -127 -140.5t-185 -48.5q-191 0 -308.5 142.5t-117.5 375.5v52q0 224 119 369t307 145q102 0 191 -55.5t127 -153.5
l27 -58l4 3l-13 47q-15 50 -18 108v78h207v-1061q0 -180 -129 -290.5t-336 -110.5zM535 133q118 0 193 89.5t75 234.5v112q0 144 -77.5 235t-195.5 91q-107 0 -182.5 -98t-75.5 -254v-60q0 -155 77 -252.5t186 -97.5z" />
    <glyph glyph-name="uni0122" unicode="&#x122;" horiz-adv-x="1470" 
d="M666 -27q-128 0 -232.5 43t-174 114t-117 167t-68.5 198.5t-21 211.5v18q0 107 22 209t71.5 198.5t122 169t181.5 116.5t242 44q253 0 420.5 -145.5t185.5 -360.5h-211q-14 140 -126.5 233.5t-268.5 92.5q-76 0 -141 -23.5t-111 -64.5t-81 -94.5t-56 -116.5t-31 -126
t-10 -128v-24q0 -81 14 -157.5t47 -148.5t81.5 -126t122.5 -86.5t165 -32.5q124 -1 216.5 58.5t138 155t45.5 210.5v8h-357v180h565v-766h-182v133q0 66 21 125l18 55l-6 4l-31 -65q-121 -279 -454 -279zM760 -414h-137l43 318h174z" />
    <glyph glyph-name="uni0123" unicode="&#x123;" horiz-adv-x="1134" 
d="M575 1149h-137l43 317h172zM549 -438q-166 0 -289 76.5t-158 191.5l193 35q26 -66 95.5 -106t156.5 -40q113 0 186.5 66.5t73.5 167.5v207h-6q-43 -92 -127 -140.5t-185 -48.5q-191 0 -308.5 142.5t-117.5 375.5v52q0 224 119 369t307 145q102 0 191 -55.5t127 -153.5
l27 -58l4 3l-13 47q-15 50 -18 108v78h207v-1061q0 -180 -129 -290.5t-336 -110.5zM535 133q118 0 193 89.5t75 234.5v112q0 144 -77.5 235t-195.5 91q-107 0 -182.5 -98t-75.5 -254v-60q0 -155 77 -252.5t186 -97.5z" />
    <glyph glyph-name="Hbar" unicode="&#x126;" horiz-adv-x="1396" 
d="M342 0h-207v1036h-104v154h104v244h207v-244h713v244h205v-244h104v-154h-104v-1036h-205v641h-713v-641zM342 1036v-215h713v215h-713z" />
    <glyph glyph-name="hbar" unicode="&#x127;" horiz-adv-x="1124" 
d="M328 0h-209v1147h-84v153h84v134h209v-134h274v-153h-274v-152q0 -64 -25 -127l-10 -20l4 -2l31 41q48 76 129.5 121t175.5 45q179 0 276 -113.5t97 -323.5v-616h-209v623q0 131 -52.5 200.5t-152.5 69.5q-108 0 -186 -81.5t-78 -209.5v-602z" />
    <glyph glyph-name="Imacron" unicode="&#x12a;" horiz-adv-x="481" 
d="M541 1565h-600v139h600v-139zM344 0h-209v1434h209v-1434z" />
    <glyph glyph-name="imacron" unicode="&#x12b;" horiz-adv-x="385" 
d="M494 1155h-600v139h600v-139zM289 0h-191v1024h191v-1024z" />
    <glyph glyph-name="Iogonek" unicode="&#x12e;" horiz-adv-x="481" 
d="M219 -174q5 -81 143 -59v-127q-66 -17 -139 -17q-71 2 -120.5 41.5t-49.5 106.5q0 60 35.5 123.5t89.5 105.5h-43v1434h209v-1434h-12q-61 -61 -87.5 -99.5t-25.5 -74.5z" />
    <glyph glyph-name="iogonek" unicode="&#x12f;" horiz-adv-x="385" 
d="M104 1343h179v-188h-179v188zM164 -174q2 -81 141 -59v-127q-66 -17 -139 -17q-71 2 -119.5 41t-48.5 107q0 60 35 123t88 106h-23v1024h191v-1024h-15q-61 -61 -87 -99.5t-23 -74.5z" />
    <glyph glyph-name="Idotaccent" unicode="&#x130;" horiz-adv-x="481" 
d="M328 1563h-178v188h178v-188zM344 0h-209v1434h209v-1434z" />
    <glyph glyph-name="dotlessi" unicode="&#x131;" horiz-adv-x="385" 
d="M289 0h-191v1024h191v-1024z" />
    <glyph glyph-name="uni0136" unicode="&#x136;" horiz-adv-x="1212" 
d="M344 0h-209v1434h209v-689h10l602 689h244l-625 -713l625 -725h-244l-602 700h-10v-696zM637 -414h-135l41 318h174z" />
    <glyph glyph-name="uni0137" unicode="&#x137;" horiz-adv-x="1050" 
d="M328 0h-207v1434h207v-883h10l455 471h231l-483 -496l483 -526h-231l-455 500h-10v-500zM547 -414h-135l41 318h174z" />
    <glyph glyph-name="Lacute" unicode="&#x139;" horiz-adv-x="1163" 
d="M1124 0h-989v1434h209v-1254h780v-180zM737 1167h-159l108 267h199z" />
    <glyph glyph-name="lacute" unicode="&#x13a;" horiz-adv-x="448" 
d="M303 1565h-160l107 266h201zM328 0h-207v1434h207v-1434z" />
    <glyph glyph-name="uni013B" unicode="&#x13b;" horiz-adv-x="1163" 
d="M1124 0h-989v1434h209v-1254h780v-180zM645 -414h-137l41 318h174z" />
    <glyph glyph-name="uni013C" unicode="&#x13c;" horiz-adv-x="448" 
d="M328 0h-207v1434h207v-1434zM231 -414h-137l41 318h174z" />
    <glyph glyph-name="Lcaron" unicode="&#x13d;" horiz-adv-x="1163" 
d="M1124 0h-989v1434h209v-1254h780v-180zM690 1083h-123v351h154z" />
    <glyph glyph-name="lcaron" unicode="&#x13e;" horiz-adv-x="448" 
d="M319 1544h-190l-217 293h176l129 -178h14l129 178h175zM328 0h-207v1434h207v-1434z" />
    <glyph glyph-name="Lslash" unicode="&#x141;" horiz-adv-x="1163" 
d="M1124 0h-989v588l-129 -72v172l129 72v674h209v-557l375 206v-172l-375 -206v-525h780v-180z" />
    <glyph glyph-name="lslash" unicode="&#x142;" horiz-adv-x="446" 
d="M326 0h-207v608l-139 -86v172l139 86v654h207v-535l141 86v-172l-141 -86v-727z" />
    <glyph glyph-name="Nacute" unicode="&#x143;" horiz-adv-x="1390" 
d="M786 1565h-159l108 266h199zM344 0h-209v1434h236l665 -1100h11v1100h206v-1434h-233l-666 1100h-10v-1100z" />
    <glyph glyph-name="nacute" unicode="&#x144;" horiz-adv-x="1116" 
d="M651 1155h-159l106 266h201zM328 0h-207v1024h207v-41q0 -53 -25 -113l-8 -20l4 -4l29 41q51 77 131.5 121.5t175.5 44.5q179 0 275 -113t96 -324v-616h-209v623q0 132 -54.5 201t-160.5 69q-107 0 -180.5 -81t-73.5 -210v-602z" />
    <glyph glyph-name="uni0145" unicode="&#x145;" horiz-adv-x="1390" 
d="M344 0h-209v1434h236l665 -1100h11v1100h206v-1434h-233l-666 1100h-10v-1100zM727 -414h-137l41 318h174z" />
    <glyph glyph-name="uni0146" unicode="&#x146;" horiz-adv-x="1116" 
d="M328 0h-207v1024h207v-41q0 -53 -25 -113l-8 -20l4 -4l29 41q51 77 131.5 121.5t175.5 44.5q179 0 275 -113t96 -324v-616h-209v623q0 132 -54.5 201t-160.5 69q-107 0 -180.5 -81t-73.5 -210v-602zM586 -414h-137l43 318h174z" />
    <glyph glyph-name="Ncaron" unicode="&#x147;" horiz-adv-x="1390" 
d="M793 1546h-191l-217 291h176l129 -176h15l129 176h174zM344 0h-209v1434h236l665 -1100h11v1100h206v-1434h-233l-666 1100h-10v-1100z" />
    <glyph glyph-name="ncaron" unicode="&#x148;" horiz-adv-x="1116" 
d="M668 1135h-191l-217 292h176l129 -178h15l129 178h174zM328 0h-207v1024h207v-41q0 -53 -25 -113l-8 -20l4 -4l29 41q51 77 131.5 121.5t175.5 44.5q179 0 275 -113t96 -324v-616h-209v623q0 132 -54.5 201t-160.5 69q-107 0 -180.5 -81t-73.5 -210v-602z" />
    <glyph glyph-name="Eng" unicode="&#x14a;" horiz-adv-x="1390" 
d="M825 -432v147q62 3 106 18.5t69 41t39 60t15.5 76t-1.5 89.5h-33l-666 1100h-10v-1100h-209v1434h236l665 -1100h11v1100h206v-1434q1 -118 -17.5 -194t-67 -130.5t-131.5 -79t-212 -28.5z" />
    <glyph glyph-name="eng" unicode="&#x14b;" horiz-adv-x="1124" 
d="M635 -432v153q96 6 129 65.5t33 213.5v623q0 132 -54.5 201t-162.5 69q-107 0 -179.5 -81t-72.5 -210v-602h-209v1024h209v-43q0 -44 -25 -111l-10 -20l6 -4l29 41q48 76 129.5 121t175.5 45q179 0 276 -113.5t97 -323.5v-616q0 -232 -81 -331.5t-290 -100.5z" />
    <glyph glyph-name="Omacron" unicode="&#x14c;" horiz-adv-x="1380" 
d="M991 1565h-600v139h600v-139zM692 -29q-133 0 -242 43t-181.5 114t-122 167t-71.5 199t-22 213v18q0 107 22 209t71.5 198.5t122 169t181.5 116.5t242 44t242 -44t180.5 -116t120 -169t69.5 -199t21 -209v-18q0 -110 -21 -212.5t-69.5 -199t-120 -167.5t-180 -114
t-242.5 -43zM692 152q90 -1 163.5 31.5t122 86.5t81 126.5t47 149.5t14.5 159v22q0 78 -14.5 154t-47 149.5t-81 129t-122 89.5t-163.5 33q-91 0 -165.5 -34t-122.5 -89t-81 -128.5t-47 -149.5t-14 -154v-22q0 -82 14 -158.5t47 -149t81.5 -126.5t122.5 -86.5t165 -32.5z
" />
    <glyph glyph-name="omacron" unicode="&#x14d;" horiz-adv-x="1101" 
d="M852 1155h-600v139h600v-139zM551 -29q-215 0 -351.5 144.5t-136.5 371.5v54q0 219 139 365.5t349 146.5q214 0 350.5 -144t136.5 -368v-54q0 -229 -134.5 -372.5t-352.5 -143.5zM551 133q122 0 199 95.5t77 236.5v94q0 141 -76.5 237.5t-197.5 96.5q-122 0 -200.5 -96.5
t-78.5 -237.5v-94q0 -141 77.5 -236.5t199.5 -95.5z" />
    <glyph glyph-name="Ohungarumlaut" unicode="&#x150;" horiz-adv-x="1380" 
d="M557 1565h-123l107 266h170zM899 1565h-123l107 266h170zM692 -29q-133 0 -242 43t-181.5 114t-122 167t-71.5 199t-22 213v18q0 107 22 209t71.5 198.5t122 169t181.5 116.5t242 44t242 -44t180.5 -116t120 -169t69.5 -199t21 -209v-18q0 -110 -21 -212.5t-69.5 -199
t-120 -167.5t-180 -114t-242.5 -43zM692 152q90 -1 163.5 31.5t122 86.5t81 126.5t47 149.5t14.5 159v22q0 78 -14.5 154t-47 149.5t-81 129t-122 89.5t-163.5 33q-91 0 -165.5 -34t-122.5 -89t-81 -128.5t-47 -149.5t-14 -154v-22q0 -82 14 -158.5t47 -149t81.5 -126.5
t122.5 -86.5t165 -32.5z" />
    <glyph glyph-name="ohungarumlaut" unicode="&#x151;" horiz-adv-x="1101" 
d="M426 1153h-123l107 266h170zM768 1153h-123l107 266h170zM551 -29q-215 0 -351.5 144.5t-136.5 371.5v54q0 219 139 365.5t349 146.5q214 0 350.5 -144t136.5 -368v-54q0 -229 -134.5 -372.5t-352.5 -143.5zM551 133q122 0 199 95.5t77 236.5v94q0 141 -76.5 237.5
t-197.5 96.5q-122 0 -200.5 -96.5t-78.5 -237.5v-94q0 -141 77.5 -236.5t199.5 -95.5z" />
    <glyph glyph-name="OE" unicode="&#x152;" horiz-adv-x="2236" 
d="M692 -29q-133 0 -242 43t-181.5 114t-122 167t-71.5 199t-22 213v18q0 107 22 209t71.5 198.5t122 169t181.5 116.5t242 44q316 0 477 -252v224h981v-181h-772v-436h705v-178h-705v-459h772v-180h-981v217q-162 -246 -477 -246zM692 152q90 -1 163.5 31.5t122 86.5
t81 126.5t47 149.5t14.5 159v22q0 78 -14.5 154t-47 149.5t-81 129t-122 89.5t-163.5 33q-91 0 -165.5 -34t-122.5 -89t-81 -128.5t-47 -149.5t-14 -154v-22q0 -82 14 -158.5t47 -149t81.5 -126.5t122.5 -86.5t165 -32.5z" />
    <glyph glyph-name="oe" unicode="&#x153;" horiz-adv-x="1884" 
d="M547 -29q-215 0 -351.5 144.5t-136.5 371.5v54q0 219 139 365.5t349 146.5q128 0 231 -59.5t164 -164.5q63 103 167 163.5t228 60.5q216 0 353 -142.5t137 -367.5v-70h-766v-16q0 -140 77 -232t199 -92q91 0 160 54.5t100 150.5h211q-38 -169 -164 -268t-307 -99
q-127 0 -230.5 59.5t-164.5 162.5q-61 -103 -164 -162.5t-231 -59.5zM547 133q122 0 199 95.5t77 236.5v94q0 141 -77.5 237.5t-198.5 96.5q-122 0 -200.5 -96.5t-78.5 -237.5v-94q0 -141 77.5 -236.5t201.5 -95.5zM1063 616h551q-15 123 -91.5 200t-183.5 77
q-106 0 -182.5 -76.5t-93.5 -200.5z" />
    <glyph glyph-name="Racute" unicode="&#x154;" horiz-adv-x="1288" 
d="M719 1565h-160l109 266h198zM344 0h-209v1434h602q231 0 352 -104.5t121 -313.5q0 -166 -79.5 -267.5t-229.5 -130.5l297 -618h-211l-287 596h-356v-596zM344 1253v-477h385q272 0 272 240q0 124 -68 180.5t-204 56.5h-385z" />
    <glyph glyph-name="racute" unicode="&#x155;" horiz-adv-x="712" 
d="M481 1155h-159l106 266h201zM328 0h-207v1024h207v-43q0 -66 -21 -125l-10 -27l4 -2l27 43q58 106 166 152q66 24 131 29l61 2v-193h-94q-88 0 -149.5 -46.5t-88 -116.5t-26.5 -156v-541z" />
    <glyph glyph-name="uni0156" unicode="&#x156;" horiz-adv-x="1292" 
d="M344 0h-209v1434h602q231 0 352 -104.5t121 -313.5q0 -166 -79.5 -267.5t-229.5 -130.5l297 -618h-211l-287 596h-356v-596zM344 1253v-477h385q272 0 272 240q0 124 -68 180.5t-204 56.5h-385zM649 -414h-135l41 318h174z" />
    <glyph glyph-name="uni0157" unicode="&#x157;" horiz-adv-x="698" 
d="M328 0h-207v1024h207v-43q0 -66 -21 -125l-10 -27l4 -2l27 43q58 106 166 152q66 24 131 29l61 2v-193h-94q-88 0 -149.5 -46.5t-88 -116.5t-26.5 -156v-541zM227 -414h-137l41 318h174z" />
    <glyph glyph-name="Rcaron" unicode="&#x158;" horiz-adv-x="1288" 
d="M725 1546h-190l-218 291h177l129 -176h14l129 176h174zM344 0h-209v1434h602q231 0 352 -104.5t121 -313.5q0 -166 -79.5 -267.5t-229.5 -130.5l297 -618h-211l-287 596h-356v-596zM344 1253v-477h385q272 0 272 240q0 124 -68 180.5t-204 56.5h-385z" />
    <glyph glyph-name="rcaron" unicode="&#x159;" horiz-adv-x="712" 
d="M498 1135h-191l-217 292h176l129 -178h15l129 178h174zM328 0h-207v1024h207v-43q0 -66 -21 -125l-10 -27l4 -2l27 43q58 106 166 152q66 24 131 29l61 2v-193h-94q-88 0 -149.5 -46.5t-88 -116.5t-26.5 -156v-541z" />
    <glyph glyph-name="Sacute" unicode="&#x15a;" horiz-adv-x="1236" 
d="M709 1565h-160l108 266h199zM627 -29q-255 0 -400 112t-157 314h209q12 -128 102 -192t246 -64q151 0 241 66t90 180q0 85 -71.5 141.5t-235.5 102.5l-108 31q-235 68 -342 162t-107 237q0 182 143 291.5t384 109.5q239 0 371.5 -104.5t146.5 -298.5h-209
q-10 109 -92.5 171t-214.5 62q-148 0 -234 -57.5t-86 -157.5q0 -85 67.5 -143.5t229.5 -104.5l109 -30q241 -70 349.5 -162.5t108.5 -235.5q0 -198 -145 -314t-395 -116z" />
    <glyph glyph-name="sacute" unicode="&#x15b;" horiz-adv-x="1001" 
d="M588 1155h-160l107 266h200zM504 -29q-191 0 -309.5 76t-131.5 209h220q17 -60 74.5 -93.5t146.5 -33.5q98 0 161.5 41.5t63.5 105.5q0 53 -41.5 85t-148.5 55l-168 35q-145 31 -216 102t-71 186q0 145 113 229.5t305 84.5q183 0 292.5 -75t118.5 -208h-208
q-12 59 -66 92t-137 33q-90 0 -149.5 -37.5t-59.5 -105.5q0 -58 40 -87t144 -53l168 -32q148 -31 223.5 -103.5t75.5 -181.5q0 -149 -119.5 -236.5t-320.5 -87.5z" />
    <glyph glyph-name="Scedilla" unicode="&#x15e;" horiz-adv-x="1236" 
d="M1167 401q0 -188 -131 -303t-358 -125l-21 -61q63 -11 104 -55t34 -109q-7 -64 -53 -96.5t-113 -32.5q-83 0 -154 31l27 92l96 -14q2 1 13 -0.5t26.5 6.5t19.5 24q8 28 -18 41q-9 4 -113 21l43 153q-229 12 -358 123t-141 301h209q12 -128 102 -192t246 -64q151 0 241 66
t90 180q0 85 -71.5 141.5t-235.5 102.5l-108 31q-235 68 -342 162t-107 237q0 182 143 291.5t384 109.5q239 0 371.5 -104.5t146.5 -298.5h-209q-10 109 -92.5 171t-214.5 62q-148 0 -234 -57.5t-86 -157.5q0 -85 67.5 -143.5t229.5 -104.5l109 -30q241 -70 349.5 -162.5
t108.5 -235.5z" />
    <glyph glyph-name="scedilla" unicode="&#x15f;" horiz-adv-x="1001" 
d="M944 295q0 -137 -103 -223.5t-278 -98.5l-18 -57q63 -11 103.5 -55t33.5 -109q-7 -64 -53 -96.5t-113 -32.5q-83 0 -154 31l27 92l96 -14q2 1 13 -0.5t27 6.5t20 24q8 27 -19 41q-9 5 -112 21l41 149q-170 9 -275 84t-117 199h220q17 -60 74.5 -93.5t146.5 -33.5
q98 0 161.5 41.5t63.5 105.5q0 53 -41.5 85t-148.5 55l-168 35q-145 31 -216 102t-71 186q0 145 113 229.5t305 84.5q183 0 292.5 -75t118.5 -208h-208q-12 59 -66 92t-137 33q-90 0 -149.5 -37.5t-59.5 -105.5q0 -58 40 -87t144 -53l168 -32q148 -31 223.5 -103.5
t75.5 -181.5z" />
    <glyph glyph-name="Scaron" unicode="&#x160;" horiz-adv-x="1236" 
d="M715 1546h-191l-217 291h176l129 -176h15l129 176h174zM627 -29q-255 0 -400 112t-157 314h209q12 -128 102 -192t246 -64q151 0 241 66t90 180q0 85 -71.5 141.5t-235.5 102.5l-108 31q-235 68 -342 162t-107 237q0 182 143 291.5t384 109.5q239 0 371.5 -104.5
t146.5 -298.5h-209q-10 109 -92.5 171t-214.5 62q-148 0 -234 -57.5t-86 -157.5q0 -85 67.5 -143.5t229.5 -104.5l109 -30q241 -70 349.5 -162.5t108.5 -235.5q0 -198 -145 -314t-395 -116z" />
    <glyph glyph-name="scaron" unicode="&#x161;" horiz-adv-x="1001" 
d="M604 1135h-190l-217 292h176l129 -178h14l129 178h174zM504 -29q-191 0 -309.5 76t-131.5 209h220q17 -60 74.5 -93.5t146.5 -33.5q98 0 161.5 41.5t63.5 105.5q0 53 -41.5 85t-148.5 55l-168 35q-145 31 -216 102t-71 186q0 145 113 229.5t305 84.5q183 0 292.5 -75
t118.5 -208h-208q-12 59 -66 92t-137 33q-90 0 -149.5 -37.5t-59.5 -105.5q0 -58 40 -87t144 -53l168 -32q148 -31 223.5 -103.5t75.5 -181.5q0 -149 -119.5 -236.5t-320.5 -87.5z" />
    <glyph glyph-name="uni0162" unicode="&#x162;" horiz-adv-x="1181" 
d="M696 1253l-2 -1253h-43l-18 -63q63 -11 103.5 -56t31.5 -110q-6 -64 -51.5 -95.5t-112.5 -31.5q-68 0 -155 28l28 95l94 -17h15t26 7.5t21 23.5q8 27 -21 41q-3 2 -5.5 3t-7 2.5t-8.5 2t-14 2.5t-18.5 3t-25.5 3.5t-33 5.5l45 156h-58v1253h-450v181h1108v-181h-449z" />
    <glyph glyph-name="uni0163" unicode="&#x163;" horiz-adv-x="663" 
d="M639 154v-168q-106 -19 -182 -11l-13 -36q63 -11 104 -56t34 -110q-7 -64 -52.5 -95.5t-113.5 -31.5q-90 0 -154 28l27 95l96 -17q2 1 13 -0.5t26.5 7t19.5 24.5q8 28 -18 41q-5 2 -113 22l41 150q-53 18 -86 51q-80 77 -80 225v572h-161v180h96q37 0 52 18.5t15 57.5
v157l209 58v-205q0 -64 -45 -82v-4h277v-180h-232v-531q0 -102 57.5 -137.5t182.5 -21.5z" />
    <glyph glyph-name="Tcaron" unicode="&#x164;" horiz-adv-x="1181" 
d="M684 1546h-190l-218 291h177l129 -176h14l129 176h174zM694 0h-207v1253h-450v181h1108v-181h-449z" />
    <glyph glyph-name="tcaron" unicode="&#x165;" horiz-adv-x="706" 
d="M598 1141h-123v350h150zM633 154v-168q-122 -23 -220 -6.5t-151 67.5q-80 77 -80 225v572h-162v180h103q61 0 61 61v172l209 58v-205q0 -64 -45 -82v-4h277v-180h-232v-531q0 -102 57.5 -137.5t182.5 -21.5z" />
    <glyph glyph-name="Tbar" unicode="&#x166;" horiz-adv-x="1185" 
d="M696 0h-207v719h-266v162h266v372h-450v181h1108v-181h-449v-372h267v-162h-267z" />
    <glyph glyph-name="tbar" unicode="&#x167;" horiz-adv-x="663" 
d="M633 154v-168q-122 -23 -220 -6.5t-151 67.5q-80 77 -80 225v287h-162v154h162v131h-162v180h95q69 0 69 84v149l209 58v-205q0 -64 -45 -82v-4h277v-180h-232v-131h232v-154h-232v-246q0 -102 57.5 -137.5t182.5 -21.5z" />
    <glyph glyph-name="Umacron" unicode="&#x16a;" horiz-adv-x="1404" 
d="M1004 1565h-601v139h601v-139zM705 -29q-272 0 -421 172t-149 457v834h209v-850q0 -197 94 -314.5t267 -117.5q169 -1 263.5 118t94.5 314v850h205v-834q0 -188 -61.5 -328t-190 -220.5t-311.5 -80.5z" />
    <glyph glyph-name="umacron" unicode="&#x16b;" horiz-adv-x="1122" 
d="M840 1155h-600v139h600v-139zM487 -29q-178 0 -274 113t-96 324v616h207v-623q0 -131 52.5 -200.5t151.5 -69.5q108 0 186.5 81.5t78.5 209.5v602h208v-1024h-208v45q3 60 26 109l6 18l-4 6l-28 -41q-48 -76 -129.5 -121t-176.5 -45z" />
    <glyph glyph-name="Uring" unicode="&#x16e;" horiz-adv-x="1404" 
d="M702 1501q-92 0 -153.5 60t-61.5 149q0 88 62 148.5t153 60.5q92 0 152.5 -59.5t60.5 -149.5q0 -89 -61 -149t-152 -60zM705 1610q38 0 66 29.5t28 70.5t-27.5 69.5t-66.5 28.5q-43 0 -72 -28.5t-29 -69.5q0 -43 29 -71.5t72 -28.5zM705 -29q-272 0 -421 172t-149 457
v834h209v-850q0 -197 94 -314.5t267 -117.5q169 -1 263.5 118t94.5 314v850h205v-834q0 -188 -61.5 -328t-190 -220.5t-311.5 -80.5z" />
    <glyph glyph-name="uring" unicode="&#x16f;" horiz-adv-x="1122" 
d="M539 1108q-91 0 -152 60t-61 149q0 88 62 148.5t151 60.5q93 0 154 -59.5t61 -149.5q0 -89 -61.5 -149t-153.5 -60zM543 1217q38 0 66 29.5t28 70.5t-27.5 69.5t-66.5 28.5q-43 0 -72 -28.5t-29 -69.5q0 -43 29 -71.5t72 -28.5zM487 -29q-178 0 -274 113t-96 324v616h207
v-623q0 -131 52.5 -200.5t151.5 -69.5q108 0 186.5 81.5t78.5 209.5v602h208v-1024h-208v45q3 60 26 109l6 18l-4 6l-28 -41q-48 -76 -129.5 -121t-176.5 -45z" />
    </font>
</defs>
</svg>
