<?xml version="1.0" standalone="no"?>
<!DOCTYPE svg PUBLIC "-//W3C//DTD SVG 1.1//EN" "http://www.w3.org/Graphics/SVG/1.1/DTD/svg11.dtd" >
<svg xmlns="http://www.w3.org/2000/svg" xmlns:xlink="http://www.w3.org/1999/xlink" version="1.1">
<metadata>
Created by FontForge 20201107 at Wed Oct  9 13:38:17 2024
 By 
Copyright (c) 2020 by ckhans. All rights reserved.
</metadata>
<defs>
<font id="HalenoirCompact-Light" horiz-adv-x="1826" >
  <font-face 
    font-family="HalenoirCompact-Light"
    font-weight="300"
    font-stretch="normal"
    units-per-em="2048"
    panose-1="1 0 0 0 0 0 0 0 0 0"
    ascent="1638"
    descent="-410"
    x-height="1022"
    cap-height="1434"
    bbox="-479 -442 3754 1909"
    underline-thickness="102"
    underline-position="-255"
    unicode-range="U+0020-1F169"
  />
<missing-glyph horiz-adv-x="1499" 
d="M1343 82h-1187v1290h1187v-1290zM436 479l68 -67l248 247l247 -247l68 67l-248 248l246 248l-68 67l-247 -247l-248 247l-66 -67l248 -248z" />
    <glyph glyph-name="copyright" unicode="&#x28;c&#x29;" horiz-adv-x="1673" 
d="M834 -29q-148 0 -283.5 59.5t-233.5 159.5t-156.5 238t-58.5 289t58.5 289t157 238t233.5 159t283 59q197 0 366 -100t268 -272t99 -373q0 -151 -58.5 -289t-157 -238t-234 -159.5t-283.5 -59.5zM182 717q0 -181 87 -334.5t237 -243.5t328 -90q177 0 328 90t239 244
t88 334q0 135 -52 258.5t-140 213t-209 142.5t-254 53t-254 -52.5t-208 -142t-138.5 -213t-51.5 -259.5zM502 700v31q0 153 98 259t238 106q132 0 220 -77t95 -200h-88q-7 91 -73 145t-154 54q-100 0 -172 -78.5t-72 -202.5v-41q0 -125 71 -202.5t173 -77.5q88 0 154 53.5
t73 146.5h88q-7 -124 -95 -201t-220 -77q-143 0 -239.5 104t-96.5 258z" />
    <glyph glyph-name="registered" unicode="&#x28;r&#x29;" horiz-adv-x="815" 
d="M408 848q-129 0 -217.5 89t-88.5 218t89 218t217 89q129 0 216 -88t87 -219q0 -132 -87 -219.5t-216 -87.5zM408 903q103 0 175 73t72 179q0 107 -71.5 179.5t-175.5 72.5t-177 -73t-73 -179t73 -179t177 -73zM348 991h-57v328h145q51 0 79 -25.5t28 -74.5q0 -74 -62 -93
l70 -135h-62l-69 129h-72v-129zM348 1266v-92h88q49 0 49 47q0 45 -49 45h-88z" />
    <glyph glyph-name="endash" unicode="&#x2d;&#x2d;" horiz-adv-x="985" 
d="M920 621h-857v112h857v-112z" />
    <glyph glyph-name="emdash" unicode="&#x2013;&#x2d;" horiz-adv-x="1316" 
d="M1251 621h-1188v112h1188v-112z" />
    <glyph glyph-name="perthousand" unicode="&#x25;o" horiz-adv-x="2146" 
d="M432 803q-127 0 -203.5 88t-76.5 242t78 241.5t202 87.5q126 0 204.5 -88.5t78.5 -240.5q0 -154 -77.5 -242t-205.5 -88zM334 8h-109l965 1450h108zM432 889q83 0 137 73t54 171q0 102 -48.5 172.5t-142.5 70.5q-84 0 -136 -65t-52 -178q0 -114 52 -179t136 -65z
M1090 -29q-127 0 -204 88t-77 242t78.5 242t202.5 88q125 0 203.5 -88.5t78.5 -241.5q0 -155 -77 -242.5t-205 -87.5zM1710 -29q-127 0 -203.5 88t-76.5 242t78.5 242t201.5 88q125 0 204 -89t79 -241q0 -154 -77.5 -242t-205.5 -88zM1090 57q84 0 137 73t53 171
q0 102 -48 172t-142 70q-82 0 -135.5 -65t-53.5 -177q0 -114 53.5 -179t135.5 -65zM1710 57q85 0 138 73t53 171q0 102 -48.5 172t-142.5 70q-82 0 -135 -65t-53 -177q0 -114 53 -179t135 -65z" />
    <glyph glyph-name="uni2116" unicode="N&#xb0;" horiz-adv-x="1824" 
d="M1499 803q-127 0 -203.5 88t-76.5 242t78 241.5t202 87.5t202.5 -88.5t78.5 -240.5q0 -154 -77 -242t-204 -88zM174 0h-127v1434h148l782 -1229h8v1229h129v-1434h-149l-781 1229h-10v-1229zM1499 901q78 0 126 62.5t48 169.5q0 106 -48 168.5t-126 62.5
q-76 0 -124 -62.5t-48 -168.5q0 -107 48 -169.5t124 -62.5zM1763 573h-522v103h522v-103z" />
    <glyph glyph-name="arrowleft" unicode="&#x3c;&#x2d;" horiz-adv-x="1429" 
d="M733 174l-82 -82l-583 584l579 584l86 -84l-446 -445h1073l2 -117l-1073 4z" />
    <glyph glyph-name="arrowup" unicode="&#x2d;&#x3e;up" horiz-adv-x="1581" 
d="M846 29h-115l4 1073l-444 -445l-82 82l582 584l583 -582l-82 -84l-446 447v-1075z" />
    <glyph glyph-name="arrowright" unicode="&#x2d;&#x3e;" horiz-adv-x="1429" 
d="M1362 676l-582 -584l-84 84l449 445h-1077v116l1073 -4l-445 443l84 84z" />
    <glyph glyph-name="arrowdown" unicode="&#x2d;&#x3e;down" horiz-adv-x="1581" 
d="M1374 612l-581 -583l-584 579l84 86l444 -446v1073l115 2l-2 -1073l442 444z" />
    <glyph glyph-name="arrowboth" unicode="&#x3c;&#x2d;&#x3e;" horiz-adv-x="1591" 
d="M639 176l-84 -84l-584 584l584 584l82 -82l-444 -449h1206l-445 449l82 82l584 -584l-586 -584l-82 84l445 442h-1204z" />
    <glyph glyph-name="arrowupdn" unicode="&#x3c;&#x2d;&#x3e;up" horiz-adv-x="1462" 
d="M1315 475l-584 -584l-584 586l84 84l443 -446v1204l-443 -445l-84 82l584 586l584 -584l-82 -84l-449 447v-1208l449 446z" />
    <glyph glyph-name="uni2196" unicode="&#x3c;&#x2d;upleft" horiz-adv-x="1052" 
d="M1030 279l-82 -84l-755 761l2 -626h-117v825l821 2l2 -121l-631 2z" />
    <glyph glyph-name="uni2197" unicode="&#x2d;&#x3e;upright" horiz-adv-x="1058" 
d="M864 954l-760 -759l-81 81l763 758l-628 -2v117h823l2 -823h-119v628z" />
    <glyph glyph-name="uni2198" unicode="&#x2d;&#x3e;downright" horiz-adv-x="1052" 
d="M975 197l-821 -2l-2 120l630 -2l-759 760l79 84l758 -762l-2 627h117v-825z" />
    <glyph glyph-name="uni2199" unicode="&#x3c;&#x2d;downleft" horiz-adv-x="1058" 
d="M905 199h-827v823h119l-2 -629l759 760l84 -82l-762 -758l627 2z" />
    <glyph glyph-name="uni21A5" unicode="&#x2d;&#x3e;upstop" horiz-adv-x="1478" 
d="M1327 29h-1175v114h528l4 1043l-444 -447l-82 84l581 582l584 -580l-82 -86l-446 447l2 -1043h530v-114z" />
    <glyph glyph-name="uni21A7" unicode="&#x2d;&#x3e;downstop" horiz-adv-x="1478" 
d="M1323 610l-584 -581l-581 583l82 84l444 -446l-4 1040h-528v115h1175v-115h-530l-2 -1042l446 448z" />
    <glyph glyph-name="uni21B0" unicode="&#x3c;&#x2d;upturn" horiz-adv-x="1562" 
d="M1399 -2h-115v805l-940 2l436 -434l-82 -82l-573 573l569 574l86 -84l-436 -434h1055v-920z" />
    <glyph glyph-name="uni21B1" unicode="&#x2d;&#x3e;upturn" horiz-adv-x="1523" 
d="M240 -2h-115v920h1055l-437 434l86 84l570 -574l-574 -573l-82 82l435 434l-938 -2v-805z" />
    <glyph glyph-name="uni21B2" unicode="&#x3c;&#x2d;downturn" horiz-adv-x="1523" 
d="M780 82l-86 -84l-569 573l573 574l82 -82l-436 -434l940 2v805h115v-920h-1055z" />
    <glyph glyph-name="uni21B3" unicode="&#x2d;&#x3e;downturn" horiz-adv-x="1523" 
d="M1399 571l-570 -573l-86 84l437 434h-1055v920h115v-805l938 -2l-435 434l82 82z" />
    <glyph glyph-name="uni21E4" unicode="&#x3c;&#x2d;stop" horiz-adv-x="1730" 
d="M262 88h-115v1178h115v-1178zM981 174l-84 -82l-582 584l580 584l86 -86l-446 -443h1052l2 -115h-1054z" />
    <glyph glyph-name="uni21E5" unicode="&#x2d;&#x3e;stop" horiz-adv-x="1730" 
d="M1589 88h-114v1178h114v-1178zM1423 676l-583 -584l-84 82l446 442h-1055l3 115h1054l-448 443l88 86z" />
    <glyph glyph-name="uni2460" unicode="&#x28;&#x31;&#x29;" 
d="M913 -115q-221 0 -408.5 112t-297 303.5t-109.5 416.5q0 168 64.5 322t174 265.5t260.5 177.5t316 66q164 0 315 -66t260.5 -177.5t175 -265.5t65.5 -322t-65.5 -322t-175 -265.5t-260.5 -178t-315 -66.5zM913 -10q142 0 273 58.5t227 156.5t153.5 232.5t57.5 279.5
q0 146 -57.5 280.5t-153.5 232.5t-227 156t-273 58q-144 0 -275.5 -58t-226.5 -155.5t-151.5 -232t-56.5 -281.5q0 -195 95 -362.5t259 -266t356 -98.5zM985 1094v-754h-100v633q-11 -29 -63 -56.5t-99 -21.5v98q39 -7 100 26t88 75h74z" />
    <glyph glyph-name="uni2461" unicode="&#x28;&#x32;&#x29;" 
d="M913 -115q-221 0 -408.5 112t-297 303.5t-109.5 416.5q0 168 64.5 322t174 265.5t260.5 177.5t316 66q164 0 315 -66t260.5 -177.5t175 -265.5t65.5 -322t-65.5 -322t-175 -265.5t-260.5 -178t-315 -66.5zM913 -10q142 0 273 58.5t227 156.5t153.5 232.5t57.5 279.5
q0 146 -57.5 280.5t-153.5 232.5t-227 156t-273 58q-144 0 -275.5 -58t-226.5 -155.5t-151.5 -232t-56.5 -281.5q0 -195 95 -362.5t259 -266t356 -98.5zM1169 356h-512v76l240 223q72 63 111 111q55 63 55 133q0 63 -36.5 97t-102.5 34q-70 0 -113 -46t-43 -120h-98
q3 116 72.5 187t181.5 71q107 0 173 -62t66 -161q0 -86 -84 -186q-34 -44 -125 -129l-145 -133h360v-95z" />
    <glyph glyph-name="uni2462" unicode="&#x28;&#x33;&#x29;" 
d="M913 -115q-221 0 -408.5 112t-297 303.5t-109.5 416.5q0 168 64.5 322t174 265.5t260.5 177.5t316 66q164 0 315 -66t260.5 -177.5t175 -265.5t65.5 -322t-65.5 -322t-175 -265.5t-260.5 -178t-315 -66.5zM913 -10q142 0 273 58.5t227 156.5t153.5 232.5t57.5 279.5
q0 146 -57.5 280.5t-153.5 232.5t-227 156t-273 58q-144 0 -275.5 -58t-226.5 -155.5t-151.5 -232t-56.5 -281.5q0 -195 95 -362.5t259 -266t356 -98.5zM915 326q-118 0 -197 62t-79 157h98q3 -54 53.5 -89.5t122.5 -35.5q83 0 128.5 34.5t45.5 96.5q0 63 -46.5 98
t-129.5 35h-112v90h114q63 0 106.5 35.5t43.5 87.5q0 51 -43.5 85t-108.5 34q-66 0 -111 -34.5t-46 -86.5h-101q3 92 77.5 152.5t182.5 60.5q103 0 175.5 -60.5t72.5 -150.5q0 -46 -24.5 -90t-65.5 -72q54 -25 85.5 -74t31.5 -112q0 -98 -76.5 -160.5t-196.5 -62.5z" />
    <glyph glyph-name="uni2463" unicode="&#x28;&#x34;&#x29;" 
d="M913 -115q-221 0 -408.5 112t-297 303.5t-109.5 416.5q0 168 64.5 322t174 265.5t260.5 177.5t316 66q164 0 315 -66t260.5 -177.5t175 -265.5t65.5 -322t-65.5 -322t-175 -265.5t-260.5 -178t-315 -66.5zM913 -10q142 0 273 58.5t227 156.5t153.5 232.5t57.5 279.5
q0 146 -57.5 280.5t-153.5 232.5t-227 156t-273 58q-144 0 -275.5 -58t-226.5 -155.5t-151.5 -232t-56.5 -281.5q0 -195 95 -362.5t259 -266t356 -98.5zM1063 346h-100v158h-383v86l378 510h105v-504h108v-92h-108v-158zM963 958l-273 -362h273v362z" />
    <glyph glyph-name="uni2464" unicode="&#x28;&#x35;&#x29;" 
d="M913 -115q-221 0 -408.5 112t-297 303.5t-109.5 416.5q0 168 64.5 322t174 265.5t260.5 177.5t316 66q164 0 315 -66t260.5 -177.5t175 -265.5t65.5 -322t-65.5 -322t-175 -265.5t-260.5 -178t-315 -66.5zM913 -10q142 0 273 58.5t227 156.5t153.5 232.5t57.5 279.5
q0 146 -57.5 280.5t-153.5 232.5t-227 156t-273 58q-144 0 -275.5 -58t-226.5 -155.5t-151.5 -232t-56.5 -281.5q0 -195 95 -362.5t259 -266t356 -98.5zM915 305q-118 0 -192 70.5t-74 185.5h96q1 -73 48 -117.5t122 -44.5q73 0 118.5 48.5t45.5 125.5q0 75 -45.5 123.5
t-118.5 48.5q-107 0 -149 -83h-94l51 411h422v-92h-338l-31 -217q53 74 150 74q109 0 180.5 -75.5t71.5 -189.5q0 -117 -74 -192.5t-189 -75.5z" />
    <glyph glyph-name="uni2465" unicode="&#x28;&#x36;&#x29;" 
d="M913 -115q-221 0 -408.5 112t-297 303.5t-109.5 416.5q0 168 64.5 322t174 265.5t260.5 177.5t316 66q164 0 315 -66t260.5 -177.5t175 -265.5t65.5 -322t-65.5 -322t-175 -265.5t-260.5 -178t-315 -66.5zM913 -10q142 0 273 58.5t227 156.5t153.5 232.5t57.5 279.5
q0 146 -57.5 280.5t-153.5 232.5t-227 156t-273 58q-144 0 -275.5 -58t-226.5 -155.5t-151.5 -232t-56.5 -281.5q0 -195 95 -362.5t259 -266t356 -98.5zM922 322q-132 0 -203.5 98t-71.5 278t79 293t206 113q103 0 170 -60t74 -161h-95q-15 67 -50.5 98t-100.5 31
q-84 0 -132 -75t-53 -210q26 61 68.5 91t118.5 30q107 0 178.5 -74t71.5 -186q0 -118 -72 -192t-188 -74zM922 416q71 0 115 47t44 123q0 77 -43.5 124.5t-115.5 47.5q-74 0 -120 -48t-46 -124q0 -74 46.5 -122t119.5 -48z" />
    <glyph glyph-name="uni2466" unicode="&#x28;&#x37;&#x29;" 
d="M913 -115q-221 0 -408.5 112t-297 303.5t-109.5 416.5q0 168 64.5 322t174 265.5t260.5 177.5t316 66q164 0 315 -66t260.5 -177.5t175 -265.5t65.5 -322t-65.5 -322t-175 -265.5t-260.5 -178t-315 -66.5zM913 -10q142 0 273 58.5t227 156.5t153.5 232.5t57.5 279.5
q0 146 -57.5 280.5t-153.5 232.5t-227 156t-273 58q-144 0 -275.5 -58t-226.5 -155.5t-151.5 -232t-56.5 -281.5q0 -195 95 -362.5t259 -266t356 -98.5zM920 319h-99q0 178 58.5 349.5t167.5 312.5h-392v92h521v-84q-130 -152 -192 -315t-64 -355z" />
    <glyph glyph-name="uni2467" unicode="&#x28;&#x38;&#x29;" 
d="M913 -115q-221 0 -408.5 112t-297 303.5t-109.5 416.5q0 168 64.5 322t174 265.5t260.5 177.5t316 66q164 0 315 -66t260.5 -177.5t175 -265.5t65.5 -322t-65.5 -322t-175 -265.5t-260.5 -178t-315 -66.5zM913 -10q142 0 273 58.5t227 156.5t153.5 232.5t57.5 279.5
q0 146 -57.5 280.5t-153.5 232.5t-227 156t-273 58q-144 0 -275.5 -58t-226.5 -155.5t-151.5 -232t-56.5 -281.5q0 -195 95 -362.5t259 -266t356 -98.5zM915 326q-119 0 -198.5 64t-79.5 163q0 59 31.5 107t85.5 75q-38 27 -61 70.5t-23 93.5q0 91 69.5 150t175.5 59
t176 -59t70 -150q0 -50 -23.5 -94t-62.5 -72q52 -27 83.5 -75t31.5 -105q0 -99 -78.5 -163t-196.5 -64zM915 780q66 0 107 32.5t41 86.5q0 51 -41 84t-107 33q-67 0 -107 -32t-40 -85q0 -55 39.5 -87t107.5 -32zM915 420q77 0 127 37.5t50 97.5q0 57 -50 93t-127 36
q-79 0 -128.5 -36t-49.5 -93q0 -60 49.5 -97.5t128.5 -37.5z" />
    <glyph glyph-name="uni2468" unicode="&#x28;&#x39;&#x29;" 
d="M913 -115q-221 0 -408.5 112t-297 303.5t-109.5 416.5q0 168 64.5 322t174 265.5t260.5 177.5t316 66q164 0 315 -66t260.5 -177.5t175 -265.5t65.5 -322t-65.5 -322t-175 -265.5t-260.5 -178t-315 -66.5zM913 -10q142 0 273 58.5t227 156.5t153.5 232.5t57.5 279.5
q0 146 -57.5 280.5t-153.5 232.5t-227 156t-273 58q-144 0 -275.5 -58t-226.5 -155.5t-151.5 -232t-56.5 -281.5q0 -195 95 -362.5t259 -266t356 -98.5zM899 326q-104 0 -170 61t-72 162h95q12 -66 47.5 -97.5t99.5 -31.5q85 0 133.5 76t54.5 211q-27 -61 -69.5 -92
t-116.5 -31q-110 0 -181 73t-71 187q0 117 72.5 190.5t189.5 73.5q131 0 203 -98t72 -279q0 -180 -79.5 -292.5t-207.5 -112.5zM911 672q72 0 117 48t45 124t-45 124t-117 48q-73 0 -117 -47.5t-44 -124.5t44 -124.5t117 -47.5z" />
    <glyph glyph-name="uni2469" unicode="&#x28;&#x31;&#x30;&#x29;" 
d="M913 -115q-221 0 -408.5 112t-297 303.5t-109.5 416.5q0 168 64.5 322t174 265.5t260.5 177.5t316 66q164 0 315 -66t260.5 -177.5t175 -265.5t65.5 -322t-65.5 -322t-175 -265.5t-260.5 -178t-315 -66.5zM913 -10q142 0 273 58.5t227 156.5t153.5 232.5t57.5 279.5
q0 146 -57.5 280.5t-153.5 232.5t-227 156t-273 58q-144 0 -275.5 -58t-226.5 -155.5t-151.5 -232t-56.5 -281.5q0 -195 95 -362.5t259 -266t356 -98.5zM1090 326q-133 0 -212 101.5t-79 270.5v9q0 165 80.5 268.5t210.5 103.5q131 0 210.5 -104.5t79.5 -267.5v-9
q0 -168 -79 -270t-211 -102zM680 340h-98v604q-12 -28 -64 -55t-100 -21v97q41 -7 102 25.5t86 74.5h74v-725zM1090 418q89 0 143.5 76.5t54.5 201.5v13q0 121 -56 199.5t-142 78.5t-141.5 -77.5t-55.5 -200.5v-13q0 -124 54.5 -201t142.5 -77z" />
    <glyph glyph-name="uni246A" unicode="&#x28;&#x31;&#x31;&#x29;" 
d="M913 -115q-221 0 -408.5 112t-297 303.5t-109.5 416.5q0 168 64.5 322t174 265.5t260.5 177.5t316 66q164 0 315 -66t260.5 -177.5t175 -265.5t65.5 -322t-65.5 -322t-175 -265.5t-260.5 -178t-315 -66.5zM913 -10q142 0 273 58.5t227 156.5t153.5 232.5t57.5 279.5
q0 146 -57.5 280.5t-153.5 232.5t-227 156t-273 58q-144 0 -275.5 -58t-226.5 -155.5t-151.5 -232t-56.5 -281.5q0 -195 95 -362.5t259 -266t356 -98.5zM748 1065v-725h-101v604q-12 -27 -64 -54.5t-98 -21.5v97q41 -7 101.5 25.5t87.5 74.5h74zM1198 1065v-725h-98v604
q-12 -27 -64 -54.5t-98 -21.5v97q39 -7 100 25.5t86 74.5h74z" />
    <glyph glyph-name="uni246B" unicode="&#x28;&#x31;&#x32;&#x29;" 
d="M913 -115q-221 0 -408.5 112t-297 303.5t-109.5 416.5q0 168 64.5 322t174 265.5t260.5 177.5t316 66q164 0 315 -66t260.5 -177.5t175 -265.5t65.5 -322t-65.5 -322t-175 -265.5t-260.5 -178t-315 -66.5zM913 -10q142 0 273 58.5t227 156.5t153.5 232.5t57.5 279.5
q0 146 -57.5 280.5t-153.5 232.5t-227 156t-273 58q-144 0 -275.5 -58t-226.5 -155.5t-151.5 -232t-56.5 -281.5q0 -195 95 -362.5t259 -266t356 -98.5zM1311 434v-92h-494v76l338 321q51 48 51 125q0 60 -35 92.5t-98 32.5q-67 0 -108 -44.5t-39 -115.5h-99q2 111 70 181.5
t176 70.5q104 0 168 -60.5t64 -154.5q0 -102 -82 -184l-258 -248h346zM698 1065v-725h-98v604q-12 -27 -64 -54.5t-98 -21.5v97q40 -7 101 26t86 74h73z" />
    <glyph glyph-name="uni246C" unicode="&#x28;&#x31;&#x33;&#x29;" 
d="M913 -115q-221 0 -408.5 112t-297 303.5t-109.5 416.5q0 168 64.5 322t174 265.5t260.5 177.5t316 66q164 0 315 -66t260.5 -177.5t175 -265.5t65.5 -322t-65.5 -322t-175 -265.5t-260.5 -178t-315 -66.5zM913 -10q142 0 273 58.5t227 156.5t153.5 232.5t57.5 279.5
q0 146 -57.5 280.5t-153.5 232.5t-227 156t-273 58q-144 0 -275.5 -58t-226.5 -155.5t-151.5 -232t-56.5 -281.5q0 -195 95 -362.5t259 -266t356 -98.5zM1075 324q-113 0 -189.5 60.5t-76.5 150.5h96q3 -51 51.5 -85t116.5 -34q79 0 123.5 33t44.5 92q0 60 -45 93.5
t-125 33.5h-108v88h110q62 0 101.5 32.5t39.5 83.5q0 48 -41 80.5t-102 32.5q-63 0 -105.5 -32.5t-45.5 -82.5h-97q3 90 74 148.5t176 58.5q99 0 168.5 -59t69.5 -146q0 -44 -23 -85.5t-61 -67.5q52 -25 81 -72t29 -108q0 -95 -73 -155t-189 -60zM690 1065v-725h-98v604
q-14 -28 -65.5 -55t-98.5 -21v97q41 -7 102 25.5t86 74.5h74z" />
    <glyph glyph-name="uni246D" unicode="&#x28;&#x31;&#x34;&#x29;" 
d="M913 -115q-221 0 -408.5 112t-297 303.5t-109.5 416.5q0 168 64.5 322t174 265.5t260.5 177.5t316 66q164 0 315 -66t260.5 -177.5t175 -265.5t65.5 -322t-65.5 -322t-175 -265.5t-260.5 -178t-315 -66.5zM913 -10q142 0 273 58.5t227 156.5t153.5 232.5t57.5 279.5
q0 146 -57.5 280.5t-153.5 232.5t-227 156t-273 58q-144 0 -275.5 -58t-226.5 -155.5t-151.5 -232t-56.5 -281.5q0 -195 95 -362.5t259 -266t356 -98.5zM672 340h-99v604q-13 -28 -65 -55t-98 -21v97q41 -7 101 25.5t87 74.5h74v-725zM1257 340h-96v152h-368v81l362 492h102
v-483h105v-90h-105v-152zM1161 926l-258 -344h258v344z" />
    <glyph glyph-name="uni246E" unicode="&#x28;&#x31;&#x35;&#x29;" 
d="M913 -115q-221 0 -408.5 112t-297 303.5t-109.5 416.5q0 168 64.5 322t174 265.5t260.5 177.5t316 66q164 0 315 -66t260.5 -177.5t175 -265.5t65.5 -322t-65.5 -322t-175 -265.5t-260.5 -178t-315 -66.5zM913 -10q142 0 273 58.5t227 156.5t153.5 232.5t57.5 279.5
q0 146 -57.5 280.5t-153.5 232.5t-227 156t-273 58q-144 0 -275.5 -58t-226.5 -155.5t-151.5 -232t-56.5 -281.5q0 -195 95 -362.5t259 -266t356 -98.5zM680 340h-98v604q-14 -28 -65.5 -55t-98.5 -21v97q41 -7 102 25.5t86 74.5h74v-725zM1085 324q-113 0 -184.5 68.5
t-71.5 178.5h95q1 -70 45.5 -112.5t115.5 -42.5q70 0 113 46t43 120t-43 118.5t-113 44.5q-101 0 -143 -79h-90l49 397h406v-92h-324l-29 -205q21 31 58 50.5t82 19.5q107 0 176 -72t69 -182q0 -112 -72 -185t-182 -73z" />
    <glyph glyph-name="uni246F" unicode="&#x28;&#x31;&#x36;&#x29;" 
d="M913 -115q-221 0 -408.5 112t-297 303.5t-109.5 416.5q0 168 64.5 322t174 265.5t260.5 177.5t316 66q164 0 315 -66t260.5 -177.5t175 -265.5t65.5 -322t-65.5 -322t-175 -265.5t-260.5 -178t-315 -66.5zM913 -10q142 0 273 58.5t227 156.5t153.5 232.5t57.5 279.5
q0 146 -57.5 280.5t-153.5 232.5t-227 156t-273 58q-144 0 -275.5 -58t-226.5 -155.5t-151.5 -232t-56.5 -281.5q0 -195 95 -362.5t259 -266t356 -98.5zM1063 319q-127 0 -195.5 94.5t-68.5 268.5t75.5 282.5t198.5 108.5q100 0 162.5 -57.5t71.5 -157.5h-93q-14 65 -47 94
t-96 29q-79 0 -125.5 -72.5t-52.5 -199.5q59 116 180 116q104 0 172 -70.5t68 -179.5q0 -114 -69 -185t-181 -71zM688 340h-98v604q-12 -27 -64 -54.5t-98 -21.5v97q39 -7 100 25.5t86 72.5h74v-723zM1061 412q70 0 113 44.5t43 118.5q0 73 -43.5 118.5t-112.5 45.5
t-112.5 -45.5t-43.5 -118.5q0 -72 43.5 -117.5t112.5 -45.5z" />
    <glyph glyph-name="uni2470" unicode="&#x28;&#x31;&#x37;&#x29;" 
d="M913 -115q-221 0 -408.5 112t-297 303.5t-109.5 416.5q0 168 64.5 322t174 265.5t260.5 177.5t316 66q164 0 315 -66t260.5 -177.5t175 -265.5t65.5 -322t-65.5 -322t-175 -265.5t-260.5 -178t-315 -66.5zM913 -10q142 0 273 58.5t227 156.5t153.5 232.5t57.5 279.5
q0 146 -57.5 280.5t-153.5 232.5t-227 156t-273 58q-144 0 -275.5 -58t-226.5 -155.5t-151.5 -232t-56.5 -281.5q0 -195 95 -362.5t259 -266t356 -98.5zM694 340h-100v604q-12 -27 -64 -54.5t-98 -21.5v97q41 -7 101.5 25.5t87.5 74.5h73v-725zM1108 340h-96q-1 170 55 334
t160 299h-375v92h500v-80q-126 -146 -185 -302.5t-59 -342.5z" />
    <glyph glyph-name="uni2471" unicode="&#x28;&#x31;&#x38;&#x29;" 
d="M913 -115q-221 0 -408.5 112t-297 303.5t-109.5 416.5q0 168 64.5 322t174 265.5t260.5 177.5t316 66q164 0 315 -66t260.5 -177.5t175 -265.5t65.5 -322t-65.5 -322t-175 -265.5t-260.5 -178t-315 -66.5zM913 -10q142 0 273 58.5t227 156.5t153.5 232.5t57.5 279.5
q0 146 -57.5 280.5t-153.5 232.5t-227 156t-273 58q-144 0 -275.5 -58t-226.5 -155.5t-151.5 -232t-56.5 -281.5q0 -195 95 -362.5t259 -266t356 -98.5zM1063 326q-116 0 -192 61.5t-76 157.5q0 55 30.5 100.5t85.5 73.5q-84 59 -84 158q0 89 67 145.5t169 56.5t169.5 -56.5
t67.5 -145.5q0 -100 -86 -158q113 -63 113 -174q0 -95 -75.5 -157t-188.5 -62zM698 340h-98v604q-13 -28 -65.5 -55t-98.5 -21v97q41 -7 101.5 25.5t87.5 74.5h73v-725zM1063 764q65 0 102 30.5t37 82.5q0 50 -38 80t-101 30q-64 0 -101.5 -30t-37.5 -80q0 -52 38 -82.5
t101 -30.5zM1063 418q74 0 121 36t47 93q0 54 -46.5 88.5t-121.5 34.5t-122.5 -34.5t-47.5 -88.5q0 -57 47.5 -93t122.5 -36z" />
    <glyph glyph-name="uni2472" unicode="&#x28;&#x31;&#x39;&#x29;" 
d="M913 -115q-221 0 -408.5 112t-297 303.5t-109.5 416.5q0 168 64.5 322t174 265.5t260.5 177.5t316 66q164 0 315 -66t260.5 -177.5t175 -265.5t65.5 -322t-65.5 -322t-175 -265.5t-260.5 -178t-315 -66.5zM913 -10q142 0 273 58.5t227 156.5t153.5 232.5t57.5 279.5
q0 146 -57.5 280.5t-153.5 232.5t-227 156t-273 58q-144 0 -275.5 -58t-226.5 -155.5t-151.5 -232t-56.5 -281.5q0 -195 95 -362.5t259 -266t356 -98.5zM1051 326q-100 0 -162.5 57.5t-71.5 157.5h92q14 -65 47.5 -94t96.5 -29q80 0 126 72t52 200q-18 -47 -63.5 -82
t-114.5 -35q-106 0 -174 70.5t-68 179.5q0 114 69 185t181 71q127 0 195.5 -94t68.5 -268t-75.5 -282.5t-198.5 -108.5zM698 340h-98v604q-13 -28 -65.5 -55t-98.5 -21v97q41 -7 101.5 25.5t87.5 74.5h73v-725zM1063 659q69 0 112.5 45.5t43.5 118.5q0 72 -43.5 118
t-112.5 46q-70 0 -113 -45t-43 -119q0 -73 43.5 -118.5t112.5 -45.5z" />
    <glyph glyph-name="uni2473" unicode="&#x28;&#x32;&#x30;&#x29;" 
d="M913 -115q-221 0 -408.5 112t-297 303.5t-109.5 416.5q0 168 64.5 322t174 265.5t260.5 177.5t316 66q164 0 315 -66t260.5 -177.5t175 -265.5t65.5 -322t-65.5 -322t-175 -265.5t-260.5 -178t-315 -66.5zM913 -10q142 0 273 58.5t227 156.5t153.5 232.5t57.5 279.5
q0 146 -57.5 280.5t-153.5 232.5t-227 156t-273 58q-144 0 -275.5 -58t-226.5 -155.5t-151.5 -232t-56.5 -281.5q0 -195 95 -362.5t259 -266t356 -98.5zM1167 371q-124 0 -198 95.5t-74 252.5v8q0 154 75.5 251t196.5 97q125 0 201 -97.5t76 -250.5v-8q0 -157 -75.5 -252.5
t-201.5 -95.5zM870 381h-464v72l217 198q73 69 100 103q49 61 49 116q0 56 -33 86.5t-92 30.5q-63 0 -101 -41.5t-38 -107.5h-92q0 105 63.5 170t167.5 65q98 0 157.5 -55.5t59.5 -145.5q0 -81 -76 -172q-44 -53 -114 -114l-125 -119h321v-86zM1167 457q83 0 134 72t51 190
v8q0 116 -51 189t-134 73q-80 0 -131 -73.5t-51 -188.5v-8q0 -118 50 -190t132 -72z" />
    <glyph glyph-name="uni24B6" unicode="&#x28;A&#x29;" 
d="M913 -115q-221 0 -408.5 112t-297 303.5t-109.5 416.5q0 168 64.5 322t174 265.5t260.5 177.5t316 66q164 0 315 -66t260.5 -177.5t175 -265.5t65.5 -322t-65.5 -322t-175 -265.5t-260.5 -178t-315 -66.5zM913 -10q142 0 273 58.5t227 156.5t153.5 232.5t57.5 279.5
q0 146 -57.5 280.5t-153.5 232.5t-227 156t-273 58q-144 0 -275.5 -58t-226.5 -155.5t-151.5 -232t-56.5 -281.5q0 -195 95 -362.5t259 -266t356 -98.5zM666 381h-103l297 754h107l295 -754h-101l-88 221h-321zM911 1020l-123 -324h248l-121 324h-4z" />
    <glyph glyph-name="uni24B7" unicode="&#x28;B&#x29;" 
d="M913 -115q-221 0 -408.5 112t-297 303.5t-109.5 416.5q0 168 64.5 322t174 265.5t260.5 177.5t316 66q164 0 315 -66t260.5 -177.5t175 -265.5t65.5 -322t-65.5 -322t-175 -265.5t-260.5 -178t-315 -66.5zM913 -10q142 0 273 58.5t227 156.5t153.5 232.5t57.5 279.5
q0 146 -57.5 280.5t-153.5 232.5t-227 156t-273 58q-144 0 -275.5 -58t-226.5 -155.5t-151.5 -232t-56.5 -281.5q0 -195 95 -362.5t259 -266t356 -98.5zM1020 340h-354v754h333q104 0 162 -52t58 -145q0 -57 -30 -102.5t-73 -61.5v-4q54 -20 90.5 -69t36.5 -111
q0 -94 -61.5 -151.5t-161.5 -57.5zM766 1001v-227h227q60 0 95.5 33t35.5 88q0 106 -131 106h-227zM766 682v-248h254q59 0 91 31t32 88q0 55 -38 92t-95 37h-244z" />
    <glyph glyph-name="uni24B8" unicode="&#x28;C&#x29;" 
d="M913 -115q-221 0 -408.5 112t-297 303.5t-109.5 416.5q0 168 64.5 322t174 265.5t260.5 177.5t316 66q164 0 315 -66t260.5 -177.5t175 -265.5t65.5 -322t-65.5 -322t-175 -265.5t-260.5 -178t-315 -66.5zM913 -10q142 0 273 58.5t227 156.5t153.5 232.5t57.5 279.5
q0 146 -57.5 280.5t-153.5 232.5t-227 156t-273 58q-144 0 -275.5 -58t-226.5 -155.5t-151.5 -232t-56.5 -281.5q0 -195 95 -362.5t259 -266t356 -98.5zM922 326q-151 0 -238.5 107.5t-87.5 279.5v8q0 171 88 279t238 108q130 0 216 -76.5t91 -193.5h-101q-3 80 -60 129
t-146 49q-103 0 -164.5 -82t-61.5 -211v-12q0 -130 61 -210.5t165 -80.5q90 0 146.5 49t61.5 129h101q-5 -119 -91 -195.5t-218 -76.5z" />
    <glyph glyph-name="uni24B9" unicode="&#x28;D&#x29;" 
d="M913 -115q-221 0 -408.5 112t-297 303.5t-109.5 416.5q0 168 64.5 322t174 265.5t260.5 177.5t316 66q164 0 315 -66t260.5 -177.5t175 -265.5t65.5 -322t-65.5 -322t-175 -265.5t-260.5 -178t-315 -66.5zM913 -10q142 0 273 58.5t227 156.5t153.5 232.5t57.5 279.5
q0 146 -57.5 280.5t-153.5 232.5t-227 156t-273 58q-144 0 -275.5 -58t-226.5 -155.5t-151.5 -232t-56.5 -281.5q0 -195 95 -362.5t259 -266t356 -98.5zM911 340h-231v754h231q161 0 259 -103.5t98 -273.5t-98 -273.5t-259 -103.5zM780 1001v-567h125q121 0 191.5 76
t70.5 207q0 132 -70 208t-192 76h-125z" />
    <glyph glyph-name="uni24BA" unicode="&#x28;E&#x29;" 
d="M913 -115q-221 0 -408.5 112t-297 303.5t-109.5 416.5q0 168 64.5 322t174 265.5t260.5 177.5t316 66q164 0 315 -66t260.5 -177.5t175 -265.5t65.5 -322t-65.5 -322t-175 -265.5t-260.5 -178t-315 -66.5zM913 -10q142 0 273 58.5t227 156.5t153.5 232.5t57.5 279.5
q0 146 -57.5 280.5t-153.5 232.5t-227 156t-273 58q-144 0 -275.5 -58t-226.5 -155.5t-151.5 -232t-56.5 -281.5q0 -195 95 -362.5t259 -266t356 -98.5zM1171 340h-514v754h514v-93h-413v-229h379v-92h-379v-246h413v-94z" />
    <glyph glyph-name="uni24BB" unicode="&#x28;F&#x29;" 
d="M913 -115q-221 0 -408.5 112t-297 303.5t-109.5 416.5q0 168 64.5 322t174 265.5t260.5 177.5t316 66q164 0 315 -66t260.5 -177.5t175 -265.5t65.5 -322t-65.5 -322t-175 -265.5t-260.5 -178t-315 -66.5zM913 -10q142 0 273 58.5t227 156.5t153.5 232.5t57.5 279.5
q0 146 -57.5 280.5t-153.5 232.5t-227 156t-273 58q-144 0 -275.5 -58t-226.5 -155.5t-151.5 -232t-56.5 -281.5q0 -195 95 -362.5t259 -266t356 -98.5zM774 340h-100v754h514v-93h-414v-235h379v-92h-379v-334z" />
    <glyph glyph-name="uni24BC" unicode="&#x28;G&#x29;" 
d="M913 -115q-221 0 -408.5 112t-297 303.5t-109.5 416.5q0 168 64.5 322t174 265.5t260.5 177.5t316 66q164 0 315 -66t260.5 -177.5t175 -265.5t65.5 -322t-65.5 -322t-175 -265.5t-260.5 -178t-315 -66.5zM913 -10q142 0 273 58.5t227 156.5t153.5 232.5t57.5 279.5
q0 146 -57.5 280.5t-153.5 232.5t-227 156t-273 58q-144 0 -275.5 -58t-226.5 -155.5t-151.5 -232t-56.5 -281.5q0 -195 95 -362.5t259 -266t356 -98.5zM924 324q-153 0 -240.5 107t-87.5 280v8q0 169 88.5 277t239.5 108q130 0 215 -75.5t90 -192.5h-101q-3 79 -59.5 127.5
t-144.5 48.5q-104 0 -166 -81.5t-62 -209.5v-12q0 -131 61 -211t167 -80q206 0 206 223v8h-204v94h303v-65q0 -354 -305 -354z" />
    <glyph glyph-name="uni24BD" unicode="&#x28;H&#x29;" 
d="M913 -115q-221 0 -408.5 112t-297 303.5t-109.5 416.5q0 168 64.5 322t174 265.5t260.5 177.5t316 66q164 0 315 -66t260.5 -177.5t175 -265.5t65.5 -322t-65.5 -322t-175 -265.5t-260.5 -178t-315 -66.5zM913 -10q142 0 273 58.5t227 156.5t153.5 232.5t57.5 279.5
q0 146 -57.5 280.5t-153.5 232.5t-227 156t-273 58q-144 0 -275.5 -58t-226.5 -155.5t-151.5 -232t-56.5 -281.5q0 -195 95 -362.5t259 -266t356 -98.5zM725 340h-98v754h98v-318h379v318h96v-754h-96v342h-379v-342z" />
    <glyph glyph-name="uni24BE" unicode="&#x28;I&#x29;" 
d="M913 -115q-221 0 -408.5 112t-297 303.5t-109.5 416.5q0 168 64.5 322t174 265.5t260.5 177.5t316 66q164 0 315 -66t260.5 -177.5t175 -265.5t65.5 -322t-65.5 -322t-175 -265.5t-260.5 -178t-315 -66.5zM913 -10q142 0 273 58.5t227 156.5t153.5 232.5t57.5 279.5
q0 146 -57.5 280.5t-153.5 232.5t-227 156t-273 58q-144 0 -275.5 -58t-226.5 -155.5t-151.5 -232t-56.5 -281.5q0 -195 95 -362.5t259 -266t356 -98.5zM963 340h-101v754h101v-754z" />
    <glyph glyph-name="uni24BF" unicode="&#x28;J&#x29;" 
d="M913 -115q-221 0 -408.5 112t-297 303.5t-109.5 416.5q0 168 64.5 322t174 265.5t260.5 177.5t316 66q164 0 315 -66t260.5 -177.5t175 -265.5t65.5 -322t-65.5 -322t-175 -265.5t-260.5 -178t-315 -66.5zM913 -10q142 0 273 58.5t227 156.5t153.5 232.5t57.5 279.5
q0 146 -57.5 280.5t-153.5 232.5t-227 156t-273 58q-144 0 -275.5 -58t-226.5 -155.5t-151.5 -232t-56.5 -281.5q0 -195 95 -362.5t259 -266t356 -98.5zM827 336q-50 0 -131 22v97q85 -25 127 -25q77 0 107.5 31t30.5 112v529h100v-537q0 -229 -234 -229z" />
    <glyph glyph-name="uni24C0" unicode="&#x28;K&#x29;" 
d="M913 -115q-221 0 -408.5 112t-297 303.5t-109.5 416.5q0 168 64.5 322t174 265.5t260.5 177.5t316 66q164 0 315 -66t260.5 -177.5t175 -265.5t65.5 -322t-65.5 -322t-175 -265.5t-260.5 -178t-315 -66.5zM913 -10q142 0 273 58.5t227 156.5t153.5 232.5t57.5 279.5
q0 146 -57.5 280.5t-153.5 232.5t-227 156t-273 58q-144 0 -275.5 -58t-226.5 -155.5t-151.5 -232t-56.5 -281.5q0 -195 95 -362.5t259 -266t356 -98.5zM1239 340h-129l-309 348h-4v-348h-101v754h101v-342h4l309 342h129l-336 -375z" />
    <glyph glyph-name="uni24C1" unicode="&#x28;L&#x29;" 
d="M913 -115q-221 0 -408.5 112t-297 303.5t-109.5 416.5q0 168 64.5 322t174 265.5t260.5 177.5t316 66q164 0 315 -66t260.5 -177.5t175 -265.5t65.5 -322t-65.5 -322t-175 -265.5t-260.5 -178t-315 -66.5zM913 -10q142 0 273 58.5t227 156.5t153.5 232.5t57.5 279.5
q0 146 -57.5 280.5t-153.5 232.5t-227 156t-273 58q-144 0 -275.5 -58t-226.5 -155.5t-151.5 -232t-56.5 -281.5q0 -195 95 -362.5t259 -266t356 -98.5zM1206 340h-522v754h100v-660h422v-94z" />
    <glyph glyph-name="uni24C2" unicode="&#x28;M&#x29;" 
d="M913 -115q-221 0 -408.5 112t-297 303.5t-109.5 416.5q0 168 64.5 322t174 265.5t260.5 177.5t316 66q164 0 315 -66t260.5 -177.5t175 -265.5t65.5 -322t-65.5 -322t-175 -265.5t-260.5 -178t-315 -66.5zM913 -10q142 0 273 58.5t227 156.5t153.5 232.5t57.5 279.5
q0 146 -57.5 280.5t-153.5 232.5t-227 156t-273 58q-144 0 -275.5 -58t-226.5 -155.5t-151.5 -232t-56.5 -281.5q0 -195 95 -362.5t259 -266t356 -98.5zM662 342h-99v752h131l217 -615h7l215 615h131v-752h-97v563h-6l-196 -563h-103l-196 563h-4v-563z" />
    <glyph glyph-name="uni24C3" unicode="&#x28;N&#x29;" 
d="M913 -115q-221 0 -408.5 112t-297 303.5t-109.5 416.5q0 168 64.5 322t174 265.5t260.5 177.5t316 66q164 0 315 -66t260.5 -177.5t175 -265.5t65.5 -322t-65.5 -322t-175 -265.5t-260.5 -178t-315 -66.5zM913 -10q142 0 273 58.5t227 156.5t153.5 232.5t57.5 279.5
q0 146 -57.5 280.5t-153.5 232.5t-227 156t-273 58q-144 0 -275.5 -58t-226.5 -155.5t-151.5 -232t-56.5 -281.5q0 -195 95 -362.5t259 -266t356 -98.5zM729 340h-100v754h100l365 -574h4v574h100v-754h-100l-365 573h-4v-573z" />
    <glyph glyph-name="uni24C4" unicode="&#x28;O&#x29;" 
d="M913 -115q-221 0 -408.5 112t-297 303.5t-109.5 416.5q0 168 64.5 322t174 265.5t260.5 177.5t316 66q164 0 315 -66t260.5 -177.5t175 -265.5t65.5 -322t-65.5 -322t-175 -265.5t-260.5 -178t-315 -66.5zM913 -10q142 0 273 58.5t227 156.5t153.5 232.5t57.5 279.5
q0 146 -57.5 280.5t-153.5 232.5t-227 156t-273 58q-144 0 -275.5 -58t-226.5 -155.5t-151.5 -232t-56.5 -281.5q0 -195 95 -362.5t259 -266t356 -98.5zM915 326q-152 0 -239.5 107.5t-87.5 279.5v8q0 171 88 279t239 108q148 0 236 -108.5t88 -278.5v-8q0 -172 -87 -279.5
t-237 -107.5zM915 420q104 0 165 80.5t61 210.5v12q0 128 -61.5 210.5t-164.5 82.5q-104 0 -165.5 -82t-61.5 -211v-12q0 -130 61 -210.5t166 -80.5z" />
    <glyph glyph-name="uni24C5" unicode="&#x28;P&#x29;" 
d="M913 -115q-221 0 -408.5 112t-297 303.5t-109.5 416.5q0 168 64.5 322t174 265.5t260.5 177.5t316 66q164 0 315 -66t260.5 -177.5t175 -265.5t65.5 -322t-65.5 -322t-175 -265.5t-260.5 -178t-315 -66.5zM913 -10q142 0 273 58.5t227 156.5t153.5 232.5t57.5 279.5
q0 146 -57.5 280.5t-153.5 232.5t-227 156t-273 58q-144 0 -275.5 -58t-226.5 -155.5t-151.5 -232t-56.5 -281.5q0 -195 95 -362.5t259 -266t356 -98.5zM776 340h-98v754h323q114 0 177 -59t63 -165q0 -104 -63 -162.5t-177 -58.5h-225v-309zM776 1001v-260h225
q142 0 142 131q0 129 -142 129h-225z" />
    <glyph glyph-name="uni24C6" unicode="&#x28;Q&#x29;" 
d="M913 -115q-221 0 -408.5 112t-297 303.5t-109.5 416.5q0 168 64.5 322t174 265.5t260.5 177.5t316 66q164 0 315 -66t260.5 -177.5t175 -265.5t65.5 -322t-65.5 -322t-175 -265.5t-260.5 -178t-315 -66.5zM913 -10q142 0 273 58.5t227 156.5t153.5 232.5t57.5 279.5
q0 146 -57.5 280.5t-153.5 232.5t-227 156t-273 58q-144 0 -275.5 -58t-226.5 -155.5t-151.5 -232t-56.5 -281.5q0 -195 95 -362.5t259 -266t356 -98.5zM1221 383l-66 -80q-61 17 -113 57q-58 -24 -129 -24q-151 0 -238 107.5t-87 279.5v8q0 171 88 279t237 108t236.5 -108
t87.5 -279v-8q0 -196 -107 -303q55 -28 91 -37zM913 430q104 0 166 81t62 210v12q0 128 -62 210.5t-166 82.5q-102 0 -163.5 -82.5t-61.5 -210.5v-12q0 -130 60.5 -210.5t164.5 -80.5z" />
    <glyph glyph-name="uni24C7" unicode="&#x28;R&#x29;" 
d="M913 -115q-221 0 -408.5 112t-297 303.5t-109.5 416.5q0 168 64.5 322t174 265.5t260.5 177.5t316 66q164 0 315 -66t260.5 -177.5t175 -265.5t65.5 -322t-65.5 -322t-175 -265.5t-260.5 -178t-315 -66.5zM913 -10q142 0 273 58.5t227 156.5t153.5 232.5t57.5 279.5
q0 146 -57.5 280.5t-153.5 232.5t-227 156t-273 58q-144 0 -275.5 -58t-226.5 -155.5t-151.5 -232t-56.5 -281.5q0 -195 95 -362.5t259 -266t356 -98.5zM752 340h-101v754h324q115 0 177 -59t62 -165q0 -83 -40 -137.5t-115 -73.5l168 -319h-109l-162 309h-204v-309z
M752 1001v-260h223q141 0 141 131q0 129 -141 129h-223z" />
    <glyph glyph-name="uni24C8" unicode="&#x28;S&#x29;" 
d="M913 -115q-221 0 -408.5 112t-297 303.5t-109.5 416.5q0 168 64.5 322t174 265.5t260.5 177.5t316 66q164 0 315 -66t260.5 -177.5t175 -265.5t65.5 -322t-65.5 -322t-175 -265.5t-260.5 -178t-315 -66.5zM913 -10q142 0 273 58.5t227 156.5t153.5 232.5t57.5 279.5
q0 146 -57.5 280.5t-153.5 232.5t-227 156t-273 58q-144 0 -275.5 -58t-226.5 -155.5t-151.5 -232t-56.5 -281.5q0 -195 95 -362.5t259 -266t356 -98.5zM918 326q-133 0 -209 60.5t-76 166.5h98q1 -65 50 -99t139 -34q81 0 128.5 34t47.5 91q0 44 -36.5 72.5t-127.5 54.5
l-58 16q-118 34 -173.5 85t-55.5 126q0 94 73.5 151.5t196.5 57.5q122 0 193 -58t74 -159h-99q-1 58 -46.5 91.5t-121.5 33.5q-81 0 -126.5 -30t-45.5 -83q0 -41 37.5 -71t122.5 -54l60 -16q122 -37 177.5 -86.5t55.5 -124.5q0 -103 -76 -164t-202 -61z" />
    <glyph glyph-name="uni24C9" unicode="&#x28;T&#x29;" 
d="M913 -115q-221 0 -408.5 112t-297 303.5t-109.5 416.5q0 168 64.5 322t174 265.5t260.5 177.5t316 66q164 0 315 -66t260.5 -177.5t175 -265.5t65.5 -322t-65.5 -322t-175 -265.5t-260.5 -178t-315 -66.5zM913 -10q142 0 273 58.5t227 156.5t153.5 232.5t57.5 279.5
q0 146 -57.5 280.5t-153.5 232.5t-227 156t-273 58q-144 0 -275.5 -58t-226.5 -155.5t-151.5 -232t-56.5 -281.5q0 -195 95 -362.5t259 -266t356 -98.5zM963 299h-101v662h-241v92h585v-92h-243v-662z" />
    <glyph glyph-name="uni24CA" unicode="&#x28;U&#x29;" 
d="M913 -115q-221 0 -408.5 112t-297 303.5t-109.5 416.5q0 168 64.5 322t174 265.5t260.5 177.5t316 66q164 0 315 -66t260.5 -177.5t175 -265.5t65.5 -322t-65.5 -322t-175 -265.5t-260.5 -178t-315 -66.5zM913 -10q142 0 273 58.5t227 156.5t153.5 232.5t57.5 279.5
q0 146 -57.5 280.5t-153.5 232.5t-227 156t-273 58q-144 0 -275.5 -58t-226.5 -155.5t-151.5 -232t-56.5 -281.5q0 -195 95 -362.5t259 -266t356 -98.5zM915 293q-140 0 -217 90.5t-77 247.5v430h100v-432q0 -115 50.5 -178.5t143.5 -63.5q92 0 142.5 64t50.5 178v432h98
v-430q0 -157 -76.5 -247.5t-214.5 -90.5z" />
    <glyph glyph-name="uni24CB" unicode="&#x28;V&#x29;" 
d="M913 -115q-221 0 -408.5 112t-297 303.5t-109.5 416.5q0 168 64.5 322t174 265.5t260.5 177.5t316 66q164 0 315 -66t260.5 -177.5t175 -265.5t65.5 -322t-65.5 -322t-175 -265.5t-260.5 -178t-315 -66.5zM913 -10q142 0 273 58.5t227 156.5t153.5 232.5t57.5 279.5
q0 146 -57.5 280.5t-153.5 232.5t-227 156t-273 58q-144 0 -275.5 -58t-226.5 -155.5t-151.5 -232t-56.5 -281.5q0 -195 95 -362.5t259 -266t356 -98.5zM967 299h-107l-297 754h103l245 -639h4l246 639h101z" />
    <glyph glyph-name="uni24CC" unicode="&#x28;W&#x29;" 
d="M913 -115q-221 0 -408.5 112t-297 303.5t-109.5 416.5q0 168 64.5 322t174 265.5t260.5 177.5t316 66q164 0 315 -66t260.5 -177.5t175 -265.5t65.5 -322t-65.5 -322t-175 -265.5t-260.5 -178t-315 -66.5zM913 -10q142 0 273 58.5t227 156.5t153.5 232.5t57.5 279.5
q0 146 -57.5 280.5t-153.5 232.5t-227 156t-273 58q-144 0 -275.5 -58t-226.5 -155.5t-151.5 -232t-56.5 -281.5q0 -195 95 -362.5t259 -266t356 -98.5zM741 299h-96l-219 754h100l166 -590h4l168 590h99l167 -590h5l165 590h101l-219 -754h-97l-167 586h-7z" />
    <glyph glyph-name="uni24CD" unicode="&#x28;X&#x29;" 
d="M913 -115q-221 0 -408.5 112t-297 303.5t-109.5 416.5q0 168 64.5 322t174 265.5t260.5 177.5t316 66q164 0 315 -66t260.5 -177.5t175 -265.5t65.5 -322t-65.5 -322t-175 -265.5t-260.5 -178t-315 -66.5zM913 -10q142 0 273 58.5t227 156.5t153.5 232.5t57.5 279.5
q0 146 -57.5 280.5t-153.5 232.5t-227 156t-273 58q-144 0 -275.5 -58t-226.5 -155.5t-151.5 -232t-56.5 -281.5q0 -195 95 -362.5t259 -266t356 -98.5zM711 340h-115l260 377l-260 377h115l200 -289h4l199 289h115l-260 -377l260 -377h-115l-199 291h-4z" />
    <glyph glyph-name="uni24CE" unicode="&#x28;Y&#x29;" 
d="M913 -115q-221 0 -408.5 112t-297 303.5t-109.5 416.5q0 168 64.5 322t174 265.5t260.5 177.5t316 66q164 0 315 -66t260.5 -177.5t175 -265.5t65.5 -322t-65.5 -322t-175 -265.5t-260.5 -178t-315 -66.5zM913 -10q142 0 273 58.5t227 156.5t153.5 232.5t57.5 279.5
q0 146 -57.5 280.5t-153.5 232.5t-227 156t-273 58q-144 0 -275.5 -58t-226.5 -155.5t-151.5 -232t-56.5 -281.5q0 -195 95 -362.5t259 -266t356 -98.5zM963 299h-99v307l-280 447h116l211 -342h7l210 342h115l-280 -447v-307z" />
    <glyph glyph-name="uni24CF" unicode="&#x28;Z&#x29;" 
d="M913 -115q-221 0 -408.5 112t-297 303.5t-109.5 416.5q0 168 64.5 322t174 265.5t260.5 177.5t316 66q164 0 315 -66t260.5 -177.5t175 -265.5t65.5 -322t-65.5 -322t-175 -265.5t-260.5 -178t-315 -66.5zM913 -10q142 0 273 58.5t227 156.5t153.5 232.5t57.5 279.5
q0 146 -57.5 280.5t-153.5 232.5t-227 156t-273 58q-144 0 -275.5 -58t-226.5 -155.5t-151.5 -232t-56.5 -281.5q0 -195 95 -362.5t259 -266t356 -98.5zM1198 340h-571v84l440 571v6h-434v93h559v-84l-436 -572v-4h442v-94z" />
    <glyph glyph-name="uni24EA" unicode="&#x28;&#x30;&#x29;" 
d="M913 -115q-221 0 -408.5 112t-297 303.5t-109.5 416.5q0 168 64.5 322t174 265.5t260.5 177.5t316 66q164 0 315 -66t260.5 -177.5t175 -265.5t65.5 -322t-65.5 -322t-175 -265.5t-260.5 -178t-315 -66.5zM913 -10q142 0 273 58.5t227 156.5t153.5 232.5t57.5 279.5
q0 146 -57.5 280.5t-153.5 232.5t-227 156t-273 58q-144 0 -275.5 -58t-226.5 -155.5t-151.5 -232t-56.5 -281.5q0 -195 95 -362.5t259 -266t356 -98.5zM913 326q-136 0 -219.5 106.5t-83.5 280.5v8q0 172 83.5 279.5t219.5 107.5q137 0 220.5 -108.5t83.5 -278.5v-8
q0 -174 -83 -280.5t-221 -106.5zM913 420q92 0 149.5 80.5t57.5 210.5v12q0 128 -57.5 210.5t-149.5 82.5q-90 0 -148 -82.5t-58 -210.5v-12q0 -129 57 -210t149 -81z" />
    <glyph glyph-name="uni24EB" unicode="&#x7b;&#x31;&#x31;&#x7d;" 
d="M913 -115q-221 0 -408.5 112t-297 303.5t-109.5 416.5q0 168 64.5 322t174 265.5t260.5 177.5t316 66q164 0 315 -66t260.5 -177.5t175 -265.5t65.5 -322t-65.5 -322t-175 -265.5t-260.5 -178t-315 -66.5zM647 944v-604h101v725h-74q-27 -42 -87.5 -74.5t-101.5 -25.5
v-97q46 -6 98 21.5t64 54.5zM1100 944v-604h98v725h-74q-25 -42 -86 -74.5t-100 -25.5v-97q46 -6 98 21.5t64 54.5z" />
    <glyph glyph-name="uni24EC" unicode="&#x7b;&#x31;&#x32;&#x7d;" 
d="M913 -115q-221 0 -408.5 112t-297 303.5t-109.5 416.5q0 168 64.5 322t174 265.5t260.5 177.5t316 66q164 0 315 -66t260.5 -177.5t175 -265.5t65.5 -322t-65.5 -322t-175 -265.5t-260.5 -178t-315 -66.5zM817 418v-76h494v92h-346l258 248q82 82 82 184q0 94 -64 154.5
t-168 60.5q-108 0 -176 -70.5t-70 -181.5h99q-2 71 39 115.5t108 44.5q63 0 98 -32.5t35 -92.5q0 -77 -51 -125zM600 944v-604h98v725h-73q-25 -41 -86 -74t-101 -26v-97q46 -6 98 21.5t64 54.5z" />
    <glyph glyph-name="uni24ED" unicode="&#x7b;&#x31;&#x33;&#x7d;" 
d="M913 -115q-221 0 -408.5 112t-297 303.5t-109.5 416.5q0 168 64.5 322t174 265.5t260.5 177.5t316 66q164 0 315 -66t260.5 -177.5t175 -265.5t65.5 -322t-65.5 -322t-175 -265.5t-260.5 -178t-315 -66.5zM1075 324q116 0 189 60t73 155q0 61 -29 108t-81 72
q38 26 61 67.5t23 85.5q0 87 -69.5 146t-168.5 59q-105 0 -176 -58.5t-74 -148.5h97q3 50 45.5 82.5t105.5 32.5q61 0 102 -32.5t41 -80.5q0 -51 -39.5 -83.5t-101.5 -32.5h-110v-88h108q80 0 125 -33.5t45 -93.5q0 -59 -44.5 -92t-123.5 -33q-68 0 -116.5 34t-51.5 85h-96
q0 -90 76.5 -150.5t189.5 -60.5zM592 944v-604h98v725h-74q-25 -42 -86 -74.5t-102 -25.5v-97q47 -6 98.5 21t65.5 55z" />
    <glyph glyph-name="uni24EE" unicode="&#x7b;&#x31;&#x34;&#x7d;" 
d="M913 -115q-221 0 -408.5 112t-297 303.5t-109.5 416.5q0 168 64.5 322t174 265.5t260.5 177.5t316 66q164 0 315 -66t260.5 -177.5t175 -265.5t65.5 -322t-65.5 -322t-175 -265.5t-260.5 -178t-315 -66.5zM573 944v-604h99v725h-74q-27 -42 -87 -74.5t-101 -25.5v-97
q46 -6 98 21t65 55zM1161 492v-152h96v152h105v90h-105v483h-102l-362 -492v-81h368zM1161 582h-258l258 344v-344z" />
    <glyph glyph-name="uni24EF" unicode="&#x7b;&#x31;&#x35;&#x7d;" 
d="M913 -115q-221 0 -408.5 112t-297 303.5t-109.5 416.5q0 168 64.5 322t174 265.5t260.5 177.5t316 66q164 0 315 -66t260.5 -177.5t175 -265.5t65.5 -322t-65.5 -322t-175 -265.5t-260.5 -178t-315 -66.5zM582 944v-604h98v725h-74q-25 -42 -86 -74.5t-102 -25.5v-97
q47 -6 98.5 21t65.5 55zM1085 324q110 0 182 73t72 185q0 110 -69 182t-176 72q-45 0 -82 -19.5t-58 -50.5l29 205h324v92h-406l-49 -397h90q42 79 143 79q70 0 113 -44.5t43 -118.5t-43 -120t-113 -46q-71 0 -115.5 42.5t-45.5 112.5h-95q0 -110 71.5 -178.5t184.5 -68.5z
" />
    <glyph glyph-name="uni24F0" unicode="&#x7b;&#x31;&#x36;&#x7d;" 
d="M913 -115q-221 0 -408.5 112t-297 303.5t-109.5 416.5q0 168 64.5 322t174 265.5t260.5 177.5t316 66q164 0 315 -66t260.5 -177.5t175 -265.5t65.5 -322t-65.5 -322t-175 -265.5t-260.5 -178t-315 -66.5zM1063 319q112 0 181 71t69 185q0 109 -68 179.5t-172 70.5
q-121 0 -180 -116q6 127 52.5 199.5t125.5 72.5q63 0 96 -29t47 -94h93q-9 100 -71.5 157.5t-162.5 57.5q-123 0 -198.5 -108.5t-75.5 -282.5t68.5 -268.5t195.5 -94.5zM590 944v-604h98v723h-74q-25 -40 -86 -72.5t-100 -25.5v-97q46 -6 98 21.5t64 54.5zM1061 412
q-69 0 -112.5 45.5t-43.5 117.5q0 73 43.5 118.5t112.5 45.5t112.5 -45.5t43.5 -118.5q0 -74 -43 -118.5t-113 -44.5z" />
    <glyph glyph-name="uni24F1" unicode="&#x7b;&#x31;&#x37;&#x7d;" 
d="M913 -115q-221 0 -408.5 112t-297 303.5t-109.5 416.5q0 168 64.5 322t174 265.5t260.5 177.5t316 66q164 0 315 -66t260.5 -177.5t175 -265.5t65.5 -322t-65.5 -322t-175 -265.5t-260.5 -178t-315 -66.5zM594 944v-604h100v725h-73q-27 -42 -87.5 -74.5t-101.5 -25.5
v-97q46 -6 98 21.5t64 54.5zM1012 340h96q0 186 59 342.5t185 302.5v80h-500v-92h375q-104 -135 -160 -299t-55 -334z" />
    <glyph glyph-name="uni24F2" unicode="&#x7b;&#x31;&#x38;&#x7d;" 
d="M913 -115q-221 0 -408.5 112t-297 303.5t-109.5 416.5q0 168 64.5 322t174 265.5t260.5 177.5t316 66q164 0 315 -66t260.5 -177.5t175 -265.5t65.5 -322t-65.5 -322t-175 -265.5t-260.5 -178t-315 -66.5zM1063 326q113 0 188.5 62t75.5 157q0 111 -113 174q86 58 86 158
q0 89 -67.5 145.5t-169.5 56.5t-169 -56.5t-67 -145.5q0 -99 84 -158q-55 -28 -85.5 -73.5t-30.5 -100.5q0 -96 76 -157.5t192 -61.5zM600 944v-604h98v725h-73q-27 -42 -87.5 -74.5t-101.5 -25.5v-97q46 -6 98.5 21t65.5 55zM1063 764q-63 0 -101 30.5t-38 82.5
q0 50 37.5 80t101.5 30q63 0 101 -30t38 -80q0 -52 -37 -82.5t-102 -30.5zM1063 418q-75 0 -122.5 36t-47.5 93q0 54 47.5 88.5t122.5 34.5t121.5 -34.5t46.5 -88.5q0 -57 -47 -93t-121 -36z" />
    <glyph glyph-name="uni24F3" unicode="&#x7b;&#x31;&#x39;&#x7d;" 
d="M913 -115q-221 0 -408.5 112t-297 303.5t-109.5 416.5q0 168 64.5 322t174 265.5t260.5 177.5t316 66q164 0 315 -66t260.5 -177.5t175 -265.5t65.5 -322t-65.5 -322t-175 -265.5t-260.5 -178t-315 -66.5zM1051 326q123 0 198.5 108.5t75.5 282.5t-68.5 268t-195.5 94
q-112 0 -181 -71t-69 -185q0 -109 68 -179.5t174 -70.5q69 0 114.5 35t63.5 82q-6 -128 -52 -200t-126 -72q-63 0 -96.5 29t-47.5 94h-92q9 -100 71.5 -157.5t162.5 -57.5zM600 944v-604h98v725h-73q-27 -42 -87.5 -74.5t-101.5 -25.5v-97q46 -6 98.5 21t65.5 55zM1063 659
q-69 0 -112.5 45.5t-43.5 118.5q0 74 43 119t113 45q69 0 112.5 -46t43.5 -118q0 -73 -43.5 -118.5t-112.5 -45.5z" />
    <glyph glyph-name="uni24F4" unicode="&#x7b;&#x32;&#x30;&#x7d;" 
d="M913 -115q-221 0 -408.5 112t-297 303.5t-109.5 416.5q0 168 64.5 322t174 265.5t260.5 177.5t316 66q164 0 315 -66t260.5 -177.5t175 -265.5t65.5 -322t-65.5 -322t-175 -265.5t-260.5 -178t-315 -66.5zM1167 371q126 0 201.5 95.5t75.5 252.5v8q0 153 -76 250.5
t-201 97.5q-121 0 -196.5 -97t-75.5 -251v-8q0 -157 74 -252.5t198 -95.5zM406 453v-72h464v86h-321l125 119q59 47 114 114q76 91 76 172q0 90 -59.5 145.5t-157.5 55.5q-104 0 -167.5 -65t-63.5 -170h92q0 66 38 107.5t101 41.5q59 0 92 -30.5t33 -86.5q0 -55 -49 -116
q-27 -34 -100 -103zM1167 457q-82 0 -132 72t-50 190v8q0 115 51 188.5t131 73.5q83 0 134 -73t51 -189v-8q0 -118 -51 -190t-134 -72z" />
    <glyph glyph-name="uni24FF" unicode="&#x7b;&#x30;&#x7d;" 
d="M913 -115q-221 0 -408.5 112t-297 303.5t-109.5 416.5q0 168 64.5 322t174 265.5t260.5 177.5t316 66q164 0 315 -66t260.5 -177.5t175 -265.5t65.5 -322t-65.5 -322t-175 -265.5t-260.5 -178t-315 -66.5zM913 326q138 0 221 106.5t83 280.5v8q0 170 -83.5 278.5
t-220.5 108.5q-136 0 -219.5 -107.5t-83.5 -279.5v-8q0 -174 83.5 -280.5t219.5 -106.5zM913 420q-92 0 -149 81t-57 210v12q0 128 58 210.5t148 82.5q92 0 149.5 -82.5t57.5 -210.5v-12q0 -130 -57.5 -210.5t-149.5 -80.5z" />
    <glyph glyph-name="filledbox" unicode="&#x23;SQUARE" horiz-adv-x="1712" 
d="M1561 0h-1409v1434h1409v-1434z" />
    <glyph glyph-name="triagup" unicode="&#x23;TRIANGLE" horiz-adv-x="1736" 
d="M1667 0h-1599l798 1436z" />
    <glyph glyph-name="uni25CF" unicode="&#x23;CIRCLE" horiz-adv-x="1701" 
d="M850 -31q-203 0 -375 100.5t-272.5 272.5t-100.5 375q0 151 59.5 289t159.5 238t238.5 159t290.5 59q151 0 289 -59t238 -159t159 -238t59 -289q0 -152 -59 -290.5t-159 -238.5t-238 -159.5t-289 -59.5z" />
    <glyph glyph-name="uni26AC" unicode="&#x23;CORRECT" horiz-adv-x="1243" 
d="M623 236q-184 0 -313.5 128.5t-129.5 311.5t129.5 311.5t313.5 128.5q183 0 311.5 -128.5t128.5 -311.5t-128.5 -311.5t-311.5 -128.5zM623 352q134 0 227.5 94.5t93.5 229.5t-93.5 229t-227.5 94q-135 0 -229.5 -94t-94.5 -229t94.5 -229.5t229.5 -94.5z" />
    <glyph glyph-name="uni2713" unicode="&#x23;CHECK" horiz-adv-x="1540" 
d="M1413 1047l-842 -838l-444 444l92 90l352 -350l750 748z" />
    <glyph glyph-name="uni2717" unicode="&#x2d;CANCEL" horiz-adv-x="1570" 
d="M784 584l-387 -389l-92 92l387 387l-387 391l90 90l389 -391l392 391l90 -90l-389 -391l387 -387l-90 -92z" />
    <glyph glyph-name="uni277F" unicode="&#x7b;&#x31;&#x30;&#x7d;" 
d="M913 -115q-221 0 -408.5 112t-297 303.5t-109.5 416.5q0 168 64.5 322t174 265.5t260.5 177.5t316 66q164 0 315 -66t260.5 -177.5t175 -265.5t65.5 -322t-65.5 -322t-175 -265.5t-260.5 -178t-315 -66.5zM1090 326q132 0 211 102t79 270v9q0 163 -79.5 267.5
t-210.5 104.5q-130 0 -210.5 -103.5t-80.5 -268.5v-9q0 -169 79 -270.5t212 -101.5zM582 944v-604h98v725h-74q-25 -42 -86 -74.5t-102 -25.5v-97q48 -6 100 21t64 55zM1090 418q-88 0 -142.5 77t-54.5 201v13q0 123 55.5 200.5t141.5 77.5t142 -78.5t56 -199.5v-13
q0 -125 -54.5 -201.5t-143.5 -76.5z" />
    <glyph glyph-name="uni278A" unicode="&#x7b;&#x31;&#x7d;" 
d="M913 -115q-221 0 -408.5 112t-297 303.5t-109.5 416.5q0 168 64.5 322t174 265.5t260.5 177.5t316 66q164 0 315 -66t260.5 -177.5t175 -265.5t65.5 -322t-65.5 -322t-175 -265.5t-260.5 -178t-315 -66.5zM885 973v-633h100v754h-74q-27 -42 -88 -75t-100 -26v-98
q47 -6 99 21.5t63 56.5z" />
    <glyph glyph-name="uni278B" unicode="&#x7b;&#x32;&#x7d;" 
d="M913 -115q-221 0 -408.5 112t-297 303.5t-109.5 416.5q0 168 64.5 322t174 265.5t260.5 177.5t316 66q164 0 315 -66t260.5 -177.5t175 -265.5t65.5 -322t-65.5 -322t-175 -265.5t-260.5 -178t-315 -66.5zM657 432v-76h512v95h-360l145 133q91 85 125 129q84 100 84 186
q0 99 -66 161t-173 62q-112 0 -181.5 -71t-72.5 -187h98q0 74 43 120t113 46q66 0 102.5 -34t36.5 -97q0 -70 -55 -133q-39 -48 -111 -111z" />
    <glyph glyph-name="uni278C" unicode="&#x7b;&#x33;&#x7d;" 
d="M913 -115q-221 0 -408.5 112t-297 303.5t-109.5 416.5q0 168 64.5 322t174 265.5t260.5 177.5t316 66q164 0 315 -66t260.5 -177.5t175 -265.5t65.5 -322t-65.5 -322t-175 -265.5t-260.5 -178t-315 -66.5zM915 326q120 0 196.5 62.5t76.5 160.5q0 63 -31.5 112t-85.5 74
q41 28 65.5 72t24.5 90q0 90 -72.5 150.5t-175.5 60.5q-108 0 -182.5 -60.5t-77.5 -152.5h101q1 52 46 86.5t111 34.5q65 0 108.5 -34t43.5 -85q0 -52 -43.5 -87.5t-106.5 -35.5h-114v-90h112q83 0 129.5 -35t46.5 -98q0 -62 -45.5 -96.5t-128.5 -34.5q-72 0 -122.5 35.5
t-53.5 89.5h-98q0 -95 79 -157t197 -62z" />
    <glyph glyph-name="uni278D" unicode="&#x7b;&#x34;&#x7d;" 
d="M913 -115q-221 0 -408.5 112t-297 303.5t-109.5 416.5q0 168 64.5 322t174 265.5t260.5 177.5t316 66q164 0 315 -66t260.5 -177.5t175 -265.5t65.5 -322t-65.5 -322t-175 -265.5t-260.5 -178t-315 -66.5zM963 504v-158h100v158h108v92h-108v504h-105l-378 -510v-86h383z
M963 596h-273l273 362v-362z" />
    <glyph glyph-name="uni278E" unicode="&#x7b;&#x35;&#x7d;" 
d="M913 -115q-221 0 -408.5 112t-297 303.5t-109.5 416.5q0 168 64.5 322t174 265.5t260.5 177.5t316 66q164 0 315 -66t260.5 -177.5t175 -265.5t65.5 -322t-65.5 -322t-175 -265.5t-260.5 -178t-315 -66.5zM915 305q115 0 189 75.5t74 192.5q0 114 -71.5 189.5
t-180.5 75.5q-97 0 -150 -74l31 217h338v92h-422l-51 -411h94q42 83 149 83q73 0 118.5 -48.5t45.5 -123.5q0 -77 -45.5 -125.5t-118.5 -48.5q-75 0 -122 44.5t-48 117.5h-96q0 -115 74 -185.5t192 -70.5z" />
    <glyph glyph-name="uni278F" unicode="&#x7b;&#x36;&#x7d;" 
d="M913 -115q-221 0 -408.5 112t-297 303.5t-109.5 416.5q0 168 64.5 322t174 265.5t260.5 177.5t316 66q164 0 315 -66t260.5 -177.5t175 -265.5t65.5 -322t-65.5 -322t-175 -265.5t-260.5 -178t-315 -66.5zM922 322q116 0 188 74t72 192q0 112 -71.5 186t-178.5 74
q-76 0 -118.5 -30t-68.5 -91q5 135 53 210t132 75q65 0 100.5 -31t50.5 -98h95q-7 101 -74 161t-170 60q-127 0 -206 -113t-79 -293t71.5 -278t203.5 -98zM922 416q-73 0 -119.5 48t-46.5 122q0 76 46 124t120 48q72 0 115.5 -47.5t43.5 -124.5q0 -76 -44 -123t-115 -47z
" />
    <glyph glyph-name="uni2790" unicode="&#x7b;&#x37;&#x7d;" 
d="M913 -115q-221 0 -408.5 112t-297 303.5t-109.5 416.5q0 168 64.5 322t174 265.5t260.5 177.5t316 66q164 0 315 -66t260.5 -177.5t175 -265.5t65.5 -322t-65.5 -322t-175 -265.5t-260.5 -178t-315 -66.5zM821 319h99q2 192 64 355t192 315v84h-521v-92h392
q-109 -141 -167.5 -312.5t-58.5 -349.5z" />
    <glyph glyph-name="uni2791" unicode="&#x7b;&#x38;&#x7d;" 
d="M913 -115q-221 0 -408.5 112t-297 303.5t-109.5 416.5q0 168 64.5 322t174 265.5t260.5 177.5t316 66q164 0 315 -66t260.5 -177.5t175 -265.5t65.5 -322t-65.5 -322t-175 -265.5t-260.5 -178t-315 -66.5zM915 326q118 0 196.5 64t78.5 163q0 57 -31.5 105t-83.5 75
q39 28 62.5 72t23.5 94q0 91 -70 150t-176 59t-175.5 -59t-69.5 -150q0 -50 23 -93.5t61 -70.5q-54 -27 -85.5 -75t-31.5 -107q0 -99 79.5 -163t198.5 -64zM915 780q-68 0 -107.5 32t-39.5 87q0 53 40 85t107 32q66 0 107 -33t41 -84q0 -54 -41 -86.5t-107 -32.5zM915 420
q-79 0 -128.5 37.5t-49.5 97.5q0 57 49.5 93t128.5 36q77 0 127 -36t50 -93q0 -60 -50 -97.5t-127 -37.5z" />
    <glyph glyph-name="uni2792" unicode="&#x7b;&#x39;&#x7d;" 
d="M913 -115q-221 0 -408.5 112t-297 303.5t-109.5 416.5q0 168 64.5 322t174 265.5t260.5 177.5t316 66q164 0 315 -66t260.5 -177.5t175 -265.5t65.5 -322t-65.5 -322t-175 -265.5t-260.5 -178t-315 -66.5zM899 326q128 0 207.5 112.5t79.5 292.5q0 181 -72 279t-203 98
q-117 0 -189.5 -73.5t-72.5 -190.5q0 -114 71 -187t181 -73q74 0 116.5 31t69.5 92q-6 -135 -54.5 -211t-133.5 -76q-64 0 -99.5 31.5t-47.5 97.5h-95q6 -101 72 -162t170 -61zM911 672q-73 0 -117 47.5t-44 124.5t44 124.5t117 47.5q72 0 117 -48t45 -124t-45 -124
t-117 -48z" />
    <glyph glyph-name="uni27F5" unicode="&#x3c;&#x2d;&#x2d;" horiz-adv-x="2353" 
d="M813 174l-82 -82l-584 584l580 584l86 -84l-446 -445h1837l2 -117l-1837 4z" />
    <glyph glyph-name="uni27F6" unicode="&#x2d;&#x2d;&#x3e;" horiz-adv-x="2353" 
d="M2206 676l-582 -584l-84 84l447 445h-1840v116l1838 -4l-445 443l82 84z" />
    <glyph glyph-name="uni2934" unicode="&#x3c;&#x2d;upround" horiz-adv-x="1660" 
d="M606 123h-397v108h389q184 0 314 131t130 316v424l-219 -219l-78 71l355 357l354 -357l-78 -77l-225 225v-426q-1 -150 -74 -277t-198 -201t-273 -75z" />
    <glyph glyph-name="uni2935" unicode="&#x2d;&#x3e;downround" horiz-adv-x="1660" 
d="M1454 479l-354 -356l-355 356l78 72l219 -219v424q0 185 -130 315.5t-314 130.5h-389v109h397q148 0 273.5 -74t198.5 -201.5t73 -277.5v-426l225 225z" />
    <glyph glyph-name="uni2936" unicode="&#x2d;&#x3e;upround" horiz-adv-x="1300" 
d="M489 172l-77 -78l-357 355l357 354l73 -78l-219 -219h422q185 0 316.5 130t130.5 314v389h110v-397q0 -148 -74.5 -273.5t-202.5 -198.5t-278 -73h-424z" />
    <glyph glyph-name="uni2937" unicode="&#x3c;&#x2d;downround" horiz-adv-x="1300" 
d="M1245 449l-356 -355l-78 78l225 225h-426q-150 0 -278 73t-202.5 198.5t-74.5 273.5v397h111v-389q0 -184 130.5 -314t315.5 -130h422l-219 219l74 78z" />
    <glyph glyph-name="uniE001" unicode="&#x23;LANE" horiz-adv-x="1878" 
d="M260 -29h-78v1491h78v-1491zM741 -29h-79v1491h79v-1491zM1219 -29h-78v1491h78v-1491zM1696 -29h-78v1491h78v-1491z" />
    <glyph glyph-name="uniE002" unicode="&#x23;MEETING" horiz-adv-x="1964" 
d="M981 741q-150 0 -256.5 106.5t-106.5 254.5q0 149 106 254.5t257 105.5q150 0 255 -105t105 -255q0 -148 -105.5 -254.5t-254.5 -106.5zM981 821q117 0 199 82t82 199t-82 198.5t-199 81.5t-200 -81.5t-83 -198.5t83 -199t200 -82zM532 -29q-150 0 -256 105.5t-106 255.5
q0 149 105.5 254.5t256.5 105.5q149 0 255 -105.5t106 -254.5t-106 -255t-255 -106zM1430 -29q-149 0 -255 106.5t-106 254.5q0 149 106 254.5t255 105.5q150 0 255 -105t105 -255t-105 -255.5t-255 -105.5zM532 51q117 0 199 82t82 199t-82 198.5t-199 81.5t-199.5 -81.5
t-82.5 -198.5t82.5 -199t199.5 -82zM1430 51q118 0 200 82t82 199t-82 198.5t-200 81.5q-116 0 -198.5 -81.5t-82.5 -198.5t82.5 -199t198.5 -82z" />
    <glyph glyph-name="uniE003" unicode="&#x23;BEACH" horiz-adv-x="1748" 
d="M907 707h-65q3 398 -322 569q-73 38 -159 60t-125 26t-62 4l2 80q18 0 60 -5t136 -30.5t175 -67.5q109 -55 194 -137t133 -211q79 222 326 348q82 42 172.5 67.5t130 30.5t56.5 5v-80q-14 0 -50.5 -4t-122.5 -27t-159 -61q-323 -171 -320 -567zM1561 346h-1375v80h1375
v-80zM1561 -23h-1375v80h1375v-80z" />
    <glyph glyph-name="uniE004" unicode="&#x23;STAIR" horiz-adv-x="2174" 
d="M629 -27h-455v78h377v355h336v356h346v358h340v328h428v-78h-350v-328h-338v-358h-348v-356h-336v-355z" />
    <glyph glyph-name="uniE005" unicode="&#x23;TWOWAY" horiz-adv-x="3002" 
d="M1493 -25q-205 0 -392 80t-322.5 215.5t-215.5 323t-80 393.5l4 330l-256 -252l-49 45l338 338l352 -350l-49 -45l-268 266v-332q0 -190 74.5 -363t200 -298t299 -199t364.5 -74q252 0 468.5 125.5t344 341t127.5 467.5v332l-254 -252l-49 45l338 336l354 -352l-51 -47
l-268 268v-334q0 -136 -37 -266.5t-102.5 -241t-159 -203.5t-204 -158.5t-241 -102t-266.5 -36.5z" />
    <glyph glyph-name="uniE006" unicode="&#x23;CABINET" horiz-adv-x="1839" 
d="M1657 -20h-1475v1474h1475v-1474zM260 1374v-381h1317v381h-1317zM260 915v-393h1317v393h-1317zM260 442v-385h1317v385h-1317z" />
    <glyph glyph-name="uniE007" unicode="&#x23;FOREST" horiz-adv-x="1882" 
d="M952 -10l-344 651l-338 -649l-67 35l362 698l-362 682l67 37l336 -635l328 635l342 -651l338 651l67 -37l-360 -698l360 -680l-67 -37l-338 633zM936 1276l-285 -551l299 -565l283 549z" />
    <glyph glyph-name="uniE008" unicode="&#x23;HOUSE" horiz-adv-x="1816" 
d="M1634 -20h-1452v876l727 596l725 -596v-876zM258 819v-760l610 2v1254zM946 61l610 -2v760l-610 496v-1254z" />
    <glyph glyph-name="uniE009" unicode="&#x23;WINE" horiz-adv-x="1828" 
d="M1647 -20h-1465v77h692v611q-191 9 -350.5 109.5t-250.5 265t-91 356.5v55h1465v-55q0 -191 -92.5 -356.5t-252.5 -265.5t-350 -109v-611h695v-77zM874 745v629h-614q5 -165 88 -307t222.5 -228t303.5 -94zM952 1374v-629q164 8 304 94t223 228t88 307h-615z" />
    <glyph glyph-name="uniE010" unicode="&#x23;HOSPITAL" horiz-adv-x="1832" 
d="M260 -20h-78v876l731 596l736 -596l2 -876h-80v839l-660 524l-651 -524v-839zM956 387h-77v217h-217v78h217v217h77v-217h218v-78h-218v-217z" />
    <glyph glyph-name="uniE011" unicode="&#x23;MEN" horiz-adv-x="1847" 
d="M918 727q-151 0 -258 106t-107 257t107 257.5t258 106.5t256.5 -106.5t105.5 -257.5t-105.5 -257t-256.5 -106zM918 805q117 0 200.5 84t83.5 201q0 118 -83.5 201t-200.5 83q-119 0 -202 -83t-83 -201q0 -117 83.5 -201t201.5 -84zM260 -20h-78v595h1483v-595h-80v518
h-1325v-518z" />
    <glyph glyph-name="uniE012" unicode="&#x23;WOMEN" horiz-adv-x="1644" 
d="M817 727q-151 0 -257.5 106t-106.5 257t106.5 257.5t257.5 106.5q149 0 256 -107t107 -257t-106.5 -256.5t-256.5 -106.5zM817 805q117 0 201 84t84 201q0 118 -84 202t-201 84q-119 0 -203 -84t-84 -202q0 -117 84.5 -201t202.5 -84zM264 -20h-78l201 595h870l201 -595
h-78l-174 518h-768z" />
    <glyph glyph-name="uniE013" unicode="&#x23;NO" horiz-adv-x="1839" 
d="M920 -23q-153 2 -292.5 62t-246.5 172q-96 102 -147.5 233t-51.5 273q0 150 58.5 286.5t157 235.5t235.5 158t287 59q200 0 369.5 -99.5t268.5 -269.5t99 -370q0 -150 -58.5 -286.5t-157.5 -236t-235.5 -158.5t-285.5 -59zM414 295l958 901q-92 88 -209 135t-243 47
q-134 0 -256.5 -52.5t-211 -141t-140.5 -211t-52 -256.5q0 -239 154 -422zM920 59q179 0 331.5 88.5t241 240t88.5 329.5q0 228 -156 424l-960 -901q92 -88 209 -134.5t246 -46.5z" />
    <glyph glyph-name="uniE014" unicode="&#x23;MAIL" horiz-adv-x="2471" 
d="M2292 -23h-2110v1479h2110v-1479zM260 1257l977 -501l977 499v121h-1954v-119zM260 1165v-1110h1954v1106l-977 -499z" />
    <glyph glyph-name="uniE015" unicode="&#x23;PEACE" horiz-adv-x="1839" 
d="M920 -23q-150 0 -287 59t-236.5 158.5t-158 236t-58.5 286.5t58.5 286.5t158 235.5t236.5 158t287 59q200 0 369.5 -99.5t268.5 -269.5t99 -370q0 -150 -58.5 -286.5t-157.5 -236t-235.5 -158.5t-285.5 -59zM428 281l455 452l-2 643q-171 -11 -314 -102t-225 -238.5
t-82 -318.5q0 -250 168 -436zM958 733l453 -452q168 192 168 436q0 171 -82 318.5t-225.5 238.5t-315.5 102zM881 57l2 564l-400 -396q174 -150 398 -168zM958 621l-2 -564q223 18 400 168z" />
    <glyph glyph-name="uniE018" unicode="&#x23;BAGGAGE" horiz-adv-x="2109" 
d="M1929 -23h-1747v1231h629v248h494v-248h624v-1231zM889 1376v-168h338v168h-338zM260 1130v-1073h1591v1073h-1591z" />
    <glyph glyph-name="uniE019" unicode="&#x23;CYCLE" horiz-adv-x="2418" 
d="M1624 1380h-307v76h307v-76zM1020 1249h-428v76h428v-76zM612 -23q-179 0 -305.5 126.5t-126.5 306.5q0 178 126.5 305t305.5 127q72 0 142 -25l151 340h662l137 -328q54 13 102 13q179 0 305.5 -127t126.5 -305q0 -181 -126 -307t-306 -126q-179 0 -304.5 126.5
t-125.5 306.5q0 129 70 235.5t184 159.5l-117 274h-559l-131 -293q100 -58 160.5 -158t60.5 -218q0 -181 -126.5 -307t-305.5 -126zM612 53q146 0 250.5 105.5t104.5 251.5q0 95 -48 176.5t-128 128.5l-144 -318l-67 31l141 320q-56 16 -109 16q-147 0 -250.5 -104.5
t-103.5 -249.5q0 -148 103.5 -252.5t250.5 -104.5zM1806 53q147 0 251 105t104 252q0 146 -103.5 250t-251.5 104q-40 0 -71 -8l139 -328l-72 -31l-141 334q-93 -42 -150 -129t-57 -192q0 -148 103 -252.5t249 -104.5z" />
    <glyph glyph-name="uniE020" unicode="&#x23;DOG" horiz-adv-x="2289" 
d="M498 -20h-80v712q-66 8 -115.5 45t-74.5 87.5t-36.5 97t-11.5 86.5h76q2 -19 4 -34t9.5 -48t21 -57t34 -49.5t54.5 -39.5t76 -14l942 61v467q0 66 74.5 112.5t177.5 43.5v-78q-79 0 -124 -21.5t-48 -62.5l630 -158l-82 -339l-550 -37l-2 -774h-78v253h-897v-253z
M1475 1208v-379l487 35l51 211zM498 692v-383h899v441z" />
    <glyph glyph-name="uniE021" unicode="&#x23;FISH" horiz-adv-x="3551" 
d="M1509 -23q-324 0 -674 193t-642 532v29q292 339 642 532t674 193q307 0 632 -178.5t622 -507.5l553 623l51 -52l-557 -624l557 -625l-51 -51l-553 623q-297 -330 -622.5 -508.5t-631.5 -178.5zM1509 57q115 0 234.5 28t220 71.5t201.5 105t176.5 119.5t149.5 124
t116.5 109.5t79.5 85.5l2 33q-39 43 -80.5 85.5t-116.5 110t-150.5 124.5t-177 119.5t-201.5 106t-219.5 71.5t-234.5 28q-114 0 -233 -28t-220 -70.5t-205 -104t-181.5 -118.5t-156 -124.5t-123 -110.5t-87.5 -87l2 -37q41 -43 86.5 -87t122.5 -110.5t155.5 -123.5
t182 -118t204.5 -104t220 -70.5t233 -27.5zM676 641q-34 0 -57 23t-23 55t23 55t57 23q31 0 54.5 -23.5t23.5 -54.5q0 -32 -23 -55t-55 -23z" />
    <glyph glyph-name="uniE022" unicode="&#x23;SOFTWOOD" horiz-adv-x="1863" 
d="M621 -20h-78v768h-355l392 700l352 -621l350 621l395 -700h-356v-768h-78v768h-622v-768zM580 1288l-258 -461h520zM1282 1288l-260 -461h520z" />
    <glyph glyph-name="uniE023" unicode="&#x23;HARDWOOD" horiz-adv-x="1814" 
d="M588 -23h-78v752q-139 14 -233.5 117.5t-94.5 243.5q0 151 107 258.5t258 107.5q139 0 242.5 -94.5t117.5 -231.5q14 137 117.5 231.5t243.5 94.5q149 0 256.5 -107.5t107.5 -258.5q0 -139 -94 -242.5t-231 -118.5v-752h-78v752q-126 12 -217.5 102.5t-104.5 217.5
q-13 -126 -103.5 -216t-215.5 -104v-752zM547 805q117 0 200.5 84t83.5 201q0 118 -83.5 202t-200.5 84q-118 0 -201.5 -83.5t-83.5 -202.5q0 -117 83.5 -201t201.5 -84zM1268 805q117 0 200.5 84t83.5 201q0 118 -83.5 202t-200.5 84q-118 0 -201.5 -83.5t-83.5 -202.5
q0 -117 83.5 -201t201.5 -84z" />
    <glyph glyph-name="uniE024" unicode="&#x23;TENT" horiz-adv-x="2084" 
d="M1896 -18h-1708l854 1468zM1042 1294l-720 -1235l378 2l344 601l340 -601h375zM1042 504l-254 -443h508z" />
    <glyph glyph-name="uniE025" unicode="&#x23;SUNNY" horiz-adv-x="2048" 
d="M985 1565h78v-250h-78v250zM455 1346l178 -179l-55 -53l-179 176zM1591 1346l56 -56l-177 -176l-55 53zM1022 1219q136 0 251.5 -67.5t183 -183t67.5 -251.5q0 -135 -68 -250t-183.5 -182.5t-250.5 -67.5q-33 0 -49 2v-225h-103v227h88q-185 23 -310.5 164.5
t-125.5 331.5q0 136 67.5 251.5t182.5 183t250 67.5zM1022 295q177 0 300.5 123.5t123.5 298.5t-124 299.5t-300 124.5q-175 0 -298.5 -124.5t-123.5 -299.5t123.5 -298.5t298.5 -123.5zM1618 684v78h248v-78h-248zM297 672h225v-103h-225v103zM455 98l-56 56l179 176
l55 -54zM1591 98l-176 178l55 54l177 -176z" />
    <glyph glyph-name="uniE026" unicode="&#x23;LOUNGE" horiz-adv-x="1839" 
d="M920 -23q-149 0 -286 59t-236 158.5t-157.5 236t-58.5 286.5t58.5 286.5t157 235.5t235.5 158t287 59q200 0 369.5 -99.5t268.5 -269.5t99 -370q0 -148 -59 -285t-158 -236.5t-235.5 -159t-284.5 -59.5zM920 57q178 0 329.5 89t239.5 241t88 330q0 133 -52 255
t-140 210.5t-210 141t-255 52.5q-134 0 -256.5 -52t-211 -140t-140.5 -210.5t-52 -256.5t52 -256.5t140.5 -211t211 -140.5t256.5 -52zM920 367q-147 0 -250 102t-103 248t103.5 249t249.5 103t248 -103t102 -249q0 -145 -102.5 -247.5t-247.5 -102.5zM920 446
q113 0 192.5 79.5t79.5 191.5q0 114 -79.5 194t-192.5 80q-115 0 -195 -80t-80 -194q0 -112 80.5 -191.5t194.5 -79.5z" />
    <glyph glyph-name="uniE027" unicode="&#x23;BEER" horiz-adv-x="1949" 
d="M1305 -20h-1123v1468h1123v-242q210 -14 331 -131q133 -124 133 -344q0 -204 -124 -319q-126 -122 -340 -129v-303zM260 1370v-1311h262v1311h-262zM600 1370v-1311h291v1311h-291zM969 1370v-1311h256v1311h-256zM1305 1124v-762q185 14 284 109q99 96 99 260
q0 185 -109 285q-99 94 -274 108z" />
    <glyph glyph-name="uniE028" unicode="&#x23;BEDROOM" horiz-adv-x="3780" 
d="M260 -23h-78v1479h78v-932l3338 -24v-523h-77v443l-3261 22v-465zM1071 1010h-618v77h618v-77zM3590 750h-3137v77h3137v-77z" />
    <glyph glyph-name="uniE029" unicode="&#x23;BUS" horiz-adv-x="3792" 
d="M846 -63q-110 0 -191.5 74.5t-95.5 183.5h-377v1220h3250l179 -467v-743h-361q-11 -111 -96 -189.5t-197 -78.5q-114 0 -197 76.5t-94 187.5l-1529 -2q-12 -111 -95.5 -186.5t-195.5 -75.5zM260 1335v-1065l299 2q15 108 96 180t191 72t193 -72t98 -180l1532 7
q17 105 98 175t190 70q107 0 188.5 -69t100.5 -172l291 2v649l-156 401h-3121zM846 14q92 0 155.5 63t63.5 154t-63.5 155.5t-155.5 64.5q-90 0 -152.5 -64.5t-62.5 -155.5t62 -154t153 -63zM2957 14q90 0 153.5 63.5t63.5 153.5q0 91 -64 155.5t-153 64.5
q-92 0 -155.5 -64.5t-63.5 -155.5t63.5 -154t155.5 -63z" />
    <glyph glyph-name="uniE030" unicode="&#x23;CAR" horiz-adv-x="3008" 
d="M737 -63q-113 0 -196.5 75.5t-98.5 186.5h-260v661l516 555h873l606 -469l651 -180v-567h-381q-15 -111 -100 -186.5t-197 -75.5q-113 0 -197.5 75.5t-99.5 186.5h-821q-14 -111 -98.5 -186.5t-196.5 -75.5zM260 829v-553h182q14 111 97.5 186t197.5 75t198.5 -75
t96.5 -186h821q14 111 98 186t199 75t200 -75t97 -186h303v424l-612 174l-590 461h-817zM737 16q92 0 156.5 65.5t64.5 158.5q0 89 -65 154t-156 65t-155 -64t-64 -155q0 -92 64 -158t155 -66zM2150 16q91 0 156.5 66.5t65.5 157.5q0 89 -65.5 154t-156.5 65q-89 0 -153 -65
t-64 -154q0 -93 63.5 -158.5t153.5 -65.5z" />
    <glyph glyph-name="uniE031" unicode="&#x23;TRUCK" horiz-adv-x="3932" 
d="M899 -66q-110 0 -193 72t-98 180h-428v1229h2681v-115h676l217 -407v-692h-219q-11 -114 -93.5 -190t-197.5 -77q-114 2 -196.5 76.5t-94.5 186.5l-1763 -7q-15 -109 -97 -182t-194 -74zM2783 1337h-2525v-1073l350 2q12 109 95.5 182.5t195.5 73.5q110 0 193 -72
t98 -178l1593 9v1056zM3488 1223h-627v-942h94q17 105 98 173t191 68q108 0 190 -69t99 -174h143v595zM899 14q91 0 154 62.5t63 154.5q0 89 -63 151t-154 62t-153 -62t-62 -151q0 -92 62 -154.5t153 -62.5zM3244 14q89 0 152 63t63 154q0 89 -63 151t-152 62
q-91 0 -153 -62t-62 -151q0 -92 62 -154.5t153 -62.5z" />
    <glyph glyph-name="uniE033" unicode="&#x23;NETWORK" horiz-adv-x="1839" 
d="M958 -23h-77v646l-457 -457l-55 57l456 457h-643v78h641l-454 452l55 58l457 -457v645h77v-645l455 457l55 -58l-454 -452h643v-78h-645l456 -457l-55 -57l-455 457v-646z" />
    <glyph glyph-name="uniE034" unicode="&#x23;ROAD" horiz-adv-x="3287" 
d="M3107 1456v-80h-2925v80h2925zM844 760v-80h-662v80h662zM1976 760v-80h-663v80h663zM3107 760v-80h-662v80h662zM3107 57v-80h-2925v80h2925z" />
    <glyph glyph-name="uniE036" unicode="&#x23;CHANGEROOM" horiz-adv-x="2789" 
d="M2433 -23h-2071l-174 238l1045 512l4 -76l-936 -463l98 -133h1995l96 133l-1132 492v246q133 34 188.5 92t55.5 164q0 91 -55 143.5t-150 52.5q-75 0 -129.5 -45t-63.5 -114h-84q12 104 90 170.5t187 66.5q125 0 202.5 -76.5t77.5 -199.5q0 -127 -59.5 -206t-183.5 -116
v-127l1167 -516z" />
    <glyph glyph-name="uniE037" unicode="&#x23;DEPARTURE" horiz-adv-x="2148" 
d="M1872 1073l-1133 -622l-233 10l-318 215l242 139l182 -82l326 195l-317 336l311 178l409 -268l351 210q61 40 141 21q72 -15 111 -82q38 -71 16 -141q-21 -70 -88 -109zM528 537l195 -9l1112 613q42 28 51 63q9 37 -8 78q-28 40 -68 49q-43 9 -77 -12l-394 -238l-409 271
l-185 -107l314 -334l-443 -266l-182 86l-98 -59zM1399 -27h-1190v78h1190v-78z" />
    <glyph glyph-name="uniE038" unicode="&#x23;ARRIVAL" horiz-adv-x="2220" 
d="M1808 784l-1243 -364q-78 -22 -141 12q-68 45 -86 115q-21 68 16 135q40 63 119 84l395 104l101 476l338 98l20 -461l369 92l69 187l273 73l-74 -377zM545 492l1216 360l133 143l41 236l-110 -33l-70 -192l-498 -123l-16 460l-211 -55l-98 -485l-443 -111
q-49 -13 -67 -47q-15 -38 -10 -80q15 -39 51 -61q30 -18 82 -12zM1366 -33h-1186v78h1186v-78z" />
    <glyph glyph-name="uniE039" unicode="&#x23;UPSTAIR" horiz-adv-x="1427" 
d="M641 1231q-49 0 -84 35.5t-35 85.5q0 51 34.5 86t84.5 35t84.5 -35t34.5 -86q0 -50 -35 -85.5t-84 -35.5zM641 1311q19 0 31 11t12 30q0 17 -13 31t-30 14t-30 -14t-13 -31q0 -18 12.5 -29.5t30.5 -11.5zM582 -27h-404v78h328v242h323v237h91v187l-209 151v228h-187
l-78 -273l111 -90v-272l-293 -207l-41 65l258 179v198l-121 99l105 376h323v-266l207 -153v-222h252v-77h-342v-238h-323v-242z" />
    <glyph glyph-name="uniE040" unicode="&#x23;DOWNSTAIR" horiz-adv-x="1468" 
d="M598 1251q-51 0 -86 35t-35 86q0 53 35 89t86 36t88 -36.5t37 -88.5q0 -51 -36 -86t-89 -35zM598 1329q19 0 33 13t14 30q0 18 -14.5 32.5t-32.5 14.5q-17 0 -30 -14.5t-13 -32.5q0 -17 13 -30t30 -13zM598 -55h-418v78h342v253h336v58l-174 117v282l115 94l-78 285h-199
v-348l-186 -565l-74 18l184 555v418h332l109 -391l-125 -103v-207l96 -63v96h430v-78h-354v-245h-336v-254z" />
    <glyph glyph-name="uniE041" unicode="&#x23;BATHCHAIR" horiz-adv-x="1515" 
d="M844 1190q-57 0 -95 40t-38 97q0 55 38.5 94t94.5 39t95.5 -39t39.5 -94q0 -56 -40 -96.5t-95 -40.5zM844 1272q25 0 40 15t15 40q0 22 -16 38.5t-39 16.5q-22 0 -40 -17t-18 -38q0 -24 16.5 -39.5t41.5 -15.5zM602 -23q-173 0 -297.5 125.5t-124.5 300.5
q0 173 124.5 297.5t297.5 124.5q30 0 70 -4v301h293l112 -389h258v-688h-78v610h-239l-111 387h-159v-243q126 -44 202 -153t76 -243q0 -115 -57 -213t-155 -155.5t-212 -57.5zM602 57q142 0 244 101.5t102 244.5q0 99 -55 184t-145 126v-279h-76v303q-31 8 -70 8
q-141 0 -242.5 -101t-101.5 -241q0 -142 101.5 -244t242.5 -102z" />
    <glyph glyph-name="uniE042" unicode="&#x23;TRASH" horiz-adv-x="1314" 
d="M514 1241q-53 0 -88 34.5t-35 88.5q0 52 35 88.5t88 36.5q51 0 87 -36.5t36 -88.5t-35.5 -87.5t-87.5 -35.5zM514 1315q20 0 34.5 14.5t14.5 34.5q0 22 -13.5 36.5t-35.5 14.5t-35.5 -14.5t-13.5 -36.5q0 -21 14 -35t35 -14zM1135 -23h-752l-100 676h-103l123 508h686
v-78h-629l-84 -352h74l99 -678h176v627h75v-627h359v627h76v-703zM920 893q-20 0 -33 12.5t-13 32.5q0 19 13.5 33t32.5 14q20 0 33.5 -14t13.5 -33t-13.5 -32t-33.5 -13zM850 756q-19 0 -30 12.5t-11 34.5q0 19 12 32t29 13q19 0 34 -14t15 -31q0 -21 -14 -34t-35 -13z" />
    <glyph glyph-name="uniE043" unicode="&#x23;RESTROOM" horiz-adv-x="1695" 
d="M449 1245q-51 0 -86 35.5t-35 85.5q0 52 34.5 87.5t86.5 35.5q51 0 86.5 -35.5t35.5 -87.5q0 -51 -36 -86t-86 -35zM1210 1245q-51 0 -85.5 35.5t-34.5 85.5q0 52 34 87.5t86 35.5q51 0 87 -35.5t36 -87.5q0 -50 -36.5 -85.5t-86.5 -35.5zM449 1321q17 0 32 14t15 31
q0 19 -13.5 33t-33.5 14q-17 0 -31.5 -14.5t-14.5 -32.5q0 -19 13.5 -32t32.5 -13zM1210 1321q19 0 33 13t14 32t-13.5 33t-33.5 14q-17 0 -31 -14t-14 -33t13 -32t32 -13zM573 -53l-225 -2l-170 778l2 422h537v-422zM1311 -53h-201l-68 448h-137l115 750h369l127 -752
l-138 -2zM256 731l152 -706h104l127 706l2 338h-387zM1110 467l68 -442h67l64 446h112l-96 596h-238l-90 -600h113z" />
    <glyph glyph-name="uniE044" unicode="&#x23;ELEVATOR" horiz-adv-x="2119" 
d="M727 1251q-48 0 -84.5 36t-36.5 85q0 51 35.5 87t85.5 36q51 0 87 -36t36 -87q0 -49 -36.5 -85t-86.5 -36zM1386 1251q-48 0 -84 36t-36 85q0 51 35 87t85 36q51 0 87 -36t36 -87q0 -49 -36.5 -85t-86.5 -36zM1935 -53h-1753v80h2v1460h78v-1460h348l-151 696l2 420h532
v-420l-129 -696h412l-57 370h-136l113 746h367l127 -748h-138l-55 -368h363v1460h77v-1485h-2v-55zM727 1325q20 0 34.5 14t14.5 33q0 20 -14.5 34.5t-34.5 14.5t-32.5 -14t-12.5 -35q0 -20 12.5 -33.5t32.5 -13.5zM1386 1325q21 0 35.5 13.5t14.5 33.5t-15 34.5t-35 14.5
t-32.5 -14t-12.5 -35q0 -20 12.5 -33.5t32.5 -13.5zM535 731l149 -704h109l125 704l2 340h-388zM1284 465l68 -438h69l64 442h114l-98 602h-239l-91 -606h113z" />
    <glyph glyph-name="uniE045" unicode="&#x23;UPESCALATOR" horiz-adv-x="1435" 
d="M709 1225q-52 0 -86.5 35t-34.5 86q0 53 34.5 87.5t86.5 34.5q50 0 85 -35t35 -87t-35 -86.5t-85 -34.5zM709 1303q18 0 32.5 12.5t14.5 30.5q0 19 -13.5 33t-33.5 14q-19 0 -33 -13.5t-14 -33.5t12.5 -31.5t34.5 -11.5zM342 -23h-162v496l291 209v451h385v-177l250 181
h149v-492zM258 436v-385h57l863 633v379h-45zM547 1051v-314l233 166l2 148h-235z" />
    <glyph glyph-name="uniE046" unicode="&#x23;DOWNESCALATOR" horiz-adv-x="1435" 
d="M829 1225q-51 0 -84.5 35t-33.5 86q0 53 33.5 87.5t84.5 34.5t87 -35t36 -87q0 -51 -35.5 -86t-87.5 -35zM829 1303q21 0 35.5 11.5t14.5 31.5q0 19 -15 33t-35 14q-19 0 -33 -13.5t-14 -33.5q0 -18 14.5 -30.5t32.5 -12.5zM1255 -23h-161l-914 668v492h150l252 -181v177
h385v-451l288 -209v-496zM258 684l860 -633h60v385l-877 627h-43v-379zM653 903l236 -166v314h-238z" />
    <glyph glyph-name="uniE047" unicode="&#x23;STROLLER" horiz-adv-x="1644" 
d="M1427 379h-868l4 762l-235 239h-148v80h180l1067 -1065v-16zM1020 1004q-77 0 -130.5 54.5t-53.5 133.5q0 77 54 132.5t130 55.5q77 0 132.5 -55t55.5 -133t-55.5 -133t-132.5 -55zM1020 1087q45 0 76.5 30.5t31.5 74.5q0 43 -32.5 74.5t-75.5 31.5q-42 0 -73.5 -32
t-31.5 -74q0 -44 31 -74.5t74 -30.5zM645 1061l-8 -604l608 2zM657 -27q-66 0 -111.5 46.5t-45.5 111.5q0 67 45 113.5t112 46.5q66 0 112 -46.5t46 -113.5q0 -66 -46.5 -112t-111.5 -46zM1305 -27q-65 0 -110.5 46.5t-45.5 111.5q0 66 46 113t110 47q66 0 112.5 -46.5
t46.5 -113.5q0 -65 -46.5 -111.5t-112.5 -46.5zM657 57q31 0 54.5 22t23.5 52q0 31 -23.5 55.5t-54.5 24.5q-32 0 -53.5 -23.5t-21.5 -56.5q0 -31 22 -52.5t53 -21.5zM1305 57q33 0 56 21t23 53q0 31 -23.5 55.5t-55.5 24.5t-53 -23.5t-21 -56.5q0 -30 22 -52t52 -22z" />
    <glyph glyph-name="uniE048" unicode="&#x23;PHARMACY" horiz-adv-x="1839" 
d="M1165 -23h-483v500h-500v488h500v491h483v-491h492v-488h-492v-500zM760 555v-498h327v498h494v330h-494v491h-327v-491h-500v-330h500z" />
    <glyph glyph-name="uniE049" unicode="&#x23;TOP" horiz-adv-x="1912" 
d="M1509 -23h-1103v750h-224v727h590q0 -150 41 -210t143 -60q109 0 149 65.5t38 206.5h588v-735h-222v-744zM483 805v-748h949v742h221v577h-430q1 -123 -73 -198.5t-194 -75.5t-191.5 75t-70.5 199h-434v-571h223z" />
    <glyph glyph-name="uniE050" unicode="&#x23;PANTS" horiz-adv-x="1894" 
d="M791 -47h-607l330 1528h866l330 -1528h-614l-103 582h-90zM578 1403l-293 -1372h442l115 581h215l104 -581h451l-293 1372h-741z" />
    <glyph glyph-name="uniE051" unicode="&#x23;BLANK" horiz-adv-x="1839" 
d="M1657 -23h-1475v1479h1475v-1479zM328 1378l592 -590l589 590h-1181zM260 1337v-1208l602 604zM975 733l604 -604v1208zM920 676l-621 -617h1241z" />
    <glyph glyph-name="uniE052" unicode="&#x23;FIRE" horiz-adv-x="1146" 
d="M965 -20h-555v909q0 118 64 193.5t171 84.5l2 156q-9 0 -20 -0.5t-45.5 -6.5t-65.5 -16.5t-72.5 -34t-74.5 -55.5q-113 -116 -113 -336l-74 -2q0 261 137 392q45 45 100 75t105.5 40.5t76.5 14t46 3.5v57h74v-57h235v-76h-237v-154q109 -9 177.5 -87t68.5 -193v-907z
M487 889v-830h402v160h-244v672l242 2q0 30 -7.5 59.5t-27 64.5t-63.5 57t-107 22q-91 0 -143 -55t-52 -152zM719 817v-522h170v522h-170z" />
    <glyph glyph-name="uniE053" unicode="&#x23;FLAG" horiz-adv-x="1425" 
d="M260 -23h-78v1479h78v-100l983 -359v-82l-983 -356v-582zM260 1266v-619l852 311z" />
    <glyph glyph-name="uniE054" unicode="&#x23;SHOWER" horiz-adv-x="1370" 
d="M1100 815h-916l107 287h311v354h588v-78h-508v-276h311zM342 1030l-53 -143h706l-53 143h-600zM520 633q-17 0 -29 12t-12 29t12 29t29 12t29 -12t12 -29t-12 -29t-29 -12zM737 633q-17 0 -29 12t-12 29t12 29t29 12t29 -12t12 -29t-12 -29t-29 -12zM948 633
q-17 0 -30 12t-13 29t13 29t30 12t29 -12t12 -29t-12 -29t-29 -12zM362 571q-17 0 -28.5 12t-11.5 29q0 19 11.5 31t28.5 12t29 -12t12 -31q0 -17 -12 -29t-29 -12zM489 444q-17 0 -28.5 12t-11.5 29t11.5 29t28.5 12t29 -12t12 -29t-12 -29t-29 -12zM303 414q-17 0 -29 12
t-12 29q0 19 11 31t30 12q17 0 29 -12t12 -31q0 -17 -12 -29t-29 -12zM737 414q-17 0 -29 12t-12 29q0 19 11 31t30 12q17 0 29 -12t12 -31q0 -17 -12 -29t-29 -12zM948 414q-17 0 -30 12t-13 29q0 19 12 31t31 12t30 -12t11 -31q0 -17 -12 -29t-29 -12zM707 227
q-17 0 -29 12t-12 29q0 19 12 31t29 12t29 -13t12 -30t-12 -29t-29 -12zM520 197q-17 0 -29 12t-12 29t12 30t29 13t29 -13t12 -30t-12 -29t-29 -12zM948 197q-17 0 -30 12t-13 29q0 19 12 31t31 12q18 0 29.5 -12.5t11.5 -30.5q0 -17 -12 -29t-29 -12zM332 166
q-17 0 -29 12t-12 29t12 30t29 13q18 0 29.5 -12.5t11.5 -30.5t-11.5 -29.5t-29.5 -11.5zM489 8q-17 0 -28.5 12.5t-11.5 30.5q0 17 11.5 29t28.5 12q18 0 29.5 -11.5t11.5 -29.5q0 -17 -12 -30t-29 -13zM303 -23q-18 0 -29.5 12.5t-11.5 30.5q0 17 12 29t29 12t29 -12
t12 -29t-12 -30t-29 -13zM737 -23q-17 0 -29 12t-12 31q0 18 11.5 29.5t29.5 11.5q17 0 29 -12t12 -29t-12 -30t-29 -13zM948 -23q-19 0 -31 12t-12 31q0 18 12.5 29.5t30.5 11.5q17 0 29 -12t12 -29q0 -18 -11.5 -30.5t-29.5 -12.5z" />
    <glyph glyph-name="uniE055" unicode="&#x23;ATM" horiz-adv-x="1331" 
d="M1151 608h-78v801h-893v78h971v-879zM274 829h-79v205h768v-205h-78v127h-611v-127zM1102 520l-139 -577l-76 20l125 510l-271 119l-41 -221l-75 14l22 119l-115 31l-86 -369l197 -70l-22 -76l-269 97l58 239h-174l100 502h78l-84 -422h100l47 195l182 -49l50 276h79
l-30 -188z" />
    <glyph glyph-name="uniE057" unicode="&#x23;CAFE" horiz-adv-x="2273" 
d="M1710 207h-1446v1239h1446q213 -14 334 -131q131 -125 131 -344q0 -201 -123 -318q-118 -116 -342 -131v-315zM342 1368v-1083h1290v1083h-1290zM1710 1364v-760q190 14 287 109q96 96 96 258q0 189 -106 284q-98 95 -277 109zM1708 -20h-1444v77h1444v-77z" />
    <glyph glyph-name="uniE058" unicode="&#x23;UNDERGROUND" horiz-adv-x="1589" 
d="M416 -23h-88l75 285h-221v873q0 132 93 226.5t223 94.5h594q132 0 223.5 -93.5t91.5 -227.5v-873h-221l71 -282l-83 -3l-23 97h-715zM731 805h148q165 1 301.5 31.5t148.5 66.5v232q0 100 -69.5 170.5t-167.5 70.5h-594q-98 0 -168 -70.5t-70 -170.5v-234
q9 -36 155.5 -66t315.5 -30zM260 801v-461h1067l2 461q-133 -69 -450 -78l-148 2q-127 0 -261 18.5t-210 57.5zM1085 467q-19 14 -22 40.5t12 49.5q12 20 38.5 22.5t49.5 -14.5q20 -15 24 -40t-11 -48q-18 -21 -42.5 -24t-48.5 14zM436 465q-33 29 -19.5 64t58.5 36
q22 4 37 -4q20 -12 23 -36.5t-11 -47.5q-18 -21 -42.5 -25t-45.5 13zM483 262l-24 -110h671l-26 110h-621z" />
    <glyph glyph-name="uniE059" unicode="&#x23;BUSSTATION" horiz-adv-x="1632" 
d="M461 -23h-223q-26 0 -41 16t-15 42v1421h1270v-1421q0 -26 -15.5 -42t-41.5 -16h-224q-26 0 -40.5 15.5t-14.5 42.5v143h-598v-143q0 -26 -15.5 -42t-41.5 -16zM260 1376v-123h1114v123h-1114zM260 1176v-523h518v523h-518zM856 1176v-523h518v523h-518zM260 575v-319
h1114v319h-1114zM420 367q-20 0 -34.5 14.5t-14.5 34.5q0 19 14.5 34t34.5 15q21 0 36 -15t15 -34q0 -22 -14.5 -35.5t-36.5 -13.5zM1212 367q-22 0 -35.5 13.5t-13.5 35.5q0 20 14.5 34.5t34.5 14.5q19 0 34.5 -15t15.5 -34q0 -21 -14.5 -35t-35.5 -14zM260 178v-123h178
v123h-178zM1194 178v-123h180v123h-180z" />
    <glyph glyph-name="uniE060" unicode="&#x23;DANGER" horiz-adv-x="1855" 
d="M1673 43l-41 -68h-1409l-41 68l707 1413h76zM1577 57l-649 1305l-652 -1305h1301zM967 924v-435h-76v435h76zM967 340v-84h-76v84h76z" />
    <glyph glyph-name="uniE061" unicode="&#x23;PARKING" horiz-adv-x="1839" 
d="M1657 -23h-1475v1479h1475v-1479zM260 1378v-1321h1321v1321h-1321zM754 299h-78v838h270q124 0 190 -61t66 -177q0 -114 -66.5 -175.5t-189.5 -61.5h-192v-363zM754 1059v-320h182q188 -3 188 160q0 82 -45.5 121t-142.5 39h-182z" />
    <glyph glyph-name="uniE062" unicode="&#x23;INTERSECTION" horiz-adv-x="1843" 
d="M412 -23h-78v152h-150v78h150v473h-150v78h150v473h-150v78h150v147h78v-147h473v147h78v-147h471v147h77v-147h152v-78h-152v-473h152v-78h-152v-473h152v-78h-152v-152h-77v152h-471v-152h-78v152h-473v-152zM412 1231v-473h473v473h-473zM963 1231v-473h471v473h-471z
M412 680v-473h473v473h-473zM963 680v-473h471v473h-471z" />
    <glyph glyph-name="uniE063" unicode="&#x23;FILE" horiz-adv-x="1593" 
d="M1151 -20h-969v1292h260v254h969v-1252h-14v-2h-246v-292zM1151 1272v-922h182v1096h-813v-174h631zM260 1192v-1135h813v1135h-813z" />
    <glyph glyph-name="uniE064" unicode="&#x23;MALE" horiz-adv-x="1865" 
d="M803 -23q-168 0 -311 83.5t-226.5 227t-83.5 310.5q0 169 83.5 312.5t226.5 227t311 83.5q228 0 407 -154l334 309h-252v80h391v-373h-77v244l-340 -315q157 -178 157 -414q0 -167 -83 -310t-226 -227t-311 -84zM803 57q147 0 272 72.5t198 197t73 271.5t-73.5 272.5
t-198.5 199t-271 73.5q-147 0 -272 -73.5t-198 -199t-73 -272.5q0 -146 73 -270.5t198 -197.5t272 -73z" />
    <glyph glyph-name="uniE065" unicode="&#x23;FEMALE" horiz-adv-x="1820" 
d="M559 37l-55 -55l-135 147l-129 -121l-56 58l131 120l-131 140l58 55l131 -141l190 176q-164 182 -164 420q0 168 83.5 311t226.5 226t311 83q167 0 309.5 -83.5t225.5 -226.5t83 -310q0 -168 -83 -310.5t-225.5 -225.5t-309.5 -83q-222 0 -399 143l-195 -178zM1020 293
q146 0 270.5 73t197.5 198t73 272t-72.5 272t-197 197.5t-271.5 72.5q-148 0 -273 -72t-197.5 -197t-72.5 -273t72.5 -273t197.5 -197.5t273 -72.5z" />
    <glyph glyph-name="uniE066" unicode="&#x23;SOFA" horiz-adv-x="2578" 
d="M467 -23h-80v299h-207v836h217v344h1784v-344h217v-836h-207v-299h-80v299h-1644v-299zM633 1112v-412h1315v412h155v266h-1628v-266h158zM262 1034v-680h2054v680h-291v-411h-1470v411h-293z" />
    <glyph glyph-name="uniE067" unicode="&#x23;SMOKING" horiz-adv-x="1691" 
d="M735 1243l-57 45q16 19 34 37t55.5 49t85 51t95.5 23q115 6 207 -90l-55 -53q-66 69 -148 63q-38 -2 -76.5 -18.5t-67.5 -39.5t-46.5 -39.5t-26.5 -27.5zM1507 1018l-1042 -1038l-281 280l1043 1036zM657 1001q-111 -9 -206 86l57 54q62 -68 143 -62q43 2 89.5 23t84 52
t58 51.5t35.5 37.5l61 -49q-25 -25 -43 -45q-149 -144 -279 -148zM1087 1047l170 -173l140 144l-168 170zM297 260l170 -170l735 729l-170 172z" />
    <glyph glyph-name="uniE068" unicode="&#x23;NOSMOKING" horiz-adv-x="1701" 
d="M743 1243l-55 45q11 15 32 36t56 50t83.5 50t96.5 24q118 6 207 -90l-55 -53q-66 69 -147 63q-99 -6 -218 -125zM868 373l-395 -393l-280 280l393 391l-402 398l58 57l401 -397l592 589l283 -280l-592 -588l284 -283l-57 -57zM668 1001q-117 -9 -209 86l57 54
q66 -66 146 -60q43 1 89 22t82.5 51.5t58 52t34.5 38.5l63 -51q-25 -25 -43 -45q-149 -144 -278 -148zM1098 1049l168 -172l139 141l-168 168zM700 651l168 -168l340 336l-168 170zM309 260l166 -166l336 334l-168 166z" />
    <glyph glyph-name="uniE069" unicode="&#x23;NOCAMERA" horiz-adv-x="2291" 
d="M2073 -156l-58 -53l-186 186h-1661v1479h184l-174 172l60 55l227 -227h1646v-1479h-174zM246 1376v-1319h1503l-340 340q-116 -96 -268 -96q-177 0 -301.5 123.5t-124.5 300.5q0 149 98 268l-383 383h-184zM1464 453l394 -396h176v1319h-1491l327 -325q116 98 271 98
q174 0 299 -125t125 -299q0 -149 -101 -272zM1864 1141h-199v78h199v-78zM926 993l483 -483q76 92 76 215q0 141 -101.5 243.5t-242.5 102.5q-121 0 -215 -78zM1141 379q120 0 213 74l-486 485q-73 -92 -73 -213q0 -143 101 -244.5t245 -101.5z" />
    <glyph glyph-name="uniE070" unicode="&#x23;INFORMATION" horiz-adv-x="942" 
d="M483 1032q-89 0 -152 63t-63 152q0 88 63 150.5t152 62.5q88 0 151.5 -62.5t63.5 -150.5q0 -89 -63.5 -152t-151.5 -63zM483 1106q59 0 100.5 40.5t41.5 100.5q0 57 -42.5 98t-99.5 41q-59 0 -100 -41t-41 -98q0 -61 40 -101t101 -40zM762 -23h-580v80h92l5 830h-97v76
h488l-4 -906h96v-80zM358 887l-6 -830h238l4 830h-236z" />
    <glyph glyph-name="uniE071" unicode="&#x23;TAXI" horiz-adv-x="1867" 
d="M410 -23h-152q-78 0 -78 78v693l260 509h246l92 199h312l92 -199h245l259 -509v-693q0 -78 -78 -78h-150q-78 0 -78 78v117h-893v-117q0 -78 -77 -78zM825 1380l-55 -123h326l-54 123h-217zM487 1180l-206 -404h1306l-207 404h-893zM256 698l2 -448h1350l2 448h-1354z
M477 412q-28 0 -47.5 19.5t-19.5 47.5q0 27 20 46.5t47 19.5t46.5 -19.5t19.5 -46.5q0 -26 -20 -46.5t-46 -20.5zM1393 412q-28 0 -48 19.5t-20 47.5q0 27 20.5 46.5t47.5 19.5t46 -19.5t19 -46.5q0 -26 -19.5 -46.5t-45.5 -20.5zM258 172v-117h152v117h-152zM1458 172v-117
h150v117h-150z" />
    <glyph glyph-name="uniE072" unicode="&#x23;BATH" horiz-adv-x="1802" 
d="M545 -23h-78l61 170l-47 19q-145 65 -222 178.5t-77 249.5v39h1229v610q0 55 -39.5 95t-95.5 40q-55 0 -93 -39.5t-38 -95.5v-80q0 -15 -12 -27t-29 -12q-15 0 -26 11t-11 28v80q0 88 61 150.5t148 62.5q88 0 150.5 -62.5t62.5 -150.5v-610h131v-39q0 -137 -77.5 -251
t-221.5 -179q-7 -3 -21.5 -8.5t-21.5 -8.5l61 -170h-77l-58 158h-602zM1110 936q-20 0 -34.5 14.5t-14.5 34.5q0 22 14.5 36.5t34.5 14.5q22 0 36.5 -14.5t14.5 -36.5q0 -20 -14.5 -34.5t-36.5 -14.5zM1110 752q-20 0 -34.5 14.5t-14.5 34.5t14.5 35.5t34.5 15.5
q21 0 36 -15t15 -36q0 -20 -14.5 -34.5t-36.5 -14.5zM643 213h514q148 0 258 98t123 244l-1276 2q15 -147 124.5 -245.5t256.5 -98.5z" />
    <glyph glyph-name="uniE073" unicode="&#x23;RESTAURANT" horiz-adv-x="1417" 
d="M475 -23h-76v861q-94 17 -156.5 104.5t-62.5 202.5q0 129 75 220t181 91t181 -91t75 -220q0 -117 -61.5 -204.5t-155.5 -102.5v-861zM1063 -23h-78v857h-176v593h78v-516h98v516h78v-516h96v516h76v-593h-172v-857zM436 911q74 0 126 68.5t52 165.5t-52.5 166t-125.5 69
q-75 0 -127.5 -69t-52.5 -166t52.5 -165.5t127.5 -68.5z" />
    <glyph glyph-name="uniE074" unicode="&#x23;NOODLE" horiz-adv-x="2080" 
d="M1362 -23h-623v115q-253 92 -407.5 312t-151.5 481h1016l217 254v317h78v-219l180 219h98l-278 -344v-227h410q3 -257 -145 -473.5t-394 -313.5v-121zM1413 1026l-117 -141h117v141zM817 152v-95h461l2 99q221 67 368 245t169 404l-1553 2q20 -229 172 -409t381 -246z
" />
    <glyph glyph-name="uniE075" unicode="&#x23;SHOPPING" horiz-adv-x="1626" 
d="M1446 -23h-1264v1102h361v103q0 111 80 192.5t190 81.5q114 0 195.5 -80.5t81.5 -193.5v-103h356v-1102zM621 1182v-103h389v103q0 81 -57.5 137.5t-139.5 56.5q-80 0 -136 -56.5t-56 -137.5zM260 1001v-944h1108v944h-278v-139h-80v139h-389v-139h-78v139h-283z" />
    <glyph glyph-name="uniE076" unicode="&#x23;EYE" horiz-adv-x="1818" 
d="M948 1278h-76v178h76v-178zM711 1266l-74 -21l-45 172l74 19zM1227 1417l-45 -172l-74 21l45 170zM909 340q-215 0 -413.5 105t-313.5 245v53q52 64 127 124.5t168.5 113t206.5 84t225 31.5q146 0 294.5 -55.5t255 -133t177.5 -164.5v-53q-53 -65 -129 -125.5
t-169.5 -111.5t-206 -82t-222.5 -31zM909 418q125 0 212 86.5t87 212.5t-87 213.5t-212 87.5q-126 0 -213.5 -87.5t-87.5 -213.5t87.5 -212.5t213.5 -86.5zM621 477q-91 106 -91 242t91 242q-209 -92 -345 -238v-16q63 -65 158.5 -128t186.5 -102zM1198 477q92 40 187 103
t157 127v16q-139 149 -344 238q91 -106 91 -242t-91 -242zM909 573q-58 0 -100.5 42.5t-42.5 101.5t42.5 102t100.5 43t101 -43t43 -102t-42.5 -101.5t-101.5 -42.5zM909 651q29 0 47.5 18.5t18.5 47.5t-18.5 48t-47.5 19t-47 -19t-18 -48t18 -47.5t47 -18.5zM711 168
l-45 -170l-74 18l45 172zM1227 16l-74 -18l-45 170l74 20zM948 -23h-76v181h76v-181z" />
    <glyph glyph-name="uniE077" unicode="&#x23;BIKE" horiz-adv-x="1069" 
d="M537 -23q-59 0 -100.5 41.5t-41.5 100.5v41q-97 20 -156 88t-59 160v616q0 90 58.5 158t150.5 92l-2 29h-194v77h215q46 76 129 76q39 0 72.5 -20.5t54.5 -55.5h215v-77h-195l-2 -29q90 -19 148.5 -89t58.5 -161v-616q0 -95 -60 -166t-153 -86v-37q0 -58 -41 -100
t-98 -42zM537 1233q29 0 49 21.5t20 52.5t-20 51t-49 20q-31 0 -51.5 -20t-20.5 -51t20.5 -52.5t51.5 -21.5zM395 236v147q0 57 41.5 97t100.5 40t99 -39.5t40 -97.5v-141q61 15 98 60.5t37 105.5v616q0 66 -45.5 117.5t-112.5 58.5h-12q-45 -45 -104 -45q-58 0 -107 45h-12
q-65 0 -112.5 -54t-47.5 -122v-616q0 -63 38.5 -110.5t98.5 -61.5zM563 612h-55v437h55v-437zM537 57q25 0 43 18t18 44v264q0 25 -17.5 43t-43.5 18q-27 0 -45.5 -18t-18.5 -43v-264q0 -26 19 -44t45 -18z" />
    <glyph glyph-name="uniE016" unicode="&#x23;CAMERA" horiz-adv-x="2306" 
d="M2126 -23h-1944v1479h1944v-1479zM260 1376v-1319h1786v1319h-1786zM1878 1141h-199v78h199v-78zM1153 301q-175 0 -299.5 124t-124.5 300q0 174 125 299t299 125q115 0 213 -57t155.5 -155t57.5 -212t-57.5 -212t-155.5 -155t-213 -57zM1153 379q141 0 243.5 103
t102.5 243t-102.5 243t-243.5 103q-139 0 -241.5 -103t-102.5 -243q0 -141 101.5 -243.5t242.5 -102.5z" />
    <glyph glyph-name="uniE017" unicode="&#x23;DRINK" horiz-adv-x="1177" 
d="M997 -23h-817v945l213 346v188h393v-188l211 -346v-945zM258 897v-840h662v840l-211 344l2 135h-244l2 -135z" />
    <glyph glyph-name="u1F150" unicode="&#x7b;A&#x7d;" 
d="M913 -115q-221 0 -408.5 112t-297 303.5t-109.5 416.5q0 168 64.5 322t174 265.5t260.5 177.5t316 66q164 0 315 -66t260.5 -177.5t175 -265.5t65.5 -322t-65.5 -322t-175 -265.5t-260.5 -178t-315 -66.5zM860 1135l-297 -754h103l86 221h321l88 -221h101l-295 754h-107z
M1036 696h-248l123 324h4z" />
    <glyph glyph-name="u1F151" unicode="&#x7b;B&#x7d;" 
d="M913 -115q-221 0 -408.5 112t-297 303.5t-109.5 416.5q0 168 64.5 322t174 265.5t260.5 177.5t316 66q164 0 315 -66t260.5 -177.5t175 -265.5t65.5 -322t-65.5 -322t-175 -265.5t-260.5 -178t-315 -66.5zM666 1094v-754h354q100 0 161.5 57.5t61.5 151.5q0 62 -36.5 111
t-90.5 69v4q43 16 73 61.5t30 102.5q0 93 -58 145t-162 52h-333zM993 774h-227v227h227q131 0 131 -106q0 -55 -35.5 -88t-95.5 -33zM1020 434h-254v248h244q57 0 95 -37t38 -92q0 -57 -32 -88t-91 -31z" />
    <glyph glyph-name="u1F152" unicode="&#x7b;C&#x7d;" 
d="M913 -115q-221 0 -408.5 112t-297 303.5t-109.5 416.5q0 168 64.5 322t174 265.5t260.5 177.5t316 66q164 0 315 -66t260.5 -177.5t175 -265.5t65.5 -322t-65.5 -322t-175 -265.5t-260.5 -178t-315 -66.5zM922 326q132 0 218 76.5t91 195.5h-101q-5 -80 -61.5 -129
t-146.5 -49q-104 0 -165 80.5t-61 210.5v12q0 129 61.5 211t164.5 82q89 0 146 -49t60 -129h101q-5 117 -91 193.5t-216 76.5q-150 0 -238 -108t-88 -279v-8q0 -172 87.5 -279.5t238.5 -107.5z" />
    <glyph glyph-name="u1F153" unicode="&#x7b;D&#x7d;" 
d="M913 -115q-221 0 -408.5 112t-297 303.5t-109.5 416.5q0 168 64.5 322t174 265.5t260.5 177.5t316 66q164 0 315 -66t260.5 -177.5t175 -265.5t65.5 -322t-65.5 -322t-175 -265.5t-260.5 -178t-315 -66.5zM680 1094v-754h231q161 0 259 103.5t98 273.5t-98 273.5
t-259 103.5h-231zM905 434h-125v567h125q122 0 192 -76t70 -208q0 -131 -70.5 -207t-191.5 -76z" />
    <glyph glyph-name="u1F154" unicode="&#x7b;E&#x7d;" 
d="M913 -115q-221 0 -408.5 112t-297 303.5t-109.5 416.5q0 168 64.5 322t174 265.5t260.5 177.5t316 66q164 0 315 -66t260.5 -177.5t175 -265.5t65.5 -322t-65.5 -322t-175 -265.5t-260.5 -178t-315 -66.5zM657 1094v-754h514v94h-413v246h379v92h-379v229h413v93h-514z
" />
    <glyph glyph-name="u1F155" unicode="&#x7b;F&#x7d;" 
d="M913 -115q-221 0 -408.5 112t-297 303.5t-109.5 416.5q0 168 64.5 322t174 265.5t260.5 177.5t316 66q164 0 315 -66t260.5 -177.5t175 -265.5t65.5 -322t-65.5 -322t-175 -265.5t-260.5 -178t-315 -66.5zM674 1094v-754h100v334h379v92h-379v235h414v93h-514z" />
    <glyph glyph-name="u1F156" unicode="&#x7b;G&#x7d;" 
d="M913 -115q-221 0 -408.5 112t-297 303.5t-109.5 416.5q0 168 64.5 322t174 265.5t260.5 177.5t316 66q164 0 315 -66t260.5 -177.5t175 -265.5t65.5 -322t-65.5 -322t-175 -265.5t-260.5 -178t-315 -66.5zM924 324q305 0 305 354v65h-303v-94h204v-8q0 -223 -206 -223
q-106 0 -167 80t-61 211v12q0 128 62 209.5t166 81.5q88 0 144.5 -48.5t59.5 -127.5h101q-5 117 -90 192.5t-215 75.5q-151 0 -239.5 -108t-88.5 -277v-8q0 -173 87.5 -280t240.5 -107z" />
    <glyph glyph-name="u1F157" unicode="&#x7b;H&#x7d;" 
d="M913 -115q-221 0 -408.5 112t-297 303.5t-109.5 416.5q0 168 64.5 322t174 265.5t260.5 177.5t316 66q164 0 315 -66t260.5 -177.5t175 -265.5t65.5 -322t-65.5 -322t-175 -265.5t-260.5 -178t-315 -66.5zM627 1094v-754h98v342h379v-342h96v754h-96v-318h-379v318h-98z
" />
    <glyph glyph-name="u1F158" unicode="&#x7b;I&#x7d;" 
d="M913 -115q-221 0 -408.5 112t-297 303.5t-109.5 416.5q0 168 64.5 322t174 265.5t260.5 177.5t316 66q164 0 315 -66t260.5 -177.5t175 -265.5t65.5 -322t-65.5 -322t-175 -265.5t-260.5 -178t-315 -66.5zM862 1094v-754h101v754h-101z" />
    <glyph glyph-name="u1F159" unicode="&#x7b;J&#x7d;" 
d="M913 -115q-221 0 -408.5 112t-297 303.5t-109.5 416.5q0 168 64.5 322t174 265.5t260.5 177.5t316 66q164 0 315 -66t260.5 -177.5t175 -265.5t65.5 -322t-65.5 -322t-175 -265.5t-260.5 -178t-315 -66.5zM827 336q234 0 234 229v537h-100v-529q0 -81 -30.5 -112
t-107.5 -31q-42 0 -127 25v-97q81 -22 131 -22z" />
    <glyph glyph-name="u1F15A" unicode="&#x7b;K&#x7d;" 
d="M913 1548q164 0 315 -66t260.5 -177.5t175 -265.5t65.5 -322t-65.5 -322t-175 -265.5t-260.5 -178t-315 -66.5q-221 0 -408.5 112t-297 303.5t-109.5 416.5q0 168 64.5 322t174 265.5t260.5 177.5t316 66zM797 711l254 -371h125l-297 375l-15 -19l-39 52l35 346h-102
l-33 -699h72v316zM1110 991l-190 -227l258 274z" />
    <glyph glyph-name="u1F15B" unicode="&#x7b;L&#x7d;" 
d="M913 -115q-221 0 -408.5 112t-297 303.5t-109.5 416.5q0 168 64.5 322t174 265.5t260.5 177.5t316 66q164 0 315 -66t260.5 -177.5t175 -265.5t65.5 -322t-65.5 -322t-175 -265.5t-260.5 -178t-315 -66.5zM684 1094v-754h522v94h-422v660h-100z" />
    <glyph glyph-name="u1F15C" unicode="&#x7b;M&#x7d;" 
d="M913 -115q-221 0 -408.5 112t-297 303.5t-109.5 416.5q0 168 64.5 322t174 265.5t260.5 177.5t316 66q164 0 315 -66t260.5 -177.5t175 -265.5t65.5 -322t-65.5 -322t-175 -265.5t-260.5 -178t-315 -66.5zM563 1094v-752h99v563h4l196 -563h103l196 563h6v-563h97v752
h-131l-215 -615h-7l-217 615h-131z" />
    <glyph glyph-name="u1F15D" unicode="&#x7b;N&#x7d;" 
d="M913 -115q-221 0 -408.5 112t-297 303.5t-109.5 416.5q0 168 64.5 322t174 265.5t260.5 177.5t316 66q164 0 315 -66t260.5 -177.5t175 -265.5t65.5 -322t-65.5 -322t-175 -265.5t-260.5 -178t-315 -66.5zM629 1094v-754h100v573h4l365 -573h100v754h-100v-574h-4
l-365 574h-100z" />
    <glyph glyph-name="u1F15E" unicode="&#x7b;O&#x7d;" 
d="M913 -115q-221 0 -408.5 112t-297 303.5t-109.5 416.5q0 168 64.5 322t174 265.5t260.5 177.5t316 66q164 0 315 -66t260.5 -177.5t175 -265.5t65.5 -322t-65.5 -322t-175 -265.5t-260.5 -178t-315 -66.5zM915 326q150 0 237 107.5t87 279.5v8q0 170 -88 278.5
t-236 108.5q-151 0 -239 -108t-88 -279v-8q0 -172 87.5 -279.5t239.5 -107.5zM915 420q-105 0 -166 80.5t-61 210.5v12q0 129 61.5 211t165.5 82q103 0 164.5 -82.5t61.5 -210.5v-12q0 -130 -61 -210.5t-165 -80.5z" />
    <glyph glyph-name="u1F15F" unicode="&#x7b;P&#x7d;" 
d="M913 -115q-221 0 -408.5 112t-297 303.5t-109.5 416.5q0 168 64.5 322t174 265.5t260.5 177.5t316 66q164 0 315 -66t260.5 -177.5t175 -265.5t65.5 -322t-65.5 -322t-175 -265.5t-260.5 -178t-315 -66.5zM678 1094v-754h98v309h225q114 0 177 58.5t63 162.5
q0 106 -63 165t-177 59h-323zM1001 741h-225v260h225q142 0 142 -129q0 -131 -142 -131z" />
    <glyph glyph-name="u1F160" unicode="&#x7b;Q&#x7d;" 
d="M913 -115q-221 0 -408.5 112t-297 303.5t-109.5 416.5q0 168 64.5 322t174 265.5t260.5 177.5t316 66q164 0 315 -66t260.5 -177.5t175 -265.5t65.5 -322t-65.5 -322t-175 -265.5t-260.5 -178t-315 -66.5zM1155 303l66 80q-36 9 -91 37q107 107 107 303v8
q0 171 -87.5 279t-236.5 108t-237 -108t-88 -279v-8q0 -172 87 -279.5t238 -107.5q71 0 129 24q52 -40 113 -57zM913 430q-104 0 -164.5 80.5t-60.5 210.5v12q0 128 61.5 210.5t163.5 82.5q104 0 166 -82.5t62 -210.5v-12q0 -129 -62 -210t-166 -81z" />
    <glyph glyph-name="u1F161" unicode="&#x7b;R&#x7d;" 
d="M913 -115q-221 0 -408.5 112t-297 303.5t-109.5 416.5q0 168 64.5 322t174 265.5t260.5 177.5t316 66q164 0 315 -66t260.5 -177.5t175 -265.5t65.5 -322t-65.5 -322t-175 -265.5t-260.5 -178t-315 -66.5zM651 1094v-754h101v309h204l162 -309h109l-168 319
q75 19 115 73.5t40 137.5q0 106 -62 165t-177 59h-324zM975 741h-223v260h223q141 0 141 -129q0 -131 -141 -131z" />
    <glyph glyph-name="u1F162" unicode="&#x7b;S&#x7d;" 
d="M913 -115q-221 0 -408.5 112t-297 303.5t-109.5 416.5q0 168 64.5 322t174 265.5t260.5 177.5t316 66q164 0 315 -66t260.5 -177.5t175 -265.5t65.5 -322t-65.5 -322t-175 -265.5t-260.5 -178t-315 -66.5zM918 326q126 0 202 61t76 164q0 75 -55.5 124.5t-177.5 86.5
l-60 16q-85 24 -122.5 54t-37.5 71q0 53 45.5 83t126.5 30q76 0 121.5 -33.5t46.5 -91.5h99q-3 101 -74 159t-193 58q-123 0 -196.5 -57.5t-73.5 -151.5q0 -75 55.5 -126t173.5 -85l58 -16q91 -26 127.5 -54.5t36.5 -72.5q0 -57 -47.5 -91t-128.5 -34q-90 0 -139 34t-50 99
h-98q0 -106 76 -166.5t209 -60.5z" />
    <glyph glyph-name="u1F163" unicode="&#x7b;T&#x7d;" 
d="M913 -115q-221 0 -408.5 112t-297 303.5t-109.5 416.5q0 168 64.5 322t174 265.5t260.5 177.5t316 66q164 0 315 -66t260.5 -177.5t175 -265.5t65.5 -322t-65.5 -322t-175 -265.5t-260.5 -178t-315 -66.5zM862 961v-662h101v662h243v92h-585v-92h241z" />
    <glyph glyph-name="u1F164" unicode="&#x7b;U&#x7d;" 
d="M913 -115q-221 0 -408.5 112t-297 303.5t-109.5 416.5q0 168 64.5 322t174 265.5t260.5 177.5t316 66q164 0 315 -66t260.5 -177.5t175 -265.5t65.5 -322t-65.5 -322t-175 -265.5t-260.5 -178t-315 -66.5zM915 293q138 0 214.5 90.5t76.5 247.5v430h-98v-432
q0 -114 -50.5 -178t-142.5 -64q-93 0 -143.5 63.5t-50.5 178.5v432h-100v-430q0 -157 77 -247.5t217 -90.5z" />
    <glyph glyph-name="u1F165" unicode="&#x7b;V&#x7d;" 
d="M913 -115q-221 0 -408.5 112t-297 303.5t-109.5 416.5q0 168 64.5 322t174 265.5t260.5 177.5t316 66q164 0 315 -66t260.5 -177.5t175 -265.5t65.5 -322t-65.5 -322t-175 -265.5t-260.5 -178t-315 -66.5zM563 1053l297 -754h107l295 754h-101l-246 -639h-4l-245 639
h-103z" />
    <glyph glyph-name="u1F166" unicode="&#x7b;W&#x7d;" 
d="M913 -115q-221 0 -408.5 112t-297 303.5t-109.5 416.5q0 168 64.5 322t174 265.5t260.5 177.5t316 66q164 0 315 -66t260.5 -177.5t175 -265.5t65.5 -322t-65.5 -322t-175 -265.5t-260.5 -178t-315 -66.5zM426 1053l219 -754h96l170 586h7l167 -586h97l219 754h-101
l-165 -590h-5l-167 590h-99l-168 -590h-4l-166 590h-100z" />
    <glyph glyph-name="u1F167" unicode="&#x7b;X&#x7d;" 
d="M913 -115q-221 0 -408.5 112t-297 303.5t-109.5 416.5q0 168 64.5 322t174 265.5t260.5 177.5t316 66q164 0 315 -66t260.5 -177.5t175 -265.5t65.5 -322t-65.5 -322t-175 -265.5t-260.5 -178t-315 -66.5zM856 717l-260 -377h115l200 291h4l199 -291h115l-260 377
l260 377h-115l-199 -289h-4l-200 289h-115z" />
    <glyph glyph-name="u1F168" unicode="&#x7b;Y&#x7d;" 
d="M913 -115q-221 0 -408.5 112t-297 303.5t-109.5 416.5q0 168 64.5 322t174 265.5t260.5 177.5t316 66q164 0 315 -66t260.5 -177.5t175 -265.5t65.5 -322t-65.5 -322t-175 -265.5t-260.5 -178t-315 -66.5zM864 606v-307h99v307l280 447h-115l-210 -342h-7l-211 342h-116z
" />
    <glyph glyph-name="u1F169" unicode="&#x7b;Z&#x7d;" 
d="M913 -115q-221 0 -408.5 112t-297 303.5t-109.5 416.5q0 168 64.5 322t174 265.5t260.5 177.5t316 66q164 0 315 -66t260.5 -177.5t175 -265.5t65.5 -322t-65.5 -322t-175 -265.5t-260.5 -178t-315 -66.5zM627 424v-84h571v94h-442v4l436 572v84h-559v-93h434v-6z" />
    <glyph glyph-name="f_f" unicode="ff" horiz-adv-x="1204" 
d="M319 0h-129v913h-163v115h163v143q0 143 70.5 217t208.5 74q36 0 90 -8l-2 -108q-54 4 -57 4q-100 0 -140.5 -39t-40.5 -137v-146h504v143q0 143 70.5 217t208.5 74q36 0 90 -8l-2 -108q-54 4 -57 4q-100 0 -141.5 -39t-41.5 -137v-146h228v-115h-228v-913h-127v913h-504
v-913z" />
    <glyph glyph-name="f_f_i" unicode="ffi" horiz-adv-x="1675" 
d="M319 0h-129v913h-163v115h163v143q0 143 70.5 217t208.5 74q36 0 90 -8l-2 -108q-54 4 -57 4q-100 0 -140.5 -39t-40.5 -137v-146h496v143q0 291 279 291q36 0 90 -8l-2 -108q-54 4 -58 4q-100 0 -140 -39t-40 -137v-146h600v-1026h-129v911h-471v-913h-129v913h-496
v-913zM1544 1264h-129v170h129v-170z" />
    <glyph glyph-name="f_f_j" unicode="ffj" horiz-adv-x="1677" 
d="M1184 -438l2 135q231 53 231 379v837h-473v-917h-129v917h-496v-917h-129v917h-163v115h163v141q0 291 279 291q49 0 90 -6l-2 -108q-14 1 -33 3.5t-24 2.5q-99 0 -140 -41t-41 -140v-143h496v141q0 291 279 291q50 0 90 -6l-2 -108q-14 1 -33.5 3.5t-24.5 2.5
q-99 0 -139.5 -41t-40.5 -140v-143h602v-983q0 -207 -89.5 -326.5t-272.5 -156.5zM1546 1262h-129v170h129v-170z" />
    <glyph glyph-name="f_f_l" unicode="ffl" horiz-adv-x="1675" 
d="M319 0h-129v913h-163v115h163v143q0 143 70.5 217t208.5 74q36 0 90 -8l-2 -108q-54 4 -57 4q-100 0 -140.5 -39t-40.5 -137v-146h496v143q0 291 279 291q36 0 90 -8l-2 -108q-54 4 -58 4q-100 0 -140 -39t-40 -137v-146h471v406h129v-1432h-129v911h-471v-913h-129v913
h-496v-913z" />
    <glyph glyph-name="f_i" unicode="fi" horiz-adv-x="1050" 
d="M319 0h-129v913h-163v115h163v143q0 143 70.5 217t208.5 74q36 0 90 -8l-2 -108q-54 4 -57 4q-100 0 -140.5 -39t-40.5 -137v-146h601v-1026h-129v911h-472v-913zM920 1264h-129v170h129v-170z" />
    <glyph glyph-name="f_j" unicode="fj" horiz-adv-x="1050" 
d="M559 -438l2 135q232 53 232 379v837h-474v-917h-129v917h-163v115h163v141q0 291 279 291q49 0 90 -6l-2 -108q-14 1 -33 3.5t-24 2.5q-99 0 -140 -41t-41 -140v-143h603v-983q0 -409 -363 -483zM922 1262h-129v170h129v-170z" />
    <glyph glyph-name="f_l" unicode="fl" horiz-adv-x="1050" 
d="M319 0h-129v913h-163v115h163v143q0 143 70.5 217t208.5 74q36 0 90 -8l-2 -108q-54 4 -57 4q-100 0 -140.5 -39t-40.5 -137v-146h472v406h129v-1432h-129v911h-472v-913z" />
    <glyph glyph-name="t_t" unicode="tt" horiz-adv-x="1167" 
d="M567 94v-110q-98 -20 -183.5 -1t-129.5 70q-64 73 -64 207v647h-163v117h102q61 0 61 61v191l129 47v-229q0 -55 -32 -68v-2h415q29 0 45.5 16t16.5 45v191l129 47v-229q0 -56 -35 -68v-2h268v-117h-233v-626q0 -112 59.5 -156.5t186.5 -30.5v-110q-97 -20 -182.5 -1
t-129.5 70q-65 71 -65 207v647h-443v-626q0 -111 60.5 -156t187.5 -31z" />
    <glyph glyph-name="zero.squaredline" unicode="[&#x30;]" 
d="M1407 0h-987q-92 0 -151.5 58t-59.5 147v1024q0 89 59.5 147t151.5 58h987q92 0 151.5 -58.5t59.5 -146.5v-1024q0 -88 -59.5 -146.5t-151.5 -58.5zM444 100h938q64 0 99 33.5t35 95.5v975q0 62 -35 95.5t-99 33.5h-938q-64 0 -98.5 -33.5t-34.5 -95.5v-975
q0 -62 34.5 -95.5t98.5 -33.5zM913 371q-123 0 -196.5 94t-73.5 248v8q0 151 74.5 246.5t195.5 95.5t196 -97t75 -245v-8q-2 -154 -76 -248t-195 -94zM913 457q80 0 130.5 70.5t50.5 185.5v8q0 110 -51.5 183t-129.5 73t-128 -72t-50 -184v-8q0 -116 49 -186t129 -70z" />
    <glyph glyph-name="one.squaredline" unicode="[&#x31;]" 
d="M1407 0h-987q-92 0 -151.5 58t-59.5 147v1024q0 89 59.5 147t151.5 58h987q92 0 151.5 -58.5t59.5 -146.5v-1024q0 -88 -59.5 -146.5t-151.5 -58.5zM444 100h938q64 0 99 33.5t35 95.5v975q0 62 -35 95.5t-99 33.5h-938q-64 0 -98.5 -33.5t-34.5 -95.5v-975
q0 -62 34.5 -95.5t98.5 -33.5zM975 1051v-668h-92v555q-10 -27 -49.5 -50.5t-81.5 -17.5v91q36 -3 84 24.5t71 65.5h68z" />
    <glyph glyph-name="two.squaredline" unicode="[&#x32;]" 
d="M1407 0h-987q-92 0 -151.5 58t-59.5 147v1024q0 89 59.5 147t151.5 58h987q92 0 151.5 -58.5t59.5 -146.5v-1024q0 -88 -59.5 -146.5t-151.5 -58.5zM444 100h938q64 0 99 33.5t35 95.5v975q0 62 -35 95.5t-99 33.5h-938q-64 0 -98.5 -33.5t-34.5 -95.5v-975
q0 -62 34.5 -95.5t98.5 -33.5zM1141 377h-455v72l213 194q66 63 96 98q47 58 47 117q0 54 -31 83.5t-89 29.5q-61 0 -98.5 -40.5t-35.5 -105.5h-94q3 102 66 167t162 65q96 0 154.5 -55.5t58.5 -143.5q0 -79 -74 -168q-44 -56 -111 -110l-125 -117h316v-86z" />
    <glyph glyph-name="three.squaredline" unicode="[&#x33;]" 
d="M1407 0h-987q-92 0 -151.5 58t-59.5 147v1024q0 89 59.5 147t151.5 58h987q92 0 151.5 -58.5t59.5 -146.5v-1024q0 -88 -59.5 -146.5t-151.5 -58.5zM444 100h938q64 0 99 33.5t35 95.5v975q0 62 -35 95.5t-99 33.5h-938q-64 0 -98.5 -33.5t-34.5 -95.5v-975
q0 -62 34.5 -95.5t98.5 -33.5zM913 371q-103 0 -173.5 55.5t-69.5 138.5h88q2 -44 47 -76t106 -32q72 0 112 29.5t40 84.5q0 53 -41 84t-113 31h-100v84h102q55 0 92 30t37 74q0 43 -37.5 73t-93.5 30q-57 0 -96.5 -30.5t-40.5 -76.5h-92q3 83 68.5 138t162.5 55
q92 0 157 -53.5t65 -132.5q0 -49 -28.5 -89.5t-70.5 -58.5q54 -16 87.5 -57t33.5 -103q0 -88 -67.5 -143t-174.5 -55z" />
    <glyph glyph-name="four.squaredline" unicode="[&#x34;]" 
d="M1407 0h-987q-92 0 -151.5 58t-59.5 147v1024q0 89 59.5 147t151.5 58h987q92 0 151.5 -58.5t59.5 -146.5v-1024q0 -88 -59.5 -146.5t-151.5 -58.5zM444 100h938q64 0 99 33.5t35 95.5v975q0 62 -35 95.5t-99 33.5h-938q-64 0 -98.5 -33.5t-34.5 -95.5v-975
q0 -62 34.5 -95.5t98.5 -33.5zM999 979l64 -18l-23 -394l82 21l-41 -66l-82 17l31 -66h-35v68h-284v41zM971 639l-19 246l-194 -277z" />
    <glyph glyph-name="five.squaredline" unicode="[&#x35;]" 
d="M1407 0h-987q-92 0 -151.5 58t-59.5 147v1024q0 89 59.5 147t151.5 58h987q92 0 151.5 -58.5t59.5 -146.5v-1024q0 -88 -59.5 -146.5t-151.5 -58.5zM444 100h938q64 0 99 33.5t35 95.5v975q0 62 -35 95.5t-99 33.5h-938q-64 0 -98.5 -33.5t-34.5 -95.5v-975
q0 -62 34.5 -95.5t98.5 -33.5zM913 377q-104 0 -170 63t-67 166h90q3 -66 42.5 -104.5t104.5 -38.5q63 0 102.5 41t39.5 110q0 66 -39.5 108t-102.5 42q-93 0 -129 -76h-88l47 369h375v-86h-299l-26 -187q56 64 129 64q98 0 161.5 -66.5t63.5 -167.5q0 -104 -65.5 -170.5
t-168.5 -66.5z" />
    <glyph glyph-name="six.squaredline" unicode="[&#x36;]" 
d="M1407 0h-987q-92 0 -151.5 58t-59.5 147v1024q0 89 59.5 147t151.5 58h987q92 0 151.5 -58.5t59.5 -146.5v-1024q0 -88 -59.5 -146.5t-151.5 -58.5zM444 100h938q64 0 99 33.5t35 95.5v975q0 62 -35 95.5t-99 33.5h-938q-64 0 -98.5 -33.5t-34.5 -95.5v-975
q0 -62 34.5 -95.5t98.5 -33.5zM918 371q-116 0 -180 87.5t-64 246.5q0 160 70 259t184 99q94 0 152.5 -54.5t64.5 -146.5h-88q-12 61 -42.5 88t-88.5 27q-73 0 -114 -65.5t-46 -182.5q21 50 65.5 79.5t94.5 29.5q98 0 161.5 -66t63.5 -166q0 -104 -64.5 -169.5t-168.5 -65.5
zM903 471q60 -6 99 27.5t45 93.5q6 62 -27 103.5t-92 47.5q-56 5 -95 -30t-45 -95t26 -101.5t89 -45.5z" />
    <glyph glyph-name="seven.squaredline" unicode="[&#x37;]" 
d="M1407 0h-987q-92 0 -151.5 58t-59.5 147v1024q0 89 59.5 147t151.5 58h987q92 0 151.5 -58.5t59.5 -146.5v-1024q0 -88 -59.5 -146.5t-151.5 -58.5zM444 100h938q64 0 99 33.5t35 95.5v975q0 62 -35 95.5t-99 33.5h-938q-64 0 -98.5 -33.5t-34.5 -95.5v-975
q0 -62 34.5 -95.5t98.5 -33.5zM922 383h-91q-1 156 50 307t145 275h-342v86h463v-76q-115 -135 -170 -279t-55 -313z" />
    <glyph glyph-name="eight.squaredline" unicode="[&#x38;]" 
d="M1407 0h-987q-92 0 -151.5 58t-59.5 147v1024q0 89 59.5 147t151.5 58h987q92 0 151.5 -58.5t59.5 -146.5v-1024q0 -88 -59.5 -146.5t-151.5 -58.5zM444 100h938q64 0 99 33.5t35 95.5v975q0 62 -35 95.5t-99 33.5h-938q-64 0 -98.5 -33.5t-34.5 -95.5v-975
q0 -62 34.5 -95.5t98.5 -33.5zM913 371q-105 0 -175 56t-70 144q0 51 27 93t75 67q-74 55 -74 146q0 82 61 134t156 52q94 0 157 -52.5t63 -133.5q0 -89 -76 -146q100 -56 100 -160q0 -87 -69.5 -143.5t-174.5 -56.5zM913 774q58 0 92.5 28.5t34.5 74.5q0 45 -34.5 72.5
t-92.5 27.5q-57 0 -92 -27t-35 -73t35 -74.5t92 -28.5zM913 457q67 0 109.5 32.5t42.5 83.5q0 50 -42.5 81.5t-109.5 31.5t-110 -31.5t-43 -81.5q0 -51 43 -83.5t110 -32.5z" />
    <glyph glyph-name="nine.squaredline" unicode="[&#x39;]" 
d="M1407 0h-987q-92 0 -151.5 58t-59.5 147v1024q0 89 59.5 147t151.5 58h987q92 0 151.5 -58.5t59.5 -146.5v-1024q0 -88 -59.5 -146.5t-151.5 -58.5zM444 100h938q64 0 99 33.5t35 95.5v975q0 62 -35 95.5t-99 33.5h-938q-64 0 -98.5 -33.5t-34.5 -95.5v-975
q0 -62 34.5 -95.5t98.5 -33.5zM897 371q-94 0 -152.5 54t-64.5 146h88q12 -60 42.5 -87t88.5 -27q73 0 114 65.5t46 182.5q-22 -51 -65 -80t-95 -29q-98 0 -161.5 65.5t-63.5 165.5q0 105 64.5 170.5t168.5 65.5q117 0 180.5 -86.5t63.5 -247.5q0 -160 -70 -259t-184 -99z
M909 678q62 0 101 41.5t39 107.5t-39 108t-101 42q-65 0 -104 -41.5t-39 -108.5t39 -108t104 -41z" />
    <glyph glyph-name="ten.squaredline" unicode="[&#x31;&#x30;]" 
d="M1407 0h-987q-92 0 -151.5 58t-59.5 147v1024q0 89 59.5 147t151.5 58h987q92 0 151.5 -58.5t59.5 -146.5v-1024q0 -88 -59.5 -146.5t-151.5 -58.5zM444 100h938q64 0 99 33.5t35 95.5v975q0 62 -35 95.5t-99 33.5h-938q-64 0 -98.5 -33.5t-34.5 -95.5v-975
q0 -62 34.5 -95.5t98.5 -33.5zM1081 403q-112 0 -178.5 86.5t-66.5 227.5v8q0 138 68 225.5t177 87.5q111 0 178.5 -88.5t67.5 -224.5v-8q0 -140 -67 -227t-179 -87zM698 1026v-610h-86v506q-11 -24 -46 -47t-74 -19v86q34 -3 80 24t59 60h67zM1081 487q72 0 117 63.5
t45 166.5v8q0 101 -45.5 165t-116.5 64q-70 0 -114.5 -64t-44.5 -165v-8q0 -104 43.5 -167t115.5 -63z" />
    <glyph glyph-name="eleven.squaredline" unicode="[&#x31;&#x31;]" 
d="M1407 0h-987q-92 0 -151.5 58t-59.5 147v1024q0 89 59.5 147t151.5 58h987q92 0 151.5 -58.5t59.5 -146.5v-1024q0 -88 -59.5 -146.5t-151.5 -58.5zM444 100h938q64 0 99 33.5t35 95.5v975q0 62 -35 95.5t-99 33.5h-938q-64 0 -98.5 -33.5t-34.5 -95.5v-975
q0 -62 34.5 -95.5t98.5 -33.5zM754 1028v-610h-86v506q-11 -24 -46.5 -47t-74.5 -19v86q35 -3 81.5 24t59.5 60h66zM1182 1028v-610h-86v506q-11 -25 -45.5 -47.5t-73.5 -18.5v86q33 -3 79.5 24t59.5 60h66z" />
    <glyph glyph-name="twelve.squaredline" unicode="[&#x31;&#x32;]" 
d="M1407 0h-987q-92 0 -151.5 58t-59.5 147v1024q0 89 59.5 147t151.5 58h987q92 0 151.5 -58.5t59.5 -146.5v-1024q0 -88 -59.5 -146.5t-151.5 -58.5zM444 100h938q64 0 99 33.5t35 95.5v975q0 62 -35 95.5t-99 33.5h-938q-64 0 -98.5 -33.5t-34.5 -95.5v-975
q0 -62 34.5 -95.5t98.5 -33.5zM1266 424h-418v68l192 178q9 8 26 24l25.5 24t19 19t17.5 21q43 54 43 104q0 48 -28 74.5t-80 26.5q-56 0 -89 -37t-30 -95h-88q0 94 57.5 155t149.5 61q88 0 141 -51t53 -134q0 -68 -61 -147q-35 -43 -106 -109l-111 -100h287v-82zM713 422
h-86v506q-13 -25 -47.5 -47.5t-73.5 -18.5v86q33 -3 79.5 24t59.5 60h68v-610z" />
    <glyph glyph-name="thirteen.squaredline" unicode="[&#x31;&#x33;]" 
d="M1407 0h-987q-92 0 -151.5 58t-59.5 147v1024q0 89 59.5 147t151.5 58h987q92 0 151.5 -58.5t59.5 -146.5v-1024q0 -88 -59.5 -146.5t-151.5 -58.5zM444 100h938q64 0 99 33.5t35 95.5v975q0 62 -35 95.5t-99 33.5h-938q-64 0 -98.5 -33.5t-34.5 -95.5v-975
q0 -62 34.5 -95.5t98.5 -33.5zM1057 408q-96 0 -161 52t-65 130h87q3 -43 42 -70.5t97 -27.5q65 0 101 26.5t36 73.5t-37.5 74.5t-101.5 27.5h-94v80h96q49 0 81.5 27t32.5 67q0 38 -33.5 64t-82.5 26q-52 0 -87.5 -27t-35.5 -67h-88q3 77 63.5 127.5t149.5 50.5
q83 0 141.5 -50t58.5 -122q0 -44 -25.5 -81.5t-62.5 -53.5q49 -13 80 -50.5t31 -94.5q0 -81 -62 -131.5t-161 -50.5zM713 422h-86v506q-13 -25 -47.5 -47.5t-73.5 -18.5v86q33 -3 79.5 24t59.5 60h68v-610z" />
    <glyph glyph-name="fourteen.squaredline" unicode="[&#x31;&#x34;]" 
d="M1407 0h-987q-92 0 -151.5 58t-59.5 147v1024q0 89 59.5 147t151.5 58h987q92 0 151.5 -58.5t59.5 -146.5v-1024q0 -88 -59.5 -146.5t-151.5 -58.5zM444 100h938q64 0 99 33.5t35 95.5v975q0 62 -35 95.5t-99 33.5h-938q-64 0 -98.5 -33.5t-34.5 -95.5v-975
q0 -62 34.5 -95.5t98.5 -33.5zM500 862v86q34 -3 80 24t61 60h66v-610h-86v506q-11 -24 -46.5 -47t-74.5 -19zM1208 422h-86v127h-309v72l305 411h90v-401h84v-82h-84v-127zM1120 905l-207 -276h207v276z" />
    <glyph glyph-name="fifteen.squaredline" unicode="[&#x31;&#x35;]" 
d="M1407 0h-987q-92 0 -151.5 58t-59.5 147v1024q0 89 59.5 147t151.5 58h987q92 0 151.5 -58.5t59.5 -146.5v-1024q0 -88 -59.5 -146.5t-151.5 -58.5zM444 100h938q64 0 99 33.5t35 95.5v975q0 62 -35 95.5t-99 33.5h-938q-64 0 -98.5 -33.5t-34.5 -95.5v-975
q0 -62 34.5 -95.5t98.5 -33.5zM518 862v86q34 -3 80 24t61 60h66v-610h-86v506q-11 -24 -46.5 -47t-74.5 -19zM1073 408q-97 0 -157.5 58.5t-59.5 151.5l84 3q1 -60 37 -94.5t96 -34.5q57 0 92 37.5t35 97.5q0 59 -35 96t-92 37q-83 0 -119 -68h-80l41 338h345v-82h-271
l-24 -166q52 60 114 60q90 0 148.5 -61t58.5 -154q0 -95 -60.5 -157t-152.5 -62z" />
    <glyph glyph-name="sixteen.squaredline" unicode="[&#x31;&#x36;]" 
d="M1407 0h-987q-92 0 -151.5 58t-59.5 147v1024q0 89 59.5 147t151.5 58h987q92 0 151.5 -58.5t59.5 -146.5v-1024q0 -88 -59.5 -146.5t-151.5 -58.5zM444 100h938q64 0 99 33.5t35 95.5v975q0 62 -35 95.5t-99 33.5h-938q-64 0 -98.5 -33.5t-34.5 -95.5v-975
q0 -62 34.5 -95.5t98.5 -33.5zM1055 406q-106 0 -165 79.5t-59 225.5q0 147 65 238t169 91q84 0 137.5 -50t59.5 -134h-82q-11 53 -38.5 76.5t-78.5 23.5q-65 0 -103.5 -58.5t-44.5 -162.5q46 99 148 99q89 0 147 -59.5t58 -151.5q0 -95 -59.5 -156t-153.5 -61zM512 862v86
q34 -3 80 24t61 60h66v-610h-86v506q-11 -24 -46.5 -47t-74.5 -19zM928 623q0 -60 35.5 -97t89.5 -37q58 0 92.5 37t34.5 97t-34.5 96.5t-92.5 36.5q-55 0 -90 -37t-35 -96z" />
    <glyph glyph-name="seventeen.squaredline" unicode="[&#x31;&#x37;]" 
d="M1407 0h-987q-92 0 -151.5 58t-59.5 147v1024q0 89 59.5 147t151.5 58h987q92 0 151.5 -58.5t59.5 -146.5v-1024q0 -88 -59.5 -146.5t-151.5 -58.5zM444 100h938q64 0 99 33.5t35 95.5v975q0 62 -35 95.5t-99 33.5h-938q-64 0 -98.5 -33.5t-34.5 -95.5v-975
q0 -62 34.5 -95.5t98.5 -33.5zM748 422h-86v506q-13 -25 -47.5 -47.5t-73.5 -18.5v86q33 -3 79.5 24t59.5 60h68v-610zM1069 422h-86q0 143 46 279.5t132 248.5h-309v82h422v-71q-205 -239 -205 -539z" />
    <glyph glyph-name="eighteen.squaredline" unicode="[&#x31;&#x38;]" 
d="M1407 0h-987q-92 0 -151.5 58t-59.5 147v1024q0 89 59.5 147t151.5 58h987q92 0 151.5 -58.5t59.5 -146.5v-1024q0 -88 -59.5 -146.5t-151.5 -58.5zM444 100h938q64 0 99 33.5t35 95.5v975q0 62 -35 95.5t-99 33.5h-938q-64 0 -98.5 -33.5t-34.5 -95.5v-975
q0 -62 34.5 -95.5t98.5 -33.5zM1059 410q-97 0 -161 52.5t-64 131.5q0 52 30 89.5t80 55.5q-39 18 -62.5 53t-23.5 80q0 74 57.5 123t143.5 49q87 0 144 -48.5t57 -123.5q0 -93 -86 -133q48 -18 78 -55.5t30 -89.5q0 -79 -63.5 -131.5t-159.5 -52.5zM729 422h-86v506
q-13 -25 -47.5 -47.5t-73.5 -18.5v86q33 -3 80 24t60 60h67v-610zM1059 780q52 0 82 24.5t30 65.5q0 40 -30 65.5t-82 25.5t-83.5 -25.5t-31.5 -65.5t31.5 -65t83.5 -25zM1059 494q62 0 99.5 28.5t37.5 75.5q0 43 -38.5 71.5t-98.5 28.5q-61 0 -100 -28.5t-39 -71.5
q0 -47 38.5 -75.5t100.5 -28.5z" />
    <glyph glyph-name="nineteen.squaredline" unicode="[&#x31;&#x39;]" 
d="M1407 0h-987q-92 0 -151.5 58t-59.5 147v1024q0 89 59.5 147t151.5 58h987q92 0 151.5 -58.5t59.5 -146.5v-1024q0 -88 -59.5 -146.5t-151.5 -58.5zM444 100h938q64 0 99 33.5t35 95.5v975q0 62 -35 95.5t-99 33.5h-938q-64 0 -98.5 -33.5t-34.5 -95.5v-975
q0 -62 34.5 -95.5t98.5 -33.5zM1038 410q-86 0 -139 49.5t-61 134.5h84q11 -53 37.5 -76.5t78.5 -23.5q65 0 103 58.5t43 162.5q-9 -38 -47.5 -68.5t-98.5 -30.5q-89 0 -146.5 59.5t-57.5 151.5q0 96 59 156.5t154 60.5q106 0 164.5 -79.5t58.5 -225.5q0 -147 -64 -238
t-168 -91zM717 422h-86v506q-13 -25 -47.5 -47.5t-73.5 -18.5v86q33 -3 79.5 24t59.5 60h68v-610zM1047 694q57 0 93 37t36 96t-36 96.5t-93 37.5t-92 -37t-35 -97t35 -96.5t92 -36.5z" />
    <glyph glyph-name="twenty.squaredline" unicode="[&#x32;&#x30;]" 
d="M1407 0h-987q-92 0 -151.5 58t-59.5 147v1024q0 89 59.5 147t151.5 58h987q92 0 151.5 -58.5t59.5 -146.5v-1024q0 -88 -59.5 -146.5t-151.5 -58.5zM444 100h938q64 0 99 33.5t35 95.5v975q0 62 -35 95.5t-99 33.5h-938q-64 0 -98.5 -33.5t-34.5 -95.5v-975
q0 -62 34.5 -95.5t98.5 -33.5zM1143 412q-112 0 -180 86.5t-68 226.5v8q0 137 69 225.5t179 88.5q111 0 178.5 -89t67.5 -225v-8q0 -140 -68 -226.5t-178 -86.5zM872 422h-417v67l194 179q9 8 26 24l25.5 24t19 19t17.5 21q43 54 43 104q0 47 -28.5 74t-79.5 27
q-56 0 -89 -37t-30 -95h-90q0 94 58.5 154.5t150.5 60.5q87 0 140.5 -51t53.5 -133q0 -72 -65 -149q-17 -21 -101 -105l-112 -102h284v-82zM981 733v-8q0 -104 45 -166.5t117 -62.5t117 63t45 166v8q0 101 -45.5 165.5t-116.5 64.5t-116.5 -64.5t-45.5 -165.5z" />
    <glyph glyph-name="zero.squaredfill" unicode="&#x2f;&#x30;\" 
d="M1407 0h-987q-92 0 -151.5 58t-59.5 147v1024q0 89 59.5 147t151.5 58h987q92 0 151.5 -58.5t59.5 -146.5v-1024q0 -88 -59.5 -146.5t-151.5 -58.5zM913 371q121 0 195 94t76 248v8q0 148 -75 245t-196 97t-195.5 -95.5t-74.5 -246.5v-8q0 -154 73.5 -248t196.5 -94z
M913 457q-80 0 -129 70t-49 186v8q0 112 50 184t128 72t129.5 -73t51.5 -183v-8q0 -115 -50.5 -185.5t-130.5 -70.5z" />
    <glyph glyph-name="one.squaredfill" unicode="&#x2f;&#x31;\" 
d="M1407 0h-987q-92 0 -151.5 58t-59.5 147v1024q0 89 59.5 147t151.5 58h987q92 0 151.5 -58.5t59.5 -146.5v-1024q0 -88 -59.5 -146.5t-151.5 -58.5zM883 938v-555h92v668h-68q-23 -38 -71 -65.5t-84 -24.5v-91q42 -6 81.5 17.5t49.5 50.5z" />
    <glyph glyph-name="two.squaredfill" unicode="&#x2f;&#x32;\" 
d="M1407 0h-987q-92 0 -151.5 58t-59.5 147v1024q0 89 59.5 147t151.5 58h987q92 0 151.5 -58.5t59.5 -146.5v-1024q0 -88 -59.5 -146.5t-151.5 -58.5zM686 449v-72h455v86h-316l125 117q67 54 111 110q74 89 74 168q0 88 -58.5 143.5t-154.5 55.5q-99 0 -162 -65t-66 -167
h94q-2 65 35.5 105.5t98.5 40.5q58 0 89 -29.5t31 -83.5q0 -59 -47 -117q-30 -35 -96 -98z" />
    <glyph glyph-name="three.squaredfill" unicode="&#x2f;&#x33;\" 
d="M1407 0h-987q-92 0 -151.5 58t-59.5 147v1024q0 89 59.5 147t151.5 58h987q92 0 151.5 -58.5t59.5 -146.5v-1024q0 -88 -59.5 -146.5t-151.5 -58.5zM913 371q107 0 174.5 55t67.5 143q0 62 -33.5 103t-87.5 57q42 18 70.5 58.5t28.5 89.5q0 79 -65 132.5t-157 53.5
q-97 0 -162.5 -55t-68.5 -138h92q1 46 40.5 76.5t96.5 30.5q56 0 93.5 -30t37.5 -73q0 -44 -37 -74t-92 -30h-102v-84h100q72 0 113 -31t41 -84q0 -55 -40 -84.5t-112 -29.5q-61 0 -106 32t-47 76h-88q-1 -83 69.5 -138.5t173.5 -55.5z" />
    <glyph glyph-name="four.squaredfill" unicode="&#x2f;&#x34;\" 
d="M1407 0h-987q-92 0 -151.5 58t-59.5 147v1024q0 89 59.5 147t151.5 58h987q92 0 151.5 -58.5t59.5 -146.5v-1024q0 -88 -59.5 -146.5t-151.5 -58.5zM971 522v-139h92v139h96v86h-96v443h-94l-336 -453v-76h338zM971 608h-234l234 307v-307z" />
    <glyph glyph-name="five.squaredfill" unicode="&#x2f;&#x35;\" 
d="M1407 0h-987q-92 0 -151.5 58t-59.5 147v1024q0 89 59.5 147t151.5 58h987q92 0 151.5 -58.5t59.5 -146.5v-1024q0 -88 -59.5 -146.5t-151.5 -58.5zM913 377q103 0 168.5 66.5t65.5 170.5q0 101 -63.5 167.5t-161.5 66.5q-73 0 -129 -64l26 187h299v86h-375l-47 -369h88
q36 76 129 76q63 0 102.5 -42t39.5 -108q0 -69 -39.5 -110t-102.5 -41q-65 0 -104.5 38.5t-42.5 104.5h-90q1 -103 67 -166t170 -63z" />
    <glyph glyph-name="six.squaredfill" unicode="&#x2f;&#x36;\" 
d="M1407 0h-987q-92 0 -151.5 58t-59.5 147v1024q0 89 59.5 147t151.5 58h987q92 0 151.5 -58.5t59.5 -146.5v-1024q0 -88 -59.5 -146.5t-151.5 -58.5zM918 371q104 0 168.5 65.5t64.5 169.5q0 100 -63.5 166t-161.5 66q-50 0 -94.5 -29.5t-65.5 -79.5q5 117 46 182.5
t114 65.5q58 0 88.5 -27t42.5 -88h88q-6 92 -64.5 146.5t-152.5 54.5q-114 0 -184 -99t-70 -259q0 -159 64 -246.5t180 -87.5zM918 457q-63 0 -102.5 41.5t-39.5 107.5t39.5 108t102.5 42t102 -41.5t39 -108.5t-38.5 -108t-102.5 -41z" />
    <glyph glyph-name="seven.squaredfill" unicode="&#x2f;&#x37;\" 
d="M1407 0h-987q-92 0 -151.5 58t-59.5 147v1024q0 89 59.5 147t151.5 58h987q92 0 151.5 -58.5t59.5 -146.5v-1024q0 -88 -59.5 -146.5t-151.5 -58.5zM831 383h91q0 169 55 313t170 279v76h-463v-86h342q-94 -124 -145 -275t-50 -307z" />
    <glyph glyph-name="eight.squaredfill" unicode="&#x2f;&#x38;\" 
d="M1407 0h-987q-92 0 -151.5 58t-59.5 147v1024q0 89 59.5 147t151.5 58h987q92 0 151.5 -58.5t59.5 -146.5v-1024q0 -88 -59.5 -146.5t-151.5 -58.5zM913 371q105 0 174.5 56.5t69.5 143.5q0 104 -100 160q76 57 76 146q0 81 -63 133.5t-157 52.5q-95 0 -156 -52t-61 -134
q0 -91 74 -146q-48 -25 -75 -67t-27 -93q0 -88 70 -144t175 -56zM913 774q-57 0 -92 28.5t-35 74.5t35 73t92 27q58 0 92.5 -27.5t34.5 -72.5q0 -46 -34.5 -74.5t-92.5 -28.5zM913 457q-67 0 -110 32.5t-43 83.5q0 50 43 81.5t110 31.5t109.5 -31.5t42.5 -81.5
q0 -51 -42.5 -83.5t-109.5 -32.5z" />
    <glyph glyph-name="nine.squaredfill" unicode="&#x2f;&#x39;\" 
d="M1407 0h-987q-92 0 -151.5 58t-59.5 147v1024q0 89 59.5 147t151.5 58h987q92 0 151.5 -58.5t59.5 -146.5v-1024q0 -88 -59.5 -146.5t-151.5 -58.5zM897 371q114 0 184 99t70 259q0 161 -63.5 247.5t-180.5 86.5q-104 0 -168.5 -65.5t-64.5 -170.5q0 -100 63.5 -165.5
t161.5 -65.5q52 0 95 29t65 80q-5 -117 -46 -182.5t-114 -65.5q-58 0 -88.5 27t-42.5 87h-88q6 -92 64.5 -146t152.5 -54zM909 678q-65 0 -104 41t-39 108t39 108.5t104 41.5q62 0 101 -42t39 -108t-39 -107.5t-101 -41.5z" />
    <glyph glyph-name="ten.squaredfill" unicode="&#x2f;&#x31;&#x30;\" 
d="M1407 0h-987q-92 0 -151.5 58t-59.5 147v1024q0 89 59.5 147t151.5 58h987q92 0 151.5 -58.5t59.5 -146.5v-1024q0 -88 -59.5 -146.5t-151.5 -58.5zM1081 403q112 0 179 87t67 227v8q0 136 -67.5 224.5t-178.5 88.5q-109 0 -177 -87.5t-68 -225.5v-8q0 -141 66.5 -227.5
t178.5 -86.5zM612 922v-506h86v610h-67q-13 -33 -59 -60t-80 -24v-86q39 -4 74 19t46 47zM1081 487q-72 0 -115.5 63t-43.5 167v8q0 101 44.5 165t114.5 64q71 0 116.5 -64t45.5 -165v-8q0 -103 -45 -166.5t-117 -63.5z" />
    <glyph glyph-name="eleven.squaredfill" unicode="&#x2f;&#x31;&#x31;\" 
d="M1407 0h-987q-92 0 -151.5 58t-59.5 147v1024q0 89 59.5 147t151.5 58h987q92 0 151.5 -58.5t59.5 -146.5v-1024q0 -88 -59.5 -146.5t-151.5 -58.5zM668 924v-506h86v610h-66q-13 -33 -59.5 -60t-81.5 -24v-86q39 -4 74.5 19t46.5 47zM1096 924v-506h86v610h-66
q-13 -33 -59.5 -60t-79.5 -24v-86q39 -4 73.5 18.5t45.5 47.5z" />
    <glyph glyph-name="twelve.squaredfill" unicode="&#x2f;&#x31;&#x32;\" 
d="M1407 0h-987q-92 0 -151.5 58t-59.5 147v1024q0 89 59.5 147t151.5 58h987q92 0 151.5 -58.5t59.5 -146.5v-1024q0 -88 -59.5 -146.5t-151.5 -58.5zM848 492v-68h418v82h-287l111 100q71 66 106 109q61 79 61 147q0 83 -53 134t-141 51q-92 0 -149.5 -61t-57.5 -155h88
q-3 58 30 95t89 37q52 0 80 -26.5t28 -74.5q0 -50 -43 -104q-7 -10 -17.5 -21t-19 -19l-25.5 -24t-26 -24zM627 928v-506h86v610h-68q-13 -33 -59.5 -60t-79.5 -24v-86q39 -4 73.5 18.5t47.5 47.5z" />
    <glyph glyph-name="thirteen.squaredfill" unicode="&#x2f;&#x31;&#x33;\" 
d="M1407 0h-987q-92 0 -151.5 58t-59.5 147v1024q0 89 59.5 147t151.5 58h987q92 0 151.5 -58.5t59.5 -146.5v-1024q0 -88 -59.5 -146.5t-151.5 -58.5zM1057 408q99 0 161 50.5t62 131.5q0 57 -31 94.5t-80 50.5q37 16 62.5 53.5t25.5 81.5q0 72 -58.5 122t-141.5 50
q-89 0 -149.5 -50.5t-63.5 -127.5h88q0 40 35.5 67t87.5 27q49 0 82.5 -26t33.5 -64q0 -40 -32.5 -67t-81.5 -27h-96v-80h94q64 0 101.5 -27.5t37.5 -74.5t-36 -73.5t-101 -26.5q-58 0 -97 27.5t-42 70.5h-87q0 -78 65 -130t161 -52zM627 928v-506h86v610h-68
q-13 -33 -59.5 -60t-79.5 -24v-86q39 -4 73.5 18.5t47.5 47.5z" />
    <glyph glyph-name="fourteen.squaredfill" unicode="&#x2f;&#x31;&#x34;\" 
d="M1407 0h-987q-92 0 -151.5 58t-59.5 147v1024q0 89 59.5 147t151.5 58h987q92 0 151.5 -58.5t59.5 -146.5v-1024q0 -88 -59.5 -146.5t-151.5 -58.5zM621 928v-506h86v610h-66q-15 -33 -61 -60t-80 -24v-86q39 -4 74.5 19t46.5 47zM1122 549v-127h86v127h84v82h-84v401
h-90l-305 -411v-72h309zM1120 629h-207l207 276v-276z" />
    <glyph glyph-name="fifteen.squaredfill" unicode="&#x2f;&#x31;&#x35;\" 
d="M1407 0h-987q-92 0 -151.5 58t-59.5 147v1024q0 89 59.5 147t151.5 58h987q92 0 151.5 -58.5t59.5 -146.5v-1024q0 -88 -59.5 -146.5t-151.5 -58.5zM639 928v-506h86v610h-66q-15 -33 -61 -60t-80 -24v-86q39 -4 74.5 19t46.5 47zM1073 408q92 0 152.5 62t60.5 157
q0 93 -58.5 154t-148.5 61q-62 0 -114 -60l24 166h271v82h-345l-41 -338h80q36 68 119 68q57 0 92 -37t35 -96q0 -60 -35 -97.5t-92 -37.5q-60 0 -96 34.5t-37 94.5l-84 -3q-1 -93 59.5 -151.5t157.5 -58.5z" />
    <glyph glyph-name="sixteen.squaredfill" unicode="&#x2f;&#x31;&#x36;\" 
d="M1407 0h-987q-92 0 -151.5 58t-59.5 147v1024q0 89 59.5 147t151.5 58h987q92 0 151.5 -58.5t59.5 -146.5v-1024q0 -88 -59.5 -146.5t-151.5 -58.5zM1055 406q94 0 153.5 61t59.5 156q0 92 -58 151.5t-147 59.5q-102 0 -148 -99q6 104 44.5 162.5t103.5 58.5
q51 0 78.5 -23.5t38.5 -76.5h82q-6 84 -59.5 134t-137.5 50q-104 0 -169 -91t-65 -238q0 -146 59 -225.5t165 -79.5zM633 928v-506h86v610h-66q-15 -33 -61 -60t-80 -24v-86q39 -4 74.5 19t46.5 47zM1053 489q-54 0 -89.5 37t-35.5 97q0 59 35 96t90 37q58 0 92.5 -36.5
t34.5 -96.5t-34.5 -97t-92.5 -37z" />
    <glyph glyph-name="seventeen.squaredfill" unicode="&#x2f;&#x31;&#x37;\" 
d="M1407 0h-987q-92 0 -151.5 58t-59.5 147v1024q0 89 59.5 147t151.5 58h987q92 0 151.5 -58.5t59.5 -146.5v-1024q0 -88 -59.5 -146.5t-151.5 -58.5zM662 928v-506h86v610h-68q-13 -33 -59.5 -60t-79.5 -24v-86q39 -4 73.5 18.5t47.5 47.5zM983 422h86q0 300 205 539v71
h-422v-82h309q-86 -112 -132 -248.5t-46 -279.5z" />
    <glyph glyph-name="eighteen.squaredfill" unicode="&#x2f;&#x31;&#x38;\" 
d="M1407 0h-987q-92 0 -151.5 58t-59.5 147v1024q0 89 59.5 147t151.5 58h987q92 0 151.5 -58.5t59.5 -146.5v-1024q0 -88 -59.5 -146.5t-151.5 -58.5zM1059 410q96 0 159.5 52.5t63.5 131.5q0 52 -30 89.5t-78 55.5q86 40 86 133q0 75 -57 123.5t-144 48.5
q-86 0 -143.5 -49t-57.5 -123q0 -45 23.5 -80t62.5 -53q-50 -18 -80 -55.5t-30 -89.5q0 -79 64 -131.5t161 -52.5zM643 928v-506h86v610h-67q-13 -33 -60 -60t-80 -24v-86q39 -4 73.5 18.5t47.5 47.5zM1059 780q-52 0 -83.5 25t-31.5 65t31.5 65.5t83.5 25.5t82 -25.5
t30 -65.5q0 -41 -30 -65.5t-82 -24.5zM1059 494q-62 0 -100.5 28.5t-38.5 75.5q0 43 39 71.5t100 28.5q60 0 98.5 -28.5t38.5 -71.5q0 -47 -37.5 -75.5t-99.5 -28.5z" />
    <glyph glyph-name="nineteen.squaredfill" unicode="&#x2f;&#x31;&#x39;\" 
d="M1407 0h-987q-92 0 -151.5 58t-59.5 147v1024q0 89 59.5 147t151.5 58h987q92 0 151.5 -58.5t59.5 -146.5v-1024q0 -88 -59.5 -146.5t-151.5 -58.5zM1038 410q104 0 168 91t64 238q0 146 -58.5 225.5t-164.5 79.5q-95 0 -154 -60.5t-59 -156.5q0 -92 57.5 -151.5
t146.5 -59.5q60 0 98.5 30.5t47.5 68.5q-5 -104 -43 -162.5t-103 -58.5q-52 0 -78.5 23.5t-37.5 76.5h-84q8 -85 61 -134.5t139 -49.5zM631 928v-506h86v610h-68q-13 -33 -59.5 -60t-79.5 -24v-86q39 -4 73.5 18.5t47.5 47.5zM1047 694q-57 0 -92 36.5t-35 96.5t35 97t92 37
t93 -37.5t36 -96.5t-36 -96t-93 -37z" />
    <glyph glyph-name="twenty.squaredfill" unicode="&#x2f;&#x32;&#x30;\" 
d="M1407 0h-987q-92 0 -151.5 58t-59.5 147v1024q0 89 59.5 147t151.5 58h987q92 0 151.5 -58.5t59.5 -146.5v-1024q0 -88 -59.5 -146.5t-151.5 -58.5zM1143 412q110 0 178 86.5t68 226.5v8q0 136 -67.5 225t-178.5 89q-110 0 -179 -88.5t-69 -225.5v-8q0 -140 68 -226.5
t180 -86.5zM455 489v-67h417v82h-284l112 102q84 84 101 105q65 77 65 149q0 82 -53.5 133t-140.5 51q-92 0 -150.5 -60.5t-58.5 -154.5h90q-3 58 30 95t89 37q51 0 79.5 -27t28.5 -74q0 -50 -43 -104q-7 -10 -17.5 -21t-19 -19l-25.5 -24t-26 -24zM1143 496
q-72 0 -117 62.5t-45 166.5v8q0 101 45.5 165.5t116.5 64.5t116.5 -64.5t45.5 -165.5v-8q0 -103 -45 -166t-117 -63z" />
    <glyph glyph-name=".notdef" horiz-adv-x="1499" 
d="M1343 82h-1187v1290h1187v-1290zM436 479l68 -67l248 247l247 -247l68 67l-248 248l246 248l-68 67l-247 -247l-248 247l-66 -67l248 -248z" />
    <glyph glyph-name=".null" horiz-adv-x="0" 
 />
    <glyph glyph-name="nonmarkingreturn" horiz-adv-x="682" 
 />
    <glyph glyph-name="space" unicode=" " horiz-adv-x="434" 
 />
    <glyph glyph-name="exclam" unicode="!" horiz-adv-x="450" 
d="M272 365h-92l-20 1069h133zM299 0h-145v180h145v-180z" />
    <glyph glyph-name="quotedbl" unicode="&#x22;" horiz-adv-x="737" 
d="M233 997h-100l66 437h127zM510 997h-98l65 437h127z" />
    <glyph glyph-name="numbersign" unicode="#" horiz-adv-x="1337" 
d="M266 0h-110l102 422h-199v104h226l96 400h-225v104h250l98 404h110l-98 -404h447l100 404h108l-98 -404h205v-104h-229l-97 -400h230v-104h-256l-103 -422h-108l100 422h-446zM489 926l-94 -400h449l94 400h-449z" />
    <glyph glyph-name="dollar" unicode="$" horiz-adv-x="1280" 
d="M713 -203h-105v174q-220 11 -348 110.5t-143 272.5h129q19 -133 124.5 -201.5t286.5 -68.5q176 0 281.5 80t105.5 211q0 99 -81 165t-269 122l-116 32q-230 64 -333.5 156.5t-103.5 232.5q0 164 126.5 267t340.5 112v176h105v-178q192 -15 303.5 -108.5t126.5 -253.5
h-127q-15 116 -113.5 184t-253.5 68q-175 0 -277 -71t-102 -192q0 -94 81.5 -161.5t264.5 -122.5l117 -31q232 -70 336.5 -160t104.5 -227q0 -178 -123.5 -288t-337.5 -124v-176z" />
    <glyph glyph-name="percent" unicode="%" horiz-adv-x="1525" 
d="M432 803q-127 0 -203.5 88t-76.5 242t78 241.5t202 87.5q126 0 204.5 -88.5t78.5 -240.5q0 -154 -77.5 -242t-205.5 -88zM334 8h-109l965 1450h108zM432 889q83 0 137 73t54 171q0 102 -48.5 172.5t-142.5 70.5q-84 0 -136 -65t-52 -178q0 -114 52 -179t136 -65z
M1090 -29q-127 0 -204 88t-77 242t78.5 242t202.5 88q125 0 203.5 -88.5t78.5 -241.5q0 -155 -77 -242.5t-205 -87.5zM1090 57q84 0 137 73t53 171q0 102 -48 172t-142 70q-82 0 -135.5 -65t-53.5 -177q0 -114 53.5 -179t135.5 -65z" />
    <glyph glyph-name="ampersand" unicode="&#x26;" horiz-adv-x="1339" 
d="M573 -29q-191 0 -315.5 110t-124.5 279q0 263 301 422q-76 87 -118 175.5t-42 160.5q0 149 104 246.5t261 97.5q153 0 250.5 -88.5t97.5 -226.5q0 -117 -92 -206.5t-287 -186.5l400 -420q53 74 91 177.5t48 207.5l113 -14q-23 -146 -63 -255.5t-112 -203.5l236 -246h-154
l-157 162q-82 -89 -198 -140t-239 -51zM539 836q189 90 261 156.5t72 148.5q0 98 -63.5 156.5t-169.5 58.5q-105 0 -176.5 -68.5t-71.5 -165.5q0 -111 148 -286zM596 80q179 0 342 160l-432 456q-122 -62 -187 -143t-65 -174q0 -138 92.5 -218.5t249.5 -80.5z" />
    <glyph glyph-name="quotesingle" unicode="'" horiz-adv-x="460" 
d="M233 997h-100l66 437h127z" />
    <glyph glyph-name="parenleft" unicode="(" horiz-adv-x="518" 
d="M459 -258h-119q-133 251 -185.5 441t-52.5 429t56 424.5t182 425.5h119q-125 -226 -183.5 -431.5t-58.5 -418.5q0 -221 58.5 -431t183.5 -439z" />
    <glyph glyph-name="parenright" unicode=")" horiz-adv-x="520" 
d="M178 -258h-119q126 230 184 439t58 431q0 213 -58.5 418.5t-183.5 431.5h119q126 -237 182 -424t56 -426q0 -241 -52 -430.5t-186 -439.5z" />
    <glyph glyph-name="asterisk" unicode="*" horiz-adv-x="1071" 
d="M532 1020l-196 -272l-84 59l203 276l-322 105l31 96l319 -102v331h101v-333l321 104l31 -96l-326 -107l203 -274l-84 -59z" />
    <glyph glyph-name="plus" unicode="+" horiz-adv-x="1116" 
d="M616 168h-118v448h-428v121h428v447h118v-447h431v-121h-431v-448z" />
    <glyph glyph-name="comma" unicode="," horiz-adv-x="481" 
d="M147 -266v86q46 16 67.5 55.5t21.5 116.5v8h-62v188h162v-208q0 -211 -189 -246z" />
    <glyph glyph-name="hyphen" unicode="-" horiz-adv-x="716" 
d="M653 618h-590v117h590v-117z" />
    <glyph glyph-name="period" unicode="." horiz-adv-x="419" 
d="M285 0h-148v190h148v-190z" />
    <glyph glyph-name="slash" unicode="/" horiz-adv-x="880" 
d="M172 -258h-113l650 1720h110z" />
    <glyph glyph-name="zero" unicode="0" horiz-adv-x="1341" 
d="M670 -29q-142 0 -253.5 61t-180 165t-103.5 234t-35 276v16q0 93 15.5 182.5t45.5 172.5t78.5 152.5t110 121.5t144.5 81t178 29q115 0 211 -42.5t161.5 -114t111 -167t66.5 -200t21 -215.5v-16q0 -117 -21.5 -224t-67.5 -200.5t-112 -162.5t-161 -109t-209 -40zM670 88
q110 0 196.5 51.5t139.5 139t80.5 196.5t27.5 230v22q0 116 -27.5 224t-80 197.5t-140 143.5t-196.5 54t-196 -54t-139.5 -143.5t-80 -197.5t-27.5 -224v-22q0 -121 27.5 -229.5t80 -196.5t139 -139.5t196.5 -51.5z" />
    <glyph glyph-name="one" unicode="1" horiz-adv-x="643" 
d="M422 0h-129v1262h-4q-28 -52 -99.5 -86.5t-152.5 -34.5v123q91 0 170.5 52.5t118.5 117.5h96v-1434z" />
    <glyph glyph-name="two" unicode="2" horiz-adv-x="1200" 
d="M1079 0h-954v104l469 431q13 13 43.5 42t44.5 42t37.5 36.5t38 38.5t31.5 34t30 36q117 142 117 285q0 139 -83 218t-232 79q-144 0 -239.5 -90t-105.5 -240h-129q15 200 144.5 323t329.5 123q110 0 196.5 -34.5t139.5 -92.5t80.5 -130t27.5 -152q0 -165 -160 -357
q-77 -97 -235 -238q-9 -8 -13 -12l-346 -321v-8h768v-117z" />
    <glyph glyph-name="three" unicode="3" horiz-adv-x="1155" 
d="M578 -29q-207 0 -352.5 102.5t-164.5 260.5h129q22 -107 129.5 -176.5t253.5 -69.5q180 0 282.5 79t102.5 218q0 146 -110.5 223.5t-280.5 77.5h-188v111h192q136 0 235 76t99 204q0 116 -96 192.5t-242 76.5q-131 0 -227.5 -66.5t-118.5 -171.5h-131q23 156 157.5 255
t323.5 99q193 0 328 -110.5t135 -272.5q0 -111 -66.5 -200t-158.5 -127v-9q116 -30 197 -125.5t81 -238.5q0 -182 -142 -295t-367 -113z" />
    <glyph glyph-name="four" unicode="4" horiz-adv-x="1245" 
d="M965 0h-129v313h-770v125l741 996h158v-1004h215v-117h-215v-313zM821 1274l-637 -846h650v846h-13z" />
    <glyph glyph-name="five" unicode="5" horiz-adv-x="1202" 
d="M604 -29q-211 0 -347 120t-148 319h122q15 -148 116.5 -235t256.5 -87q160 0 260.5 105t100.5 274q0 170 -101 276.5t-260 106.5q-104 0 -188 -44t-133 -128h-127l96 756h774v-117h-672l-69 -502h6q58 68 150.5 108t179.5 40q208 0 340.5 -140t132.5 -356
q0 -217 -137.5 -356.5t-352.5 -139.5z" />
    <glyph glyph-name="six" unicode="6" horiz-adv-x="1208" 
d="M616 -29q-248 0 -381 185t-133 532q0 228 66.5 404t189 273t281.5 97q183 0 301.5 -98.5t144.5 -273.5h-122q-32 131 -111.5 193.5t-214.5 62.5q-188 0 -293 -164.5t-115 -476.5h7q102 245 401 245q204 0 335.5 -136.5t131.5 -346.5q0 -221 -134.5 -358.5t-353.5 -137.5z
M614 88q160 0 260.5 104t100.5 271q0 170 -100.5 274.5t-260.5 104.5q-159 0 -259.5 -105.5t-100.5 -273.5q0 -164 101.5 -269.5t258.5 -105.5z" />
    <glyph glyph-name="seven" unicode="7" horiz-adv-x="1175" 
d="M563 0h-129q4 359 132 700.5t358 616.5h-822v117h969v-115q-254 -302 -378 -624t-130 -695z" />
    <glyph glyph-name="eight" unicode="8" horiz-adv-x="1198" 
d="M602 -29q-237 0 -390 114t-153 300q0 127 78.5 222.5t212.5 140.5v4q-105 45 -164 129.5t-59 197.5q0 174 134 278.5t343 104.5q208 0 341.5 -104.5t133.5 -278.5q0 -113 -60 -197.5t-165 -131.5v-5q131 -45 207 -139t76 -221q0 -185 -151.5 -299.5t-383.5 -114.5z
M602 809q158 0 253 71.5t95 196.5q0 124 -96 196.5t-252 72.5q-159 0 -252.5 -71.5t-93.5 -197.5q0 -125 94 -196.5t252 -71.5zM602 86q178 0 293 83t115 222q0 135 -114 215t-294 80q-183 0 -298.5 -80t-115.5 -215q0 -139 116 -222t298 -83z" />
    <glyph glyph-name="nine" unicode="9" horiz-adv-x="1204" 
d="M565 -29q-183 0 -301.5 99t-144.5 274h123q34 -131 112.5 -193.5t214.5 -62.5q187 0 292.5 165t115.5 476h-6q-102 -246 -402 -246q-205 0 -336 137t-131 347q0 220 134 357.5t352 137.5q249 0 381.5 -185t132.5 -532q0 -229 -66.5 -404.5t-188.5 -272.5t-282 -97z
M590 592q160 0 261 105.5t101 273.5q0 164 -102 269.5t-260 105.5q-160 0 -259.5 -104t-99.5 -271q0 -170 99.5 -274.5t259.5 -104.5z" />
    <glyph glyph-name="colon" unicode=":" horiz-adv-x="716" 
d="M432 834h-147v190h149zM432 0h-147v190h149z" />
    <glyph glyph-name="semicolon" unicode=";" horiz-adv-x="505" 
d="M344 834h-147v190h147v-190zM160 -266v86q45 15 66.5 55.5t21.5 116.5v8h-62v188h162v-208q0 -211 -188 -246z" />
    <glyph glyph-name="less" unicode="&#x3c;" horiz-adv-x="1116" 
d="M1034 281v-121l-950 463v106l950 463v-121l-815 -391v-8z" />
    <glyph glyph-name="equal" unicode="=" horiz-adv-x="1116" 
d="M1047 850h-977v113h977v-113zM1047 391h-977v113h977v-113z" />
    <glyph glyph-name="greater" unicode="&#x3e;" horiz-adv-x="1116" 
d="M1034 623l-950 -463v121l813 391v8l-813 391v121l950 -463v-106z" />
    <glyph glyph-name="question" unicode="?" horiz-adv-x="1107" 
d="M573 408h-129v124q0 72 24 125t62.5 84.5t85 56.5t92.5 49t84.5 53.5t62.5 79.5t24 118q0 105 -97.5 176.5t-240.5 71.5q-133 0 -227.5 -68.5t-114.5 -179.5h-123q15 161 144 262.5t321 101.5q202 0 333.5 -102.5t131.5 -261.5q0 -114 -61 -202.5t-175 -141.5
q-121 -57 -159 -102t-38 -140v-104zM580 0h-142v180h142v-180z" />
    <glyph glyph-name="at" unicode="@" horiz-adv-x="1888" 
d="M975 -285q-242 0 -429 94.5t-290.5 267.5t-103.5 398q0 173 65 327.5t177 265.5t269 176t334 65q212 0 381.5 -85.5t264 -237.5t94.5 -343q0 -236 -104 -373t-285 -137q-75 0 -129 35.5t-76 101.5h-6q-40 -67 -116.5 -105t-172.5 -38q-124 0 -205.5 93.5t-81.5 232.5
q0 120 52 227.5t139 172.5t184 65q39 0 69.5 -4.5t67.5 -17.5t68 -42.5t53 -73.5h6l25 121h108l-102 -487q-17 -80 20 -130.5t115 -50.5q119 0 191.5 111.5t72.5 286.5q0 261 -174 418t-461 157q-207 0 -375.5 -96.5t-264 -264t-95.5 -370.5q0 -297 194.5 -477t514.5 -180
q268 0 461 125l51 -88q-210 -140 -506 -140zM879 229q95 0 162.5 65.5t86.5 174.5q21 107 23 145q2 87 -49.5 144t-132.5 57q-121 0 -206 -103.5t-87 -250.5q-3 -103 51.5 -167.5t151.5 -64.5z" />
    <glyph glyph-name="A" unicode="A" horiz-adv-x="1359" 
d="M160 0h-133l567 1434h172l567 -1434h-133l-176 440h-688zM674 1303l-295 -748h602l-295 748h-12z" />
    <glyph glyph-name="B" unicode="B" horiz-adv-x="1333" 
d="M823 0h-671v1434h632q193 0 298.5 -93.5t105.5 -265.5q0 -110 -62 -199t-153 -126v-9q111 -38 185.5 -137.5t74.5 -222.5q0 -173 -111.5 -277t-298.5 -104zM281 1317v-522h489q129 0 214 75.5t85 202.5q0 119 -76.5 181.5t-222.5 62.5h-489zM281 682v-565h542
q132 0 206.5 72t74.5 198q0 128 -87.5 211.5t-211.5 83.5h-524z" />
    <glyph glyph-name="C" unicode="C" horiz-adv-x="1294" 
d="M666 -29q-128 0 -232.5 41.5t-174.5 112t-118 166t-69 199.5t-21 217v18q0 108 21 210.5t69 199t118 168.5t175 115.5t232 43.5q237 0 396 -132t179 -337h-131q-19 156 -138.5 255t-305.5 98q-101 0 -184 -37t-138.5 -98.5t-93.5 -142.5t-55 -166t-17 -173v-24
q0 -93 17 -180t55 -167t93.5 -139.5t138.5 -95t184 -35.5q187 -1 308.5 97.5t139.5 256.5h131q-20 -207 -180.5 -339t-398.5 -132z" />
    <glyph glyph-name="D" unicode="D" horiz-adv-x="1345" 
d="M618 0h-466v1434h466q308 0 493 -196t185 -521t-185 -521t-493 -196zM281 1317v-1200h325q257 0 409 161.5t152 438.5q0 279 -151 439.5t-410 160.5h-325z" />
    <glyph glyph-name="E" unicode="E" horiz-adv-x="1253" 
d="M1151 0h-999v1434h999v-117h-870v-526h798v-115h-798v-559h870v-117z" />
    <glyph glyph-name="F" unicode="F" horiz-adv-x="1220" 
d="M281 0h-129v1434h999v-117h-870v-535h798v-116h-798v-666z" />
    <glyph glyph-name="G" unicode="G" horiz-adv-x="1339" 
d="M657 -29q-126 0 -229 42t-172 112.5t-116 166t-68 199.5t-21 216v18q0 108 21 210.5t69 199t118 168.5t175 115.5t232 43.5q159 0 289 -65t207.5 -178.5t88.5 -255.5h-129q-15 163 -145.5 273.5t-310.5 109.5q-101 0 -184 -37t-138.5 -98t-93.5 -142t-55 -166.5
t-17 -173.5v-24q0 -93 17 -180t55 -167t93.5 -139.5t138.5 -95t184 -35.5q113 0 202 43.5t144 118t83.5 168t28.5 198.5v7h-407v116h536v-739h-118v174q0 69 20 125l16 49l-4 4l-28 -61q-69 -165 -185.5 -242.5t-296.5 -77.5z" />
    <glyph glyph-name="H" unicode="H" horiz-adv-x="1380" 
d="M281 0h-129v1434h129v-639h819v639h129v-1434h-129v680h-819v-680z" />
    <glyph glyph-name="I" unicode="I" horiz-adv-x="432" 
d="M281 0h-129v1434h129v-1434z" />
    <glyph glyph-name="J" unicode="J" horiz-adv-x="884" 
d="M301 -27q-31 0 -65.5 4.5t-51 7.5t-59.5 13.5t-49 11.5v119q140 -39 217 -39q171 0 242 73.5t71 248.5v1022h127v-1037q0 -424 -432 -424z" />
    <glyph glyph-name="K" unicode="K" horiz-adv-x="1148" 
d="M281 0h-129v1434h129v-695h8l667 695h160l-684 -711l684 -729h-160l-667 713h-8v-707z" />
    <glyph glyph-name="L" unicode="L" horiz-adv-x="1181" 
d="M1126 0h-974v1434h129v-1317h845v-117z" />
    <glyph glyph-name="M" unicode="M" horiz-adv-x="1634" 
d="M276 0h-124v1434h200l461 -1299h8l459 1299h201v-1434h-125v1292h-8l-455 -1292h-152l-454 1292h-11v-1292z" />
    <glyph glyph-name="N" unicode="N" horiz-adv-x="1372" 
d="M281 0h-129v1434h149l782 -1229h9v1229h127v-1434h-148l-782 1229h-8v-1229z" />
    <glyph glyph-name="O" unicode="O" horiz-adv-x="1331" 
d="M666 -29q-128 0 -232.5 41.5t-174.5 112t-118 166t-69 199.5t-21 217v18q0 108 21 210.5t69 199t118 168.5t175 115.5t232 43.5q128 0 233 -43.5t174.5 -115.5t117 -168.5t68.5 -199t21 -210.5v-18q0 -113 -21 -217t-68.5 -199.5t-117 -166t-174.5 -112t-233 -41.5z
M666 88q101 -1 184 34.5t138.5 95t93 140t54.5 167.5t17 180v24q0 88 -17 173.5t-55 166.5t-93 142.5t-138 98.5t-184 36q-101 0 -184 -37t-138.5 -98.5t-93.5 -142.5t-55 -166t-17 -173v-24q0 -93 17 -180t55 -167t93.5 -139.5t138.5 -95t184 -35.5z" />
    <glyph glyph-name="P" unicode="P" horiz-adv-x="1294" 
d="M281 0h-129v1434h591q216 0 331.5 -104.5t115.5 -303.5t-116 -304.5t-331 -105.5h-462v-616zM281 1317v-584h460q158 0 239 74t81 219q0 291 -320 291h-460z" />
    <glyph glyph-name="Q" unicode="Q" horiz-adv-x="1333" 
d="M1225 0l-78 -96q-117 37 -219 123q-118 -56 -262 -56q-128 0 -232.5 41.5t-174.5 112t-118 166t-69 199.5t-21 217v18q0 108 21 210.5t69 199t118 168.5t175 115.5t232 43.5q128 0 233 -43.5t174.5 -115.5t117 -168.5t68.5 -199t21 -210.5v-18q0 -187 -59.5 -349
t-180.5 -262q96 -63 185 -96zM666 88q101 -1 184 34.5t138.5 95t93 140t54.5 167.5t17 180v24q0 88 -17 173.5t-55 166.5t-93 142.5t-138 98.5t-184 36q-101 0 -184 -37t-138.5 -98.5t-93.5 -142.5t-55 -166t-17 -173v-24q0 -93 17 -180t55 -167t93.5 -139.5t138.5 -95
t184 -35.5z" />
    <glyph glyph-name="R" unicode="R" horiz-adv-x="1275" 
d="M281 0h-129v1434h591q217 0 332 -100t115 -298q0 -171 -87.5 -270t-252.5 -119l315 -647h-133l-309 637h-442v-637zM281 1317v-563h460q320 0 320 282q0 144 -79.5 212.5t-240.5 68.5h-460z" />
    <glyph glyph-name="S" unicode="S" horiz-adv-x="1212" 
d="M616 -29q-242 0 -382.5 100t-155.5 283h129q17 -132 123.5 -201t287.5 -69q176 0 282 80t106 211q0 100 -81.5 166.5t-269.5 120.5l-116 32q-230 66 -333.5 158t-103.5 231q0 172 138 275.5t368 103.5q221 0 350 -95t146 -269h-127q-17 116 -115 184t-252 68
q-175 0 -277 -71t-102 -192q0 -95 82 -163.5t265 -120.5l116 -31q232 -66 336.5 -157.5t104.5 -229.5q0 -189 -140.5 -301.5t-378.5 -112.5z" />
    <glyph glyph-name="T" unicode="T" horiz-adv-x="1191" 
d="M659 0h-127v1317h-487v117h1102v-117h-485z" />
    <glyph glyph-name="U" unicode="U" horiz-adv-x="1404" 
d="M702 -29q-261 0 -405.5 169t-144.5 470v824h129v-830q0 -243 110.5 -379.5t310.5 -136.5q200 -1 312 137t112 379v830h127v-824q0 -303 -143.5 -471t-407.5 -168z" />
    <glyph glyph-name="V" unicode="V" horiz-adv-x="1349" 
d="M756 0h-162l-567 1434h129l514 -1303h12l512 1303h129z" />
    <glyph glyph-name="W" unicode="W" horiz-adv-x="1912" 
d="M586 0h-142l-417 1434h129l358 -1262h10l359 1262h145l361 -1262h8l360 1262h127l-416 -1434h-143l-364 1253h-9z" />
    <glyph glyph-name="X" unicode="X" horiz-adv-x="1181" 
d="M168 0h-141l493 717l-493 717h141l420 -607h6l420 607h141l-493 -717l493 -717h-141l-420 606h-6z" />
    <glyph glyph-name="Y" unicode="Y" horiz-adv-x="1214" 
d="M672 0h-129v586l-531 848h148l442 -713h8l445 713h147l-530 -848v-586z" />
    <glyph glyph-name="Z" unicode="Z" horiz-adv-x="1263" 
d="M1167 0h-1071v123l916 1186v8h-908v117h1053v-121l-907 -1188v-8h917v-117z" />
    <glyph glyph-name="bracketleft" unicode="[" horiz-adv-x="811" 
d="M750 -258h-598v1720h598v-112h-482v-1495h482v-113z" />
    <glyph glyph-name="backslash" unicode="\" horiz-adv-x="880" 
d="M172 1462l647 -1720h-110l-650 1720h113z" />
    <glyph glyph-name="bracketright" unicode="]" horiz-adv-x="811" 
d="M657 -258h-598v113h484v1495h-484v112h598v-1720z" />
    <glyph glyph-name="asciicircum" unicode="^" horiz-adv-x="1058" 
d="M274 872h-124l319 590h127l319 -590h-124l-254 465h-9z" />
    <glyph glyph-name="underscore" unicode="_" horiz-adv-x="743" 
d="M680 -258h-617v111h617v-111z" />
    <glyph glyph-name="grave" unicode="`" horiz-adv-x="1046" 
d="M662 1194h-99l-151 266h129z" />
    <glyph glyph-name="a" unicode="a" horiz-adv-x="1060" 
d="M422 -29q-151 0 -248.5 80.5t-97.5 204.5q0 266 323 319l326 56q70 12 70 65v19q0 96 -74.5 159.5t-190.5 63.5q-97 0 -173.5 -45t-102.5 -133h-135q32 130 142 211.5t271 81.5q176 0 285 -90.5t109 -239.5v-723h-127v59q0 64 22 123l15 31l-2 2l-35 -55
q-57 -92 -158.5 -140.5t-218.5 -48.5zM440 82q140 0 247.5 76t107.5 188v193l-361 -62q-117 -21 -174 -72t-57 -145q0 -78 67 -128t170 -50z" />
    <glyph glyph-name="b" unicode="b" horiz-adv-x="1120" 
d="M614 -29q-113 0 -207 67t-145 185l-22 53l-4 -2l8 -32q18 -85 18 -125v-117h-127v1434h127v-613h8q46 114 138.5 175t205.5 61q190 0 312.5 -149.5t122.5 -377.5v-34q0 -224 -123.5 -374.5t-311.5 -150.5zM602 80q127 0 222.5 117.5t95.5 296.5v38q0 182 -95.5 297
t-226.5 115q-143 0 -236.5 -103.5t-93.5 -267.5v-118q0 -162 96 -268.5t238 -106.5z" />
    <glyph glyph-name="c" unicode="c" horiz-adv-x="1071" 
d="M551 -29q-204 0 -341.5 148.5t-137.5 369.5v46q0 218 139 368t340 150q191 0 315.5 -109.5t134.5 -286.5h-127q-9 132 -103.5 209.5t-219.5 77.5q-143 0 -246.5 -112.5t-103.5 -290.5v-60q0 -178 102 -288.5t248 -110.5q126 0 220 76.5t103 208.5h127
q-10 -177 -134.5 -286.5t-315.5 -109.5z" />
    <glyph glyph-name="d" unicode="d" horiz-adv-x="1120" 
d="M504 -29q-123 0 -222 69t-154.5 189t-55.5 267v34q0 228 122 377.5t310 149.5q116 0 209 -61t139 -175h6v613h127v-1430h-127v102q0 77 19 146l6 22l-2 2l-23 -53q-51 -118 -145.5 -185t-208.5 -67zM518 80q141 0 237.5 107t96.5 268v118q0 164 -93.5 267.5t-236.5 103.5
q-131 0 -226 -115t-95 -297v-38q0 -180 94.5 -297t222.5 -117z" />
    <glyph glyph-name="e" unicode="e" horiz-adv-x="1089" 
d="M547 -29q-134 0 -243 67.5t-170.5 186t-61.5 264.5v46q0 144 62 262.5t171 187t242 68.5q209 0 341 -145t132 -373v-39h-819v-17q0 -172 98.5 -284.5t247.5 -112.5q108 0 195 65.5t126 178.5h127q-41 -162 -162 -258.5t-286 -96.5zM201 600h690q-20 152 -116.5 248
t-227.5 96t-228.5 -96t-117.5 -248z" />
    <glyph glyph-name="f" unicode="f" horiz-adv-x="575" 
d="M317 0h-127v907h-159v117h159v150q0 142 70 215t209 73q13 0 88 -6v-110q-12 1 -25 2t-20.5 1.5t-11.5 0.5q-99 0 -139.5 -38.5t-41.5 -137.5l-2 -150h226v-117h-226v-907z" />
    <glyph glyph-name="g" unicode="g" horiz-adv-x="1118" 
d="M535 -438q-148 0 -267 71.5t-164 184.5l125 26q33 -76 120 -124t186 -48q140 0 231.5 78t91.5 199v258h-6q-46 -115 -139 -175.5t-209 -60.5q-124 0 -223 67.5t-154 187.5t-55 270v36q0 147 55.5 267t154.5 189t222 69q116 0 212.5 -67.5t141.5 -186.5l23 -51l4 2l-11 39
q-16 69 -16 118v113h125v-1059q0 -181 -123.5 -292t-324.5 -111zM522 82q142 0 236 104.5t94 268.5v116q0 161 -96.5 268t-237.5 107q-129 0 -223 -116.5t-94 -297.5v-38q0 -182 95 -297t226 -115z" />
    <glyph glyph-name="h" unicode="h" horiz-adv-x="1089" 
d="M262 0h-127v1434h127v-465q0 -67 -18 -125l-8 -23l4 -2l22 39q51 90 141.5 142.5t196.5 52.5q169 0 265 -107.5t96 -300.5v-645h-130v641q0 147 -64 225t-187 78q-126 0 -222 -94t-96 -240v-610z" />
    <glyph glyph-name="i" unicode="i" horiz-adv-x="397" 
d="M262 1266h-127v170h127v-170zM262 2h-127v1026h127v-1026z" />
    <glyph glyph-name="j" unicode="j" horiz-adv-x="413" 
d="M283 1266h-129v170h129v-170zM-76 -440v135q116 27 173 114.5t57 247.5v969h129v-981q0 -409 -359 -485z" />
    <glyph glyph-name="k" unicode="k" horiz-adv-x="991" 
d="M262 0h-127v1434h127v-885h8l525 473h161l-553 -498l553 -524h-161l-525 500h-8v-500z" />
    <glyph glyph-name="l" unicode="l" horiz-adv-x="395" 
d="M260 0h-125v1434h125v-1434z" />
    <glyph glyph-name="m" unicode="m" horiz-adv-x="1722" 
d="M262 0h-127v1030h127v-51q0 -63 -18 -121l-8 -22l4 -2l22 38q49 85 135 133t183 48q114 0 195.5 -52.5t121.5 -150.5h8q47 88 139.5 145.5t204.5 57.5q163 0 256.5 -104.5t93.5 -286.5v-662h-129v655q0 135 -63.5 212t-181.5 77q-114 0 -203.5 -89.5t-89.5 -225.5v-629
h-129v655q0 135 -64.5 212t-181.5 77q-115 0 -205 -89.5t-90 -225.5v-629z" />
    <glyph glyph-name="n" unicode="n" horiz-adv-x="1085" 
d="M262 0h-127v1024h127v-59q0 -63 -18 -121l-8 -23l4 -2l22 39q51 90 141.5 142.5t196.5 52.5q169 0 265 -107.5t96 -300.5v-645h-130v641q0 147 -65.5 225t-190.5 78t-219 -93.5t-94 -240.5v-610z" />
    <glyph glyph-name="o" unicode="o" horiz-adv-x="1087" 
d="M545 -29q-202 0 -337.5 150t-135.5 373v36q0 220 136.5 371.5t336.5 151.5q205 0 338 -148t133 -375v-36q0 -227 -133 -375t-338 -148zM545 82q148 0 245 115t97 288v52q0 172 -97 289.5t-245 117.5t-246 -117.5t-98 -289.5v-52q0 -173 97 -288t247 -115z" />
    <glyph glyph-name="p" unicode="p" horiz-adv-x="1120" 
d="M262 -408h-127v1432h127v-113q0 -60 -16 -120l-8 -33l4 -2l20 47q44 122 139 187t213 65q190 0 312.5 -148.5t122.5 -376.5v-36q0 -224 -123.5 -374.5t-311.5 -150.5q-111 0 -204.5 64t-139.5 178h-8v-619zM602 80q128 0 223 116.5t95 295.5v38q0 183 -95.5 297.5
t-226.5 114.5q-143 0 -236.5 -103.5t-93.5 -267.5v-116q0 -162 96 -268.5t238 -106.5z" />
    <glyph glyph-name="q" unicode="q" horiz-adv-x="1120" 
d="M985 -408h-127v619h-8q-45 -113 -139.5 -177.5t-206.5 -64.5q-123 0 -222 69t-154.5 189t-55.5 267v36q0 150 55 270t154 187.5t223 67.5q119 0 214.5 -65t139.5 -187l21 -47l4 2l-9 33q-16 60 -16 120v113h127v-1432zM518 80q141 0 237.5 107t96.5 268v116
q0 164 -93.5 267.5t-236.5 103.5q-131 0 -226 -114.5t-95 -297.5v-38q0 -179 94 -295.5t223 -116.5z" />
    <glyph glyph-name="r" unicode="r" horiz-adv-x="684" 
d="M262 0h-127v1024h127v-61q0 -67 -18 -125l-8 -25l4 -2l22 41q59 112 174 162q71 28 156 37l63 2v-127h-80q-66 0 -119.5 -21.5t-89 -58t-59.5 -85t-34.5 -101.5t-10.5 -109v-551z" />
    <glyph glyph-name="s" unicode="s" horiz-adv-x="954" 
d="M481 -29q-170 0 -282 69t-131 187h143q25 -68 96.5 -107.5t173.5 -39.5q121 0 202 53.5t81 134.5q0 67 -53 109t-176 69l-164 35q-143 32 -212 100t-69 177q0 133 106.5 214t282.5 81q159 0 262.5 -67.5t120.5 -184.5h-135q-19 66 -85 104.5t-163 38.5
q-109 0 -185.5 -47.5t-76.5 -134.5q0 -74 50.5 -110t174.5 -66l156 -33q144 -31 219.5 -103t75.5 -176q0 -138 -112 -220.5t-300 -82.5z" />
    <glyph glyph-name="t" unicode="t" horiz-adv-x="600" 
d="M569 94v-110q-98 -20 -183.5 -1t-129.5 70q-63 72 -63 207v647h-164v117h94q40 0 55 20t15 64v168l129 47v-229q0 -55 -33 -68v-2h268v-117h-235v-626q0 -112 60 -156.5t187 -30.5z" />
    <glyph glyph-name="u" unicode="u" horiz-adv-x="1093" 
d="M494 -29q-169 0 -265 107.5t-96 300.5v645h127v-641q0 -146 65.5 -224.5t188.5 -78.5q126 0 221.5 94t95.5 240v610h127v-1024h-127v59q0 57 21 121l6 21l-4 4l-23 -39q-51 -90 -141 -142.5t-196 -52.5z" />
    <glyph glyph-name="v" unicode="v" horiz-adv-x="1042" 
d="M602 0h-164l-409 1024h125l362 -915h8l365 915h125z" />
    <glyph glyph-name="w" unicode="w" horiz-adv-x="1527" 
d="M496 0h-158l-309 1024h123l264 -885h8l268 885h142l270 -885h8l264 885h123l-309 -1024h-158l-264 870h-8z" />
    <glyph glyph-name="x" unicode="x" horiz-adv-x="991" 
d="M172 -2h-143l395 512l-395 512h143l317 -410h11l317 410h144l-394 -512l394 -512h-144l-317 410h-11z" />
    <glyph glyph-name="y" unicode="y" horiz-adv-x="1021" 
d="M209 -438q-48 0 -84 10l2 115q34 -9 70 -9q63 0 100 34t80 128l69 154l-417 1030h129l350 -866h8l348 866h129l-491 -1186q-69 -158 -130 -217t-163 -59z" />
    <glyph glyph-name="z" unicode="z" horiz-adv-x="974" 
d="M907 0h-837v104l680 795v8h-672v117h825v-109l-674 -790v-8h678v-117z" />
    <glyph glyph-name="braceleft" unicode="{" horiz-adv-x="917" 
d="M858 -258h-217q-171 0 -259.5 94.5t-88.5 272.5v251q0 87 -46 135t-130 48h-58v119h58q84 0 130 47.5t46 134.5v252q0 176 89.5 271t258.5 95h217v-108h-178q-138 0 -204 -65t-66 -197v-234q0 -180 -144 -250v-8q144 -74 144 -254v-235q0 -128 68 -194.5t202 -66.5h178
v-108z" />
    <glyph glyph-name="bar" unicode="|" horiz-adv-x="428" 
d="M276 -131h-124v1696h124v-1696z" />
    <glyph glyph-name="braceright" unicode="}" horiz-adv-x="917" 
d="M274 -258h-215v108h177q270 0 270 261v235q0 177 145 256v4q-145 70 -145 252v234q0 132 -66 197t-204 65h-177v108h215q169 0 259 -95t90 -271v-252q0 -87 46 -134.5t130 -47.5h59v-119h-59q-84 0 -130 -48t-46 -135v-251q0 -178 -89 -272.5t-260 -94.5z" />
    <glyph glyph-name="asciitilde" unicode="~" horiz-adv-x="1075" 
d="M723 518q-46 0 -86.5 21t-70.5 51l-59.5 59.5t-66.5 50.5t-78 21q-63 0 -100 -42t-43 -118h-106q2 125 69 200t185 75q44 0 86.5 -21t76 -51t65 -59.5t63 -50.5t59.5 -21q64 0 102 43t43 119h107q-5 -131 -68 -204t-178 -73z" />
    <glyph glyph-name="uni00A0" unicode="&#xa0;" horiz-adv-x="1216" 
 />
    <glyph glyph-name="exclamdown" unicode="&#xa1;" horiz-adv-x="444" 
d="M291 1253h-137v181h137v-181zM289 0h-131l18 1069h92z" />
    <glyph glyph-name="cent" unicode="&#xa2;" horiz-adv-x="1253" 
d="M707 -2h-103v180q-189 15 -313.5 161t-124.5 355v45q0 207 125 354t313 162v181h103v-183q165 -17 272.5 -124t116.5 -267h-127q-10 132 -104.5 209.5t-219.5 77.5q-143 0 -247.5 -113.5t-104.5 -290.5v-59q0 -178 103 -288.5t249 -110.5q124 0 219 76t105 208h127
q-9 -160 -115.5 -266t-273.5 -125v-182z" />
    <glyph glyph-name="sterling" unicode="&#xa3;" horiz-adv-x="1241" 
d="M1159 -4h-1069v117h199v481h-166v111h166v335q0 185 112 301.5t293 116.5q136 0 236.5 -71t150.5 -201l-102 -53q-39 102 -109.5 156t-169.5 54q-124 0 -203 -84.5t-79 -216.5v-337h473v-111h-473v-481h741v-117z" />
    <glyph glyph-name="currency" unicode="&#xa4;" horiz-adv-x="1036" 
d="M274 393l-170 -174l-79 82l170 172q-86 103 -86 250q0 142 84 248l-168 168l79 82l168 -170q108 82 246 82q135 0 248 -86l172 174l80 -80l-174 -176q82 -109 82 -242q0 -139 -84 -246l176 -176l-80 -82l-174 176q-108 -82 -246 -82t-244 80zM518 424q121 0 209 88.5
t88 210.5q0 121 -88.5 210t-208.5 89q-123 0 -211 -88t-88 -211t88 -211t211 -88z" />
    <glyph glyph-name="yen" unicode="&#xa5;" horiz-adv-x="1148" 
d="M641 0h-127v266h-340v105h340v200h-340v105h287l-479 758h149l447 -723l448 723h148l-478 -758h287v-105h-342v-200h342v-105h-342v-266z" />
    <glyph glyph-name="brokenbar" unicode="&#xa6;" horiz-adv-x="428" 
d="M152 1432h124v-1430h-124v1430z" />
    <glyph glyph-name="section" unicode="&#xa7;" horiz-adv-x="1005" 
d="M498 -176q-185 0 -291.5 88t-102.5 240h123q2 -100 74 -157.5t199 -57.5q117 0 194.5 57t77.5 145q0 44 -18.5 76.5t-59 56t-87.5 39.5t-120 33q-139 37 -211 68q-165 67 -165 239q0 85 46.5 151t129.5 101v6q-154 84 -154 252q0 133 102 217t263 84q166 0 265 -87.5
t93 -231.5h-123q4 91 -62.5 150t-172.5 59q-105 0 -171.5 -52.5t-66.5 -134.5t62 -132.5t202 -82.5q139 -36 209 -71q80 -38 117 -93.5t37 -138.5q0 -74 -39.5 -143t-106.5 -115v-6q160 -75 160 -227q0 -146 -113 -239t-290 -93zM455 473l170 -45q64 34 100.5 88.5
t36.5 118.5q0 130 -182 178l-170 47q-72 -13 -123 -70.5t-51 -125.5q0 -74 49 -117t170 -74z" />
    <glyph glyph-name="dieresis" unicode="&#xa8;" horiz-adv-x="968" 
d="M424 1178h-129v145h129v-145zM672 1178h-127v145h127v-145z" />
    <glyph glyph-name="ordfeminine" unicode="&#xaa;" horiz-adv-x="888" 
d="M389 707q-106 0 -175 56t-69 142q0 185 228 225l229 39q22 3 34.5 15.5t12.5 29.5v13q0 68 -51.5 111.5t-132.5 43.5q-63 0 -117 -33.5t-80 -88.5l-92 14q29 86 108.5 138t182.5 52q122 0 198 -63.5t76 -167.5v-506h-88v41q0 41 17 88l8 21l-2 2l-23 -39
q-39 -66 -110 -99.5t-154 -33.5zM401 784q97 0 172.5 54t75.5 133v133l-252 -43q-83 -18 -122 -52.5t-39 -99.5q0 -55 47 -90t118 -35zM754 539h-619v75h619v-75z" />
    <glyph glyph-name="guillemotleft" unicode="&#xab;" horiz-adv-x="1040" 
d="M539 319h-115l-291 349v12l291 352h113l-291 -352v-4zM905 319h-112l-291 353v12l291 348h112l-291 -352v-4z" />
    <glyph glyph-name="logicalnot" unicode="&#xac;" horiz-adv-x="1009" 
d="M887 496h-113v252h-645v108h758v-360z" />
    <glyph glyph-name="uni00AD" unicode="&#xad;" horiz-adv-x="716" 
d="M653 618h-590v117h590v-117z" />
    <glyph glyph-name="macron" unicode="&#xaf;" horiz-adv-x="1159" 
d="M862 1212h-563v93h563v-93z" />
    <glyph glyph-name="degree" unicode="&#xb0;" horiz-adv-x="700" 
d="M350 920q-117 0 -198.5 82t-81.5 202q0 118 81.5 199.5t198.5 81.5q119 0 200 -80.5t81 -200.5q0 -121 -81 -202.5t-200 -81.5zM350 1020q78 0 130 53t52 131q0 75 -53 128.5t-129 53.5q-74 0 -128 -54t-54 -128q0 -76 53 -130t129 -54z" />
    <glyph glyph-name="plusminus" unicode="&#xb1;" horiz-adv-x="1116" 
d="M610 391h-110v350h-363v111h363v352h110v-352h369v-111h-369v-350zM975 150h-836v106h836v-106z" />
    <glyph glyph-name="uni00B2" unicode="&#xb2;" horiz-adv-x="716" 
d="M647 709h-573v61l280 260q101 94 138 137q69 84 69 170q0 83 -50.5 131t-139.5 48q-86 0 -142.5 -53.5t-62.5 -143.5h-78q9 119 86.5 192.5t196.5 73.5q129 0 197.5 -72t68.5 -174q0 -101 -94 -213q-54 -67 -150 -149l-207 -195v-4h461v-69z" />
    <glyph glyph-name="uni00B3" unicode="&#xb3;" horiz-adv-x="692" 
d="M346 692q-125 0 -212 61t-99 156h78q14 -65 78 -106t153 -41q108 0 169.5 47t61.5 131q0 87 -66.5 133.5t-168.5 46.5h-115v66h117q82 0 141.5 46.5t59.5 121.5q0 69 -58 115.5t-145 46.5q-79 0 -137 -40t-72 -102h-78q14 92 94.5 151.5t194.5 59.5q116 0 196 -65.5
t80 -163.5q0 -65 -39.5 -119t-93.5 -78v-4q70 -19 118 -76t48 -143q0 -108 -85.5 -176t-219.5 -68z" />
    <glyph glyph-name="acute" unicode="&#xb4;" horiz-adv-x="1030" 
d="M483 1194h-96l100 266h131z" />
    <glyph glyph-name="uni00B5" unicode="&#xb5;" horiz-adv-x="1187" 
d="M262 -410h-129v1434h129v-682q0 -121 67 -192.5t181 -71.5q134 0 212.5 94t78.5 258v594h129v-823q0 -54 14 -78.5t47 -24.5h64v-114h-86q-54 0 -95.5 32t-56.5 88l-2 15q-87 -158 -305 -158q-73 0 -141.5 36.5t-106.5 90.5v-498z" />
    <glyph glyph-name="paragraph" unicode="&#xb6;" horiz-adv-x="1069" 
d="M655 0h-108v627q-161 -3 -246 32q-244 95 -244 379q0 127 67 224.5t181 138.5q79 33 193 33h420v-1434h-111v1325h-152v-1325z" />
    <glyph glyph-name="periodcentered" unicode="&#xb7;" horiz-adv-x="716" 
d="M360 586q-38 0 -64 24.5t-26 61.5q0 40 25 66t65 26q37 0 63 -27t26 -65q0 -35 -26.5 -60.5t-62.5 -25.5z" />
    <glyph glyph-name="cedilla" unicode="&#xb8;" horiz-adv-x="1019" 
d="M498 -283q-58 0 -125 27l20 76l84 -15q3 1 15 -0.5t30 6.5t23 25q9 29 -23 47q-5 3 -102 23l41 143h82l-21 -67q51 -13 89.5 -51.5t33.5 -98.5q-6 -60 -47 -87.5t-100 -27.5z" />
    <glyph glyph-name="uni00B9" unicode="&#xb9;" horiz-adv-x="385" 
d="M252 709h-76v757h-4q-15 -31 -59 -52t-93 -21v73q55 0 103.5 32t71.5 71h57v-860z" />
    <glyph glyph-name="ordmasculine" unicode="&#xba;" horiz-adv-x="798" 
d="M401 707q-142 0 -236.5 104t-94.5 260v29q0 154 95 259t236 105q143 0 236.5 -103t93.5 -261v-29q0 -158 -93.5 -261t-236.5 -103zM401 784q104 0 171 80t67 201v39q0 119 -68 200.5t-170 81.5q-105 0 -173 -80.5t-68 -201.5v-39q0 -121 68 -201t173 -80zM711 543h-621
v78h621v-78z" />
    <glyph glyph-name="guillemotright" unicode="&#xbb;" horiz-adv-x="1040" 
d="M539 672l-291 -353h-113l289 357v4l-291 352h115l291 -348v-12zM905 668l-291 -349h-112l293 357v4l-291 352h110l291 -352v-12z" />
    <glyph glyph-name="onequarter" unicode="&#xbc;" horiz-adv-x="1507" 
d="M162 8h-76l1044 1454h74zM254 586h-78v757h-4q-15 -31 -58.5 -52t-90.5 -21v73q55 0 101.5 31.5t70.5 71.5h59v-860zM1339 -8h-77v188h-461v76l444 596h94v-602h129v-70h-129v-188zM1253 756l-381 -508h390v508h-9z" />
    <glyph glyph-name="onehalf" unicode="&#xbd;" horiz-adv-x="1572" 
d="M162 8h-76l1044 1454h74zM254 586h-78v757h-4q-15 -31 -58.5 -52t-90.5 -21v73q55 0 101.5 31.5t70.5 71.5h59v-860zM1503 -8h-573v61l280 260q97 90 138 138q69 84 69 170q0 83 -50.5 130.5t-139.5 47.5q-86 0 -142.5 -53.5t-62.5 -143.5h-78q9 119 86.5 192.5
t196.5 73.5q129 0 197.5 -71.5t68.5 -173.5q0 -101 -94 -213q-56 -70 -150 -150l-207 -194v-5h461v-69z" />
    <glyph glyph-name="threequarters" unicode="&#xbe;" horiz-adv-x="1816" 
d="M346 569q-125 0 -212 61t-97 156h78q12 -64 76.5 -105.5t152.5 -41.5q108 0 169.5 47t61.5 131q0 87 -66.5 133.5t-168.5 46.5h-113v66h115q82 0 141.5 46.5t59.5 121.5q0 69 -58 115.5t-145 46.5q-78 0 -136.5 -40t-70.5 -102h-78q12 92 93 151.5t194 59.5
q116 0 197.5 -66t81.5 -163q0 -65 -40.5 -119t-95.5 -78v-4q71 -19 119.5 -75.5t48.5 -143.5q0 -108 -86 -176t-221 -68zM471 8h-76l1045 1454h73zM1649 -8h-78v188h-461v76l444 596h95v-602h129v-70h-129v-188zM1563 756l-381 -508h389v508h-8z" />
    <glyph glyph-name="questiondown" unicode="&#xbf;" horiz-adv-x="1110" 
d="M672 1257h-142v181h142v-181zM569 -25q-202 0 -333.5 103t-131.5 262q0 114 61 202t175 142q121 57 159 102t38 140v104h129v-125q0 -72 -24 -125t-62.5 -84.5t-85 -56t-92.5 -48.5t-84.5 -53.5t-62.5 -79.5t-24 -118q0 -105 97.5 -176.5t240.5 -71.5q133 0 227.5 68.5
t114.5 179.5h123q-15 -162 -144 -263.5t-321 -101.5z" />
    <glyph glyph-name="Agrave" unicode="&#xc0;" horiz-adv-x="1359" 
d="M713 1565h-97l-151 266h129zM160 0h-133l567 1434h172l567 -1434h-133l-176 440h-688zM674 1303l-295 -748h602l-295 748h-12z" />
    <glyph glyph-name="Aacute" unicode="&#xc1;" horiz-adv-x="1359" 
d="M745 1565h-96l101 266h129zM160 0h-133l567 1434h172l567 -1434h-133l-176 440h-688zM674 1303l-295 -748h602l-295 748h-12z" />
    <glyph glyph-name="Acircumflex" unicode="&#xc2;" horiz-adv-x="1359" 
d="M532 1544h-124l223 281h102l221 -281h-123l-143 189h-12zM160 0h-133l567 1434h172l567 -1434h-133l-176 440h-688zM674 1303l-295 -748h602l-295 748h-12z" />
    <glyph glyph-name="Atilde" unicode="&#xc3;" horiz-adv-x="1359" 
d="M459 1532h-94q3 126 50.5 193t135.5 67q75 0 143 -74q25 -26 36.5 -38t34 -27t40.5 -17q48 -5 71.5 33t24.5 125h94q-3 -126 -49.5 -193t-134.5 -67q-63 0 -123 53q-15 15 -36.5 40t-33 36.5t-30 21.5t-39.5 9q-87 0 -90 -162zM160 0h-133l567 1434h172l567 -1434h-133
l-176 440h-688zM674 1303l-295 -748h602l-295 748h-12z" />
    <glyph glyph-name="Adieresis" unicode="&#xc4;" horiz-adv-x="1359" 
d="M618 1563h-126v145h126v-145zM868 1563h-129v145h129v-145zM160 0h-133l567 1434h172l567 -1434h-133l-176 440h-688zM674 1303l-295 -748h602l-295 748h-12z" />
    <glyph glyph-name="Aring" unicode="&#xc5;" horiz-adv-x="1359" 
d="M682 1495q-85 0 -141 54.5t-56 136.5q0 80 57 135t140 55q85 0 140 -54t55 -136t-56 -136.5t-139 -54.5zM684 1573q43 0 75 33.5t32 79.5q0 45 -32 77.5t-75 32.5q-47 0 -80 -32t-33 -78q0 -47 33 -80t80 -33zM160 0h-133l567 1434h172l567 -1434h-133l-176 440h-688z
M674 1303l-295 -748h602l-295 748h-12z" />
    <glyph glyph-name="AE" unicode="&#xc6;" horiz-adv-x="1449" 
d="M160 0h-127l551 1434h766v-117h-508v-526h395v-117h-395v-557h508v-117h-637v395h-400zM643 1255l-289 -745h359v745h-70z" />
    <glyph glyph-name="Ccedilla" unicode="&#xc7;" horiz-adv-x="1361" 
d="M1114 442h131q-19 -189 -156 -317t-346 -150h25l-20 -69q52 -13 89.5 -50.5t32.5 -97.5q-6 -60 -47 -88t-100 -28q-55 0 -125 28l20 76l84 -16q3 1 15 -0.5t30 6.5t23 24q10 32 -22 50q-5 3 -12 4.5t-34.5 6.5t-56.5 11l39 139h-18q-128 0 -232.5 41.5t-174.5 112
t-118 166t-69 199.5t-21 217v18q0 108 21 210.5t69 199t118 168.5t175 115.5t232 43.5q237 0 396 -132t179 -337h-131q-19 156 -138.5 255t-305.5 98q-101 0 -184 -37t-138.5 -98.5t-93.5 -142.5t-55 -166t-17 -173v-24q0 -93 17 -180t55 -167t93.5 -139.5t138.5 -95
t184 -35.5q187 -1 308.5 97.5t139.5 256.5z" />
    <glyph glyph-name="Egrave" unicode="&#xc8;" horiz-adv-x="1253" 
d="M705 1565h-97l-151 266h129zM1151 0h-999v1434h999v-117h-870v-526h798v-115h-798v-559h870v-117z" />
    <glyph glyph-name="Eacute" unicode="&#xc9;" horiz-adv-x="1253" 
d="M737 1565h-96l100 266h129zM1151 0h-999v1434h999v-117h-870v-526h798v-115h-798v-559h870v-117z" />
    <glyph glyph-name="Ecircumflex" unicode="&#xca;" horiz-adv-x="1253" 
d="M522 1544h-125l224 281h102l221 -281h-123l-143 189h-12zM1151 0h-999v1434h999v-117h-870v-526h798v-115h-798v-559h870v-117z" />
    <glyph glyph-name="Edieresis" unicode="&#xcb;" horiz-adv-x="1253" 
d="M610 1563h-127v145h127v-145zM860 1563h-129v145h129v-145zM1151 0h-999v1434h999v-117h-870v-526h798v-115h-798v-559h870v-117z" />
    <glyph glyph-name="Igrave" unicode="&#xcc;" horiz-adv-x="432" 
d="M248 1565h-96l-152 266h129zM281 0h-129v1434h129v-1434z" />
    <glyph glyph-name="Iacute" unicode="&#xcd;" horiz-adv-x="432" 
d="M281 1565h-97l101 266h129zM281 0h-129v1434h129v-1434z" />
    <glyph glyph-name="Icircumflex" unicode="&#xce;" horiz-adv-x="432" 
d="M66 1544h-125l223 281h102l221 -281h-122l-144 189h-12zM281 0h-129v1434h129v-1434z" />
    <glyph glyph-name="Idieresis" unicode="&#xcf;" horiz-adv-x="432" 
d="M154 1563h-127v145h127v-145zM403 1563h-129v145h129v-145zM281 0h-129v1434h129v-1434z" />
    <glyph glyph-name="Eth" unicode="&#xd0;" horiz-adv-x="1384" 
d="M618 0h-466v674h-105v112h105v648h466q308 0 493 -196t185 -521t-185 -521t-493 -196zM281 674v-557h325q257 0 409 161.5t152 438.5q0 279 -151 439.5t-410 160.5h-325v-531h356v-112h-356z" />
    <glyph glyph-name="Ntilde" unicode="&#xd1;" horiz-adv-x="1372" 
d="M465 1532h-94q3 126 50.5 193t135.5 67q75 0 143 -74q25 -26 36.5 -38t34 -27t40.5 -17q48 -5 71.5 33t24.5 125h94q-3 -126 -49.5 -193t-134.5 -67q-63 0 -123 53q-15 15 -36.5 40t-33 36.5t-30 21.5t-39.5 9q-87 0 -90 -162zM281 0h-129v1434h149l782 -1229h9v1229h127
v-1434h-148l-782 1229h-8v-1229z" />
    <glyph glyph-name="Ograve" unicode="&#xd2;" horiz-adv-x="1331" 
d="M698 1565h-96l-151 266h129zM666 -29q-128 0 -232.5 41.5t-174.5 112t-118 166t-69 199.5t-21 217v18q0 108 21 210.5t69 199t118 168.5t175 115.5t232 43.5q128 0 233 -43.5t174.5 -115.5t117 -168.5t68.5 -199t21 -210.5v-18q0 -113 -21 -217t-68.5 -199.5t-117 -166
t-174.5 -112t-233 -41.5zM666 88q101 -1 184 34.5t138.5 95t93 140t54.5 167.5t17 180v24q0 88 -17 173.5t-55 166.5t-93 142.5t-138 98.5t-184 36q-101 0 -184 -37t-138.5 -98.5t-93.5 -142.5t-55 -166t-17 -173v-24q0 -93 17 -180t55 -167t93.5 -139.5t138.5 -95
t184 -35.5z" />
    <glyph glyph-name="Oacute" unicode="&#xd3;" horiz-adv-x="1331" 
d="M731 1565h-96l100 266h129zM666 -29q-128 0 -232.5 41.5t-174.5 112t-118 166t-69 199.5t-21 217v18q0 108 21 210.5t69 199t118 168.5t175 115.5t232 43.5q128 0 233 -43.5t174.5 -115.5t117 -168.5t68.5 -199t21 -210.5v-18q0 -113 -21 -217t-68.5 -199.5t-117 -166
t-174.5 -112t-233 -41.5zM666 88q101 -1 184 34.5t138.5 95t93 140t54.5 167.5t17 180v24q0 88 -17 173.5t-55 166.5t-93 142.5t-138 98.5t-184 36q-101 0 -184 -37t-138.5 -98.5t-93.5 -142.5t-55 -166t-17 -173v-24q0 -93 17 -180t55 -167t93.5 -139.5t138.5 -95
t184 -35.5z" />
    <glyph glyph-name="Ocircumflex" unicode="&#xd4;" horiz-adv-x="1331" 
d="M518 1544h-125l223 281h103l221 -281h-123l-143 189h-12zM666 -29q-128 0 -232.5 41.5t-174.5 112t-118 166t-69 199.5t-21 217v18q0 108 21 210.5t69 199t118 168.5t175 115.5t232 43.5q128 0 233 -43.5t174.5 -115.5t117 -168.5t68.5 -199t21 -210.5v-18
q0 -113 -21 -217t-68.5 -199.5t-117 -166t-174.5 -112t-233 -41.5zM666 88q101 -1 184 34.5t138.5 95t93 140t54.5 167.5t17 180v24q0 88 -17 173.5t-55 166.5t-93 142.5t-138 98.5t-184 36q-101 0 -184 -37t-138.5 -98.5t-93.5 -142.5t-55 -166t-17 -173v-24q0 -93 17 -180
t55 -167t93.5 -139.5t138.5 -95t184 -35.5z" />
    <glyph glyph-name="Otilde" unicode="&#xd5;" horiz-adv-x="1331" 
d="M444 1532h-94q3 126 51 193t136 67q75 0 143 -74q25 -26 36.5 -38t34 -27t40.5 -17q48 -5 71.5 33t24.5 125h94q-3 -126 -49.5 -193t-134.5 -67q-63 0 -123 53q-15 15 -36.5 40t-33 36.5t-30 21.5t-39.5 9q-88 0 -91 -162zM666 -29q-128 0 -232.5 41.5t-174.5 112
t-118 166t-69 199.5t-21 217v18q0 108 21 210.5t69 199t118 168.5t175 115.5t232 43.5q128 0 233 -43.5t174.5 -115.5t117 -168.5t68.5 -199t21 -210.5v-18q0 -113 -21 -217t-68.5 -199.5t-117 -166t-174.5 -112t-233 -41.5zM666 88q101 -1 184 34.5t138.5 95t93 140
t54.5 167.5t17 180v24q0 88 -17 173.5t-55 166.5t-93 142.5t-138 98.5t-184 36q-101 0 -184 -37t-138.5 -98.5t-93.5 -142.5t-55 -166t-17 -173v-24q0 -93 17 -180t55 -167t93.5 -139.5t138.5 -95t184 -35.5z" />
    <glyph glyph-name="Odieresis" unicode="&#xd6;" horiz-adv-x="1331" 
d="M604 1563h-127v145h127v-145zM854 1563h-129v145h129v-145zM666 -29q-128 0 -232.5 41.5t-174.5 112t-118 166t-69 199.5t-21 217v18q0 108 21 210.5t69 199t118 168.5t175 115.5t232 43.5q128 0 233 -43.5t174.5 -115.5t117 -168.5t68.5 -199t21 -210.5v-18
q0 -113 -21 -217t-68.5 -199.5t-117 -166t-174.5 -112t-233 -41.5zM666 88q101 -1 184 34.5t138.5 95t93 140t54.5 167.5t17 180v24q0 88 -17 173.5t-55 166.5t-93 142.5t-138 98.5t-184 36q-101 0 -184 -37t-138.5 -98.5t-93.5 -142.5t-55 -166t-17 -173v-24q0 -93 17 -180
t55 -167t93.5 -139.5t138.5 -95t184 -35.5z" />
    <glyph glyph-name="multiply" unicode="&#xd7;" horiz-adv-x="1116" 
d="M559 592l-321 -320l-82 86l319 320l-305 305l82 84l307 -305l318 317l84 -84l-320 -317l307 -307l-82 -84z" />
    <glyph glyph-name="Oslash" unicode="&#xd8;" horiz-adv-x="1435" 
d="M719 -29q-199 0 -340 101l-43 -72h-115l84 133q-102 102 -152.5 253.5t-50.5 320.5v18q0 108 21.5 210.5t69.5 199t118 168.5t175.5 115.5t232.5 43.5q192 0 336 -100l43 72h116l-84 -136q101 -104 152 -256.5t51 -316.5v-18q0 -113 -21 -217t-68.5 -199.5t-117 -166
t-174.5 -112t-233 -41.5zM231 729v-24q0 -131 37 -251.5t109 -205.5l612 1009q-117 89 -270 89q-101 0 -184 -37t-138.5 -98.5t-93.5 -142.5t-55 -166t-17 -173zM1057 1184l-613 -1008q115 -88 275 -88q100 -1 183 34.5t138.5 95t93.5 140t55 167.5t17 180v24
q0 126 -37.5 247t-111.5 208z" />
    <glyph glyph-name="Ugrave" unicode="&#xd9;" horiz-adv-x="1404" 
d="M735 1565h-96l-152 266h129zM702 -29q-261 0 -405.5 169t-144.5 470v824h129v-830q0 -243 110.5 -379.5t310.5 -136.5q200 -1 312 137t112 379v830h127v-824q0 -303 -143.5 -471t-407.5 -168z" />
    <glyph glyph-name="Uacute" unicode="&#xda;" horiz-adv-x="1404" 
d="M768 1565h-96l100 266h129zM702 -29q-261 0 -405.5 169t-144.5 470v824h129v-830q0 -243 110.5 -379.5t310.5 -136.5q200 -1 312 137t112 379v830h127v-824q0 -303 -143.5 -471t-407.5 -168z" />
    <glyph glyph-name="Ucircumflex" unicode="&#xdb;" horiz-adv-x="1404" 
d="M553 1544h-125l223 281h103l221 -281h-123l-143 189h-13zM702 -29q-261 0 -405.5 169t-144.5 470v824h129v-830q0 -243 110.5 -379.5t310.5 -136.5q200 -1 312 137t112 379v830h127v-824q0 -303 -143.5 -471t-407.5 -168z" />
    <glyph glyph-name="Udieresis" unicode="&#xdc;" horiz-adv-x="1404" 
d="M641 1563h-127v145h127v-145zM891 1563h-129v145h129v-145zM702 -29q-261 0 -405.5 169t-144.5 470v824h129v-830q0 -243 110.5 -379.5t310.5 -136.5q200 -1 312 137t112 379v830h127v-824q0 -303 -143.5 -471t-407.5 -168z" />
    <glyph glyph-name="Yacute" unicode="&#xdd;" horiz-adv-x="1214" 
d="M672 1565h-97l101 266h129zM672 0h-129v586l-531 848h148l442 -713h8l445 713h147l-530 -848v-586z" />
    <glyph glyph-name="Thorn" unicode="&#xde;" horiz-adv-x="1243" 
d="M281 0h-129v1434h129v-295h460q215 0 330 -106t115 -304q0 -196 -115.5 -301.5t-329.5 -105.5h-460v-322zM281 1022v-584h456q157 0 239.5 74.5t82.5 218.5t-81.5 217.5t-240.5 73.5h-456z" />
    <glyph glyph-name="germandbls" unicode="&#xdf;" horiz-adv-x="1019" 
d="M563 -27q-44 0 -108 11v116q34 -10 92 -10q135 -1 208.5 90t73.5 226q0 152 -87.5 224t-266.5 72v140q57 0 103.5 17.5t75 45.5t48 64t27.5 70.5t8 68.5q0 114 -63 177t-180 63q-113 0 -175.5 -70.5t-62.5 -185.5v-1092h-121l-2 1069q0 183 94.5 288t266.5 105
q174 0 269 -96t95 -268q0 -87 -53.5 -175.5t-124.5 -131.5v-7q129 -33 199.5 -129.5t70.5 -255.5q0 -193 -112 -309.5t-275 -116.5z" />
    <glyph glyph-name="agrave" unicode="&#xe0;" horiz-adv-x="1060" 
d="M582 1153h-99l-151 266h129zM422 -29q-151 0 -248.5 80.5t-97.5 204.5q0 266 323 319l326 56q70 12 70 65v19q0 96 -74.5 159.5t-190.5 63.5q-97 0 -173.5 -45t-102.5 -133h-135q32 130 142 211.5t271 81.5q176 0 285 -90.5t109 -239.5v-723h-127v59q0 64 22 123l15 31
l-2 2l-35 -55q-57 -92 -158.5 -140.5t-218.5 -48.5zM440 82q140 0 247.5 76t107.5 188v193l-361 -62q-117 -21 -174 -72t-57 -145q0 -78 67 -128t170 -50z" />
    <glyph glyph-name="aacute" unicode="&#xe1;" horiz-adv-x="1060" 
d="M575 1155h-96l101 266h131zM422 -29q-151 0 -248.5 80.5t-97.5 204.5q0 266 323 319l326 56q70 12 70 65v19q0 96 -74.5 159.5t-190.5 63.5q-97 0 -173.5 -45t-102.5 -133h-135q32 130 142 211.5t271 81.5q176 0 285 -90.5t109 -239.5v-723h-127v59q0 64 22 123l15 31
l-2 2l-35 -55q-57 -92 -158.5 -140.5t-218.5 -48.5zM440 82q140 0 247.5 76t107.5 188v193l-361 -62q-117 -21 -174 -72t-57 -145q0 -78 67 -128t170 -50z" />
    <glyph glyph-name="acircumflex" unicode="&#xe2;" horiz-adv-x="1060" 
d="M383 1151h-125l223 281h103l221 -281h-123l-143 188h-13zM422 -29q-151 0 -248.5 80.5t-97.5 204.5q0 266 323 319l326 56q70 12 70 65v19q0 96 -74.5 159.5t-190.5 63.5q-97 0 -173.5 -45t-102.5 -133h-135q32 130 142 211.5t271 81.5q176 0 285 -90.5t109 -239.5v-723
h-127v59q0 64 22 123l15 31l-2 2l-35 -55q-57 -92 -158.5 -140.5t-218.5 -48.5zM440 82q140 0 247.5 76t107.5 188v193l-361 -62q-117 -21 -174 -72t-57 -145q0 -78 67 -128t170 -50z" />
    <glyph glyph-name="atilde" unicode="&#xe3;" horiz-adv-x="1060" 
d="M303 1143h-94q3 126 50.5 193t135.5 67q75 0 146 -74q3 -3 16 -17.5t18 -19.5t17 -16t19.5 -15.5t18 -9t19.5 -4.5q48 -5 71.5 33t24.5 125h95q-3 -126 -50 -193t-135 -67q-67 0 -123 53q-15 15 -36.5 40t-33 36t-30 21t-39.5 10q-44 -2 -66.5 -40t-23.5 -122zM422 -29
q-151 0 -248.5 80.5t-97.5 204.5q0 266 323 319l326 56q70 12 70 65v19q0 96 -74.5 159.5t-190.5 63.5q-97 0 -173.5 -45t-102.5 -133h-135q32 130 142 211.5t271 81.5q176 0 285 -90.5t109 -239.5v-723h-127v59q0 64 22 123l15 31l-2 2l-35 -55q-57 -92 -158.5 -140.5
t-218.5 -48.5zM440 82q140 0 247.5 76t107.5 188v193l-361 -62q-117 -21 -174 -72t-57 -145q0 -78 67 -128t170 -50z" />
    <glyph glyph-name="adieresis" unicode="&#xe4;" horiz-adv-x="1060" 
d="M475 1159h-129v146h129v-146zM723 1159h-127v146h127v-146zM422 -29q-151 0 -248.5 80.5t-97.5 204.5q0 266 323 319l326 56q70 12 70 65v19q0 96 -74.5 159.5t-190.5 63.5q-97 0 -173.5 -45t-102.5 -133h-135q32 130 142 211.5t271 81.5q176 0 285 -90.5t109 -239.5
v-723h-127v59q0 64 22 123l15 31l-2 2l-35 -55q-57 -92 -158.5 -140.5t-218.5 -48.5zM440 82q140 0 247.5 76t107.5 188v193l-361 -62q-117 -21 -174 -72t-57 -145q0 -78 67 -128t170 -50z" />
    <glyph glyph-name="aring" unicode="&#xe5;" horiz-adv-x="1060" 
d="M530 1114q-83 0 -138.5 54.5t-55.5 136.5q0 80 56 135t138 55q86 0 141.5 -54t55.5 -136t-56 -136.5t-141 -54.5zM532 1192q44 0 75.5 33.5t31.5 79.5t-31.5 78t-75.5 32q-46 0 -78 -32t-32 -78q0 -47 32 -80t78 -33zM422 -29q-151 0 -248.5 80.5t-97.5 204.5
q0 266 323 319l326 56q70 12 70 65v19q0 96 -74.5 159.5t-190.5 63.5q-97 0 -173.5 -45t-102.5 -133h-135q32 130 142 211.5t271 81.5q176 0 285 -90.5t109 -239.5v-723h-127v59q0 64 22 123l15 31l-2 2l-35 -55q-57 -92 -158.5 -140.5t-218.5 -48.5zM440 82q140 0 247.5 76
t107.5 188v193l-361 -62q-117 -21 -174 -72t-57 -145q0 -78 67 -128t170 -50z" />
    <glyph glyph-name="ae" unicode="&#xe6;" horiz-adv-x="1400" 
d="M373 -29q-135 0 -217 84t-82 221q0 135 88.5 215.5t243.5 86.5l223 10v106q0 124 -51 188t-152 64q-87 0 -142 -54.5t-63 -133.5h-119q12 132 104.5 213.5t229.5 81.5q96 0 166 -44.5t103 -129.5q33 82 107.5 128t170.5 46q170 0 260 -129t90 -371v-66h-575v-51
q0 -176 58 -267t169 -91q78 0 137 50t92 148h117q-38 -154 -123.5 -229.5t-224.5 -75.5q-94 0 -173.5 53t-113.5 136q-47 -92 -130.5 -140.5t-192.5 -48.5zM762 594h448q0 170 -63 263t-172 93q-96 0 -150 -90t-63 -266zM387 78q110 0 177 72t67 194v141l-234 -10
q-91 -4 -146.5 -56.5t-55.5 -131.5q0 -98 51.5 -153.5t140.5 -55.5z" />
    <glyph glyph-name="ccedilla" unicode="&#xe7;" horiz-adv-x="1058" 
d="M551 82q126 0 220 76.5t103 208.5h127q-10 -167 -122 -274.5t-287 -119.5l-19 -65q51 -13 89.5 -51.5t33.5 -98.5q-6 -60 -47 -87t-100 -27q-47 0 -127 26l22 78l84 -16q3 1 15 -1t30 6t23 25q9 27 -23 48q-2 1 -104 24l41 139q-190 15 -314 160.5t-124 355.5v46
q0 218 139 368t340 150q191 0 315.5 -109.5t134.5 -286.5h-127q-9 132 -103.5 209.5t-219.5 77.5q-143 0 -246.5 -112.5t-103.5 -290.5v-60q0 -178 102 -288.5t248 -110.5z" />
    <glyph glyph-name="egrave" unicode="&#xe8;" horiz-adv-x="1089" 
d="M600 1153h-98l-152 266h129zM547 -29q-134 0 -243 67.5t-170.5 186t-61.5 264.5v46q0 144 62 262.5t171 187t242 68.5q209 0 341 -145t132 -373v-39h-819v-17q0 -172 98.5 -284.5t247.5 -112.5q108 0 195 65.5t126 178.5h127q-41 -162 -162 -258.5t-286 -96.5zM201 600
h690q-20 152 -116.5 248t-227.5 96t-228.5 -96t-117.5 -248z" />
    <glyph glyph-name="eacute" unicode="&#xe9;" horiz-adv-x="1089" 
d="M594 1155h-96l100 266h131zM547 -29q-134 0 -243 67.5t-170.5 186t-61.5 264.5v46q0 144 62 262.5t171 187t242 68.5q209 0 341 -145t132 -373v-39h-819v-17q0 -172 98.5 -284.5t247.5 -112.5q108 0 195 65.5t126 178.5h127q-41 -162 -162 -258.5t-286 -96.5zM201 600
h690q-20 152 -116.5 248t-227.5 96t-228.5 -96t-117.5 -248z" />
    <glyph glyph-name="ecircumflex" unicode="&#xea;" horiz-adv-x="1089" 
d="M401 1151h-125l224 281h102l221 -281h-123l-143 188h-12zM547 -29q-134 0 -243 67.5t-170.5 186t-61.5 264.5v46q0 144 62 262.5t171 187t242 68.5q209 0 341 -145t132 -373v-39h-819v-17q0 -172 98.5 -284.5t247.5 -112.5q108 0 195 65.5t126 178.5h127
q-41 -162 -162 -258.5t-286 -96.5zM201 600h690q-20 152 -116.5 248t-227.5 96t-228.5 -96t-117.5 -248z" />
    <glyph glyph-name="edieresis" unicode="&#xeb;" horiz-adv-x="1089" 
d="M492 1159h-130v146h130v-146zM739 1159h-127v146h127v-146zM547 -29q-134 0 -243 67.5t-170.5 186t-61.5 264.5v46q0 144 62 262.5t171 187t242 68.5q209 0 341 -145t132 -373v-39h-819v-17q0 -172 98.5 -284.5t247.5 -112.5q108 0 195 65.5t126 178.5h127
q-41 -162 -162 -258.5t-286 -96.5zM201 600h690q-20 152 -116.5 248t-227.5 96t-228.5 -96t-117.5 -248z" />
    <glyph glyph-name="igrave" unicode="&#xec;" horiz-adv-x="333" 
d="M221 1153h-98l-152 266h129zM229 0h-123v1024h123v-1024z" />
    <glyph glyph-name="iacute" unicode="&#xed;" horiz-adv-x="333" 
d="M215 1155h-96l100 266h131zM229 0h-123v1024h123v-1024z" />
    <glyph glyph-name="icircumflex" unicode="&#xee;" horiz-adv-x="333" 
d="M20 1151h-124l223 281h102l221 -281h-123l-143 188h-12zM229 0h-123v1024h123v-1024z" />
    <glyph glyph-name="idieresis" unicode="&#xef;" horiz-adv-x="333" 
d="M113 1159h-129v146h129v-146zM360 1159h-127v146h127v-146zM229 0h-123v1024h123v-1024z" />
    <glyph glyph-name="eth" unicode="&#xf0;" horiz-adv-x="1015" 
d="M506 -29q-201 0 -318.5 125t-117.5 340v56q0 213 113.5 338.5t305.5 125.5q206 0 302 -147h2q-56 177 -197 350l-262 -100l-8 104l194 72q-121 128 -219 199h176q83 -71 156 -152l274 104l8 -104l-208 -76q108 -128 173.5 -295.5t65.5 -351.5v-123q0 -216 -117.5 -340.5
t-322.5 -124.5zM508 82q148 0 229.5 99t81.5 276v26q0 172 -83.5 273.5t-227.5 101.5t-226.5 -100.5t-82.5 -274.5v-26q0 -177 81.5 -276t227.5 -99z" />
    <glyph glyph-name="ntilde" unicode="&#xf1;" horiz-adv-x="1085" 
d="M334 1143h-94q3 126 50.5 193t135.5 67q74 0 145 -74q3 -3 14 -15t15.5 -16.5l14.5 -14.5t16.5 -14.5t15.5 -10t17 -8.5t16 -3q48 -5 71.5 33t24.5 125h94q-3 -126 -49.5 -193t-134.5 -67q-67 0 -123 53q-15 15 -36.5 40t-33 36t-30 21t-39.5 10q-44 -2 -66.5 -40
t-23.5 -122zM262 0h-127v1024h127v-59q0 -63 -18 -121l-8 -23l4 -2l22 39q51 90 141.5 142.5t196.5 52.5q169 0 265 -107.5t96 -300.5v-645h-130v641q0 147 -65.5 225t-190.5 78t-219 -93.5t-94 -240.5v-610z" />
    <glyph glyph-name="ograve" unicode="&#xf2;" horiz-adv-x="1087" 
d="M598 1153h-98l-152 266h129zM545 -29q-202 0 -337.5 150t-135.5 373v36q0 220 136.5 371.5t336.5 151.5q205 0 338 -148t133 -375v-36q0 -227 -133 -375t-338 -148zM545 82q148 0 245 115t97 288v52q0 172 -97 289.5t-245 117.5t-246 -117.5t-98 -289.5v-52
q0 -173 97 -288t247 -115z" />
    <glyph glyph-name="oacute" unicode="&#xf3;" horiz-adv-x="1087" 
d="M592 1155h-96l100 266h131zM545 -29q-202 0 -337.5 150t-135.5 373v36q0 220 136.5 371.5t336.5 151.5q205 0 338 -148t133 -375v-36q0 -227 -133 -375t-338 -148zM545 82q148 0 245 115t97 288v52q0 172 -97 289.5t-245 117.5t-246 -117.5t-98 -289.5v-52
q0 -173 97 -288t247 -115z" />
    <glyph glyph-name="ocircumflex" unicode="&#xf4;" horiz-adv-x="1087" 
d="M399 1151h-125l224 281h102l221 -281h-123l-143 188h-12zM545 -29q-202 0 -337.5 150t-135.5 373v36q0 220 136.5 371.5t336.5 151.5q205 0 338 -148t133 -375v-36q0 -227 -133 -375t-338 -148zM545 82q148 0 245 115t97 288v52q0 172 -97 289.5t-245 117.5t-246 -117.5
t-98 -289.5v-52q0 -173 97 -288t247 -115z" />
    <glyph glyph-name="otilde" unicode="&#xf5;" horiz-adv-x="1087" 
d="M319 1143h-94q3 126 51 193t136 67q74 0 145 -74q3 -3 14 -15t15.5 -16.5l14.5 -14.5t16.5 -14.5t15.5 -10t17 -8.5t16 -3q48 -5 71.5 33t24.5 125h94q-3 -126 -49.5 -193t-134.5 -67q-67 0 -123 53q-15 15 -36.5 40t-33 36t-30 21t-39.5 10q-44 -2 -67 -40t-24 -122z
M545 -29q-202 0 -337.5 150t-135.5 373v36q0 220 136.5 371.5t336.5 151.5q205 0 338 -148t133 -375v-36q0 -227 -133 -375t-338 -148zM545 82q148 0 245 115t97 288v52q0 172 -97 289.5t-245 117.5t-246 -117.5t-98 -289.5v-52q0 -173 97 -288t247 -115z" />
    <glyph glyph-name="odieresis" unicode="&#xf6;" horiz-adv-x="1087" 
d="M492 1159h-130v146h130v-146zM739 1159h-127v146h127v-146zM545 -29q-202 0 -337.5 150t-135.5 373v36q0 220 136.5 371.5t336.5 151.5q205 0 338 -148t133 -375v-36q0 -227 -133 -375t-338 -148zM545 82q148 0 245 115t97 288v52q0 172 -97 289.5t-245 117.5
t-246 -117.5t-98 -289.5v-52q0 -173 97 -288t247 -115z" />
    <glyph glyph-name="divide" unicode="&#xf7;" horiz-adv-x="1116" 
d="M639 997h-162v160h162v-160zM1047 616h-977v121h977v-121zM639 195h-162v161h162v-161z" />
    <glyph glyph-name="oslash" unicode="&#xf8;" horiz-adv-x="1083" 
d="M961 1026l-82 -115q137 -150 137 -381v-36q0 -227 -133 -375t-338 -148q-153 0 -273 90l-45 -61h-100l84 117q-139 148 -139 377v36q0 220 136.5 371.5t336.5 151.5q151 0 270 -86l41 59h105zM201 537v-52q0 -152 82 -268l462 653q-87 74 -200 74q-148 0 -246 -117.5
t-98 -289.5zM887 485v52q0 154 -82 270l-467 -651q90 -74 207 -74q148 0 245 115t97 288z" />
    <glyph glyph-name="ugrave" unicode="&#xf9;" horiz-adv-x="1093" 
d="M575 1153h-98l-151 266h129zM494 -29q-169 0 -265 107.5t-96 300.5v645h127v-641q0 -146 65.5 -224.5t188.5 -78.5q126 0 221.5 94t95.5 240v610h127v-1024h-127v59q0 57 21 121l6 21l-4 4l-23 -39q-51 -90 -141 -142.5t-196 -52.5z" />
    <glyph glyph-name="uacute" unicode="&#xfa;" horiz-adv-x="1093" 
d="M569 1155h-96l100 266h132zM494 -29q-169 0 -265 107.5t-96 300.5v645h127v-641q0 -146 65.5 -224.5t188.5 -78.5q126 0 221.5 94t95.5 240v610h127v-1024h-127v59q0 57 21 121l6 21l-4 4l-23 -39q-51 -90 -141 -142.5t-196 -52.5z" />
    <glyph glyph-name="ucircumflex" unicode="&#xfb;" horiz-adv-x="1093" 
d="M377 1151h-125l223 281h103l221 -281h-123l-144 188h-12zM494 -29q-169 0 -265 107.5t-96 300.5v645h127v-641q0 -146 65.5 -224.5t188.5 -78.5q126 0 221.5 94t95.5 240v610h127v-1024h-127v59q0 57 21 121l6 21l-4 4l-23 -39q-51 -90 -141 -142.5t-196 -52.5z" />
    <glyph glyph-name="udieresis" unicode="&#xfc;" horiz-adv-x="1093" 
d="M469 1159h-129v146h129v-146zM717 1159h-127v146h127v-146zM494 -29q-169 0 -265 107.5t-96 300.5v645h127v-641q0 -146 65.5 -224.5t188.5 -78.5q126 0 221.5 94t95.5 240v610h127v-1024h-127v59q0 57 21 121l6 21l-4 4l-23 -39q-51 -90 -141 -142.5t-196 -52.5z" />
    <glyph glyph-name="yacute" unicode="&#xfd;" horiz-adv-x="1021" 
d="M557 1155h-96l100 266h131zM209 -438q-48 0 -84 10l2 115q34 -9 70 -9q63 0 100 34t80 128l69 154l-417 1030h129l350 -866h8l348 866h129l-491 -1186q-69 -158 -130 -217t-163 -59z" />
    <glyph glyph-name="thorn" unicode="&#xfe;" horiz-adv-x="1118" 
d="M262 -408h-129v1842h129v-523q0 -60 -16 -120l-8 -33l4 -2l20 47q44 122 139 187t213 65q190 0 312.5 -148.5t122.5 -376.5v-36q0 -224 -123.5 -374.5t-311.5 -150.5q-111 0 -204.5 64t-139.5 178h-8v-619zM602 80q128 0 223 116.5t95 295.5v38q0 183 -95.5 297.5
t-226.5 114.5q-143 0 -236.5 -103.5t-93.5 -267.5v-116q0 -162 96 -268.5t238 -106.5z" />
    <glyph glyph-name="ydieresis" unicode="&#xff;" horiz-adv-x="1021" 
d="M457 1159h-129v146h129v-146zM705 1159h-127v146h127v-146zM209 -438q-48 0 -84 10l2 115q34 -9 70 -9q63 0 100 34t80 128l69 154l-417 1030h129l350 -866h8l348 866h129l-491 -1186q-69 -158 -130 -217t-163 -59z" />
    <glyph glyph-name="Amacron" unicode="&#x100;" horiz-adv-x="1359" 
d="M963 1565h-564v92h564v-92zM160 0h-133l567 1434h172l567 -1434h-133l-176 440h-688zM674 1303l-295 -748h602l-295 748h-12z" />
    <glyph glyph-name="amacron" unicode="&#x101;" horiz-adv-x="1060" 
d="M813 1155h-563v92h563v-92zM422 -29q-151 0 -248.5 80.5t-97.5 204.5q0 266 323 319l326 56q70 12 70 65v19q0 96 -74.5 159.5t-190.5 63.5q-97 0 -173.5 -45t-102.5 -133h-135q32 130 142 211.5t271 81.5q176 0 285 -90.5t109 -239.5v-723h-127v59q0 64 22 123l15 31
l-2 2l-35 -55q-57 -92 -158.5 -140.5t-218.5 -48.5zM440 82q140 0 247.5 76t107.5 188v193l-361 -62q-117 -21 -174 -72t-57 -145q0 -78 67 -128t170 -50z" />
    <glyph glyph-name="Abreve" unicode="&#x102;" horiz-adv-x="1359" 
d="M682 1524q-130 0 -209 67.5t-88 188.5h104q9 -78 61 -124t132 -46q78 0 129.5 46t62.5 124h105q-9 -121 -88.5 -188.5t-208.5 -67.5zM160 0h-133l567 1434h172l567 -1434h-133l-176 440h-688zM674 1303l-295 -748h602l-295 748h-12z" />
    <glyph glyph-name="abreve" unicode="&#x103;" horiz-adv-x="1060" 
d="M528 1122q-129 0 -208.5 67.5t-88.5 188.5h105q11 -77 62.5 -122.5t129.5 -45.5q79 0 131.5 45.5t61.5 122.5h104q-9 -121 -88 -188.5t-209 -67.5zM422 -29q-151 0 -248.5 80.5t-97.5 204.5q0 266 323 319l326 56q70 12 70 65v19q0 96 -74.5 159.5t-190.5 63.5
q-97 0 -173.5 -45t-102.5 -133h-135q32 130 142 211.5t271 81.5q176 0 285 -90.5t109 -239.5v-723h-127v59q0 64 22 123l15 31l-2 2l-35 -55q-57 -92 -158.5 -140.5t-218.5 -48.5zM440 82q140 0 247.5 76t107.5 188v193l-361 -62q-117 -21 -174 -72t-57 -145q0 -78 67 -128
t170 -50z" />
    <glyph glyph-name="Aogonek" unicode="&#x104;" horiz-adv-x="1359" 
d="M1178 -188q3 -116 184 -86v-82q-56 -15 -127 -15q-67 0 -116.5 42.5t-49.5 111.5q0 122 133 217h-2l-176 440h-688l-176 -440h-133l567 1434h172l567 -1434h-12q-77 -58 -110 -98.5t-33 -89.5zM674 1303l-295 -748h602l-295 748h-12z" />
    <glyph glyph-name="aogonek" unicode="&#x105;" horiz-adv-x="1052" 
d="M782 -188q0 -61 52 -80t131 -6v-82q-56 -15 -125 -15q-68 0 -117 42.5t-49 111.5q0 122 133 217h-8v59q0 64 22 123l15 31l-2 2l-35 -55q-57 -92 -158.5 -140.5t-218.5 -48.5q-151 0 -248.5 80.5t-97.5 204.5q0 266 323 319l326 56q70 12 70 65v19q0 96 -74.5 159.5
t-190.5 63.5q-97 0 -173.5 -45t-102.5 -133h-135q32 130 142 211.5t271 81.5q176 0 285 -90.5t109 -239.5v-723h-2q-77 -59 -110 -99t-32 -89zM795 346v193l-361 -62q-117 -21 -174 -72t-57 -145q0 -78 67 -128t170 -50q140 0 247.5 76t107.5 188z" />
    <glyph glyph-name="Cacute" unicode="&#x106;" horiz-adv-x="1294" 
d="M731 1565h-96l100 266h129zM666 -29q-128 0 -232.5 41.5t-174.5 112t-118 166t-69 199.5t-21 217v18q0 108 21 210.5t69 199t118 168.5t175 115.5t232 43.5q237 0 396 -132t179 -337h-131q-19 156 -138.5 255t-305.5 98q-101 0 -184 -37t-138.5 -98.5t-93.5 -142.5
t-55 -166t-17 -173v-24q0 -93 17 -180t55 -167t93.5 -139.5t138.5 -95t184 -35.5q187 -1 308.5 97.5t139.5 256.5h131q-20 -207 -180.5 -339t-398.5 -132z" />
    <glyph glyph-name="cacute" unicode="&#x107;" horiz-adv-x="1071" 
d="M584 1155h-97l101 266h131zM551 -29q-204 0 -341.5 148.5t-137.5 369.5v46q0 218 139 368t340 150q191 0 315.5 -109.5t134.5 -286.5h-127q-9 132 -103.5 209.5t-219.5 77.5q-143 0 -246.5 -112.5t-103.5 -290.5v-60q0 -178 102 -288.5t248 -110.5q126 0 220 76.5
t103 208.5h127q-10 -177 -134.5 -286.5t-315.5 -109.5z" />
    <glyph glyph-name="Cdotaccent" unicode="&#x10a;" horiz-adv-x="1294" 
d="M729 1565h-129v149h129v-149zM666 -29q-128 0 -232.5 41.5t-174.5 112t-118 166t-69 199.5t-21 217v18q0 108 21 210.5t69 199t118 168.5t175 115.5t232 43.5q237 0 396 -132t179 -337h-131q-19 156 -138.5 255t-305.5 98q-101 0 -184 -37t-138.5 -98.5t-93.5 -142.5
t-55 -166t-17 -173v-24q0 -93 17 -180t55 -167t93.5 -139.5t138.5 -95t184 -35.5q187 -1 308.5 97.5t139.5 256.5h131q-20 -207 -180.5 -339t-398.5 -132z" />
    <glyph glyph-name="cdotaccent" unicode="&#x10b;" horiz-adv-x="1071" 
d="M602 1155h-129v150h129v-150zM551 -29q-204 0 -341.5 148.5t-137.5 369.5v46q0 218 139 368t340 150q191 0 315.5 -109.5t134.5 -286.5h-127q-9 132 -103.5 209.5t-219.5 77.5q-143 0 -246.5 -112.5t-103.5 -290.5v-60q0 -178 102 -288.5t248 -110.5q126 0 220 76.5
t103 208.5h127q-10 -177 -134.5 -286.5t-315.5 -109.5z" />
    <glyph glyph-name="Ccaron" unicode="&#x10c;" horiz-adv-x="1294" 
d="M717 1546h-103l-223 281h125l143 -189h13l143 189h123zM666 -29q-128 0 -232.5 41.5t-174.5 112t-118 166t-69 199.5t-21 217v18q0 108 21 210.5t69 199t118 168.5t175 115.5t232 43.5q237 0 396 -132t179 -337h-131q-19 156 -138.5 255t-305.5 98q-101 0 -184 -37
t-138.5 -98.5t-93.5 -142.5t-55 -166t-17 -173v-24q0 -93 17 -180t55 -167t93.5 -139.5t138.5 -95t184 -35.5q187 -1 308.5 97.5t139.5 256.5h131q-20 -207 -180.5 -339t-398.5 -132z" />
    <glyph glyph-name="ccaron" unicode="&#x10d;" horiz-adv-x="1071" 
d="M590 1135h-103l-223 280h125l143 -188h13l143 188h123zM551 -29q-204 0 -341.5 148.5t-137.5 369.5v46q0 218 139 368t340 150q191 0 315.5 -109.5t134.5 -286.5h-127q-9 132 -103.5 209.5t-219.5 77.5q-143 0 -246.5 -112.5t-103.5 -290.5v-60q0 -178 102 -288.5
t248 -110.5q126 0 220 76.5t103 208.5h127q-10 -177 -134.5 -286.5t-315.5 -109.5z" />
    <glyph glyph-name="Dcaron" unicode="&#x10e;" horiz-adv-x="1345" 
d="M711 1546h-103l-223 281h125l143 -189h13l143 189h123zM618 0h-466v1434h466q308 0 493 -196t185 -521t-185 -521t-493 -196zM281 1317v-1200h325q257 0 409 161.5t152 438.5q0 279 -151 439.5t-410 160.5h-325z" />
    <glyph glyph-name="dcaron" unicode="&#x10f;" horiz-adv-x="1206" 
d="M504 -29q-188 0 -311 150.5t-123 374.5v34q0 228 122 377.5t312 149.5q114 0 207 -61t139 -175h6v613h127v-1430h-127v102q0 75 18 146l7 22l-2 2l-23 -53q-51 -118 -145 -185t-207 -67zM1149 1083h-76v351h107zM516 80q142 0 238 106.5t96 268.5v118q0 164 -93.5 267.5
t-236.5 103.5q-131 0 -226 -115t-95 -297v-38q0 -179 95 -296.5t222 -117.5z" />
    <glyph glyph-name="Dcroat" unicode="&#x110;" horiz-adv-x="1384" 
d="M618 0h-466v674h-105v112h105v648h466q308 0 493 -196t185 -521t-185 -521t-493 -196zM281 674v-557h325q257 0 409 161.5t152 438.5q0 279 -151 439.5t-410 160.5h-325v-531h356v-112h-356z" />
    <glyph glyph-name="dcroat" unicode="&#x111;" horiz-adv-x="1118" 
d="M504 -29q-190 0 -312 148.5t-122 376.5v36q0 224 123 374.5t311 150.5q113 0 207 -67.5t145 -186.5l23 -51l4 4l-11 37q-16 60 -16 125v260h-344v106h344v150h127v-150h92v-106h-92v-1176h-127v205h-8q-46 -115 -138 -175.5t-206 -60.5zM520 82q142 0 236 104.5t94 268.5
v116q0 162 -96 268.5t-238 106.5q-128 0 -222.5 -117t-94.5 -297v-38q0 -182 95 -297t226 -115z" />
    <glyph glyph-name="Emacron" unicode="&#x112;" horiz-adv-x="1253" 
d="M954 1565h-563v92h563v-92zM1151 0h-999v1434h999v-117h-870v-526h798v-115h-798v-559h870v-117z" />
    <glyph glyph-name="emacron" unicode="&#x113;" horiz-adv-x="1089" 
d="M829 1155h-563v92h563v-92zM547 -29q-134 0 -243 67.5t-170.5 186t-61.5 264.5v46q0 144 62 262.5t171 187t242 68.5q209 0 341 -145t132 -373v-39h-819v-17q0 -172 98.5 -284.5t247.5 -112.5q108 0 195 65.5t126 178.5h127q-41 -162 -162 -258.5t-286 -96.5zM201 600
h690q-20 152 -116.5 248t-227.5 96t-228.5 -96t-117.5 -248z" />
    <glyph glyph-name="Edotaccent" unicode="&#x116;" horiz-adv-x="1253" 
d="M735 1565h-129v149h129v-149zM1151 0h-999v1434h999v-117h-870v-526h798v-115h-798v-559h870v-117z" />
    <glyph glyph-name="edotaccent" unicode="&#x117;" horiz-adv-x="1089" 
d="M612 1155h-129v150h129v-150zM547 -29q-134 0 -243 67.5t-170.5 186t-61.5 264.5v46q0 144 62 262.5t171 187t242 68.5q209 0 341 -145t132 -373v-39h-819v-17q0 -172 98.5 -284.5t247.5 -112.5q108 0 195 65.5t126 178.5h127q-41 -162 -162 -258.5t-286 -96.5zM201 600
h690q-20 152 -116.5 248t-227.5 96t-228.5 -96t-117.5 -248z" />
    <glyph glyph-name="Eogonek" unicode="&#x118;" horiz-adv-x="1142" 
d="M1151 1434v-117h-870v-526h798v-115h-798v-559h870v-117h-152q-77 -57 -110 -98t-33 -90q1 -61 52 -80t130 -6v-82q-54 -15 -125 -15q-66 0 -115.5 42.5t-49.5 111.5q0 122 133 217h-729v1434h999z" />
    <glyph glyph-name="eogonek" unicode="&#x119;" horiz-adv-x="1085" 
d="M1020 535v-39h-819v-17q0 -172 98.5 -284.5t247.5 -112.5q108 0 195 65.5t126 178.5h127q-37 -146 -140.5 -240t-246.5 -111q-73 -56 -103.5 -95t-29.5 -87q0 -62 52 -81.5t130 -4.5v-82q-64 -17 -127 -14q-66 0 -114.5 42t-48.5 111q0 115 122 211q-183 22 -300 165.5
t-117 348.5v46q0 144 62 262.5t171 187t242 68.5q209 0 341 -145t132 -373zM547 944q-131 0 -228.5 -96t-117.5 -248h690q-20 152 -116.5 248t-227.5 96z" />
    <glyph glyph-name="Ecaron" unicode="&#x11a;" horiz-adv-x="1253" 
d="M723 1546h-102l-224 281h125l144 -189h12l143 189h123zM1151 0h-999v1434h999v-117h-870v-526h798v-115h-798v-559h870v-117z" />
    <glyph glyph-name="ecaron" unicode="&#x11b;" horiz-adv-x="1089" 
d="M600 1135h-102l-224 280h125l144 -188h12l143 188h123zM547 -29q-134 0 -243 67.5t-170.5 186t-61.5 264.5v46q0 144 62 262.5t171 187t242 68.5q209 0 341 -145t132 -373v-39h-819v-17q0 -172 98.5 -284.5t247.5 -112.5q108 0 195 65.5t126 178.5h127
q-41 -162 -162 -258.5t-286 -96.5zM201 600h690q-20 152 -116.5 248t-227.5 96t-228.5 -96t-117.5 -248z" />
    <glyph glyph-name="Gbreve" unicode="&#x11e;" horiz-adv-x="1339" 
d="M664 1524q-130 0 -209 67.5t-88 188.5h104q9 -78 61 -124t132 -46q78 0 129.5 46t62.5 124h105q-9 -121 -88.5 -188.5t-208.5 -67.5zM657 -29q-126 0 -229 42t-172 112.5t-116 166t-68 199.5t-21 216v18q0 108 21 210.5t69 199t118 168.5t175 115.5t232 43.5
q159 0 289 -65t207.5 -178.5t88.5 -255.5h-129q-15 163 -145.5 273.5t-310.5 109.5q-101 0 -184 -37t-138.5 -98t-93.5 -142t-55 -166.5t-17 -173.5v-24q0 -93 17 -180t55 -167t93.5 -139.5t138.5 -95t184 -35.5q113 0 202 43.5t144 118t83.5 168t28.5 198.5v7h-407v116h536
v-739h-118v174q0 69 20 125l16 49l-4 4l-28 -61q-69 -165 -185.5 -242.5t-296.5 -77.5z" />
    <glyph glyph-name="gbreve" unicode="&#x11f;" horiz-adv-x="1118" 
d="M551 1122q-129 0 -208.5 67.5t-88.5 188.5h104q11 -77 63 -122.5t130 -45.5q79 0 131 45.5t61 122.5h105q-9 -121 -88 -188.5t-209 -67.5zM535 -438q-148 0 -267 71.5t-164 184.5l125 26q33 -76 120 -124t186 -48q140 0 231.5 78t91.5 199v258h-6q-46 -115 -139 -175.5
t-209 -60.5q-124 0 -223 67.5t-154 187.5t-55 270v36q0 147 55.5 267t154.5 189t222 69q116 0 212.5 -67.5t141.5 -186.5l23 -51l4 2l-11 39q-16 69 -16 118v113h125v-1059q0 -181 -123.5 -292t-324.5 -111zM522 82q142 0 236 104.5t94 268.5v116q0 161 -96.5 268
t-237.5 107q-129 0 -223 -116.5t-94 -297.5v-38q0 -182 95 -297t226 -115z" />
    <glyph glyph-name="Gdotaccent" unicode="&#x120;" horiz-adv-x="1339" 
d="M729 1565h-129v149h129v-149zM657 -29q-126 0 -229 42t-172 112.5t-116 166t-68 199.5t-21 216v18q0 108 21 210.5t69 199t118 168.5t175 115.5t232 43.5q159 0 289 -65t207.5 -178.5t88.5 -255.5h-129q-15 163 -145.5 273.5t-310.5 109.5q-101 0 -184 -37t-138.5 -98
t-93.5 -142t-55 -166.5t-17 -173.5v-24q0 -93 17 -180t55 -167t93.5 -139.5t138.5 -95t184 -35.5q113 0 202 43.5t144 118t83.5 168t28.5 198.5v7h-407v116h536v-739h-118v174q0 69 20 125l16 49l-4 4l-28 -61q-69 -165 -185.5 -242.5t-296.5 -77.5z" />
    <glyph glyph-name="gdotaccent" unicode="&#x121;" horiz-adv-x="1118" 
d="M616 1155h-129v150h129v-150zM535 -438q-148 0 -267 71.5t-164 184.5l125 26q33 -76 120 -124t186 -48q140 0 231.5 78t91.5 199v258h-6q-46 -115 -139 -175.5t-209 -60.5q-124 0 -223 67.5t-154 187.5t-55 270v36q0 147 55.5 267t154.5 189t222 69q116 0 212.5 -67.5
t141.5 -186.5l23 -51l4 2l-11 39q-16 69 -16 118v113h125v-1059q0 -181 -123.5 -292t-324.5 -111zM522 82q142 0 236 104.5t94 268.5v116q0 161 -96.5 268t-237.5 107q-129 0 -223 -116.5t-94 -297.5v-38q0 -182 95 -297t226 -115z" />
    <glyph glyph-name="uni0122" unicode="&#x122;" horiz-adv-x="1458" 
d="M657 -29q-126 0 -229 42t-172 112.5t-116 166t-68 199.5t-21 216v18q0 108 21 210.5t69 199t118 168.5t175 115.5t232 43.5q159 0 289 -65t207.5 -178.5t88.5 -255.5h-129q-15 163 -145.5 273.5t-310.5 109.5q-101 0 -184 -37t-138.5 -98t-93.5 -142t-55 -166.5
t-17 -173.5v-24q0 -93 17 -180t55 -167t93.5 -139.5t138.5 -95t184 -35.5q113 0 202 43.5t144 118t83.5 168t28.5 198.5v7h-407v116h536v-739h-118v174q0 69 20 125l16 49l-4 4l-28 -61q-69 -165 -185.5 -242.5t-296.5 -77.5zM729 -403h-90l45 307h115z" />
    <glyph glyph-name="uni0123" unicode="&#x123;" horiz-adv-x="1118" 
d="M532 1159h-92l47 307h113zM535 -438q-148 0 -267 71.5t-164 184.5l125 26q33 -76 120 -124t186 -48q140 0 231.5 78t91.5 199v258h-6q-46 -115 -139 -175.5t-209 -60.5q-124 0 -223 67.5t-154 187.5t-55 270v36q0 147 55.5 267t154.5 189t222 69q116 0 212.5 -67.5
t141.5 -186.5l23 -51l4 2l-11 39q-16 69 -16 118v113h125v-1059q0 -181 -123.5 -292t-324.5 -111zM522 82q142 0 236 104.5t94 268.5v116q0 161 -96.5 268t-237.5 107q-129 0 -223 -116.5t-94 -297.5v-38q0 -182 95 -297t226 -115z" />
    <glyph glyph-name="Hbar" unicode="&#x126;" horiz-adv-x="1380" 
d="M276 0h-124v1049h-119v106h119v279h124v-279h828v279h125v-279h119v-106h-119v-1049h-125v680h-828v-680zM276 1049v-252h828v252h-828z" />
    <glyph glyph-name="hbar" unicode="&#x127;" horiz-adv-x="1093" 
d="M262 0h-129v1171h-90v107h90v156h129v-156h313v-107h-313v-202q0 -67 -18 -125l-11 -23l5 -2l24 39q50 90 140.5 142.5t195.5 52.5q171 0 267 -107.5t96 -300.5v-645h-130v641q0 147 -64.5 225t-188.5 78q-81 0 -152.5 -40.5t-117.5 -118t-46 -175.5v-610z" />
    <glyph glyph-name="Imacron" unicode="&#x12a;" horiz-adv-x="432" 
d="M498 1565h-564v92h564v-92zM281 0h-129v1434h129v-1434z" />
    <glyph glyph-name="imacron" unicode="&#x12b;" horiz-adv-x="333" 
d="M451 1155h-564v92h564v-92zM229 0h-123v1024h123v-1024z" />
    <glyph glyph-name="Iogonek" unicode="&#x12e;" horiz-adv-x="432" 
d="M133 -188q1 -61 52 -80t130 -6v-82q-54 -15 -125 -15q-66 0 -115.5 42.5t-49.5 111.5q0 122 133 217h-6v1434h129v-1434h-5q-77 -57 -110 -98t-33 -90z" />
    <glyph glyph-name="iogonek" unicode="&#x12f;" horiz-adv-x="333" 
d="M102 1305h131v-150h-131v150zM82 -188q0 -61 51.5 -80t130.5 -6v-82q-56 -15 -125 -15q-68 0 -117 42.5t-49 111.5q0 122 133 217v1024h123v-1024h-6q-77 -58 -109.5 -98.5t-31.5 -89.5z" />
    <glyph glyph-name="Idotaccent" unicode="&#x130;" horiz-adv-x="432" 
d="M279 1565h-129v149h129v-149zM281 0h-129v1434h129v-1434z" />
    <glyph glyph-name="dotlessi" unicode="&#x131;" horiz-adv-x="333" 
d="M229 0h-123v1024h123v-1024z" />
    <glyph glyph-name="uni0136" unicode="&#x136;" horiz-adv-x="1144" 
d="M281 0h-129v1434h129v-695h8l667 695h160l-684 -711l684 -729h-160l-667 713h-8v-707zM580 -403h-91l46 307h114z" />
    <glyph glyph-name="uni0137" unicode="&#x137;" horiz-adv-x="991" 
d="M262 0h-127v1434h127v-885h8l525 473h161l-553 -498l553 -524h-161l-525 500h-8v-500zM514 -403h-90l45 307h115z" />
    <glyph glyph-name="Lacute" unicode="&#x139;" horiz-adv-x="1181" 
d="M1126 0h-974v1434h129v-1317h845v-117zM680 1167h-96l100 267h129z" />
    <glyph glyph-name="lacute" unicode="&#x13a;" horiz-adv-x="395" 
d="M244 1565h-97l101 266h131zM260 0h-125v1434h125v-1434z" />
    <glyph glyph-name="uni013B" unicode="&#x13b;" horiz-adv-x="1181" 
d="M1126 0h-974v1434h129v-1317h845v-117zM641 -403h-90l45 307h113z" />
    <glyph glyph-name="uni013C" unicode="&#x13c;" horiz-adv-x="395" 
d="M260 0h-125v1434h125v-1434zM184 -403h-90l45 307h115z" />
    <glyph glyph-name="Lcaron" unicode="&#x13d;" horiz-adv-x="1181" 
d="M1126 0h-974v1434h129v-1317h845v-117zM604 1083h-76v351h107z" />
    <glyph glyph-name="lcaron" unicode="&#x13e;" horiz-adv-x="395" 
d="M250 1544h-103l-223 281h125l144 -189h12l143 189h123zM260 0h-125v1434h125v-1434z" />
    <glyph glyph-name="Lslash" unicode="&#x141;" horiz-adv-x="1181" 
d="M1126 0h-974v639l-140 -78v113l140 78v682h129v-611l444 246v-113l-444 -245v-594h845v-117z" />
    <glyph glyph-name="lslash" unicode="&#x142;" horiz-adv-x="395" 
d="M260 0h-127v672l-164 -103v113l164 104v648h127v-572l166 105v-115l-166 -102v-750z" />
    <glyph glyph-name="Nacute" unicode="&#x143;" horiz-adv-x="1372" 
d="M752 1565h-97l101 266h129zM281 0h-129v1434h149l782 -1229h9v1229h127v-1434h-148l-782 1229h-8v-1229z" />
    <glyph glyph-name="nacute" unicode="&#x144;" horiz-adv-x="1085" 
d="M608 1155h-96l100 266h131zM262 0h-127v1024h127v-59q0 -63 -18 -121l-8 -23l4 -2l22 39q51 90 141.5 142.5t196.5 52.5q169 0 265 -107.5t96 -300.5v-645h-130v641q0 147 -65.5 225t-190.5 78t-219 -93.5t-94 -240.5v-610z" />
    <glyph glyph-name="uni0145" unicode="&#x145;" horiz-adv-x="1372" 
d="M281 0h-129v1434h149l782 -1229h9v1229h127v-1434h-148l-782 1229h-8v-1229zM696 -403h-92l45 307h115z" />
    <glyph glyph-name="uni0146" unicode="&#x146;" horiz-adv-x="1091" 
d="M262 0h-127v1024h127v-59q0 -63 -18 -121l-8 -23l4 -2l22 39q51 90 141.5 142.5t196.5 52.5q169 0 265 -107.5t96 -300.5v-645h-130v641q0 147 -65.5 225t-190.5 78t-219 -93.5t-94 -240.5v-610zM551 -403h-90l45 307h115z" />
    <glyph glyph-name="Ncaron" unicode="&#x147;" horiz-adv-x="1372" 
d="M739 1546h-102l-223 281h125l143 -189h12l144 189h123zM281 0h-129v1434h149l782 -1229h9v1229h127v-1434h-148l-782 1229h-8v-1229z" />
    <glyph glyph-name="ncaron" unicode="&#x148;" horiz-adv-x="1085" 
d="M614 1135h-102l-223 280h125l143 -188h12l144 188h123zM262 0h-127v1024h127v-59q0 -63 -18 -121l-8 -23l4 -2l22 39q51 90 141.5 142.5t196.5 52.5q169 0 265 -107.5t96 -300.5v-645h-130v641q0 147 -65.5 225t-190.5 78t-219 -93.5t-94 -240.5v-610z" />
    <glyph glyph-name="Eng" unicode="&#x14a;" horiz-adv-x="1372" 
d="M872 -430v96q75 6 122.5 30.5t70.5 71t30 99t5 133.5h-29l-782 1229h-8v-1229h-129v1434h149l782 -1229h9v1229h127v-1434q2 -230 -73 -325t-274 -105z" />
    <glyph glyph-name="eng" unicode="&#x14b;" horiz-adv-x="1093" 
d="M657 -430v106q50 5 80 18.5t53 48t32.5 96.5t8.5 161v641q0 147 -65.5 225t-192.5 78q-125 0 -218 -93.5t-93 -240.5v-610h-129v1024h129v-59q0 -53 -18 -121l-11 -23l7 -2l22 39q51 90 141 142.5t195 52.5q171 0 267 -107.5t96 -300.5v-645q0 -229 -69 -329t-235 -101z
" />
    <glyph glyph-name="Omacron" unicode="&#x14c;" horiz-adv-x="1331" 
d="M948 1565h-563v92h563v-92zM666 -29q-128 0 -232.5 41.5t-174.5 112t-118 166t-69 199.5t-21 217v18q0 108 21 210.5t69 199t118 168.5t175 115.5t232 43.5q128 0 233 -43.5t174.5 -115.5t117 -168.5t68.5 -199t21 -210.5v-18q0 -113 -21 -217t-68.5 -199.5t-117 -166
t-174.5 -112t-233 -41.5zM666 88q101 -1 184 34.5t138.5 95t93 140t54.5 167.5t17 180v24q0 88 -17 173.5t-55 166.5t-93 142.5t-138 98.5t-184 36q-101 0 -184 -37t-138.5 -98.5t-93.5 -142.5t-55 -166t-17 -173v-24q0 -93 17 -180t55 -167t93.5 -139.5t138.5 -95
t184 -35.5z" />
    <glyph glyph-name="omacron" unicode="&#x14d;" horiz-adv-x="1087" 
d="M827 1155h-563v92h563v-92zM545 -29q-202 0 -337.5 150t-135.5 373v36q0 220 136.5 371.5t336.5 151.5q205 0 338 -148t133 -375v-36q0 -227 -133 -375t-338 -148zM545 82q148 0 245 115t97 288v52q0 172 -97 289.5t-245 117.5t-246 -117.5t-98 -289.5v-52
q0 -173 97 -288t247 -115z" />
    <glyph glyph-name="Ohungarumlaut" unicode="&#x150;" horiz-adv-x="1331" 
d="M526 1565h-84l101 266h119zM842 1565h-84l100 266h121zM666 -29q-128 0 -232.5 41.5t-174.5 112t-118 166t-69 199.5t-21 217v18q0 108 21 210.5t69 199t118 168.5t175 115.5t232 43.5q128 0 233 -43.5t174.5 -115.5t117 -168.5t68.5 -199t21 -210.5v-18q0 -113 -21 -217
t-68.5 -199.5t-117 -166t-174.5 -112t-233 -41.5zM666 88q101 -1 184 34.5t138.5 95t93 140t54.5 167.5t17 180v24q0 88 -17 173.5t-55 166.5t-93 142.5t-138 98.5t-184 36q-101 0 -184 -37t-138.5 -98.5t-93.5 -142.5t-55 -166t-17 -173v-24q0 -93 17 -180t55 -167
t93.5 -139.5t138.5 -95t184 -35.5z" />
    <glyph glyph-name="ohungarumlaut" unicode="&#x151;" horiz-adv-x="1087" 
d="M412 1153h-84l100 266h119zM727 1153h-84l100 266h121zM545 -29q-202 0 -337.5 150t-135.5 373v36q0 220 136.5 371.5t336.5 151.5q205 0 338 -148t133 -375v-36q0 -227 -133 -375t-338 -148zM545 82q148 0 245 115t97 288v52q0 172 -97 289.5t-245 117.5t-246 -117.5
t-98 -289.5v-52q0 -173 97 -288t247 -115z" />
    <glyph glyph-name="OE" unicode="&#x152;" horiz-adv-x="2230" 
d="M666 -29q-128 0 -232.5 41.5t-174.5 112t-118 166t-69 199.5t-21 217v18q0 108 21 210.5t69 199t118 168.5t175 115.5t232 43.5q181 0 307.5 -83.5t200.5 -227.5v283h958v-117h-829v-526h757v-115h-757v-559h829v-117h-958v272q-74 -139 -200.5 -220t-307.5 -81zM666 88
q101 -1 184 34.5t138.5 95t93 140t54.5 167.5t17 180v24q0 88 -17 173.5t-55 166.5t-93 142.5t-138 98.5t-184 36q-101 0 -184 -37t-138.5 -98.5t-93.5 -142.5t-55 -166t-17 -173v-24q0 -93 17 -180t55 -167t93.5 -139.5t138.5 -95t184 -35.5z" />
    <glyph glyph-name="oe" unicode="&#x153;" horiz-adv-x="1912" 
d="M543 -29q-202 0 -337.5 150t-135.5 373v36q0 220 137 371.5t336 151.5q139 0 248 -73.5t165 -199.5q60 124 170 198.5t244 74.5q209 0 342 -145.5t133 -372.5v-39h-819v-17q0 -172 97.5 -284.5t246.5 -112.5q110 0 197 65.5t125 178.5h129q-41 -162 -163 -258.5
t-288 -96.5q-136 0 -246 74t-168 199q-58 -127 -166 -200t-247 -73zM543 82q150 0 247 115t97 288v52q0 172 -98 289.5t-246 117.5t-246 -117.5t-98 -289.5v-52q0 -173 97 -288t247 -115zM1026 600h688q-19 152 -115.5 248t-228.5 96q-131 0 -227.5 -96t-116.5 -248z" />
    <glyph glyph-name="Racute" unicode="&#x154;" horiz-adv-x="1275" 
d="M686 1565h-96l100 266h129zM281 0h-129v1434h591q217 0 332 -100t115 -298q0 -171 -87.5 -270t-252.5 -119l315 -647h-133l-309 637h-442v-637zM281 1317v-563h460q320 0 320 282q0 144 -79.5 212.5t-240.5 68.5h-460z" />
    <glyph glyph-name="racute" unicode="&#x155;" horiz-adv-x="684" 
d="M432 1155h-96l100 266h131zM262 0h-127v1024h127v-61q0 -67 -18 -125l-8 -25l4 -2l22 41q59 112 174 162q71 28 156 37l63 2v-127h-80q-66 0 -119.5 -21.5t-89 -58t-59.5 -85t-34.5 -101.5t-10.5 -109v-551z" />
    <glyph glyph-name="uni0156" unicode="&#x156;" horiz-adv-x="1271" 
d="M281 0h-129v1434h591q217 0 332 -100t115 -298q0 -171 -87.5 -270t-252.5 -119l315 -647h-133l-309 637h-442v-637zM281 1317v-563h460q320 0 320 282q0 144 -79.5 212.5t-240.5 68.5h-460zM625 -403h-90l45 307h114z" />
    <glyph glyph-name="uni0157" unicode="&#x157;" horiz-adv-x="663" 
d="M262 0h-127v1024h127v-61q0 -67 -18 -125l-8 -25l4 -2l22 41q59 112 174 162q71 28 156 37l63 2v-127h-80q-66 0 -119.5 -21.5t-89 -58t-59.5 -85t-34.5 -101.5t-10.5 -109v-551zM182 -403h-90l45 307h113z" />
    <glyph glyph-name="Rcaron" unicode="&#x158;" horiz-adv-x="1275" 
d="M672 1546h-103l-223 281h125l143 -189h13l143 189h123zM281 0h-129v1434h591q217 0 332 -100t115 -298q0 -171 -87.5 -270t-252.5 -119l315 -647h-133l-309 637h-442v-637zM281 1317v-563h460q320 0 320 282q0 144 -79.5 212.5t-240.5 68.5h-460z" />
    <glyph glyph-name="rcaron" unicode="&#x159;" horiz-adv-x="684" 
d="M438 1135h-102l-223 280h125l143 -188h12l144 188h122zM262 0h-127v1024h127v-61q0 -67 -18 -125l-8 -25l4 -2l22 41q59 112 174 162q71 28 156 37l63 2v-127h-80q-66 0 -119.5 -21.5t-89 -58t-59.5 -85t-34.5 -101.5t-10.5 -109v-551z" />
    <glyph glyph-name="Sacute" unicode="&#x15a;" horiz-adv-x="1212" 
d="M672 1565h-97l101 266h129zM616 -29q-242 0 -382.5 100t-155.5 283h129q17 -132 123.5 -201t287.5 -69q176 0 282 80t106 211q0 100 -81.5 166.5t-269.5 120.5l-116 32q-230 66 -333.5 158t-103.5 231q0 172 138 275.5t368 103.5q221 0 350 -95t146 -269h-127
q-17 116 -115 184t-252 68q-175 0 -277 -71t-102 -192q0 -95 82 -163.5t265 -120.5l116 -31q232 -66 336.5 -157.5t104.5 -229.5q0 -189 -140.5 -301.5t-378.5 -112.5z" />
    <glyph glyph-name="sacute" unicode="&#x15b;" horiz-adv-x="954" 
d="M535 1155h-97l101 266h131zM481 -29q-170 0 -282 69t-131 187h143q25 -68 96.5 -107.5t173.5 -39.5q121 0 202 53.5t81 134.5q0 67 -53 109t-176 69l-164 35q-143 32 -212 100t-69 177q0 133 106.5 214t282.5 81q159 0 262.5 -67.5t120.5 -184.5h-135q-19 66 -85 104.5
t-163 38.5q-109 0 -185.5 -47.5t-76.5 -134.5q0 -74 50.5 -110t174.5 -66l156 -33q144 -31 219.5 -103t75.5 -176q0 -138 -112 -220.5t-300 -82.5z" />
    <glyph glyph-name="Scedilla" unicode="&#x15e;" horiz-adv-x="1212" 
d="M1135 385q0 -183 -130.5 -294t-353.5 -120l-20 -65q52 -13 90 -50.5t33 -97.5q-6 -60 -47.5 -88t-100.5 -28q-55 0 -125 28l21 76l84 -16q2 1 14.5 -0.5t30 6.5t22.5 24q10 32 -22 50q-5 3 -12 4.5t-34.5 6.5t-56.5 11l41 141q-221 9 -349.5 108.5t-141.5 272.5h129
q17 -132 123.5 -201t287.5 -69q176 0 282 80t106 211q0 100 -81.5 166.5t-269.5 120.5l-116 32q-230 66 -333.5 158t-103.5 231q0 172 138 275.5t368 103.5q221 0 350 -95t146 -269h-127q-17 116 -115 184t-252 68q-175 0 -277 -71t-102 -192q0 -95 82 -163.5t265 -120.5
l116 -31q232 -66 336.5 -157.5t104.5 -229.5z" />
    <glyph glyph-name="scedilla" unicode="&#x15f;" horiz-adv-x="954" 
d="M893 274q0 -129 -98.5 -209.5t-266.5 -91.5l-18 -63q52 -13 90 -50.5t33 -97.5q-6 -60 -47.5 -88t-100.5 -28q-55 0 -125 28l21 76l84 -16q2 1 14.5 -0.5t30 6.5t22.5 24q10 32 -22 50q-3 2 -102 22l38 135q-156 8 -258.5 76t-119.5 180h143q25 -68 96.5 -107.5
t173.5 -39.5q121 0 202 53.5t81 134.5q0 67 -53 109t-176 69l-164 35q-143 32 -212 100t-69 177q0 133 106.5 214t282.5 81q159 0 262.5 -67.5t120.5 -184.5h-135q-19 66 -85 104.5t-163 38.5q-109 0 -185.5 -47.5t-76.5 -134.5q0 -74 50.5 -110t174.5 -66l156 -33
q144 -31 219.5 -103t75.5 -176z" />
    <glyph glyph-name="Scaron" unicode="&#x160;" horiz-adv-x="1212" 
d="M657 1546h-102l-223 281h125l143 -189h12l144 189h123zM616 -29q-242 0 -382.5 100t-155.5 283h129q17 -132 123.5 -201t287.5 -69q176 0 282 80t106 211q0 100 -81.5 166.5t-269.5 120.5l-116 32q-230 66 -333.5 158t-103.5 231q0 172 138 275.5t368 103.5
q221 0 350 -95t146 -269h-127q-17 116 -115 184t-252 68q-175 0 -277 -71t-102 -192q0 -95 82 -163.5t265 -120.5l116 -31q232 -66 336.5 -157.5t104.5 -229.5q0 -189 -140.5 -301.5t-378.5 -112.5z" />
    <glyph glyph-name="scaron" unicode="&#x161;" horiz-adv-x="954" 
d="M539 1135h-103l-223 280h125l143 -188h13l143 188h123zM481 -29q-170 0 -282 69t-131 187h143q25 -68 96.5 -107.5t173.5 -39.5q121 0 202 53.5t81 134.5q0 67 -53 109t-176 69l-164 35q-143 32 -212 100t-69 177q0 133 106.5 214t282.5 81q159 0 262.5 -67.5
t120.5 -184.5h-135q-19 66 -85 104.5t-163 38.5q-109 0 -185.5 -47.5t-76.5 -134.5q0 -74 50.5 -110t174.5 -66l156 -33q144 -31 219.5 -103t75.5 -176q0 -138 -112 -220.5t-300 -82.5z" />
    <glyph glyph-name="uni0162" unicode="&#x162;" horiz-adv-x="1191" 
d="M662 1317l-3 -1317h-14l-20 -70q52 -13 91 -51t32 -98q-6 -60 -47.5 -87.5t-100.5 -27.5q-52 0 -125 29l21 76l84 -17q2 1 15 -0.5t30.5 7t21.5 24.5q5 17 -2 29.5t-20 17.5q-2 2 -4.5 3t-7 2.5t-8.5 2.5t-13 3t-17 3.5t-23.5 4.5t-29.5 6l41 143h-31v1317h-487v117h1102
v-117h-485z" />
    <glyph glyph-name="uni0163" unicode="&#x163;" horiz-adv-x="595" 
d="M569 94v-110q-83 -16 -151 -7l-12 -38q51 -13 89 -51.5t33 -98.5q-6 -60 -47 -87.5t-100 -27.5q-57 0 -125 27l20 78l84 -17q3 1 15 -0.5t30 6.5t23 25q9 29 -22 47q-3 2 -103 25l37 131q-56 23 -84 57q-63 72 -63 207v647h-164v117h94q40 0 55 20t15 64v168l129 47v-229
q0 -55 -33 -68v-2h268v-117h-235v-626q0 -112 60 -156.5t187 -30.5z" />
    <glyph glyph-name="Tcaron" unicode="&#x164;" horiz-adv-x="1191" 
d="M643 1546h-102l-224 281h125l144 -189h12l143 189h123zM659 0h-127v1317h-487v117h1102v-117h-485z" />
    <glyph glyph-name="tcaron" unicode="&#x165;" horiz-adv-x="610" 
d="M481 1122h-75v351h100zM567 94v-110q-98 -20 -183.5 -1t-129.5 70q-64 73 -64 207v647h-163v117h102q61 0 61 61v191l129 47v-229q0 -55 -32 -68v-2h268v-117h-236v-626q0 -111 60.5 -156t187.5 -31z" />
    <glyph glyph-name="Tbar" unicode="&#x166;" horiz-adv-x="1200" 
d="M664 0h-127v786h-295v109h295v422h-488v117h1102v-117h-487v-422h294v-109h-294v-786z" />
    <glyph glyph-name="tbar" unicode="&#x167;" horiz-adv-x="595" 
d="M567 94v-110q-98 -20 -183.5 -1t-129.5 70q-64 73 -64 207v367h-163v106h163v174h-163v117h90q41 0 57 23.5t16 72.5v156l129 47v-229q0 -55 -32 -68v-2h268v-117h-236v-174h236v-106h-236v-346q0 -111 60.5 -156t187.5 -31z" />
    </font>
</defs>
</svg>
